<?xml version="1.0" encoding="utf-8"?>
<svg xmlns="http://www.w3.org/2000/svg" xmlns:xlink="http://www.w3.org/1999/xlink" width="600" height="400" viewBox="0 0 2400 1600">
<defs>
  <clipPath id="clip400">
    <rect x="0" y="0" width="2400" height="1600"/>
  </clipPath>
</defs>
<path clip-path="url(#clip400)" d="M0 1600 L2400 1600 L2400 8.88178e-14 L0 8.88178e-14  Z" fill="#ffffff" fill-rule="evenodd" fill-opacity="1"/>
<defs>
  <clipPath id="clip401">
    <rect x="256" y="123" width="2097" height="1301"/>
  </clipPath>
</defs>
<path clip-path="url(#clip400)" d="M256.556 1423.18 L2352.76 1423.18 L2352.76 123.472 L256.556 123.472  Z" fill="#ffffff" fill-rule="evenodd" fill-opacity="1"/>
<polyline clip-path="url(#clip401)" style="stroke:#000000; stroke-linecap:round; stroke-linejoin:round; stroke-width:2; stroke-opacity:0.1; fill:none" points="315.882,1423.18 315.882,123.472 "/>
<polyline clip-path="url(#clip401)" style="stroke:#000000; stroke-linecap:round; stroke-linejoin:round; stroke-width:2; stroke-opacity:0.1; fill:none" points="810.269,1423.18 810.269,123.472 "/>
<polyline clip-path="url(#clip401)" style="stroke:#000000; stroke-linecap:round; stroke-linejoin:round; stroke-width:2; stroke-opacity:0.1; fill:none" points="1304.66,1423.18 1304.66,123.472 "/>
<polyline clip-path="url(#clip401)" style="stroke:#000000; stroke-linecap:round; stroke-linejoin:round; stroke-width:2; stroke-opacity:0.1; fill:none" points="1799.04,1423.18 1799.04,123.472 "/>
<polyline clip-path="url(#clip401)" style="stroke:#000000; stroke-linecap:round; stroke-linejoin:round; stroke-width:2; stroke-opacity:0.1; fill:none" points="2293.43,1423.18 2293.43,123.472 "/>
<polyline clip-path="url(#clip401)" style="stroke:#000000; stroke-linecap:round; stroke-linejoin:round; stroke-width:2; stroke-opacity:0.1; fill:none" points="256.556,1358.77 2352.76,1358.77 "/>
<polyline clip-path="url(#clip401)" style="stroke:#000000; stroke-linecap:round; stroke-linejoin:round; stroke-width:2; stroke-opacity:0.1; fill:none" points="256.556,1163.62 2352.76,1163.62 "/>
<polyline clip-path="url(#clip401)" style="stroke:#000000; stroke-linecap:round; stroke-linejoin:round; stroke-width:2; stroke-opacity:0.1; fill:none" points="256.556,968.475 2352.76,968.475 "/>
<polyline clip-path="url(#clip401)" style="stroke:#000000; stroke-linecap:round; stroke-linejoin:round; stroke-width:2; stroke-opacity:0.1; fill:none" points="256.556,773.328 2352.76,773.328 "/>
<polyline clip-path="url(#clip401)" style="stroke:#000000; stroke-linecap:round; stroke-linejoin:round; stroke-width:2; stroke-opacity:0.1; fill:none" points="256.556,578.181 2352.76,578.181 "/>
<polyline clip-path="url(#clip401)" style="stroke:#000000; stroke-linecap:round; stroke-linejoin:round; stroke-width:2; stroke-opacity:0.1; fill:none" points="256.556,383.034 2352.76,383.034 "/>
<polyline clip-path="url(#clip401)" style="stroke:#000000; stroke-linecap:round; stroke-linejoin:round; stroke-width:2; stroke-opacity:0.1; fill:none" points="256.556,187.888 2352.76,187.888 "/>
<polyline clip-path="url(#clip400)" style="stroke:#000000; stroke-linecap:round; stroke-linejoin:round; stroke-width:4; stroke-opacity:1; fill:none" points="256.556,1423.18 2352.76,1423.18 "/>
<polyline clip-path="url(#clip400)" style="stroke:#000000; stroke-linecap:round; stroke-linejoin:round; stroke-width:4; stroke-opacity:1; fill:none" points="315.882,1423.18 315.882,1404.28 "/>
<polyline clip-path="url(#clip400)" style="stroke:#000000; stroke-linecap:round; stroke-linejoin:round; stroke-width:4; stroke-opacity:1; fill:none" points="810.269,1423.18 810.269,1404.28 "/>
<polyline clip-path="url(#clip400)" style="stroke:#000000; stroke-linecap:round; stroke-linejoin:round; stroke-width:4; stroke-opacity:1; fill:none" points="1304.66,1423.18 1304.66,1404.28 "/>
<polyline clip-path="url(#clip400)" style="stroke:#000000; stroke-linecap:round; stroke-linejoin:round; stroke-width:4; stroke-opacity:1; fill:none" points="1799.04,1423.18 1799.04,1404.28 "/>
<polyline clip-path="url(#clip400)" style="stroke:#000000; stroke-linecap:round; stroke-linejoin:round; stroke-width:4; stroke-opacity:1; fill:none" points="2293.43,1423.18 2293.43,1404.28 "/>
<path clip-path="url(#clip400)" d="M293.267 1454.1 Q289.656 1454.1 287.827 1457.66 Q286.021 1461.2 286.021 1468.33 Q286.021 1475.44 287.827 1479.01 Q289.656 1482.55 293.267 1482.55 Q296.901 1482.55 298.706 1479.01 Q300.535 1475.44 300.535 1468.33 Q300.535 1461.2 298.706 1457.66 Q296.901 1454.1 293.267 1454.1 M293.267 1450.39 Q299.077 1450.39 302.132 1455 Q305.211 1459.58 305.211 1468.33 Q305.211 1477.06 302.132 1481.67 Q299.077 1486.25 293.267 1486.25 Q287.457 1486.25 284.378 1481.67 Q281.322 1477.06 281.322 1468.33 Q281.322 1459.58 284.378 1455 Q287.457 1450.39 293.267 1450.39 Z" fill="#000000" fill-rule="nonzero" fill-opacity="1" /><path clip-path="url(#clip400)" d="M313.429 1479.7 L318.313 1479.7 L318.313 1485.58 L313.429 1485.58 L313.429 1479.7 Z" fill="#000000" fill-rule="nonzero" fill-opacity="1" /><path clip-path="url(#clip400)" d="M338.498 1454.1 Q334.887 1454.1 333.058 1457.66 Q331.253 1461.2 331.253 1468.33 Q331.253 1475.44 333.058 1479.01 Q334.887 1482.55 338.498 1482.55 Q342.132 1482.55 343.938 1479.01 Q345.766 1475.44 345.766 1468.33 Q345.766 1461.2 343.938 1457.66 Q342.132 1454.1 338.498 1454.1 M338.498 1450.39 Q344.308 1450.39 347.364 1455 Q350.442 1459.58 350.442 1468.33 Q350.442 1477.06 347.364 1481.67 Q344.308 1486.25 338.498 1486.25 Q332.688 1486.25 329.609 1481.67 Q326.554 1477.06 326.554 1468.33 Q326.554 1459.58 329.609 1455 Q332.688 1450.39 338.498 1450.39 Z" fill="#000000" fill-rule="nonzero" fill-opacity="1" /><path clip-path="url(#clip400)" d="M782.005 1481.64 L798.325 1481.64 L798.325 1485.58 L776.38 1485.58 L776.38 1481.64 Q779.042 1478.89 783.626 1474.26 Q788.232 1469.61 789.413 1468.27 Q791.658 1465.74 792.538 1464.01 Q793.44 1462.25 793.44 1460.56 Q793.44 1457.8 791.496 1456.07 Q789.575 1454.33 786.473 1454.33 Q784.274 1454.33 781.82 1455.09 Q779.39 1455.86 776.612 1457.41 L776.612 1452.69 Q779.436 1451.55 781.89 1450.97 Q784.343 1450.39 786.38 1450.39 Q791.751 1450.39 794.945 1453.08 Q798.14 1455.77 798.14 1460.26 Q798.14 1462.39 797.329 1464.31 Q796.542 1466.2 794.436 1468.8 Q793.857 1469.47 790.755 1472.69 Q787.653 1475.88 782.005 1481.64 Z" fill="#000000" fill-rule="nonzero" fill-opacity="1" /><path clip-path="url(#clip400)" d="M808.139 1479.7 L813.024 1479.7 L813.024 1485.58 L808.139 1485.58 L808.139 1479.7 Z" fill="#000000" fill-rule="nonzero" fill-opacity="1" /><path clip-path="url(#clip400)" d="M823.255 1451.02 L841.612 1451.02 L841.612 1454.96 L827.538 1454.96 L827.538 1463.43 Q828.556 1463.08 829.575 1462.92 Q830.593 1462.73 831.612 1462.73 Q837.399 1462.73 840.778 1465.9 Q844.158 1469.08 844.158 1474.49 Q844.158 1480.07 840.686 1483.17 Q837.213 1486.25 830.894 1486.25 Q828.718 1486.25 826.45 1485.88 Q824.204 1485.51 821.797 1484.77 L821.797 1480.07 Q823.88 1481.2 826.102 1481.76 Q828.325 1482.32 830.801 1482.32 Q834.806 1482.32 837.144 1480.21 Q839.482 1478.1 839.482 1474.49 Q839.482 1470.88 837.144 1468.77 Q834.806 1466.67 830.801 1466.67 Q828.926 1466.67 827.051 1467.08 Q825.2 1467.5 823.255 1468.38 L823.255 1451.02 Z" fill="#000000" fill-rule="nonzero" fill-opacity="1" /><path clip-path="url(#clip400)" d="M1271.82 1451.02 L1290.18 1451.02 L1290.18 1454.96 L1276.1 1454.96 L1276.1 1463.43 Q1277.12 1463.08 1278.14 1462.92 Q1279.16 1462.73 1280.18 1462.73 Q1285.96 1462.73 1289.34 1465.9 Q1292.72 1469.08 1292.72 1474.49 Q1292.72 1480.07 1289.25 1483.17 Q1285.78 1486.25 1279.46 1486.25 Q1277.28 1486.25 1275.01 1485.88 Q1272.77 1485.51 1270.36 1484.77 L1270.36 1480.07 Q1272.45 1481.2 1274.67 1481.76 Q1276.89 1482.32 1279.37 1482.32 Q1283.37 1482.32 1285.71 1480.21 Q1288.05 1478.1 1288.05 1474.49 Q1288.05 1470.88 1285.71 1468.77 Q1283.37 1466.67 1279.37 1466.67 Q1277.49 1466.67 1275.62 1467.08 Q1273.76 1467.5 1271.82 1468.38 L1271.82 1451.02 Z" fill="#000000" fill-rule="nonzero" fill-opacity="1" /><path clip-path="url(#clip400)" d="M1301.94 1479.7 L1306.82 1479.7 L1306.82 1485.58 L1301.94 1485.58 L1301.94 1479.7 Z" fill="#000000" fill-rule="nonzero" fill-opacity="1" /><path clip-path="url(#clip400)" d="M1327.01 1454.1 Q1323.39 1454.1 1321.57 1457.66 Q1319.76 1461.2 1319.76 1468.33 Q1319.76 1475.44 1321.57 1479.01 Q1323.39 1482.55 1327.01 1482.55 Q1330.64 1482.55 1332.45 1479.01 Q1334.27 1475.44 1334.27 1468.33 Q1334.27 1461.2 1332.45 1457.66 Q1330.64 1454.1 1327.01 1454.1 M1327.01 1450.39 Q1332.82 1450.39 1335.87 1455 Q1338.95 1459.58 1338.95 1468.33 Q1338.95 1477.06 1335.87 1481.67 Q1332.82 1486.25 1327.01 1486.25 Q1321.2 1486.25 1318.12 1481.67 Q1315.06 1477.06 1315.06 1468.33 Q1315.06 1459.58 1318.12 1455 Q1321.2 1450.39 1327.01 1450.39 Z" fill="#000000" fill-rule="nonzero" fill-opacity="1" /><path clip-path="url(#clip400)" d="M1765.36 1451.02 L1787.58 1451.02 L1787.58 1453.01 L1775.04 1485.58 L1770.15 1485.58 L1781.96 1454.96 L1765.36 1454.96 L1765.36 1451.02 Z" fill="#000000" fill-rule="nonzero" fill-opacity="1" /><path clip-path="url(#clip400)" d="M1796.7 1479.7 L1801.59 1479.7 L1801.59 1485.58 L1796.7 1485.58 L1796.7 1479.7 Z" fill="#000000" fill-rule="nonzero" fill-opacity="1" /><path clip-path="url(#clip400)" d="M1811.82 1451.02 L1830.18 1451.02 L1830.18 1454.96 L1816.1 1454.96 L1816.1 1463.43 Q1817.12 1463.08 1818.14 1462.92 Q1819.16 1462.73 1820.18 1462.73 Q1825.96 1462.73 1829.34 1465.9 Q1832.72 1469.08 1832.72 1474.49 Q1832.72 1480.07 1829.25 1483.17 Q1825.78 1486.25 1819.46 1486.25 Q1817.28 1486.25 1815.01 1485.88 Q1812.77 1485.51 1810.36 1484.77 L1810.36 1480.07 Q1812.45 1481.2 1814.67 1481.76 Q1816.89 1482.32 1819.37 1482.32 Q1823.37 1482.32 1825.71 1480.21 Q1828.05 1478.1 1828.05 1474.49 Q1828.05 1470.88 1825.71 1468.77 Q1823.37 1466.67 1819.37 1466.67 Q1817.49 1466.67 1815.62 1467.08 Q1813.76 1467.5 1811.82 1468.38 L1811.82 1451.02 Z" fill="#000000" fill-rule="nonzero" fill-opacity="1" /><path clip-path="url(#clip400)" d="M2245.5 1481.64 L2253.14 1481.64 L2253.14 1455.28 L2244.83 1456.95 L2244.83 1452.69 L2253.09 1451.02 L2257.77 1451.02 L2257.77 1481.64 L2265.41 1481.64 L2265.41 1485.58 L2245.5 1485.58 L2245.5 1481.64 Z" fill="#000000" fill-rule="nonzero" fill-opacity="1" /><path clip-path="url(#clip400)" d="M2284.85 1454.1 Q2281.24 1454.1 2279.41 1457.66 Q2277.61 1461.2 2277.61 1468.33 Q2277.61 1475.44 2279.41 1479.01 Q2281.24 1482.55 2284.85 1482.55 Q2288.49 1482.55 2290.29 1479.01 Q2292.12 1475.44 2292.12 1468.33 Q2292.12 1461.2 2290.29 1457.66 Q2288.49 1454.1 2284.85 1454.1 M2284.85 1450.39 Q2290.66 1450.39 2293.72 1455 Q2296.8 1459.58 2296.8 1468.33 Q2296.8 1477.06 2293.72 1481.67 Q2290.66 1486.25 2284.85 1486.25 Q2279.04 1486.25 2275.96 1481.67 Q2272.91 1477.06 2272.91 1468.33 Q2272.91 1459.58 2275.96 1455 Q2279.04 1450.39 2284.85 1450.39 Z" fill="#000000" fill-rule="nonzero" fill-opacity="1" /><path clip-path="url(#clip400)" d="M2305.02 1479.7 L2309.9 1479.7 L2309.9 1485.58 L2305.02 1485.58 L2305.02 1479.7 Z" fill="#000000" fill-rule="nonzero" fill-opacity="1" /><path clip-path="url(#clip400)" d="M2330.08 1454.1 Q2326.47 1454.1 2324.64 1457.66 Q2322.84 1461.2 2322.84 1468.33 Q2322.84 1475.44 2324.64 1479.01 Q2326.47 1482.55 2330.08 1482.55 Q2333.72 1482.55 2335.52 1479.01 Q2337.35 1475.44 2337.35 1468.33 Q2337.35 1461.2 2335.52 1457.66 Q2333.72 1454.1 2330.08 1454.1 M2330.08 1450.39 Q2335.89 1450.39 2338.95 1455 Q2342.03 1459.58 2342.03 1468.33 Q2342.03 1477.06 2338.95 1481.67 Q2335.89 1486.25 2330.08 1486.25 Q2324.27 1486.25 2321.2 1481.67 Q2318.14 1477.06 2318.14 1468.33 Q2318.14 1459.58 2321.2 1455 Q2324.27 1450.39 2330.08 1450.39 Z" fill="#000000" fill-rule="nonzero" fill-opacity="1" /><path clip-path="url(#clip400)" d="M1252.97 1522.27 L1252.97 1532.4 L1265.03 1532.4 L1265.03 1536.95 L1252.97 1536.95 L1252.97 1556.3 Q1252.97 1560.66 1254.14 1561.9 Q1255.35 1563.14 1259.01 1563.14 L1265.03 1563.14 L1265.03 1568.04 L1259.01 1568.04 Q1252.23 1568.04 1249.66 1565.53 Q1247.08 1562.98 1247.08 1556.3 L1247.08 1536.95 L1242.78 1536.95 L1242.78 1532.4 L1247.08 1532.4 L1247.08 1522.27 L1252.97 1522.27 Z" fill="#000000" fill-rule="nonzero" fill-opacity="1" /><path clip-path="url(#clip400)" d="M1307.52 1518.58 Q1303.26 1525.9 1301.19 1533.06 Q1299.12 1540.23 1299.12 1547.58 Q1299.12 1554.93 1301.19 1562.16 Q1303.29 1569.35 1307.52 1576.64 L1302.43 1576.64 Q1297.65 1569.16 1295.27 1561.93 Q1292.91 1554.71 1292.91 1547.58 Q1292.91 1540.48 1295.27 1533.29 Q1297.62 1526.09 1302.43 1518.58 L1307.52 1518.58 Z" fill="#000000" fill-rule="nonzero" fill-opacity="1" /><path clip-path="url(#clip400)" d="M1341.61 1533.45 L1341.61 1538.98 Q1339.13 1537.71 1336.45 1537.07 Q1333.78 1536.44 1330.91 1536.44 Q1326.55 1536.44 1324.36 1537.77 Q1322.19 1539.11 1322.19 1541.79 Q1322.19 1543.82 1323.75 1545 Q1325.31 1546.15 1330.02 1547.2 L1332.03 1547.64 Q1338.27 1548.98 1340.88 1551.43 Q1343.52 1553.85 1343.52 1558.21 Q1343.52 1563.17 1339.57 1566.07 Q1335.66 1568.97 1328.78 1568.97 Q1325.92 1568.97 1322.8 1568.39 Q1319.71 1567.85 1316.27 1566.74 L1316.27 1560.69 Q1319.52 1562.38 1322.67 1563.24 Q1325.82 1564.07 1328.91 1564.07 Q1333.05 1564.07 1335.27 1562.66 Q1337.5 1561.23 1337.5 1558.65 Q1337.5 1556.27 1335.88 1554.99 Q1334.29 1553.72 1328.85 1552.54 L1326.81 1552.07 Q1321.37 1550.92 1318.95 1548.56 Q1316.53 1546.18 1316.53 1542.04 Q1316.53 1537.01 1320.09 1534.27 Q1323.66 1531.54 1330.21 1531.54 Q1333.46 1531.54 1336.33 1532.01 Q1339.19 1532.49 1341.61 1533.45 Z" fill="#000000" fill-rule="nonzero" fill-opacity="1" /><path clip-path="url(#clip400)" d="M1351.92 1518.58 L1357.01 1518.58 Q1361.79 1526.09 1364.14 1533.29 Q1366.53 1540.48 1366.53 1547.58 Q1366.53 1554.71 1364.14 1561.93 Q1361.79 1569.16 1357.01 1576.64 L1351.92 1576.64 Q1356.15 1569.35 1358.22 1562.16 Q1360.32 1554.93 1360.32 1547.58 Q1360.32 1540.23 1358.22 1533.06 Q1356.15 1525.9 1351.92 1518.58 Z" fill="#000000" fill-rule="nonzero" fill-opacity="1" /><polyline clip-path="url(#clip400)" style="stroke:#000000; stroke-linecap:round; stroke-linejoin:round; stroke-width:4; stroke-opacity:1; fill:none" points="256.556,1423.18 256.556,123.472 "/>
<polyline clip-path="url(#clip400)" style="stroke:#000000; stroke-linecap:round; stroke-linejoin:round; stroke-width:4; stroke-opacity:1; fill:none" points="256.556,1358.77 275.454,1358.77 "/>
<polyline clip-path="url(#clip400)" style="stroke:#000000; stroke-linecap:round; stroke-linejoin:round; stroke-width:4; stroke-opacity:1; fill:none" points="256.556,1163.62 275.454,1163.62 "/>
<polyline clip-path="url(#clip400)" style="stroke:#000000; stroke-linecap:round; stroke-linejoin:round; stroke-width:4; stroke-opacity:1; fill:none" points="256.556,968.475 275.454,968.475 "/>
<polyline clip-path="url(#clip400)" style="stroke:#000000; stroke-linecap:round; stroke-linejoin:round; stroke-width:4; stroke-opacity:1; fill:none" points="256.556,773.328 275.454,773.328 "/>
<polyline clip-path="url(#clip400)" style="stroke:#000000; stroke-linecap:round; stroke-linejoin:round; stroke-width:4; stroke-opacity:1; fill:none" points="256.556,578.181 275.454,578.181 "/>
<polyline clip-path="url(#clip400)" style="stroke:#000000; stroke-linecap:round; stroke-linejoin:round; stroke-width:4; stroke-opacity:1; fill:none" points="256.556,383.034 275.454,383.034 "/>
<polyline clip-path="url(#clip400)" style="stroke:#000000; stroke-linecap:round; stroke-linejoin:round; stroke-width:4; stroke-opacity:1; fill:none" points="256.556,187.888 275.454,187.888 "/>
<path clip-path="url(#clip400)" d="M114.26 1359.22 L143.936 1359.22 L143.936 1363.16 L114.26 1363.16 L114.26 1359.22 Z" fill="#000000" fill-rule="nonzero" fill-opacity="1" /><path clip-path="url(#clip400)" d="M164.028 1344.57 Q160.417 1344.57 158.589 1348.13 Q156.783 1351.67 156.783 1358.8 Q156.783 1365.91 158.589 1369.47 Q160.417 1373.02 164.028 1373.02 Q167.663 1373.02 169.468 1369.47 Q171.297 1365.91 171.297 1358.8 Q171.297 1351.67 169.468 1348.13 Q167.663 1344.57 164.028 1344.57 M164.028 1340.86 Q169.839 1340.86 172.894 1345.47 Q175.973 1350.05 175.973 1358.8 Q175.973 1367.53 172.894 1372.14 Q169.839 1376.72 164.028 1376.72 Q158.218 1376.72 155.14 1372.14 Q152.084 1367.53 152.084 1358.8 Q152.084 1350.05 155.14 1345.47 Q158.218 1340.86 164.028 1340.86 Z" fill="#000000" fill-rule="nonzero" fill-opacity="1" /><path clip-path="url(#clip400)" d="M184.19 1370.17 L189.075 1370.17 L189.075 1376.05 L184.19 1376.05 L184.19 1370.17 Z" fill="#000000" fill-rule="nonzero" fill-opacity="1" /><path clip-path="url(#clip400)" d="M213.426 1357.41 Q216.783 1358.13 218.658 1360.4 Q220.556 1362.67 220.556 1366 Q220.556 1371.12 217.037 1373.92 Q213.519 1376.72 207.037 1376.72 Q204.862 1376.72 202.547 1376.28 Q200.255 1375.86 197.801 1375.01 L197.801 1370.49 Q199.746 1371.63 202.061 1372.21 Q204.375 1372.78 206.899 1372.78 Q211.297 1372.78 213.588 1371.05 Q215.903 1369.31 215.903 1366 Q215.903 1362.95 213.75 1361.23 Q211.621 1359.5 207.801 1359.5 L203.774 1359.5 L203.774 1355.66 L207.987 1355.66 Q211.436 1355.66 213.264 1354.29 Q215.093 1352.9 215.093 1350.31 Q215.093 1347.65 213.195 1346.23 Q211.32 1344.8 207.801 1344.8 Q205.88 1344.8 203.681 1345.22 Q201.482 1345.63 198.843 1346.51 L198.843 1342.35 Q201.505 1341.6 203.82 1341.23 Q206.158 1340.86 208.218 1340.86 Q213.542 1340.86 216.644 1343.29 Q219.746 1345.7 219.746 1349.82 Q219.746 1352.69 218.102 1354.68 Q216.459 1356.65 213.426 1357.41 Z" fill="#000000" fill-rule="nonzero" fill-opacity="1" /><path clip-path="url(#clip400)" d="M115.209 1164.07 L144.885 1164.07 L144.885 1168.01 L115.209 1168.01 L115.209 1164.07 Z" fill="#000000" fill-rule="nonzero" fill-opacity="1" /><path clip-path="url(#clip400)" d="M164.977 1149.42 Q161.366 1149.42 159.538 1152.99 Q157.732 1156.53 157.732 1163.66 Q157.732 1170.76 159.538 1174.33 Q161.366 1177.87 164.977 1177.87 Q168.612 1177.87 170.417 1174.33 Q172.246 1170.76 172.246 1163.66 Q172.246 1156.53 170.417 1152.99 Q168.612 1149.42 164.977 1149.42 M164.977 1145.72 Q170.788 1145.72 173.843 1150.32 Q176.922 1154.91 176.922 1163.66 Q176.922 1172.38 173.843 1176.99 Q170.788 1181.57 164.977 1181.57 Q159.167 1181.57 156.089 1176.99 Q153.033 1172.38 153.033 1163.66 Q153.033 1154.91 156.089 1150.32 Q159.167 1145.72 164.977 1145.72 Z" fill="#000000" fill-rule="nonzero" fill-opacity="1" /><path clip-path="url(#clip400)" d="M185.139 1175.02 L190.024 1175.02 L190.024 1180.9 L185.139 1180.9 L185.139 1175.02 Z" fill="#000000" fill-rule="nonzero" fill-opacity="1" /><path clip-path="url(#clip400)" d="M204.237 1176.97 L220.556 1176.97 L220.556 1180.9 L198.612 1180.9 L198.612 1176.97 Q201.274 1174.21 205.857 1169.58 Q210.463 1164.93 211.644 1163.59 Q213.889 1161.06 214.769 1159.33 Q215.672 1157.57 215.672 1155.88 Q215.672 1153.12 213.727 1151.39 Q211.806 1149.65 208.704 1149.65 Q206.505 1149.65 204.051 1150.42 Q201.621 1151.18 198.843 1152.73 L198.843 1148.01 Q201.667 1146.87 204.121 1146.3 Q206.574 1145.72 208.612 1145.72 Q213.982 1145.72 217.176 1148.4 Q220.371 1151.09 220.371 1155.58 Q220.371 1157.71 219.561 1159.63 Q218.773 1161.53 216.667 1164.12 Q216.088 1164.79 212.986 1168.01 Q209.885 1171.2 204.237 1176.97 Z" fill="#000000" fill-rule="nonzero" fill-opacity="1" /><path clip-path="url(#clip400)" d="M114.839 968.926 L144.515 968.926 L144.515 972.861 L114.839 972.861 L114.839 968.926 Z" fill="#000000" fill-rule="nonzero" fill-opacity="1" /><path clip-path="url(#clip400)" d="M164.607 954.274 Q160.996 954.274 159.167 957.838 Q157.362 961.38 157.362 968.51 Q157.362 975.616 159.167 979.181 Q160.996 982.723 164.607 982.723 Q168.241 982.723 170.047 979.181 Q171.876 975.616 171.876 968.51 Q171.876 961.38 170.047 957.838 Q168.241 954.274 164.607 954.274 M164.607 950.57 Q170.417 950.57 173.473 955.176 Q176.551 959.76 176.551 968.51 Q176.551 977.236 173.473 981.843 Q170.417 986.426 164.607 986.426 Q158.797 986.426 155.718 981.843 Q152.663 977.236 152.663 968.51 Q152.663 959.76 155.718 955.176 Q158.797 950.57 164.607 950.57 Z" fill="#000000" fill-rule="nonzero" fill-opacity="1" /><path clip-path="url(#clip400)" d="M184.769 979.875 L189.653 979.875 L189.653 985.755 L184.769 985.755 L184.769 979.875 Z" fill="#000000" fill-rule="nonzero" fill-opacity="1" /><path clip-path="url(#clip400)" d="M200.649 981.82 L208.287 981.82 L208.287 955.454 L199.977 957.121 L199.977 952.862 L208.241 951.195 L212.917 951.195 L212.917 981.82 L220.556 981.82 L220.556 985.755 L200.649 985.755 L200.649 981.82 Z" fill="#000000" fill-rule="nonzero" fill-opacity="1" /><path clip-path="url(#clip400)" d="M163.38 759.127 Q159.769 759.127 157.94 762.692 Q156.135 766.233 156.135 773.363 Q156.135 780.469 157.94 784.034 Q159.769 787.576 163.38 787.576 Q167.015 787.576 168.82 784.034 Q170.649 780.469 170.649 773.363 Q170.649 766.233 168.82 762.692 Q167.015 759.127 163.38 759.127 M163.38 755.423 Q169.19 755.423 172.246 760.03 Q175.325 764.613 175.325 773.363 Q175.325 782.09 172.246 786.696 Q169.19 791.279 163.38 791.279 Q157.57 791.279 154.491 786.696 Q151.436 782.09 151.436 773.363 Q151.436 764.613 154.491 760.03 Q157.57 755.423 163.38 755.423 Z" fill="#000000" fill-rule="nonzero" fill-opacity="1" /><path clip-path="url(#clip400)" d="M183.542 784.728 L188.426 784.728 L188.426 790.608 L183.542 790.608 L183.542 784.728 Z" fill="#000000" fill-rule="nonzero" fill-opacity="1" /><path clip-path="url(#clip400)" d="M208.612 759.127 Q205 759.127 203.172 762.692 Q201.366 766.233 201.366 773.363 Q201.366 780.469 203.172 784.034 Q205 787.576 208.612 787.576 Q212.246 787.576 214.051 784.034 Q215.88 780.469 215.88 773.363 Q215.88 766.233 214.051 762.692 Q212.246 759.127 208.612 759.127 M208.612 755.423 Q214.422 755.423 217.477 760.03 Q220.556 764.613 220.556 773.363 Q220.556 782.09 217.477 786.696 Q214.422 791.279 208.612 791.279 Q202.801 791.279 199.723 786.696 Q196.667 782.09 196.667 773.363 Q196.667 764.613 199.723 760.03 Q202.801 755.423 208.612 755.423 Z" fill="#000000" fill-rule="nonzero" fill-opacity="1" /><path clip-path="url(#clip400)" d="M164.607 563.98 Q160.996 563.98 159.167 567.545 Q157.362 571.086 157.362 578.216 Q157.362 585.322 159.167 588.887 Q160.996 592.429 164.607 592.429 Q168.241 592.429 170.047 588.887 Q171.876 585.322 171.876 578.216 Q171.876 571.086 170.047 567.545 Q168.241 563.98 164.607 563.98 M164.607 560.276 Q170.417 560.276 173.473 564.883 Q176.551 569.466 176.551 578.216 Q176.551 586.943 173.473 591.549 Q170.417 596.133 164.607 596.133 Q158.797 596.133 155.718 591.549 Q152.663 586.943 152.663 578.216 Q152.663 569.466 155.718 564.883 Q158.797 560.276 164.607 560.276 Z" fill="#000000" fill-rule="nonzero" fill-opacity="1" /><path clip-path="url(#clip400)" d="M184.769 589.582 L189.653 589.582 L189.653 595.461 L184.769 595.461 L184.769 589.582 Z" fill="#000000" fill-rule="nonzero" fill-opacity="1" /><path clip-path="url(#clip400)" d="M200.649 591.526 L208.287 591.526 L208.287 565.161 L199.977 566.827 L199.977 562.568 L208.241 560.901 L212.917 560.901 L212.917 591.526 L220.556 591.526 L220.556 595.461 L200.649 595.461 L200.649 591.526 Z" fill="#000000" fill-rule="nonzero" fill-opacity="1" /><path clip-path="url(#clip400)" d="M164.977 368.833 Q161.366 368.833 159.538 372.398 Q157.732 375.94 157.732 383.069 Q157.732 390.176 159.538 393.74 Q161.366 397.282 164.977 397.282 Q168.612 397.282 170.417 393.74 Q172.246 390.176 172.246 383.069 Q172.246 375.94 170.417 372.398 Q168.612 368.833 164.977 368.833 M164.977 365.129 Q170.788 365.129 173.843 369.736 Q176.922 374.319 176.922 383.069 Q176.922 391.796 173.843 396.402 Q170.788 400.986 164.977 400.986 Q159.167 400.986 156.089 396.402 Q153.033 391.796 153.033 383.069 Q153.033 374.319 156.089 369.736 Q159.167 365.129 164.977 365.129 Z" fill="#000000" fill-rule="nonzero" fill-opacity="1" /><path clip-path="url(#clip400)" d="M185.139 394.435 L190.024 394.435 L190.024 400.314 L185.139 400.314 L185.139 394.435 Z" fill="#000000" fill-rule="nonzero" fill-opacity="1" /><path clip-path="url(#clip400)" d="M204.237 396.379 L220.556 396.379 L220.556 400.314 L198.612 400.314 L198.612 396.379 Q201.274 393.625 205.857 388.995 Q210.463 384.342 211.644 383 Q213.889 380.477 214.769 378.741 Q215.672 376.981 215.672 375.291 Q215.672 372.537 213.727 370.801 Q211.806 369.065 208.704 369.065 Q206.505 369.065 204.051 369.829 Q201.621 370.592 198.843 372.143 L198.843 367.421 Q201.667 366.287 204.121 365.708 Q206.574 365.129 208.612 365.129 Q213.982 365.129 217.176 367.815 Q220.371 370.5 220.371 374.991 Q220.371 377.12 219.561 379.041 Q218.773 380.94 216.667 383.532 Q216.088 384.203 212.986 387.421 Q209.885 390.615 204.237 396.379 Z" fill="#000000" fill-rule="nonzero" fill-opacity="1" /><path clip-path="url(#clip400)" d="M164.028 173.686 Q160.417 173.686 158.589 177.251 Q156.783 180.793 156.783 187.922 Q156.783 195.029 158.589 198.594 Q160.417 202.135 164.028 202.135 Q167.663 202.135 169.468 198.594 Q171.297 195.029 171.297 187.922 Q171.297 180.793 169.468 177.251 Q167.663 173.686 164.028 173.686 M164.028 169.983 Q169.839 169.983 172.894 174.589 Q175.973 179.172 175.973 187.922 Q175.973 196.649 172.894 201.256 Q169.839 205.839 164.028 205.839 Q158.218 205.839 155.14 201.256 Q152.084 196.649 152.084 187.922 Q152.084 179.172 155.14 174.589 Q158.218 169.983 164.028 169.983 Z" fill="#000000" fill-rule="nonzero" fill-opacity="1" /><path clip-path="url(#clip400)" d="M184.19 199.288 L189.075 199.288 L189.075 205.168 L184.19 205.168 L184.19 199.288 Z" fill="#000000" fill-rule="nonzero" fill-opacity="1" /><path clip-path="url(#clip400)" d="M213.426 186.534 Q216.783 187.251 218.658 189.52 Q220.556 191.788 220.556 195.121 Q220.556 200.237 217.037 203.038 Q213.519 205.839 207.037 205.839 Q204.862 205.839 202.547 205.399 Q200.255 204.982 197.801 204.126 L197.801 199.612 Q199.746 200.746 202.061 201.325 Q204.375 201.904 206.899 201.904 Q211.297 201.904 213.588 200.168 Q215.903 198.432 215.903 195.121 Q215.903 192.066 213.75 190.353 Q211.621 188.617 207.801 188.617 L203.774 188.617 L203.774 184.774 L207.987 184.774 Q211.436 184.774 213.264 183.409 Q215.093 182.02 215.093 179.427 Q215.093 176.765 213.195 175.353 Q211.32 173.918 207.801 173.918 Q205.88 173.918 203.681 174.334 Q201.482 174.751 198.843 175.631 L198.843 171.464 Q201.505 170.723 203.82 170.353 Q206.158 169.983 208.218 169.983 Q213.542 169.983 216.644 172.413 Q219.746 174.821 219.746 178.941 Q219.746 181.811 218.102 183.802 Q216.459 185.77 213.426 186.534 Z" fill="#000000" fill-rule="nonzero" fill-opacity="1" /><path clip-path="url(#clip400)" d="M16.4842 838.59 L16.4842 829.933 L56.238 808.863 L16.4842 808.863 L16.4842 802.624 L64.0042 802.624 L64.0042 811.282 L24.2503 832.352 L64.0042 832.352 L64.0042 838.59 L16.4842 838.59 Z" fill="#000000" fill-rule="nonzero" fill-opacity="1" /><path clip-path="url(#clip400)" d="M28.3562 790.084 L28.3562 784.227 L64.0042 784.227 L64.0042 790.084 L28.3562 790.084 M14.479 790.084 L14.479 784.227 L21.895 784.227 L21.895 790.084 L14.479 790.084 Z" fill="#000000" fill-rule="nonzero" fill-opacity="1" /><path clip-path="url(#clip400)" d="M14.479 771.973 L14.479 766.117 L64.0042 766.117 L64.0042 771.973 L14.479 771.973 Z" fill="#000000" fill-rule="nonzero" fill-opacity="1" /><path clip-path="url(#clip400)" d="M46.0847 737.662 Q46.0847 744.76 47.7079 747.497 Q49.3312 750.234 53.2461 750.234 Q56.3653 750.234 58.2114 748.197 Q60.0256 746.129 60.0256 742.596 Q60.0256 737.726 56.5881 734.798 Q53.1188 731.837 47.3897 731.837 L46.0847 731.837 L46.0847 737.662 M43.6657 725.981 L64.0042 725.981 L64.0042 731.837 L58.5933 731.837 Q61.8398 733.843 63.3994 736.835 Q64.9272 739.826 64.9272 744.155 Q64.9272 749.63 61.8716 752.876 Q58.7843 756.091 53.6281 756.091 Q47.6125 756.091 44.5569 752.08 Q41.5014 748.038 41.5014 740.049 L41.5014 731.837 L40.9285 731.837 Q36.8862 731.837 34.6901 734.511 Q32.4621 737.153 32.4621 741.959 Q32.4621 745.015 33.1941 747.911 Q33.9262 750.807 35.3903 753.481 L29.9795 753.481 Q28.7381 750.266 28.1334 747.243 Q27.4968 744.219 27.4968 741.354 Q27.4968 733.62 31.5072 729.8 Q35.5176 725.981 43.6657 725.981 Z" fill="#000000" fill-rule="nonzero" fill-opacity="1" /><path clip-path="url(#clip400)" d="M28.3562 713.918 L28.3562 708.062 L64.0042 708.062 L64.0042 713.918 L28.3562 713.918 M14.479 713.918 L14.479 708.062 L21.895 708.062 L21.895 713.918 L14.479 713.918 Z" fill="#000000" fill-rule="nonzero" fill-opacity="1" /><path clip-path="url(#clip400)" d="M482.525 12.096 L494.718 12.096 L510.152 53.2532 L525.667 12.096 L537.86 12.096 L537.86 72.576 L529.88 72.576 L529.88 19.4686 L514.284 60.9499 L506.061 60.9499 L490.465 19.4686 L490.465 72.576 L482.525 72.576 L482.525 12.096 Z" fill="#000000" fill-rule="nonzero" fill-opacity="1" /><path clip-path="url(#clip400)" d="M592.588 48.0275 L592.588 51.6733 L558.317 51.6733 Q558.803 59.3701 562.935 63.421 Q567.108 67.4314 574.521 67.4314 Q578.815 67.4314 582.825 66.3781 Q586.876 65.3249 590.846 63.2184 L590.846 70.267 Q586.836 71.9684 582.623 72.8596 Q578.41 73.7508 574.075 73.7508 Q563.219 73.7508 556.859 67.4314 Q550.54 61.1119 550.54 50.3365 Q550.54 39.1965 556.535 32.6746 Q562.571 26.1121 572.779 26.1121 Q581.934 26.1121 587.241 32.0264 Q592.588 37.9003 592.588 48.0275 M585.134 45.84 Q585.053 39.7232 581.691 36.0774 Q578.369 32.4315 572.86 32.4315 Q566.622 32.4315 562.854 35.9558 Q559.127 39.4801 558.56 45.8805 L585.134 45.84 Z" fill="#000000" fill-rule="nonzero" fill-opacity="1" /><path clip-path="url(#clip400)" d="M612.194 14.324 L612.194 27.2059 L627.547 27.2059 L627.547 32.9987 L612.194 32.9987 L612.194 57.6282 Q612.194 63.1779 613.693 64.7578 Q615.233 66.3376 619.891 66.3376 L627.547 66.3376 L627.547 72.576 L619.891 72.576 Q611.263 72.576 607.981 69.3758 Q604.7 66.1351 604.7 57.6282 L604.7 32.9987 L599.231 32.9987 L599.231 27.2059 L604.7 27.2059 L604.7 14.324 L612.194 14.324 Z" fill="#000000" fill-rule="nonzero" fill-opacity="1" /><path clip-path="url(#clip400)" d="M654.931 32.4315 Q648.936 32.4315 645.452 37.1306 Q641.968 41.7891 641.968 49.9314 Q641.968 58.0738 645.412 62.7728 Q648.896 67.4314 654.931 67.4314 Q660.886 67.4314 664.37 62.7323 Q667.854 58.0333 667.854 49.9314 Q667.854 41.8701 664.37 37.1711 Q660.886 32.4315 654.931 32.4315 M654.931 26.1121 Q664.654 26.1121 670.203 32.4315 Q675.753 38.7509 675.753 49.9314 Q675.753 61.0714 670.203 67.4314 Q664.654 73.7508 654.931 73.7508 Q645.169 73.7508 639.619 67.4314 Q634.11 61.0714 634.11 49.9314 Q634.11 38.7509 639.619 32.4315 Q645.169 26.1121 654.931 26.1121 Z" fill="#000000" fill-rule="nonzero" fill-opacity="1" /><path clip-path="url(#clip400)" d="M717.963 34.0924 L717.963 9.54393 L725.417 9.54393 L725.417 72.576 L717.963 72.576 L717.963 65.7705 Q715.614 69.8214 712.009 71.8063 Q708.444 73.7508 703.421 73.7508 Q695.197 73.7508 690.012 67.1883 Q684.868 60.6258 684.868 49.9314 Q684.868 39.2371 690.012 32.6746 Q695.197 26.1121 703.421 26.1121 Q708.444 26.1121 712.009 28.0971 Q715.614 30.0415 717.963 34.0924 M692.564 49.9314 Q692.564 58.1548 695.927 62.8538 Q699.329 67.5124 705.244 67.5124 Q711.158 67.5124 714.561 62.8538 Q717.963 58.1548 717.963 49.9314 Q717.963 41.7081 714.561 37.0496 Q711.158 32.3505 705.244 32.3505 Q699.329 32.3505 695.927 37.0496 Q692.564 41.7081 692.564 49.9314 Z" fill="#000000" fill-rule="nonzero" fill-opacity="1" /><path clip-path="url(#clip400)" d="M779.578 48.0275 L779.578 51.6733 L745.307 51.6733 Q745.793 59.3701 749.925 63.421 Q754.098 67.4314 761.511 67.4314 Q765.805 67.4314 769.815 66.3781 Q773.866 65.3249 777.836 63.2184 L777.836 70.267 Q773.825 71.9684 769.612 72.8596 Q765.4 73.7508 761.065 73.7508 Q750.209 73.7508 743.849 67.4314 Q737.529 61.1119 737.529 50.3365 Q737.529 39.1965 743.525 32.6746 Q749.56 26.1121 759.769 26.1121 Q768.924 26.1121 774.23 32.0264 Q779.578 37.9003 779.578 48.0275 M772.124 45.84 Q772.043 39.7232 768.681 36.0774 Q765.359 32.4315 759.85 32.4315 Q753.611 32.4315 749.844 35.9558 Q746.117 39.4801 745.55 45.8805 L772.124 45.84 Z" fill="#000000" fill-rule="nonzero" fill-opacity="1" /><path clip-path="url(#clip400)" d="M818.507 12.096 L856.747 12.096 L856.747 18.9825 L826.69 18.9825 L826.69 36.8875 L855.492 36.8875 L855.492 43.7741 L826.69 43.7741 L826.69 65.6895 L857.477 65.6895 L857.477 72.576 L818.507 72.576 L818.507 12.096 Z" fill="#000000" fill-rule="nonzero" fill-opacity="1" /><path clip-path="url(#clip400)" d="M869.832 54.671 L869.832 27.2059 L877.285 27.2059 L877.285 54.3874 Q877.285 60.8284 879.797 64.0691 Q882.309 67.2693 887.332 67.2693 Q893.368 67.2693 896.851 63.421 Q900.376 59.5726 900.376 52.9291 L900.376 27.2059 L907.829 27.2059 L907.829 72.576 L900.376 72.576 L900.376 65.6084 Q897.662 69.7404 894.056 71.7658 Q890.491 73.7508 885.752 73.7508 Q877.934 73.7508 873.883 68.8897 Q869.832 64.0286 869.832 54.671 M888.588 26.1121 L888.588 26.1121 Z" fill="#000000" fill-rule="nonzero" fill-opacity="1" /><path clip-path="url(#clip400)" d="M923.182 9.54393 L930.636 9.54393 L930.636 72.576 L923.182 72.576 L923.182 9.54393 Z" fill="#000000" fill-rule="nonzero" fill-opacity="1" /><path clip-path="url(#clip400)" d="M985.04 48.0275 L985.04 51.6733 L950.769 51.6733 Q951.255 59.3701 955.387 63.421 Q959.559 67.4314 966.973 67.4314 Q971.266 67.4314 975.277 66.3781 Q979.328 65.3249 983.298 63.2184 L983.298 70.267 Q979.287 71.9684 975.074 72.8596 Q970.861 73.7508 966.527 73.7508 Q955.67 73.7508 949.311 67.4314 Q942.991 61.1119 942.991 50.3365 Q942.991 39.1965 948.987 32.6746 Q955.022 26.1121 965.231 26.1121 Q974.386 26.1121 979.692 32.0264 Q985.04 37.9003 985.04 48.0275 M977.586 45.84 Q977.505 39.7232 974.143 36.0774 Q970.821 32.4315 965.312 32.4315 Q959.073 32.4315 955.306 35.9558 Q951.579 39.4801 951.012 45.8805 L977.586 45.84 Z" fill="#000000" fill-rule="nonzero" fill-opacity="1" /><path clip-path="url(#clip400)" d="M1023.56 34.1734 Q1022.31 33.4443 1020.81 33.1202 Q1019.35 32.7556 1017.57 32.7556 Q1011.25 32.7556 1007.85 36.8875 Q1004.48 40.9789 1004.48 48.6757 L1004.48 72.576 L996.99 72.576 L996.99 27.2059 L1004.48 27.2059 L1004.48 34.2544 Q1006.83 30.1225 1010.6 28.1376 Q1014.37 26.1121 1019.76 26.1121 Q1020.53 26.1121 1021.46 26.2337 Q1022.39 26.3147 1023.52 26.5172 L1023.56 34.1734 Z" fill="#000000" fill-rule="nonzero" fill-opacity="1" /><path clip-path="url(#clip400)" d="M1031.83 62.2867 L1040.37 62.2867 L1040.37 72.576 L1031.83 72.576 L1031.83 62.2867 M1031.83 29.6769 L1040.37 29.6769 L1040.37 39.9662 L1031.83 39.9662 L1031.83 29.6769 Z" fill="#000000" fill-rule="nonzero" fill-opacity="1" /><path clip-path="url(#clip400)" d="M1113.17 28.5427 L1113.17 35.5912 Q1110.01 33.9709 1106.61 33.1607 Q1103.2 32.3505 1099.56 32.3505 Q1094.01 32.3505 1091.21 34.0519 Q1088.46 35.7533 1088.46 39.156 Q1088.46 41.7486 1090.44 43.2475 Q1092.43 44.7058 1098.42 46.0426 L1100.98 46.6097 Q1108.92 48.3111 1112.24 51.4303 Q1115.6 54.509 1115.6 60.0587 Q1115.6 66.3781 1110.58 70.0644 Q1105.59 73.7508 1096.84 73.7508 Q1093.2 73.7508 1089.23 73.0216 Q1085.3 72.3329 1080.92 70.9151 L1080.92 63.2184 Q1085.06 65.3654 1089.07 66.4591 Q1093.08 67.5124 1097.01 67.5124 Q1102.27 67.5124 1105.11 65.73 Q1107.94 63.9071 1107.94 60.6258 Q1107.94 57.5877 1105.88 55.9673 Q1103.85 54.3469 1096.93 52.8481 L1094.33 52.2405 Q1087.41 50.7821 1084.33 47.7845 Q1081.25 44.7463 1081.25 39.4801 Q1081.25 33.0797 1085.79 29.5959 Q1090.32 26.1121 1098.67 26.1121 Q1102.8 26.1121 1106.45 26.7198 Q1110.09 27.3274 1113.17 28.5427 Z" fill="#000000" fill-rule="nonzero" fill-opacity="1" /><path clip-path="url(#clip400)" d="M1127.19 9.54393 L1134.68 9.54393 L1134.68 46.7717 L1156.92 27.2059 L1166.44 27.2059 L1142.38 48.4326 L1167.45 72.576 L1157.73 72.576 L1134.68 50.4176 L1134.68 72.576 L1127.19 72.576 L1127.19 9.54393 Z" fill="#000000" fill-rule="nonzero" fill-opacity="1" /><path clip-path="url(#clip400)" d="M1211.36 48.0275 L1211.36 51.6733 L1177.09 51.6733 Q1177.58 59.3701 1181.71 63.421 Q1185.88 67.4314 1193.3 67.4314 Q1197.59 67.4314 1201.6 66.3781 Q1205.65 65.3249 1209.62 63.2184 L1209.62 70.267 Q1205.61 71.9684 1201.4 72.8596 Q1197.19 73.7508 1192.85 73.7508 Q1181.99 73.7508 1175.63 67.4314 Q1169.32 61.1119 1169.32 50.3365 Q1169.32 39.1965 1175.31 32.6746 Q1181.35 26.1121 1191.55 26.1121 Q1200.71 26.1121 1206.02 32.0264 Q1211.36 37.9003 1211.36 48.0275 M1203.91 45.84 Q1203.83 39.7232 1200.47 36.0774 Q1197.14 32.4315 1191.64 32.4315 Q1185.4 32.4315 1181.63 35.9558 Q1177.9 39.4801 1177.34 45.8805 L1203.91 45.84 Z" fill="#000000" fill-rule="nonzero" fill-opacity="1" /><path clip-path="url(#clip400)" d="M1258.92 35.9153 Q1261.72 30.8922 1265.61 28.5022 Q1269.49 26.1121 1274.76 26.1121 Q1281.85 26.1121 1285.7 31.0947 Q1289.55 36.0368 1289.55 45.1919 L1289.55 72.576 L1282.05 72.576 L1282.05 45.4349 Q1282.05 38.913 1279.74 35.7533 Q1277.43 32.5936 1272.69 32.5936 Q1266.9 32.5936 1263.54 36.4419 Q1260.18 40.2903 1260.18 46.9338 L1260.18 72.576 L1252.68 72.576 L1252.68 45.4349 Q1252.68 38.8725 1250.37 35.7533 Q1248.06 32.5936 1243.24 32.5936 Q1237.53 32.5936 1234.17 36.4824 Q1230.81 40.3308 1230.81 46.9338 L1230.81 72.576 L1223.31 72.576 L1223.31 27.2059 L1230.81 27.2059 L1230.81 34.2544 Q1233.36 30.082 1236.92 28.0971 Q1240.49 26.1121 1245.39 26.1121 Q1250.33 26.1121 1253.78 28.6237 Q1257.26 31.1352 1258.92 35.9153 Z" fill="#000000" fill-rule="nonzero" fill-opacity="1" /><path clip-path="url(#clip400)" d="M1325.03 49.7694 Q1316 49.7694 1312.51 51.8354 Q1309.03 53.9013 1309.03 58.8839 Q1309.03 62.8538 1311.62 65.2034 Q1314.26 67.5124 1318.75 67.5124 Q1324.95 67.5124 1328.68 63.1374 Q1332.45 58.7219 1332.45 51.4303 L1332.45 49.7694 L1325.03 49.7694 M1339.9 46.6907 L1339.9 72.576 L1332.45 72.576 L1332.45 65.6895 Q1329.89 69.8214 1326.09 71.8063 Q1322.28 73.7508 1316.77 73.7508 Q1309.8 73.7508 1305.67 69.8619 Q1301.58 65.9325 1301.58 59.3701 Q1301.58 51.7138 1306.68 47.825 Q1311.83 43.9361 1321.99 43.9361 L1332.45 43.9361 L1332.45 43.2069 Q1332.45 38.0623 1329.04 35.2672 Q1325.68 32.4315 1319.56 32.4315 Q1315.67 32.4315 1311.99 33.3632 Q1308.3 34.295 1304.9 36.1584 L1304.9 29.2718 Q1308.99 27.692 1312.84 26.9223 Q1316.69 26.1121 1320.33 26.1121 Q1330.18 26.1121 1335.04 31.2163 Q1339.9 36.3204 1339.9 46.6907 Z" fill="#000000" fill-rule="nonzero" fill-opacity="1" /><path clip-path="url(#clip400)" d="M1427.24 16.7545 L1427.24 25.383 Q1423.1 21.5346 1418.41 19.6307 Q1413.75 17.7268 1408.48 17.7268 Q1398.11 17.7268 1392.6 24.0867 Q1387.09 30.4061 1387.09 42.3968 Q1387.09 54.3469 1392.6 60.7069 Q1398.11 67.0263 1408.48 67.0263 Q1413.75 67.0263 1418.41 65.1223 Q1423.1 63.2184 1427.24 59.3701 L1427.24 67.9175 Q1422.94 70.8341 1418.12 72.2924 Q1413.34 73.7508 1407.99 73.7508 Q1394.26 73.7508 1386.36 65.3654 Q1378.46 56.9395 1378.46 42.3968 Q1378.46 27.8135 1386.36 19.4281 Q1394.26 11.0023 1407.99 11.0023 Q1413.42 11.0023 1418.2 12.4606 Q1423.02 13.8784 1427.24 16.7545 Z" fill="#000000" fill-rule="nonzero" fill-opacity="1" /><path clip-path="url(#clip400)" d="M1478.36 48.0275 L1478.36 51.6733 L1444.09 51.6733 Q1444.57 59.3701 1448.71 63.421 Q1452.88 67.4314 1460.29 67.4314 Q1464.59 67.4314 1468.6 66.3781 Q1472.65 65.3249 1476.62 63.2184 L1476.62 70.267 Q1472.61 71.9684 1468.39 72.8596 Q1464.18 73.7508 1459.85 73.7508 Q1448.99 73.7508 1442.63 67.4314 Q1436.31 61.1119 1436.31 50.3365 Q1436.31 39.1965 1442.31 32.6746 Q1448.34 26.1121 1458.55 26.1121 Q1467.7 26.1121 1473.01 32.0264 Q1478.36 37.9003 1478.36 48.0275 M1470.91 45.84 Q1470.82 39.7232 1467.46 36.0774 Q1464.14 32.4315 1458.63 32.4315 Q1452.39 32.4315 1448.63 35.9558 Q1444.9 39.4801 1444.33 45.8805 L1470.91 45.84 Z" fill="#000000" fill-rule="nonzero" fill-opacity="1" /><path clip-path="url(#clip400)" d="M1528.31 45.1919 L1528.31 72.576 L1520.85 72.576 L1520.85 45.4349 Q1520.85 38.994 1518.34 35.7938 Q1515.83 32.5936 1510.81 32.5936 Q1504.77 32.5936 1501.29 36.4419 Q1497.8 40.2903 1497.8 46.9338 L1497.8 72.576 L1490.31 72.576 L1490.31 27.2059 L1497.8 27.2059 L1497.8 34.2544 Q1500.48 30.163 1504.08 28.1376 Q1507.73 26.1121 1512.47 26.1121 Q1520.29 26.1121 1524.3 30.9732 Q1528.31 35.7938 1528.31 45.1919 Z" fill="#000000" fill-rule="nonzero" fill-opacity="1" /><path clip-path="url(#clip400)" d="M1550.55 14.324 L1550.55 27.2059 L1565.9 27.2059 L1565.9 32.9987 L1550.55 32.9987 L1550.55 57.6282 Q1550.55 63.1779 1552.04 64.7578 Q1553.58 66.3376 1558.24 66.3376 L1565.9 66.3376 L1565.9 72.576 L1558.24 72.576 Q1549.61 72.576 1546.33 69.3758 Q1543.05 66.1351 1543.05 57.6282 L1543.05 32.9987 L1537.58 32.9987 L1537.58 27.2059 L1543.05 27.2059 L1543.05 14.324 L1550.55 14.324 Z" fill="#000000" fill-rule="nonzero" fill-opacity="1" /><path clip-path="url(#clip400)" d="M1601.99 34.1734 Q1600.74 33.4443 1599.24 33.1202 Q1597.78 32.7556 1596 32.7556 Q1589.68 32.7556 1586.27 36.8875 Q1582.91 40.9789 1582.91 48.6757 L1582.91 72.576 L1575.42 72.576 L1575.42 27.2059 L1582.91 27.2059 L1582.91 34.2544 Q1585.26 30.1225 1589.03 28.1376 Q1592.8 26.1121 1598.18 26.1121 Q1598.95 26.1121 1599.89 26.2337 Q1600.82 26.3147 1601.95 26.5172 L1601.99 34.1734 Z" fill="#000000" fill-rule="nonzero" fill-opacity="1" /><path clip-path="url(#clip400)" d="M1630.43 49.7694 Q1621.4 49.7694 1617.91 51.8354 Q1614.43 53.9013 1614.43 58.8839 Q1614.43 62.8538 1617.02 65.2034 Q1619.65 67.5124 1624.15 67.5124 Q1630.35 67.5124 1634.08 63.1374 Q1637.84 58.7219 1637.84 51.4303 L1637.84 49.7694 L1630.43 49.7694 M1645.3 46.6907 L1645.3 72.576 L1637.84 72.576 L1637.84 65.6895 Q1635.29 69.8214 1631.48 71.8063 Q1627.67 73.7508 1622.17 73.7508 Q1615.2 73.7508 1611.07 69.8619 Q1606.97 65.9325 1606.97 59.3701 Q1606.97 51.7138 1612.08 47.825 Q1617.22 43.9361 1627.39 43.9361 L1637.84 43.9361 L1637.84 43.2069 Q1637.84 38.0623 1634.44 35.2672 Q1631.08 32.4315 1624.96 32.4315 Q1621.07 32.4315 1617.39 33.3632 Q1613.7 34.295 1610.3 36.1584 L1610.3 29.2718 Q1614.39 27.692 1618.24 26.9223 Q1622.08 26.1121 1625.73 26.1121 Q1635.57 26.1121 1640.44 31.2163 Q1645.3 36.3204 1645.3 46.6907 Z" fill="#000000" fill-rule="nonzero" fill-opacity="1" /><path clip-path="url(#clip400)" d="M1660.65 9.54393 L1668.1 9.54393 L1668.1 72.576 L1660.65 72.576 L1660.65 9.54393 Z" fill="#000000" fill-rule="nonzero" fill-opacity="1" /><path clip-path="url(#clip400)" d="M1718.58 18.8205 L1718.58 65.8515 L1728.46 65.8515 Q1740.98 65.8515 1746.77 60.1802 Q1752.6 54.509 1752.6 42.2752 Q1752.6 30.1225 1746.77 24.4918 Q1740.98 18.8205 1728.46 18.8205 L1718.58 18.8205 M1710.39 12.096 L1727.21 12.096 Q1744.79 12.096 1753.01 19.4281 Q1761.23 26.7198 1761.23 42.2752 Q1761.23 57.9117 1752.97 65.2439 Q1744.71 72.576 1727.21 72.576 L1710.39 72.576 L1710.39 12.096 Z" fill="#000000" fill-rule="nonzero" fill-opacity="1" /><path clip-path="url(#clip400)" d="M1773.95 27.2059 L1781.41 27.2059 L1781.41 72.576 L1773.95 72.576 L1773.95 27.2059 M1773.95 9.54393 L1781.41 9.54393 L1781.41 18.9825 L1773.95 18.9825 L1773.95 9.54393 Z" fill="#000000" fill-rule="nonzero" fill-opacity="1" /><path clip-path="url(#clip400)" d="M1819.97 9.54393 L1819.97 15.7418 L1812.84 15.7418 Q1808.83 15.7418 1807.25 17.3622 Q1805.71 18.9825 1805.71 23.1955 L1805.71 27.2059 L1817.99 27.2059 L1817.99 32.9987 L1805.71 32.9987 L1805.71 72.576 L1798.22 72.576 L1798.22 32.9987 L1791.09 32.9987 L1791.09 27.2059 L1798.22 27.2059 L1798.22 24.0462 Q1798.22 16.471 1801.74 13.0277 Q1805.27 9.54393 1812.92 9.54393 L1819.97 9.54393 Z" fill="#000000" fill-rule="nonzero" fill-opacity="1" /><path clip-path="url(#clip400)" d="M1849.18 9.54393 L1849.18 15.7418 L1842.05 15.7418 Q1838.04 15.7418 1836.46 17.3622 Q1834.92 18.9825 1834.92 23.1955 L1834.92 27.2059 L1847.19 27.2059 L1847.19 32.9987 L1834.92 32.9987 L1834.92 72.576 L1827.43 72.576 L1827.43 32.9987 L1820.3 32.9987 L1820.3 27.2059 L1827.43 27.2059 L1827.43 24.0462 Q1827.43 16.471 1830.95 13.0277 Q1834.47 9.54393 1842.13 9.54393 L1849.18 9.54393 Z" fill="#000000" fill-rule="nonzero" fill-opacity="1" /><path clip-path="url(#clip400)" d="M1894.22 48.0275 L1894.22 51.6733 L1859.95 51.6733 Q1860.44 59.3701 1864.57 63.421 Q1868.74 67.4314 1876.16 67.4314 Q1880.45 67.4314 1884.46 66.3781 Q1888.51 65.3249 1892.48 63.2184 L1892.48 70.267 Q1888.47 71.9684 1884.26 72.8596 Q1880.05 73.7508 1875.71 73.7508 Q1864.86 73.7508 1858.5 67.4314 Q1852.18 61.1119 1852.18 50.3365 Q1852.18 39.1965 1858.17 32.6746 Q1864.21 26.1121 1874.42 26.1121 Q1883.57 26.1121 1888.88 32.0264 Q1894.22 37.9003 1894.22 48.0275 M1886.77 45.84 Q1886.69 39.7232 1883.33 36.0774 Q1880.01 32.4315 1874.5 32.4315 Q1868.26 32.4315 1864.49 35.9558 Q1860.76 39.4801 1860.2 45.8805 L1886.77 45.84 Z" fill="#000000" fill-rule="nonzero" fill-opacity="1" /><path clip-path="url(#clip400)" d="M1932.75 34.1734 Q1931.49 33.4443 1929.99 33.1202 Q1928.54 32.7556 1926.75 32.7556 Q1920.43 32.7556 1917.03 36.8875 Q1913.67 40.9789 1913.67 48.6757 L1913.67 72.576 L1906.17 72.576 L1906.17 27.2059 L1913.67 27.2059 L1913.67 34.2544 Q1916.02 30.1225 1919.79 28.1376 Q1923.55 26.1121 1928.94 26.1121 Q1929.71 26.1121 1930.64 26.2337 Q1931.57 26.3147 1932.71 26.5172 L1932.75 34.1734 Z" fill="#000000" fill-rule="nonzero" fill-opacity="1" /><path clip-path="url(#clip400)" d="M1977.55 48.0275 L1977.55 51.6733 L1943.28 51.6733 Q1943.77 59.3701 1947.9 63.421 Q1952.07 67.4314 1959.48 67.4314 Q1963.78 67.4314 1967.79 66.3781 Q1971.84 65.3249 1975.81 63.2184 L1975.81 70.267 Q1971.8 71.9684 1967.59 72.8596 Q1963.37 73.7508 1959.04 73.7508 Q1948.18 73.7508 1941.82 67.4314 Q1935.5 61.1119 1935.5 50.3365 Q1935.5 39.1965 1941.5 32.6746 Q1947.53 26.1121 1957.74 26.1121 Q1966.9 26.1121 1972.2 32.0264 Q1977.55 37.9003 1977.55 48.0275 M1970.1 45.84 Q1970.02 39.7232 1966.65 36.0774 Q1963.33 32.4315 1957.82 32.4315 Q1951.59 32.4315 1947.82 35.9558 Q1944.09 39.4801 1943.52 45.8805 L1970.1 45.84 Z" fill="#000000" fill-rule="nonzero" fill-opacity="1" /><path clip-path="url(#clip400)" d="M2027.5 45.1919 L2027.5 72.576 L2020.05 72.576 L2020.05 45.4349 Q2020.05 38.994 2017.53 35.7938 Q2015.02 32.5936 2010 32.5936 Q2003.96 32.5936 2000.48 36.4419 Q1997 40.2903 1997 46.9338 L1997 72.576 L1989.5 72.576 L1989.5 27.2059 L1997 27.2059 L1997 34.2544 Q1999.67 30.163 2003.27 28.1376 Q2006.92 26.1121 2011.66 26.1121 Q2019.48 26.1121 2023.49 30.9732 Q2027.5 35.7938 2027.5 45.1919 Z" fill="#000000" fill-rule="nonzero" fill-opacity="1" /><path clip-path="url(#clip400)" d="M2075.02 28.9478 L2075.02 35.9153 Q2071.86 34.1734 2068.66 33.3227 Q2065.5 32.4315 2062.26 32.4315 Q2055 32.4315 2050.99 37.0496 Q2046.98 41.6271 2046.98 49.9314 Q2046.98 58.2358 2050.99 62.8538 Q2055 67.4314 2062.26 67.4314 Q2065.5 67.4314 2068.66 66.5807 Q2071.86 65.6895 2075.02 63.9476 L2075.02 70.8341 Q2071.9 72.2924 2068.53 73.0216 Q2065.21 73.7508 2061.45 73.7508 Q2051.2 73.7508 2045.16 67.3098 Q2039.13 60.8689 2039.13 49.9314 Q2039.13 38.832 2045.2 32.472 Q2051.32 26.1121 2061.93 26.1121 Q2065.38 26.1121 2068.66 26.8413 Q2071.94 27.5299 2075.02 28.9478 Z" fill="#000000" fill-rule="nonzero" fill-opacity="1" /><path clip-path="url(#clip400)" d="M2126.79 48.0275 L2126.79 51.6733 L2092.52 51.6733 Q2093 59.3701 2097.13 63.421 Q2101.31 67.4314 2108.72 67.4314 Q2113.01 67.4314 2117.02 66.3781 Q2121.08 65.3249 2125.05 63.2184 L2125.05 70.267 Q2121.03 71.9684 2116.82 72.8596 Q2112.61 73.7508 2108.27 73.7508 Q2097.42 73.7508 2091.06 67.4314 Q2084.74 61.1119 2084.74 50.3365 Q2084.74 39.1965 2090.73 32.6746 Q2096.77 26.1121 2106.98 26.1121 Q2116.13 26.1121 2121.44 32.0264 Q2126.79 37.9003 2126.79 48.0275 M2119.33 45.84 Q2119.25 39.7232 2115.89 36.0774 Q2112.57 32.4315 2107.06 32.4315 Q2100.82 32.4315 2097.05 35.9558 Q2093.33 39.4801 2092.76 45.8805 L2119.33 45.84 Z" fill="#000000" fill-rule="nonzero" fill-opacity="1" /><polyline clip-path="url(#clip401)" style="stroke:#009af9; stroke-linecap:round; stroke-linejoin:round; stroke-width:8; stroke-opacity:1; fill:none" points="315.882,160.256 335.858,163.325 355.833,172.502 375.808,187.699 395.783,208.766 415.758,235.5 435.734,267.639 455.709,304.867 475.684,346.816 495.659,393.072 515.635,443.172 535.61,496.616 555.585,552.866 575.56,611.355 595.535,671.49 615.511,732.66 635.486,794.244 655.461,855.616 675.436,916.15 695.412,975.233 715.387,1032.26 735.362,1086.67 755.337,1137.9 775.312,1185.44 795.288,1228.82 815.263,1267.61 835.238,1301.42 855.213,1329.91 875.189,1352.83 895.164,1369.93 915.139,1381.05 935.114,1386.08 955.089,1384.98 975.065,1377.76 995.04,1364.48 1015.02,1345.28 1034.99,1320.34 1054.97,1289.9 1074.94,1254.27 1094.92,1213.79 1114.89,1168.87 1134.87,1119.95 1154.84,1067.53 1174.82,1012.12 1194.79,954.283 1214.77,894.611 1234.74,833.705 1254.72,772.186 1274.69,710.678 1294.67,649.807 1314.64,590.192 1334.62,532.438 1354.59,477.129 1374.57,424.822 1394.54,376.043 1414.52,331.279 1434.49,290.974 1454.47,255.529 1474.45,225.292 1494.42,200.56 1514.4,181.574 1534.37,168.519 1554.35,161.522 1574.32,160.65 1594.3,165.913 1614.27,177.258 1634.25,194.577 1654.22,217.7 1674.2,246.402 1694.17,280.402 1714.15,319.365 1734.12,362.906 1754.1,410.594 1774.07,461.951 1794.05,516.463 1814.02,573.581 1834,632.729 1853.97,693.305 1873.95,754.696 1893.93,816.276 1913.9,877.419 1933.88,937.503 1953.85,995.919 1973.83,1052.08 1993.8,1105.4 2013.78,1155.37 2033.75,1201.48 2053.73,1243.26 2073.7,1280.3 2093.68,1312.25 2113.65,1338.77 2133.63,1359.63 2153.6,1374.6 2173.58,1383.55 2193.55,1386.4 2213.53,1383.1 2233.5,1373.7 2253.48,1358.28 2273.45,1337 2293.43,1310.06 "/>
<polyline clip-path="url(#clip401)" style="stroke:#e26f46; stroke-linecap:round; stroke-linejoin:round; stroke-width:8; stroke-opacity:1; fill:none" points="315.882,773.328 335.858,834.093 355.833,894.27 375.808,953.273 395.783,1010.53 415.758,1065.46 435.734,1117.54 455.709,1166.23 475.684,1211.03 495.659,1251.48 515.635,1287.16 535.61,1317.69 555.585,1342.72 575.56,1362.01 595.535,1375.32 615.511,1382.51 635.486,1383.51 655.461,1378.3 675.436,1366.94 695.412,1349.55 715.387,1326.33 735.362,1297.54 755.337,1263.47 775.312,1224.51 795.288,1181.05 815.263,1133.56 835.238,1082.52 855.213,1028.44 875.189,971.867 895.164,913.364 915.139,853.501 935.114,792.86 955.089,732.031 975.065,671.601 995.04,612.158 1015.02,554.282 1034.99,498.541 1054.97,445.488 1074.94,395.657 1094.92,349.555 1114.89,307.657 1134.87,270.402 1154.84,238.185 1174.82,211.353 1194.79,190.197 1214.77,174.95 1234.74,165.779 1254.72,162.788 1274.69,166.009 1294.67,175.407 1314.64,190.877 1334.62,212.248 1354.59,239.286 1374.57,271.696 1394.54,309.13 1414.52,351.192 1434.49,397.442 1454.47,447.401 1474.45,500.563 1494.42,556.393 1514.4,614.338 1534.37,673.828 1554.35,734.283 1574.32,795.116 1594.3,855.738 1614.27,915.561 1634.25,974.003 1654.22,1030.49 1674.2,1084.47 1694.17,1135.39 1714.15,1182.74 1734.12,1226.04 1754.1,1264.83 1774.07,1298.7 1794.05,1327.3 1814.02,1350.3 1834,1367.47 1853.97,1378.6 1873.95,1383.58 1893.93,1382.36 1913.9,1374.93 1933.88,1361.4 1953.85,1341.9 1973.83,1316.65 1993.8,1285.93 2013.78,1250.07 2033.75,1209.44 2053.73,1164.49 2073.7,1115.66 2093.68,1063.47 2113.65,1008.44 2133.63,951.113 2153.6,892.056 2173.58,831.847 2193.55,771.071 2213.53,710.317 2233.5,650.174 2253.48,591.226 2273.45,534.049 2293.43,479.208 "/>
<polyline clip-path="url(#clip401)" style="stroke:#3da44d; stroke-linecap:round; stroke-linejoin:round; stroke-width:8; stroke-opacity:1; fill:none" points="315.882,677.816 335.858,677.816 355.833,677.816 375.808,677.816 395.783,677.817 415.758,677.817 435.734,677.817 455.709,677.817 475.684,677.817 495.659,677.818 515.635,677.818 535.61,677.819 555.585,677.819 575.56,677.82 595.535,677.82 615.511,677.82 635.486,677.82 655.461,677.82 675.436,677.82 695.412,677.82 715.387,677.819 735.362,677.819 755.337,677.818 775.312,677.818 795.288,677.817 815.263,677.817 835.238,677.817 855.213,677.817 875.189,677.816 895.164,677.816 915.139,677.816 935.114,677.816 955.089,677.816 975.065,677.816 995.04,677.816 1015.02,677.817 1034.99,677.817 1054.97,677.817 1074.94,677.817 1094.92,677.817 1114.89,677.818 1134.87,677.818 1154.84,677.819 1174.82,677.819 1194.79,677.82 1214.77,677.82 1234.74,677.82 1254.72,677.82 1274.69,677.82 1294.67,677.82 1314.64,677.82 1334.62,677.819 1354.59,677.819 1374.57,677.818 1394.54,677.818 1414.52,677.817 1434.49,677.817 1454.47,677.817 1474.45,677.817 1494.42,677.817 1514.4,677.816 1534.37,677.816 1554.35,677.816 1574.32,677.816 1594.3,677.816 1614.27,677.816 1634.25,677.816 1654.22,677.817 1674.2,677.817 1694.17,677.817 1714.15,677.817 1734.12,677.818 1754.1,677.818 1774.07,677.819 1794.05,677.819 1814.02,677.82 1834,677.82 1853.97,677.82 1873.95,677.82 1893.93,677.82 1913.9,677.82 1933.88,677.82 1953.85,677.819 1973.83,677.819 1993.8,677.818 2013.78,677.818 2033.75,677.817 2053.73,677.817 2073.7,677.817 2093.68,677.817 2113.65,677.817 2133.63,677.816 2153.6,677.816 2173.58,677.816 2193.55,677.816 2213.53,677.816 2233.5,677.816 2253.48,677.816 2273.45,677.817 2293.43,677.817 "/>
<path clip-path="url(#clip400)" d="M1869.4 374.156 L2282.88 374.156 L2282.88 166.796 L1869.4 166.796  Z" fill="#ffffff" fill-rule="evenodd" fill-opacity="1"/>
<polyline clip-path="url(#clip400)" style="stroke:#000000; stroke-linecap:round; stroke-linejoin:round; stroke-width:4; stroke-opacity:1; fill:none" points="1869.4,374.156 2282.88,374.156 2282.88,166.796 1869.4,166.796 1869.4,374.156 "/>
<polyline clip-path="url(#clip400)" style="stroke:#009af9; stroke-linecap:round; stroke-linejoin:round; stroke-width:8; stroke-opacity:1; fill:none" points="1892.69,218.636 2032.44,218.636 "/>
<path clip-path="url(#clip400)" d="M2074.99 219.481 L2060.24 219.481 Q2060.59 226.402 2062.19 229.342 Q2064.18 232.953 2067.62 232.953 Q2071.1 232.953 2073.02 229.319 Q2074.71 226.124 2074.99 219.481 M2074.92 215.545 Q2074.27 208.971 2073.02 206.657 Q2071.03 202.999 2067.62 202.999 Q2064.08 202.999 2062.21 206.61 Q2060.73 209.527 2060.29 215.545 L2074.92 215.545 M2067.62 199.527 Q2073.18 199.527 2076.35 204.434 Q2079.52 209.319 2079.52 217.976 Q2079.52 226.61 2076.35 231.518 Q2073.18 236.448 2067.62 236.448 Q2062.05 236.448 2058.9 231.518 Q2055.73 226.61 2055.73 217.976 Q2055.73 209.319 2058.9 204.434 Q2062.05 199.527 2067.62 199.527 Z" fill="#000000" fill-rule="nonzero" fill-opacity="1" /><path clip-path="url(#clip400)" d="M2111.88 199.944 Q2108.78 205.268 2107.28 210.476 Q2105.77 215.684 2105.77 221.032 Q2105.77 226.379 2107.28 231.633 Q2108.81 236.865 2111.88 242.166 L2108.18 242.166 Q2104.71 236.726 2102.97 231.471 Q2101.26 226.217 2101.26 221.032 Q2101.26 215.87 2102.97 210.638 Q2104.68 205.407 2108.18 199.944 L2111.88 199.944 Z" fill="#000000" fill-rule="nonzero" fill-opacity="1" /><path clip-path="url(#clip400)" d="M2135.17 213.971 Q2134.45 213.555 2133.6 213.37 Q2132.76 213.161 2131.74 213.161 Q2128.13 213.161 2126.19 215.522 Q2124.27 217.86 2124.27 222.258 L2124.27 235.916 L2119.99 235.916 L2119.99 209.99 L2124.27 209.99 L2124.27 214.018 Q2125.61 211.657 2127.76 210.522 Q2129.92 209.365 2132.99 209.365 Q2133.43 209.365 2133.97 209.434 Q2134.5 209.481 2135.15 209.596 L2135.17 213.971 Z" fill="#000000" fill-rule="nonzero" fill-opacity="1" /><path clip-path="url(#clip400)" d="M2151.42 222.883 Q2146.26 222.883 2144.27 224.064 Q2142.28 225.244 2142.28 228.092 Q2142.28 230.36 2143.76 231.703 Q2145.26 233.022 2147.83 233.022 Q2151.37 233.022 2153.5 230.522 Q2155.66 227.999 2155.66 223.832 L2155.66 222.883 L2151.42 222.883 M2159.92 221.124 L2159.92 235.916 L2155.66 235.916 L2155.66 231.981 Q2154.2 234.342 2152.02 235.476 Q2149.85 236.587 2146.7 236.587 Q2142.72 236.587 2140.36 234.365 Q2138.02 232.119 2138.02 228.369 Q2138.02 223.994 2140.93 221.772 Q2143.87 219.55 2149.68 219.55 L2155.66 219.55 L2155.66 219.133 Q2155.66 216.194 2153.71 214.596 Q2151.79 212.976 2148.3 212.976 Q2146.07 212.976 2143.97 213.508 Q2141.86 214.041 2139.92 215.106 L2139.92 211.17 Q2142.25 210.268 2144.45 209.828 Q2146.65 209.365 2148.74 209.365 Q2154.36 209.365 2157.14 212.282 Q2159.92 215.198 2159.92 221.124 Z" fill="#000000" fill-rule="nonzero" fill-opacity="1" /><path clip-path="url(#clip400)" d="M2185.75 213.925 L2185.75 199.897 L2190.01 199.897 L2190.01 235.916 L2185.75 235.916 L2185.75 232.027 Q2184.41 234.342 2182.35 235.476 Q2180.31 236.587 2177.44 236.587 Q2172.74 236.587 2169.78 232.837 Q2166.84 229.087 2166.84 222.976 Q2166.84 216.865 2169.78 213.115 Q2172.74 209.365 2177.44 209.365 Q2180.31 209.365 2182.35 210.499 Q2184.41 211.61 2185.75 213.925 M2171.24 222.976 Q2171.24 227.675 2173.16 230.36 Q2175.1 233.022 2178.48 233.022 Q2181.86 233.022 2183.8 230.36 Q2185.75 227.675 2185.75 222.976 Q2185.75 218.277 2183.8 215.615 Q2181.86 212.93 2178.48 212.93 Q2175.1 212.93 2173.16 215.615 Q2171.24 218.277 2171.24 222.976 Z" fill="#000000" fill-rule="nonzero" fill-opacity="1" /><path clip-path="url(#clip400)" d="M2198.11 199.944 L2201.81 199.944 Q2205.29 205.407 2207 210.638 Q2208.74 215.87 2208.74 221.032 Q2208.74 226.217 2207 231.471 Q2205.29 236.726 2201.81 242.166 L2198.11 242.166 Q2201.19 236.865 2202.69 231.633 Q2204.22 226.379 2204.22 221.032 Q2204.22 215.684 2202.69 210.476 Q2201.19 205.268 2198.11 199.944 Z" fill="#000000" fill-rule="nonzero" fill-opacity="1" /><polyline clip-path="url(#clip400)" style="stroke:#e26f46; stroke-linecap:round; stroke-linejoin:round; stroke-width:8; stroke-opacity:1; fill:none" points="1892.69,270.476 2032.44,270.476 "/>
<path clip-path="url(#clip400)" d="M2065.33 288.427 Q2055.73 288.427 2055.73 274.677 Q2055.73 269.237 2059.31 261.83 L2063.9 261.83 Q2060.59 269.237 2060.59 274.793 Q2060.59 284.816 2065.73 284.816 Q2070.43 284.816 2070.43 272.362 L2074.36 272.362 Q2074.36 284.816 2079.06 284.816 Q2084.2 284.816 2084.2 274.793 Q2084.2 269.237 2080.89 261.83 L2085.47 261.83 Q2089.06 269.237 2089.06 274.677 Q2089.06 288.427 2079.45 288.427 Q2073.16 288.427 2072.39 281.506 Q2071.44 288.427 2065.33 288.427 Z" fill="#000000" fill-rule="nonzero" fill-opacity="1" /><path clip-path="url(#clip400)" d="M2122.07 251.784 Q2118.97 257.108 2117.46 262.316 Q2115.96 267.524 2115.96 272.872 Q2115.96 278.219 2117.46 283.473 Q2118.99 288.705 2122.07 294.006 L2118.37 294.006 Q2114.89 288.566 2113.16 283.311 Q2111.44 278.057 2111.44 272.872 Q2111.44 267.71 2113.16 262.478 Q2114.87 257.247 2118.37 251.784 L2122.07 251.784 Z" fill="#000000" fill-rule="nonzero" fill-opacity="1" /><path clip-path="url(#clip400)" d="M2145.36 265.811 Q2144.64 265.395 2143.78 265.21 Q2142.95 265.001 2141.93 265.001 Q2138.32 265.001 2136.37 267.362 Q2134.45 269.7 2134.45 274.098 L2134.45 287.756 L2130.17 287.756 L2130.17 261.83 L2134.45 261.83 L2134.45 265.858 Q2135.8 263.497 2137.95 262.362 Q2140.1 261.205 2143.18 261.205 Q2143.62 261.205 2144.15 261.274 Q2144.68 261.321 2145.33 261.436 L2145.36 265.811 Z" fill="#000000" fill-rule="nonzero" fill-opacity="1" /><path clip-path="url(#clip400)" d="M2161.61 274.723 Q2156.44 274.723 2154.45 275.904 Q2152.46 277.084 2152.46 279.932 Q2152.46 282.2 2153.94 283.543 Q2155.45 284.862 2158.02 284.862 Q2161.56 284.862 2163.69 282.362 Q2165.84 279.839 2165.84 275.672 L2165.84 274.723 L2161.61 274.723 M2170.1 272.964 L2170.1 287.756 L2165.84 287.756 L2165.84 283.821 Q2164.38 286.182 2162.21 287.316 Q2160.03 288.427 2156.88 288.427 Q2152.9 288.427 2150.54 286.205 Q2148.2 283.959 2148.2 280.209 Q2148.2 275.834 2151.12 273.612 Q2154.06 271.39 2159.87 271.39 L2165.84 271.39 L2165.84 270.973 Q2165.84 268.034 2163.9 266.436 Q2161.98 264.816 2158.48 264.816 Q2156.26 264.816 2154.15 265.348 Q2152.05 265.881 2150.1 266.946 L2150.1 263.01 Q2152.44 262.108 2154.64 261.668 Q2156.84 261.205 2158.92 261.205 Q2164.55 261.205 2167.32 264.122 Q2170.1 267.038 2170.1 272.964 Z" fill="#000000" fill-rule="nonzero" fill-opacity="1" /><path clip-path="url(#clip400)" d="M2195.93 265.765 L2195.93 251.737 L2200.19 251.737 L2200.19 287.756 L2195.93 287.756 L2195.93 283.867 Q2194.59 286.182 2192.53 287.316 Q2190.49 288.427 2187.62 288.427 Q2182.93 288.427 2179.96 284.677 Q2177.02 280.927 2177.02 274.816 Q2177.02 268.705 2179.96 264.955 Q2182.93 261.205 2187.62 261.205 Q2190.49 261.205 2192.53 262.339 Q2194.59 263.45 2195.93 265.765 M2181.42 274.816 Q2181.42 279.515 2183.34 282.2 Q2185.29 284.862 2188.67 284.862 Q2192.05 284.862 2193.99 282.2 Q2195.93 279.515 2195.93 274.816 Q2195.93 270.117 2193.99 267.455 Q2192.05 264.77 2188.67 264.77 Q2185.29 264.77 2183.34 267.455 Q2181.42 270.117 2181.42 274.816 Z" fill="#000000" fill-rule="nonzero" fill-opacity="1" /><path clip-path="url(#clip400)" d="M2216.54 253.196 L2220.47 253.196 L2208.43 292.154 L2204.5 292.154 L2216.54 253.196 Z" fill="#000000" fill-rule="nonzero" fill-opacity="1" /><path clip-path="url(#clip400)" d="M2241.47 262.594 L2241.47 266.622 Q2239.66 265.696 2237.72 265.233 Q2235.77 264.77 2233.69 264.77 Q2230.52 264.77 2228.92 265.742 Q2227.35 266.714 2227.35 268.659 Q2227.35 270.14 2228.48 270.997 Q2229.61 271.83 2233.04 272.594 L2234.5 272.918 Q2239.04 273.89 2240.93 275.672 Q2242.86 277.432 2242.86 280.603 Q2242.86 284.214 2239.99 286.321 Q2237.14 288.427 2232.14 288.427 Q2230.05 288.427 2227.79 288.01 Q2225.54 287.617 2223.04 286.807 L2223.04 282.409 Q2225.4 283.635 2227.69 284.26 Q2229.99 284.862 2232.23 284.862 Q2235.24 284.862 2236.86 283.844 Q2238.48 282.802 2238.48 280.927 Q2238.48 279.191 2237.3 278.265 Q2236.14 277.339 2232.18 276.483 L2230.7 276.135 Q2226.74 275.302 2224.99 273.589 Q2223.23 271.853 2223.23 268.844 Q2223.23 265.186 2225.82 263.196 Q2228.41 261.205 2233.18 261.205 Q2235.54 261.205 2237.62 261.552 Q2239.71 261.899 2241.47 262.594 Z" fill="#000000" fill-rule="nonzero" fill-opacity="1" /><path clip-path="url(#clip400)" d="M2248.97 251.784 L2252.67 251.784 Q2256.14 257.247 2257.86 262.478 Q2259.59 267.71 2259.59 272.872 Q2259.59 278.057 2257.86 283.311 Q2256.14 288.566 2252.67 294.006 L2248.97 294.006 Q2252.05 288.705 2253.55 283.473 Q2255.08 278.219 2255.08 272.872 Q2255.08 267.524 2253.55 262.316 Q2252.05 257.108 2248.97 251.784 Z" fill="#000000" fill-rule="nonzero" fill-opacity="1" /><polyline clip-path="url(#clip400)" style="stroke:#3da44d; stroke-linecap:round; stroke-linejoin:round; stroke-width:8; stroke-opacity:1; fill:none" points="1892.69,322.316 2032.44,322.316 "/>
<path clip-path="url(#clip400)" d="M2055.73 305.036 L2077.58 305.036 L2077.58 308.971 L2060.4 308.971 L2060.4 319.202 L2076.86 319.202 L2076.86 323.137 L2060.4 323.137 L2060.4 335.661 L2078 335.661 L2078 339.596 L2055.73 339.596 L2055.73 305.036 Z" fill="#000000" fill-rule="nonzero" fill-opacity="1" /><path clip-path="url(#clip400)" d="M2110.8 303.624 Q2107.69 308.948 2106.19 314.156 Q2104.68 319.364 2104.68 324.712 Q2104.68 330.059 2106.19 335.313 Q2107.72 340.545 2110.8 345.846 L2107.09 345.846 Q2103.62 340.406 2101.88 335.151 Q2100.17 329.897 2100.17 324.712 Q2100.17 319.55 2101.88 314.318 Q2103.6 309.087 2107.09 303.624 L2110.8 303.624 Z" fill="#000000" fill-rule="nonzero" fill-opacity="1" /><path clip-path="url(#clip400)" d="M2119.24 305.036 L2123.92 305.036 L2123.92 337.188 Q2123.92 343.438 2121.54 346.262 Q2119.18 349.086 2113.92 349.086 L2112.14 349.086 L2112.14 345.151 L2113.6 345.151 Q2116.7 345.151 2117.97 343.415 Q2119.24 341.679 2119.24 337.188 L2119.24 305.036 Z" fill="#000000" fill-rule="nonzero" fill-opacity="1" /><path clip-path="url(#clip400)" d="M2132.37 303.624 L2136.07 303.624 Q2139.55 309.087 2141.26 314.318 Q2142.99 319.55 2142.99 324.712 Q2142.99 329.897 2141.26 335.151 Q2139.55 340.406 2136.07 345.846 L2132.37 345.846 Q2135.45 340.545 2136.95 335.313 Q2138.48 330.059 2138.48 324.712 Q2138.48 319.364 2136.95 314.156 Q2135.45 308.948 2132.37 303.624 Z" fill="#000000" fill-rule="nonzero" fill-opacity="1" /></svg>
