<?xml version="1.0" encoding="utf-8"?>
<svg xmlns="http://www.w3.org/2000/svg" xmlns:xlink="http://www.w3.org/1999/xlink" width="600" height="400" viewBox="0 0 2400 1600">
<defs>
  <clipPath id="clip490">
    <rect x="0" y="0" width="2400" height="1600"/>
  </clipPath>
</defs>
<path clip-path="url(#clip490)" d="M0 1600 L2400 1600 L2400 8.88178e-14 L0 8.88178e-14  Z" fill="#ffffff" fill-rule="evenodd" fill-opacity="1"/>
<defs>
  <clipPath id="clip491">
    <rect x="256" y="123" width="2097" height="1301"/>
  </clipPath>
</defs>
<path clip-path="url(#clip490)" d="M219.033 1423.18 L2352.76 1423.18 L2352.76 123.472 L219.033 123.472  Z" fill="#ffffff" fill-rule="evenodd" fill-opacity="1"/>
<defs>
  <clipPath id="clip492">
    <rect x="219" y="123" width="2135" height="1301"/>
  </clipPath>
</defs>
<polyline clip-path="url(#clip492)" style="stroke:#000000; stroke-linecap:round; stroke-linejoin:round; stroke-width:2; stroke-opacity:0.1; fill:none" points="237.485,1423.18 237.485,123.472 "/>
<polyline clip-path="url(#clip492)" style="stroke:#000000; stroke-linecap:round; stroke-linejoin:round; stroke-width:2; stroke-opacity:0.1; fill:none" points="751.206,1423.18 751.206,123.472 "/>
<polyline clip-path="url(#clip492)" style="stroke:#000000; stroke-linecap:round; stroke-linejoin:round; stroke-width:2; stroke-opacity:0.1; fill:none" points="1264.93,1423.18 1264.93,123.472 "/>
<polyline clip-path="url(#clip492)" style="stroke:#000000; stroke-linecap:round; stroke-linejoin:round; stroke-width:2; stroke-opacity:0.1; fill:none" points="1778.65,1423.18 1778.65,123.472 "/>
<polyline clip-path="url(#clip492)" style="stroke:#000000; stroke-linecap:round; stroke-linejoin:round; stroke-width:2; stroke-opacity:0.1; fill:none" points="2292.37,1423.18 2292.37,123.472 "/>
<polyline clip-path="url(#clip492)" style="stroke:#000000; stroke-linecap:round; stroke-linejoin:round; stroke-width:2; stroke-opacity:0.1; fill:none" points="219.033,1183.57 2352.76,1183.57 "/>
<polyline clip-path="url(#clip492)" style="stroke:#000000; stroke-linecap:round; stroke-linejoin:round; stroke-width:2; stroke-opacity:0.1; fill:none" points="219.033,842.342 2352.76,842.342 "/>
<polyline clip-path="url(#clip492)" style="stroke:#000000; stroke-linecap:round; stroke-linejoin:round; stroke-width:2; stroke-opacity:0.1; fill:none" points="219.033,501.113 2352.76,501.113 "/>
<polyline clip-path="url(#clip492)" style="stroke:#000000; stroke-linecap:round; stroke-linejoin:round; stroke-width:2; stroke-opacity:0.1; fill:none" points="219.033,159.885 2352.76,159.885 "/>
<polyline clip-path="url(#clip490)" style="stroke:#000000; stroke-linecap:round; stroke-linejoin:round; stroke-width:4; stroke-opacity:1; fill:none" points="219.033,1423.18 2352.76,1423.18 "/>
<polyline clip-path="url(#clip490)" style="stroke:#000000; stroke-linecap:round; stroke-linejoin:round; stroke-width:4; stroke-opacity:1; fill:none" points="237.485,1423.18 237.485,1404.28 "/>
<polyline clip-path="url(#clip490)" style="stroke:#000000; stroke-linecap:round; stroke-linejoin:round; stroke-width:4; stroke-opacity:1; fill:none" points="751.206,1423.18 751.206,1404.28 "/>
<polyline clip-path="url(#clip490)" style="stroke:#000000; stroke-linecap:round; stroke-linejoin:round; stroke-width:4; stroke-opacity:1; fill:none" points="1264.93,1423.18 1264.93,1404.28 "/>
<polyline clip-path="url(#clip490)" style="stroke:#000000; stroke-linecap:round; stroke-linejoin:round; stroke-width:4; stroke-opacity:1; fill:none" points="1778.65,1423.18 1778.65,1404.28 "/>
<polyline clip-path="url(#clip490)" style="stroke:#000000; stroke-linecap:round; stroke-linejoin:round; stroke-width:4; stroke-opacity:1; fill:none" points="2292.37,1423.18 2292.37,1404.28 "/>
<path clip-path="url(#clip490)" d="M214.869 1454.1 Q211.258 1454.1 209.43 1457.66 Q207.624 1461.2 207.624 1468.33 Q207.624 1475.44 209.43 1479.01 Q211.258 1482.55 214.869 1482.55 Q218.504 1482.55 220.309 1479.01 Q222.138 1475.44 222.138 1468.33 Q222.138 1461.2 220.309 1457.66 Q218.504 1454.1 214.869 1454.1 M214.869 1450.39 Q220.679 1450.39 223.735 1455 Q226.814 1459.58 226.814 1468.33 Q226.814 1477.06 223.735 1481.67 Q220.679 1486.25 214.869 1486.25 Q209.059 1486.25 205.98 1481.67 Q202.925 1477.06 202.925 1468.33 Q202.925 1459.58 205.98 1455 Q209.059 1450.39 214.869 1450.39 Z" fill="#000000" fill-rule="nonzero" fill-opacity="1" /><path clip-path="url(#clip490)" d="M235.031 1479.7 L239.915 1479.7 L239.915 1485.58 L235.031 1485.58 L235.031 1479.7 Z" fill="#000000" fill-rule="nonzero" fill-opacity="1" /><path clip-path="url(#clip490)" d="M260.101 1454.1 Q256.489 1454.1 254.661 1457.66 Q252.855 1461.2 252.855 1468.33 Q252.855 1475.44 254.661 1479.01 Q256.489 1482.55 260.101 1482.55 Q263.735 1482.55 265.54 1479.01 Q267.369 1475.44 267.369 1468.33 Q267.369 1461.2 265.54 1457.66 Q263.735 1454.1 260.101 1454.1 M260.101 1450.39 Q265.911 1450.39 268.966 1455 Q272.045 1459.58 272.045 1468.33 Q272.045 1477.06 268.966 1481.67 Q265.911 1486.25 260.101 1486.25 Q254.29 1486.25 251.212 1481.67 Q248.156 1477.06 248.156 1468.33 Q248.156 1459.58 251.212 1455 Q254.29 1450.39 260.101 1450.39 Z" fill="#000000" fill-rule="nonzero" fill-opacity="1" /><path clip-path="url(#clip490)" d="M722.942 1481.64 L739.261 1481.64 L739.261 1485.58 L717.317 1485.58 L717.317 1481.64 Q719.979 1478.89 724.562 1474.26 Q729.169 1469.61 730.349 1468.27 Q732.595 1465.74 733.474 1464.01 Q734.377 1462.25 734.377 1460.56 Q734.377 1457.8 732.433 1456.07 Q730.511 1454.33 727.409 1454.33 Q725.21 1454.33 722.757 1455.09 Q720.326 1455.86 717.548 1457.41 L717.548 1452.69 Q720.372 1451.55 722.826 1450.97 Q725.28 1450.39 727.317 1450.39 Q732.687 1450.39 735.882 1453.08 Q739.076 1455.77 739.076 1460.26 Q739.076 1462.39 738.266 1464.31 Q737.479 1466.2 735.372 1468.8 Q734.794 1469.47 731.692 1472.69 Q728.59 1475.88 722.942 1481.64 Z" fill="#000000" fill-rule="nonzero" fill-opacity="1" /><path clip-path="url(#clip490)" d="M749.076 1479.7 L753.96 1479.7 L753.96 1485.58 L749.076 1485.58 L749.076 1479.7 Z" fill="#000000" fill-rule="nonzero" fill-opacity="1" /><path clip-path="url(#clip490)" d="M764.192 1451.02 L782.548 1451.02 L782.548 1454.96 L768.474 1454.96 L768.474 1463.43 Q769.493 1463.08 770.511 1462.92 Q771.53 1462.73 772.548 1462.73 Q778.335 1462.73 781.715 1465.9 Q785.094 1469.08 785.094 1474.49 Q785.094 1480.07 781.622 1483.17 Q778.15 1486.25 771.83 1486.25 Q769.655 1486.25 767.386 1485.88 Q765.141 1485.51 762.733 1484.77 L762.733 1480.07 Q764.817 1481.2 767.039 1481.76 Q769.261 1482.32 771.738 1482.32 Q775.742 1482.32 778.08 1480.21 Q780.418 1478.1 780.418 1474.49 Q780.418 1470.88 778.08 1468.77 Q775.742 1466.67 771.738 1466.67 Q769.863 1466.67 767.988 1467.08 Q766.136 1467.5 764.192 1468.38 L764.192 1451.02 Z" fill="#000000" fill-rule="nonzero" fill-opacity="1" /><path clip-path="url(#clip490)" d="M1232.09 1451.02 L1250.45 1451.02 L1250.45 1454.96 L1236.37 1454.96 L1236.37 1463.43 Q1237.39 1463.08 1238.41 1462.92 Q1239.43 1462.73 1240.45 1462.73 Q1246.23 1462.73 1249.61 1465.9 Q1252.99 1469.08 1252.99 1474.49 Q1252.99 1480.07 1249.52 1483.17 Q1246.05 1486.25 1239.73 1486.25 Q1237.55 1486.25 1235.29 1485.88 Q1233.04 1485.51 1230.63 1484.77 L1230.63 1480.07 Q1232.72 1481.2 1234.94 1481.76 Q1237.16 1482.32 1239.64 1482.32 Q1243.64 1482.32 1245.98 1480.21 Q1248.32 1478.1 1248.32 1474.49 Q1248.32 1470.88 1245.98 1468.77 Q1243.64 1466.67 1239.64 1466.67 Q1237.76 1466.67 1235.89 1467.08 Q1234.04 1467.5 1232.09 1468.38 L1232.09 1451.02 Z" fill="#000000" fill-rule="nonzero" fill-opacity="1" /><path clip-path="url(#clip490)" d="M1262.21 1479.7 L1267.09 1479.7 L1267.09 1485.58 L1262.21 1485.58 L1262.21 1479.7 Z" fill="#000000" fill-rule="nonzero" fill-opacity="1" /><path clip-path="url(#clip490)" d="M1287.28 1454.1 Q1283.66 1454.1 1281.84 1457.66 Q1280.03 1461.2 1280.03 1468.33 Q1280.03 1475.44 1281.84 1479.01 Q1283.66 1482.55 1287.28 1482.55 Q1290.91 1482.55 1292.72 1479.01 Q1294.54 1475.44 1294.54 1468.33 Q1294.54 1461.2 1292.72 1457.66 Q1290.91 1454.1 1287.28 1454.1 M1287.28 1450.39 Q1293.09 1450.39 1296.14 1455 Q1299.22 1459.58 1299.22 1468.33 Q1299.22 1477.06 1296.14 1481.67 Q1293.09 1486.25 1287.28 1486.25 Q1281.47 1486.25 1278.39 1481.67 Q1275.33 1477.06 1275.33 1468.33 Q1275.33 1459.58 1278.39 1455 Q1281.47 1450.39 1287.28 1450.39 Z" fill="#000000" fill-rule="nonzero" fill-opacity="1" /><path clip-path="url(#clip490)" d="M1744.97 1451.02 L1767.19 1451.02 L1767.19 1453.01 L1754.64 1485.58 L1749.76 1485.58 L1761.56 1454.96 L1744.97 1454.96 L1744.97 1451.02 Z" fill="#000000" fill-rule="nonzero" fill-opacity="1" /><path clip-path="url(#clip490)" d="M1776.31 1479.7 L1781.19 1479.7 L1781.19 1485.58 L1776.31 1485.58 L1776.31 1479.7 Z" fill="#000000" fill-rule="nonzero" fill-opacity="1" /><path clip-path="url(#clip490)" d="M1791.42 1451.02 L1809.78 1451.02 L1809.78 1454.96 L1795.71 1454.96 L1795.71 1463.43 Q1796.73 1463.08 1797.74 1462.92 Q1798.76 1462.73 1799.78 1462.73 Q1805.57 1462.73 1808.95 1465.9 Q1812.33 1469.08 1812.33 1474.49 Q1812.33 1480.07 1808.86 1483.17 Q1805.38 1486.25 1799.06 1486.25 Q1796.89 1486.25 1794.62 1485.88 Q1792.37 1485.51 1789.97 1484.77 L1789.97 1480.07 Q1792.05 1481.2 1794.27 1481.76 Q1796.49 1482.32 1798.97 1482.32 Q1802.98 1482.32 1805.31 1480.21 Q1807.65 1478.1 1807.65 1474.49 Q1807.65 1470.88 1805.31 1468.77 Q1802.98 1466.67 1798.97 1466.67 Q1797.1 1466.67 1795.22 1467.08 Q1793.37 1467.5 1791.42 1468.38 L1791.42 1451.02 Z" fill="#000000" fill-rule="nonzero" fill-opacity="1" /><path clip-path="url(#clip490)" d="M2244.44 1481.64 L2252.08 1481.64 L2252.08 1455.28 L2243.77 1456.95 L2243.77 1452.69 L2252.03 1451.02 L2256.71 1451.02 L2256.71 1481.64 L2264.35 1481.64 L2264.35 1485.58 L2244.44 1485.58 L2244.44 1481.64 Z" fill="#000000" fill-rule="nonzero" fill-opacity="1" /><path clip-path="url(#clip490)" d="M2283.79 1454.1 Q2280.18 1454.1 2278.35 1457.66 Q2276.55 1461.2 2276.55 1468.33 Q2276.55 1475.44 2278.35 1479.01 Q2280.18 1482.55 2283.79 1482.55 Q2287.43 1482.55 2289.23 1479.01 Q2291.06 1475.44 2291.06 1468.33 Q2291.06 1461.2 2289.23 1457.66 Q2287.43 1454.1 2283.79 1454.1 M2283.79 1450.39 Q2289.6 1450.39 2292.66 1455 Q2295.74 1459.58 2295.74 1468.33 Q2295.74 1477.06 2292.66 1481.67 Q2289.6 1486.25 2283.79 1486.25 Q2277.98 1486.25 2274.9 1481.67 Q2271.85 1477.06 2271.85 1468.33 Q2271.85 1459.58 2274.9 1455 Q2277.98 1450.39 2283.79 1450.39 Z" fill="#000000" fill-rule="nonzero" fill-opacity="1" /><path clip-path="url(#clip490)" d="M2303.95 1479.7 L2308.84 1479.7 L2308.84 1485.58 L2303.95 1485.58 L2303.95 1479.7 Z" fill="#000000" fill-rule="nonzero" fill-opacity="1" /><path clip-path="url(#clip490)" d="M2329.02 1454.1 Q2325.41 1454.1 2323.58 1457.66 Q2321.78 1461.2 2321.78 1468.33 Q2321.78 1475.44 2323.58 1479.01 Q2325.41 1482.55 2329.02 1482.55 Q2332.66 1482.55 2334.46 1479.01 Q2336.29 1475.44 2336.29 1468.33 Q2336.29 1461.2 2334.46 1457.66 Q2332.66 1454.1 2329.02 1454.1 M2329.02 1450.39 Q2334.83 1450.39 2337.89 1455 Q2340.97 1459.58 2340.97 1468.33 Q2340.97 1477.06 2337.89 1481.67 Q2334.83 1486.25 2329.02 1486.25 Q2323.21 1486.25 2320.13 1481.67 Q2317.08 1477.06 2317.08 1468.33 Q2317.08 1459.58 2320.13 1455 Q2323.21 1450.39 2329.02 1450.39 Z" fill="#000000" fill-rule="nonzero" fill-opacity="1" /><path clip-path="url(#clip490)" d="M1298.03 1528.74 Q1298.03 1530.45 1296.91 1531.54 Q1295.81 1532.64 1294.39 1532.64 Q1293.17 1532.64 1292.53 1531.93 Q1291.88 1531.22 1291.88 1530.32 Q1291.88 1529.03 1292.88 1527.97 Q1293.88 1526.9 1295.33 1526.68 Q1294.26 1525.91 1292.56 1525.91 Q1289.76 1525.91 1287.28 1528.06 Q1286.18 1529.06 1284.99 1530.9 Q1283.8 1532.7 1283.57 1533.47 L1281.48 1542.07 Q1281.29 1543.04 1280.09 1547.68 Q1278.93 1552.28 1278.84 1552.47 Q1278.52 1553.38 1277.81 1553.86 Q1277.1 1554.34 1276.39 1554.34 Q1275.59 1554.34 1275.04 1553.86 Q1274.49 1553.38 1274.49 1552.54 Q1274.49 1552.41 1274.59 1551.93 Q1274.68 1551.44 1274.84 1550.77 Q1275.01 1550.09 1275.07 1549.71 L1278.9 1534.47 Q1279.61 1531.7 1279.77 1530.83 Q1279.97 1529.93 1279.97 1528.93 Q1279.97 1527.19 1279.42 1526.55 Q1278.87 1525.91 1277.9 1525.91 Q1276.23 1525.91 1275.13 1527.9 Q1274.04 1529.9 1273.11 1533.76 Q1272.82 1534.83 1272.62 1535.05 Q1272.46 1535.28 1271.98 1535.28 Q1271.17 1535.24 1271.17 1534.6 Q1271.17 1534.44 1271.43 1533.41 Q1271.69 1532.35 1272.17 1530.8 Q1272.69 1529.22 1273.23 1528.22 Q1273.56 1527.55 1273.85 1527.1 Q1274.14 1526.65 1274.72 1525.94 Q1275.3 1525.23 1276.17 1524.84 Q1277.03 1524.46 1278.1 1524.46 Q1280.42 1524.46 1282.06 1525.87 Q1283.73 1527.29 1284.12 1529.51 Q1284.93 1528.35 1285.92 1527.35 Q1286.92 1526.32 1288.76 1525.39 Q1290.59 1524.46 1292.56 1524.46 Q1295.01 1524.46 1296.52 1525.71 Q1298.03 1526.94 1298.03 1528.74 Z" fill="#000000" fill-rule="nonzero" fill-opacity="1" /><polyline clip-path="url(#clip490)" style="stroke:#000000; stroke-linecap:round; stroke-linejoin:round; stroke-width:4; stroke-opacity:1; fill:none" points="219.033,1423.18 219.033,123.472 "/>
<polyline clip-path="url(#clip490)" style="stroke:#000000; stroke-linecap:round; stroke-linejoin:round; stroke-width:4; stroke-opacity:1; fill:none" points="219.033,1183.57 237.931,1183.57 "/>
<polyline clip-path="url(#clip490)" style="stroke:#000000; stroke-linecap:round; stroke-linejoin:round; stroke-width:4; stroke-opacity:1; fill:none" points="219.033,842.342 237.931,842.342 "/>
<polyline clip-path="url(#clip490)" style="stroke:#000000; stroke-linecap:round; stroke-linejoin:round; stroke-width:4; stroke-opacity:1; fill:none" points="219.033,501.113 237.931,501.113 "/>
<polyline clip-path="url(#clip490)" style="stroke:#000000; stroke-linecap:round; stroke-linejoin:round; stroke-width:4; stroke-opacity:1; fill:none" points="219.033,159.885 237.931,159.885 "/>
<path clip-path="url(#clip490)" d="M126.853 1169.37 Q123.242 1169.37 121.413 1172.93 Q119.607 1176.48 119.607 1183.6 Q119.607 1190.71 121.413 1194.28 Q123.242 1197.82 126.853 1197.82 Q130.487 1197.82 132.292 1194.28 Q134.121 1190.71 134.121 1183.6 Q134.121 1176.48 132.292 1172.93 Q130.487 1169.37 126.853 1169.37 M126.853 1165.67 Q132.663 1165.67 135.718 1170.27 Q138.797 1174.85 138.797 1183.6 Q138.797 1192.33 135.718 1196.94 Q132.663 1201.52 126.853 1201.52 Q121.043 1201.52 117.964 1196.94 Q114.908 1192.33 114.908 1183.6 Q114.908 1174.85 117.964 1170.27 Q121.043 1165.67 126.853 1165.67 Z" fill="#000000" fill-rule="nonzero" fill-opacity="1" /><path clip-path="url(#clip490)" d="M147.015 1194.97 L151.899 1194.97 L151.899 1200.85 L147.015 1200.85 L147.015 1194.97 Z" fill="#000000" fill-rule="nonzero" fill-opacity="1" /><path clip-path="url(#clip490)" d="M162.13 1166.29 L180.487 1166.29 L180.487 1170.23 L166.413 1170.23 L166.413 1178.7 Q167.431 1178.35 168.45 1178.19 Q169.468 1178 170.487 1178 Q176.274 1178 179.653 1181.17 Q183.033 1184.35 183.033 1189.76 Q183.033 1195.34 179.561 1198.44 Q176.089 1201.52 169.769 1201.52 Q167.593 1201.52 165.325 1201.15 Q163.079 1200.78 160.672 1200.04 L160.672 1195.34 Q162.755 1196.48 164.977 1197.03 Q167.2 1197.59 169.677 1197.59 Q173.681 1197.59 176.019 1195.48 Q178.357 1193.37 178.357 1189.76 Q178.357 1186.15 176.019 1184.04 Q173.681 1181.94 169.677 1181.94 Q167.802 1181.94 165.927 1182.35 Q164.075 1182.77 162.13 1183.65 L162.13 1166.29 Z" fill="#000000" fill-rule="nonzero" fill-opacity="1" /><path clip-path="url(#clip490)" d="M116.668 855.686 L124.306 855.686 L124.306 829.321 L115.996 830.987 L115.996 826.728 L124.26 825.062 L128.936 825.062 L128.936 855.686 L136.575 855.686 L136.575 859.622 L116.668 859.622 L116.668 855.686 Z" fill="#000000" fill-rule="nonzero" fill-opacity="1" /><path clip-path="url(#clip490)" d="M146.019 853.742 L150.903 853.742 L150.903 859.622 L146.019 859.622 L146.019 853.742 Z" fill="#000000" fill-rule="nonzero" fill-opacity="1" /><path clip-path="url(#clip490)" d="M171.089 828.14 Q167.477 828.14 165.649 831.705 Q163.843 835.247 163.843 842.376 Q163.843 849.483 165.649 853.048 Q167.477 856.589 171.089 856.589 Q174.723 856.589 176.528 853.048 Q178.357 849.483 178.357 842.376 Q178.357 835.247 176.528 831.705 Q174.723 828.14 171.089 828.14 M171.089 824.437 Q176.899 824.437 179.954 829.043 Q183.033 833.626 183.033 842.376 Q183.033 851.103 179.954 855.71 Q176.899 860.293 171.089 860.293 Q165.278 860.293 162.2 855.71 Q159.144 851.103 159.144 842.376 Q159.144 833.626 162.2 829.043 Q165.278 824.437 171.089 824.437 Z" fill="#000000" fill-rule="nonzero" fill-opacity="1" /><path clip-path="url(#clip490)" d="M117.663 514.458 L125.302 514.458 L125.302 488.092 L116.992 489.759 L116.992 485.5 L125.255 483.833 L129.931 483.833 L129.931 514.458 L137.57 514.458 L137.57 518.393 L117.663 518.393 L117.663 514.458 Z" fill="#000000" fill-rule="nonzero" fill-opacity="1" /><path clip-path="url(#clip490)" d="M147.015 512.513 L151.899 512.513 L151.899 518.393 L147.015 518.393 L147.015 512.513 Z" fill="#000000" fill-rule="nonzero" fill-opacity="1" /><path clip-path="url(#clip490)" d="M162.13 483.833 L180.487 483.833 L180.487 487.768 L166.413 487.768 L166.413 496.24 Q167.431 495.893 168.45 495.731 Q169.468 495.546 170.487 495.546 Q176.274 495.546 179.653 498.717 Q183.033 501.889 183.033 507.305 Q183.033 512.884 179.561 515.986 Q176.089 519.064 169.769 519.064 Q167.593 519.064 165.325 518.694 Q163.079 518.324 160.672 517.583 L160.672 512.884 Q162.755 514.018 164.977 514.574 Q167.2 515.129 169.677 515.129 Q173.681 515.129 176.019 513.023 Q178.357 510.916 178.357 507.305 Q178.357 503.694 176.019 501.588 Q173.681 499.481 169.677 499.481 Q167.802 499.481 165.927 499.898 Q164.075 500.314 162.13 501.194 L162.13 483.833 Z" fill="#000000" fill-rule="nonzero" fill-opacity="1" /><path clip-path="url(#clip490)" d="M119.885 173.229 L136.204 173.229 L136.204 177.165 L114.26 177.165 L114.26 173.229 Q116.922 170.475 121.505 165.845 Q126.112 161.192 127.292 159.85 Q129.538 157.327 130.417 155.591 Q131.32 153.831 131.32 152.141 Q131.32 149.387 129.376 147.651 Q127.455 145.915 124.353 145.915 Q122.154 145.915 119.7 146.679 Q117.269 147.442 114.492 148.993 L114.492 144.271 Q117.316 143.137 119.769 142.558 Q122.223 141.98 124.26 141.98 Q129.63 141.98 132.825 144.665 Q136.019 147.35 136.019 151.841 Q136.019 153.97 135.209 155.891 Q134.422 157.79 132.316 160.382 Q131.737 161.053 128.635 164.271 Q125.533 167.465 119.885 173.229 Z" fill="#000000" fill-rule="nonzero" fill-opacity="1" /><path clip-path="url(#clip490)" d="M146.019 171.285 L150.903 171.285 L150.903 177.165 L146.019 177.165 L146.019 171.285 Z" fill="#000000" fill-rule="nonzero" fill-opacity="1" /><path clip-path="url(#clip490)" d="M171.089 145.683 Q167.477 145.683 165.649 149.248 Q163.843 152.79 163.843 159.919 Q163.843 167.026 165.649 170.59 Q167.477 174.132 171.089 174.132 Q174.723 174.132 176.528 170.59 Q178.357 167.026 178.357 159.919 Q178.357 152.79 176.528 149.248 Q174.723 145.683 171.089 145.683 M171.089 141.98 Q176.899 141.98 179.954 146.586 Q183.033 151.169 183.033 159.919 Q183.033 168.646 179.954 173.252 Q176.899 177.836 171.089 177.836 Q165.278 177.836 162.2 173.252 Q159.144 168.646 159.144 159.919 Q159.144 151.169 162.2 146.586 Q165.278 141.98 171.089 141.98 Z" fill="#000000" fill-rule="nonzero" fill-opacity="1" /><path clip-path="url(#clip490)" d="M48.7895 799.696 Q52.0423 799.696 55.2951 801.37 Q58.5479 803.045 61.06 805.782 Q63.5398 808.52 65.1501 812.256 Q66.7604 815.992 66.8892 819.889 L76.712 822.401 Q79.0953 822.884 79.3529 823.141 Q79.6106 823.399 79.6106 823.786 Q79.6106 824.591 78.8698 824.591 Q78.6444 824.591 73.0728 823.141 L66.8892 821.596 Q66.5672 827.457 63.1856 830.871 Q59.804 834.285 54.9409 834.285 Q51.6559 834.285 48.4031 832.61 Q45.1181 830.903 42.6382 828.166 Q40.1584 825.396 38.5803 821.66 Q37.0022 817.924 36.8734 814.092 L21.64 810.259 Q20.7704 810.066 20.545 809.905 Q20.3196 809.744 20.3196 809.261 Q20.3196 808.906 20.4806 808.713 Q20.6416 808.52 20.8027 808.52 L20.9637 808.488 L21.8977 808.681 L36.8734 812.385 Q37.0988 809.1 38.2582 806.555 Q39.4176 804.011 41.1568 802.562 Q42.8637 801.113 44.796 800.404 Q46.7284 799.696 48.7895 799.696 M38.3226 814.478 Q38.6447 818.021 40.3838 821.016 Q42.1229 824.011 44.6994 825.943 Q47.2437 827.876 50.3032 828.938 Q53.3306 830.001 56.3257 830.001 Q58.6767 830.001 60.4803 829.228 Q62.2838 828.423 63.3144 827.103 Q64.3128 825.782 64.8603 824.333 Q65.3756 822.852 65.44 821.273 L38.3226 814.478 M47.4047 804.011 Q43.2179 804.011 40.8669 806.427 Q38.5159 808.842 38.3226 812.771 L65.44 819.567 Q65.2145 816.7 64.0229 814.188 Q62.7991 811.644 60.9956 809.808 Q59.1598 807.972 56.9054 806.652 Q54.6188 805.332 52.2034 804.687 Q49.7557 804.011 47.4047 804.011 Z" fill="#000000" fill-rule="nonzero" fill-opacity="1" /><path clip-path="url(#clip490)" d="M49.5947 790.88 Q38.4515 790.88 29.466 786.726 Q25.6979 784.955 22.5418 782.475 Q19.3856 779.995 18.0007 778.352 Q16.6159 776.71 16.6159 776.259 Q16.6159 775.615 17.26 775.583 Q17.5821 775.583 18.3872 776.452 Q29.2084 787.08 49.5947 787.048 Q70.0454 787.048 80.4479 776.71 Q81.5751 775.583 81.9294 775.583 Q82.5735 775.583 82.5735 776.259 Q82.5735 776.71 81.2531 778.288 Q79.9326 779.866 76.9053 782.314 Q73.8779 784.761 70.1742 786.533 Q61.1888 790.88 49.5947 790.88 Z" fill="#000000" fill-rule="nonzero" fill-opacity="1" /><path clip-path="url(#clip490)" d="M41.2212 743.709 Q42.9281 743.709 44.0231 744.837 Q45.1181 745.932 45.1181 747.349 Q45.1181 748.572 44.4096 749.217 Q43.701 749.861 42.7993 749.861 Q41.511 749.861 40.4482 748.862 Q39.3854 747.864 39.16 746.415 Q38.3871 747.477 38.3871 749.184 Q38.3871 751.986 40.5448 754.466 Q41.5432 755.561 43.379 756.753 Q45.1825 757.944 45.9554 758.17 L54.5544 760.263 Q55.5206 760.456 60.1582 761.648 Q64.7637 762.807 64.9569 762.904 Q65.8587 763.226 66.3417 763.935 Q66.8248 764.643 66.8248 765.352 Q66.8248 766.157 66.3417 766.704 Q65.8587 767.252 65.0213 767.252 Q64.8925 767.252 64.4094 767.155 Q63.9263 767.059 63.25 766.898 Q62.5737 766.737 62.1872 766.672 L46.9538 762.84 Q44.1841 762.131 43.3146 761.97 Q42.4128 761.777 41.4144 761.777 Q39.6753 761.777 39.0312 762.324 Q38.3871 762.872 38.3871 763.838 Q38.3871 765.513 40.3838 766.608 Q42.3806 767.703 46.2453 768.637 Q47.3081 768.927 47.5335 769.12 Q47.759 769.281 47.759 769.764 Q47.7268 770.569 47.0826 770.569 Q46.9216 770.569 45.891 770.311 Q44.8282 770.054 43.2823 769.571 Q41.7043 769.055 40.7059 768.508 Q40.0296 768.186 39.5787 767.896 Q39.1278 767.606 38.4193 767.026 Q37.7107 766.447 37.3243 765.577 Q36.9378 764.708 36.9378 763.645 Q36.9378 761.326 38.3548 759.683 Q39.7719 758.009 41.9941 757.622 Q40.8347 756.817 39.8363 755.819 Q38.8057 754.82 37.8718 752.985 Q36.9378 751.149 36.9378 749.184 Q36.9378 746.737 38.1938 745.223 Q39.4176 743.709 41.2212 743.709 Z" fill="#000000" fill-rule="nonzero" fill-opacity="1" /><path clip-path="url(#clip490)" d="M81.9294 737.695 Q81.6073 737.695 80.8022 736.857 Q69.981 726.229 49.5947 726.229 Q29.144 726.229 18.8059 736.439 Q17.6143 737.695 17.26 737.695 Q16.6159 737.695 16.6159 737.051 Q16.6159 736.6 17.9363 735.022 Q19.2568 733.411 22.2841 730.996 Q25.3115 728.548 29.0151 726.745 Q38.0006 722.397 49.5947 722.397 Q60.7379 722.397 69.7234 726.552 Q73.4914 728.323 76.6476 730.803 Q79.8038 733.283 81.1886 734.925 Q82.5735 736.568 82.5735 737.051 Q82.5735 737.695 81.9294 737.695 Z" fill="#000000" fill-rule="nonzero" fill-opacity="1" /><path clip-path="url(#clip490)" d="M616.564 18.8205 L616.564 41.5461 L626.853 41.5461 Q632.565 41.5461 635.684 38.5889 Q638.803 35.6318 638.803 30.163 Q638.803 24.7348 635.684 21.7777 Q632.565 18.8205 626.853 18.8205 L616.564 18.8205 M608.381 12.096 L626.853 12.096 Q637.021 12.096 642.206 16.714 Q647.431 21.2916 647.431 30.163 Q647.431 39.1155 642.206 43.6931 Q637.021 48.2706 626.853 48.2706 L616.564 48.2706 L616.564 72.576 L608.381 72.576 L608.381 12.096 Z" fill="#000000" fill-rule="nonzero" fill-opacity="1" /><path clip-path="url(#clip490)" d="M693.936 48.0275 L693.936 51.6733 L659.665 51.6733 Q660.151 59.3701 664.283 63.421 Q668.456 67.4314 675.869 67.4314 Q680.163 67.4314 684.173 66.3781 Q688.224 65.3249 692.194 63.2184 L692.194 70.267 Q688.184 71.9684 683.971 72.8596 Q679.758 73.7508 675.423 73.7508 Q664.567 73.7508 658.207 67.4314 Q651.887 61.1119 651.887 50.3365 Q651.887 39.1965 657.883 32.6746 Q663.919 26.1121 674.127 26.1121 Q683.282 26.1121 688.589 32.0264 Q693.936 37.9003 693.936 48.0275 M686.482 45.84 Q686.401 39.7232 683.039 36.0774 Q679.717 32.4315 674.208 32.4315 Q667.969 32.4315 664.202 35.9558 Q660.475 39.4801 659.908 45.8805 L686.482 45.84 Z" fill="#000000" fill-rule="nonzero" fill-opacity="1" /><path clip-path="url(#clip490)" d="M743.883 45.1919 L743.883 72.576 L736.43 72.576 L736.43 45.4349 Q736.43 38.994 733.918 35.7938 Q731.407 32.5936 726.384 32.5936 Q720.348 32.5936 716.864 36.4419 Q713.38 40.2903 713.38 46.9338 L713.38 72.576 L705.886 72.576 L705.886 27.2059 L713.38 27.2059 L713.38 34.2544 Q716.054 30.163 719.659 28.1376 Q723.305 26.1121 728.044 26.1121 Q735.863 26.1121 739.873 30.9732 Q743.883 35.7938 743.883 45.1919 Z" fill="#000000" fill-rule="nonzero" fill-opacity="1" /><path clip-path="url(#clip490)" d="M777.627 76.7889 Q774.468 84.8907 771.47 87.3618 Q768.472 89.8329 763.449 89.8329 L757.494 89.8329 L757.494 83.5945 L761.869 83.5945 Q764.948 83.5945 766.65 82.1361 Q768.351 80.6778 770.417 75.2496 L771.754 71.8468 L753.403 27.2059 L761.302 27.2059 L775.48 62.6918 L789.659 27.2059 L797.558 27.2059 L777.627 76.7889 Z" fill="#000000" fill-rule="nonzero" fill-opacity="1" /><path clip-path="url(#clip490)" d="M846.655 48.0275 L846.655 51.6733 L812.384 51.6733 Q812.87 59.3701 817.002 63.421 Q821.175 67.4314 828.588 67.4314 Q832.882 67.4314 836.892 66.3781 Q840.943 65.3249 844.913 63.2184 L844.913 70.267 Q840.903 71.9684 836.69 72.8596 Q832.477 73.7508 828.142 73.7508 Q817.286 73.7508 810.926 67.4314 Q804.606 61.1119 804.606 50.3365 Q804.606 39.1965 810.602 32.6746 Q816.638 26.1121 826.846 26.1121 Q836.001 26.1121 841.308 32.0264 Q846.655 37.9003 846.655 48.0275 M839.201 45.84 Q839.12 39.7232 835.758 36.0774 Q832.436 32.4315 826.927 32.4315 Q820.689 32.4315 816.921 35.9558 Q813.194 39.4801 812.627 45.8805 L839.201 45.84 Z" fill="#000000" fill-rule="nonzero" fill-opacity="1" /><path clip-path="url(#clip490)" d="M858.889 9.54393 L866.342 9.54393 L866.342 72.576 L858.889 72.576 L858.889 9.54393 Z" fill="#000000" fill-rule="nonzero" fill-opacity="1" /><path clip-path="url(#clip490)" d="M920.746 48.0275 L920.746 51.6733 L886.475 51.6733 Q886.961 59.3701 891.093 63.421 Q895.266 67.4314 902.679 67.4314 Q906.973 67.4314 910.983 66.3781 Q915.034 65.3249 919.004 63.2184 L919.004 70.267 Q914.994 71.9684 910.781 72.8596 Q906.568 73.7508 902.233 73.7508 Q891.377 73.7508 885.017 67.4314 Q878.698 61.1119 878.698 50.3365 Q878.698 39.1965 884.693 32.6746 Q890.729 26.1121 900.937 26.1121 Q910.092 26.1121 915.399 32.0264 Q920.746 37.9003 920.746 48.0275 M913.292 45.84 Q913.211 39.7232 909.849 36.0774 Q906.527 32.4315 901.018 32.4315 Q894.78 32.4315 891.012 35.9558 Q887.285 39.4801 886.718 45.8805 L913.292 45.84 Z" fill="#000000" fill-rule="nonzero" fill-opacity="1" /><path clip-path="url(#clip490)" d="M961.903 28.5427 L961.903 35.5912 Q958.743 33.9709 955.341 33.1607 Q951.938 32.3505 948.292 32.3505 Q942.742 32.3505 939.947 34.0519 Q937.193 35.7533 937.193 39.156 Q937.193 41.7486 939.178 43.2475 Q941.162 44.7058 947.158 46.0426 L949.71 46.6097 Q957.65 48.3111 960.971 51.4303 Q964.334 54.509 964.334 60.0587 Q964.334 66.3781 959.311 70.0644 Q954.328 73.7508 945.578 73.7508 Q941.932 73.7508 937.962 73.0216 Q934.033 72.3329 929.658 70.9151 L929.658 63.2184 Q933.79 65.3654 937.8 66.4591 Q941.811 67.5124 945.74 67.5124 Q951.006 67.5124 953.842 65.73 Q956.677 63.9071 956.677 60.6258 Q956.677 57.5877 954.611 55.9673 Q952.586 54.3469 945.659 52.8481 L943.066 52.2405 Q936.139 50.7821 933.061 47.7845 Q929.982 44.7463 929.982 39.4801 Q929.982 33.0797 934.519 29.5959 Q939.056 26.1121 947.401 26.1121 Q951.533 26.1121 955.179 26.7198 Q958.824 27.3274 961.903 28.5427 Z" fill="#000000" fill-rule="nonzero" fill-opacity="1" /><path clip-path="url(#clip490)" d="M996.822 49.7694 Q987.788 49.7694 984.305 51.8354 Q980.821 53.9013 980.821 58.8839 Q980.821 62.8538 983.413 65.2034 Q986.046 67.5124 990.543 67.5124 Q996.741 67.5124 1000.47 63.1374 Q1004.24 58.7219 1004.24 51.4303 L1004.24 49.7694 L996.822 49.7694 M1011.69 46.6907 L1011.69 72.576 L1004.24 72.576 L1004.24 65.6895 Q1001.68 69.8214 997.875 71.8063 Q994.067 73.7508 988.558 73.7508 Q981.59 73.7508 977.459 69.8619 Q973.367 65.9325 973.367 59.3701 Q973.367 51.7138 978.471 47.825 Q983.616 43.9361 993.784 43.9361 L1004.24 43.9361 L1004.24 43.2069 Q1004.24 38.0623 1000.83 35.2672 Q997.47 32.4315 991.353 32.4315 Q987.464 32.4315 983.778 33.3632 Q980.092 34.295 976.689 36.1584 L976.689 29.2718 Q980.78 27.692 984.629 26.9223 Q988.477 26.1121 992.123 26.1121 Q1001.97 26.1121 1006.83 31.2163 Q1011.69 36.3204 1011.69 46.6907 Z" fill="#000000" fill-rule="nonzero" fill-opacity="1" /><path clip-path="url(#clip490)" d="M1027.04 27.2059 L1034.5 27.2059 L1034.5 72.576 L1027.04 72.576 L1027.04 27.2059 M1027.04 9.54393 L1034.5 9.54393 L1034.5 18.9825 L1027.04 18.9825 L1027.04 9.54393 Z" fill="#000000" fill-rule="nonzero" fill-opacity="1" /><path clip-path="url(#clip490)" d="M1070.71 49.7694 Q1061.68 49.7694 1058.19 51.8354 Q1054.71 53.9013 1054.71 58.8839 Q1054.71 62.8538 1057.3 65.2034 Q1059.93 67.5124 1064.43 67.5124 Q1070.63 67.5124 1074.36 63.1374 Q1078.12 58.7219 1078.12 51.4303 L1078.12 49.7694 L1070.71 49.7694 M1085.58 46.6907 L1085.58 72.576 L1078.12 72.576 L1078.12 65.6895 Q1075.57 69.8214 1071.76 71.8063 Q1067.96 73.7508 1062.45 73.7508 Q1055.48 73.7508 1051.35 69.8619 Q1047.26 65.9325 1047.26 59.3701 Q1047.26 51.7138 1052.36 47.825 Q1057.5 43.9361 1067.67 43.9361 L1078.12 43.9361 L1078.12 43.2069 Q1078.12 38.0623 1074.72 35.2672 Q1071.36 32.4315 1065.24 32.4315 Q1061.35 32.4315 1057.67 33.3632 Q1053.98 34.295 1050.58 36.1584 L1050.58 29.2718 Q1054.67 27.692 1058.52 26.9223 Q1062.37 26.1121 1066.01 26.1121 Q1075.86 26.1121 1080.72 31.2163 Q1085.58 36.3204 1085.58 46.6907 Z" fill="#000000" fill-rule="nonzero" fill-opacity="1" /><path clip-path="url(#clip490)" d="M1138.64 45.1919 L1138.64 72.576 L1131.19 72.576 L1131.19 45.4349 Q1131.19 38.994 1128.68 35.7938 Q1126.17 32.5936 1121.14 32.5936 Q1115.11 32.5936 1111.62 36.4419 Q1108.14 40.2903 1108.14 46.9338 L1108.14 72.576 L1100.65 72.576 L1100.65 27.2059 L1108.14 27.2059 L1108.14 34.2544 Q1110.81 30.163 1114.42 28.1376 Q1118.07 26.1121 1122.81 26.1121 Q1130.62 26.1121 1134.63 30.9732 Q1138.64 35.7938 1138.64 45.1919 Z" fill="#000000" fill-rule="nonzero" fill-opacity="1" /><path clip-path="url(#clip490)" d="M1188.39 18.8205 L1188.39 41.5461 L1198.68 41.5461 Q1204.39 41.5461 1207.51 38.5889 Q1210.63 35.6318 1210.63 30.163 Q1210.63 24.7348 1207.51 21.7777 Q1204.39 18.8205 1198.68 18.8205 L1188.39 18.8205 M1180.21 12.096 L1198.68 12.096 Q1208.85 12.096 1214.03 16.714 Q1219.26 21.2916 1219.26 30.163 Q1219.26 39.1155 1214.03 43.6931 Q1208.85 48.2706 1198.68 48.2706 L1188.39 48.2706 L1188.39 72.576 L1180.21 72.576 L1180.21 12.096 Z" fill="#000000" fill-rule="nonzero" fill-opacity="1" /><path clip-path="url(#clip490)" d="M1265.76 48.0275 L1265.76 51.6733 L1231.49 51.6733 Q1231.98 59.3701 1236.11 63.421 Q1240.28 67.4314 1247.69 67.4314 Q1251.99 67.4314 1256 66.3781 Q1260.05 65.3249 1264.02 63.2184 L1264.02 70.267 Q1260.01 71.9684 1255.8 72.8596 Q1251.58 73.7508 1247.25 73.7508 Q1236.39 73.7508 1230.03 67.4314 Q1223.71 61.1119 1223.71 50.3365 Q1223.71 39.1965 1229.71 32.6746 Q1235.74 26.1121 1245.95 26.1121 Q1255.11 26.1121 1260.41 32.0264 Q1265.76 37.9003 1265.76 48.0275 M1258.31 45.84 Q1258.23 39.7232 1254.86 36.0774 Q1251.54 32.4315 1246.03 32.4315 Q1239.8 32.4315 1236.03 35.9558 Q1232.3 39.4801 1231.73 45.8805 L1258.31 45.84 Z" fill="#000000" fill-rule="nonzero" fill-opacity="1" /><path clip-path="url(#clip490)" d="M1304.29 34.1734 Q1303.03 33.4443 1301.53 33.1202 Q1300.07 32.7556 1298.29 32.7556 Q1291.97 32.7556 1288.57 36.8875 Q1285.21 40.9789 1285.21 48.6757 L1285.21 72.576 L1277.71 72.576 L1277.71 27.2059 L1285.21 27.2059 L1285.21 34.2544 Q1287.56 30.1225 1291.32 28.1376 Q1295.09 26.1121 1300.48 26.1121 Q1301.25 26.1121 1302.18 26.2337 Q1303.11 26.3147 1304.25 26.5172 L1304.29 34.1734 Z" fill="#000000" fill-rule="nonzero" fill-opacity="1" /><path clip-path="url(#clip490)" d="M1341.03 28.5427 L1341.03 35.5912 Q1337.87 33.9709 1334.46 33.1607 Q1331.06 32.3505 1327.42 32.3505 Q1321.87 32.3505 1319.07 34.0519 Q1316.32 35.7533 1316.32 39.156 Q1316.32 41.7486 1318.3 43.2475 Q1320.29 44.7058 1326.28 46.0426 L1328.83 46.6097 Q1336.77 48.3111 1340.1 51.4303 Q1343.46 54.509 1343.46 60.0587 Q1343.46 66.3781 1338.43 70.0644 Q1333.45 73.7508 1324.7 73.7508 Q1321.06 73.7508 1317.09 73.0216 Q1313.16 72.3329 1308.78 70.9151 L1308.78 63.2184 Q1312.91 65.3654 1316.92 66.4591 Q1320.93 67.5124 1324.86 67.5124 Q1330.13 67.5124 1332.97 65.73 Q1335.8 63.9071 1335.8 60.6258 Q1335.8 57.5877 1333.74 55.9673 Q1331.71 54.3469 1324.78 52.8481 L1322.19 52.2405 Q1315.26 50.7821 1312.18 47.7845 Q1309.11 44.7463 1309.11 39.4801 Q1309.11 33.0797 1313.64 29.5959 Q1318.18 26.1121 1326.52 26.1121 Q1330.66 26.1121 1334.3 26.7198 Q1337.95 27.3274 1341.03 28.5427 Z" fill="#000000" fill-rule="nonzero" fill-opacity="1" /><path clip-path="url(#clip490)" d="M1375.95 49.7694 Q1366.91 49.7694 1363.43 51.8354 Q1359.94 53.9013 1359.94 58.8839 Q1359.94 62.8538 1362.54 65.2034 Q1365.17 67.5124 1369.67 67.5124 Q1375.87 67.5124 1379.59 63.1374 Q1383.36 58.7219 1383.36 51.4303 L1383.36 49.7694 L1375.95 49.7694 M1390.81 46.6907 L1390.81 72.576 L1383.36 72.576 L1383.36 65.6895 Q1380.81 69.8214 1377 71.8063 Q1373.19 73.7508 1367.68 73.7508 Q1360.71 73.7508 1356.58 69.8619 Q1352.49 65.9325 1352.49 59.3701 Q1352.49 51.7138 1357.6 47.825 Q1362.74 43.9361 1372.91 43.9361 L1383.36 43.9361 L1383.36 43.2069 Q1383.36 38.0623 1379.96 35.2672 Q1376.59 32.4315 1370.48 32.4315 Q1366.59 32.4315 1362.9 33.3632 Q1359.22 34.295 1355.81 36.1584 L1355.81 29.2718 Q1359.9 27.692 1363.75 26.9223 Q1367.6 26.1121 1371.25 26.1121 Q1381.09 26.1121 1385.95 31.2163 Q1390.81 36.3204 1390.81 46.6907 Z" fill="#000000" fill-rule="nonzero" fill-opacity="1" /><path clip-path="url(#clip490)" d="M1441.49 35.9153 Q1444.28 30.8922 1448.17 28.5022 Q1452.06 26.1121 1457.33 26.1121 Q1464.42 26.1121 1468.27 31.0947 Q1472.11 36.0368 1472.11 45.1919 L1472.11 72.576 L1464.62 72.576 L1464.62 45.4349 Q1464.62 38.913 1462.31 35.7533 Q1460 32.5936 1455.26 32.5936 Q1449.47 32.5936 1446.11 36.4419 Q1442.75 40.2903 1442.75 46.9338 L1442.75 72.576 L1435.25 72.576 L1435.25 45.4349 Q1435.25 38.8725 1432.94 35.7533 Q1430.63 32.5936 1425.81 32.5936 Q1420.1 32.5936 1416.74 36.4824 Q1413.38 40.3308 1413.38 46.9338 L1413.38 72.576 L1405.88 72.576 L1405.88 27.2059 L1413.38 27.2059 L1413.38 34.2544 Q1415.93 30.082 1419.49 28.0971 Q1423.06 26.1121 1427.96 26.1121 Q1432.9 26.1121 1436.35 28.6237 Q1439.83 31.1352 1441.49 35.9153 Z" fill="#000000" fill-rule="nonzero" fill-opacity="1" /><path clip-path="url(#clip490)" d="M1507.6 49.7694 Q1498.57 49.7694 1495.08 51.8354 Q1491.6 53.9013 1491.6 58.8839 Q1491.6 62.8538 1494.19 65.2034 Q1496.83 67.5124 1501.32 67.5124 Q1507.52 67.5124 1511.25 63.1374 Q1515.01 58.7219 1515.01 51.4303 L1515.01 49.7694 L1507.6 49.7694 M1522.47 46.6907 L1522.47 72.576 L1515.01 72.576 L1515.01 65.6895 Q1512.46 69.8214 1508.65 71.8063 Q1504.85 73.7508 1499.34 73.7508 Q1492.37 73.7508 1488.24 69.8619 Q1484.15 65.9325 1484.15 59.3701 Q1484.15 51.7138 1489.25 47.825 Q1494.39 43.9361 1504.56 43.9361 L1515.01 43.9361 L1515.01 43.2069 Q1515.01 38.0623 1511.61 35.2672 Q1508.25 32.4315 1502.13 32.4315 Q1498.24 32.4315 1494.56 33.3632 Q1490.87 34.295 1487.47 36.1584 L1487.47 29.2718 Q1491.56 27.692 1495.41 26.9223 Q1499.26 26.1121 1502.9 26.1121 Q1512.75 26.1121 1517.61 31.2163 Q1522.47 36.3204 1522.47 46.6907 Z" fill="#000000" fill-rule="nonzero" fill-opacity="1" /><path clip-path="url(#clip490)" d="M1558.44 49.7694 Q1549.41 49.7694 1545.92 51.8354 Q1542.44 53.9013 1542.44 58.8839 Q1542.44 62.8538 1545.03 65.2034 Q1547.66 67.5124 1552.16 67.5124 Q1558.36 67.5124 1562.09 63.1374 Q1565.85 58.7219 1565.85 51.4303 L1565.85 49.7694 L1558.44 49.7694 M1573.31 46.6907 L1573.31 72.576 L1565.85 72.576 L1565.85 65.6895 Q1563.3 69.8214 1559.49 71.8063 Q1555.68 73.7508 1550.18 73.7508 Q1543.21 73.7508 1539.08 69.8619 Q1534.98 65.9325 1534.98 59.3701 Q1534.98 51.7138 1540.09 47.825 Q1545.23 43.9361 1555.4 43.9361 L1565.85 43.9361 L1565.85 43.2069 Q1565.85 38.0623 1562.45 35.2672 Q1559.09 32.4315 1552.97 32.4315 Q1549.08 32.4315 1545.4 33.3632 Q1541.71 34.295 1538.31 36.1584 L1538.31 29.2718 Q1542.4 27.692 1546.25 26.9223 Q1550.09 26.1121 1553.74 26.1121 Q1563.58 26.1121 1568.44 31.2163 Q1573.31 36.3204 1573.31 46.6907 Z" fill="#000000" fill-rule="nonzero" fill-opacity="1" /><path clip-path="url(#clip490)" d="M1626.37 45.1919 L1626.37 72.576 L1618.92 72.576 L1618.92 45.4349 Q1618.92 38.994 1616.41 35.7938 Q1613.9 32.5936 1608.87 32.5936 Q1602.84 32.5936 1599.35 36.4419 Q1595.87 40.2903 1595.87 46.9338 L1595.87 72.576 L1588.38 72.576 L1588.38 27.2059 L1595.87 27.2059 L1595.87 34.2544 Q1598.54 30.163 1602.15 28.1376 Q1605.79 26.1121 1610.53 26.1121 Q1618.35 26.1121 1622.36 30.9732 Q1626.37 35.7938 1626.37 45.1919 Z" fill="#000000" fill-rule="nonzero" fill-opacity="1" /><path clip-path="url(#clip490)" d="M1676.12 18.8205 L1676.12 41.5461 L1686.41 41.5461 Q1692.12 41.5461 1695.24 38.5889 Q1698.36 35.6318 1698.36 30.163 Q1698.36 24.7348 1695.24 21.7777 Q1692.12 18.8205 1686.41 18.8205 L1676.12 18.8205 M1667.94 12.096 L1686.41 12.096 Q1696.58 12.096 1701.76 16.714 Q1706.99 21.2916 1706.99 30.163 Q1706.99 39.1155 1701.76 43.6931 Q1696.58 48.2706 1686.41 48.2706 L1676.12 48.2706 L1676.12 72.576 L1667.94 72.576 L1667.94 12.096 Z" fill="#000000" fill-rule="nonzero" fill-opacity="1" /><path clip-path="url(#clip490)" d="M1732.26 32.4315 Q1726.27 32.4315 1722.78 37.1306 Q1719.3 41.7891 1719.3 49.9314 Q1719.3 58.0738 1722.74 62.7728 Q1726.23 67.4314 1732.26 67.4314 Q1738.22 67.4314 1741.7 62.7323 Q1745.19 58.0333 1745.19 49.9314 Q1745.19 41.8701 1741.7 37.1711 Q1738.22 32.4315 1732.26 32.4315 M1732.26 26.1121 Q1741.99 26.1121 1747.54 32.4315 Q1753.09 38.7509 1753.09 49.9314 Q1753.09 61.0714 1747.54 67.4314 Q1741.99 73.7508 1732.26 73.7508 Q1722.5 73.7508 1716.95 67.4314 Q1711.44 61.0714 1711.44 49.9314 Q1711.44 38.7509 1716.95 32.4315 Q1722.5 26.1121 1732.26 26.1121 Z" fill="#000000" fill-rule="nonzero" fill-opacity="1" /><path clip-path="url(#clip490)" d="M1765.44 27.2059 L1772.89 27.2059 L1772.89 72.576 L1765.44 72.576 L1765.44 27.2059 M1765.44 9.54393 L1772.89 9.54393 L1772.89 18.9825 L1765.44 18.9825 L1765.44 9.54393 Z" fill="#000000" fill-rule="nonzero" fill-opacity="1" /><path clip-path="url(#clip490)" d="M1817.41 28.5427 L1817.41 35.5912 Q1814.25 33.9709 1810.85 33.1607 Q1807.45 32.3505 1803.8 32.3505 Q1798.25 32.3505 1795.46 34.0519 Q1792.7 35.7533 1792.7 39.156 Q1792.7 41.7486 1794.69 43.2475 Q1796.67 44.7058 1802.67 46.0426 L1805.22 46.6097 Q1813.16 48.3111 1816.48 51.4303 Q1819.84 54.509 1819.84 60.0587 Q1819.84 66.3781 1814.82 70.0644 Q1809.84 73.7508 1801.09 73.7508 Q1797.44 73.7508 1793.47 73.0216 Q1789.54 72.3329 1785.17 70.9151 L1785.17 63.2184 Q1789.3 65.3654 1793.31 66.4591 Q1797.32 67.5124 1801.25 67.5124 Q1806.52 67.5124 1809.35 65.73 Q1812.19 63.9071 1812.19 60.6258 Q1812.19 57.5877 1810.12 55.9673 Q1808.1 54.3469 1801.17 52.8481 L1798.58 52.2405 Q1791.65 50.7821 1788.57 47.7845 Q1785.49 44.7463 1785.49 39.4801 Q1785.49 33.0797 1790.03 29.5959 Q1794.57 26.1121 1802.91 26.1121 Q1807.04 26.1121 1810.69 26.7198 Q1814.33 27.3274 1817.41 28.5427 Z" fill="#000000" fill-rule="nonzero" fill-opacity="1" /><path clip-path="url(#clip490)" d="M1860.64 28.5427 L1860.64 35.5912 Q1857.48 33.9709 1854.07 33.1607 Q1850.67 32.3505 1847.03 32.3505 Q1841.48 32.3505 1838.68 34.0519 Q1835.93 35.7533 1835.93 39.156 Q1835.93 41.7486 1837.91 43.2475 Q1839.9 44.7058 1845.89 46.0426 L1848.44 46.6097 Q1856.38 48.3111 1859.71 51.4303 Q1863.07 54.509 1863.07 60.0587 Q1863.07 66.3781 1858.04 70.0644 Q1853.06 73.7508 1844.31 73.7508 Q1840.67 73.7508 1836.7 73.0216 Q1832.77 72.3329 1828.39 70.9151 L1828.39 63.2184 Q1832.52 65.3654 1836.53 66.4591 Q1840.54 67.5124 1844.47 67.5124 Q1849.74 67.5124 1852.58 65.73 Q1855.41 63.9071 1855.41 60.6258 Q1855.41 57.5877 1853.35 55.9673 Q1851.32 54.3469 1844.39 52.8481 L1841.8 52.2405 Q1834.87 50.7821 1831.79 47.7845 Q1828.72 44.7463 1828.72 39.4801 Q1828.72 33.0797 1833.25 29.5959 Q1837.79 26.1121 1846.13 26.1121 Q1850.27 26.1121 1853.91 26.7198 Q1857.56 27.3274 1860.64 28.5427 Z" fill="#000000" fill-rule="nonzero" fill-opacity="1" /><path clip-path="url(#clip490)" d="M1892.52 32.4315 Q1886.52 32.4315 1883.04 37.1306 Q1879.55 41.7891 1879.55 49.9314 Q1879.55 58.0738 1883 62.7728 Q1886.48 67.4314 1892.52 67.4314 Q1898.47 67.4314 1901.96 62.7323 Q1905.44 58.0333 1905.44 49.9314 Q1905.44 41.8701 1901.96 37.1711 Q1898.47 32.4315 1892.52 32.4315 M1892.52 26.1121 Q1902.24 26.1121 1907.79 32.4315 Q1913.34 38.7509 1913.34 49.9314 Q1913.34 61.0714 1907.79 67.4314 Q1902.24 73.7508 1892.52 73.7508 Q1882.75 73.7508 1877.2 67.4314 Q1871.7 61.0714 1871.7 49.9314 Q1871.7 38.7509 1877.2 32.4315 Q1882.75 26.1121 1892.52 26.1121 Z" fill="#000000" fill-rule="nonzero" fill-opacity="1" /><path clip-path="url(#clip490)" d="M1963.41 45.1919 L1963.41 72.576 L1955.95 72.576 L1955.95 45.4349 Q1955.95 38.994 1953.44 35.7938 Q1950.93 32.5936 1945.91 32.5936 Q1939.87 32.5936 1936.39 36.4419 Q1932.9 40.2903 1932.9 46.9338 L1932.9 72.576 L1925.41 72.576 L1925.41 27.2059 L1932.9 27.2059 L1932.9 34.2544 Q1935.58 30.163 1939.18 28.1376 Q1942.83 26.1121 1947.57 26.1121 Q1955.39 26.1121 1959.4 30.9732 Q1963.41 35.7938 1963.41 45.1919 Z" fill="#000000" fill-rule="nonzero" fill-opacity="1" /><polyline clip-path="url(#clip492)" style="stroke:#009af9; stroke-linecap:round; stroke-linejoin:round; stroke-width:4; stroke-opacity:1; fill:none" points="279.421,1366.07 320.502,1226.27 361.582,1109.84 402.663,1017.34 443.743,946.883 484.824,895.319 525.905,859.098 566.985,834.81 608.066,819.462 649.146,810.59 690.227,806.254 731.307,804.985 772.388,805.704 813.468,807.638 854.549,810.251 895.629,813.178 936.71,816.18 977.79,819.107 1018.87,821.867 1059.95,824.414 1101.03,826.724 1142.11,828.795 1183.19,830.634 1224.27,832.255 1265.35,833.676 1306.43,834.914 1347.52,835.988 1388.6,836.918 1429.68,837.72 1470.76,838.409 1511.84,839 1552.92,839.507 1594,839.939 1635.08,840.308 1676.16,840.622 1717.24,840.889 1758.32,841.116 1799.4,841.308 1840.48,841.471 1881.56,841.609 1922.64,841.725 1963.72,841.823 2004.8,841.906 2045.88,836.645 2086.96,815.377 2128.05,767.442 2169.13,687.512 2210.21,577.589 2251.29,445.676 2292.37,302.774 "/>
<polyline clip-path="url(#clip492)" style="stroke:#e26f46; stroke-linecap:round; stroke-linejoin:round; stroke-width:4; stroke-opacity:1; fill:none" points="279.421,1386.4 320.502,1255.24 361.582,1131.35 402.663,1016.38 443.743,911.19 484.824,815.996 525.905,730.632 566.985,654.661 608.066,587.483 649.146,528.404 690.227,476.697 731.307,431.628 772.388,392.49 813.468,358.613 854.549,329.376 895.629,304.21 936.71,282.599 977.79,264.081 1018.87,248.245 1059.95,234.726 1101.03,223.206 1142.11,213.403 1183.19,205.074 1224.27,198.006 1265.35,192.016 1306.43,186.945 1347.52,182.656 1388.6,179.034 1429.68,175.976 1470.76,173.398 1511.84,171.226 1552.92,169.397 1594,167.859 1635.08,166.566 1676.16,165.479 1717.24,164.567 1758.32,163.802 1799.4,163.16 1840.48,162.623 1881.56,162.172 1922.64,161.795 1963.72,161.48 2004.8,161.216 2045.88,160.995 2086.96,160.811 2128.05,160.657 2169.13,160.528 2210.21,160.421 2251.29,160.331 2292.37,160.256 "/>
<path clip-path="url(#clip490)" d="M1872.08 1379.86 L2281.63 1379.86 L2281.63 1224.34 L1872.08 1224.34  Z" fill="#ffffff" fill-rule="evenodd" fill-opacity="1"/>
<polyline clip-path="url(#clip490)" style="stroke:#000000; stroke-linecap:round; stroke-linejoin:round; stroke-width:4; stroke-opacity:1; fill:none" points="1872.08,1379.86 2281.63,1379.86 2281.63,1224.34 1872.08,1224.34 1872.08,1379.86 "/>
<polyline clip-path="url(#clip490)" style="stroke:#009af9; stroke-linecap:round; stroke-linejoin:round; stroke-width:4; stroke-opacity:1; fill:none" points="1895.79,1276.18 2038.04,1276.18 "/>
<path clip-path="url(#clip490)" d="M2061.74 1258.9 L2068.04 1258.9 L2083.36 1287.81 L2083.36 1258.9 L2087.9 1258.9 L2087.9 1293.46 L2081.61 1293.46 L2066.28 1264.54 L2066.28 1293.46 L2061.74 1293.46 L2061.74 1258.9 Z" fill="#000000" fill-rule="nonzero" fill-opacity="1" /><path clip-path="url(#clip490)" d="M2096.58 1283.22 L2096.58 1267.53 L2100.84 1267.53 L2100.84 1283.06 Q2100.84 1286.74 2102.28 1288.6 Q2103.71 1290.42 2106.58 1290.42 Q2110.03 1290.42 2112.02 1288.22 Q2114.04 1286.03 2114.04 1282.23 L2114.04 1267.53 L2118.29 1267.53 L2118.29 1293.46 L2114.04 1293.46 L2114.04 1289.47 Q2112.48 1291.84 2110.42 1292.99 Q2108.39 1294.13 2105.68 1294.13 Q2101.21 1294.13 2098.9 1291.35 Q2096.58 1288.57 2096.58 1283.22 M2107.3 1266.91 L2107.3 1266.91 Z" fill="#000000" fill-rule="nonzero" fill-opacity="1" /><path clip-path="url(#clip490)" d="M2147.25 1272.51 Q2148.85 1269.64 2151.07 1268.27 Q2153.29 1266.91 2156.3 1266.91 Q2160.35 1266.91 2162.55 1269.75 Q2164.75 1272.58 2164.75 1277.81 L2164.75 1293.46 L2160.47 1293.46 L2160.47 1277.95 Q2160.47 1274.22 2159.15 1272.41 Q2157.83 1270.61 2155.12 1270.61 Q2151.81 1270.61 2149.89 1272.81 Q2147.97 1275.01 2147.97 1278.8 L2147.97 1293.46 L2143.69 1293.46 L2143.69 1277.95 Q2143.69 1274.2 2142.37 1272.41 Q2141.05 1270.61 2138.29 1270.61 Q2135.03 1270.61 2133.11 1272.83 Q2131.19 1275.03 2131.19 1278.8 L2131.19 1293.46 L2126.91 1293.46 L2126.91 1267.53 L2131.19 1267.53 L2131.19 1271.56 Q2132.65 1269.17 2134.68 1268.04 Q2136.72 1266.91 2139.52 1266.91 Q2142.35 1266.91 2144.31 1268.34 Q2146.3 1269.78 2147.25 1272.51 Z" fill="#000000" fill-rule="nonzero" fill-opacity="1" /><path clip-path="url(#clip490)" d="M2195.42 1279.43 L2195.42 1281.51 L2175.84 1281.51 Q2176.12 1285.91 2178.48 1288.22 Q2180.86 1290.52 2185.1 1290.52 Q2187.55 1290.52 2189.85 1289.91 Q2192.16 1289.31 2194.43 1288.11 L2194.43 1292.14 Q2192.14 1293.11 2189.73 1293.62 Q2187.32 1294.13 2184.85 1294.13 Q2178.64 1294.13 2175.01 1290.52 Q2171.4 1286.91 2171.4 1280.75 Q2171.4 1274.38 2174.82 1270.66 Q2178.27 1266.91 2184.1 1266.91 Q2189.34 1266.91 2192.37 1270.29 Q2195.42 1273.64 2195.42 1279.43 M2191.16 1278.18 Q2191.12 1274.68 2189.2 1272.6 Q2187.3 1270.52 2184.15 1270.52 Q2180.59 1270.52 2178.43 1272.53 Q2176.3 1274.54 2175.98 1278.2 L2191.16 1278.18 Z" fill="#000000" fill-rule="nonzero" fill-opacity="1" /><path clip-path="url(#clip490)" d="M2217.44 1271.51 Q2216.72 1271.1 2215.86 1270.91 Q2215.03 1270.7 2214.01 1270.7 Q2210.4 1270.7 2208.46 1273.06 Q2206.54 1275.4 2206.54 1279.8 L2206.54 1293.46 L2202.25 1293.46 L2202.25 1267.53 L2206.54 1267.53 L2206.54 1271.56 Q2207.88 1269.2 2210.03 1268.06 Q2212.18 1266.91 2215.26 1266.91 Q2215.7 1266.91 2216.23 1266.97 Q2216.77 1267.02 2217.41 1267.14 L2217.44 1271.51 Z" fill="#000000" fill-rule="nonzero" fill-opacity="1" /><path clip-path="url(#clip490)" d="M2221.91 1267.53 L2226.16 1267.53 L2226.16 1293.46 L2221.91 1293.46 L2221.91 1267.53 M2221.91 1257.44 L2226.16 1257.44 L2226.16 1262.83 L2221.91 1262.83 L2221.91 1257.44 Z" fill="#000000" fill-rule="nonzero" fill-opacity="1" /><path clip-path="url(#clip490)" d="M2234.91 1257.44 L2239.2 1257.44 L2239.2 1278.71 L2251.91 1267.53 L2257.35 1267.53 L2243.6 1279.66 L2257.92 1293.46 L2252.37 1293.46 L2239.2 1280.79 L2239.2 1293.46 L2234.91 1293.46 L2234.91 1257.44 Z" fill="#000000" fill-rule="nonzero" fill-opacity="1" /><polyline clip-path="url(#clip490)" style="stroke:#e26f46; stroke-linecap:round; stroke-linejoin:round; stroke-width:4; stroke-opacity:1; fill:none" points="1895.79,1328.02 2038.04,1328.02 "/>
<path clip-path="url(#clip490)" d="M2077.58 1315.34 L2071.23 1332.54 L2083.94 1332.54 L2077.58 1315.34 M2074.94 1310.74 L2080.24 1310.74 L2093.41 1345.3 L2088.55 1345.3 L2085.4 1336.43 L2069.82 1336.43 L2066.67 1345.3 L2061.74 1345.3 L2074.94 1310.74 Z" fill="#000000" fill-rule="nonzero" fill-opacity="1" /><path clip-path="url(#clip490)" d="M2119.82 1329.65 L2119.82 1345.3 L2115.56 1345.3 L2115.56 1329.79 Q2115.56 1326.11 2114.13 1324.28 Q2112.69 1322.45 2109.82 1322.45 Q2106.37 1322.45 2104.38 1324.65 Q2102.39 1326.85 2102.39 1330.64 L2102.39 1345.3 L2098.11 1345.3 L2098.11 1319.37 L2102.39 1319.37 L2102.39 1323.4 Q2103.92 1321.06 2105.98 1319.9 Q2108.06 1318.75 2110.77 1318.75 Q2115.24 1318.75 2117.53 1321.52 Q2119.82 1324.28 2119.82 1329.65 Z" fill="#000000" fill-rule="nonzero" fill-opacity="1" /><path clip-path="url(#clip490)" d="M2140.1 1332.26 Q2134.94 1332.26 2132.95 1333.44 Q2130.96 1334.63 2130.96 1337.47 Q2130.96 1339.74 2132.44 1341.08 Q2133.94 1342.4 2136.51 1342.4 Q2140.05 1342.4 2142.18 1339.9 Q2144.34 1337.38 2144.34 1333.21 L2144.34 1332.26 L2140.1 1332.26 M2148.6 1330.5 L2148.6 1345.3 L2144.34 1345.3 L2144.34 1341.36 Q2142.88 1343.72 2140.7 1344.86 Q2138.53 1345.97 2135.38 1345.97 Q2131.4 1345.97 2129.04 1343.75 Q2126.7 1341.5 2126.7 1337.75 Q2126.7 1333.38 2129.61 1331.15 Q2132.55 1328.93 2138.36 1328.93 L2144.34 1328.93 L2144.34 1328.51 Q2144.34 1325.57 2142.39 1323.98 Q2140.47 1322.36 2136.98 1322.36 Q2134.75 1322.36 2132.65 1322.89 Q2130.54 1323.42 2128.6 1324.49 L2128.6 1320.55 Q2130.93 1319.65 2133.13 1319.21 Q2135.33 1318.75 2137.42 1318.75 Q2143.04 1318.75 2145.82 1321.66 Q2148.6 1324.58 2148.6 1330.5 Z" fill="#000000" fill-rule="nonzero" fill-opacity="1" /><path clip-path="url(#clip490)" d="M2157.37 1309.28 L2161.63 1309.28 L2161.63 1345.3 L2157.37 1345.3 L2157.37 1309.28 Z" fill="#000000" fill-rule="nonzero" fill-opacity="1" /><path clip-path="url(#clip490)" d="M2170.54 1319.37 L2174.8 1319.37 L2174.8 1345.3 L2170.54 1345.3 L2170.54 1319.37 M2170.54 1309.28 L2174.8 1309.28 L2174.8 1314.67 L2170.54 1314.67 L2170.54 1309.28 Z" fill="#000000" fill-rule="nonzero" fill-opacity="1" /><path clip-path="url(#clip490)" d="M2187.92 1312.01 L2187.92 1319.37 L2196.7 1319.37 L2196.7 1322.68 L2187.92 1322.68 L2187.92 1336.75 Q2187.92 1339.93 2188.78 1340.83 Q2189.66 1341.73 2192.32 1341.73 L2196.7 1341.73 L2196.7 1345.3 L2192.32 1345.3 Q2187.39 1345.3 2185.52 1343.47 Q2183.64 1341.62 2183.64 1336.75 L2183.64 1322.68 L2180.52 1322.68 L2180.52 1319.37 L2183.64 1319.37 L2183.64 1312.01 L2187.92 1312.01 Z" fill="#000000" fill-rule="nonzero" fill-opacity="1" /><path clip-path="url(#clip490)" d="M2202.3 1319.37 L2206.56 1319.37 L2206.56 1345.3 L2202.3 1345.3 L2202.3 1319.37 M2202.3 1309.28 L2206.56 1309.28 L2206.56 1314.67 L2202.3 1314.67 L2202.3 1309.28 Z" fill="#000000" fill-rule="nonzero" fill-opacity="1" /><path clip-path="url(#clip490)" d="M2215.31 1309.28 L2219.59 1309.28 L2219.59 1330.55 L2232.3 1319.37 L2237.74 1319.37 L2223.99 1331.5 L2238.32 1345.3 L2232.76 1345.3 L2219.59 1332.63 L2219.59 1345.3 L2215.31 1345.3 L2215.31 1309.28 Z" fill="#000000" fill-rule="nonzero" fill-opacity="1" /></svg>
