<?xml version="1.0" encoding="utf-8"?>
<svg xmlns="http://www.w3.org/2000/svg" xmlns:xlink="http://www.w3.org/1999/xlink" width="600" height="400" viewBox="0 0 2400 1600">
<defs>
  <clipPath id="clip580">
    <rect x="0" y="0" width="2400" height="1600"/>
  </clipPath>
</defs>
<path clip-path="url(#clip580)" d="M0 1600 L2400 1600 L2400 8.88178e-14 L0 8.88178e-14  Z" fill="#ffffff" fill-rule="evenodd" fill-opacity="1"/>
<defs>
  <clipPath id="clip581">
    <rect x="256" y="123" width="2097" height="1301"/>
  </clipPath>
</defs>
<path clip-path="url(#clip580)" d="M256.556 1423.18 L2352.76 1423.18 L2352.76 123.472 L256.556 123.472  Z" fill="#ffffff" fill-rule="evenodd" fill-opacity="1"/>
<polyline clip-path="url(#clip581)" style="stroke:#000000; stroke-linecap:round; stroke-linejoin:round; stroke-width:2; stroke-opacity:0.1; fill:none" points="315.882,1423.18 315.882,123.472 "/>
<polyline clip-path="url(#clip581)" style="stroke:#000000; stroke-linecap:round; stroke-linejoin:round; stroke-width:2; stroke-opacity:0.1; fill:none" points="975.065,1423.18 975.065,123.472 "/>
<polyline clip-path="url(#clip581)" style="stroke:#000000; stroke-linecap:round; stroke-linejoin:round; stroke-width:2; stroke-opacity:0.1; fill:none" points="1634.25,1423.18 1634.25,123.472 "/>
<polyline clip-path="url(#clip581)" style="stroke:#000000; stroke-linecap:round; stroke-linejoin:round; stroke-width:2; stroke-opacity:0.1; fill:none" points="2293.43,1423.18 2293.43,123.472 "/>
<polyline clip-path="url(#clip581)" style="stroke:#000000; stroke-linecap:round; stroke-linejoin:round; stroke-width:2; stroke-opacity:0.1; fill:none" points="256.556,1359.01 2352.76,1359.01 "/>
<polyline clip-path="url(#clip581)" style="stroke:#000000; stroke-linecap:round; stroke-linejoin:round; stroke-width:2; stroke-opacity:0.1; fill:none" points="256.556,1163.82 2352.76,1163.82 "/>
<polyline clip-path="url(#clip581)" style="stroke:#000000; stroke-linecap:round; stroke-linejoin:round; stroke-width:2; stroke-opacity:0.1; fill:none" points="256.556,968.636 2352.76,968.636 "/>
<polyline clip-path="url(#clip581)" style="stroke:#000000; stroke-linecap:round; stroke-linejoin:round; stroke-width:2; stroke-opacity:0.1; fill:none" points="256.556,773.45 2352.76,773.45 "/>
<polyline clip-path="url(#clip581)" style="stroke:#000000; stroke-linecap:round; stroke-linejoin:round; stroke-width:2; stroke-opacity:0.1; fill:none" points="256.556,578.265 2352.76,578.265 "/>
<polyline clip-path="url(#clip581)" style="stroke:#000000; stroke-linecap:round; stroke-linejoin:round; stroke-width:2; stroke-opacity:0.1; fill:none" points="256.556,383.079 2352.76,383.079 "/>
<polyline clip-path="url(#clip581)" style="stroke:#000000; stroke-linecap:round; stroke-linejoin:round; stroke-width:2; stroke-opacity:0.1; fill:none" points="256.556,187.893 2352.76,187.893 "/>
<polyline clip-path="url(#clip580)" style="stroke:#000000; stroke-linecap:round; stroke-linejoin:round; stroke-width:4; stroke-opacity:1; fill:none" points="256.556,1423.18 2352.76,1423.18 "/>
<polyline clip-path="url(#clip580)" style="stroke:#000000; stroke-linecap:round; stroke-linejoin:round; stroke-width:4; stroke-opacity:1; fill:none" points="315.882,1423.18 315.882,1404.28 "/>
<polyline clip-path="url(#clip580)" style="stroke:#000000; stroke-linecap:round; stroke-linejoin:round; stroke-width:4; stroke-opacity:1; fill:none" points="975.065,1423.18 975.065,1404.28 "/>
<polyline clip-path="url(#clip580)" style="stroke:#000000; stroke-linecap:round; stroke-linejoin:round; stroke-width:4; stroke-opacity:1; fill:none" points="1634.25,1423.18 1634.25,1404.28 "/>
<polyline clip-path="url(#clip580)" style="stroke:#000000; stroke-linecap:round; stroke-linejoin:round; stroke-width:4; stroke-opacity:1; fill:none" points="2293.43,1423.18 2293.43,1404.28 "/>
<path clip-path="url(#clip580)" d="M315.882 1454.1 Q312.271 1454.1 310.443 1457.66 Q308.637 1461.2 308.637 1468.33 Q308.637 1475.44 310.443 1479.01 Q312.271 1482.55 315.882 1482.55 Q319.517 1482.55 321.322 1479.01 Q323.151 1475.44 323.151 1468.33 Q323.151 1461.2 321.322 1457.66 Q319.517 1454.1 315.882 1454.1 M315.882 1450.39 Q321.692 1450.39 324.748 1455 Q327.827 1459.58 327.827 1468.33 Q327.827 1477.06 324.748 1481.67 Q321.692 1486.25 315.882 1486.25 Q310.072 1486.25 306.993 1481.67 Q303.938 1477.06 303.938 1468.33 Q303.938 1459.58 306.993 1455 Q310.072 1450.39 315.882 1450.39 Z" fill="#000000" fill-rule="nonzero" fill-opacity="1" /><path clip-path="url(#clip580)" d="M949.752 1481.64 L957.391 1481.64 L957.391 1455.28 L949.081 1456.95 L949.081 1452.69 L957.345 1451.02 L962.021 1451.02 L962.021 1481.64 L969.66 1481.64 L969.66 1485.58 L949.752 1485.58 L949.752 1481.64 Z" fill="#000000" fill-rule="nonzero" fill-opacity="1" /><path clip-path="url(#clip580)" d="M989.104 1454.1 Q985.493 1454.1 983.664 1457.66 Q981.859 1461.2 981.859 1468.33 Q981.859 1475.44 983.664 1479.01 Q985.493 1482.55 989.104 1482.55 Q992.738 1482.55 994.544 1479.01 Q996.372 1475.44 996.372 1468.33 Q996.372 1461.2 994.544 1457.66 Q992.738 1454.1 989.104 1454.1 M989.104 1450.39 Q994.914 1450.39 997.97 1455 Q1001.05 1459.58 1001.05 1468.33 Q1001.05 1477.06 997.97 1481.67 Q994.914 1486.25 989.104 1486.25 Q983.294 1486.25 980.215 1481.67 Q977.16 1477.06 977.16 1468.33 Q977.16 1459.58 980.215 1455 Q983.294 1450.39 989.104 1450.39 Z" fill="#000000" fill-rule="nonzero" fill-opacity="1" /><path clip-path="url(#clip580)" d="M1613.02 1481.64 L1629.34 1481.64 L1629.34 1485.58 L1607.4 1485.58 L1607.4 1481.64 Q1610.06 1478.89 1614.64 1474.26 Q1619.25 1469.61 1620.43 1468.27 Q1622.67 1465.74 1623.55 1464.01 Q1624.46 1462.25 1624.46 1460.56 Q1624.46 1457.8 1622.51 1456.07 Q1620.59 1454.33 1617.49 1454.33 Q1615.29 1454.33 1612.84 1455.09 Q1610.4 1455.86 1607.63 1457.41 L1607.63 1452.69 Q1610.45 1451.55 1612.9 1450.97 Q1615.36 1450.39 1617.4 1450.39 Q1622.77 1450.39 1625.96 1453.08 Q1629.15 1455.77 1629.15 1460.26 Q1629.15 1462.39 1628.34 1464.31 Q1627.56 1466.2 1625.45 1468.8 Q1624.87 1469.47 1621.77 1472.69 Q1618.67 1475.88 1613.02 1481.64 Z" fill="#000000" fill-rule="nonzero" fill-opacity="1" /><path clip-path="url(#clip580)" d="M1649.15 1454.1 Q1645.54 1454.1 1643.71 1457.66 Q1641.91 1461.2 1641.91 1468.33 Q1641.91 1475.44 1643.71 1479.01 Q1645.54 1482.55 1649.15 1482.55 Q1652.79 1482.55 1654.59 1479.01 Q1656.42 1475.44 1656.42 1468.33 Q1656.42 1461.2 1654.59 1457.66 Q1652.79 1454.1 1649.15 1454.1 M1649.15 1450.39 Q1654.96 1450.39 1658.02 1455 Q1661.1 1459.58 1661.1 1468.33 Q1661.1 1477.06 1658.02 1481.67 Q1654.96 1486.25 1649.15 1486.25 Q1643.34 1486.25 1640.27 1481.67 Q1637.21 1477.06 1637.21 1468.33 Q1637.21 1459.58 1640.27 1455 Q1643.34 1450.39 1649.15 1450.39 Z" fill="#000000" fill-rule="nonzero" fill-opacity="1" /><path clip-path="url(#clip580)" d="M2282.27 1466.95 Q2285.63 1467.66 2287.5 1469.93 Q2289.4 1472.2 2289.4 1475.53 Q2289.4 1480.65 2285.88 1483.45 Q2282.36 1486.25 2275.88 1486.25 Q2273.71 1486.25 2271.39 1485.81 Q2269.1 1485.39 2266.65 1484.54 L2266.65 1480.02 Q2268.59 1481.16 2270.91 1481.74 Q2273.22 1482.32 2275.74 1482.32 Q2280.14 1482.32 2282.43 1480.58 Q2284.75 1478.84 2284.75 1475.53 Q2284.75 1472.48 2282.6 1470.77 Q2280.47 1469.03 2276.65 1469.03 L2272.62 1469.03 L2272.62 1465.19 L2276.83 1465.19 Q2280.28 1465.19 2282.11 1463.82 Q2283.94 1462.43 2283.94 1459.84 Q2283.94 1457.18 2282.04 1455.77 Q2280.17 1454.33 2276.65 1454.33 Q2274.73 1454.33 2272.53 1454.75 Q2270.33 1455.16 2267.69 1456.04 L2267.69 1451.88 Q2270.35 1451.14 2272.67 1450.77 Q2275 1450.39 2277.06 1450.39 Q2282.39 1450.39 2285.49 1452.83 Q2288.59 1455.23 2288.59 1459.35 Q2288.59 1462.22 2286.95 1464.21 Q2285.3 1466.18 2282.27 1466.95 Z" fill="#000000" fill-rule="nonzero" fill-opacity="1" /><path clip-path="url(#clip580)" d="M2308.27 1454.1 Q2304.66 1454.1 2302.83 1457.66 Q2301.02 1461.2 2301.02 1468.33 Q2301.02 1475.44 2302.83 1479.01 Q2304.66 1482.55 2308.27 1482.55 Q2311.9 1482.55 2313.71 1479.01 Q2315.54 1475.44 2315.54 1468.33 Q2315.54 1461.2 2313.71 1457.66 Q2311.9 1454.1 2308.27 1454.1 M2308.27 1450.39 Q2314.08 1450.39 2317.13 1455 Q2320.21 1459.58 2320.21 1468.33 Q2320.21 1477.06 2317.13 1481.67 Q2314.08 1486.25 2308.27 1486.25 Q2302.46 1486.25 2299.38 1481.67 Q2296.32 1477.06 2296.32 1468.33 Q2296.32 1459.58 2299.38 1455 Q2302.46 1450.39 2308.27 1450.39 Z" fill="#000000" fill-rule="nonzero" fill-opacity="1" /><path clip-path="url(#clip580)" d="M1252.97 1522.27 L1252.97 1532.4 L1265.03 1532.4 L1265.03 1536.95 L1252.97 1536.95 L1252.97 1556.3 Q1252.97 1560.66 1254.14 1561.9 Q1255.35 1563.14 1259.01 1563.14 L1265.03 1563.14 L1265.03 1568.04 L1259.01 1568.04 Q1252.23 1568.04 1249.66 1565.53 Q1247.08 1562.98 1247.08 1556.3 L1247.08 1536.95 L1242.78 1536.95 L1242.78 1532.4 L1247.08 1532.4 L1247.08 1522.27 L1252.97 1522.27 Z" fill="#000000" fill-rule="nonzero" fill-opacity="1" /><path clip-path="url(#clip580)" d="M1307.52 1518.58 Q1303.26 1525.9 1301.19 1533.06 Q1299.12 1540.23 1299.12 1547.58 Q1299.12 1554.93 1301.19 1562.16 Q1303.29 1569.35 1307.52 1576.64 L1302.43 1576.64 Q1297.65 1569.16 1295.27 1561.93 Q1292.91 1554.71 1292.91 1547.58 Q1292.91 1540.48 1295.27 1533.29 Q1297.62 1526.09 1302.43 1518.58 L1307.52 1518.58 Z" fill="#000000" fill-rule="nonzero" fill-opacity="1" /><path clip-path="url(#clip580)" d="M1341.61 1533.45 L1341.61 1538.98 Q1339.13 1537.71 1336.45 1537.07 Q1333.78 1536.44 1330.91 1536.44 Q1326.55 1536.44 1324.36 1537.77 Q1322.19 1539.11 1322.19 1541.79 Q1322.19 1543.82 1323.75 1545 Q1325.31 1546.15 1330.02 1547.2 L1332.03 1547.64 Q1338.27 1548.98 1340.88 1551.43 Q1343.52 1553.85 1343.52 1558.21 Q1343.52 1563.17 1339.57 1566.07 Q1335.66 1568.97 1328.78 1568.97 Q1325.92 1568.97 1322.8 1568.39 Q1319.71 1567.85 1316.27 1566.74 L1316.27 1560.69 Q1319.52 1562.38 1322.67 1563.24 Q1325.82 1564.07 1328.91 1564.07 Q1333.05 1564.07 1335.27 1562.66 Q1337.5 1561.23 1337.5 1558.65 Q1337.5 1556.27 1335.88 1554.99 Q1334.29 1553.72 1328.85 1552.54 L1326.81 1552.07 Q1321.37 1550.92 1318.95 1548.56 Q1316.53 1546.18 1316.53 1542.04 Q1316.53 1537.01 1320.09 1534.27 Q1323.66 1531.54 1330.21 1531.54 Q1333.46 1531.54 1336.33 1532.01 Q1339.19 1532.49 1341.61 1533.45 Z" fill="#000000" fill-rule="nonzero" fill-opacity="1" /><path clip-path="url(#clip580)" d="M1351.92 1518.58 L1357.01 1518.58 Q1361.79 1526.09 1364.14 1533.29 Q1366.53 1540.48 1366.53 1547.58 Q1366.53 1554.71 1364.14 1561.93 Q1361.79 1569.16 1357.01 1576.64 L1351.92 1576.64 Q1356.15 1569.35 1358.22 1562.16 Q1360.32 1554.93 1360.32 1547.58 Q1360.32 1540.23 1358.22 1533.06 Q1356.15 1525.9 1351.92 1518.58 Z" fill="#000000" fill-rule="nonzero" fill-opacity="1" /><polyline clip-path="url(#clip580)" style="stroke:#000000; stroke-linecap:round; stroke-linejoin:round; stroke-width:4; stroke-opacity:1; fill:none" points="256.556,1423.18 256.556,123.472 "/>
<polyline clip-path="url(#clip580)" style="stroke:#000000; stroke-linecap:round; stroke-linejoin:round; stroke-width:4; stroke-opacity:1; fill:none" points="256.556,1359.01 275.454,1359.01 "/>
<polyline clip-path="url(#clip580)" style="stroke:#000000; stroke-linecap:round; stroke-linejoin:round; stroke-width:4; stroke-opacity:1; fill:none" points="256.556,1163.82 275.454,1163.82 "/>
<polyline clip-path="url(#clip580)" style="stroke:#000000; stroke-linecap:round; stroke-linejoin:round; stroke-width:4; stroke-opacity:1; fill:none" points="256.556,968.636 275.454,968.636 "/>
<polyline clip-path="url(#clip580)" style="stroke:#000000; stroke-linecap:round; stroke-linejoin:round; stroke-width:4; stroke-opacity:1; fill:none" points="256.556,773.45 275.454,773.45 "/>
<polyline clip-path="url(#clip580)" style="stroke:#000000; stroke-linecap:round; stroke-linejoin:round; stroke-width:4; stroke-opacity:1; fill:none" points="256.556,578.265 275.454,578.265 "/>
<polyline clip-path="url(#clip580)" style="stroke:#000000; stroke-linecap:round; stroke-linejoin:round; stroke-width:4; stroke-opacity:1; fill:none" points="256.556,383.079 275.454,383.079 "/>
<polyline clip-path="url(#clip580)" style="stroke:#000000; stroke-linecap:round; stroke-linejoin:round; stroke-width:4; stroke-opacity:1; fill:none" points="256.556,187.893 275.454,187.893 "/>
<path clip-path="url(#clip580)" d="M114.26 1359.46 L143.936 1359.46 L143.936 1363.39 L114.26 1363.39 L114.26 1359.46 Z" fill="#000000" fill-rule="nonzero" fill-opacity="1" /><path clip-path="url(#clip580)" d="M164.028 1344.81 Q160.417 1344.81 158.589 1348.37 Q156.783 1351.91 156.783 1359.04 Q156.783 1366.15 158.589 1369.71 Q160.417 1373.26 164.028 1373.26 Q167.663 1373.26 169.468 1369.71 Q171.297 1366.15 171.297 1359.04 Q171.297 1351.91 169.468 1348.37 Q167.663 1344.81 164.028 1344.81 M164.028 1341.1 Q169.839 1341.1 172.894 1345.71 Q175.973 1350.29 175.973 1359.04 Q175.973 1367.77 172.894 1372.38 Q169.839 1376.96 164.028 1376.96 Q158.218 1376.96 155.14 1372.38 Q152.084 1367.77 152.084 1359.04 Q152.084 1350.29 155.14 1345.71 Q158.218 1341.1 164.028 1341.1 Z" fill="#000000" fill-rule="nonzero" fill-opacity="1" /><path clip-path="url(#clip580)" d="M184.19 1370.41 L189.075 1370.41 L189.075 1376.29 L184.19 1376.29 L184.19 1370.41 Z" fill="#000000" fill-rule="nonzero" fill-opacity="1" /><path clip-path="url(#clip580)" d="M213.426 1357.65 Q216.783 1358.37 218.658 1360.64 Q220.556 1362.91 220.556 1366.24 Q220.556 1371.36 217.037 1374.16 Q213.519 1376.96 207.037 1376.96 Q204.862 1376.96 202.547 1376.52 Q200.255 1376.1 197.801 1375.25 L197.801 1370.73 Q199.746 1371.87 202.061 1372.44 Q204.375 1373.02 206.899 1373.02 Q211.297 1373.02 213.588 1371.29 Q215.903 1369.55 215.903 1366.24 Q215.903 1363.19 213.75 1361.47 Q211.621 1359.74 207.801 1359.74 L203.774 1359.74 L203.774 1355.89 L207.987 1355.89 Q211.436 1355.89 213.264 1354.53 Q215.093 1353.14 215.093 1350.55 Q215.093 1347.88 213.195 1346.47 Q211.32 1345.04 207.801 1345.04 Q205.88 1345.04 203.681 1345.45 Q201.482 1345.87 198.843 1346.75 L198.843 1342.58 Q201.505 1341.84 203.82 1341.47 Q206.158 1341.1 208.218 1341.1 Q213.542 1341.1 216.644 1343.53 Q219.746 1345.94 219.746 1350.06 Q219.746 1352.93 218.102 1354.92 Q216.459 1356.89 213.426 1357.65 Z" fill="#000000" fill-rule="nonzero" fill-opacity="1" /><path clip-path="url(#clip580)" d="M115.209 1164.27 L144.885 1164.27 L144.885 1168.21 L115.209 1168.21 L115.209 1164.27 Z" fill="#000000" fill-rule="nonzero" fill-opacity="1" /><path clip-path="url(#clip580)" d="M164.977 1149.62 Q161.366 1149.62 159.538 1153.19 Q157.732 1156.73 157.732 1163.86 Q157.732 1170.96 159.538 1174.53 Q161.366 1178.07 164.977 1178.07 Q168.612 1178.07 170.417 1174.53 Q172.246 1170.96 172.246 1163.86 Q172.246 1156.73 170.417 1153.19 Q168.612 1149.62 164.977 1149.62 M164.977 1145.92 Q170.788 1145.92 173.843 1150.52 Q176.922 1155.11 176.922 1163.86 Q176.922 1172.58 173.843 1177.19 Q170.788 1181.77 164.977 1181.77 Q159.167 1181.77 156.089 1177.19 Q153.033 1172.58 153.033 1163.86 Q153.033 1155.11 156.089 1150.52 Q159.167 1145.92 164.977 1145.92 Z" fill="#000000" fill-rule="nonzero" fill-opacity="1" /><path clip-path="url(#clip580)" d="M185.139 1175.22 L190.024 1175.22 L190.024 1181.1 L185.139 1181.1 L185.139 1175.22 Z" fill="#000000" fill-rule="nonzero" fill-opacity="1" /><path clip-path="url(#clip580)" d="M204.237 1177.17 L220.556 1177.17 L220.556 1181.1 L198.612 1181.1 L198.612 1177.17 Q201.274 1174.41 205.857 1169.78 Q210.463 1165.13 211.644 1163.79 Q213.889 1161.26 214.769 1159.53 Q215.672 1157.77 215.672 1156.08 Q215.672 1153.32 213.727 1151.59 Q211.806 1149.85 208.704 1149.85 Q206.505 1149.85 204.051 1150.62 Q201.621 1151.38 198.843 1152.93 L198.843 1148.21 Q201.667 1147.07 204.121 1146.5 Q206.574 1145.92 208.612 1145.92 Q213.982 1145.92 217.176 1148.6 Q220.371 1151.29 220.371 1155.78 Q220.371 1157.91 219.561 1159.83 Q218.773 1161.73 216.667 1164.32 Q216.088 1164.99 212.986 1168.21 Q209.885 1171.4 204.237 1177.17 Z" fill="#000000" fill-rule="nonzero" fill-opacity="1" /><path clip-path="url(#clip580)" d="M114.839 969.087 L144.515 969.087 L144.515 973.023 L114.839 973.023 L114.839 969.087 Z" fill="#000000" fill-rule="nonzero" fill-opacity="1" /><path clip-path="url(#clip580)" d="M164.607 954.435 Q160.996 954.435 159.167 958 Q157.362 961.541 157.362 968.671 Q157.362 975.777 159.167 979.342 Q160.996 982.884 164.607 982.884 Q168.241 982.884 170.047 979.342 Q171.876 975.777 171.876 968.671 Q171.876 961.541 170.047 958 Q168.241 954.435 164.607 954.435 M164.607 950.731 Q170.417 950.731 173.473 955.338 Q176.551 959.921 176.551 968.671 Q176.551 977.398 173.473 982.004 Q170.417 986.587 164.607 986.587 Q158.797 986.587 155.718 982.004 Q152.663 977.398 152.663 968.671 Q152.663 959.921 155.718 955.338 Q158.797 950.731 164.607 950.731 Z" fill="#000000" fill-rule="nonzero" fill-opacity="1" /><path clip-path="url(#clip580)" d="M184.769 980.036 L189.653 980.036 L189.653 985.916 L184.769 985.916 L184.769 980.036 Z" fill="#000000" fill-rule="nonzero" fill-opacity="1" /><path clip-path="url(#clip580)" d="M200.649 981.981 L208.287 981.981 L208.287 955.615 L199.977 957.282 L199.977 953.023 L208.241 951.356 L212.917 951.356 L212.917 981.981 L220.556 981.981 L220.556 985.916 L200.649 985.916 L200.649 981.981 Z" fill="#000000" fill-rule="nonzero" fill-opacity="1" /><path clip-path="url(#clip580)" d="M163.38 759.249 Q159.769 759.249 157.94 762.814 Q156.135 766.355 156.135 773.485 Q156.135 780.591 157.94 784.156 Q159.769 787.698 163.38 787.698 Q167.015 787.698 168.82 784.156 Q170.649 780.591 170.649 773.485 Q170.649 766.355 168.82 762.814 Q167.015 759.249 163.38 759.249 M163.38 755.545 Q169.19 755.545 172.246 760.152 Q175.325 764.735 175.325 773.485 Q175.325 782.212 172.246 786.818 Q169.19 791.402 163.38 791.402 Q157.57 791.402 154.491 786.818 Q151.436 782.212 151.436 773.485 Q151.436 764.735 154.491 760.152 Q157.57 755.545 163.38 755.545 Z" fill="#000000" fill-rule="nonzero" fill-opacity="1" /><path clip-path="url(#clip580)" d="M183.542 784.851 L188.426 784.851 L188.426 790.73 L183.542 790.73 L183.542 784.851 Z" fill="#000000" fill-rule="nonzero" fill-opacity="1" /><path clip-path="url(#clip580)" d="M208.612 759.249 Q205 759.249 203.172 762.814 Q201.366 766.355 201.366 773.485 Q201.366 780.591 203.172 784.156 Q205 787.698 208.612 787.698 Q212.246 787.698 214.051 784.156 Q215.88 780.591 215.88 773.485 Q215.88 766.355 214.051 762.814 Q212.246 759.249 208.612 759.249 M208.612 755.545 Q214.422 755.545 217.477 760.152 Q220.556 764.735 220.556 773.485 Q220.556 782.212 217.477 786.818 Q214.422 791.402 208.612 791.402 Q202.801 791.402 199.723 786.818 Q196.667 782.212 196.667 773.485 Q196.667 764.735 199.723 760.152 Q202.801 755.545 208.612 755.545 Z" fill="#000000" fill-rule="nonzero" fill-opacity="1" /><path clip-path="url(#clip580)" d="M164.607 564.063 Q160.996 564.063 159.167 567.628 Q157.362 571.17 157.362 578.299 Q157.362 585.406 159.167 588.971 Q160.996 592.512 164.607 592.512 Q168.241 592.512 170.047 588.971 Q171.876 585.406 171.876 578.299 Q171.876 571.17 170.047 567.628 Q168.241 564.063 164.607 564.063 M164.607 560.36 Q170.417 560.36 173.473 564.966 Q176.551 569.549 176.551 578.299 Q176.551 587.026 173.473 591.633 Q170.417 596.216 164.607 596.216 Q158.797 596.216 155.718 591.633 Q152.663 587.026 152.663 578.299 Q152.663 569.549 155.718 564.966 Q158.797 560.36 164.607 560.36 Z" fill="#000000" fill-rule="nonzero" fill-opacity="1" /><path clip-path="url(#clip580)" d="M184.769 589.665 L189.653 589.665 L189.653 595.545 L184.769 595.545 L184.769 589.665 Z" fill="#000000" fill-rule="nonzero" fill-opacity="1" /><path clip-path="url(#clip580)" d="M200.649 591.609 L208.287 591.609 L208.287 565.244 L199.977 566.911 L199.977 562.651 L208.241 560.985 L212.917 560.985 L212.917 591.609 L220.556 591.609 L220.556 595.545 L200.649 595.545 L200.649 591.609 Z" fill="#000000" fill-rule="nonzero" fill-opacity="1" /><path clip-path="url(#clip580)" d="M164.977 368.878 Q161.366 368.878 159.538 372.442 Q157.732 375.984 157.732 383.114 Q157.732 390.22 159.538 393.785 Q161.366 397.327 164.977 397.327 Q168.612 397.327 170.417 393.785 Q172.246 390.22 172.246 383.114 Q172.246 375.984 170.417 372.442 Q168.612 368.878 164.977 368.878 M164.977 365.174 Q170.788 365.174 173.843 369.78 Q176.922 374.364 176.922 383.114 Q176.922 391.84 173.843 396.447 Q170.788 401.03 164.977 401.03 Q159.167 401.03 156.089 396.447 Q153.033 391.84 153.033 383.114 Q153.033 374.364 156.089 369.78 Q159.167 365.174 164.977 365.174 Z" fill="#000000" fill-rule="nonzero" fill-opacity="1" /><path clip-path="url(#clip580)" d="M185.139 394.479 L190.024 394.479 L190.024 400.359 L185.139 400.359 L185.139 394.479 Z" fill="#000000" fill-rule="nonzero" fill-opacity="1" /><path clip-path="url(#clip580)" d="M204.237 396.424 L220.556 396.424 L220.556 400.359 L198.612 400.359 L198.612 396.424 Q201.274 393.669 205.857 389.04 Q210.463 384.387 211.644 383.044 Q213.889 380.521 214.769 378.785 Q215.672 377.026 215.672 375.336 Q215.672 372.581 213.727 370.845 Q211.806 369.109 208.704 369.109 Q206.505 369.109 204.051 369.873 Q201.621 370.637 198.843 372.188 L198.843 367.466 Q201.667 366.331 204.121 365.753 Q206.574 365.174 208.612 365.174 Q213.982 365.174 217.176 367.859 Q220.371 370.544 220.371 375.035 Q220.371 377.165 219.561 379.086 Q218.773 380.984 216.667 383.577 Q216.088 384.248 212.986 387.465 Q209.885 390.66 204.237 396.424 Z" fill="#000000" fill-rule="nonzero" fill-opacity="1" /><path clip-path="url(#clip580)" d="M164.028 173.692 Q160.417 173.692 158.589 177.257 Q156.783 180.798 156.783 187.928 Q156.783 195.034 158.589 198.599 Q160.417 202.141 164.028 202.141 Q167.663 202.141 169.468 198.599 Q171.297 195.034 171.297 187.928 Q171.297 180.798 169.468 177.257 Q167.663 173.692 164.028 173.692 M164.028 169.988 Q169.839 169.988 172.894 174.595 Q175.973 179.178 175.973 187.928 Q175.973 196.655 172.894 201.261 Q169.839 205.844 164.028 205.844 Q158.218 205.844 155.14 201.261 Q152.084 196.655 152.084 187.928 Q152.084 179.178 155.14 174.595 Q158.218 169.988 164.028 169.988 Z" fill="#000000" fill-rule="nonzero" fill-opacity="1" /><path clip-path="url(#clip580)" d="M184.19 199.294 L189.075 199.294 L189.075 205.173 L184.19 205.173 L184.19 199.294 Z" fill="#000000" fill-rule="nonzero" fill-opacity="1" /><path clip-path="url(#clip580)" d="M213.426 186.539 Q216.783 187.257 218.658 189.525 Q220.556 191.794 220.556 195.127 Q220.556 200.243 217.037 203.044 Q213.519 205.844 207.037 205.844 Q204.862 205.844 202.547 205.405 Q200.255 204.988 197.801 204.132 L197.801 199.618 Q199.746 200.752 202.061 201.331 Q204.375 201.909 206.899 201.909 Q211.297 201.909 213.588 200.173 Q215.903 198.437 215.903 195.127 Q215.903 192.071 213.75 190.358 Q211.621 188.622 207.801 188.622 L203.774 188.622 L203.774 184.78 L207.987 184.78 Q211.436 184.78 213.264 183.414 Q215.093 182.025 215.093 179.433 Q215.093 176.771 213.195 175.359 Q211.32 173.923 207.801 173.923 Q205.88 173.923 203.681 174.34 Q201.482 174.757 198.843 175.636 L198.843 171.47 Q201.505 170.729 203.82 170.359 Q206.158 169.988 208.218 169.988 Q213.542 169.988 216.644 172.419 Q219.746 174.826 219.746 178.946 Q219.746 181.817 218.102 183.808 Q216.459 185.775 213.426 186.539 Z" fill="#000000" fill-rule="nonzero" fill-opacity="1" /><path clip-path="url(#clip580)" d="M16.4842 838.59 L16.4842 829.933 L56.238 808.863 L16.4842 808.863 L16.4842 802.624 L64.0042 802.624 L64.0042 811.282 L24.2503 832.352 L64.0042 832.352 L64.0042 838.59 L16.4842 838.59 Z" fill="#000000" fill-rule="nonzero" fill-opacity="1" /><path clip-path="url(#clip580)" d="M28.3562 790.084 L28.3562 784.227 L64.0042 784.227 L64.0042 790.084 L28.3562 790.084 M14.479 790.084 L14.479 784.227 L21.895 784.227 L21.895 790.084 L14.479 790.084 Z" fill="#000000" fill-rule="nonzero" fill-opacity="1" /><path clip-path="url(#clip580)" d="M14.479 771.973 L14.479 766.117 L64.0042 766.117 L64.0042 771.973 L14.479 771.973 Z" fill="#000000" fill-rule="nonzero" fill-opacity="1" /><path clip-path="url(#clip580)" d="M46.0847 737.662 Q46.0847 744.76 47.7079 747.497 Q49.3312 750.234 53.2461 750.234 Q56.3653 750.234 58.2114 748.197 Q60.0256 746.129 60.0256 742.596 Q60.0256 737.726 56.5881 734.798 Q53.1188 731.837 47.3897 731.837 L46.0847 731.837 L46.0847 737.662 M43.6657 725.981 L64.0042 725.981 L64.0042 731.837 L58.5933 731.837 Q61.8398 733.843 63.3994 736.835 Q64.9272 739.826 64.9272 744.155 Q64.9272 749.63 61.8716 752.876 Q58.7843 756.091 53.6281 756.091 Q47.6125 756.091 44.5569 752.08 Q41.5014 748.038 41.5014 740.049 L41.5014 731.837 L40.9285 731.837 Q36.8862 731.837 34.6901 734.511 Q32.4621 737.153 32.4621 741.959 Q32.4621 745.015 33.1941 747.911 Q33.9262 750.807 35.3903 753.481 L29.9795 753.481 Q28.7381 750.266 28.1334 747.243 Q27.4968 744.219 27.4968 741.354 Q27.4968 733.62 31.5072 729.8 Q35.5176 725.981 43.6657 725.981 Z" fill="#000000" fill-rule="nonzero" fill-opacity="1" /><path clip-path="url(#clip580)" d="M28.3562 713.918 L28.3562 708.062 L64.0042 708.062 L64.0042 713.918 L28.3562 713.918 M14.479 713.918 L14.479 708.062 L21.895 708.062 L21.895 713.918 L14.479 713.918 Z" fill="#000000" fill-rule="nonzero" fill-opacity="1" /><path clip-path="url(#clip580)" d="M719.766 12.096 L731.959 12.096 L747.393 53.2532 L762.908 12.096 L775.101 12.096 L775.101 72.576 L767.121 72.576 L767.121 19.4686 L751.525 60.9499 L743.302 60.9499 L727.706 19.4686 L727.706 72.576 L719.766 72.576 L719.766 12.096 Z" fill="#000000" fill-rule="nonzero" fill-opacity="1" /><path clip-path="url(#clip580)" d="M829.829 48.0275 L829.829 51.6733 L795.559 51.6733 Q796.045 59.3701 800.177 63.421 Q804.349 67.4314 811.762 67.4314 Q816.056 67.4314 820.066 66.3781 Q824.117 65.3249 828.087 63.2184 L828.087 70.267 Q824.077 71.9684 819.864 72.8596 Q815.651 73.7508 811.317 73.7508 Q800.46 73.7508 794.1 67.4314 Q787.781 61.1119 787.781 50.3365 Q787.781 39.1965 793.776 32.6746 Q799.812 26.1121 810.02 26.1121 Q819.175 26.1121 824.482 32.0264 Q829.829 37.9003 829.829 48.0275 M822.375 45.84 Q822.294 39.7232 818.932 36.0774 Q815.61 32.4315 810.101 32.4315 Q803.863 32.4315 800.096 35.9558 Q796.369 39.4801 795.802 45.8805 L822.375 45.84 Z" fill="#000000" fill-rule="nonzero" fill-opacity="1" /><path clip-path="url(#clip580)" d="M849.436 14.324 L849.436 27.2059 L864.788 27.2059 L864.788 32.9987 L849.436 32.9987 L849.436 57.6282 Q849.436 63.1779 850.934 64.7578 Q852.474 66.3376 857.132 66.3376 L864.788 66.3376 L864.788 72.576 L857.132 72.576 Q848.504 72.576 845.223 69.3758 Q841.941 66.1351 841.941 57.6282 L841.941 32.9987 L836.473 32.9987 L836.473 27.2059 L841.941 27.2059 L841.941 14.324 L849.436 14.324 Z" fill="#000000" fill-rule="nonzero" fill-opacity="1" /><path clip-path="url(#clip580)" d="M892.173 32.4315 Q886.177 32.4315 882.693 37.1306 Q879.21 41.7891 879.21 49.9314 Q879.21 58.0738 882.653 62.7728 Q886.137 67.4314 892.173 67.4314 Q898.127 67.4314 901.611 62.7323 Q905.095 58.0333 905.095 49.9314 Q905.095 41.8701 901.611 37.1711 Q898.127 32.4315 892.173 32.4315 M892.173 26.1121 Q901.895 26.1121 907.444 32.4315 Q912.994 38.7509 912.994 49.9314 Q912.994 61.0714 907.444 67.4314 Q901.895 73.7508 892.173 73.7508 Q882.41 73.7508 876.86 67.4314 Q871.351 61.0714 871.351 49.9314 Q871.351 38.7509 876.86 32.4315 Q882.41 26.1121 892.173 26.1121 Z" fill="#000000" fill-rule="nonzero" fill-opacity="1" /><path clip-path="url(#clip580)" d="M955.205 34.0924 L955.205 9.54393 L962.658 9.54393 L962.658 72.576 L955.205 72.576 L955.205 65.7705 Q952.855 69.8214 949.25 71.8063 Q945.685 73.7508 940.662 73.7508 Q932.439 73.7508 927.253 67.1883 Q922.109 60.6258 922.109 49.9314 Q922.109 39.2371 927.253 32.6746 Q932.439 26.1121 940.662 26.1121 Q945.685 26.1121 949.25 28.0971 Q952.855 30.0415 955.205 34.0924 M929.805 49.9314 Q929.805 58.1548 933.168 62.8538 Q936.57 67.5124 942.485 67.5124 Q948.399 67.5124 951.802 62.8538 Q955.205 58.1548 955.205 49.9314 Q955.205 41.7081 951.802 37.0496 Q948.399 32.3505 942.485 32.3505 Q936.57 32.3505 933.168 37.0496 Q929.805 41.7081 929.805 49.9314 Z" fill="#000000" fill-rule="nonzero" fill-opacity="1" /><path clip-path="url(#clip580)" d="M1016.82 48.0275 L1016.82 51.6733 L982.548 51.6733 Q983.034 59.3701 987.166 63.421 Q991.339 67.4314 998.752 67.4314 Q1003.05 67.4314 1007.06 66.3781 Q1011.11 65.3249 1015.08 63.2184 L1015.08 70.267 Q1011.07 71.9684 1006.85 72.8596 Q1002.64 73.7508 998.306 73.7508 Q987.45 73.7508 981.09 67.4314 Q974.771 61.1119 974.771 50.3365 Q974.771 39.1965 980.766 32.6746 Q986.802 26.1121 997.01 26.1121 Q1006.17 26.1121 1011.47 32.0264 Q1016.82 37.9003 1016.82 48.0275 M1009.37 45.84 Q1009.28 39.7232 1005.92 36.0774 Q1002.6 32.4315 997.091 32.4315 Q990.853 32.4315 987.085 35.9558 Q983.358 39.4801 982.791 45.8805 L1009.37 45.84 Z" fill="#000000" fill-rule="nonzero" fill-opacity="1" /><path clip-path="url(#clip580)" d="M1084.43 44.2197 Q1087.06 45.1109 1089.53 48.0275 Q1092.04 50.9442 1094.56 56.0483 L1102.86 72.576 L1094.07 72.576 L1086.33 57.061 Q1083.33 50.9847 1080.5 48.9997 Q1077.7 47.0148 1072.84 47.0148 L1063.93 47.0148 L1063.93 72.576 L1055.75 72.576 L1055.75 12.096 L1074.22 12.096 Q1084.59 12.096 1089.69 16.4305 Q1094.8 20.7649 1094.8 29.5149 Q1094.8 35.2267 1092.13 38.994 Q1089.49 42.7613 1084.43 44.2197 M1063.93 18.8205 L1063.93 40.2903 L1074.22 40.2903 Q1080.13 40.2903 1083.13 37.5762 Q1086.17 34.8216 1086.17 29.5149 Q1086.17 24.2082 1083.13 21.5346 Q1080.13 18.8205 1074.22 18.8205 L1063.93 18.8205 Z" fill="#000000" fill-rule="nonzero" fill-opacity="1" /><path clip-path="url(#clip580)" d="M1108.57 54.671 L1108.57 27.2059 L1116.03 27.2059 L1116.03 54.3874 Q1116.03 60.8284 1118.54 64.0691 Q1121.05 67.2693 1126.07 67.2693 Q1132.11 67.2693 1135.59 63.421 Q1139.12 59.5726 1139.12 52.9291 L1139.12 27.2059 L1146.57 27.2059 L1146.57 72.576 L1139.12 72.576 L1139.12 65.6084 Q1136.4 69.7404 1132.8 71.7658 Q1129.23 73.7508 1124.49 73.7508 Q1116.67 73.7508 1112.62 68.8897 Q1108.57 64.0286 1108.57 54.671 M1127.33 26.1121 L1127.33 26.1121 Z" fill="#000000" fill-rule="nonzero" fill-opacity="1" /><path clip-path="url(#clip580)" d="M1199.64 45.1919 L1199.64 72.576 L1192.18 72.576 L1192.18 45.4349 Q1192.18 38.994 1189.67 35.7938 Q1187.16 32.5936 1182.14 32.5936 Q1176.1 32.5936 1172.62 36.4419 Q1169.13 40.2903 1169.13 46.9338 L1169.13 72.576 L1161.64 72.576 L1161.64 27.2059 L1169.13 27.2059 L1169.13 34.2544 Q1171.81 30.163 1175.41 28.1376 Q1179.06 26.1121 1183.8 26.1121 Q1191.62 26.1121 1195.63 30.9732 Q1199.64 35.7938 1199.64 45.1919 Z" fill="#000000" fill-rule="nonzero" fill-opacity="1" /><path clip-path="url(#clip580)" d="M1244.36 49.3643 Q1244.36 41.2625 1241 36.8065 Q1237.67 32.3505 1231.64 32.3505 Q1225.64 32.3505 1222.28 36.8065 Q1218.96 41.2625 1218.96 49.3643 Q1218.96 57.4256 1222.28 61.8816 Q1225.64 66.3376 1231.64 66.3376 Q1237.67 66.3376 1241 61.8816 Q1244.36 57.4256 1244.36 49.3643 M1251.81 66.9452 Q1251.81 78.5308 1246.67 84.1616 Q1241.52 89.8329 1230.91 89.8329 Q1226.98 89.8329 1223.5 89.2252 Q1220.01 88.6581 1216.73 87.4428 L1216.73 80.1917 Q1220.01 81.9741 1223.21 82.8248 Q1226.41 83.6755 1229.73 83.6755 Q1237.07 83.6755 1240.71 79.8271 Q1244.36 76.0193 1244.36 68.282 L1244.36 64.5957 Q1242.05 68.6061 1238.44 70.5911 Q1234.84 72.576 1229.82 72.576 Q1221.47 72.576 1216.37 66.2161 Q1211.26 59.8562 1211.26 49.3643 Q1211.26 38.832 1216.37 32.472 Q1221.47 26.1121 1229.82 26.1121 Q1234.84 26.1121 1238.44 28.0971 Q1242.05 30.082 1244.36 34.0924 L1244.36 27.2059 L1251.81 27.2059 L1251.81 66.9452 Z" fill="#000000" fill-rule="nonzero" fill-opacity="1" /><path clip-path="url(#clip580)" d="M1305.97 48.0275 L1305.97 51.6733 L1271.7 51.6733 Q1272.19 59.3701 1276.32 63.421 Q1280.49 67.4314 1287.91 67.4314 Q1292.2 67.4314 1296.21 66.3781 Q1300.26 65.3249 1304.23 63.2184 L1304.23 70.267 Q1300.22 71.9684 1296.01 72.8596 Q1291.79 73.7508 1287.46 73.7508 Q1276.6 73.7508 1270.24 67.4314 Q1263.92 61.1119 1263.92 50.3365 Q1263.92 39.1965 1269.92 32.6746 Q1275.96 26.1121 1286.16 26.1121 Q1295.32 26.1121 1300.63 32.0264 Q1305.97 37.9003 1305.97 48.0275 M1298.52 45.84 Q1298.44 39.7232 1295.08 36.0774 Q1291.75 32.4315 1286.24 32.4315 Q1280.01 32.4315 1276.24 35.9558 Q1272.51 39.4801 1271.94 45.8805 L1298.52 45.84 Z" fill="#000000" fill-rule="nonzero" fill-opacity="1" /><path clip-path="url(#clip580)" d="M1314.44 46.5287 L1336.27 46.5287 L1336.27 53.1722 L1314.44 53.1722 L1314.44 46.5287 Z" fill="#000000" fill-rule="nonzero" fill-opacity="1" /><path clip-path="url(#clip580)" d="M1348.47 12.096 L1356.65 12.096 L1356.65 37.6572 L1383.79 12.096 L1394.32 12.096 L1364.31 40.2903 L1396.47 72.576 L1385.69 72.576 L1356.65 43.45 L1356.65 72.576 L1348.47 72.576 L1348.47 12.096 Z" fill="#000000" fill-rule="nonzero" fill-opacity="1" /><path clip-path="url(#clip580)" d="M1397.64 54.671 L1397.64 27.2059 L1405.1 27.2059 L1405.1 54.3874 Q1405.1 60.8284 1407.61 64.0691 Q1410.12 67.2693 1415.14 67.2693 Q1421.18 67.2693 1424.66 63.421 Q1428.19 59.5726 1428.19 52.9291 L1428.19 27.2059 L1435.64 27.2059 L1435.64 72.576 L1428.19 72.576 L1428.19 65.6084 Q1425.47 69.7404 1421.87 71.7658 Q1418.3 73.7508 1413.56 73.7508 Q1405.75 73.7508 1401.7 68.8897 Q1397.64 64.0286 1397.64 54.671 M1416.4 26.1121 L1416.4 26.1121 Z" fill="#000000" fill-rule="nonzero" fill-opacity="1" /><path clip-path="url(#clip580)" d="M1458.37 14.324 L1458.37 27.2059 L1473.72 27.2059 L1473.72 32.9987 L1458.37 32.9987 L1458.37 57.6282 Q1458.37 63.1779 1459.87 64.7578 Q1461.41 66.3376 1466.06 66.3376 L1473.72 66.3376 L1473.72 72.576 L1466.06 72.576 Q1457.44 72.576 1454.15 69.3758 Q1450.87 66.1351 1450.87 57.6282 L1450.87 32.9987 L1445.4 32.9987 L1445.4 27.2059 L1450.87 27.2059 L1450.87 14.324 L1458.37 14.324 Z" fill="#000000" fill-rule="nonzero" fill-opacity="1" /><path clip-path="url(#clip580)" d="M1490.9 14.324 L1490.9 27.2059 L1506.25 27.2059 L1506.25 32.9987 L1490.9 32.9987 L1490.9 57.6282 Q1490.9 63.1779 1492.4 64.7578 Q1493.93 66.3376 1498.59 66.3376 L1506.25 66.3376 L1506.25 72.576 L1498.59 72.576 Q1489.96 72.576 1486.68 69.3758 Q1483.4 66.1351 1483.4 57.6282 L1483.4 32.9987 L1477.93 32.9987 L1477.93 27.2059 L1483.4 27.2059 L1483.4 14.324 L1490.9 14.324 Z" fill="#000000" fill-rule="nonzero" fill-opacity="1" /><path clip-path="url(#clip580)" d="M1536.67 49.7694 Q1527.64 49.7694 1524.15 51.8354 Q1520.67 53.9013 1520.67 58.8839 Q1520.67 62.8538 1523.26 65.2034 Q1525.9 67.5124 1530.39 67.5124 Q1536.59 67.5124 1540.32 63.1374 Q1544.08 58.7219 1544.08 51.4303 L1544.08 49.7694 L1536.67 49.7694 M1551.54 46.6907 L1551.54 72.576 L1544.08 72.576 L1544.08 65.6895 Q1541.53 69.8214 1537.72 71.8063 Q1533.92 73.7508 1528.41 73.7508 Q1521.44 73.7508 1517.31 69.8619 Q1513.22 65.9325 1513.22 59.3701 Q1513.22 51.7138 1518.32 47.825 Q1523.47 43.9361 1533.63 43.9361 L1544.08 43.9361 L1544.08 43.2069 Q1544.08 38.0623 1540.68 35.2672 Q1537.32 32.4315 1531.2 32.4315 Q1527.31 32.4315 1523.63 33.3632 Q1519.94 34.295 1516.54 36.1584 L1516.54 29.2718 Q1520.63 27.692 1524.48 26.9223 Q1528.33 26.1121 1531.97 26.1121 Q1541.82 26.1121 1546.68 31.2163 Q1551.54 36.3204 1551.54 46.6907 Z" fill="#000000" fill-rule="nonzero" fill-opacity="1" /><path clip-path="url(#clip580)" d="M1568.8 62.2867 L1577.34 62.2867 L1577.34 72.576 L1568.8 72.576 L1568.8 62.2867 M1568.8 29.6769 L1577.34 29.6769 L1577.34 39.9662 L1568.8 39.9662 L1568.8 29.6769 Z" fill="#000000" fill-rule="nonzero" fill-opacity="1" /><path clip-path="url(#clip580)" d="M1646.09 17.6457 Q1637.17 17.6457 1631.91 24.2892 Q1626.68 30.9327 1626.68 42.3968 Q1626.68 53.8203 1631.91 60.4638 Q1637.17 67.1073 1646.09 67.1073 Q1655 67.1073 1660.18 60.4638 Q1665.41 53.8203 1665.41 42.3968 Q1665.41 30.9327 1660.18 24.2892 Q1655 17.6457 1646.09 17.6457 M1646.09 11.0023 Q1658.81 11.0023 1666.42 19.5497 Q1674.04 28.0566 1674.04 42.3968 Q1674.04 56.6965 1666.42 65.2439 Q1658.81 73.7508 1646.09 73.7508 Q1633.33 73.7508 1625.67 65.2439 Q1618.05 56.737 1618.05 42.3968 Q1618.05 28.0566 1625.67 19.5497 Q1633.33 11.0023 1646.09 11.0023 Z" fill="#000000" fill-rule="nonzero" fill-opacity="1" /><path clip-path="url(#clip580)" d="M1712.8 34.1734 Q1711.55 33.4443 1710.05 33.1202 Q1708.59 32.7556 1706.81 32.7556 Q1700.49 32.7556 1697.09 36.8875 Q1693.72 40.9789 1693.72 48.6757 L1693.72 72.576 L1686.23 72.576 L1686.23 27.2059 L1693.72 27.2059 L1693.72 34.2544 Q1696.07 30.1225 1699.84 28.1376 Q1703.61 26.1121 1709 26.1121 Q1709.77 26.1121 1710.7 26.2337 Q1711.63 26.3147 1712.76 26.5172 L1712.8 34.1734 Z" fill="#000000" fill-rule="nonzero" fill-opacity="1" /><path clip-path="url(#clip580)" d="M1749.02 34.0924 L1749.02 9.54393 L1756.47 9.54393 L1756.47 72.576 L1749.02 72.576 L1749.02 65.7705 Q1746.67 69.8214 1743.07 71.8063 Q1739.5 73.7508 1734.48 73.7508 Q1726.25 73.7508 1721.07 67.1883 Q1715.92 60.6258 1715.92 49.9314 Q1715.92 39.2371 1721.07 32.6746 Q1726.25 26.1121 1734.48 26.1121 Q1739.5 26.1121 1743.07 28.0971 Q1746.67 30.0415 1749.02 34.0924 M1723.62 49.9314 Q1723.62 58.1548 1726.98 62.8538 Q1730.39 67.5124 1736.3 67.5124 Q1742.21 67.5124 1745.62 62.8538 Q1749.02 58.1548 1749.02 49.9314 Q1749.02 41.7081 1745.62 37.0496 Q1742.21 32.3505 1736.3 32.3505 Q1730.39 32.3505 1726.98 37.0496 Q1723.62 41.7081 1723.62 49.9314 Z" fill="#000000" fill-rule="nonzero" fill-opacity="1" /><path clip-path="url(#clip580)" d="M1810.63 48.0275 L1810.63 51.6733 L1776.36 51.6733 Q1776.85 59.3701 1780.98 63.421 Q1785.15 67.4314 1792.57 67.4314 Q1796.86 67.4314 1800.87 66.3781 Q1804.92 65.3249 1808.89 63.2184 L1808.89 70.267 Q1804.88 71.9684 1800.67 72.8596 Q1796.46 73.7508 1792.12 73.7508 Q1781.27 73.7508 1774.91 67.4314 Q1768.59 61.1119 1768.59 50.3365 Q1768.59 39.1965 1774.58 32.6746 Q1780.62 26.1121 1790.83 26.1121 Q1799.98 26.1121 1805.29 32.0264 Q1810.63 37.9003 1810.63 48.0275 M1803.18 45.84 Q1803.1 39.7232 1799.74 36.0774 Q1796.42 32.4315 1790.91 32.4315 Q1784.67 32.4315 1780.9 35.9558 Q1777.17 39.4801 1776.61 45.8805 L1803.18 45.84 Z" fill="#000000" fill-rule="nonzero" fill-opacity="1" /><path clip-path="url(#clip580)" d="M1872.77 19.2256 L1852.12 51.5113 L1872.77 51.5113 L1872.77 19.2256 M1870.63 12.096 L1880.92 12.096 L1880.92 51.5113 L1889.55 51.5113 L1889.55 58.3168 L1880.92 58.3168 L1880.92 72.576 L1872.77 72.576 L1872.77 58.3168 L1845.47 58.3168 L1845.47 50.4176 L1870.63 12.096 Z" fill="#000000" fill-rule="nonzero" fill-opacity="1" /><polyline clip-path="url(#clip581)" style="stroke:#009af9; stroke-linecap:round; stroke-linejoin:round; stroke-width:8; stroke-opacity:1; fill:none" points="315.882,160.256 335.858,187.748 355.833,267.822 375.808,393.453 395.783,553.477 415.758,733.487 435.734,917.134 455.709,1087.71 475.684,1229.78 495.659,1330.66 515.635,1381.45 535.61,1377.71 555.585,1319.77 575.56,1212.69 595.535,1065.93 615.511,892.646 635.486,708.514 655.461,530.294 675.436,374.161 695.412,254.148 715.387,180.899 735.362,160.831 755.337,195.69 775.312,282.439 795.288,413.454 815.263,577.071 835.238,758.537 855.213,941.36 875.189,1108.91 895.164,1246.06 915.139,1340.56 935.114,1384.11 955.089,1372.9 975.065,1307.91 995.04,1194.82 1015.02,1043.65 1034.99,867.948 1054.97,683.651 1074.94,507.528 1094.92,355.549 1114.89,241.349 1134.87,175.04 1154.84,162.422 1174.82,204.592 1194.79,297.875 1214.77,434.057 1234.74,600.994 1254.72,783.612 1274.69,965.303 1294.67,1129.55 1314.64,1261.54 1334.62,1349.52 1354.59,1385.76 1374.57,1367.1 1394.54,1295.16 1414.52,1176.25 1434.49,1020.91 1454.47,843.091 1474.45,658.939 1494.42,485.21 1514.4,337.636 1534.37,229.437 1554.35,170.174 1574.32,165.026 1594.3,214.441 1614.27,314.105 1634.25,455.231 1654.22,625.209 1674.2,808.669 1694.17,988.922 1714.15,1149.59 1734.12,1276.21 1754.1,1357.52 1774.07,1386.4 1794.05,1360.31 1814.02,1281.54 1834,1157 1853.97,997.748 1873.95,818.117 1893.93,634.421 1913.9,463.376 1933.88,320.453 1953.85,218.431 1973.83,166.31 1993.8,168.641 2013.78,225.22 2033.75,331.103 2053.73,476.938 2073.7,649.672 2093.68,833.667 2113.65,1012.18 2133.63,1169 2153.6,1290.04 2173.58,1364.55 2193.55,1386.01 2213.53,1352.55 2233.5,1267.08 2253.48,1137.11 2273.45,974.212 2293.43,793.067 "/>
<polyline clip-path="url(#clip581)" style="stroke:#e26f46; stroke-linecap:round; stroke-linejoin:round; stroke-width:8; stroke-opacity:1; fill:none" points="315.882,773.45 335.858,953.56 355.833,1117.95 375.808,1251.96 395.783,1343.16 415.758,1382.8 435.734,1366.97 455.709,1297.24 475.684,1180.39 495.659,1027.43 515.635,852.231 535.61,670.179 555.585,497.113 575.56,348.294 595.535,237.275 615.511,174.564 635.486,166.287 655.461,213.262 675.436,310.872 695.412,449.778 715.387,617.184 735.362,798.207 755.337,977.078 775.312,1138.16 795.288,1267.01 815.263,1351.63 835.238,1383.86 855.213,1360.52 875.189,1283.9 895.164,1161.45 915.139,1004.64 935.114,827.603 955.089,645.862 975.065,475.232 995.04,330.81 1015.02,225.818 1034.99,170.242 1054.97,169.529 1074.94,223.747 1094.92,327.581 1114.89,471.144 1134.87,641.28 1154.84,822.924 1174.82,1000.27 1194.79,1157.77 1214.77,1281.24 1234.74,1359.14 1254.72,1383.89 1274.69,1353.07 1294.67,1269.72 1314.64,1141.88 1334.62,981.469 1354.59,802.888 1374.57,621.751 1394.54,453.835 1414.52,314.055 1434.49,215.275 1454.47,166.937 1474.45,173.788 1494.42,235.15 1514.4,345.025 1534.37,493.001 1554.35,665.589 1574.32,847.562 1594.3,1023.09 1614.27,1176.75 1634.25,1294.63 1654.22,1365.65 1674.2,1382.9 1694.17,1344.66 1714.15,1254.71 1734.12,1121.7 1754.1,957.964 1774.07,778.127 1794.05,597.884 1814.02,432.958 1834,298.059 1853.97,205.667 1873.95,164.654 1893.93,179.058 1913.9,247.451 1933.88,363.173 1953.85,515.313 1973.83,690.072 1993.8,872.08 2013.78,1045.51 2033.75,1195.07 2053.73,1307.16 2073.7,1371.17 2093.68,1380.87 2113.65,1335.29 2133.63,1238.91 2153.6,1100.96 2173.58,934.162 2193.55,753.357 2213.53,574.301 2233.5,412.637 2253.48,282.85 2273.45,197.012 2293.43,163.399 "/>
<polyline clip-path="url(#clip581)" style="stroke:#3da44d; stroke-linecap:round; stroke-linejoin:round; stroke-width:8; stroke-opacity:1; fill:none" points="315.882,677.92 335.858,677.921 355.833,677.922 375.808,677.923 395.783,677.923 415.758,677.924 435.734,677.925 455.709,677.927 475.684,677.928 495.659,677.929 515.635,677.929 535.61,677.93 555.585,677.931 575.56,677.932 595.535,677.933 615.511,677.934 635.486,677.935 655.461,677.936 675.436,677.938 695.412,677.938 715.387,677.939 735.362,677.94 755.337,677.941 775.312,677.942 795.288,677.943 815.263,677.944 835.238,677.945 855.213,677.946 875.189,677.947 895.164,677.948 915.139,677.949 935.114,677.95 955.089,677.951 975.065,677.952 995.04,677.953 1015.02,677.954 1034.99,677.955 1054.97,677.956 1074.94,677.957 1094.92,677.958 1114.89,677.959 1134.87,677.96 1154.84,677.961 1174.82,677.962 1194.79,677.963 1214.77,677.964 1234.74,677.964 1254.72,677.965 1274.69,677.967 1294.67,677.968 1314.64,677.969 1334.62,677.97 1354.59,677.97 1374.57,677.971 1394.54,677.972 1414.52,677.973 1434.49,677.974 1454.47,677.975 1474.45,677.976 1494.42,677.977 1514.4,677.979 1534.37,677.979 1554.35,677.98 1574.32,677.981 1594.3,677.982 1614.27,677.983 1634.25,677.984 1654.22,677.985 1674.2,677.986 1694.17,677.987 1714.15,677.988 1734.12,677.989 1754.1,677.99 1774.07,677.991 1794.05,677.992 1814.02,677.993 1834,677.994 1853.97,677.995 1873.95,677.996 1893.93,677.997 1913.9,677.998 1933.88,677.999 1953.85,678 1973.83,678.001 1993.8,678.002 2013.78,678.003 2033.75,678.004 2053.73,678.005 2073.7,678.005 2093.68,678.006 2113.65,678.008 2133.63,678.009 2153.6,678.01 2173.58,678.011 2193.55,678.011 2213.53,678.012 2233.5,678.013 2253.48,678.014 2273.45,678.015 2293.43,678.016 "/>
<path clip-path="url(#clip580)" d="M1869.4 374.156 L2282.88 374.156 L2282.88 166.796 L1869.4 166.796  Z" fill="#ffffff" fill-rule="evenodd" fill-opacity="1"/>
<polyline clip-path="url(#clip580)" style="stroke:#000000; stroke-linecap:round; stroke-linejoin:round; stroke-width:4; stroke-opacity:1; fill:none" points="1869.4,374.156 2282.88,374.156 2282.88,166.796 1869.4,166.796 1869.4,374.156 "/>
<polyline clip-path="url(#clip580)" style="stroke:#009af9; stroke-linecap:round; stroke-linejoin:round; stroke-width:8; stroke-opacity:1; fill:none" points="1892.69,218.636 2032.44,218.636 "/>
<path clip-path="url(#clip580)" d="M2074.99 219.481 L2060.24 219.481 Q2060.59 226.402 2062.19 229.342 Q2064.18 232.953 2067.62 232.953 Q2071.1 232.953 2073.02 229.319 Q2074.71 226.124 2074.99 219.481 M2074.92 215.545 Q2074.27 208.971 2073.02 206.657 Q2071.03 202.999 2067.62 202.999 Q2064.08 202.999 2062.21 206.61 Q2060.73 209.527 2060.29 215.545 L2074.92 215.545 M2067.62 199.527 Q2073.18 199.527 2076.35 204.434 Q2079.52 209.319 2079.52 217.976 Q2079.52 226.61 2076.35 231.518 Q2073.18 236.448 2067.62 236.448 Q2062.05 236.448 2058.9 231.518 Q2055.73 226.61 2055.73 217.976 Q2055.73 209.319 2058.9 204.434 Q2062.05 199.527 2067.62 199.527 Z" fill="#000000" fill-rule="nonzero" fill-opacity="1" /><path clip-path="url(#clip580)" d="M2111.88 199.944 Q2108.78 205.268 2107.28 210.476 Q2105.77 215.684 2105.77 221.032 Q2105.77 226.379 2107.28 231.633 Q2108.81 236.865 2111.88 242.166 L2108.18 242.166 Q2104.71 236.726 2102.97 231.471 Q2101.26 226.217 2101.26 221.032 Q2101.26 215.87 2102.97 210.638 Q2104.68 205.407 2108.18 199.944 L2111.88 199.944 Z" fill="#000000" fill-rule="nonzero" fill-opacity="1" /><path clip-path="url(#clip580)" d="M2135.17 213.971 Q2134.45 213.555 2133.6 213.37 Q2132.76 213.161 2131.74 213.161 Q2128.13 213.161 2126.19 215.522 Q2124.27 217.86 2124.27 222.258 L2124.27 235.916 L2119.99 235.916 L2119.99 209.99 L2124.27 209.99 L2124.27 214.018 Q2125.61 211.657 2127.76 210.522 Q2129.92 209.365 2132.99 209.365 Q2133.43 209.365 2133.97 209.434 Q2134.5 209.481 2135.15 209.596 L2135.17 213.971 Z" fill="#000000" fill-rule="nonzero" fill-opacity="1" /><path clip-path="url(#clip580)" d="M2151.42 222.883 Q2146.26 222.883 2144.27 224.064 Q2142.28 225.244 2142.28 228.092 Q2142.28 230.36 2143.76 231.703 Q2145.26 233.022 2147.83 233.022 Q2151.37 233.022 2153.5 230.522 Q2155.66 227.999 2155.66 223.832 L2155.66 222.883 L2151.42 222.883 M2159.92 221.124 L2159.92 235.916 L2155.66 235.916 L2155.66 231.981 Q2154.2 234.342 2152.02 235.476 Q2149.85 236.587 2146.7 236.587 Q2142.72 236.587 2140.36 234.365 Q2138.02 232.119 2138.02 228.369 Q2138.02 223.994 2140.93 221.772 Q2143.87 219.55 2149.68 219.55 L2155.66 219.55 L2155.66 219.133 Q2155.66 216.194 2153.71 214.596 Q2151.79 212.976 2148.3 212.976 Q2146.07 212.976 2143.97 213.508 Q2141.86 214.041 2139.92 215.106 L2139.92 211.17 Q2142.25 210.268 2144.45 209.828 Q2146.65 209.365 2148.74 209.365 Q2154.36 209.365 2157.14 212.282 Q2159.92 215.198 2159.92 221.124 Z" fill="#000000" fill-rule="nonzero" fill-opacity="1" /><path clip-path="url(#clip580)" d="M2185.75 213.925 L2185.75 199.897 L2190.01 199.897 L2190.01 235.916 L2185.75 235.916 L2185.75 232.027 Q2184.41 234.342 2182.35 235.476 Q2180.31 236.587 2177.44 236.587 Q2172.74 236.587 2169.78 232.837 Q2166.84 229.087 2166.84 222.976 Q2166.84 216.865 2169.78 213.115 Q2172.74 209.365 2177.44 209.365 Q2180.31 209.365 2182.35 210.499 Q2184.41 211.61 2185.75 213.925 M2171.24 222.976 Q2171.24 227.675 2173.16 230.36 Q2175.1 233.022 2178.48 233.022 Q2181.86 233.022 2183.8 230.36 Q2185.75 227.675 2185.75 222.976 Q2185.75 218.277 2183.8 215.615 Q2181.86 212.93 2178.48 212.93 Q2175.1 212.93 2173.16 215.615 Q2171.24 218.277 2171.24 222.976 Z" fill="#000000" fill-rule="nonzero" fill-opacity="1" /><path clip-path="url(#clip580)" d="M2198.11 199.944 L2201.81 199.944 Q2205.29 205.407 2207 210.638 Q2208.74 215.87 2208.74 221.032 Q2208.74 226.217 2207 231.471 Q2205.29 236.726 2201.81 242.166 L2198.11 242.166 Q2201.19 236.865 2202.69 231.633 Q2204.22 226.379 2204.22 221.032 Q2204.22 215.684 2202.69 210.476 Q2201.19 205.268 2198.11 199.944 Z" fill="#000000" fill-rule="nonzero" fill-opacity="1" /><polyline clip-path="url(#clip580)" style="stroke:#e26f46; stroke-linecap:round; stroke-linejoin:round; stroke-width:8; stroke-opacity:1; fill:none" points="1892.69,270.476 2032.44,270.476 "/>
<path clip-path="url(#clip580)" d="M2065.33 288.427 Q2055.73 288.427 2055.73 274.677 Q2055.73 269.237 2059.31 261.83 L2063.9 261.83 Q2060.59 269.237 2060.59 274.793 Q2060.59 284.816 2065.73 284.816 Q2070.43 284.816 2070.43 272.362 L2074.36 272.362 Q2074.36 284.816 2079.06 284.816 Q2084.2 284.816 2084.2 274.793 Q2084.2 269.237 2080.89 261.83 L2085.47 261.83 Q2089.06 269.237 2089.06 274.677 Q2089.06 288.427 2079.45 288.427 Q2073.16 288.427 2072.39 281.506 Q2071.44 288.427 2065.33 288.427 Z" fill="#000000" fill-rule="nonzero" fill-opacity="1" /><path clip-path="url(#clip580)" d="M2122.07 251.784 Q2118.97 257.108 2117.46 262.316 Q2115.96 267.524 2115.96 272.872 Q2115.96 278.219 2117.46 283.473 Q2118.99 288.705 2122.07 294.006 L2118.37 294.006 Q2114.89 288.566 2113.16 283.311 Q2111.44 278.057 2111.44 272.872 Q2111.44 267.71 2113.16 262.478 Q2114.87 257.247 2118.37 251.784 L2122.07 251.784 Z" fill="#000000" fill-rule="nonzero" fill-opacity="1" /><path clip-path="url(#clip580)" d="M2145.36 265.811 Q2144.64 265.395 2143.78 265.21 Q2142.95 265.001 2141.93 265.001 Q2138.32 265.001 2136.37 267.362 Q2134.45 269.7 2134.45 274.098 L2134.45 287.756 L2130.17 287.756 L2130.17 261.83 L2134.45 261.83 L2134.45 265.858 Q2135.8 263.497 2137.95 262.362 Q2140.1 261.205 2143.18 261.205 Q2143.62 261.205 2144.15 261.274 Q2144.68 261.321 2145.33 261.436 L2145.36 265.811 Z" fill="#000000" fill-rule="nonzero" fill-opacity="1" /><path clip-path="url(#clip580)" d="M2161.61 274.723 Q2156.44 274.723 2154.45 275.904 Q2152.46 277.084 2152.46 279.932 Q2152.46 282.2 2153.94 283.543 Q2155.45 284.862 2158.02 284.862 Q2161.56 284.862 2163.69 282.362 Q2165.84 279.839 2165.84 275.672 L2165.84 274.723 L2161.61 274.723 M2170.1 272.964 L2170.1 287.756 L2165.84 287.756 L2165.84 283.821 Q2164.38 286.182 2162.21 287.316 Q2160.03 288.427 2156.88 288.427 Q2152.9 288.427 2150.54 286.205 Q2148.2 283.959 2148.2 280.209 Q2148.2 275.834 2151.12 273.612 Q2154.06 271.39 2159.87 271.39 L2165.84 271.39 L2165.84 270.973 Q2165.84 268.034 2163.9 266.436 Q2161.98 264.816 2158.48 264.816 Q2156.26 264.816 2154.15 265.348 Q2152.05 265.881 2150.1 266.946 L2150.1 263.01 Q2152.44 262.108 2154.64 261.668 Q2156.84 261.205 2158.92 261.205 Q2164.55 261.205 2167.32 264.122 Q2170.1 267.038 2170.1 272.964 Z" fill="#000000" fill-rule="nonzero" fill-opacity="1" /><path clip-path="url(#clip580)" d="M2195.93 265.765 L2195.93 251.737 L2200.19 251.737 L2200.19 287.756 L2195.93 287.756 L2195.93 283.867 Q2194.59 286.182 2192.53 287.316 Q2190.49 288.427 2187.62 288.427 Q2182.93 288.427 2179.96 284.677 Q2177.02 280.927 2177.02 274.816 Q2177.02 268.705 2179.96 264.955 Q2182.93 261.205 2187.62 261.205 Q2190.49 261.205 2192.53 262.339 Q2194.59 263.45 2195.93 265.765 M2181.42 274.816 Q2181.42 279.515 2183.34 282.2 Q2185.29 284.862 2188.67 284.862 Q2192.05 284.862 2193.99 282.2 Q2195.93 279.515 2195.93 274.816 Q2195.93 270.117 2193.99 267.455 Q2192.05 264.77 2188.67 264.77 Q2185.29 264.77 2183.34 267.455 Q2181.42 270.117 2181.42 274.816 Z" fill="#000000" fill-rule="nonzero" fill-opacity="1" /><path clip-path="url(#clip580)" d="M2216.54 253.196 L2220.47 253.196 L2208.43 292.154 L2204.5 292.154 L2216.54 253.196 Z" fill="#000000" fill-rule="nonzero" fill-opacity="1" /><path clip-path="url(#clip580)" d="M2241.47 262.594 L2241.47 266.622 Q2239.66 265.696 2237.72 265.233 Q2235.77 264.77 2233.69 264.77 Q2230.52 264.77 2228.92 265.742 Q2227.35 266.714 2227.35 268.659 Q2227.35 270.14 2228.48 270.997 Q2229.61 271.83 2233.04 272.594 L2234.5 272.918 Q2239.04 273.89 2240.93 275.672 Q2242.86 277.432 2242.86 280.603 Q2242.86 284.214 2239.99 286.321 Q2237.14 288.427 2232.14 288.427 Q2230.05 288.427 2227.79 288.01 Q2225.54 287.617 2223.04 286.807 L2223.04 282.409 Q2225.4 283.635 2227.69 284.26 Q2229.99 284.862 2232.23 284.862 Q2235.24 284.862 2236.86 283.844 Q2238.48 282.802 2238.48 280.927 Q2238.48 279.191 2237.3 278.265 Q2236.14 277.339 2232.18 276.483 L2230.7 276.135 Q2226.74 275.302 2224.99 273.589 Q2223.23 271.853 2223.23 268.844 Q2223.23 265.186 2225.82 263.196 Q2228.41 261.205 2233.18 261.205 Q2235.54 261.205 2237.62 261.552 Q2239.71 261.899 2241.47 262.594 Z" fill="#000000" fill-rule="nonzero" fill-opacity="1" /><path clip-path="url(#clip580)" d="M2248.97 251.784 L2252.67 251.784 Q2256.14 257.247 2257.86 262.478 Q2259.59 267.71 2259.59 272.872 Q2259.59 278.057 2257.86 283.311 Q2256.14 288.566 2252.67 294.006 L2248.97 294.006 Q2252.05 288.705 2253.55 283.473 Q2255.08 278.219 2255.08 272.872 Q2255.08 267.524 2253.55 262.316 Q2252.05 257.108 2248.97 251.784 Z" fill="#000000" fill-rule="nonzero" fill-opacity="1" /><polyline clip-path="url(#clip580)" style="stroke:#3da44d; stroke-linecap:round; stroke-linejoin:round; stroke-width:8; stroke-opacity:1; fill:none" points="1892.69,322.316 2032.44,322.316 "/>
<path clip-path="url(#clip580)" d="M2055.73 305.036 L2077.58 305.036 L2077.58 308.971 L2060.4 308.971 L2060.4 319.202 L2076.86 319.202 L2076.86 323.137 L2060.4 323.137 L2060.4 335.661 L2078 335.661 L2078 339.596 L2055.73 339.596 L2055.73 305.036 Z" fill="#000000" fill-rule="nonzero" fill-opacity="1" /><path clip-path="url(#clip580)" d="M2110.8 303.624 Q2107.69 308.948 2106.19 314.156 Q2104.68 319.364 2104.68 324.712 Q2104.68 330.059 2106.19 335.313 Q2107.72 340.545 2110.8 345.846 L2107.09 345.846 Q2103.62 340.406 2101.88 335.151 Q2100.17 329.897 2100.17 324.712 Q2100.17 319.55 2101.88 314.318 Q2103.6 309.087 2107.09 303.624 L2110.8 303.624 Z" fill="#000000" fill-rule="nonzero" fill-opacity="1" /><path clip-path="url(#clip580)" d="M2119.24 305.036 L2123.92 305.036 L2123.92 337.188 Q2123.92 343.438 2121.54 346.262 Q2119.18 349.086 2113.92 349.086 L2112.14 349.086 L2112.14 345.151 L2113.6 345.151 Q2116.7 345.151 2117.97 343.415 Q2119.24 341.679 2119.24 337.188 L2119.24 305.036 Z" fill="#000000" fill-rule="nonzero" fill-opacity="1" /><path clip-path="url(#clip580)" d="M2132.37 303.624 L2136.07 303.624 Q2139.55 309.087 2141.26 314.318 Q2142.99 319.55 2142.99 324.712 Q2142.99 329.897 2141.26 335.151 Q2139.55 340.406 2136.07 345.846 L2132.37 345.846 Q2135.45 340.545 2136.95 335.313 Q2138.48 330.059 2138.48 324.712 Q2138.48 319.364 2136.95 314.156 Q2135.45 308.948 2132.37 303.624 Z" fill="#000000" fill-rule="nonzero" fill-opacity="1" /></svg>
