<?xml version="1.0" encoding="utf-8"?>
<svg xmlns="http://www.w3.org/2000/svg" xmlns:xlink="http://www.w3.org/1999/xlink" width="600" height="400" viewBox="0 0 2400 1600">
<defs>
  <clipPath id="clip110">
    <rect x="0" y="0" width="2400" height="1600"/>
  </clipPath>
</defs>
<path clip-path="url(#clip110)" d="M0 1600 L2400 1600 L2400 8.88178e-14 L0 8.88178e-14  Z" fill="#ffffff" fill-rule="evenodd" fill-opacity="1"/>
<defs>
  <clipPath id="clip111">
    <rect x="480" y="0" width="1681" height="1600"/>
  </clipPath>
</defs>
<path clip-path="url(#clip110)" d="M156.598 1486.45 L2352.76 1486.45 L2352.76 47.2441 L156.598 47.2441  Z" fill="#ffffff" fill-rule="evenodd" fill-opacity="1"/>
<defs>
  <clipPath id="clip112">
    <rect x="156" y="47" width="2197" height="1440"/>
  </clipPath>
</defs>
<polyline clip-path="url(#clip112)" style="stroke:#000000; stroke-linecap:round; stroke-linejoin:round; stroke-width:2; stroke-opacity:0.1; fill:none" points="272.406,1486.45 272.406,47.2441 "/>
<polyline clip-path="url(#clip112)" style="stroke:#000000; stroke-linecap:round; stroke-linejoin:round; stroke-width:2; stroke-opacity:0.1; fill:none" points="625.11,1486.45 625.11,47.2441 "/>
<polyline clip-path="url(#clip112)" style="stroke:#000000; stroke-linecap:round; stroke-linejoin:round; stroke-width:2; stroke-opacity:0.1; fill:none" points="977.814,1486.45 977.814,47.2441 "/>
<polyline clip-path="url(#clip112)" style="stroke:#000000; stroke-linecap:round; stroke-linejoin:round; stroke-width:2; stroke-opacity:0.1; fill:none" points="1330.52,1486.45 1330.52,47.2441 "/>
<polyline clip-path="url(#clip112)" style="stroke:#000000; stroke-linecap:round; stroke-linejoin:round; stroke-width:2; stroke-opacity:0.1; fill:none" points="1683.22,1486.45 1683.22,47.2441 "/>
<polyline clip-path="url(#clip112)" style="stroke:#000000; stroke-linecap:round; stroke-linejoin:round; stroke-width:2; stroke-opacity:0.1; fill:none" points="2035.92,1486.45 2035.92,47.2441 "/>
<polyline clip-path="url(#clip112)" style="stroke:#000000; stroke-linecap:round; stroke-linejoin:round; stroke-width:2; stroke-opacity:0.1; fill:none" points="156.598,1251.37 2352.76,1251.37 "/>
<polyline clip-path="url(#clip112)" style="stroke:#000000; stroke-linecap:round; stroke-linejoin:round; stroke-width:2; stroke-opacity:0.1; fill:none" points="156.598,853.899 2352.76,853.899 "/>
<polyline clip-path="url(#clip112)" style="stroke:#000000; stroke-linecap:round; stroke-linejoin:round; stroke-width:2; stroke-opacity:0.1; fill:none" points="156.598,456.428 2352.76,456.428 "/>
<polyline clip-path="url(#clip112)" style="stroke:#000000; stroke-linecap:round; stroke-linejoin:round; stroke-width:2; stroke-opacity:0.1; fill:none" points="156.598,58.9573 2352.76,58.9573 "/>
<polyline clip-path="url(#clip110)" style="stroke:#000000; stroke-linecap:round; stroke-linejoin:round; stroke-width:4; stroke-opacity:1; fill:none" points="156.598,1486.45 2352.76,1486.45 "/>
<polyline clip-path="url(#clip110)" style="stroke:#000000; stroke-linecap:round; stroke-linejoin:round; stroke-width:4; stroke-opacity:1; fill:none" points="272.406,1486.45 272.406,1467.55 "/>
<polyline clip-path="url(#clip110)" style="stroke:#000000; stroke-linecap:round; stroke-linejoin:round; stroke-width:4; stroke-opacity:1; fill:none" points="625.11,1486.45 625.11,1467.55 "/>
<polyline clip-path="url(#clip110)" style="stroke:#000000; stroke-linecap:round; stroke-linejoin:round; stroke-width:4; stroke-opacity:1; fill:none" points="977.814,1486.45 977.814,1467.55 "/>
<polyline clip-path="url(#clip110)" style="stroke:#000000; stroke-linecap:round; stroke-linejoin:round; stroke-width:4; stroke-opacity:1; fill:none" points="1330.52,1486.45 1330.52,1467.55 "/>
<polyline clip-path="url(#clip110)" style="stroke:#000000; stroke-linecap:round; stroke-linejoin:round; stroke-width:4; stroke-opacity:1; fill:none" points="1683.22,1486.45 1683.22,1467.55 "/>
<polyline clip-path="url(#clip110)" style="stroke:#000000; stroke-linecap:round; stroke-linejoin:round; stroke-width:4; stroke-opacity:1; fill:none" points="2035.92,1486.45 2035.92,1467.55 "/>
<path clip-path="url(#clip110)" d="M235.508 1517.37 Q231.897 1517.37 230.069 1520.93 Q228.263 1524.47 228.263 1531.6 Q228.263 1538.71 230.069 1542.27 Q231.897 1545.82 235.508 1545.82 Q239.143 1545.82 240.948 1542.27 Q242.777 1538.71 242.777 1531.6 Q242.777 1524.47 240.948 1520.93 Q239.143 1517.37 235.508 1517.37 M235.508 1513.66 Q241.319 1513.66 244.374 1518.27 Q247.453 1522.85 247.453 1531.6 Q247.453 1540.33 244.374 1544.94 Q241.319 1549.52 235.508 1549.52 Q229.698 1549.52 226.62 1544.94 Q223.564 1540.33 223.564 1531.6 Q223.564 1522.85 226.62 1518.27 Q229.698 1513.66 235.508 1513.66 Z" fill="#000000" fill-rule="nonzero" fill-opacity="1" /><path clip-path="url(#clip110)" d="M255.67 1542.97 L260.555 1542.97 L260.555 1548.85 L255.67 1548.85 L255.67 1542.97 Z" fill="#000000" fill-rule="nonzero" fill-opacity="1" /><path clip-path="url(#clip110)" d="M271.55 1544.91 L279.189 1544.91 L279.189 1518.55 L270.879 1520.21 L270.879 1515.95 L279.142 1514.29 L283.818 1514.29 L283.818 1544.91 L291.457 1544.91 L291.457 1548.85 L271.55 1548.85 L271.55 1544.91 Z" fill="#000000" fill-rule="nonzero" fill-opacity="1" /><path clip-path="url(#clip110)" d="M304.929 1544.91 L321.249 1544.91 L321.249 1548.85 L299.304 1548.85 L299.304 1544.91 Q301.966 1542.16 306.55 1537.53 Q311.156 1532.88 312.337 1531.53 Q314.582 1529.01 315.462 1527.27 Q316.364 1525.51 316.364 1523.82 Q316.364 1521.07 314.42 1519.33 Q312.499 1517.6 309.397 1517.6 Q307.198 1517.6 304.744 1518.36 Q302.314 1519.13 299.536 1520.68 L299.536 1515.95 Q302.36 1514.82 304.814 1514.24 Q307.267 1513.66 309.304 1513.66 Q314.675 1513.66 317.869 1516.35 Q321.064 1519.03 321.064 1523.52 Q321.064 1525.65 320.253 1527.57 Q319.466 1529.47 317.36 1532.07 Q316.781 1532.74 313.679 1535.95 Q310.577 1539.15 304.929 1544.91 Z" fill="#000000" fill-rule="nonzero" fill-opacity="1" /><path clip-path="url(#clip110)" d="M587.17 1517.37 Q583.559 1517.37 581.731 1520.93 Q579.925 1524.47 579.925 1531.6 Q579.925 1538.71 581.731 1542.27 Q583.559 1545.82 587.17 1545.82 Q590.805 1545.82 592.61 1542.27 Q594.439 1538.71 594.439 1531.6 Q594.439 1524.47 592.61 1520.93 Q590.805 1517.37 587.17 1517.37 M587.17 1513.66 Q592.981 1513.66 596.036 1518.27 Q599.115 1522.85 599.115 1531.6 Q599.115 1540.33 596.036 1544.94 Q592.981 1549.52 587.17 1549.52 Q581.36 1549.52 578.282 1544.94 Q575.226 1540.33 575.226 1531.6 Q575.226 1522.85 578.282 1518.27 Q581.36 1513.66 587.17 1513.66 Z" fill="#000000" fill-rule="nonzero" fill-opacity="1" /><path clip-path="url(#clip110)" d="M607.332 1542.97 L612.217 1542.97 L612.217 1548.85 L607.332 1548.85 L607.332 1542.97 Z" fill="#000000" fill-rule="nonzero" fill-opacity="1" /><path clip-path="url(#clip110)" d="M623.212 1544.91 L630.851 1544.91 L630.851 1518.55 L622.541 1520.21 L622.541 1515.95 L630.804 1514.29 L635.48 1514.29 L635.48 1544.91 L643.119 1544.91 L643.119 1548.85 L623.212 1548.85 L623.212 1544.91 Z" fill="#000000" fill-rule="nonzero" fill-opacity="1" /><path clip-path="url(#clip110)" d="M665.411 1518.36 L653.605 1536.81 L665.411 1536.81 L665.411 1518.36 M664.184 1514.29 L670.064 1514.29 L670.064 1536.81 L674.994 1536.81 L674.994 1540.7 L670.064 1540.7 L670.064 1548.85 L665.411 1548.85 L665.411 1540.7 L649.809 1540.7 L649.809 1536.19 L664.184 1514.29 Z" fill="#000000" fill-rule="nonzero" fill-opacity="1" /><path clip-path="url(#clip110)" d="M940.036 1517.37 Q936.425 1517.37 934.596 1520.93 Q932.791 1524.47 932.791 1531.6 Q932.791 1538.71 934.596 1542.27 Q936.425 1545.82 940.036 1545.82 Q943.67 1545.82 945.476 1542.27 Q947.305 1538.71 947.305 1531.6 Q947.305 1524.47 945.476 1520.93 Q943.67 1517.37 940.036 1517.37 M940.036 1513.66 Q945.846 1513.66 948.902 1518.27 Q951.98 1522.85 951.98 1531.6 Q951.98 1540.33 948.902 1544.94 Q945.846 1549.52 940.036 1549.52 Q934.226 1549.52 931.147 1544.94 Q928.092 1540.33 928.092 1531.6 Q928.092 1522.85 931.147 1518.27 Q934.226 1513.66 940.036 1513.66 Z" fill="#000000" fill-rule="nonzero" fill-opacity="1" /><path clip-path="url(#clip110)" d="M960.198 1542.97 L965.082 1542.97 L965.082 1548.85 L960.198 1548.85 L960.198 1542.97 Z" fill="#000000" fill-rule="nonzero" fill-opacity="1" /><path clip-path="url(#clip110)" d="M976.078 1544.91 L983.716 1544.91 L983.716 1518.55 L975.406 1520.21 L975.406 1515.95 L983.67 1514.29 L988.346 1514.29 L988.346 1544.91 L995.985 1544.91 L995.985 1548.85 L976.078 1548.85 L976.078 1544.91 Z" fill="#000000" fill-rule="nonzero" fill-opacity="1" /><path clip-path="url(#clip110)" d="M1016.01 1529.7 Q1012.86 1529.7 1011.01 1531.86 Q1009.18 1534.01 1009.18 1537.76 Q1009.18 1541.49 1011.01 1543.66 Q1012.86 1545.82 1016.01 1545.82 Q1019.16 1545.82 1020.98 1543.66 Q1022.84 1541.49 1022.84 1537.76 Q1022.84 1534.01 1020.98 1531.86 Q1019.16 1529.7 1016.01 1529.7 M1025.29 1515.05 L1025.29 1519.31 Q1023.53 1518.48 1021.73 1518.04 Q1019.94 1517.6 1018.18 1517.6 Q1013.55 1517.6 1011.1 1520.72 Q1008.67 1523.85 1008.32 1530.17 Q1009.69 1528.15 1011.75 1527.09 Q1013.81 1526 1016.29 1526 Q1021.49 1526 1024.5 1529.17 Q1027.54 1532.32 1027.54 1537.76 Q1027.54 1543.08 1024.39 1546.3 Q1021.24 1549.52 1016.01 1549.52 Q1010.01 1549.52 1006.84 1544.94 Q1003.67 1540.33 1003.67 1531.6 Q1003.67 1523.41 1007.56 1518.55 Q1011.45 1513.66 1018 1513.66 Q1019.76 1513.66 1021.54 1514.01 Q1023.35 1514.36 1025.29 1515.05 Z" fill="#000000" fill-rule="nonzero" fill-opacity="1" /><path clip-path="url(#clip110)" d="M1292.87 1517.37 Q1289.26 1517.37 1287.43 1520.93 Q1285.62 1524.47 1285.62 1531.6 Q1285.62 1538.71 1287.43 1542.27 Q1289.26 1545.82 1292.87 1545.82 Q1296.5 1545.82 1298.31 1542.27 Q1300.14 1538.71 1300.14 1531.6 Q1300.14 1524.47 1298.31 1520.93 Q1296.5 1517.37 1292.87 1517.37 M1292.87 1513.66 Q1298.68 1513.66 1301.73 1518.27 Q1304.81 1522.85 1304.81 1531.6 Q1304.81 1540.33 1301.73 1544.94 Q1298.68 1549.52 1292.87 1549.52 Q1287.06 1549.52 1283.98 1544.94 Q1280.92 1540.33 1280.92 1531.6 Q1280.92 1522.85 1283.98 1518.27 Q1287.06 1513.66 1292.87 1513.66 Z" fill="#000000" fill-rule="nonzero" fill-opacity="1" /><path clip-path="url(#clip110)" d="M1313.03 1542.97 L1317.91 1542.97 L1317.91 1548.85 L1313.03 1548.85 L1313.03 1542.97 Z" fill="#000000" fill-rule="nonzero" fill-opacity="1" /><path clip-path="url(#clip110)" d="M1328.91 1544.91 L1336.55 1544.91 L1336.55 1518.55 L1328.24 1520.21 L1328.24 1515.95 L1336.5 1514.29 L1341.18 1514.29 L1341.18 1544.91 L1348.82 1544.91 L1348.82 1548.85 L1328.91 1548.85 L1328.91 1544.91 Z" fill="#000000" fill-rule="nonzero" fill-opacity="1" /><path clip-path="url(#clip110)" d="M1368.26 1532.44 Q1364.93 1532.44 1363.01 1534.22 Q1361.11 1536 1361.11 1539.13 Q1361.11 1542.25 1363.01 1544.03 Q1364.93 1545.82 1368.26 1545.82 Q1371.59 1545.82 1373.51 1544.03 Q1375.44 1542.23 1375.44 1539.13 Q1375.44 1536 1373.51 1534.22 Q1371.62 1532.44 1368.26 1532.44 M1363.58 1530.45 Q1360.58 1529.7 1358.89 1527.64 Q1357.22 1525.58 1357.22 1522.62 Q1357.22 1518.48 1360.16 1516.07 Q1363.12 1513.66 1368.26 1513.66 Q1373.42 1513.66 1376.36 1516.07 Q1379.3 1518.48 1379.3 1522.62 Q1379.3 1525.58 1377.61 1527.64 Q1375.95 1529.7 1372.96 1530.45 Q1376.34 1531.23 1378.21 1533.52 Q1380.11 1535.82 1380.11 1539.13 Q1380.11 1544.15 1377.03 1546.83 Q1373.98 1549.52 1368.26 1549.52 Q1362.54 1549.52 1359.46 1546.83 Q1356.41 1544.15 1356.41 1539.13 Q1356.41 1535.82 1358.31 1533.52 Q1360.2 1531.23 1363.58 1530.45 M1361.87 1523.06 Q1361.87 1525.75 1363.54 1527.25 Q1365.23 1528.76 1368.26 1528.76 Q1371.27 1528.76 1372.96 1527.25 Q1374.67 1525.75 1374.67 1523.06 Q1374.67 1520.38 1372.96 1518.87 Q1371.27 1517.37 1368.26 1517.37 Q1365.23 1517.37 1363.54 1518.87 Q1361.87 1520.38 1361.87 1523.06 Z" fill="#000000" fill-rule="nonzero" fill-opacity="1" /><path clip-path="url(#clip110)" d="M1645.52 1517.37 Q1641.91 1517.37 1640.08 1520.93 Q1638.28 1524.47 1638.28 1531.6 Q1638.28 1538.71 1640.08 1542.27 Q1641.91 1545.82 1645.52 1545.82 Q1649.16 1545.82 1650.96 1542.27 Q1652.79 1538.71 1652.79 1531.6 Q1652.79 1524.47 1650.96 1520.93 Q1649.16 1517.37 1645.52 1517.37 M1645.52 1513.66 Q1651.33 1513.66 1654.39 1518.27 Q1657.47 1522.85 1657.47 1531.6 Q1657.47 1540.33 1654.39 1544.94 Q1651.33 1549.52 1645.52 1549.52 Q1639.71 1549.52 1636.64 1544.94 Q1633.58 1540.33 1633.58 1531.6 Q1633.58 1522.85 1636.64 1518.27 Q1639.71 1513.66 1645.52 1513.66 Z" fill="#000000" fill-rule="nonzero" fill-opacity="1" /><path clip-path="url(#clip110)" d="M1665.69 1542.97 L1670.57 1542.97 L1670.57 1548.85 L1665.69 1548.85 L1665.69 1542.97 Z" fill="#000000" fill-rule="nonzero" fill-opacity="1" /><path clip-path="url(#clip110)" d="M1684.78 1544.91 L1701.1 1544.91 L1701.1 1548.85 L1679.16 1548.85 L1679.16 1544.91 Q1681.82 1542.16 1686.4 1537.53 Q1691.01 1532.88 1692.19 1531.53 Q1694.44 1529.01 1695.32 1527.27 Q1696.22 1525.51 1696.22 1523.82 Q1696.22 1521.07 1694.27 1519.33 Q1692.35 1517.6 1689.25 1517.6 Q1687.05 1517.6 1684.6 1518.36 Q1682.17 1519.13 1679.39 1520.68 L1679.39 1515.95 Q1682.21 1514.82 1684.67 1514.24 Q1687.12 1513.66 1689.16 1513.66 Q1694.53 1513.66 1697.72 1516.35 Q1700.92 1519.03 1700.92 1523.52 Q1700.92 1525.65 1700.11 1527.57 Q1699.32 1529.47 1697.21 1532.07 Q1696.64 1532.74 1693.53 1535.95 Q1690.43 1539.15 1684.78 1544.91 Z" fill="#000000" fill-rule="nonzero" fill-opacity="1" /><path clip-path="url(#clip110)" d="M1720.92 1517.37 Q1717.31 1517.37 1715.48 1520.93 Q1713.67 1524.47 1713.67 1531.6 Q1713.67 1538.71 1715.48 1542.27 Q1717.31 1545.82 1720.92 1545.82 Q1724.55 1545.82 1726.36 1542.27 Q1728.19 1538.71 1728.19 1531.6 Q1728.19 1524.47 1726.36 1520.93 Q1724.55 1517.37 1720.92 1517.37 M1720.92 1513.66 Q1726.73 1513.66 1729.78 1518.27 Q1732.86 1522.85 1732.86 1531.6 Q1732.86 1540.33 1729.78 1544.94 Q1726.73 1549.52 1720.92 1549.52 Q1715.11 1549.52 1712.03 1544.94 Q1708.97 1540.33 1708.97 1531.6 Q1708.97 1522.85 1712.03 1518.27 Q1715.11 1513.66 1720.92 1513.66 Z" fill="#000000" fill-rule="nonzero" fill-opacity="1" /><path clip-path="url(#clip110)" d="M1999.03 1517.37 Q1995.42 1517.37 1993.59 1520.93 Q1991.78 1524.47 1991.78 1531.6 Q1991.78 1538.71 1993.59 1542.27 Q1995.42 1545.82 1999.03 1545.82 Q2002.66 1545.82 2004.47 1542.27 Q2006.3 1538.71 2006.3 1531.6 Q2006.3 1524.47 2004.47 1520.93 Q2002.66 1517.37 1999.03 1517.37 M1999.03 1513.66 Q2004.84 1513.66 2007.89 1518.27 Q2010.97 1522.85 2010.97 1531.6 Q2010.97 1540.33 2007.89 1544.94 Q2004.84 1549.52 1999.03 1549.52 Q1993.22 1549.52 1990.14 1544.94 Q1987.08 1540.33 1987.08 1531.6 Q1987.08 1522.85 1990.14 1518.27 Q1993.22 1513.66 1999.03 1513.66 Z" fill="#000000" fill-rule="nonzero" fill-opacity="1" /><path clip-path="url(#clip110)" d="M2019.19 1542.97 L2024.07 1542.97 L2024.07 1548.85 L2019.19 1548.85 L2019.19 1542.97 Z" fill="#000000" fill-rule="nonzero" fill-opacity="1" /><path clip-path="url(#clip110)" d="M2038.29 1544.91 L2054.61 1544.91 L2054.61 1548.85 L2032.66 1548.85 L2032.66 1544.91 Q2035.32 1542.16 2039.91 1537.53 Q2044.51 1532.88 2045.69 1531.53 Q2047.94 1529.01 2048.82 1527.27 Q2049.72 1525.51 2049.72 1523.82 Q2049.72 1521.07 2047.78 1519.33 Q2045.86 1517.6 2042.75 1517.6 Q2040.55 1517.6 2038.1 1518.36 Q2035.67 1519.13 2032.89 1520.68 L2032.89 1515.95 Q2035.72 1514.82 2038.17 1514.24 Q2040.62 1513.66 2042.66 1513.66 Q2048.03 1513.66 2051.23 1516.35 Q2054.42 1519.03 2054.42 1523.52 Q2054.42 1525.65 2053.61 1527.57 Q2052.82 1529.47 2050.72 1532.07 Q2050.14 1532.74 2047.04 1535.95 Q2043.93 1539.15 2038.29 1544.91 Z" fill="#000000" fill-rule="nonzero" fill-opacity="1" /><path clip-path="url(#clip110)" d="M2068.45 1544.91 L2084.77 1544.91 L2084.77 1548.85 L2062.82 1548.85 L2062.82 1544.91 Q2065.48 1542.16 2070.07 1537.53 Q2074.67 1532.88 2075.85 1531.53 Q2078.1 1529.01 2078.98 1527.27 Q2079.88 1525.51 2079.88 1523.82 Q2079.88 1521.07 2077.94 1519.33 Q2076.02 1517.6 2072.92 1517.6 Q2070.72 1517.6 2068.26 1518.36 Q2065.83 1519.13 2063.05 1520.68 L2063.05 1515.95 Q2065.88 1514.82 2068.33 1514.24 Q2070.79 1513.66 2072.82 1513.66 Q2078.19 1513.66 2081.39 1516.35 Q2084.58 1519.03 2084.58 1523.52 Q2084.58 1525.65 2083.77 1527.57 Q2082.98 1529.47 2080.88 1532.07 Q2080.3 1532.74 2077.2 1535.95 Q2074.1 1539.15 2068.45 1544.91 Z" fill="#000000" fill-rule="nonzero" fill-opacity="1" /><polyline clip-path="url(#clip110)" style="stroke:#000000; stroke-linecap:round; stroke-linejoin:round; stroke-width:4; stroke-opacity:1; fill:none" points="156.598,1486.45 156.598,47.2441 "/>
<polyline clip-path="url(#clip110)" style="stroke:#000000; stroke-linecap:round; stroke-linejoin:round; stroke-width:4; stroke-opacity:1; fill:none" points="156.598,1251.37 175.496,1251.37 "/>
<polyline clip-path="url(#clip110)" style="stroke:#000000; stroke-linecap:round; stroke-linejoin:round; stroke-width:4; stroke-opacity:1; fill:none" points="156.598,853.899 175.496,853.899 "/>
<polyline clip-path="url(#clip110)" style="stroke:#000000; stroke-linecap:round; stroke-linejoin:round; stroke-width:4; stroke-opacity:1; fill:none" points="156.598,456.428 175.496,456.428 "/>
<polyline clip-path="url(#clip110)" style="stroke:#000000; stroke-linecap:round; stroke-linejoin:round; stroke-width:4; stroke-opacity:1; fill:none" points="156.598,58.9573 175.496,58.9573 "/>
<path clip-path="url(#clip110)" d="M65.0198 1237.17 Q61.4087 1237.17 59.58 1240.73 Q57.7745 1244.28 57.7745 1251.4 Q57.7745 1258.51 59.58 1262.08 Q61.4087 1265.62 65.0198 1265.62 Q68.6541 1265.62 70.4596 1262.08 Q72.2883 1258.51 72.2883 1251.4 Q72.2883 1244.28 70.4596 1240.73 Q68.6541 1237.17 65.0198 1237.17 M65.0198 1233.46 Q70.83 1233.46 73.8855 1238.07 Q76.9642 1242.65 76.9642 1251.4 Q76.9642 1260.13 73.8855 1264.74 Q70.83 1269.32 65.0198 1269.32 Q59.2097 1269.32 56.131 1264.74 Q53.0754 1260.13 53.0754 1251.4 Q53.0754 1242.65 56.131 1238.07 Q59.2097 1233.46 65.0198 1233.46 Z" fill="#000000" fill-rule="nonzero" fill-opacity="1" /><path clip-path="url(#clip110)" d="M85.1818 1262.77 L90.066 1262.77 L90.066 1268.65 L85.1818 1268.65 L85.1818 1262.77 Z" fill="#000000" fill-rule="nonzero" fill-opacity="1" /><path clip-path="url(#clip110)" d="M104.279 1264.71 L120.598 1264.71 L120.598 1268.65 L98.6539 1268.65 L98.6539 1264.71 Q101.316 1261.96 105.899 1257.33 Q110.506 1252.68 111.686 1251.34 Q113.932 1248.81 114.811 1247.08 Q115.714 1245.32 115.714 1243.63 Q115.714 1240.87 113.77 1239.14 Q111.848 1237.4 108.746 1237.4 Q106.547 1237.4 104.094 1238.16 Q101.663 1238.93 98.8854 1240.48 L98.8854 1235.76 Q101.709 1234.62 104.163 1234.04 Q106.617 1233.46 108.654 1233.46 Q114.024 1233.46 117.219 1236.15 Q120.413 1238.84 120.413 1243.33 Q120.413 1245.46 119.603 1247.38 Q118.816 1249.28 116.709 1251.87 Q116.131 1252.54 113.029 1255.76 Q109.927 1258.95 104.279 1264.71 Z" fill="#000000" fill-rule="nonzero" fill-opacity="1" /><path clip-path="url(#clip110)" d="M62.9365 839.698 Q59.3254 839.698 57.4967 843.263 Q55.6912 846.804 55.6912 853.934 Q55.6912 861.04 57.4967 864.605 Q59.3254 868.147 62.9365 868.147 Q66.5707 868.147 68.3763 864.605 Q70.205 861.04 70.205 853.934 Q70.205 846.804 68.3763 843.263 Q66.5707 839.698 62.9365 839.698 M62.9365 835.994 Q68.7467 835.994 71.8022 840.601 Q74.8809 845.184 74.8809 853.934 Q74.8809 862.661 71.8022 867.267 Q68.7467 871.85 62.9365 871.85 Q57.1264 871.85 54.0477 867.267 Q50.9921 862.661 50.9921 853.934 Q50.9921 845.184 54.0477 840.601 Q57.1264 835.994 62.9365 835.994 Z" fill="#000000" fill-rule="nonzero" fill-opacity="1" /><path clip-path="url(#clip110)" d="M83.0984 865.299 L87.9827 865.299 L87.9827 871.179 L83.0984 871.179 L83.0984 865.299 Z" fill="#000000" fill-rule="nonzero" fill-opacity="1" /><path clip-path="url(#clip110)" d="M111.015 840.693 L99.2095 859.142 L111.015 859.142 L111.015 840.693 M109.788 836.619 L115.668 836.619 L115.668 859.142 L120.598 859.142 L120.598 863.031 L115.668 863.031 L115.668 871.179 L111.015 871.179 L111.015 863.031 L95.4132 863.031 L95.4132 858.517 L109.788 836.619 Z" fill="#000000" fill-rule="nonzero" fill-opacity="1" /><path clip-path="url(#clip110)" d="M63.2606 442.227 Q59.6495 442.227 57.8208 445.792 Q56.0152 449.333 56.0152 456.463 Q56.0152 463.569 57.8208 467.134 Q59.6495 470.676 63.2606 470.676 Q66.8948 470.676 68.7004 467.134 Q70.5291 463.569 70.5291 456.463 Q70.5291 449.333 68.7004 445.792 Q66.8948 442.227 63.2606 442.227 M63.2606 438.523 Q69.0707 438.523 72.1263 443.13 Q75.205 447.713 75.205 456.463 Q75.205 465.19 72.1263 469.796 Q69.0707 474.379 63.2606 474.379 Q57.4504 474.379 54.3717 469.796 Q51.3162 465.19 51.3162 456.463 Q51.3162 447.713 54.3717 443.13 Q57.4504 438.523 63.2606 438.523 Z" fill="#000000" fill-rule="nonzero" fill-opacity="1" /><path clip-path="url(#clip110)" d="M83.4225 467.829 L88.3067 467.829 L88.3067 473.708 L83.4225 473.708 L83.4225 467.829 Z" fill="#000000" fill-rule="nonzero" fill-opacity="1" /><path clip-path="url(#clip110)" d="M109.071 454.565 Q105.922 454.565 104.071 456.718 Q102.242 458.87 102.242 462.62 Q102.242 466.347 104.071 468.523 Q105.922 470.676 109.071 470.676 Q112.219 470.676 114.047 468.523 Q115.899 466.347 115.899 462.62 Q115.899 458.87 114.047 456.718 Q112.219 454.565 109.071 454.565 M118.353 439.912 L118.353 444.171 Q116.594 443.338 114.788 442.898 Q113.006 442.458 111.246 442.458 Q106.617 442.458 104.163 445.583 Q101.733 448.708 101.385 455.028 Q102.751 453.014 104.811 451.949 Q106.871 450.861 109.348 450.861 Q114.557 450.861 117.566 454.032 Q120.598 457.18 120.598 462.62 Q120.598 467.944 117.45 471.162 Q114.302 474.379 109.071 474.379 Q103.075 474.379 99.9039 469.796 Q96.7326 465.19 96.7326 456.463 Q96.7326 448.268 100.621 443.407 Q104.51 438.523 111.061 438.523 Q112.82 438.523 114.603 438.87 Q116.408 439.218 118.353 439.912 Z" fill="#000000" fill-rule="nonzero" fill-opacity="1" /><path clip-path="url(#clip110)" d="M63.5152 44.7559 Q59.9041 44.7559 58.0754 48.3207 Q56.2699 51.8624 56.2699 58.992 Q56.2699 66.0984 58.0754 69.6632 Q59.9041 73.2049 63.5152 73.2049 Q67.1494 73.2049 68.955 69.6632 Q70.7837 66.0984 70.7837 58.992 Q70.7837 51.8624 68.955 48.3207 Q67.1494 44.7559 63.5152 44.7559 M63.5152 41.0523 Q69.3254 41.0523 72.3809 45.6587 Q75.4596 50.242 75.4596 58.992 Q75.4596 67.7188 72.3809 72.3252 Q69.3254 76.9085 63.5152 76.9085 Q57.7051 76.9085 54.6264 72.3252 Q51.5708 67.7188 51.5708 58.992 Q51.5708 50.242 54.6264 45.6587 Q57.7051 41.0523 63.5152 41.0523 Z" fill="#000000" fill-rule="nonzero" fill-opacity="1" /><path clip-path="url(#clip110)" d="M83.6771 70.3577 L88.5614 70.3577 L88.5614 76.2373 L83.6771 76.2373 L83.6771 70.3577 Z" fill="#000000" fill-rule="nonzero" fill-opacity="1" /><path clip-path="url(#clip110)" d="M108.746 59.8253 Q105.413 59.8253 103.492 61.6077 Q101.594 63.3901 101.594 66.5151 Q101.594 69.6401 103.492 71.4225 Q105.413 73.2049 108.746 73.2049 Q112.08 73.2049 114.001 71.4225 Q115.922 69.6169 115.922 66.5151 Q115.922 63.3901 114.001 61.6077 Q112.103 59.8253 108.746 59.8253 M104.071 57.8346 Q101.061 57.0938 99.3715 55.0337 Q97.7048 52.9735 97.7048 50.0105 Q97.7048 45.867 100.645 43.4596 Q103.608 41.0523 108.746 41.0523 Q113.908 41.0523 116.848 43.4596 Q119.788 45.867 119.788 50.0105 Q119.788 52.9735 118.098 55.0337 Q116.432 57.0938 113.445 57.8346 Q116.825 58.6216 118.7 60.9133 Q120.598 63.2049 120.598 66.5151 Q120.598 71.5382 117.52 74.2234 Q114.464 76.9085 108.746 76.9085 Q103.029 76.9085 99.9502 74.2234 Q96.8947 71.5382 96.8947 66.5151 Q96.8947 63.2049 98.7928 60.9133 Q100.691 58.6216 104.071 57.8346 M102.358 50.4504 Q102.358 53.1355 104.024 54.6401 Q105.714 56.1448 108.746 56.1448 Q111.756 56.1448 113.445 54.6401 Q115.158 53.1355 115.158 50.4504 Q115.158 47.7652 113.445 46.2606 Q111.756 44.7559 108.746 44.7559 Q105.714 44.7559 104.024 46.2606 Q102.358 47.7652 102.358 50.4504 Z" fill="#000000" fill-rule="nonzero" fill-opacity="1" /><polyline clip-path="url(#clip112)" style="stroke:#009af9; stroke-linecap:round; stroke-linejoin:round; stroke-width:4; stroke-opacity:1; fill:none" points="2290.6,1440.73 2228.79,1394.08 2166.8,1347.43 2104.57,1300.79 2042.09,1254.14 1979.3,1207.49 1916.17,1160.85 1852.66,1114.2 1788.71,1067.55 1724.3,1020.91 1659.36,974.26 1593.84,927.614 1527.69,880.967 1460.85,834.321 1393.26,787.674 1324.85,741.028 1255.54,694.381 1185.25,647.735 1113.89,601.088 1041.36,554.442 967.56,507.795 892.359,461.149 815.622,414.502 737.192,367.855 656.89,321.209 574.513,274.562 489.82,227.916 402.53,181.269 312.31,134.623 218.754,87.9763 "/>
<polyline clip-path="url(#clip112)" style="stroke:#e26f46; stroke-linecap:round; stroke-linejoin:round; stroke-width:4; stroke-opacity:1; fill:none" points="2290.6,1445.72 2228.79,1400.16 2166.8,1354.58 2104.57,1308.98 2042.09,1263.36 1979.3,1217.71 1916.17,1172.03 1852.66,1126.31 1788.71,1080.56 1724.3,1034.76 1659.36,988.923 1593.84,943.034 1527.69,897.094 1460.85,851.098 1393.26,805.043 1324.85,758.927 1255.54,712.745 1185.25,666.494 1113.89,620.17 1041.36,573.771 967.56,527.292 892.359,480.729 815.622,434.08 737.192,387.34 656.89,340.506 574.513,293.574 489.82,246.54 402.53,199.401 312.31,152.153 218.754,104.791 "/>
<path clip-path="url(#clip110)" d="M1924.87 250.738 L2279.55 250.738 L2279.55 95.2176 L1924.87 95.2176  Z" fill="#ffffff" fill-rule="evenodd" fill-opacity="1"/>
<polyline clip-path="url(#clip110)" style="stroke:#000000; stroke-linecap:round; stroke-linejoin:round; stroke-width:4; stroke-opacity:1; fill:none" points="1924.87,250.738 2279.55,250.738 2279.55,95.2176 1924.87,95.2176 1924.87,250.738 "/>
<polyline clip-path="url(#clip110)" style="stroke:#009af9; stroke-linecap:round; stroke-linejoin:round; stroke-width:4; stroke-opacity:1; fill:none" points="1949.27,147.058 2095.68,147.058 "/>
<path clip-path="url(#clip110)" d="M2127.49 131.051 L2127.49 138.412 L2136.26 138.412 L2136.26 141.722 L2127.49 141.722 L2127.49 155.796 Q2127.49 158.967 2128.34 159.87 Q2129.22 160.773 2131.89 160.773 L2136.26 160.773 L2136.26 164.338 L2131.89 164.338 Q2126.96 164.338 2125.08 162.509 Q2123.21 160.657 2123.21 155.796 L2123.21 141.722 L2120.08 141.722 L2120.08 138.412 L2123.21 138.412 L2123.21 131.051 L2127.49 131.051 Z" fill="#000000" fill-rule="nonzero" fill-opacity="1" /><path clip-path="url(#clip110)" d="M2163.41 148.689 L2163.41 164.338 L2159.15 164.338 L2159.15 148.828 Q2159.15 145.148 2157.72 143.319 Q2156.28 141.49 2153.41 141.49 Q2149.96 141.49 2147.97 143.69 Q2145.98 145.889 2145.98 149.685 L2145.98 164.338 L2141.7 164.338 L2141.7 128.319 L2145.98 128.319 L2145.98 142.44 Q2147.51 140.102 2149.57 138.944 Q2151.65 137.787 2154.36 137.787 Q2158.83 137.787 2161.12 140.565 Q2163.41 143.319 2163.41 148.689 Z" fill="#000000" fill-rule="nonzero" fill-opacity="1" /><path clip-path="url(#clip110)" d="M2194.08 150.31 L2194.08 152.393 L2174.5 152.393 Q2174.78 156.791 2177.14 159.106 Q2179.52 161.398 2183.76 161.398 Q2186.21 161.398 2188.51 160.796 Q2190.82 160.194 2193.09 158.99 L2193.09 163.018 Q2190.8 163.99 2188.39 164.5 Q2185.98 165.009 2183.51 165.009 Q2177.3 165.009 2173.67 161.398 Q2170.06 157.787 2170.06 151.629 Q2170.06 145.264 2173.48 141.537 Q2176.93 137.787 2182.77 137.787 Q2188 137.787 2191.03 141.166 Q2194.08 144.523 2194.08 150.31 M2189.83 149.06 Q2189.78 145.565 2187.86 143.481 Q2185.96 141.398 2182.81 141.398 Q2179.25 141.398 2177.09 143.412 Q2174.96 145.426 2174.64 149.083 L2189.83 149.06 Z" fill="#000000" fill-rule="nonzero" fill-opacity="1" /><path clip-path="url(#clip110)" d="M2205.29 131.051 L2205.29 138.412 L2214.06 138.412 L2214.06 141.722 L2205.29 141.722 L2205.29 155.796 Q2205.29 158.967 2206.14 159.87 Q2207.02 160.773 2209.69 160.773 L2214.06 160.773 L2214.06 164.338 L2209.69 164.338 Q2204.76 164.338 2202.88 162.509 Q2201.01 160.657 2201.01 155.796 L2201.01 141.722 L2197.88 141.722 L2197.88 138.412 L2201.01 138.412 L2201.01 131.051 L2205.29 131.051 Z" fill="#000000" fill-rule="nonzero" fill-opacity="1" /><path clip-path="url(#clip110)" d="M2231.45 151.305 Q2226.28 151.305 2224.29 152.486 Q2222.3 153.666 2222.3 156.514 Q2222.3 158.782 2223.78 160.125 Q2225.29 161.444 2227.86 161.444 Q2231.4 161.444 2233.53 158.944 Q2235.68 156.421 2235.68 152.254 L2235.68 151.305 L2231.45 151.305 M2239.94 149.546 L2239.94 164.338 L2235.68 164.338 L2235.68 160.402 Q2234.22 162.763 2232.05 163.898 Q2229.87 165.009 2226.72 165.009 Q2222.74 165.009 2220.38 162.787 Q2218.04 160.541 2218.04 156.791 Q2218.04 152.416 2220.96 150.194 Q2223.9 147.972 2229.71 147.972 L2235.68 147.972 L2235.68 147.555 Q2235.68 144.615 2233.74 143.018 Q2231.82 141.398 2228.32 141.398 Q2226.1 141.398 2223.99 141.93 Q2221.89 142.463 2219.94 143.527 L2219.94 139.592 Q2222.28 138.69 2224.48 138.25 Q2226.68 137.787 2228.76 137.787 Q2234.39 137.787 2237.16 140.703 Q2239.94 143.62 2239.94 149.546 Z" fill="#000000" fill-rule="nonzero" fill-opacity="1" /><polyline clip-path="url(#clip110)" style="stroke:#e26f46; stroke-linecap:round; stroke-linejoin:round; stroke-width:4; stroke-opacity:1; fill:none" points="1949.27,198.898 2095.68,198.898 "/>
<path clip-path="url(#clip110)" d="M2144.11 202.15 L2144.11 204.233 L2124.52 204.233 Q2124.8 208.631 2127.16 210.946 Q2129.55 213.238 2133.78 213.238 Q2136.24 213.238 2138.53 212.636 Q2140.84 212.034 2143.11 210.83 L2143.11 214.858 Q2140.82 215.83 2138.41 216.34 Q2136.01 216.849 2133.53 216.849 Q2127.33 216.849 2123.69 213.238 Q2120.08 209.627 2120.08 203.469 Q2120.08 197.104 2123.51 193.377 Q2126.96 189.627 2132.79 189.627 Q2138.02 189.627 2141.05 193.006 Q2144.11 196.363 2144.11 202.15 M2139.85 200.9 Q2139.8 197.405 2137.88 195.321 Q2135.98 193.238 2132.83 193.238 Q2129.27 193.238 2127.12 195.252 Q2124.99 197.266 2124.66 200.923 L2139.85 200.9 Z" fill="#000000" fill-rule="nonzero" fill-opacity="1" /><path clip-path="url(#clip110)" d="M2150.94 180.159 L2155.22 180.159 L2155.22 201.432 L2167.93 190.252 L2173.37 190.252 L2159.62 202.381 L2173.95 216.178 L2168.39 216.178 L2155.22 203.516 L2155.22 216.178 L2150.94 216.178 L2150.94 180.159 Z" fill="#000000" fill-rule="nonzero" fill-opacity="1" /><path clip-path="url(#clip110)" d="M2195.08 191.016 L2195.08 195.043 Q2193.27 194.117 2191.33 193.655 Q2189.39 193.192 2187.3 193.192 Q2184.13 193.192 2182.53 194.164 Q2180.96 195.136 2180.96 197.08 Q2180.96 198.562 2182.09 199.418 Q2183.23 200.252 2186.65 201.016 L2188.11 201.34 Q2192.65 202.312 2194.55 204.094 Q2196.47 205.854 2196.47 209.025 Q2196.47 212.636 2193.6 214.742 Q2190.75 216.849 2185.75 216.849 Q2183.67 216.849 2181.4 216.432 Q2179.15 216.039 2176.65 215.228 L2176.65 210.83 Q2179.02 212.057 2181.31 212.682 Q2183.6 213.284 2185.84 213.284 Q2188.85 213.284 2190.47 212.266 Q2192.09 211.224 2192.09 209.349 Q2192.09 207.613 2190.91 206.687 Q2189.76 205.761 2185.8 204.904 L2184.32 204.557 Q2180.36 203.724 2178.6 202.011 Q2176.84 200.275 2176.84 197.266 Q2176.84 193.608 2179.43 191.618 Q2182.02 189.627 2186.79 189.627 Q2189.15 189.627 2191.24 189.974 Q2193.32 190.321 2195.08 191.016 Z" fill="#000000" fill-rule="nonzero" fill-opacity="1" /><path clip-path="url(#clip110)" d="M2215.03 203.145 Q2209.87 203.145 2207.88 204.326 Q2205.89 205.506 2205.89 208.354 Q2205.89 210.622 2207.37 211.965 Q2208.88 213.284 2211.45 213.284 Q2214.99 213.284 2217.12 210.784 Q2219.27 208.261 2219.27 204.094 L2219.27 203.145 L2215.03 203.145 M2223.53 201.386 L2223.53 216.178 L2219.27 216.178 L2219.27 212.242 Q2217.81 214.603 2215.64 215.738 Q2213.46 216.849 2210.31 216.849 Q2206.33 216.849 2203.97 214.627 Q2201.63 212.381 2201.63 208.631 Q2201.63 204.256 2204.55 202.034 Q2207.49 199.812 2213.3 199.812 L2219.27 199.812 L2219.27 199.395 Q2219.27 196.455 2217.33 194.858 Q2215.4 193.238 2211.91 193.238 Q2209.69 193.238 2207.58 193.77 Q2205.47 194.303 2203.53 195.367 L2203.53 191.432 Q2205.87 190.53 2208.07 190.09 Q2210.26 189.627 2212.35 189.627 Q2217.97 189.627 2220.75 192.543 Q2223.53 195.46 2223.53 201.386 Z" fill="#000000" fill-rule="nonzero" fill-opacity="1" /><path clip-path="url(#clip110)" d="M2232.14 180.159 L2236.42 180.159 L2236.42 201.432 L2249.13 190.252 L2254.57 190.252 L2240.82 202.381 L2255.15 216.178 L2249.59 216.178 L2236.42 203.516 L2236.42 216.178 L2232.14 216.178 L2232.14 180.159 Z" fill="#000000" fill-rule="nonzero" fill-opacity="1" /></svg>
