<?xml version="1.0" encoding="utf-8"?>
<svg xmlns="http://www.w3.org/2000/svg" xmlns:xlink="http://www.w3.org/1999/xlink" width="600" height="400" viewBox="0 0 2400 1600">
<defs>
  <clipPath id="clip490">
    <rect x="0" y="0" width="2400" height="1600"/>
  </clipPath>
</defs>
<path clip-path="url(#clip490)" d="M0 1600 L2400 1600 L2400 8.88178e-14 L0 8.88178e-14  Z" fill="#ffffff" fill-rule="evenodd" fill-opacity="1"/>
<defs>
  <clipPath id="clip491">
    <rect x="256" y="123" width="2097" height="1301"/>
  </clipPath>
</defs>
<path clip-path="url(#clip490)" d="M256.556 1423.18 L2352.76 1423.18 L2352.76 123.472 L256.556 123.472  Z" fill="#ffffff" fill-rule="evenodd" fill-opacity="1"/>
<polyline clip-path="url(#clip491)" style="stroke:#000000; stroke-linecap:round; stroke-linejoin:round; stroke-width:2; stroke-opacity:0.1; fill:none" points="315.882,1423.18 315.882,123.472 "/>
<polyline clip-path="url(#clip491)" style="stroke:#000000; stroke-linecap:round; stroke-linejoin:round; stroke-width:2; stroke-opacity:0.1; fill:none" points="810.269,1423.18 810.269,123.472 "/>
<polyline clip-path="url(#clip491)" style="stroke:#000000; stroke-linecap:round; stroke-linejoin:round; stroke-width:2; stroke-opacity:0.1; fill:none" points="1304.66,1423.18 1304.66,123.472 "/>
<polyline clip-path="url(#clip491)" style="stroke:#000000; stroke-linecap:round; stroke-linejoin:round; stroke-width:2; stroke-opacity:0.1; fill:none" points="1799.04,1423.18 1799.04,123.472 "/>
<polyline clip-path="url(#clip491)" style="stroke:#000000; stroke-linecap:round; stroke-linejoin:round; stroke-width:2; stroke-opacity:0.1; fill:none" points="2293.43,1423.18 2293.43,123.472 "/>
<polyline clip-path="url(#clip491)" style="stroke:#000000; stroke-linecap:round; stroke-linejoin:round; stroke-width:2; stroke-opacity:0.1; fill:none" points="256.556,1358.27 2352.76,1358.27 "/>
<polyline clip-path="url(#clip491)" style="stroke:#000000; stroke-linecap:round; stroke-linejoin:round; stroke-width:2; stroke-opacity:0.1; fill:none" points="256.556,1163.21 2352.76,1163.21 "/>
<polyline clip-path="url(#clip491)" style="stroke:#000000; stroke-linecap:round; stroke-linejoin:round; stroke-width:2; stroke-opacity:0.1; fill:none" points="256.556,968.139 2352.76,968.139 "/>
<polyline clip-path="url(#clip491)" style="stroke:#000000; stroke-linecap:round; stroke-linejoin:round; stroke-width:2; stroke-opacity:0.1; fill:none" points="256.556,773.074 2352.76,773.074 "/>
<polyline clip-path="url(#clip491)" style="stroke:#000000; stroke-linecap:round; stroke-linejoin:round; stroke-width:2; stroke-opacity:0.1; fill:none" points="256.556,578.008 2352.76,578.008 "/>
<polyline clip-path="url(#clip491)" style="stroke:#000000; stroke-linecap:round; stroke-linejoin:round; stroke-width:2; stroke-opacity:0.1; fill:none" points="256.556,382.942 2352.76,382.942 "/>
<polyline clip-path="url(#clip491)" style="stroke:#000000; stroke-linecap:round; stroke-linejoin:round; stroke-width:2; stroke-opacity:0.1; fill:none" points="256.556,187.876 2352.76,187.876 "/>
<polyline clip-path="url(#clip490)" style="stroke:#000000; stroke-linecap:round; stroke-linejoin:round; stroke-width:4; stroke-opacity:1; fill:none" points="256.556,1423.18 2352.76,1423.18 "/>
<polyline clip-path="url(#clip490)" style="stroke:#000000; stroke-linecap:round; stroke-linejoin:round; stroke-width:4; stroke-opacity:1; fill:none" points="315.882,1423.18 315.882,1404.28 "/>
<polyline clip-path="url(#clip490)" style="stroke:#000000; stroke-linecap:round; stroke-linejoin:round; stroke-width:4; stroke-opacity:1; fill:none" points="810.269,1423.18 810.269,1404.28 "/>
<polyline clip-path="url(#clip490)" style="stroke:#000000; stroke-linecap:round; stroke-linejoin:round; stroke-width:4; stroke-opacity:1; fill:none" points="1304.66,1423.18 1304.66,1404.28 "/>
<polyline clip-path="url(#clip490)" style="stroke:#000000; stroke-linecap:round; stroke-linejoin:round; stroke-width:4; stroke-opacity:1; fill:none" points="1799.04,1423.18 1799.04,1404.28 "/>
<polyline clip-path="url(#clip490)" style="stroke:#000000; stroke-linecap:round; stroke-linejoin:round; stroke-width:4; stroke-opacity:1; fill:none" points="2293.43,1423.18 2293.43,1404.28 "/>
<path clip-path="url(#clip490)" d="M293.267 1454.1 Q289.656 1454.1 287.827 1457.66 Q286.021 1461.2 286.021 1468.33 Q286.021 1475.44 287.827 1479.01 Q289.656 1482.55 293.267 1482.55 Q296.901 1482.55 298.706 1479.01 Q300.535 1475.44 300.535 1468.33 Q300.535 1461.2 298.706 1457.66 Q296.901 1454.1 293.267 1454.1 M293.267 1450.39 Q299.077 1450.39 302.132 1455 Q305.211 1459.58 305.211 1468.33 Q305.211 1477.06 302.132 1481.67 Q299.077 1486.25 293.267 1486.25 Q287.457 1486.25 284.378 1481.67 Q281.322 1477.06 281.322 1468.33 Q281.322 1459.58 284.378 1455 Q287.457 1450.39 293.267 1450.39 Z" fill="#000000" fill-rule="nonzero" fill-opacity="1" /><path clip-path="url(#clip490)" d="M313.429 1479.7 L318.313 1479.7 L318.313 1485.58 L313.429 1485.58 L313.429 1479.7 Z" fill="#000000" fill-rule="nonzero" fill-opacity="1" /><path clip-path="url(#clip490)" d="M338.498 1454.1 Q334.887 1454.1 333.058 1457.66 Q331.253 1461.2 331.253 1468.33 Q331.253 1475.44 333.058 1479.01 Q334.887 1482.55 338.498 1482.55 Q342.132 1482.55 343.938 1479.01 Q345.766 1475.44 345.766 1468.33 Q345.766 1461.2 343.938 1457.66 Q342.132 1454.1 338.498 1454.1 M338.498 1450.39 Q344.308 1450.39 347.364 1455 Q350.442 1459.58 350.442 1468.33 Q350.442 1477.06 347.364 1481.67 Q344.308 1486.25 338.498 1486.25 Q332.688 1486.25 329.609 1481.67 Q326.554 1477.06 326.554 1468.33 Q326.554 1459.58 329.609 1455 Q332.688 1450.39 338.498 1450.39 Z" fill="#000000" fill-rule="nonzero" fill-opacity="1" /><path clip-path="url(#clip490)" d="M782.005 1481.64 L798.325 1481.64 L798.325 1485.58 L776.38 1485.58 L776.38 1481.64 Q779.042 1478.89 783.626 1474.26 Q788.232 1469.61 789.413 1468.27 Q791.658 1465.74 792.538 1464.01 Q793.44 1462.25 793.44 1460.56 Q793.44 1457.8 791.496 1456.07 Q789.575 1454.33 786.473 1454.33 Q784.274 1454.33 781.82 1455.09 Q779.39 1455.86 776.612 1457.41 L776.612 1452.69 Q779.436 1451.55 781.89 1450.97 Q784.343 1450.39 786.38 1450.39 Q791.751 1450.39 794.945 1453.08 Q798.14 1455.77 798.14 1460.26 Q798.14 1462.39 797.329 1464.31 Q796.542 1466.2 794.436 1468.8 Q793.857 1469.47 790.755 1472.69 Q787.653 1475.88 782.005 1481.64 Z" fill="#000000" fill-rule="nonzero" fill-opacity="1" /><path clip-path="url(#clip490)" d="M808.139 1479.7 L813.024 1479.7 L813.024 1485.58 L808.139 1485.58 L808.139 1479.7 Z" fill="#000000" fill-rule="nonzero" fill-opacity="1" /><path clip-path="url(#clip490)" d="M823.255 1451.02 L841.612 1451.02 L841.612 1454.96 L827.538 1454.96 L827.538 1463.43 Q828.556 1463.08 829.575 1462.92 Q830.593 1462.73 831.612 1462.73 Q837.399 1462.73 840.778 1465.9 Q844.158 1469.08 844.158 1474.49 Q844.158 1480.07 840.686 1483.17 Q837.213 1486.25 830.894 1486.25 Q828.718 1486.25 826.45 1485.88 Q824.204 1485.51 821.797 1484.77 L821.797 1480.07 Q823.88 1481.2 826.102 1481.76 Q828.325 1482.32 830.801 1482.32 Q834.806 1482.32 837.144 1480.21 Q839.482 1478.1 839.482 1474.49 Q839.482 1470.88 837.144 1468.77 Q834.806 1466.67 830.801 1466.67 Q828.926 1466.67 827.051 1467.08 Q825.2 1467.5 823.255 1468.38 L823.255 1451.02 Z" fill="#000000" fill-rule="nonzero" fill-opacity="1" /><path clip-path="url(#clip490)" d="M1271.82 1451.02 L1290.18 1451.02 L1290.18 1454.96 L1276.1 1454.96 L1276.1 1463.43 Q1277.12 1463.08 1278.14 1462.92 Q1279.16 1462.73 1280.18 1462.73 Q1285.96 1462.73 1289.34 1465.9 Q1292.72 1469.08 1292.72 1474.49 Q1292.72 1480.07 1289.25 1483.17 Q1285.78 1486.25 1279.46 1486.25 Q1277.28 1486.25 1275.01 1485.88 Q1272.77 1485.51 1270.36 1484.77 L1270.36 1480.07 Q1272.45 1481.2 1274.67 1481.76 Q1276.89 1482.32 1279.37 1482.32 Q1283.37 1482.32 1285.71 1480.21 Q1288.05 1478.1 1288.05 1474.49 Q1288.05 1470.88 1285.71 1468.77 Q1283.37 1466.67 1279.37 1466.67 Q1277.49 1466.67 1275.62 1467.08 Q1273.76 1467.5 1271.82 1468.38 L1271.82 1451.02 Z" fill="#000000" fill-rule="nonzero" fill-opacity="1" /><path clip-path="url(#clip490)" d="M1301.94 1479.7 L1306.82 1479.7 L1306.82 1485.58 L1301.94 1485.58 L1301.94 1479.7 Z" fill="#000000" fill-rule="nonzero" fill-opacity="1" /><path clip-path="url(#clip490)" d="M1327.01 1454.1 Q1323.39 1454.1 1321.57 1457.66 Q1319.76 1461.2 1319.76 1468.33 Q1319.76 1475.44 1321.57 1479.01 Q1323.39 1482.55 1327.01 1482.55 Q1330.64 1482.55 1332.45 1479.01 Q1334.27 1475.44 1334.27 1468.33 Q1334.27 1461.2 1332.45 1457.66 Q1330.64 1454.1 1327.01 1454.1 M1327.01 1450.39 Q1332.82 1450.39 1335.87 1455 Q1338.95 1459.58 1338.95 1468.33 Q1338.95 1477.06 1335.87 1481.67 Q1332.82 1486.25 1327.01 1486.25 Q1321.2 1486.25 1318.12 1481.67 Q1315.06 1477.06 1315.06 1468.33 Q1315.06 1459.58 1318.12 1455 Q1321.2 1450.39 1327.01 1450.39 Z" fill="#000000" fill-rule="nonzero" fill-opacity="1" /><path clip-path="url(#clip490)" d="M1765.36 1451.02 L1787.58 1451.02 L1787.58 1453.01 L1775.04 1485.58 L1770.15 1485.58 L1781.96 1454.96 L1765.36 1454.96 L1765.36 1451.02 Z" fill="#000000" fill-rule="nonzero" fill-opacity="1" /><path clip-path="url(#clip490)" d="M1796.7 1479.7 L1801.59 1479.7 L1801.59 1485.58 L1796.7 1485.58 L1796.7 1479.7 Z" fill="#000000" fill-rule="nonzero" fill-opacity="1" /><path clip-path="url(#clip490)" d="M1811.82 1451.02 L1830.18 1451.02 L1830.18 1454.96 L1816.1 1454.96 L1816.1 1463.43 Q1817.12 1463.08 1818.14 1462.92 Q1819.16 1462.73 1820.18 1462.73 Q1825.96 1462.73 1829.34 1465.9 Q1832.72 1469.08 1832.72 1474.49 Q1832.72 1480.07 1829.25 1483.17 Q1825.78 1486.25 1819.46 1486.25 Q1817.28 1486.25 1815.01 1485.88 Q1812.77 1485.51 1810.36 1484.77 L1810.36 1480.07 Q1812.45 1481.2 1814.67 1481.76 Q1816.89 1482.32 1819.37 1482.32 Q1823.37 1482.32 1825.71 1480.21 Q1828.05 1478.1 1828.05 1474.49 Q1828.05 1470.88 1825.71 1468.77 Q1823.37 1466.67 1819.37 1466.67 Q1817.49 1466.67 1815.62 1467.08 Q1813.76 1467.5 1811.82 1468.38 L1811.82 1451.02 Z" fill="#000000" fill-rule="nonzero" fill-opacity="1" /><path clip-path="url(#clip490)" d="M2245.5 1481.64 L2253.14 1481.64 L2253.14 1455.28 L2244.83 1456.95 L2244.83 1452.69 L2253.09 1451.02 L2257.77 1451.02 L2257.77 1481.64 L2265.41 1481.64 L2265.41 1485.58 L2245.5 1485.58 L2245.5 1481.64 Z" fill="#000000" fill-rule="nonzero" fill-opacity="1" /><path clip-path="url(#clip490)" d="M2284.85 1454.1 Q2281.24 1454.1 2279.41 1457.66 Q2277.61 1461.2 2277.61 1468.33 Q2277.61 1475.44 2279.41 1479.01 Q2281.24 1482.55 2284.85 1482.55 Q2288.49 1482.55 2290.29 1479.01 Q2292.12 1475.44 2292.12 1468.33 Q2292.12 1461.2 2290.29 1457.66 Q2288.49 1454.1 2284.85 1454.1 M2284.85 1450.39 Q2290.66 1450.39 2293.72 1455 Q2296.8 1459.58 2296.8 1468.33 Q2296.8 1477.06 2293.72 1481.67 Q2290.66 1486.25 2284.85 1486.25 Q2279.04 1486.25 2275.96 1481.67 Q2272.91 1477.06 2272.91 1468.33 Q2272.91 1459.58 2275.96 1455 Q2279.04 1450.39 2284.85 1450.39 Z" fill="#000000" fill-rule="nonzero" fill-opacity="1" /><path clip-path="url(#clip490)" d="M2305.02 1479.7 L2309.9 1479.7 L2309.9 1485.58 L2305.02 1485.58 L2305.02 1479.7 Z" fill="#000000" fill-rule="nonzero" fill-opacity="1" /><path clip-path="url(#clip490)" d="M2330.08 1454.1 Q2326.47 1454.1 2324.64 1457.66 Q2322.84 1461.2 2322.84 1468.33 Q2322.84 1475.44 2324.64 1479.01 Q2326.47 1482.55 2330.08 1482.55 Q2333.72 1482.55 2335.52 1479.01 Q2337.35 1475.44 2337.35 1468.33 Q2337.35 1461.2 2335.52 1457.66 Q2333.72 1454.1 2330.08 1454.1 M2330.08 1450.39 Q2335.89 1450.39 2338.95 1455 Q2342.03 1459.58 2342.03 1468.33 Q2342.03 1477.06 2338.95 1481.67 Q2335.89 1486.25 2330.08 1486.25 Q2324.27 1486.25 2321.2 1481.67 Q2318.14 1477.06 2318.14 1468.33 Q2318.14 1459.58 2321.2 1455 Q2324.27 1450.39 2330.08 1450.39 Z" fill="#000000" fill-rule="nonzero" fill-opacity="1" /><path clip-path="url(#clip490)" d="M1252.97 1522.27 L1252.97 1532.4 L1265.03 1532.4 L1265.03 1536.95 L1252.97 1536.95 L1252.97 1556.3 Q1252.97 1560.66 1254.14 1561.9 Q1255.35 1563.14 1259.01 1563.14 L1265.03 1563.14 L1265.03 1568.04 L1259.01 1568.04 Q1252.23 1568.04 1249.66 1565.53 Q1247.08 1562.98 1247.08 1556.3 L1247.08 1536.95 L1242.78 1536.95 L1242.78 1532.4 L1247.08 1532.4 L1247.08 1522.27 L1252.97 1522.27 Z" fill="#000000" fill-rule="nonzero" fill-opacity="1" /><path clip-path="url(#clip490)" d="M1307.52 1518.58 Q1303.26 1525.9 1301.19 1533.06 Q1299.12 1540.23 1299.12 1547.58 Q1299.12 1554.93 1301.19 1562.16 Q1303.29 1569.35 1307.52 1576.64 L1302.43 1576.64 Q1297.65 1569.16 1295.27 1561.93 Q1292.91 1554.71 1292.91 1547.58 Q1292.91 1540.48 1295.27 1533.29 Q1297.62 1526.09 1302.43 1518.58 L1307.52 1518.58 Z" fill="#000000" fill-rule="nonzero" fill-opacity="1" /><path clip-path="url(#clip490)" d="M1341.61 1533.45 L1341.61 1538.98 Q1339.13 1537.71 1336.45 1537.07 Q1333.78 1536.44 1330.91 1536.44 Q1326.55 1536.44 1324.36 1537.77 Q1322.19 1539.11 1322.19 1541.79 Q1322.19 1543.82 1323.75 1545 Q1325.31 1546.15 1330.02 1547.2 L1332.03 1547.64 Q1338.27 1548.98 1340.88 1551.43 Q1343.52 1553.85 1343.52 1558.21 Q1343.52 1563.17 1339.57 1566.07 Q1335.66 1568.97 1328.78 1568.97 Q1325.92 1568.97 1322.8 1568.39 Q1319.71 1567.85 1316.27 1566.74 L1316.27 1560.69 Q1319.52 1562.38 1322.67 1563.24 Q1325.82 1564.07 1328.91 1564.07 Q1333.05 1564.07 1335.27 1562.66 Q1337.5 1561.23 1337.5 1558.65 Q1337.5 1556.27 1335.88 1554.99 Q1334.29 1553.72 1328.85 1552.54 L1326.81 1552.07 Q1321.37 1550.92 1318.95 1548.56 Q1316.53 1546.18 1316.53 1542.04 Q1316.53 1537.01 1320.09 1534.27 Q1323.66 1531.54 1330.21 1531.54 Q1333.46 1531.54 1336.33 1532.01 Q1339.19 1532.49 1341.61 1533.45 Z" fill="#000000" fill-rule="nonzero" fill-opacity="1" /><path clip-path="url(#clip490)" d="M1351.92 1518.58 L1357.01 1518.58 Q1361.79 1526.09 1364.14 1533.29 Q1366.53 1540.48 1366.53 1547.58 Q1366.53 1554.71 1364.14 1561.93 Q1361.79 1569.16 1357.01 1576.64 L1351.92 1576.64 Q1356.15 1569.35 1358.22 1562.16 Q1360.32 1554.93 1360.32 1547.58 Q1360.32 1540.23 1358.22 1533.06 Q1356.15 1525.9 1351.92 1518.58 Z" fill="#000000" fill-rule="nonzero" fill-opacity="1" /><polyline clip-path="url(#clip490)" style="stroke:#000000; stroke-linecap:round; stroke-linejoin:round; stroke-width:4; stroke-opacity:1; fill:none" points="256.556,1423.18 256.556,123.472 "/>
<polyline clip-path="url(#clip490)" style="stroke:#000000; stroke-linecap:round; stroke-linejoin:round; stroke-width:4; stroke-opacity:1; fill:none" points="256.556,1358.27 275.454,1358.27 "/>
<polyline clip-path="url(#clip490)" style="stroke:#000000; stroke-linecap:round; stroke-linejoin:round; stroke-width:4; stroke-opacity:1; fill:none" points="256.556,1163.21 275.454,1163.21 "/>
<polyline clip-path="url(#clip490)" style="stroke:#000000; stroke-linecap:round; stroke-linejoin:round; stroke-width:4; stroke-opacity:1; fill:none" points="256.556,968.139 275.454,968.139 "/>
<polyline clip-path="url(#clip490)" style="stroke:#000000; stroke-linecap:round; stroke-linejoin:round; stroke-width:4; stroke-opacity:1; fill:none" points="256.556,773.074 275.454,773.074 "/>
<polyline clip-path="url(#clip490)" style="stroke:#000000; stroke-linecap:round; stroke-linejoin:round; stroke-width:4; stroke-opacity:1; fill:none" points="256.556,578.008 275.454,578.008 "/>
<polyline clip-path="url(#clip490)" style="stroke:#000000; stroke-linecap:round; stroke-linejoin:round; stroke-width:4; stroke-opacity:1; fill:none" points="256.556,382.942 275.454,382.942 "/>
<polyline clip-path="url(#clip490)" style="stroke:#000000; stroke-linecap:round; stroke-linejoin:round; stroke-width:4; stroke-opacity:1; fill:none" points="256.556,187.876 275.454,187.876 "/>
<path clip-path="url(#clip490)" d="M114.26 1358.72 L143.936 1358.72 L143.936 1362.66 L114.26 1362.66 L114.26 1358.72 Z" fill="#000000" fill-rule="nonzero" fill-opacity="1" /><path clip-path="url(#clip490)" d="M164.028 1344.07 Q160.417 1344.07 158.589 1347.63 Q156.783 1351.18 156.783 1358.31 Q156.783 1365.41 158.589 1368.98 Q160.417 1372.52 164.028 1372.52 Q167.663 1372.52 169.468 1368.98 Q171.297 1365.41 171.297 1358.31 Q171.297 1351.18 169.468 1347.63 Q167.663 1344.07 164.028 1344.07 M164.028 1340.37 Q169.839 1340.37 172.894 1344.97 Q175.973 1349.56 175.973 1358.31 Q175.973 1367.03 172.894 1371.64 Q169.839 1376.22 164.028 1376.22 Q158.218 1376.22 155.14 1371.64 Q152.084 1367.03 152.084 1358.31 Q152.084 1349.56 155.14 1344.97 Q158.218 1340.37 164.028 1340.37 Z" fill="#000000" fill-rule="nonzero" fill-opacity="1" /><path clip-path="url(#clip490)" d="M184.19 1369.67 L189.075 1369.67 L189.075 1375.55 L184.19 1375.55 L184.19 1369.67 Z" fill="#000000" fill-rule="nonzero" fill-opacity="1" /><path clip-path="url(#clip490)" d="M213.426 1356.92 Q216.783 1357.63 218.658 1359.9 Q220.556 1362.17 220.556 1365.5 Q220.556 1370.62 217.037 1373.42 Q213.519 1376.22 207.037 1376.22 Q204.862 1376.22 202.547 1375.78 Q200.255 1375.37 197.801 1374.51 L197.801 1370 Q199.746 1371.13 202.061 1371.71 Q204.375 1372.29 206.899 1372.29 Q211.297 1372.29 213.588 1370.55 Q215.903 1368.82 215.903 1365.5 Q215.903 1362.45 213.75 1360.74 Q211.621 1359 207.801 1359 L203.774 1359 L203.774 1355.16 L207.987 1355.16 Q211.436 1355.16 213.264 1353.79 Q215.093 1352.4 215.093 1349.81 Q215.093 1347.15 213.195 1345.74 Q211.32 1344.3 207.801 1344.3 Q205.88 1344.3 203.681 1344.72 Q201.482 1345.13 198.843 1346.01 L198.843 1341.85 Q201.505 1341.11 203.82 1340.74 Q206.158 1340.37 208.218 1340.37 Q213.542 1340.37 216.644 1342.8 Q219.746 1345.2 219.746 1349.32 Q219.746 1352.19 218.102 1354.19 Q216.459 1356.15 213.426 1356.92 Z" fill="#000000" fill-rule="nonzero" fill-opacity="1" /><path clip-path="url(#clip490)" d="M115.209 1163.66 L144.885 1163.66 L144.885 1167.59 L115.209 1167.59 L115.209 1163.66 Z" fill="#000000" fill-rule="nonzero" fill-opacity="1" /><path clip-path="url(#clip490)" d="M164.977 1149 Q161.366 1149 159.538 1152.57 Q157.732 1156.11 157.732 1163.24 Q157.732 1170.35 159.538 1173.91 Q161.366 1177.45 164.977 1177.45 Q168.612 1177.45 170.417 1173.91 Q172.246 1170.35 172.246 1163.24 Q172.246 1156.11 170.417 1152.57 Q168.612 1149 164.977 1149 M164.977 1145.3 Q170.788 1145.3 173.843 1149.91 Q176.922 1154.49 176.922 1163.24 Q176.922 1171.97 173.843 1176.57 Q170.788 1181.16 164.977 1181.16 Q159.167 1181.16 156.089 1176.57 Q153.033 1171.97 153.033 1163.24 Q153.033 1154.49 156.089 1149.91 Q159.167 1145.3 164.977 1145.3 Z" fill="#000000" fill-rule="nonzero" fill-opacity="1" /><path clip-path="url(#clip490)" d="M185.139 1174.61 L190.024 1174.61 L190.024 1180.49 L185.139 1180.49 L185.139 1174.61 Z" fill="#000000" fill-rule="nonzero" fill-opacity="1" /><path clip-path="url(#clip490)" d="M204.237 1176.55 L220.556 1176.55 L220.556 1180.49 L198.612 1180.49 L198.612 1176.55 Q201.274 1173.8 205.857 1169.17 Q210.463 1164.51 211.644 1163.17 Q213.889 1160.65 214.769 1158.91 Q215.672 1157.15 215.672 1155.46 Q215.672 1152.71 213.727 1150.97 Q211.806 1149.24 208.704 1149.24 Q206.505 1149.24 204.051 1150 Q201.621 1150.76 198.843 1152.31 L198.843 1147.59 Q201.667 1146.46 204.121 1145.88 Q206.574 1145.3 208.612 1145.3 Q213.982 1145.3 217.176 1147.99 Q220.371 1150.67 220.371 1155.16 Q220.371 1157.29 219.561 1159.21 Q218.773 1161.11 216.667 1163.7 Q216.088 1164.37 212.986 1167.59 Q209.885 1170.79 204.237 1176.55 Z" fill="#000000" fill-rule="nonzero" fill-opacity="1" /><path clip-path="url(#clip490)" d="M114.839 968.591 L144.515 968.591 L144.515 972.526 L114.839 972.526 L114.839 968.591 Z" fill="#000000" fill-rule="nonzero" fill-opacity="1" /><path clip-path="url(#clip490)" d="M164.607 953.938 Q160.996 953.938 159.167 957.503 Q157.362 961.045 157.362 968.174 Q157.362 975.281 159.167 978.845 Q160.996 982.387 164.607 982.387 Q168.241 982.387 170.047 978.845 Q171.876 975.281 171.876 968.174 Q171.876 961.045 170.047 957.503 Q168.241 953.938 164.607 953.938 M164.607 950.234 Q170.417 950.234 173.473 954.841 Q176.551 959.424 176.551 968.174 Q176.551 976.901 173.473 981.507 Q170.417 986.091 164.607 986.091 Q158.797 986.091 155.718 981.507 Q152.663 976.901 152.663 968.174 Q152.663 959.424 155.718 954.841 Q158.797 950.234 164.607 950.234 Z" fill="#000000" fill-rule="nonzero" fill-opacity="1" /><path clip-path="url(#clip490)" d="M184.769 979.54 L189.653 979.54 L189.653 985.419 L184.769 985.419 L184.769 979.54 Z" fill="#000000" fill-rule="nonzero" fill-opacity="1" /><path clip-path="url(#clip490)" d="M200.649 981.484 L208.287 981.484 L208.287 955.119 L199.977 956.785 L199.977 952.526 L208.241 950.859 L212.917 950.859 L212.917 981.484 L220.556 981.484 L220.556 985.419 L200.649 985.419 L200.649 981.484 Z" fill="#000000" fill-rule="nonzero" fill-opacity="1" /><path clip-path="url(#clip490)" d="M163.38 758.872 Q159.769 758.872 157.94 762.437 Q156.135 765.979 156.135 773.108 Q156.135 780.215 157.94 783.78 Q159.769 787.321 163.38 787.321 Q167.015 787.321 168.82 783.78 Q170.649 780.215 170.649 773.108 Q170.649 765.979 168.82 762.437 Q167.015 758.872 163.38 758.872 M163.38 755.169 Q169.19 755.169 172.246 759.775 Q175.325 764.358 175.325 773.108 Q175.325 781.835 172.246 786.442 Q169.19 791.025 163.38 791.025 Q157.57 791.025 154.491 786.442 Q151.436 781.835 151.436 773.108 Q151.436 764.358 154.491 759.775 Q157.57 755.169 163.38 755.169 Z" fill="#000000" fill-rule="nonzero" fill-opacity="1" /><path clip-path="url(#clip490)" d="M183.542 784.474 L188.426 784.474 L188.426 790.354 L183.542 790.354 L183.542 784.474 Z" fill="#000000" fill-rule="nonzero" fill-opacity="1" /><path clip-path="url(#clip490)" d="M208.612 758.872 Q205 758.872 203.172 762.437 Q201.366 765.979 201.366 773.108 Q201.366 780.215 203.172 783.78 Q205 787.321 208.612 787.321 Q212.246 787.321 214.051 783.78 Q215.88 780.215 215.88 773.108 Q215.88 765.979 214.051 762.437 Q212.246 758.872 208.612 758.872 M208.612 755.169 Q214.422 755.169 217.477 759.775 Q220.556 764.358 220.556 773.108 Q220.556 781.835 217.477 786.442 Q214.422 791.025 208.612 791.025 Q202.801 791.025 199.723 786.442 Q196.667 781.835 196.667 773.108 Q196.667 764.358 199.723 759.775 Q202.801 755.169 208.612 755.169 Z" fill="#000000" fill-rule="nonzero" fill-opacity="1" /><path clip-path="url(#clip490)" d="M164.607 563.807 Q160.996 563.807 159.167 567.371 Q157.362 570.913 157.362 578.043 Q157.362 585.149 159.167 588.714 Q160.996 592.255 164.607 592.255 Q168.241 592.255 170.047 588.714 Q171.876 585.149 171.876 578.043 Q171.876 570.913 170.047 567.371 Q168.241 563.807 164.607 563.807 M164.607 560.103 Q170.417 560.103 173.473 564.709 Q176.551 569.293 176.551 578.043 Q176.551 586.769 173.473 591.376 Q170.417 595.959 164.607 595.959 Q158.797 595.959 155.718 591.376 Q152.663 586.769 152.663 578.043 Q152.663 569.293 155.718 564.709 Q158.797 560.103 164.607 560.103 Z" fill="#000000" fill-rule="nonzero" fill-opacity="1" /><path clip-path="url(#clip490)" d="M184.769 589.408 L189.653 589.408 L189.653 595.288 L184.769 595.288 L184.769 589.408 Z" fill="#000000" fill-rule="nonzero" fill-opacity="1" /><path clip-path="url(#clip490)" d="M200.649 591.353 L208.287 591.353 L208.287 564.987 L199.977 566.654 L199.977 562.394 L208.241 560.728 L212.917 560.728 L212.917 591.353 L220.556 591.353 L220.556 595.288 L200.649 595.288 L200.649 591.353 Z" fill="#000000" fill-rule="nonzero" fill-opacity="1" /><path clip-path="url(#clip490)" d="M164.977 368.741 Q161.366 368.741 159.538 372.305 Q157.732 375.847 157.732 382.977 Q157.732 390.083 159.538 393.648 Q161.366 397.19 164.977 397.19 Q168.612 397.19 170.417 393.648 Q172.246 390.083 172.246 382.977 Q172.246 375.847 170.417 372.305 Q168.612 368.741 164.977 368.741 M164.977 365.037 Q170.788 365.037 173.843 369.643 Q176.922 374.227 176.922 382.977 Q176.922 391.704 173.843 396.31 Q170.788 400.893 164.977 400.893 Q159.167 400.893 156.089 396.31 Q153.033 391.704 153.033 382.977 Q153.033 374.227 156.089 369.643 Q159.167 365.037 164.977 365.037 Z" fill="#000000" fill-rule="nonzero" fill-opacity="1" /><path clip-path="url(#clip490)" d="M185.139 394.342 L190.024 394.342 L190.024 400.222 L185.139 400.222 L185.139 394.342 Z" fill="#000000" fill-rule="nonzero" fill-opacity="1" /><path clip-path="url(#clip490)" d="M204.237 396.287 L220.556 396.287 L220.556 400.222 L198.612 400.222 L198.612 396.287 Q201.274 393.532 205.857 388.903 Q210.463 384.25 211.644 382.907 Q213.889 380.384 214.769 378.648 Q215.672 376.889 215.672 375.199 Q215.672 372.444 213.727 370.708 Q211.806 368.972 208.704 368.972 Q206.505 368.972 204.051 369.736 Q201.621 370.5 198.843 372.051 L198.843 367.329 Q201.667 366.194 204.121 365.616 Q206.574 365.037 208.612 365.037 Q213.982 365.037 217.176 367.722 Q220.371 370.407 220.371 374.898 Q220.371 377.028 219.561 378.949 Q218.773 380.847 216.667 383.44 Q216.088 384.111 212.986 387.329 Q209.885 390.523 204.237 396.287 Z" fill="#000000" fill-rule="nonzero" fill-opacity="1" /><path clip-path="url(#clip490)" d="M164.028 173.675 Q160.417 173.675 158.589 177.24 Q156.783 180.781 156.783 187.911 Q156.783 195.017 158.589 198.582 Q160.417 202.124 164.028 202.124 Q167.663 202.124 169.468 198.582 Q171.297 195.017 171.297 187.911 Q171.297 180.781 169.468 177.24 Q167.663 173.675 164.028 173.675 M164.028 169.971 Q169.839 169.971 172.894 174.578 Q175.973 179.161 175.973 187.911 Q175.973 196.638 172.894 201.244 Q169.839 205.827 164.028 205.827 Q158.218 205.827 155.14 201.244 Q152.084 196.638 152.084 187.911 Q152.084 179.161 155.14 174.578 Q158.218 169.971 164.028 169.971 Z" fill="#000000" fill-rule="nonzero" fill-opacity="1" /><path clip-path="url(#clip490)" d="M184.19 199.277 L189.075 199.277 L189.075 205.156 L184.19 205.156 L184.19 199.277 Z" fill="#000000" fill-rule="nonzero" fill-opacity="1" /><path clip-path="url(#clip490)" d="M213.426 186.522 Q216.783 187.24 218.658 189.508 Q220.556 191.777 220.556 195.11 Q220.556 200.226 217.037 203.027 Q213.519 205.827 207.037 205.827 Q204.862 205.827 202.547 205.388 Q200.255 204.971 197.801 204.115 L197.801 199.601 Q199.746 200.735 202.061 201.314 Q204.375 201.892 206.899 201.892 Q211.297 201.892 213.588 200.156 Q215.903 198.42 215.903 195.11 Q215.903 192.054 213.75 190.341 Q211.621 188.605 207.801 188.605 L203.774 188.605 L203.774 184.763 L207.987 184.763 Q211.436 184.763 213.264 183.397 Q215.093 182.008 215.093 179.416 Q215.093 176.754 213.195 175.342 Q211.32 173.906 207.801 173.906 Q205.88 173.906 203.681 174.323 Q201.482 174.74 198.843 175.619 L198.843 171.453 Q201.505 170.712 203.82 170.342 Q206.158 169.971 208.218 169.971 Q213.542 169.971 216.644 172.402 Q219.746 174.809 219.746 178.929 Q219.746 181.8 218.102 183.791 Q216.459 185.758 213.426 186.522 Z" fill="#000000" fill-rule="nonzero" fill-opacity="1" /><path clip-path="url(#clip490)" d="M16.4842 838.59 L16.4842 829.933 L56.238 808.863 L16.4842 808.863 L16.4842 802.624 L64.0042 802.624 L64.0042 811.282 L24.2503 832.352 L64.0042 832.352 L64.0042 838.59 L16.4842 838.59 Z" fill="#000000" fill-rule="nonzero" fill-opacity="1" /><path clip-path="url(#clip490)" d="M28.3562 790.084 L28.3562 784.227 L64.0042 784.227 L64.0042 790.084 L28.3562 790.084 M14.479 790.084 L14.479 784.227 L21.895 784.227 L21.895 790.084 L14.479 790.084 Z" fill="#000000" fill-rule="nonzero" fill-opacity="1" /><path clip-path="url(#clip490)" d="M14.479 771.973 L14.479 766.117 L64.0042 766.117 L64.0042 771.973 L14.479 771.973 Z" fill="#000000" fill-rule="nonzero" fill-opacity="1" /><path clip-path="url(#clip490)" d="M46.0847 737.662 Q46.0847 744.76 47.7079 747.497 Q49.3312 750.234 53.2461 750.234 Q56.3653 750.234 58.2114 748.197 Q60.0256 746.129 60.0256 742.596 Q60.0256 737.726 56.5881 734.798 Q53.1188 731.837 47.3897 731.837 L46.0847 731.837 L46.0847 737.662 M43.6657 725.981 L64.0042 725.981 L64.0042 731.837 L58.5933 731.837 Q61.8398 733.843 63.3994 736.835 Q64.9272 739.826 64.9272 744.155 Q64.9272 749.63 61.8716 752.876 Q58.7843 756.091 53.6281 756.091 Q47.6125 756.091 44.5569 752.08 Q41.5014 748.038 41.5014 740.049 L41.5014 731.837 L40.9285 731.837 Q36.8862 731.837 34.6901 734.511 Q32.4621 737.153 32.4621 741.959 Q32.4621 745.015 33.1941 747.911 Q33.9262 750.807 35.3903 753.481 L29.9795 753.481 Q28.7381 750.266 28.1334 747.243 Q27.4968 744.219 27.4968 741.354 Q27.4968 733.62 31.5072 729.8 Q35.5176 725.981 43.6657 725.981 Z" fill="#000000" fill-rule="nonzero" fill-opacity="1" /><path clip-path="url(#clip490)" d="M28.3562 713.918 L28.3562 708.062 L64.0042 708.062 L64.0042 713.918 L28.3562 713.918 M14.479 713.918 L14.479 708.062 L21.895 708.062 L21.895 713.918 L14.479 713.918 Z" fill="#000000" fill-rule="nonzero" fill-opacity="1" /><path clip-path="url(#clip490)" d="M704.251 12.096 L716.444 12.096 L731.878 53.2532 L747.393 12.096 L759.586 12.096 L759.586 72.576 L751.606 72.576 L751.606 19.4686 L736.01 60.9499 L727.787 60.9499 L712.191 19.4686 L712.191 72.576 L704.251 72.576 L704.251 12.096 Z" fill="#000000" fill-rule="nonzero" fill-opacity="1" /><path clip-path="url(#clip490)" d="M814.314 48.0275 L814.314 51.6733 L780.044 51.6733 Q780.53 59.3701 784.662 63.421 Q788.834 67.4314 796.247 67.4314 Q800.541 67.4314 804.552 66.3781 Q808.602 65.3249 812.572 63.2184 L812.572 70.267 Q808.562 71.9684 804.349 72.8596 Q800.136 73.7508 795.802 73.7508 Q784.945 73.7508 778.585 67.4314 Q772.266 61.1119 772.266 50.3365 Q772.266 39.1965 778.261 32.6746 Q784.297 26.1121 794.505 26.1121 Q803.66 26.1121 808.967 32.0264 Q814.314 37.9003 814.314 48.0275 M806.861 45.84 Q806.78 39.7232 803.417 36.0774 Q800.096 32.4315 794.586 32.4315 Q788.348 32.4315 784.581 35.9558 Q780.854 39.4801 780.287 45.8805 L806.861 45.84 Z" fill="#000000" fill-rule="nonzero" fill-opacity="1" /><path clip-path="url(#clip490)" d="M833.921 14.324 L833.921 27.2059 L849.273 27.2059 L849.273 32.9987 L833.921 32.9987 L833.921 57.6282 Q833.921 63.1779 835.419 64.7578 Q836.959 66.3376 841.617 66.3376 L849.273 66.3376 L849.273 72.576 L841.617 72.576 Q832.989 72.576 829.708 69.3758 Q826.426 66.1351 826.426 57.6282 L826.426 32.9987 L820.958 32.9987 L820.958 27.2059 L826.426 27.2059 L826.426 14.324 L833.921 14.324 Z" fill="#000000" fill-rule="nonzero" fill-opacity="1" /><path clip-path="url(#clip490)" d="M876.658 32.4315 Q870.662 32.4315 867.178 37.1306 Q863.695 41.7891 863.695 49.9314 Q863.695 58.0738 867.138 62.7728 Q870.622 67.4314 876.658 67.4314 Q882.612 67.4314 886.096 62.7323 Q889.58 58.0333 889.58 49.9314 Q889.58 41.8701 886.096 37.1711 Q882.612 32.4315 876.658 32.4315 M876.658 26.1121 Q886.38 26.1121 891.93 32.4315 Q897.479 38.7509 897.479 49.9314 Q897.479 61.0714 891.93 67.4314 Q886.38 73.7508 876.658 73.7508 Q866.895 73.7508 861.345 67.4314 Q855.836 61.0714 855.836 49.9314 Q855.836 38.7509 861.345 32.4315 Q866.895 26.1121 876.658 26.1121 Z" fill="#000000" fill-rule="nonzero" fill-opacity="1" /><path clip-path="url(#clip490)" d="M939.69 34.0924 L939.69 9.54393 L947.143 9.54393 L947.143 72.576 L939.69 72.576 L939.69 65.7705 Q937.34 69.8214 933.735 71.8063 Q930.17 73.7508 925.147 73.7508 Q916.924 73.7508 911.738 67.1883 Q906.594 60.6258 906.594 49.9314 Q906.594 39.2371 911.738 32.6746 Q916.924 26.1121 925.147 26.1121 Q930.17 26.1121 933.735 28.0971 Q937.34 30.0415 939.69 34.0924 M914.291 49.9314 Q914.291 58.1548 917.653 62.8538 Q921.056 67.5124 926.97 67.5124 Q932.884 67.5124 936.287 62.8538 Q939.69 58.1548 939.69 49.9314 Q939.69 41.7081 936.287 37.0496 Q932.884 32.3505 926.97 32.3505 Q921.056 32.3505 917.653 37.0496 Q914.291 41.7081 914.291 49.9314 Z" fill="#000000" fill-rule="nonzero" fill-opacity="1" /><path clip-path="url(#clip490)" d="M1001.3 48.0275 L1001.3 51.6733 L967.033 51.6733 Q967.519 59.3701 971.651 63.421 Q975.824 67.4314 983.237 67.4314 Q987.531 67.4314 991.541 66.3781 Q995.592 65.3249 999.562 63.2184 L999.562 70.267 Q995.552 71.9684 991.339 72.8596 Q987.126 73.7508 982.791 73.7508 Q971.935 73.7508 965.575 67.4314 Q959.256 61.1119 959.256 50.3365 Q959.256 39.1965 965.251 32.6746 Q971.287 26.1121 981.495 26.1121 Q990.65 26.1121 995.957 32.0264 Q1001.3 37.9003 1001.3 48.0275 M993.85 45.84 Q993.769 39.7232 990.407 36.0774 Q987.085 32.4315 981.576 32.4315 Q975.338 32.4315 971.57 35.9558 Q967.843 39.4801 967.276 45.8805 L993.85 45.84 Z" fill="#000000" fill-rule="nonzero" fill-opacity="1" /><path clip-path="url(#clip490)" d="M1068.91 44.2197 Q1071.55 45.1109 1074.02 48.0275 Q1076.53 50.9442 1079.04 56.0483 L1087.35 72.576 L1078.55 72.576 L1070.82 57.061 Q1067.82 50.9847 1064.98 48.9997 Q1062.19 47.0148 1057.33 47.0148 L1048.42 47.0148 L1048.42 72.576 L1040.23 72.576 L1040.23 12.096 L1058.71 12.096 Q1069.08 12.096 1074.18 16.4305 Q1079.28 20.7649 1079.28 29.5149 Q1079.28 35.2267 1076.61 38.994 Q1073.98 42.7613 1068.91 44.2197 M1048.42 18.8205 L1048.42 40.2903 L1058.71 40.2903 Q1064.62 40.2903 1067.62 37.5762 Q1070.66 34.8216 1070.66 29.5149 Q1070.66 24.2082 1067.62 21.5346 Q1064.62 18.8205 1058.71 18.8205 L1048.42 18.8205 Z" fill="#000000" fill-rule="nonzero" fill-opacity="1" /><path clip-path="url(#clip490)" d="M1093.06 54.671 L1093.06 27.2059 L1100.51 27.2059 L1100.51 54.3874 Q1100.51 60.8284 1103.02 64.0691 Q1105.53 67.2693 1110.56 67.2693 Q1116.59 67.2693 1120.08 63.421 Q1123.6 59.5726 1123.6 52.9291 L1123.6 27.2059 L1131.05 27.2059 L1131.05 72.576 L1123.6 72.576 L1123.6 65.6084 Q1120.89 69.7404 1117.28 71.7658 Q1113.72 73.7508 1108.98 73.7508 Q1101.16 73.7508 1097.11 68.8897 Q1093.06 64.0286 1093.06 54.671 M1111.81 26.1121 L1111.81 26.1121 Z" fill="#000000" fill-rule="nonzero" fill-opacity="1" /><path clip-path="url(#clip490)" d="M1184.12 45.1919 L1184.12 72.576 L1176.67 72.576 L1176.67 45.4349 Q1176.67 38.994 1174.16 35.7938 Q1171.64 32.5936 1166.62 32.5936 Q1160.59 32.5936 1157.1 36.4419 Q1153.62 40.2903 1153.62 46.9338 L1153.62 72.576 L1146.12 72.576 L1146.12 27.2059 L1153.62 27.2059 L1153.62 34.2544 Q1156.29 30.163 1159.9 28.1376 Q1163.54 26.1121 1168.28 26.1121 Q1176.1 26.1121 1180.11 30.9732 Q1184.12 35.7938 1184.12 45.1919 Z" fill="#000000" fill-rule="nonzero" fill-opacity="1" /><path clip-path="url(#clip490)" d="M1228.84 49.3643 Q1228.84 41.2625 1225.48 36.8065 Q1222.16 32.3505 1216.12 32.3505 Q1210.13 32.3505 1206.77 36.8065 Q1203.44 41.2625 1203.44 49.3643 Q1203.44 57.4256 1206.77 61.8816 Q1210.13 66.3376 1216.12 66.3376 Q1222.16 66.3376 1225.48 61.8816 Q1228.84 57.4256 1228.84 49.3643 M1236.3 66.9452 Q1236.3 78.5308 1231.15 84.1616 Q1226.01 89.8329 1215.39 89.8329 Q1211.46 89.8329 1207.98 89.2252 Q1204.5 88.6581 1201.22 87.4428 L1201.22 80.1917 Q1204.5 81.9741 1207.7 82.8248 Q1210.9 83.6755 1214.22 83.6755 Q1221.55 83.6755 1225.2 79.8271 Q1228.84 76.0193 1228.84 68.282 L1228.84 64.5957 Q1226.53 68.6061 1222.93 70.5911 Q1219.32 72.576 1214.3 72.576 Q1205.96 72.576 1200.85 66.2161 Q1195.75 59.8562 1195.75 49.3643 Q1195.75 38.832 1200.85 32.472 Q1205.96 26.1121 1214.3 26.1121 Q1219.32 26.1121 1222.93 28.0971 Q1226.53 30.082 1228.84 34.0924 L1228.84 27.2059 L1236.3 27.2059 L1236.3 66.9452 Z" fill="#000000" fill-rule="nonzero" fill-opacity="1" /><path clip-path="url(#clip490)" d="M1290.46 48.0275 L1290.46 51.6733 L1256.19 51.6733 Q1256.67 59.3701 1260.8 63.421 Q1264.98 67.4314 1272.39 67.4314 Q1276.68 67.4314 1280.69 66.3781 Q1284.75 65.3249 1288.72 63.2184 L1288.72 70.267 Q1284.71 71.9684 1280.49 72.8596 Q1276.28 73.7508 1271.94 73.7508 Q1261.09 73.7508 1254.73 67.4314 Q1248.41 61.1119 1248.41 50.3365 Q1248.41 39.1965 1254.4 32.6746 Q1260.44 26.1121 1270.65 26.1121 Q1279.8 26.1121 1285.11 32.0264 Q1290.46 37.9003 1290.46 48.0275 M1283 45.84 Q1282.92 39.7232 1279.56 36.0774 Q1276.24 32.4315 1270.73 32.4315 Q1264.49 32.4315 1260.72 35.9558 Q1257 39.4801 1256.43 45.8805 L1283 45.84 Z" fill="#000000" fill-rule="nonzero" fill-opacity="1" /><path clip-path="url(#clip490)" d="M1298.92 46.5287 L1320.76 46.5287 L1320.76 53.1722 L1298.92 53.1722 L1298.92 46.5287 Z" fill="#000000" fill-rule="nonzero" fill-opacity="1" /><path clip-path="url(#clip490)" d="M1332.95 12.096 L1341.13 12.096 L1341.13 37.6572 L1368.28 12.096 L1378.81 12.096 L1348.79 40.2903 L1380.95 72.576 L1370.18 72.576 L1341.13 43.45 L1341.13 72.576 L1332.95 72.576 L1332.95 12.096 Z" fill="#000000" fill-rule="nonzero" fill-opacity="1" /><path clip-path="url(#clip490)" d="M1382.13 54.671 L1382.13 27.2059 L1389.58 27.2059 L1389.58 54.3874 Q1389.58 60.8284 1392.09 64.0691 Q1394.61 67.2693 1399.63 67.2693 Q1405.67 67.2693 1409.15 63.421 Q1412.67 59.5726 1412.67 52.9291 L1412.67 27.2059 L1420.13 27.2059 L1420.13 72.576 L1412.67 72.576 L1412.67 65.6084 Q1409.96 69.7404 1406.35 71.7658 Q1402.79 73.7508 1398.05 73.7508 Q1390.23 73.7508 1386.18 68.8897 Q1382.13 64.0286 1382.13 54.671 M1400.89 26.1121 L1400.89 26.1121 Z" fill="#000000" fill-rule="nonzero" fill-opacity="1" /><path clip-path="url(#clip490)" d="M1442.85 14.324 L1442.85 27.2059 L1458.21 27.2059 L1458.21 32.9987 L1442.85 32.9987 L1442.85 57.6282 Q1442.85 63.1779 1444.35 64.7578 Q1445.89 66.3376 1450.55 66.3376 L1458.21 66.3376 L1458.21 72.576 L1450.55 72.576 Q1441.92 72.576 1438.64 69.3758 Q1435.36 66.1351 1435.36 57.6282 L1435.36 32.9987 L1429.89 32.9987 L1429.89 27.2059 L1435.36 27.2059 L1435.36 14.324 L1442.85 14.324 Z" fill="#000000" fill-rule="nonzero" fill-opacity="1" /><path clip-path="url(#clip490)" d="M1475.38 14.324 L1475.38 27.2059 L1490.73 27.2059 L1490.73 32.9987 L1475.38 32.9987 L1475.38 57.6282 Q1475.38 63.1779 1476.88 64.7578 Q1478.42 66.3376 1483.08 66.3376 L1490.73 66.3376 L1490.73 72.576 L1483.08 72.576 Q1474.45 72.576 1471.17 69.3758 Q1467.89 66.1351 1467.89 57.6282 L1467.89 32.9987 L1462.42 32.9987 L1462.42 27.2059 L1467.89 27.2059 L1467.89 14.324 L1475.38 14.324 Z" fill="#000000" fill-rule="nonzero" fill-opacity="1" /><path clip-path="url(#clip490)" d="M1521.16 49.7694 Q1512.12 49.7694 1508.64 51.8354 Q1505.16 53.9013 1505.16 58.8839 Q1505.16 62.8538 1507.75 65.2034 Q1510.38 67.5124 1514.88 67.5124 Q1521.08 67.5124 1524.8 63.1374 Q1528.57 58.7219 1528.57 51.4303 L1528.57 49.7694 L1521.16 49.7694 M1536.02 46.6907 L1536.02 72.576 L1528.57 72.576 L1528.57 65.6895 Q1526.02 69.8214 1522.21 71.8063 Q1518.4 73.7508 1512.89 73.7508 Q1505.93 73.7508 1501.79 69.8619 Q1497.7 65.9325 1497.7 59.3701 Q1497.7 51.7138 1502.81 47.825 Q1507.95 43.9361 1518.12 43.9361 L1528.57 43.9361 L1528.57 43.2069 Q1528.57 38.0623 1525.17 35.2672 Q1521.8 32.4315 1515.69 32.4315 Q1511.8 32.4315 1508.11 33.3632 Q1504.43 34.295 1501.02 36.1584 L1501.02 29.2718 Q1505.11 27.692 1508.96 26.9223 Q1512.81 26.1121 1516.46 26.1121 Q1526.3 26.1121 1531.16 31.2163 Q1536.02 36.3204 1536.02 46.6907 Z" fill="#000000" fill-rule="nonzero" fill-opacity="1" /><path clip-path="url(#clip490)" d="M1553.28 62.2867 L1561.83 62.2867 L1561.83 72.576 L1553.28 72.576 L1553.28 62.2867 M1553.28 29.6769 L1561.83 29.6769 L1561.83 39.9662 L1553.28 39.9662 L1553.28 29.6769 Z" fill="#000000" fill-rule="nonzero" fill-opacity="1" /><path clip-path="url(#clip490)" d="M1630.57 17.6457 Q1621.66 17.6457 1616.39 24.2892 Q1611.17 30.9327 1611.17 42.3968 Q1611.17 53.8203 1616.39 60.4638 Q1621.66 67.1073 1630.57 67.1073 Q1639.48 67.1073 1644.67 60.4638 Q1649.89 53.8203 1649.89 42.3968 Q1649.89 30.9327 1644.67 24.2892 Q1639.48 17.6457 1630.57 17.6457 M1630.57 11.0023 Q1643.29 11.0023 1650.91 19.5497 Q1658.52 28.0566 1658.52 42.3968 Q1658.52 56.6965 1650.91 65.2439 Q1643.29 73.7508 1630.57 73.7508 Q1617.81 73.7508 1610.15 65.2439 Q1602.54 56.737 1602.54 42.3968 Q1602.54 28.0566 1610.15 19.5497 Q1617.81 11.0023 1630.57 11.0023 Z" fill="#000000" fill-rule="nonzero" fill-opacity="1" /><path clip-path="url(#clip490)" d="M1697.29 34.1734 Q1696.03 33.4443 1694.54 33.1202 Q1693.08 32.7556 1691.29 32.7556 Q1684.98 32.7556 1681.57 36.8875 Q1678.21 40.9789 1678.21 48.6757 L1678.21 72.576 L1670.72 72.576 L1670.72 27.2059 L1678.21 27.2059 L1678.21 34.2544 Q1680.56 30.1225 1684.33 28.1376 Q1688.09 26.1121 1693.48 26.1121 Q1694.25 26.1121 1695.18 26.2337 Q1696.12 26.3147 1697.25 26.5172 L1697.29 34.1734 Z" fill="#000000" fill-rule="nonzero" fill-opacity="1" /><path clip-path="url(#clip490)" d="M1733.5 34.0924 L1733.5 9.54393 L1740.96 9.54393 L1740.96 72.576 L1733.5 72.576 L1733.5 65.7705 Q1731.16 69.8214 1727.55 71.8063 Q1723.99 73.7508 1718.96 73.7508 Q1710.74 73.7508 1705.55 67.1883 Q1700.41 60.6258 1700.41 49.9314 Q1700.41 39.2371 1705.55 32.6746 Q1710.74 26.1121 1718.96 26.1121 Q1723.99 26.1121 1727.55 28.0971 Q1731.16 30.0415 1733.5 34.0924 M1708.11 49.9314 Q1708.11 58.1548 1711.47 62.8538 Q1714.87 67.5124 1720.79 67.5124 Q1726.7 67.5124 1730.1 62.8538 Q1733.5 58.1548 1733.5 49.9314 Q1733.5 41.7081 1730.1 37.0496 Q1726.7 32.3505 1720.79 32.3505 Q1714.87 32.3505 1711.47 37.0496 Q1708.11 41.7081 1708.11 49.9314 Z" fill="#000000" fill-rule="nonzero" fill-opacity="1" /><path clip-path="url(#clip490)" d="M1795.12 48.0275 L1795.12 51.6733 L1760.85 51.6733 Q1761.33 59.3701 1765.47 63.421 Q1769.64 67.4314 1777.05 67.4314 Q1781.35 67.4314 1785.36 66.3781 Q1789.41 65.3249 1793.38 63.2184 L1793.38 70.267 Q1789.37 71.9684 1785.15 72.8596 Q1780.94 73.7508 1776.61 73.7508 Q1765.75 73.7508 1759.39 67.4314 Q1753.07 61.1119 1753.07 50.3365 Q1753.07 39.1965 1759.07 32.6746 Q1765.1 26.1121 1775.31 26.1121 Q1784.47 26.1121 1789.77 32.0264 Q1795.12 37.9003 1795.12 48.0275 M1787.67 45.84 Q1787.58 39.7232 1784.22 36.0774 Q1780.9 32.4315 1775.39 32.4315 Q1769.15 32.4315 1765.39 35.9558 Q1761.66 39.4801 1761.09 45.8805 L1787.67 45.84 Z" fill="#000000" fill-rule="nonzero" fill-opacity="1" /><path clip-path="url(#clip490)" d="M1841.83 65.6895 L1870.38 65.6895 L1870.38 72.576 L1831.98 72.576 L1831.98 65.6895 Q1836.64 60.8689 1844.66 52.7671 Q1852.72 44.6248 1854.79 42.2752 Q1858.72 37.8598 1860.26 34.8216 Q1861.84 31.7429 1861.84 28.7857 Q1861.84 23.9651 1858.43 20.927 Q1855.07 17.8888 1849.64 17.8888 Q1845.8 17.8888 1841.5 19.2256 Q1837.25 20.5624 1832.39 23.2765 L1832.39 15.0127 Q1837.33 13.0277 1841.62 12.015 Q1845.92 11.0023 1849.48 11.0023 Q1858.88 11.0023 1864.47 15.7013 Q1870.06 20.4004 1870.06 28.2591 Q1870.06 31.9859 1868.64 35.3482 Q1867.27 38.6699 1863.58 43.2069 Q1862.57 44.3817 1857.14 50.0125 Q1851.71 55.6027 1841.83 65.6895 Z" fill="#000000" fill-rule="nonzero" fill-opacity="1" /><polyline clip-path="url(#clip491)" style="stroke:#009af9; stroke-linecap:round; stroke-linejoin:round; stroke-width:8; stroke-opacity:1; fill:none" points="315.882,160.256 335.858,163.331 355.833,172.542 375.808,187.798 395.783,208.952 415.758,235.795 435.734,268.066 455.709,305.445 475.684,347.563 495.659,394 515.635,444.291 535.61,497.931 555.585,554.378 575.56,613.059 595.535,673.376 615.511,734.715 635.486,796.447 655.461,857.942 675.436,918.571 695.412,977.714 715.387,1034.77 735.362,1089.16 755.337,1140.33 775.312,1187.76 795.288,1230.99 815.263,1269.58 835.238,1303.14 855.213,1331.35 875.189,1353.93 895.164,1370.65 915.139,1381.36 935.114,1385.95 955.089,1384.37 975.065,1376.64 995.04,1362.84 1015.02,1343.09 1034.99,1317.6 1054.97,1286.61 1074.94,1250.43 1094.92,1209.41 1114.89,1163.96 1134.87,1114.54 1154.84,1061.65 1174.82,1005.81 1194.79,947.592 1214.77,887.593 1234.74,826.421 1254.72,764.702 1274.69,703.067 1294.67,642.146 1314.64,582.563 1334.62,524.923 1354.59,469.814 1374.57,417.793 1394.54,369.385 1414.52,325.075 1434.49,285.308 1454.47,250.476 1474.45,220.926 1494.42,196.947 1514.4,178.775 1534.37,166.588 1554.35,160.503 1574.32,160.582 1594.3,166.822 1614.27,179.164 1634.25,197.488 1654.22,221.613 1674.2,251.305 1694.17,286.271 1714.15,326.166 1734.12,370.593 1754.1,419.11 1774.07,471.228 1794.05,526.423 1814.02,584.136 1834,643.781 1853.97,704.748 1873.95,766.417 1893.93,828.155 1913.9,889.331 1933.88,949.32 1953.85,1007.51 1973.83,1063.31 1993.8,1116.15 2013.78,1165.5 2033.75,1210.87 2053.73,1251.8 2073.7,1287.88 2093.68,1318.75 2113.65,1344.12 2133.63,1363.73 2153.6,1377.39 2173.58,1384.97 2193.55,1386.4 2213.53,1381.65 2233.5,1370.78 2253.48,1353.89 2273.45,1331.15 2293.43,1302.77 "/>
<polyline clip-path="url(#clip491)" style="stroke:#e26f46; stroke-linecap:round; stroke-linejoin:round; stroke-width:8; stroke-opacity:1; fill:none" points="315.882,773.074 335.858,833.961 355.833,894.258 375.808,953.374 395.783,1010.73 415.758,1065.76 435.734,1117.91 455.709,1166.65 475.684,1211.48 495.659,1251.93 515.635,1287.58 535.61,1318.05 555.585,1342.99 575.56,1362.14 595.535,1375.29 615.511,1382.29 635.486,1383.06 655.461,1377.58 675.436,1365.93 695.412,1348.24 715.387,1324.69 735.362,1295.55 755.337,1261.13 775.312,1221.81 795.288,1178 815.263,1130.17 835.238,1078.79 855.213,1024.41 875.189,967.553 895.164,908.796 915.139,848.714 935.114,787.895 955.089,726.93 975.065,666.412 995.04,606.932 1015.02,549.073 1034.99,493.407 1054.97,440.488 1074.94,390.853 1094.92,345.01 1114.89,303.435 1134.87,266.566 1154.84,234.797 1174.82,208.473 1194.79,187.883 1214.77,173.254 1234.74,164.749 1254.72,162.463 1274.69,166.424 1294.67,176.586 1314.64,192.835 1334.62,214.992 1354.59,242.811 1374.57,275.99 1394.54,314.17 1414.52,356.944 1434.49,403.864 1454.47,454.444 1474.45,508.169 1494.42,564.496 1514.4,622.865 1534.37,682.701 1554.35,743.419 1574.32,804.427 1594.3,865.131 1614.27,924.94 1634.25,983.269 1654.22,1039.54 1674.2,1093.2 1694.17,1143.7 1714.15,1190.53 1734.12,1233.2 1754.1,1271.27 1774.07,1304.32 1794.05,1332.01 1814.02,1354.03 1834,1370.13 1853.97,1380.14 1873.95,1383.94 1893.93,1381.5 1913.9,1372.83 1933.88,1358.05 1953.85,1337.3 1973.83,1310.82 1993.8,1278.9 2013.78,1241.89 2033.75,1200.17 2053.73,1154.2 2073.7,1104.44 2093.68,1051.42 2113.65,995.649 2133.63,937.702 2153.6,878.146 2173.58,817.565 2193.55,756.55 2213.53,695.694 2233.5,635.59 2253.48,576.825 2273.45,519.978 2293.43,465.613 "/>
<polyline clip-path="url(#clip491)" style="stroke:#3da44d; stroke-linecap:round; stroke-linejoin:round; stroke-width:8; stroke-opacity:1; fill:none" points="315.882,677.602 335.858,677.599 355.833,677.597 375.808,677.595 395.783,677.592 415.758,677.59 435.734,677.587 455.709,677.585 475.684,677.582 495.659,677.58 515.635,677.577 535.61,677.574 555.585,677.572 575.56,677.569 595.535,677.566 615.511,677.564 635.486,677.561 655.461,677.559 675.436,677.556 695.412,677.554 715.387,677.552 735.362,677.55 755.337,677.548 775.312,677.545 795.288,677.543 815.263,677.541 835.238,677.539 855.213,677.536 875.189,677.534 895.164,677.532 915.139,677.529 935.114,677.527 955.089,677.525 975.065,677.523 995.04,677.52 1015.02,677.518 1034.99,677.515 1054.97,677.513 1074.94,677.51 1094.92,677.508 1114.89,677.505 1134.87,677.503 1154.84,677.5 1174.82,677.497 1194.79,677.494 1214.77,677.492 1234.74,677.489 1254.72,677.487 1274.69,677.484 1294.67,677.482 1314.64,677.48 1334.62,677.477 1354.59,677.475 1374.57,677.473 1394.54,677.471 1414.52,677.469 1434.49,677.466 1454.47,677.464 1474.45,677.462 1494.42,677.459 1514.4,677.457 1534.37,677.455 1554.35,677.453 1574.32,677.45 1594.3,677.448 1614.27,677.446 1634.25,677.443 1654.22,677.441 1674.2,677.438 1694.17,677.436 1714.15,677.433 1734.12,677.431 1754.1,677.428 1774.07,677.425 1794.05,677.423 1814.02,677.42 1834,677.417 1853.97,677.415 1873.95,677.412 1893.93,677.41 1913.9,677.407 1933.88,677.405 1953.85,677.403 1973.83,677.401 1993.8,677.398 2013.78,677.396 2033.75,677.394 2053.73,677.392 2073.7,677.389 2093.68,677.387 2113.65,677.385 2133.63,677.383 2153.6,677.38 2173.58,677.378 2193.55,677.376 2213.53,677.373 2233.5,677.371 2253.48,677.369 2273.45,677.366 2293.43,677.364 "/>
<path clip-path="url(#clip490)" d="M1869.4 374.156 L2282.88 374.156 L2282.88 166.796 L1869.4 166.796  Z" fill="#ffffff" fill-rule="evenodd" fill-opacity="1"/>
<polyline clip-path="url(#clip490)" style="stroke:#000000; stroke-linecap:round; stroke-linejoin:round; stroke-width:4; stroke-opacity:1; fill:none" points="1869.4,374.156 2282.88,374.156 2282.88,166.796 1869.4,166.796 1869.4,374.156 "/>
<polyline clip-path="url(#clip490)" style="stroke:#009af9; stroke-linecap:round; stroke-linejoin:round; stroke-width:8; stroke-opacity:1; fill:none" points="1892.69,218.636 2032.44,218.636 "/>
<path clip-path="url(#clip490)" d="M2074.99 219.481 L2060.24 219.481 Q2060.59 226.402 2062.19 229.342 Q2064.18 232.953 2067.62 232.953 Q2071.1 232.953 2073.02 229.319 Q2074.71 226.124 2074.99 219.481 M2074.92 215.545 Q2074.27 208.971 2073.02 206.657 Q2071.03 202.999 2067.62 202.999 Q2064.08 202.999 2062.21 206.61 Q2060.73 209.527 2060.29 215.545 L2074.92 215.545 M2067.62 199.527 Q2073.18 199.527 2076.35 204.434 Q2079.52 209.319 2079.52 217.976 Q2079.52 226.61 2076.35 231.518 Q2073.18 236.448 2067.62 236.448 Q2062.05 236.448 2058.9 231.518 Q2055.73 226.61 2055.73 217.976 Q2055.73 209.319 2058.9 204.434 Q2062.05 199.527 2067.62 199.527 Z" fill="#000000" fill-rule="nonzero" fill-opacity="1" /><path clip-path="url(#clip490)" d="M2111.88 199.944 Q2108.78 205.268 2107.28 210.476 Q2105.77 215.684 2105.77 221.032 Q2105.77 226.379 2107.28 231.633 Q2108.81 236.865 2111.88 242.166 L2108.18 242.166 Q2104.71 236.726 2102.97 231.471 Q2101.26 226.217 2101.26 221.032 Q2101.26 215.87 2102.97 210.638 Q2104.68 205.407 2108.18 199.944 L2111.88 199.944 Z" fill="#000000" fill-rule="nonzero" fill-opacity="1" /><path clip-path="url(#clip490)" d="M2135.17 213.971 Q2134.45 213.555 2133.6 213.37 Q2132.76 213.161 2131.74 213.161 Q2128.13 213.161 2126.19 215.522 Q2124.27 217.86 2124.27 222.258 L2124.27 235.916 L2119.99 235.916 L2119.99 209.99 L2124.27 209.99 L2124.27 214.018 Q2125.61 211.657 2127.76 210.522 Q2129.92 209.365 2132.99 209.365 Q2133.43 209.365 2133.97 209.434 Q2134.5 209.481 2135.15 209.596 L2135.17 213.971 Z" fill="#000000" fill-rule="nonzero" fill-opacity="1" /><path clip-path="url(#clip490)" d="M2151.42 222.883 Q2146.26 222.883 2144.27 224.064 Q2142.28 225.244 2142.28 228.092 Q2142.28 230.36 2143.76 231.703 Q2145.26 233.022 2147.83 233.022 Q2151.37 233.022 2153.5 230.522 Q2155.66 227.999 2155.66 223.832 L2155.66 222.883 L2151.42 222.883 M2159.92 221.124 L2159.92 235.916 L2155.66 235.916 L2155.66 231.981 Q2154.2 234.342 2152.02 235.476 Q2149.85 236.587 2146.7 236.587 Q2142.72 236.587 2140.36 234.365 Q2138.02 232.119 2138.02 228.369 Q2138.02 223.994 2140.93 221.772 Q2143.87 219.55 2149.68 219.55 L2155.66 219.55 L2155.66 219.133 Q2155.66 216.194 2153.71 214.596 Q2151.79 212.976 2148.3 212.976 Q2146.07 212.976 2143.97 213.508 Q2141.86 214.041 2139.92 215.106 L2139.92 211.17 Q2142.25 210.268 2144.45 209.828 Q2146.65 209.365 2148.74 209.365 Q2154.36 209.365 2157.14 212.282 Q2159.92 215.198 2159.92 221.124 Z" fill="#000000" fill-rule="nonzero" fill-opacity="1" /><path clip-path="url(#clip490)" d="M2185.75 213.925 L2185.75 199.897 L2190.01 199.897 L2190.01 235.916 L2185.75 235.916 L2185.75 232.027 Q2184.41 234.342 2182.35 235.476 Q2180.31 236.587 2177.44 236.587 Q2172.74 236.587 2169.78 232.837 Q2166.84 229.087 2166.84 222.976 Q2166.84 216.865 2169.78 213.115 Q2172.74 209.365 2177.44 209.365 Q2180.31 209.365 2182.35 210.499 Q2184.41 211.61 2185.75 213.925 M2171.24 222.976 Q2171.24 227.675 2173.16 230.36 Q2175.1 233.022 2178.48 233.022 Q2181.86 233.022 2183.8 230.36 Q2185.75 227.675 2185.75 222.976 Q2185.75 218.277 2183.8 215.615 Q2181.86 212.93 2178.48 212.93 Q2175.1 212.93 2173.16 215.615 Q2171.24 218.277 2171.24 222.976 Z" fill="#000000" fill-rule="nonzero" fill-opacity="1" /><path clip-path="url(#clip490)" d="M2198.11 199.944 L2201.81 199.944 Q2205.29 205.407 2207 210.638 Q2208.74 215.87 2208.74 221.032 Q2208.74 226.217 2207 231.471 Q2205.29 236.726 2201.81 242.166 L2198.11 242.166 Q2201.19 236.865 2202.69 231.633 Q2204.22 226.379 2204.22 221.032 Q2204.22 215.684 2202.69 210.476 Q2201.19 205.268 2198.11 199.944 Z" fill="#000000" fill-rule="nonzero" fill-opacity="1" /><polyline clip-path="url(#clip490)" style="stroke:#e26f46; stroke-linecap:round; stroke-linejoin:round; stroke-width:8; stroke-opacity:1; fill:none" points="1892.69,270.476 2032.44,270.476 "/>
<path clip-path="url(#clip490)" d="M2065.33 288.427 Q2055.73 288.427 2055.73 274.677 Q2055.73 269.237 2059.31 261.83 L2063.9 261.83 Q2060.59 269.237 2060.59 274.793 Q2060.59 284.816 2065.73 284.816 Q2070.43 284.816 2070.43 272.362 L2074.36 272.362 Q2074.36 284.816 2079.06 284.816 Q2084.2 284.816 2084.2 274.793 Q2084.2 269.237 2080.89 261.83 L2085.47 261.83 Q2089.06 269.237 2089.06 274.677 Q2089.06 288.427 2079.45 288.427 Q2073.16 288.427 2072.39 281.506 Q2071.44 288.427 2065.33 288.427 Z" fill="#000000" fill-rule="nonzero" fill-opacity="1" /><path clip-path="url(#clip490)" d="M2122.07 251.784 Q2118.97 257.108 2117.46 262.316 Q2115.96 267.524 2115.96 272.872 Q2115.96 278.219 2117.46 283.473 Q2118.99 288.705 2122.07 294.006 L2118.37 294.006 Q2114.89 288.566 2113.16 283.311 Q2111.44 278.057 2111.44 272.872 Q2111.44 267.71 2113.16 262.478 Q2114.87 257.247 2118.37 251.784 L2122.07 251.784 Z" fill="#000000" fill-rule="nonzero" fill-opacity="1" /><path clip-path="url(#clip490)" d="M2145.36 265.811 Q2144.64 265.395 2143.78 265.21 Q2142.95 265.001 2141.93 265.001 Q2138.32 265.001 2136.37 267.362 Q2134.45 269.7 2134.45 274.098 L2134.45 287.756 L2130.17 287.756 L2130.17 261.83 L2134.45 261.83 L2134.45 265.858 Q2135.8 263.497 2137.95 262.362 Q2140.1 261.205 2143.18 261.205 Q2143.62 261.205 2144.15 261.274 Q2144.68 261.321 2145.33 261.436 L2145.36 265.811 Z" fill="#000000" fill-rule="nonzero" fill-opacity="1" /><path clip-path="url(#clip490)" d="M2161.61 274.723 Q2156.44 274.723 2154.45 275.904 Q2152.46 277.084 2152.46 279.932 Q2152.46 282.2 2153.94 283.543 Q2155.45 284.862 2158.02 284.862 Q2161.56 284.862 2163.69 282.362 Q2165.84 279.839 2165.84 275.672 L2165.84 274.723 L2161.61 274.723 M2170.1 272.964 L2170.1 287.756 L2165.84 287.756 L2165.84 283.821 Q2164.38 286.182 2162.21 287.316 Q2160.03 288.427 2156.88 288.427 Q2152.9 288.427 2150.54 286.205 Q2148.2 283.959 2148.2 280.209 Q2148.2 275.834 2151.12 273.612 Q2154.06 271.39 2159.87 271.39 L2165.84 271.39 L2165.84 270.973 Q2165.84 268.034 2163.9 266.436 Q2161.98 264.816 2158.48 264.816 Q2156.26 264.816 2154.15 265.348 Q2152.05 265.881 2150.1 266.946 L2150.1 263.01 Q2152.44 262.108 2154.64 261.668 Q2156.84 261.205 2158.92 261.205 Q2164.55 261.205 2167.32 264.122 Q2170.1 267.038 2170.1 272.964 Z" fill="#000000" fill-rule="nonzero" fill-opacity="1" /><path clip-path="url(#clip490)" d="M2195.93 265.765 L2195.93 251.737 L2200.19 251.737 L2200.19 287.756 L2195.93 287.756 L2195.93 283.867 Q2194.59 286.182 2192.53 287.316 Q2190.49 288.427 2187.62 288.427 Q2182.93 288.427 2179.96 284.677 Q2177.02 280.927 2177.02 274.816 Q2177.02 268.705 2179.96 264.955 Q2182.93 261.205 2187.62 261.205 Q2190.49 261.205 2192.53 262.339 Q2194.59 263.45 2195.93 265.765 M2181.42 274.816 Q2181.42 279.515 2183.34 282.2 Q2185.29 284.862 2188.67 284.862 Q2192.05 284.862 2193.99 282.2 Q2195.93 279.515 2195.93 274.816 Q2195.93 270.117 2193.99 267.455 Q2192.05 264.77 2188.67 264.77 Q2185.29 264.77 2183.34 267.455 Q2181.42 270.117 2181.42 274.816 Z" fill="#000000" fill-rule="nonzero" fill-opacity="1" /><path clip-path="url(#clip490)" d="M2216.54 253.196 L2220.47 253.196 L2208.43 292.154 L2204.5 292.154 L2216.54 253.196 Z" fill="#000000" fill-rule="nonzero" fill-opacity="1" /><path clip-path="url(#clip490)" d="M2241.47 262.594 L2241.47 266.622 Q2239.66 265.696 2237.72 265.233 Q2235.77 264.77 2233.69 264.77 Q2230.52 264.77 2228.92 265.742 Q2227.35 266.714 2227.35 268.659 Q2227.35 270.14 2228.48 270.997 Q2229.61 271.83 2233.04 272.594 L2234.5 272.918 Q2239.04 273.89 2240.93 275.672 Q2242.86 277.432 2242.86 280.603 Q2242.86 284.214 2239.99 286.321 Q2237.14 288.427 2232.14 288.427 Q2230.05 288.427 2227.79 288.01 Q2225.54 287.617 2223.04 286.807 L2223.04 282.409 Q2225.4 283.635 2227.69 284.26 Q2229.99 284.862 2232.23 284.862 Q2235.24 284.862 2236.86 283.844 Q2238.48 282.802 2238.48 280.927 Q2238.48 279.191 2237.3 278.265 Q2236.14 277.339 2232.18 276.483 L2230.7 276.135 Q2226.74 275.302 2224.99 273.589 Q2223.23 271.853 2223.23 268.844 Q2223.23 265.186 2225.82 263.196 Q2228.41 261.205 2233.18 261.205 Q2235.54 261.205 2237.62 261.552 Q2239.71 261.899 2241.47 262.594 Z" fill="#000000" fill-rule="nonzero" fill-opacity="1" /><path clip-path="url(#clip490)" d="M2248.97 251.784 L2252.67 251.784 Q2256.14 257.247 2257.86 262.478 Q2259.59 267.71 2259.59 272.872 Q2259.59 278.057 2257.86 283.311 Q2256.14 288.566 2252.67 294.006 L2248.97 294.006 Q2252.05 288.705 2253.55 283.473 Q2255.08 278.219 2255.08 272.872 Q2255.08 267.524 2253.55 262.316 Q2252.05 257.108 2248.97 251.784 Z" fill="#000000" fill-rule="nonzero" fill-opacity="1" /><polyline clip-path="url(#clip490)" style="stroke:#3da44d; stroke-linecap:round; stroke-linejoin:round; stroke-width:8; stroke-opacity:1; fill:none" points="1892.69,322.316 2032.44,322.316 "/>
<path clip-path="url(#clip490)" d="M2055.73 305.036 L2077.58 305.036 L2077.58 308.971 L2060.4 308.971 L2060.4 319.202 L2076.86 319.202 L2076.86 323.137 L2060.4 323.137 L2060.4 335.661 L2078 335.661 L2078 339.596 L2055.73 339.596 L2055.73 305.036 Z" fill="#000000" fill-rule="nonzero" fill-opacity="1" /><path clip-path="url(#clip490)" d="M2110.8 303.624 Q2107.69 308.948 2106.19 314.156 Q2104.68 319.364 2104.68 324.712 Q2104.68 330.059 2106.19 335.313 Q2107.72 340.545 2110.8 345.846 L2107.09 345.846 Q2103.62 340.406 2101.88 335.151 Q2100.17 329.897 2100.17 324.712 Q2100.17 319.55 2101.88 314.318 Q2103.6 309.087 2107.09 303.624 L2110.8 303.624 Z" fill="#000000" fill-rule="nonzero" fill-opacity="1" /><path clip-path="url(#clip490)" d="M2119.24 305.036 L2123.92 305.036 L2123.92 337.188 Q2123.92 343.438 2121.54 346.262 Q2119.18 349.086 2113.92 349.086 L2112.14 349.086 L2112.14 345.151 L2113.6 345.151 Q2116.7 345.151 2117.97 343.415 Q2119.24 341.679 2119.24 337.188 L2119.24 305.036 Z" fill="#000000" fill-rule="nonzero" fill-opacity="1" /><path clip-path="url(#clip490)" d="M2132.37 303.624 L2136.07 303.624 Q2139.55 309.087 2141.26 314.318 Q2142.99 319.55 2142.99 324.712 Q2142.99 329.897 2141.26 335.151 Q2139.55 340.406 2136.07 345.846 L2132.37 345.846 Q2135.45 340.545 2136.95 335.313 Q2138.48 330.059 2138.48 324.712 Q2138.48 319.364 2136.95 314.156 Q2135.45 308.948 2132.37 303.624 Z" fill="#000000" fill-rule="nonzero" fill-opacity="1" /></svg>
