<?xml version="1.0" encoding="utf-8"?>
<svg xmlns="http://www.w3.org/2000/svg" xmlns:xlink="http://www.w3.org/1999/xlink" width="600" height="400" viewBox="0 0 2400 1600">
<defs>
  <clipPath id="clip030">
    <rect x="0" y="0" width="2400" height="1600"/>
  </clipPath>
</defs>
<path clip-path="url(#clip030)" d="M0 1600 L2400 1600 L2400 8.88178e-14 L0 8.88178e-14  Z" fill="#ffffff" fill-rule="evenodd" fill-opacity="1"/>
<defs>
  <clipPath id="clip031">
    <rect x="280" y="123" width="2074" height="1301"/>
  </clipPath>
</defs>
<path clip-path="url(#clip030)" d="M232.389 1423.18 L2352.76 1423.18 L2352.76 123.472 L232.389 123.472  Z" fill="#ffffff" fill-rule="evenodd" fill-opacity="1"/>
<defs>
  <clipPath id="clip032">
    <rect x="232" y="123" width="2121" height="1301"/>
  </clipPath>
</defs>
<polyline clip-path="url(#clip032)" style="stroke:#000000; stroke-linecap:round; stroke-linejoin:round; stroke-width:2; stroke-opacity:0.1; fill:none" points="476.669,1423.18 476.669,123.472 "/>
<polyline clip-path="url(#clip032)" style="stroke:#000000; stroke-linecap:round; stroke-linejoin:round; stroke-width:2; stroke-opacity:0.1; fill:none" points="790.478,1423.18 790.478,123.472 "/>
<polyline clip-path="url(#clip032)" style="stroke:#000000; stroke-linecap:round; stroke-linejoin:round; stroke-width:2; stroke-opacity:0.1; fill:none" points="1104.29,1423.18 1104.29,123.472 "/>
<polyline clip-path="url(#clip032)" style="stroke:#000000; stroke-linecap:round; stroke-linejoin:round; stroke-width:2; stroke-opacity:0.1; fill:none" points="1418.1,1423.18 1418.1,123.472 "/>
<polyline clip-path="url(#clip032)" style="stroke:#000000; stroke-linecap:round; stroke-linejoin:round; stroke-width:2; stroke-opacity:0.1; fill:none" points="1731.91,1423.18 1731.91,123.472 "/>
<polyline clip-path="url(#clip032)" style="stroke:#000000; stroke-linecap:round; stroke-linejoin:round; stroke-width:2; stroke-opacity:0.1; fill:none" points="2045.71,1423.18 2045.71,123.472 "/>
<polyline clip-path="url(#clip032)" style="stroke:#000000; stroke-linecap:round; stroke-linejoin:round; stroke-width:2; stroke-opacity:0.1; fill:none" points="232.389,1386.4 2352.76,1386.4 "/>
<polyline clip-path="url(#clip032)" style="stroke:#000000; stroke-linecap:round; stroke-linejoin:round; stroke-width:2; stroke-opacity:0.1; fill:none" points="232.389,1079.86 2352.76,1079.86 "/>
<polyline clip-path="url(#clip032)" style="stroke:#000000; stroke-linecap:round; stroke-linejoin:round; stroke-width:2; stroke-opacity:0.1; fill:none" points="232.389,773.326 2352.76,773.326 "/>
<polyline clip-path="url(#clip032)" style="stroke:#000000; stroke-linecap:round; stroke-linejoin:round; stroke-width:2; stroke-opacity:0.1; fill:none" points="232.389,466.791 2352.76,466.791 "/>
<polyline clip-path="url(#clip032)" style="stroke:#000000; stroke-linecap:round; stroke-linejoin:round; stroke-width:2; stroke-opacity:0.1; fill:none" points="232.389,160.256 2352.76,160.256 "/>
<polyline clip-path="url(#clip030)" style="stroke:#000000; stroke-linecap:round; stroke-linejoin:round; stroke-width:4; stroke-opacity:1; fill:none" points="232.389,1423.18 2352.76,1423.18 "/>
<polyline clip-path="url(#clip030)" style="stroke:#000000; stroke-linecap:round; stroke-linejoin:round; stroke-width:4; stroke-opacity:1; fill:none" points="476.669,1423.18 476.669,1404.28 "/>
<polyline clip-path="url(#clip030)" style="stroke:#000000; stroke-linecap:round; stroke-linejoin:round; stroke-width:4; stroke-opacity:1; fill:none" points="790.478,1423.18 790.478,1404.28 "/>
<polyline clip-path="url(#clip030)" style="stroke:#000000; stroke-linecap:round; stroke-linejoin:round; stroke-width:4; stroke-opacity:1; fill:none" points="1104.29,1423.18 1104.29,1404.28 "/>
<polyline clip-path="url(#clip030)" style="stroke:#000000; stroke-linecap:round; stroke-linejoin:round; stroke-width:4; stroke-opacity:1; fill:none" points="1418.1,1423.18 1418.1,1404.28 "/>
<polyline clip-path="url(#clip030)" style="stroke:#000000; stroke-linecap:round; stroke-linejoin:round; stroke-width:4; stroke-opacity:1; fill:none" points="1731.91,1423.18 1731.91,1404.28 "/>
<polyline clip-path="url(#clip030)" style="stroke:#000000; stroke-linecap:round; stroke-linejoin:round; stroke-width:4; stroke-opacity:1; fill:none" points="2045.71,1423.18 2045.71,1404.28 "/>
<path clip-path="url(#clip030)" d="M408.613 1468.75 L438.289 1468.75 L438.289 1472.69 L408.613 1472.69 L408.613 1468.75 Z" fill="#000000" fill-rule="nonzero" fill-opacity="1" /><path clip-path="url(#clip030)" d="M458.382 1454.1 Q454.77 1454.1 452.942 1457.66 Q451.136 1461.2 451.136 1468.33 Q451.136 1475.44 452.942 1479.01 Q454.77 1482.55 458.382 1482.55 Q462.016 1482.55 463.821 1479.01 Q465.65 1475.44 465.65 1468.33 Q465.65 1461.2 463.821 1457.66 Q462.016 1454.1 458.382 1454.1 M458.382 1450.39 Q464.192 1450.39 467.247 1455 Q470.326 1459.58 470.326 1468.33 Q470.326 1477.06 467.247 1481.67 Q464.192 1486.25 458.382 1486.25 Q452.571 1486.25 449.493 1481.67 Q446.437 1477.06 446.437 1468.33 Q446.437 1459.58 449.493 1455 Q452.571 1450.39 458.382 1450.39 Z" fill="#000000" fill-rule="nonzero" fill-opacity="1" /><path clip-path="url(#clip030)" d="M478.544 1479.7 L483.428 1479.7 L483.428 1485.58 L478.544 1485.58 L478.544 1479.7 Z" fill="#000000" fill-rule="nonzero" fill-opacity="1" /><path clip-path="url(#clip030)" d="M497.641 1481.64 L513.96 1481.64 L513.96 1485.58 L492.016 1485.58 L492.016 1481.64 Q494.678 1478.89 499.261 1474.26 Q503.867 1469.61 505.048 1468.27 Q507.293 1465.74 508.173 1464.01 Q509.076 1462.25 509.076 1460.56 Q509.076 1457.8 507.131 1456.07 Q505.21 1454.33 502.108 1454.33 Q499.909 1454.33 497.455 1455.09 Q495.025 1455.86 492.247 1457.41 L492.247 1452.69 Q495.071 1451.55 497.525 1450.97 Q499.979 1450.39 502.016 1450.39 Q507.386 1450.39 510.58 1453.08 Q513.775 1455.77 513.775 1460.26 Q513.775 1462.39 512.965 1464.31 Q512.178 1466.2 510.071 1468.8 Q509.492 1469.47 506.391 1472.69 Q503.289 1475.88 497.641 1481.64 Z" fill="#000000" fill-rule="nonzero" fill-opacity="1" /><path clip-path="url(#clip030)" d="M523.821 1451.02 L542.177 1451.02 L542.177 1454.96 L528.103 1454.96 L528.103 1463.43 Q529.122 1463.08 530.14 1462.92 Q531.159 1462.73 532.177 1462.73 Q537.964 1462.73 541.344 1465.9 Q544.724 1469.08 544.724 1474.49 Q544.724 1480.07 541.252 1483.17 Q537.779 1486.25 531.46 1486.25 Q529.284 1486.25 527.015 1485.88 Q524.77 1485.51 522.363 1484.77 L522.363 1480.07 Q524.446 1481.2 526.668 1481.76 Q528.89 1482.32 531.367 1482.32 Q535.372 1482.32 537.71 1480.21 Q540.048 1478.1 540.048 1474.49 Q540.048 1470.88 537.71 1468.77 Q535.372 1466.67 531.367 1466.67 Q529.492 1466.67 527.617 1467.08 Q525.765 1467.5 523.821 1468.38 L523.821 1451.02 Z" fill="#000000" fill-rule="nonzero" fill-opacity="1" /><path clip-path="url(#clip030)" d="M752.781 1454.1 Q749.17 1454.1 747.341 1457.66 Q745.536 1461.2 745.536 1468.33 Q745.536 1475.44 747.341 1479.01 Q749.17 1482.55 752.781 1482.55 Q756.415 1482.55 758.221 1479.01 Q760.05 1475.44 760.05 1468.33 Q760.05 1461.2 758.221 1457.66 Q756.415 1454.1 752.781 1454.1 M752.781 1450.39 Q758.591 1450.39 761.647 1455 Q764.726 1459.58 764.726 1468.33 Q764.726 1477.06 761.647 1481.67 Q758.591 1486.25 752.781 1486.25 Q746.971 1486.25 743.892 1481.67 Q740.837 1477.06 740.837 1468.33 Q740.837 1459.58 743.892 1455 Q746.971 1450.39 752.781 1450.39 Z" fill="#000000" fill-rule="nonzero" fill-opacity="1" /><path clip-path="url(#clip030)" d="M772.943 1479.7 L777.827 1479.7 L777.827 1485.58 L772.943 1485.58 L772.943 1479.7 Z" fill="#000000" fill-rule="nonzero" fill-opacity="1" /><path clip-path="url(#clip030)" d="M798.012 1454.1 Q794.401 1454.1 792.573 1457.66 Q790.767 1461.2 790.767 1468.33 Q790.767 1475.44 792.573 1479.01 Q794.401 1482.55 798.012 1482.55 Q801.647 1482.55 803.452 1479.01 Q805.281 1475.44 805.281 1468.33 Q805.281 1461.2 803.452 1457.66 Q801.647 1454.1 798.012 1454.1 M798.012 1450.39 Q803.823 1450.39 806.878 1455 Q809.957 1459.58 809.957 1468.33 Q809.957 1477.06 806.878 1481.67 Q803.823 1486.25 798.012 1486.25 Q792.202 1486.25 789.124 1481.67 Q786.068 1477.06 786.068 1468.33 Q786.068 1459.58 789.124 1455 Q792.202 1450.39 798.012 1450.39 Z" fill="#000000" fill-rule="nonzero" fill-opacity="1" /><path clip-path="url(#clip030)" d="M828.174 1454.1 Q824.563 1454.1 822.735 1457.66 Q820.929 1461.2 820.929 1468.33 Q820.929 1475.44 822.735 1479.01 Q824.563 1482.55 828.174 1482.55 Q831.809 1482.55 833.614 1479.01 Q835.443 1475.44 835.443 1468.33 Q835.443 1461.2 833.614 1457.66 Q831.809 1454.1 828.174 1454.1 M828.174 1450.39 Q833.985 1450.39 837.04 1455 Q840.119 1459.58 840.119 1468.33 Q840.119 1477.06 837.04 1481.67 Q833.985 1486.25 828.174 1486.25 Q822.364 1486.25 819.286 1481.67 Q816.23 1477.06 816.23 1468.33 Q816.23 1459.58 819.286 1455 Q822.364 1450.39 828.174 1450.39 Z" fill="#000000" fill-rule="nonzero" fill-opacity="1" /><path clip-path="url(#clip030)" d="M1067.09 1454.1 Q1063.48 1454.1 1061.65 1457.66 Q1059.84 1461.2 1059.84 1468.33 Q1059.84 1475.44 1061.65 1479.01 Q1063.48 1482.55 1067.09 1482.55 Q1070.72 1482.55 1072.53 1479.01 Q1074.36 1475.44 1074.36 1468.33 Q1074.36 1461.2 1072.53 1457.66 Q1070.72 1454.1 1067.09 1454.1 M1067.09 1450.39 Q1072.9 1450.39 1075.95 1455 Q1079.03 1459.58 1079.03 1468.33 Q1079.03 1477.06 1075.95 1481.67 Q1072.9 1486.25 1067.09 1486.25 Q1061.28 1486.25 1058.2 1481.67 Q1055.14 1477.06 1055.14 1468.33 Q1055.14 1459.58 1058.2 1455 Q1061.28 1450.39 1067.09 1450.39 Z" fill="#000000" fill-rule="nonzero" fill-opacity="1" /><path clip-path="url(#clip030)" d="M1087.25 1479.7 L1092.13 1479.7 L1092.13 1485.58 L1087.25 1485.58 L1087.25 1479.7 Z" fill="#000000" fill-rule="nonzero" fill-opacity="1" /><path clip-path="url(#clip030)" d="M1106.35 1481.64 L1122.67 1481.64 L1122.67 1485.58 L1100.72 1485.58 L1100.72 1481.64 Q1103.38 1478.89 1107.97 1474.26 Q1112.57 1469.61 1113.75 1468.27 Q1116 1465.74 1116.88 1464.01 Q1117.78 1462.25 1117.78 1460.56 Q1117.78 1457.8 1115.84 1456.07 Q1113.92 1454.33 1110.81 1454.33 Q1108.62 1454.33 1106.16 1455.09 Q1103.73 1455.86 1100.95 1457.41 L1100.95 1452.69 Q1103.78 1451.55 1106.23 1450.97 Q1108.69 1450.39 1110.72 1450.39 Q1116.09 1450.39 1119.29 1453.08 Q1122.48 1455.77 1122.48 1460.26 Q1122.48 1462.39 1121.67 1464.31 Q1120.88 1466.2 1118.78 1468.8 Q1118.2 1469.47 1115.1 1472.69 Q1112 1475.88 1106.35 1481.64 Z" fill="#000000" fill-rule="nonzero" fill-opacity="1" /><path clip-path="url(#clip030)" d="M1132.53 1451.02 L1150.88 1451.02 L1150.88 1454.96 L1136.81 1454.96 L1136.81 1463.43 Q1137.83 1463.08 1138.85 1462.92 Q1139.87 1462.73 1140.88 1462.73 Q1146.67 1462.73 1150.05 1465.9 Q1153.43 1469.08 1153.43 1474.49 Q1153.43 1480.07 1149.96 1483.17 Q1146.49 1486.25 1140.17 1486.25 Q1137.99 1486.25 1135.72 1485.88 Q1133.48 1485.51 1131.07 1484.77 L1131.07 1480.07 Q1133.15 1481.2 1135.37 1481.76 Q1137.6 1482.32 1140.07 1482.32 Q1144.08 1482.32 1146.42 1480.21 Q1148.75 1478.1 1148.75 1474.49 Q1148.75 1470.88 1146.42 1468.77 Q1144.08 1466.67 1140.07 1466.67 Q1138.2 1466.67 1136.32 1467.08 Q1134.47 1467.5 1132.53 1468.38 L1132.53 1451.02 Z" fill="#000000" fill-rule="nonzero" fill-opacity="1" /><path clip-path="url(#clip030)" d="M1380.4 1454.1 Q1376.79 1454.1 1374.96 1457.66 Q1373.15 1461.2 1373.15 1468.33 Q1373.15 1475.44 1374.96 1479.01 Q1376.79 1482.55 1380.4 1482.55 Q1384.03 1482.55 1385.84 1479.01 Q1387.67 1475.44 1387.67 1468.33 Q1387.67 1461.2 1385.84 1457.66 Q1384.03 1454.1 1380.4 1454.1 M1380.4 1450.39 Q1386.21 1450.39 1389.27 1455 Q1392.34 1459.58 1392.34 1468.33 Q1392.34 1477.06 1389.27 1481.67 Q1386.21 1486.25 1380.4 1486.25 Q1374.59 1486.25 1371.51 1481.67 Q1368.46 1477.06 1368.46 1468.33 Q1368.46 1459.58 1371.51 1455 Q1374.59 1450.39 1380.4 1450.39 Z" fill="#000000" fill-rule="nonzero" fill-opacity="1" /><path clip-path="url(#clip030)" d="M1400.56 1479.7 L1405.45 1479.7 L1405.45 1485.58 L1400.56 1485.58 L1400.56 1479.7 Z" fill="#000000" fill-rule="nonzero" fill-opacity="1" /><path clip-path="url(#clip030)" d="M1415.68 1451.02 L1434.03 1451.02 L1434.03 1454.96 L1419.96 1454.96 L1419.96 1463.43 Q1420.98 1463.08 1422 1462.92 Q1423.02 1462.73 1424.03 1462.73 Q1429.82 1462.73 1433.2 1465.9 Q1436.58 1469.08 1436.58 1474.49 Q1436.58 1480.07 1433.11 1483.17 Q1429.64 1486.25 1423.32 1486.25 Q1421.14 1486.25 1418.87 1485.88 Q1416.63 1485.51 1414.22 1484.77 L1414.22 1480.07 Q1416.3 1481.2 1418.52 1481.76 Q1420.75 1482.32 1423.22 1482.32 Q1427.23 1482.32 1429.57 1480.21 Q1431.9 1478.1 1431.9 1474.49 Q1431.9 1470.88 1429.57 1468.77 Q1427.23 1466.67 1423.22 1466.67 Q1421.35 1466.67 1419.47 1467.08 Q1417.62 1467.5 1415.68 1468.38 L1415.68 1451.02 Z" fill="#000000" fill-rule="nonzero" fill-opacity="1" /><path clip-path="url(#clip030)" d="M1455.79 1454.1 Q1452.18 1454.1 1450.35 1457.66 Q1448.55 1461.2 1448.55 1468.33 Q1448.55 1475.44 1450.35 1479.01 Q1452.18 1482.55 1455.79 1482.55 Q1459.43 1482.55 1461.23 1479.01 Q1463.06 1475.44 1463.06 1468.33 Q1463.06 1461.2 1461.23 1457.66 Q1459.43 1454.1 1455.79 1454.1 M1455.79 1450.39 Q1461.6 1450.39 1464.66 1455 Q1467.74 1459.58 1467.74 1468.33 Q1467.74 1477.06 1464.66 1481.67 Q1461.6 1486.25 1455.79 1486.25 Q1449.98 1486.25 1446.9 1481.67 Q1443.85 1477.06 1443.85 1468.33 Q1443.85 1459.58 1446.9 1455 Q1449.98 1450.39 1455.79 1450.39 Z" fill="#000000" fill-rule="nonzero" fill-opacity="1" /><path clip-path="url(#clip030)" d="M1694.71 1454.1 Q1691.1 1454.1 1689.27 1457.66 Q1687.46 1461.2 1687.46 1468.33 Q1687.46 1475.44 1689.27 1479.01 Q1691.1 1482.55 1694.71 1482.55 Q1698.34 1482.55 1700.15 1479.01 Q1701.98 1475.44 1701.98 1468.33 Q1701.98 1461.2 1700.15 1457.66 Q1698.34 1454.1 1694.71 1454.1 M1694.71 1450.39 Q1700.52 1450.39 1703.57 1455 Q1706.65 1459.58 1706.65 1468.33 Q1706.65 1477.06 1703.57 1481.67 Q1700.52 1486.25 1694.71 1486.25 Q1688.9 1486.25 1685.82 1481.67 Q1682.76 1477.06 1682.76 1468.33 Q1682.76 1459.58 1685.82 1455 Q1688.9 1450.39 1694.71 1450.39 Z" fill="#000000" fill-rule="nonzero" fill-opacity="1" /><path clip-path="url(#clip030)" d="M1714.87 1479.7 L1719.75 1479.7 L1719.75 1485.58 L1714.87 1485.58 L1714.87 1479.7 Z" fill="#000000" fill-rule="nonzero" fill-opacity="1" /><path clip-path="url(#clip030)" d="M1728.76 1451.02 L1750.98 1451.02 L1750.98 1453.01 L1738.43 1485.58 L1733.55 1485.58 L1745.35 1454.96 L1728.76 1454.96 L1728.76 1451.02 Z" fill="#000000" fill-rule="nonzero" fill-opacity="1" /><path clip-path="url(#clip030)" d="M1760.15 1451.02 L1778.5 1451.02 L1778.5 1454.96 L1764.43 1454.96 L1764.43 1463.43 Q1765.45 1463.08 1766.47 1462.92 Q1767.48 1462.73 1768.5 1462.73 Q1774.29 1462.73 1777.67 1465.9 Q1781.05 1469.08 1781.05 1474.49 Q1781.05 1480.07 1777.58 1483.17 Q1774.1 1486.25 1767.79 1486.25 Q1765.61 1486.25 1763.34 1485.88 Q1761.1 1485.51 1758.69 1484.77 L1758.69 1480.07 Q1760.77 1481.2 1762.99 1481.76 Q1765.22 1482.32 1767.69 1482.32 Q1771.7 1482.32 1774.04 1480.21 Q1776.37 1478.1 1776.37 1474.49 Q1776.37 1470.88 1774.04 1468.77 Q1771.7 1466.67 1767.69 1466.67 Q1765.82 1466.67 1763.94 1467.08 Q1762.09 1467.5 1760.15 1468.38 L1760.15 1451.02 Z" fill="#000000" fill-rule="nonzero" fill-opacity="1" /><path clip-path="url(#clip030)" d="M1997.79 1481.64 L2005.43 1481.64 L2005.43 1455.28 L1997.12 1456.95 L1997.12 1452.69 L2005.38 1451.02 L2010.06 1451.02 L2010.06 1481.64 L2017.69 1481.64 L2017.69 1485.58 L1997.79 1485.58 L1997.79 1481.64 Z" fill="#000000" fill-rule="nonzero" fill-opacity="1" /><path clip-path="url(#clip030)" d="M2027.14 1479.7 L2032.02 1479.7 L2032.02 1485.58 L2027.14 1485.58 L2027.14 1479.7 Z" fill="#000000" fill-rule="nonzero" fill-opacity="1" /><path clip-path="url(#clip030)" d="M2052.21 1454.1 Q2048.6 1454.1 2046.77 1457.66 Q2044.96 1461.2 2044.96 1468.33 Q2044.96 1475.44 2046.77 1479.01 Q2048.6 1482.55 2052.21 1482.55 Q2055.84 1482.55 2057.65 1479.01 Q2059.48 1475.44 2059.48 1468.33 Q2059.48 1461.2 2057.65 1457.66 Q2055.84 1454.1 2052.21 1454.1 M2052.21 1450.39 Q2058.02 1450.39 2061.07 1455 Q2064.15 1459.58 2064.15 1468.33 Q2064.15 1477.06 2061.07 1481.67 Q2058.02 1486.25 2052.21 1486.25 Q2046.4 1486.25 2043.32 1481.67 Q2040.26 1477.06 2040.26 1468.33 Q2040.26 1459.58 2043.32 1455 Q2046.4 1450.39 2052.21 1450.39 Z" fill="#000000" fill-rule="nonzero" fill-opacity="1" /><path clip-path="url(#clip030)" d="M2082.37 1454.1 Q2078.76 1454.1 2076.93 1457.66 Q2075.12 1461.2 2075.12 1468.33 Q2075.12 1475.44 2076.93 1479.01 Q2078.76 1482.55 2082.37 1482.55 Q2086 1482.55 2087.81 1479.01 Q2089.64 1475.44 2089.64 1468.33 Q2089.64 1461.2 2087.81 1457.66 Q2086 1454.1 2082.37 1454.1 M2082.37 1450.39 Q2088.18 1450.39 2091.24 1455 Q2094.31 1459.58 2094.31 1468.33 Q2094.31 1477.06 2091.24 1481.67 Q2088.18 1486.25 2082.37 1486.25 Q2076.56 1486.25 2073.48 1481.67 Q2070.43 1477.06 2070.43 1468.33 Q2070.43 1459.58 2073.48 1455 Q2076.56 1450.39 2082.37 1450.39 Z" fill="#000000" fill-rule="nonzero" fill-opacity="1" /><path clip-path="url(#clip030)" d="M1304.71 1528.74 Q1304.71 1530.45 1303.58 1531.54 Q1302.49 1532.64 1301.07 1532.64 Q1299.85 1532.64 1299.2 1531.93 Q1298.56 1531.22 1298.56 1530.32 Q1298.56 1529.03 1299.56 1527.97 Q1300.56 1526.9 1302.01 1526.68 Q1300.94 1525.91 1299.24 1525.91 Q1296.43 1525.91 1293.95 1528.06 Q1292.86 1529.06 1291.67 1530.9 Q1290.48 1532.7 1290.25 1533.47 L1288.16 1542.07 Q1287.96 1543.04 1286.77 1547.68 Q1285.61 1552.28 1285.52 1552.47 Q1285.19 1553.38 1284.49 1553.86 Q1283.78 1554.34 1283.07 1554.34 Q1282.26 1554.34 1281.72 1553.86 Q1281.17 1553.38 1281.17 1552.54 Q1281.17 1552.41 1281.27 1551.93 Q1281.36 1551.44 1281.52 1550.77 Q1281.68 1550.09 1281.75 1549.71 L1285.58 1534.47 Q1286.29 1531.7 1286.45 1530.83 Q1286.64 1529.93 1286.64 1528.93 Q1286.64 1527.19 1286.1 1526.55 Q1285.55 1525.91 1284.58 1525.91 Q1282.91 1525.91 1281.81 1527.9 Q1280.72 1529.9 1279.78 1533.76 Q1279.49 1534.83 1279.3 1535.05 Q1279.14 1535.28 1278.66 1535.28 Q1277.85 1535.24 1277.85 1534.6 Q1277.85 1534.44 1278.11 1533.41 Q1278.37 1532.35 1278.85 1530.8 Q1279.37 1529.22 1279.91 1528.22 Q1280.23 1527.55 1280.52 1527.1 Q1280.81 1526.65 1281.39 1525.94 Q1281.97 1525.23 1282.84 1524.84 Q1283.71 1524.46 1284.78 1524.46 Q1287.09 1524.46 1288.74 1525.87 Q1290.41 1527.29 1290.8 1529.51 Q1291.6 1528.35 1292.6 1527.35 Q1293.6 1526.32 1295.44 1525.39 Q1297.27 1524.46 1299.24 1524.46 Q1301.68 1524.46 1303.2 1525.71 Q1304.71 1526.94 1304.71 1528.74 Z" fill="#000000" fill-rule="nonzero" fill-opacity="1" /><polyline clip-path="url(#clip030)" style="stroke:#000000; stroke-linecap:round; stroke-linejoin:round; stroke-width:4; stroke-opacity:1; fill:none" points="232.389,1423.18 232.389,123.472 "/>
<polyline clip-path="url(#clip030)" style="stroke:#000000; stroke-linecap:round; stroke-linejoin:round; stroke-width:4; stroke-opacity:1; fill:none" points="232.389,1386.4 251.287,1386.4 "/>
<polyline clip-path="url(#clip030)" style="stroke:#000000; stroke-linecap:round; stroke-linejoin:round; stroke-width:4; stroke-opacity:1; fill:none" points="232.389,1079.86 251.287,1079.86 "/>
<polyline clip-path="url(#clip030)" style="stroke:#000000; stroke-linecap:round; stroke-linejoin:round; stroke-width:4; stroke-opacity:1; fill:none" points="232.389,773.326 251.287,773.326 "/>
<polyline clip-path="url(#clip030)" style="stroke:#000000; stroke-linecap:round; stroke-linejoin:round; stroke-width:4; stroke-opacity:1; fill:none" points="232.389,466.791 251.287,466.791 "/>
<polyline clip-path="url(#clip030)" style="stroke:#000000; stroke-linecap:round; stroke-linejoin:round; stroke-width:4; stroke-opacity:1; fill:none" points="232.389,160.256 251.287,160.256 "/>
<path clip-path="url(#clip030)" d="M184.445 1372.19 Q180.834 1372.19 179.005 1375.76 Q177.2 1379.3 177.2 1386.43 Q177.2 1393.54 179.005 1397.1 Q180.834 1400.64 184.445 1400.64 Q188.079 1400.64 189.885 1397.1 Q191.713 1393.54 191.713 1386.43 Q191.713 1379.3 189.885 1375.76 Q188.079 1372.19 184.445 1372.19 M184.445 1368.49 Q190.255 1368.49 193.311 1373.1 Q196.389 1377.68 196.389 1386.43 Q196.389 1395.16 193.311 1399.76 Q190.255 1404.35 184.445 1404.35 Q178.635 1404.35 175.556 1399.76 Q172.501 1395.16 172.501 1386.43 Q172.501 1377.68 175.556 1373.1 Q178.635 1368.49 184.445 1368.49 Z" fill="#000000" fill-rule="nonzero" fill-opacity="1" /><path clip-path="url(#clip030)" d="M149.306 1093.21 L165.626 1093.21 L165.626 1097.14 L143.681 1097.14 L143.681 1093.21 Q146.343 1090.45 150.927 1085.82 Q155.533 1081.17 156.714 1079.83 Q158.959 1077.3 159.839 1075.57 Q160.741 1073.81 160.741 1072.12 Q160.741 1069.36 158.797 1067.63 Q156.876 1065.89 153.774 1065.89 Q151.575 1065.89 149.121 1066.65 Q146.691 1067.42 143.913 1068.97 L143.913 1064.25 Q146.737 1063.11 149.191 1062.53 Q151.644 1061.96 153.681 1061.96 Q159.052 1061.96 162.246 1064.64 Q165.44 1067.33 165.44 1071.82 Q165.44 1073.95 164.63 1075.87 Q163.843 1077.77 161.737 1080.36 Q161.158 1081.03 158.056 1084.25 Q154.954 1087.44 149.306 1093.21 Z" fill="#000000" fill-rule="nonzero" fill-opacity="1" /><path clip-path="url(#clip030)" d="M175.487 1062.58 L193.843 1062.58 L193.843 1066.52 L179.769 1066.52 L179.769 1074.99 Q180.788 1074.64 181.806 1074.48 Q182.825 1074.29 183.843 1074.29 Q189.63 1074.29 193.01 1077.47 Q196.389 1080.64 196.389 1086.05 Q196.389 1091.63 192.917 1094.73 Q189.445 1097.81 183.126 1097.81 Q180.95 1097.81 178.681 1097.44 Q176.436 1097.07 174.028 1096.33 L174.028 1091.63 Q176.112 1092.77 178.334 1093.32 Q180.556 1093.88 183.033 1093.88 Q187.038 1093.88 189.375 1091.77 Q191.713 1089.66 191.713 1086.05 Q191.713 1082.44 189.375 1080.34 Q187.038 1078.23 183.033 1078.23 Q181.158 1078.23 179.283 1078.65 Q177.431 1079.06 175.487 1079.94 L175.487 1062.58 Z" fill="#000000" fill-rule="nonzero" fill-opacity="1" /><path clip-path="url(#clip030)" d="M144.329 756.046 L162.686 756.046 L162.686 759.981 L148.612 759.981 L148.612 768.453 Q149.63 768.106 150.649 767.944 Q151.667 767.759 152.686 767.759 Q158.473 767.759 161.852 770.93 Q165.232 774.101 165.232 779.518 Q165.232 785.097 161.76 788.199 Q158.288 791.277 151.968 791.277 Q149.792 791.277 147.524 790.907 Q145.279 790.537 142.871 789.796 L142.871 785.097 Q144.954 786.231 147.177 786.787 Q149.399 787.342 151.876 787.342 Q155.88 787.342 158.218 785.236 Q160.556 783.129 160.556 779.518 Q160.556 775.907 158.218 773.801 Q155.88 771.694 151.876 771.694 Q150.001 771.694 148.126 772.111 Q146.274 772.527 144.329 773.407 L144.329 756.046 Z" fill="#000000" fill-rule="nonzero" fill-opacity="1" /><path clip-path="url(#clip030)" d="M184.445 759.125 Q180.834 759.125 179.005 762.689 Q177.2 766.231 177.2 773.361 Q177.2 780.467 179.005 784.032 Q180.834 787.574 184.445 787.574 Q188.079 787.574 189.885 784.032 Q191.713 780.467 191.713 773.361 Q191.713 766.231 189.885 762.689 Q188.079 759.125 184.445 759.125 M184.445 755.421 Q190.255 755.421 193.311 760.027 Q196.389 764.611 196.389 773.361 Q196.389 782.088 193.311 786.694 Q190.255 791.277 184.445 791.277 Q178.635 791.277 175.556 786.694 Q172.501 782.088 172.501 773.361 Q172.501 764.611 175.556 760.027 Q178.635 755.421 184.445 755.421 Z" fill="#000000" fill-rule="nonzero" fill-opacity="1" /><path clip-path="url(#clip030)" d="M144.098 449.511 L166.32 449.511 L166.32 451.502 L153.774 484.071 L148.89 484.071 L160.695 453.446 L144.098 453.446 L144.098 449.511 Z" fill="#000000" fill-rule="nonzero" fill-opacity="1" /><path clip-path="url(#clip030)" d="M175.487 449.511 L193.843 449.511 L193.843 453.446 L179.769 453.446 L179.769 461.918 Q180.788 461.571 181.806 461.409 Q182.825 461.224 183.843 461.224 Q189.63 461.224 193.01 464.395 Q196.389 467.567 196.389 472.983 Q196.389 478.562 192.917 481.664 Q189.445 484.742 183.126 484.742 Q180.95 484.742 178.681 484.372 Q176.436 484.002 174.028 483.261 L174.028 478.562 Q176.112 479.696 178.334 480.252 Q180.556 480.807 183.033 480.807 Q187.038 480.807 189.375 478.701 Q191.713 476.594 191.713 472.983 Q191.713 469.372 189.375 467.266 Q187.038 465.159 183.033 465.159 Q181.158 465.159 179.283 465.576 Q177.431 465.993 175.487 466.872 L175.487 449.511 Z" fill="#000000" fill-rule="nonzero" fill-opacity="1" /><path clip-path="url(#clip030)" d="M114.931 173.601 L122.57 173.601 L122.57 147.236 L114.26 148.902 L114.26 144.643 L122.524 142.976 L127.2 142.976 L127.2 173.601 L134.839 173.601 L134.839 177.536 L114.931 177.536 L114.931 173.601 Z" fill="#000000" fill-rule="nonzero" fill-opacity="1" /><path clip-path="url(#clip030)" d="M154.283 146.055 Q150.672 146.055 148.843 149.62 Q147.038 153.161 147.038 160.291 Q147.038 167.397 148.843 170.962 Q150.672 174.504 154.283 174.504 Q157.917 174.504 159.723 170.962 Q161.552 167.397 161.552 160.291 Q161.552 153.161 159.723 149.62 Q157.917 146.055 154.283 146.055 M154.283 142.351 Q160.093 142.351 163.149 146.958 Q166.227 151.541 166.227 160.291 Q166.227 169.018 163.149 173.624 Q160.093 178.208 154.283 178.208 Q148.473 178.208 145.394 173.624 Q142.339 169.018 142.339 160.291 Q142.339 151.541 145.394 146.958 Q148.473 142.351 154.283 142.351 Z" fill="#000000" fill-rule="nonzero" fill-opacity="1" /><path clip-path="url(#clip030)" d="M184.445 146.055 Q180.834 146.055 179.005 149.62 Q177.2 153.161 177.2 160.291 Q177.2 167.397 179.005 170.962 Q180.834 174.504 184.445 174.504 Q188.079 174.504 189.885 170.962 Q191.713 167.397 191.713 160.291 Q191.713 153.161 189.885 149.62 Q188.079 146.055 184.445 146.055 M184.445 142.351 Q190.255 142.351 193.311 146.958 Q196.389 151.541 196.389 160.291 Q196.389 169.018 193.311 173.624 Q190.255 178.208 184.445 178.208 Q178.635 178.208 175.556 173.624 Q172.501 169.018 172.501 160.291 Q172.501 151.541 175.556 146.958 Q178.635 142.351 184.445 142.351 Z" fill="#000000" fill-rule="nonzero" fill-opacity="1" /><path clip-path="url(#clip030)" d="M29.4086 755.611 Q29.6662 755.611 31.9206 756.867 Q36.0752 758.96 42.4197 761.633 Q48.7643 764.306 53.4664 765.82 Q54.5936 766.142 56.0428 766.368 Q60.4872 766.947 67.3793 768.815 Q69.5371 769.459 70.4388 769.878 Q71.3406 770.297 71.3406 770.909 Q71.3406 771.778 70.149 771.778 Q68.9574 771.778 64.513 770.683 Q60.0686 769.556 55.9784 768.332 Q53.724 767.559 49.505 767.559 Q48.1524 767.559 46.9286 767.624 Q45.7047 767.688 43.9334 767.946 Q42.1621 768.203 40.7128 768.622 Q39.2636 769.041 37.7499 769.846 Q36.204 770.651 35.1734 771.746 Q34.1106 772.841 33.4343 774.516 Q32.758 776.158 32.758 778.219 Q32.758 778.735 32.8224 779.379 Q32.8546 779.991 33.2733 781.472 Q33.692 782.921 34.4327 784.145 Q35.1412 785.369 36.7193 786.69 Q38.2974 788.01 40.423 788.719 L40.745 788.976 Q40.745 789.395 40.745 789.62 Q40.7128 789.814 40.5518 790.039 Q40.3908 790.232 40.1009 790.232 Q39.4246 790.232 38.072 789.717 Q36.7193 789.169 34.9802 788.074 Q33.2411 786.947 31.6952 785.498 Q30.1493 784.016 29.0865 781.859 Q28.0237 779.701 28.0237 777.382 Q28.0237 771.424 35.27 768.59 Q41.4214 766.11 48.7321 765.885 Q35.7531 760.732 29.2153 757.189 Q28.7323 756.996 28.7323 756.416 Q28.7645 755.611 29.4086 755.611 Z" fill="#000000" fill-rule="nonzero" fill-opacity="1" /><path clip-path="url(#clip030)" d="M1121.64 18.8205 L1121.64 41.5461 L1131.93 41.5461 Q1137.65 41.5461 1140.76 38.5889 Q1143.88 35.6318 1143.88 30.163 Q1143.88 24.7348 1140.76 21.7777 Q1137.65 18.8205 1131.93 18.8205 L1121.64 18.8205 M1113.46 12.096 L1131.93 12.096 Q1142.1 12.096 1147.29 16.714 Q1152.51 21.2916 1152.51 30.163 Q1152.51 39.1155 1147.29 43.6931 Q1142.1 48.2706 1131.93 48.2706 L1121.64 48.2706 L1121.64 72.576 L1113.46 72.576 L1113.46 12.096 Z" fill="#000000" fill-rule="nonzero" fill-opacity="1" /><path clip-path="url(#clip030)" d="M1177.79 32.4315 Q1171.79 32.4315 1168.31 37.1306 Q1164.83 41.7891 1164.83 49.9314 Q1164.83 58.0738 1168.27 62.7728 Q1171.75 67.4314 1177.79 67.4314 Q1183.75 67.4314 1187.23 62.7323 Q1190.71 58.0333 1190.71 49.9314 Q1190.71 41.8701 1187.23 37.1711 Q1183.75 32.4315 1177.79 32.4315 M1177.79 26.1121 Q1187.51 26.1121 1193.06 32.4315 Q1198.61 38.7509 1198.61 49.9314 Q1198.61 61.0714 1193.06 67.4314 Q1187.51 73.7508 1177.79 73.7508 Q1168.03 73.7508 1162.48 67.4314 Q1156.97 61.0714 1156.97 49.9314 Q1156.97 38.7509 1162.48 32.4315 Q1168.03 26.1121 1177.79 26.1121 Z" fill="#000000" fill-rule="nonzero" fill-opacity="1" /><path clip-path="url(#clip030)" d="M1218.34 14.324 L1218.34 27.2059 L1233.69 27.2059 L1233.69 32.9987 L1218.34 32.9987 L1218.34 57.6282 Q1218.34 63.1779 1219.84 64.7578 Q1221.38 66.3376 1226.04 66.3376 L1233.69 66.3376 L1233.69 72.576 L1226.04 72.576 Q1217.41 72.576 1214.13 69.3758 Q1210.85 66.1351 1210.85 57.6282 L1210.85 32.9987 L1205.38 32.9987 L1205.38 27.2059 L1210.85 27.2059 L1210.85 14.324 L1218.34 14.324 Z" fill="#000000" fill-rule="nonzero" fill-opacity="1" /><path clip-path="url(#clip030)" d="M1282.3 48.0275 L1282.3 51.6733 L1248.03 51.6733 Q1248.52 59.3701 1252.65 63.421 Q1256.82 67.4314 1264.24 67.4314 Q1268.53 67.4314 1272.54 66.3781 Q1276.59 65.3249 1280.56 63.2184 L1280.56 70.267 Q1276.55 71.9684 1272.34 72.8596 Q1268.13 73.7508 1263.79 73.7508 Q1252.93 73.7508 1246.57 67.4314 Q1240.26 61.1119 1240.26 50.3365 Q1240.26 39.1965 1246.25 32.6746 Q1252.29 26.1121 1262.49 26.1121 Q1271.65 26.1121 1276.96 32.0264 Q1282.3 37.9003 1282.3 48.0275 M1274.85 45.84 Q1274.77 39.7232 1271.41 36.0774 Q1268.08 32.4315 1262.58 32.4315 Q1256.34 32.4315 1252.57 35.9558 Q1248.84 39.4801 1248.28 45.8805 L1274.85 45.84 Z" fill="#000000" fill-rule="nonzero" fill-opacity="1" /><path clip-path="url(#clip030)" d="M1332.25 45.1919 L1332.25 72.576 L1324.8 72.576 L1324.8 45.4349 Q1324.8 38.994 1322.29 35.7938 Q1319.77 32.5936 1314.75 32.5936 Q1308.72 32.5936 1305.23 36.4419 Q1301.75 40.2903 1301.75 46.9338 L1301.75 72.576 L1294.25 72.576 L1294.25 27.2059 L1301.75 27.2059 L1301.75 34.2544 Q1304.42 30.163 1308.03 28.1376 Q1311.67 26.1121 1316.41 26.1121 Q1324.23 26.1121 1328.24 30.9732 Q1332.25 35.7938 1332.25 45.1919 Z" fill="#000000" fill-rule="nonzero" fill-opacity="1" /><path clip-path="url(#clip030)" d="M1376.04 28.5427 L1376.04 35.5912 Q1372.88 33.9709 1369.48 33.1607 Q1366.08 32.3505 1362.43 32.3505 Q1356.88 32.3505 1354.09 34.0519 Q1351.33 35.7533 1351.33 39.156 Q1351.33 41.7486 1353.32 43.2475 Q1355.3 44.7058 1361.3 46.0426 L1363.85 46.6097 Q1371.79 48.3111 1375.11 51.4303 Q1378.47 54.509 1378.47 60.0587 Q1378.47 66.3781 1373.45 70.0644 Q1368.47 73.7508 1359.72 73.7508 Q1356.07 73.7508 1352.1 73.0216 Q1348.17 72.3329 1343.8 70.9151 L1343.8 63.2184 Q1347.93 65.3654 1351.94 66.4591 Q1355.95 67.5124 1359.88 67.5124 Q1365.14 67.5124 1367.98 65.73 Q1370.82 63.9071 1370.82 60.6258 Q1370.82 57.5877 1368.75 55.9673 Q1366.72 54.3469 1359.8 52.8481 L1357.2 52.2405 Q1350.28 50.7821 1347.2 47.7845 Q1344.12 44.7463 1344.12 39.4801 Q1344.12 33.0797 1348.66 29.5959 Q1353.19 26.1121 1361.54 26.1121 Q1365.67 26.1121 1369.32 26.7198 Q1372.96 27.3274 1376.04 28.5427 Z" fill="#000000" fill-rule="nonzero" fill-opacity="1" /><path clip-path="url(#clip030)" d="M1390.34 27.2059 L1397.79 27.2059 L1397.79 72.576 L1390.34 72.576 L1390.34 27.2059 M1390.34 9.54393 L1397.79 9.54393 L1397.79 18.9825 L1390.34 18.9825 L1390.34 9.54393 Z" fill="#000000" fill-rule="nonzero" fill-opacity="1" /><path clip-path="url(#clip030)" d="M1434.01 49.7694 Q1424.98 49.7694 1421.49 51.8354 Q1418.01 53.9013 1418.01 58.8839 Q1418.01 62.8538 1420.6 65.2034 Q1423.23 67.5124 1427.73 67.5124 Q1433.93 67.5124 1437.66 63.1374 Q1441.42 58.7219 1441.42 51.4303 L1441.42 49.7694 L1434.01 49.7694 M1448.88 46.6907 L1448.88 72.576 L1441.42 72.576 L1441.42 65.6895 Q1438.87 69.8214 1435.06 71.8063 Q1431.26 73.7508 1425.75 73.7508 Q1418.78 73.7508 1414.65 69.8619 Q1410.56 65.9325 1410.56 59.3701 Q1410.56 51.7138 1415.66 47.825 Q1420.8 43.9361 1430.97 43.9361 L1441.42 43.9361 L1441.42 43.2069 Q1441.42 38.0623 1438.02 35.2672 Q1434.66 32.4315 1428.54 32.4315 Q1424.65 32.4315 1420.97 33.3632 Q1417.28 34.295 1413.88 36.1584 L1413.88 29.2718 Q1417.97 27.692 1421.82 26.9223 Q1425.67 26.1121 1429.31 26.1121 Q1439.15 26.1121 1444.02 31.2163 Q1448.88 36.3204 1448.88 46.6907 Z" fill="#000000" fill-rule="nonzero" fill-opacity="1" /><path clip-path="url(#clip030)" d="M1464.23 9.54393 L1471.68 9.54393 L1471.68 72.576 L1464.23 72.576 L1464.23 9.54393 Z" fill="#000000" fill-rule="nonzero" fill-opacity="1" /><polyline clip-path="url(#clip032)" style="stroke:#009af9; stroke-linecap:round; stroke-linejoin:round; stroke-width:4; stroke-opacity:1; fill:none" points="292.4,160.256 296.416,160.256 300.433,160.256 304.45,160.256 308.467,160.256 312.484,160.256 316.5,160.256 320.517,160.256 324.534,160.256 328.551,160.256 332.567,160.256 336.584,160.256 340.601,160.256 344.618,160.256 348.634,160.256 352.651,160.256 356.668,160.256 360.685,160.256 364.701,160.256 368.718,160.256 372.735,160.256 376.752,160.256 380.768,160.256 384.785,160.256 388.802,160.256 392.819,160.256 396.835,160.256 400.852,160.256 404.869,160.256 408.886,160.256 412.902,160.256 416.919,160.256 420.936,160.256 424.953,160.256 428.97,160.256 432.986,160.256 437.003,160.256 441.02,160.256 445.037,160.256 449.053,160.256 453.07,160.256 457.087,160.256 461.104,160.256 465.12,160.256 469.137,160.256 473.154,160.256 477.171,160.256 481.187,160.256 485.204,160.256 489.221,160.256 493.238,160.256 497.254,160.256 501.271,160.256 505.288,160.256 509.305,160.256 513.321,160.256 517.338,160.256 521.355,160.256 525.372,160.256 529.388,160.256 533.405,160.256 537.422,160.256 541.439,160.256 545.456,160.256 549.472,160.256 553.489,160.256 557.506,160.256 561.523,160.256 565.539,160.256 569.556,160.256 573.573,160.256 577.59,160.256 581.606,160.256 585.623,160.256 589.64,160.256 593.657,160.256 597.673,160.256 601.69,160.256 605.707,160.256 609.724,160.256 613.74,160.256 617.757,160.256 621.774,160.256 625.791,160.256 629.807,160.256 633.824,160.256 637.841,160.256 641.858,160.256 645.874,160.256 649.891,160.256 653.908,160.256 657.925,160.256 661.942,160.256 665.958,160.256 669.975,160.256 673.992,160.256 678.009,160.256 682.025,160.256 686.042,160.256 690.059,160.256 694.076,160.256 698.092,160.256 702.109,160.256 706.126,160.256 710.143,160.256 714.159,160.256 718.176,160.256 722.193,160.256 726.21,160.256 730.226,160.256 734.243,160.256 738.26,160.256 742.277,160.256 746.293,160.256 750.31,160.256 754.327,160.256 758.344,160.256 762.36,160.256 766.377,160.256 770.394,160.256 774.411,160.256 778.428,160.256 782.444,160.256 786.461,160.256 790.478,160.256 794.495,1386.4 798.511,1386.4 802.528,1386.4 806.545,1386.4 810.562,1386.4 814.578,1386.4 818.595,1386.4 822.612,1386.4 826.629,1386.4 830.645,1386.4 834.662,1386.4 838.679,1386.4 842.696,1386.4 846.712,1386.4 850.729,1386.4 854.746,1386.4 858.763,1386.4 862.779,1386.4 866.796,1386.4 870.813,1386.4 874.83,1386.4 878.846,1386.4 882.863,1386.4 886.88,1386.4 890.897,1386.4 894.914,1386.4 898.93,1386.4 902.947,1386.4 906.964,1386.4 910.981,1386.4 914.997,1386.4 919.014,1386.4 923.031,1386.4 927.048,1386.4 931.064,1386.4 935.081,1386.4 939.098,1386.4 943.115,1386.4 947.131,1386.4 951.148,1386.4 955.165,1386.4 959.182,1386.4 963.198,1386.4 967.215,1386.4 971.232,1386.4 975.249,1386.4 979.265,1386.4 983.282,1386.4 987.299,1386.4 991.316,1386.4 995.332,1386.4 999.349,1386.4 1003.37,1386.4 1007.38,1386.4 1011.4,1386.4 1015.42,1386.4 1019.43,1386.4 1023.45,1386.4 1027.47,1386.4 1031.48,1386.4 1035.5,1386.4 1039.52,1386.4 1043.53,1386.4 1047.55,1386.4 1051.57,1386.4 1055.58,1386.4 1059.6,1386.4 1063.62,1386.4 1067.63,1386.4 1071.65,1386.4 1075.67,1386.4 1079.68,1386.4 1083.7,1386.4 1087.72,1386.4 1091.73,1386.4 1095.75,1386.4 1099.77,1386.4 1103.78,1386.4 1107.8,1386.4 1111.82,1386.4 1115.84,1386.4 1119.85,1386.4 1123.87,1386.4 1127.89,1386.4 1131.9,1386.4 1135.92,1386.4 1139.94,1386.4 1143.95,1386.4 1147.97,1386.4 1151.99,1386.4 1156,1386.4 1160.02,1386.4 1164.04,1386.4 1168.05,1386.4 1172.07,1386.4 1176.09,1386.4 1180.1,1386.4 1184.12,1386.4 1188.14,1386.4 1192.15,1386.4 1196.17,1386.4 1200.19,1386.4 1204.2,1386.4 1208.22,1386.4 1212.24,1386.4 1216.25,1386.4 1220.27,1386.4 1224.29,1386.4 1228.3,1386.4 1232.32,1386.4 1236.34,1386.4 1240.35,1386.4 1244.37,1386.4 1248.39,1386.4 1252.41,1386.4 1256.42,1386.4 1260.44,1386.4 1264.46,1386.4 1268.47,1386.4 1272.49,1386.4 1276.51,1386.4 1280.52,1386.4 1284.54,1386.4 1288.56,1386.4 1292.57,1386.4 1296.59,1386.4 1300.61,1386.4 1304.62,1386.4 1308.64,1386.4 1312.66,1386.4 1316.67,1386.4 1320.69,1386.4 1324.71,1386.4 1328.72,1386.4 1332.74,1386.4 1336.76,1386.4 1340.77,1386.4 1344.79,1386.4 1348.81,1386.4 1352.82,1386.4 1356.84,1386.4 1360.86,1386.4 1364.87,1386.4 1368.89,1386.4 1372.91,1386.4 1376.92,1386.4 1380.94,1386.4 1384.96,1386.4 1388.97,1386.4 1392.99,1386.4 1397.01,1386.4 1401.03,1386.4 1405.04,1386.4 1409.06,1386.4 1413.08,1386.4 1417.09,1386.4 1421.11,1079.86 1425.13,1079.86 1429.14,1079.86 1433.16,1079.86 1437.18,1079.86 1441.19,1079.86 1445.21,1079.86 1449.23,1079.86 1453.24,1079.86 1457.26,1079.86 1461.28,1079.86 1465.29,1079.86 1469.31,1079.86 1473.33,1079.86 1477.34,1079.86 1481.36,1079.86 1485.38,1079.86 1489.39,1079.86 1493.41,1079.86 1497.43,1079.86 1501.44,1079.86 1505.46,1079.86 1509.48,1079.86 1513.49,1079.86 1517.51,1079.86 1521.53,1079.86 1525.54,1079.86 1529.56,1079.86 1533.58,1079.86 1537.59,1079.86 1541.61,1079.86 1545.63,1079.86 1549.65,1079.86 1553.66,1079.86 1557.68,1079.86 1561.7,1079.86 1565.71,1079.86 1569.73,1079.86 1573.75,1079.86 1577.76,1079.86 1581.78,1079.86 1585.8,1079.86 1589.81,1079.86 1593.83,1079.86 1597.85,1079.86 1601.86,1079.86 1605.88,1079.86 1609.9,1079.86 1613.91,1079.86 1617.93,1079.86 1621.95,1079.86 1625.96,1079.86 1629.98,1079.86 1634,1079.86 1638.01,1079.86 1642.03,1079.86 1646.05,1079.86 1650.06,1079.86 1654.08,1079.86 1658.1,1079.86 1662.11,1079.86 1666.13,1079.86 1670.15,1079.86 1674.16,1079.86 1678.18,1079.86 1682.2,1079.86 1686.21,1079.86 1690.23,1079.86 1694.25,1079.86 1698.27,1079.86 1702.28,1079.86 1706.3,1079.86 1710.32,1079.86 1714.33,1079.86 1718.35,1079.86 1722.37,1079.86 1726.38,1079.86 1730.4,1079.86 1734.42,1079.86 1738.43,1079.86 1742.45,1079.86 1746.47,1079.86 1750.48,1079.86 1754.5,1079.86 1758.52,1079.86 1762.53,1079.86 1766.55,1079.86 1770.57,1079.86 1774.58,1079.86 1778.6,1079.86 1782.62,1079.86 1786.63,1079.86 1790.65,1079.86 1794.67,1079.86 1798.68,1079.86 1802.7,1079.86 1806.72,1079.86 1810.73,1079.86 1814.75,1079.86 1818.77,1079.86 1822.78,1079.86 1826.8,1079.86 1830.82,1079.86 1834.84,1079.86 1838.85,1079.86 1842.87,1079.86 1846.89,1079.86 1850.9,1079.86 1854.92,1079.86 1858.94,1079.86 1862.95,1079.86 1866.97,1079.86 1870.99,1079.86 1875,1079.86 1879.02,1079.86 1883.04,1079.86 1887.05,1079.86 1891.07,1079.86 1895.09,1079.86 1899.1,1079.86 1903.12,1079.86 1907.14,1079.86 1911.15,1079.86 1915.17,1079.86 1919.19,1079.86 1923.2,1079.86 1927.22,1079.86 1931.24,1079.86 1935.25,1079.86 1939.27,1079.86 1943.29,1079.86 1947.3,1079.86 1951.32,1079.86 1955.34,1079.86 1959.35,1079.86 1963.37,1079.86 1967.39,1079.86 1971.4,1079.86 1975.42,1079.86 1979.44,1079.86 1983.46,1079.86 1987.47,1079.86 1991.49,1079.86 1995.51,1079.86 1999.52,1079.86 2003.54,1079.86 2007.56,1079.86 2011.57,1079.86 2015.59,1079.86 2019.61,1079.86 2023.62,1079.86 2027.64,1079.86 2031.66,1079.86 2035.67,1079.86 2039.69,1079.86 2043.71,1079.86 2047.72,160.256 2051.74,160.256 2055.76,160.256 2059.77,160.256 2063.79,160.256 2067.81,160.256 2071.82,160.256 2075.84,160.256 2079.86,160.256 2083.87,160.256 2087.89,160.256 2091.91,160.256 2095.92,160.256 2099.94,160.256 2103.96,160.256 2107.97,160.256 2111.99,160.256 2116.01,160.256 2120.02,160.256 2124.04,160.256 2128.06,160.256 2132.08,160.256 2136.09,160.256 2140.11,160.256 2144.13,160.256 2148.14,160.256 2152.16,160.256 2156.18,160.256 2160.19,160.256 2164.21,160.256 2168.23,160.256 2172.24,160.256 2176.26,160.256 2180.28,160.256 2184.29,160.256 2188.31,160.256 2192.33,160.256 2196.34,160.256 2200.36,160.256 2204.38,160.256 2208.39,160.256 2212.41,160.256 2216.43,160.256 2220.44,160.256 2224.46,160.256 2228.48,160.256 2232.49,160.256 2236.51,160.256 2240.53,160.256 2244.54,160.256 2248.56,160.256 2252.58,160.256 2256.59,160.256 2260.61,160.256 2264.63,160.256 2268.64,160.256 2272.66,160.256 2276.68,160.256 2280.7,160.256 2284.71,160.256 2288.73,160.256 2292.75,160.256 "/>
<path clip-path="url(#clip030)" d="M2017.61 1379.86 L2282.08 1379.86 L2282.08 1276.18 L2017.61 1276.18  Z" fill="#ffffff" fill-rule="evenodd" fill-opacity="1"/>
<polyline clip-path="url(#clip030)" style="stroke:#000000; stroke-linecap:round; stroke-linejoin:round; stroke-width:4; stroke-opacity:1; fill:none" points="2017.61,1379.86 2282.08,1379.86 2282.08,1276.18 2017.61,1276.18 2017.61,1379.86 "/>
<polyline clip-path="url(#clip030)" style="stroke:#009af9; stroke-linecap:round; stroke-linejoin:round; stroke-width:4; stroke-opacity:1; fill:none" points="2041.17,1328.02 2182.53,1328.02 "/>
<path clip-path="url(#clip030)" d="M2219.93 1347.7 Q2218.12 1352.33 2216.41 1353.75 Q2214.7 1355.16 2211.83 1355.16 L2208.43 1355.16 L2208.43 1351.59 L2210.93 1351.59 Q2212.68 1351.59 2213.66 1350.76 Q2214.63 1349.93 2215.81 1346.82 L2216.57 1344.88 L2206.09 1319.37 L2210.6 1319.37 L2218.7 1339.65 L2226.8 1319.37 L2231.32 1319.37 L2219.93 1347.7 Z" fill="#000000" fill-rule="nonzero" fill-opacity="1" /><path clip-path="url(#clip030)" d="M2238.61 1341.36 L2246.25 1341.36 L2246.25 1315 L2237.94 1316.66 L2237.94 1312.4 L2246.2 1310.74 L2250.88 1310.74 L2250.88 1341.36 L2258.52 1341.36 L2258.52 1345.3 L2238.61 1345.3 L2238.61 1341.36 Z" fill="#000000" fill-rule="nonzero" fill-opacity="1" /></svg>
