<?xml version="1.0" encoding="utf-8"?>
<svg xmlns="http://www.w3.org/2000/svg" xmlns:xlink="http://www.w3.org/1999/xlink" width="600" height="400" viewBox="0 0 2400 1600">
<defs>
  <clipPath id="clip770">
    <rect x="0" y="0" width="2400" height="1600"/>
  </clipPath>
</defs>
<path clip-path="url(#clip770)" d="M0 1600 L2400 1600 L2400 8.88178e-14 L0 8.88178e-14  Z" fill="#ffffff" fill-rule="evenodd" fill-opacity="1"/>
<defs>
  <clipPath id="clip771">
    <rect x="480" y="0" width="1681" height="1600"/>
  </clipPath>
</defs>
<path clip-path="url(#clip770)" d="M219.866 1423.18 L2352.76 1423.18 L2352.76 123.472 L219.866 123.472  Z" fill="#ffffff" fill-rule="evenodd" fill-opacity="1"/>
<defs>
  <clipPath id="clip772">
    <rect x="219" y="123" width="2134" height="1301"/>
  </clipPath>
</defs>
<polyline clip-path="url(#clip772)" style="stroke:#000000; stroke-linecap:round; stroke-linejoin:round; stroke-width:2; stroke-opacity:0.1; fill:none" points="278.215,1423.18 278.215,123.472 "/>
<polyline clip-path="url(#clip772)" style="stroke:#000000; stroke-linecap:round; stroke-linejoin:round; stroke-width:2; stroke-opacity:0.1; fill:none" points="781.759,1423.18 781.759,123.472 "/>
<polyline clip-path="url(#clip772)" style="stroke:#000000; stroke-linecap:round; stroke-linejoin:round; stroke-width:2; stroke-opacity:0.1; fill:none" points="1285.3,1423.18 1285.3,123.472 "/>
<polyline clip-path="url(#clip772)" style="stroke:#000000; stroke-linecap:round; stroke-linejoin:round; stroke-width:2; stroke-opacity:0.1; fill:none" points="1788.85,1423.18 1788.85,123.472 "/>
<polyline clip-path="url(#clip772)" style="stroke:#000000; stroke-linecap:round; stroke-linejoin:round; stroke-width:2; stroke-opacity:0.1; fill:none" points="2292.39,1423.18 2292.39,123.472 "/>
<polyline clip-path="url(#clip772)" style="stroke:#000000; stroke-linecap:round; stroke-linejoin:round; stroke-width:2; stroke-opacity:0.1; fill:none" points="219.866,1386.31 2352.76,1386.31 "/>
<polyline clip-path="url(#clip772)" style="stroke:#000000; stroke-linecap:round; stroke-linejoin:round; stroke-width:2; stroke-opacity:0.1; fill:none" points="219.866,1080.25 2352.76,1080.25 "/>
<polyline clip-path="url(#clip772)" style="stroke:#000000; stroke-linecap:round; stroke-linejoin:round; stroke-width:2; stroke-opacity:0.1; fill:none" points="219.866,774.191 2352.76,774.191 "/>
<polyline clip-path="url(#clip772)" style="stroke:#000000; stroke-linecap:round; stroke-linejoin:round; stroke-width:2; stroke-opacity:0.1; fill:none" points="219.866,468.13 2352.76,468.13 "/>
<polyline clip-path="url(#clip772)" style="stroke:#000000; stroke-linecap:round; stroke-linejoin:round; stroke-width:2; stroke-opacity:0.1; fill:none" points="219.866,162.07 2352.76,162.07 "/>
<polyline clip-path="url(#clip770)" style="stroke:#000000; stroke-linecap:round; stroke-linejoin:round; stroke-width:4; stroke-opacity:1; fill:none" points="219.866,1423.18 2352.76,1423.18 "/>
<polyline clip-path="url(#clip770)" style="stroke:#000000; stroke-linecap:round; stroke-linejoin:round; stroke-width:4; stroke-opacity:1; fill:none" points="278.215,1423.18 278.215,1404.28 "/>
<polyline clip-path="url(#clip770)" style="stroke:#000000; stroke-linecap:round; stroke-linejoin:round; stroke-width:4; stroke-opacity:1; fill:none" points="781.759,1423.18 781.759,1404.28 "/>
<polyline clip-path="url(#clip770)" style="stroke:#000000; stroke-linecap:round; stroke-linejoin:round; stroke-width:4; stroke-opacity:1; fill:none" points="1285.3,1423.18 1285.3,1404.28 "/>
<polyline clip-path="url(#clip770)" style="stroke:#000000; stroke-linecap:round; stroke-linejoin:round; stroke-width:4; stroke-opacity:1; fill:none" points="1788.85,1423.18 1788.85,1404.28 "/>
<polyline clip-path="url(#clip770)" style="stroke:#000000; stroke-linecap:round; stroke-linejoin:round; stroke-width:4; stroke-opacity:1; fill:none" points="2292.39,1423.18 2292.39,1404.28 "/>
<path clip-path="url(#clip770)" d="M255.599 1454.1 Q251.988 1454.1 250.159 1457.66 Q248.354 1461.2 248.354 1468.33 Q248.354 1475.44 250.159 1479.01 Q251.988 1482.55 255.599 1482.55 Q259.233 1482.55 261.039 1479.01 Q262.868 1475.44 262.868 1468.33 Q262.868 1461.2 261.039 1457.66 Q259.233 1454.1 255.599 1454.1 M255.599 1450.39 Q261.409 1450.39 264.465 1455 Q267.544 1459.58 267.544 1468.33 Q267.544 1477.06 264.465 1481.67 Q261.409 1486.25 255.599 1486.25 Q249.789 1486.25 246.71 1481.67 Q243.655 1477.06 243.655 1468.33 Q243.655 1459.58 246.71 1455 Q249.789 1450.39 255.599 1450.39 Z" fill="#000000" fill-rule="nonzero" fill-opacity="1" /><path clip-path="url(#clip770)" d="M275.761 1479.7 L280.645 1479.7 L280.645 1485.58 L275.761 1485.58 L275.761 1479.7 Z" fill="#000000" fill-rule="nonzero" fill-opacity="1" /><path clip-path="url(#clip770)" d="M300.83 1454.1 Q297.219 1454.1 295.391 1457.66 Q293.585 1461.2 293.585 1468.33 Q293.585 1475.44 295.391 1479.01 Q297.219 1482.55 300.83 1482.55 Q304.465 1482.55 306.27 1479.01 Q308.099 1475.44 308.099 1468.33 Q308.099 1461.2 306.27 1457.66 Q304.465 1454.1 300.83 1454.1 M300.83 1450.39 Q306.641 1450.39 309.696 1455 Q312.775 1459.58 312.775 1468.33 Q312.775 1477.06 309.696 1481.67 Q306.641 1486.25 300.83 1486.25 Q295.02 1486.25 291.942 1481.67 Q288.886 1477.06 288.886 1468.33 Q288.886 1459.58 291.942 1455 Q295.02 1450.39 300.83 1450.39 Z" fill="#000000" fill-rule="nonzero" fill-opacity="1" /><path clip-path="url(#clip770)" d="M753.495 1481.64 L769.815 1481.64 L769.815 1485.58 L747.87 1485.58 L747.87 1481.64 Q750.532 1478.89 755.116 1474.26 Q759.722 1469.61 760.903 1468.27 Q763.148 1465.74 764.028 1464.01 Q764.93 1462.25 764.93 1460.56 Q764.93 1457.8 762.986 1456.07 Q761.065 1454.33 757.963 1454.33 Q755.764 1454.33 753.31 1455.09 Q750.879 1455.86 748.102 1457.41 L748.102 1452.69 Q750.926 1451.55 753.379 1450.97 Q755.833 1450.39 757.87 1450.39 Q763.241 1450.39 766.435 1453.08 Q769.629 1455.77 769.629 1460.26 Q769.629 1462.39 768.819 1464.31 Q768.032 1466.2 765.926 1468.8 Q765.347 1469.47 762.245 1472.69 Q759.143 1475.88 753.495 1481.64 Z" fill="#000000" fill-rule="nonzero" fill-opacity="1" /><path clip-path="url(#clip770)" d="M779.629 1479.7 L784.514 1479.7 L784.514 1485.58 L779.629 1485.58 L779.629 1479.7 Z" fill="#000000" fill-rule="nonzero" fill-opacity="1" /><path clip-path="url(#clip770)" d="M794.745 1451.02 L813.101 1451.02 L813.101 1454.96 L799.027 1454.96 L799.027 1463.43 Q800.046 1463.08 801.064 1462.92 Q802.083 1462.73 803.101 1462.73 Q808.888 1462.73 812.268 1465.9 Q815.648 1469.08 815.648 1474.49 Q815.648 1480.07 812.175 1483.17 Q808.703 1486.25 802.384 1486.25 Q800.208 1486.25 797.939 1485.88 Q795.694 1485.51 793.287 1484.77 L793.287 1480.07 Q795.37 1481.2 797.592 1481.76 Q799.814 1482.32 802.291 1482.32 Q806.296 1482.32 808.634 1480.21 Q810.972 1478.1 810.972 1474.49 Q810.972 1470.88 808.634 1468.77 Q806.296 1466.67 802.291 1466.67 Q800.416 1466.67 798.541 1467.08 Q796.689 1467.5 794.745 1468.38 L794.745 1451.02 Z" fill="#000000" fill-rule="nonzero" fill-opacity="1" /><path clip-path="url(#clip770)" d="M1252.47 1451.02 L1270.82 1451.02 L1270.82 1454.96 L1256.75 1454.96 L1256.75 1463.43 Q1257.77 1463.08 1258.79 1462.92 Q1259.81 1462.73 1260.82 1462.73 Q1266.61 1462.73 1269.99 1465.9 Q1273.37 1469.08 1273.37 1474.49 Q1273.37 1480.07 1269.9 1483.17 Q1266.43 1486.25 1260.11 1486.25 Q1257.93 1486.25 1255.66 1485.88 Q1253.42 1485.51 1251.01 1484.77 L1251.01 1480.07 Q1253.09 1481.2 1255.31 1481.76 Q1257.54 1482.32 1260.01 1482.32 Q1264.02 1482.32 1266.36 1480.21 Q1268.69 1478.1 1268.69 1474.49 Q1268.69 1470.88 1266.36 1468.77 Q1264.02 1466.67 1260.01 1466.67 Q1258.14 1466.67 1256.26 1467.08 Q1254.41 1467.5 1252.47 1468.38 L1252.47 1451.02 Z" fill="#000000" fill-rule="nonzero" fill-opacity="1" /><path clip-path="url(#clip770)" d="M1282.58 1479.7 L1287.47 1479.7 L1287.47 1485.58 L1282.58 1485.58 L1282.58 1479.7 Z" fill="#000000" fill-rule="nonzero" fill-opacity="1" /><path clip-path="url(#clip770)" d="M1307.65 1454.1 Q1304.04 1454.1 1302.21 1457.66 Q1300.41 1461.2 1300.41 1468.33 Q1300.41 1475.44 1302.21 1479.01 Q1304.04 1482.55 1307.65 1482.55 Q1311.29 1482.55 1313.09 1479.01 Q1314.92 1475.44 1314.92 1468.33 Q1314.92 1461.2 1313.09 1457.66 Q1311.29 1454.1 1307.65 1454.1 M1307.65 1450.39 Q1313.46 1450.39 1316.52 1455 Q1319.6 1459.58 1319.6 1468.33 Q1319.6 1477.06 1316.52 1481.67 Q1313.46 1486.25 1307.65 1486.25 Q1301.84 1486.25 1298.76 1481.67 Q1295.71 1477.06 1295.71 1468.33 Q1295.71 1459.58 1298.76 1455 Q1301.84 1450.39 1307.65 1450.39 Z" fill="#000000" fill-rule="nonzero" fill-opacity="1" /><path clip-path="url(#clip770)" d="M1755.17 1451.02 L1777.39 1451.02 L1777.39 1453.01 L1764.84 1485.58 L1759.96 1485.58 L1771.76 1454.96 L1755.17 1454.96 L1755.17 1451.02 Z" fill="#000000" fill-rule="nonzero" fill-opacity="1" /><path clip-path="url(#clip770)" d="M1786.51 1479.7 L1791.39 1479.7 L1791.39 1485.58 L1786.51 1485.58 L1786.51 1479.7 Z" fill="#000000" fill-rule="nonzero" fill-opacity="1" /><path clip-path="url(#clip770)" d="M1801.62 1451.02 L1819.98 1451.02 L1819.98 1454.96 L1805.91 1454.96 L1805.91 1463.43 Q1806.93 1463.08 1807.94 1462.92 Q1808.96 1462.73 1809.98 1462.73 Q1815.77 1462.73 1819.15 1465.9 Q1822.53 1469.08 1822.53 1474.49 Q1822.53 1480.07 1819.06 1483.17 Q1815.58 1486.25 1809.26 1486.25 Q1807.09 1486.25 1804.82 1485.88 Q1802.57 1485.51 1800.17 1484.77 L1800.17 1480.07 Q1802.25 1481.2 1804.47 1481.76 Q1806.69 1482.32 1809.17 1482.32 Q1813.18 1482.32 1815.51 1480.21 Q1817.85 1478.1 1817.85 1474.49 Q1817.85 1470.88 1815.51 1468.77 Q1813.18 1466.67 1809.17 1466.67 Q1807.3 1466.67 1805.42 1467.08 Q1803.57 1467.5 1801.62 1468.38 L1801.62 1451.02 Z" fill="#000000" fill-rule="nonzero" fill-opacity="1" /><path clip-path="url(#clip770)" d="M2244.46 1481.64 L2252.1 1481.64 L2252.1 1455.28 L2243.79 1456.95 L2243.79 1452.69 L2252.06 1451.02 L2256.73 1451.02 L2256.73 1481.64 L2264.37 1481.64 L2264.37 1485.58 L2244.46 1485.58 L2244.46 1481.64 Z" fill="#000000" fill-rule="nonzero" fill-opacity="1" /><path clip-path="url(#clip770)" d="M2283.81 1454.1 Q2280.2 1454.1 2278.37 1457.66 Q2276.57 1461.2 2276.57 1468.33 Q2276.57 1475.44 2278.37 1479.01 Q2280.2 1482.55 2283.81 1482.55 Q2287.45 1482.55 2289.25 1479.01 Q2291.08 1475.44 2291.08 1468.33 Q2291.08 1461.2 2289.25 1457.66 Q2287.45 1454.1 2283.81 1454.1 M2283.81 1450.39 Q2289.62 1450.39 2292.68 1455 Q2295.76 1459.58 2295.76 1468.33 Q2295.76 1477.06 2292.68 1481.67 Q2289.62 1486.25 2283.81 1486.25 Q2278 1486.25 2274.93 1481.67 Q2271.87 1477.06 2271.87 1468.33 Q2271.87 1459.58 2274.93 1455 Q2278 1450.39 2283.81 1450.39 Z" fill="#000000" fill-rule="nonzero" fill-opacity="1" /><path clip-path="url(#clip770)" d="M2303.98 1479.7 L2308.86 1479.7 L2308.86 1485.58 L2303.98 1485.58 L2303.98 1479.7 Z" fill="#000000" fill-rule="nonzero" fill-opacity="1" /><path clip-path="url(#clip770)" d="M2329.05 1454.1 Q2325.43 1454.1 2323.61 1457.66 Q2321.8 1461.2 2321.8 1468.33 Q2321.8 1475.44 2323.61 1479.01 Q2325.43 1482.55 2329.05 1482.55 Q2332.68 1482.55 2334.49 1479.01 Q2336.31 1475.44 2336.31 1468.33 Q2336.31 1461.2 2334.49 1457.66 Q2332.68 1454.1 2329.05 1454.1 M2329.05 1450.39 Q2334.86 1450.39 2337.91 1455 Q2340.99 1459.58 2340.99 1468.33 Q2340.99 1477.06 2337.91 1481.67 Q2334.86 1486.25 2329.05 1486.25 Q2323.24 1486.25 2320.16 1481.67 Q2317.1 1477.06 2317.1 1468.33 Q2317.1 1459.58 2320.16 1455 Q2323.24 1450.39 2329.05 1450.39 Z" fill="#000000" fill-rule="nonzero" fill-opacity="1" /><path clip-path="url(#clip770)" d="M1298.45 1528.74 Q1298.45 1530.45 1297.32 1531.54 Q1296.23 1532.64 1294.81 1532.64 Q1293.59 1532.64 1292.94 1531.93 Q1292.3 1531.22 1292.3 1530.32 Q1292.3 1529.03 1293.3 1527.97 Q1294.3 1526.9 1295.74 1526.68 Q1294.68 1525.91 1292.97 1525.91 Q1290.17 1525.91 1287.69 1528.06 Q1286.6 1529.06 1285.41 1530.9 Q1284.21 1532.7 1283.99 1533.47 L1281.9 1542.07 Q1281.7 1543.04 1280.51 1547.68 Q1279.35 1552.28 1279.25 1552.47 Q1278.93 1553.38 1278.22 1553.86 Q1277.52 1554.34 1276.81 1554.34 Q1276 1554.34 1275.45 1553.86 Q1274.91 1553.38 1274.91 1552.54 Q1274.91 1552.41 1275 1551.93 Q1275.1 1551.44 1275.26 1550.77 Q1275.42 1550.09 1275.49 1549.71 L1279.32 1534.47 Q1280.03 1531.7 1280.19 1530.83 Q1280.38 1529.93 1280.38 1528.93 Q1280.38 1527.19 1279.83 1526.55 Q1279.29 1525.91 1278.32 1525.91 Q1276.65 1525.91 1275.55 1527.9 Q1274.46 1529.9 1273.52 1533.76 Q1273.23 1534.83 1273.04 1535.05 Q1272.88 1535.28 1272.4 1535.28 Q1271.59 1535.24 1271.59 1534.6 Q1271.59 1534.44 1271.85 1533.41 Q1272.11 1532.35 1272.59 1530.8 Q1273.1 1529.22 1273.65 1528.22 Q1273.97 1527.55 1274.26 1527.1 Q1274.55 1526.65 1275.13 1525.94 Q1275.71 1525.23 1276.58 1524.84 Q1277.45 1524.46 1278.51 1524.46 Q1280.83 1524.46 1282.48 1525.87 Q1284.15 1527.29 1284.54 1529.51 Q1285.34 1528.35 1286.34 1527.35 Q1287.34 1526.32 1289.17 1525.39 Q1291.01 1524.46 1292.97 1524.46 Q1295.42 1524.46 1296.94 1525.71 Q1298.45 1526.94 1298.45 1528.74 Z" fill="#000000" fill-rule="nonzero" fill-opacity="1" /><polyline clip-path="url(#clip770)" style="stroke:#000000; stroke-linecap:round; stroke-linejoin:round; stroke-width:4; stroke-opacity:1; fill:none" points="219.866,1423.18 219.866,123.472 "/>
<polyline clip-path="url(#clip770)" style="stroke:#000000; stroke-linecap:round; stroke-linejoin:round; stroke-width:4; stroke-opacity:1; fill:none" points="219.866,1386.31 238.764,1386.31 "/>
<polyline clip-path="url(#clip770)" style="stroke:#000000; stroke-linecap:round; stroke-linejoin:round; stroke-width:4; stroke-opacity:1; fill:none" points="219.866,1080.25 238.764,1080.25 "/>
<polyline clip-path="url(#clip770)" style="stroke:#000000; stroke-linecap:round; stroke-linejoin:round; stroke-width:4; stroke-opacity:1; fill:none" points="219.866,774.191 238.764,774.191 "/>
<polyline clip-path="url(#clip770)" style="stroke:#000000; stroke-linecap:round; stroke-linejoin:round; stroke-width:4; stroke-opacity:1; fill:none" points="219.866,468.13 238.764,468.13 "/>
<polyline clip-path="url(#clip770)" style="stroke:#000000; stroke-linecap:round; stroke-linejoin:round; stroke-width:4; stroke-opacity:1; fill:none" points="219.866,162.07 238.764,162.07 "/>
<path clip-path="url(#clip770)" d="M128.288 1372.11 Q124.677 1372.11 122.848 1375.68 Q121.043 1379.22 121.043 1386.35 Q121.043 1393.45 122.848 1397.02 Q124.677 1400.56 128.288 1400.56 Q131.922 1400.56 133.728 1397.02 Q135.556 1393.45 135.556 1386.35 Q135.556 1379.22 133.728 1375.68 Q131.922 1372.11 128.288 1372.11 M128.288 1368.41 Q134.098 1368.41 137.154 1373.01 Q140.232 1377.6 140.232 1386.35 Q140.232 1395.07 137.154 1399.68 Q134.098 1404.26 128.288 1404.26 Q122.478 1404.26 119.399 1399.68 Q116.343 1395.07 116.343 1386.35 Q116.343 1377.6 119.399 1373.01 Q122.478 1368.41 128.288 1368.41 Z" fill="#000000" fill-rule="nonzero" fill-opacity="1" /><path clip-path="url(#clip770)" d="M148.45 1397.71 L153.334 1397.71 L153.334 1403.59 L148.45 1403.59 L148.45 1397.71 Z" fill="#000000" fill-rule="nonzero" fill-opacity="1" /><path clip-path="url(#clip770)" d="M167.547 1399.66 L183.866 1399.66 L183.866 1403.59 L161.922 1403.59 L161.922 1399.66 Q164.584 1396.9 169.167 1392.27 Q173.774 1387.62 174.954 1386.28 Q177.2 1383.75 178.079 1382.02 Q178.982 1380.26 178.982 1378.57 Q178.982 1375.81 177.038 1374.08 Q175.116 1372.34 172.014 1372.34 Q169.815 1372.34 167.362 1373.11 Q164.931 1373.87 162.153 1375.42 L162.153 1370.7 Q164.977 1369.56 167.431 1368.99 Q169.885 1368.41 171.922 1368.41 Q177.292 1368.41 180.487 1371.09 Q183.681 1373.78 183.681 1378.27 Q183.681 1380.4 182.871 1382.32 Q182.084 1384.22 179.977 1386.81 Q179.399 1387.48 176.297 1390.7 Q173.195 1393.89 167.547 1399.66 Z" fill="#000000" fill-rule="nonzero" fill-opacity="1" /><path clip-path="url(#clip770)" d="M126.205 1066.05 Q122.593 1066.05 120.765 1069.62 Q118.959 1073.16 118.959 1080.29 Q118.959 1087.39 120.765 1090.96 Q122.593 1094.5 126.205 1094.5 Q129.839 1094.5 131.644 1090.96 Q133.473 1087.39 133.473 1080.29 Q133.473 1073.16 131.644 1069.62 Q129.839 1066.05 126.205 1066.05 M126.205 1062.35 Q132.015 1062.35 135.07 1066.95 Q138.149 1071.54 138.149 1080.29 Q138.149 1089.01 135.07 1093.62 Q132.015 1098.2 126.205 1098.2 Q120.394 1098.2 117.316 1093.62 Q114.26 1089.01 114.26 1080.29 Q114.26 1071.54 117.316 1066.95 Q120.394 1062.35 126.205 1062.35 Z" fill="#000000" fill-rule="nonzero" fill-opacity="1" /><path clip-path="url(#clip770)" d="M146.366 1091.65 L151.251 1091.65 L151.251 1097.53 L146.366 1097.53 L146.366 1091.65 Z" fill="#000000" fill-rule="nonzero" fill-opacity="1" /><path clip-path="url(#clip770)" d="M174.283 1067.05 L162.477 1085.49 L174.283 1085.49 L174.283 1067.05 M173.056 1062.97 L178.936 1062.97 L178.936 1085.49 L183.866 1085.49 L183.866 1089.38 L178.936 1089.38 L178.936 1097.53 L174.283 1097.53 L174.283 1089.38 L158.681 1089.38 L158.681 1084.87 L173.056 1062.97 Z" fill="#000000" fill-rule="nonzero" fill-opacity="1" /><path clip-path="url(#clip770)" d="M126.529 759.99 Q122.918 759.99 121.089 763.554 Q119.283 767.096 119.283 774.226 Q119.283 781.332 121.089 784.897 Q122.918 788.439 126.529 788.439 Q130.163 788.439 131.968 784.897 Q133.797 781.332 133.797 774.226 Q133.797 767.096 131.968 763.554 Q130.163 759.99 126.529 759.99 M126.529 756.286 Q132.339 756.286 135.394 760.892 Q138.473 765.476 138.473 774.226 Q138.473 782.952 135.394 787.559 Q132.339 792.142 126.529 792.142 Q120.718 792.142 117.64 787.559 Q114.584 782.952 114.584 774.226 Q114.584 765.476 117.64 760.892 Q120.718 756.286 126.529 756.286 Z" fill="#000000" fill-rule="nonzero" fill-opacity="1" /><path clip-path="url(#clip770)" d="M146.691 785.591 L151.575 785.591 L151.575 791.471 L146.691 791.471 L146.691 785.591 Z" fill="#000000" fill-rule="nonzero" fill-opacity="1" /><path clip-path="url(#clip770)" d="M172.339 772.328 Q169.19 772.328 167.339 774.48 Q165.51 776.633 165.51 780.383 Q165.51 784.11 167.339 786.286 Q169.19 788.439 172.339 788.439 Q175.487 788.439 177.315 786.286 Q179.167 784.11 179.167 780.383 Q179.167 776.633 177.315 774.48 Q175.487 772.328 172.339 772.328 M181.621 757.675 L181.621 761.934 Q179.862 761.101 178.056 760.661 Q176.274 760.221 174.514 760.221 Q169.885 760.221 167.431 763.346 Q165.001 766.471 164.653 772.791 Q166.019 770.777 168.079 769.712 Q170.139 768.624 172.616 768.624 Q177.825 768.624 180.834 771.795 Q183.866 774.943 183.866 780.383 Q183.866 785.707 180.718 788.925 Q177.57 792.142 172.339 792.142 Q166.343 792.142 163.172 787.559 Q160.001 782.952 160.001 774.226 Q160.001 766.031 163.89 761.17 Q167.778 756.286 174.329 756.286 Q176.089 756.286 177.871 756.633 Q179.676 756.98 181.621 757.675 Z" fill="#000000" fill-rule="nonzero" fill-opacity="1" /><path clip-path="url(#clip770)" d="M126.783 453.929 Q123.172 453.929 121.343 457.494 Q119.538 461.035 119.538 468.165 Q119.538 475.271 121.343 478.836 Q123.172 482.378 126.783 482.378 Q130.417 482.378 132.223 478.836 Q134.052 475.271 134.052 468.165 Q134.052 461.035 132.223 457.494 Q130.417 453.929 126.783 453.929 M126.783 450.225 Q132.593 450.225 135.649 454.832 Q138.728 459.415 138.728 468.165 Q138.728 476.892 135.649 481.498 Q132.593 486.082 126.783 486.082 Q120.973 486.082 117.894 481.498 Q114.839 476.892 114.839 468.165 Q114.839 459.415 117.894 454.832 Q120.973 450.225 126.783 450.225 Z" fill="#000000" fill-rule="nonzero" fill-opacity="1" /><path clip-path="url(#clip770)" d="M146.945 479.531 L151.829 479.531 L151.829 485.41 L146.945 485.41 L146.945 479.531 Z" fill="#000000" fill-rule="nonzero" fill-opacity="1" /><path clip-path="url(#clip770)" d="M172.014 468.998 Q168.681 468.998 166.76 470.781 Q164.862 472.563 164.862 475.688 Q164.862 478.813 166.76 480.596 Q168.681 482.378 172.014 482.378 Q175.348 482.378 177.269 480.596 Q179.19 478.79 179.19 475.688 Q179.19 472.563 177.269 470.781 Q175.371 468.998 172.014 468.998 M167.339 467.008 Q164.329 466.267 162.64 464.207 Q160.973 462.147 160.973 459.184 Q160.973 455.04 163.913 452.633 Q166.876 450.225 172.014 450.225 Q177.176 450.225 180.116 452.633 Q183.056 455.04 183.056 459.184 Q183.056 462.147 181.366 464.207 Q179.7 466.267 176.714 467.008 Q180.093 467.795 181.968 470.086 Q183.866 472.378 183.866 475.688 Q183.866 480.711 180.788 483.396 Q177.732 486.082 172.014 486.082 Q166.297 486.082 163.218 483.396 Q160.163 480.711 160.163 475.688 Q160.163 472.378 162.061 470.086 Q163.959 467.795 167.339 467.008 M165.626 459.623 Q165.626 462.309 167.292 463.813 Q168.982 465.318 172.014 465.318 Q175.024 465.318 176.714 463.813 Q178.426 462.309 178.426 459.623 Q178.426 456.938 176.714 455.434 Q175.024 453.929 172.014 453.929 Q168.982 453.929 167.292 455.434 Q165.626 456.938 165.626 459.623 Z" fill="#000000" fill-rule="nonzero" fill-opacity="1" /><path clip-path="url(#clip770)" d="M117.501 175.414 L125.14 175.414 L125.14 149.049 L116.83 150.716 L116.83 146.456 L125.093 144.79 L129.769 144.79 L129.769 175.414 L137.408 175.414 L137.408 179.35 L117.501 179.35 L117.501 175.414 Z" fill="#000000" fill-rule="nonzero" fill-opacity="1" /><path clip-path="url(#clip770)" d="M146.853 173.47 L151.737 173.47 L151.737 179.35 L146.853 179.35 L146.853 173.47 Z" fill="#000000" fill-rule="nonzero" fill-opacity="1" /><path clip-path="url(#clip770)" d="M171.922 147.868 Q168.311 147.868 166.482 151.433 Q164.677 154.975 164.677 162.104 Q164.677 169.211 166.482 172.776 Q168.311 176.317 171.922 176.317 Q175.556 176.317 177.362 172.776 Q179.19 169.211 179.19 162.104 Q179.19 154.975 177.362 151.433 Q175.556 147.868 171.922 147.868 M171.922 144.165 Q177.732 144.165 180.788 148.771 Q183.866 153.354 183.866 162.104 Q183.866 170.831 180.788 175.438 Q177.732 180.021 171.922 180.021 Q166.112 180.021 163.033 175.438 Q159.978 170.831 159.978 162.104 Q159.978 153.354 163.033 148.771 Q166.112 144.165 171.922 144.165 Z" fill="#000000" fill-rule="nonzero" fill-opacity="1" /><path clip-path="url(#clip770)" d="M21.8332 793.433 Q23.0249 793.498 23.0893 794.303 Q23.1537 795.527 23.3147 796.268 Q23.4435 797.008 23.9266 798.168 Q24.4097 799.327 25.5691 800.454 Q26.7285 801.582 28.5643 802.741 L66.3417 826.477 Q67.0503 826.895 67.2757 827.25 Q67.5334 827.572 67.5334 828.312 Q67.5334 828.989 67.2435 829.246 Q66.9859 829.504 66.0197 829.633 L25.3115 834.85 Q24.5707 834.947 24.2487 835.043 Q23.9266 835.14 23.6046 835.527 Q23.2825 835.881 23.1859 836.654 Q23.0893 837.427 23.0893 838.811 Q23.0893 839.456 23.0571 839.745 Q23.0249 840.003 22.8638 840.229 Q22.6706 840.454 22.2841 840.454 Q21.7044 840.454 21.4146 840.229 Q21.0925 839.971 21.0603 839.778 Q21.0281 839.552 21.0281 839.198 Q21.0281 838.65 21.0925 837.459 Q21.1569 836.267 21.1569 835.655 Q21.1569 835.076 21.1891 833.852 Q21.2213 832.628 21.2213 832.016 Q21.2213 830.663 21.1247 827.926 Q21.0281 825.156 21.0281 823.836 Q21.0281 822.934 21.7688 822.934 Q22.6706 822.934 22.896 823.32 Q23.0893 823.707 23.0893 824.577 Q23.0893 826.767 23.6368 827.958 Q24.1843 829.118 25.0538 829.118 L59.965 824.641 L27.7591 804.383 Q26.2454 803.385 25.2471 803.385 Q23.3147 803.385 23.0893 806.445 Q23.0893 807.475 22.2841 807.475 Q21.7044 807.475 21.4146 807.218 Q21.0925 806.96 21.0603 806.767 Q21.0281 806.541 21.0281 806.219 Q21.0281 805.156 21.1247 802.999 Q21.2213 800.809 21.2213 799.714 Q21.2213 798.812 21.1247 796.976 Q21.0281 795.14 21.0281 794.303 Q21.0281 793.433 21.8332 793.433 Z" fill="#000000" fill-rule="nonzero" fill-opacity="1" /><path clip-path="url(#clip770)" d="M49.5947 784.711 Q38.4515 784.711 29.466 780.557 Q25.6979 778.785 22.5418 776.305 Q19.3856 773.826 18.0007 772.183 Q16.6159 770.541 16.6159 770.09 Q16.6159 769.446 17.26 769.413 Q17.5821 769.413 18.3872 770.283 Q29.2084 780.911 49.5947 780.879 Q70.0454 780.879 80.4479 770.541 Q81.5751 769.413 81.9294 769.413 Q82.5735 769.413 82.5735 770.09 Q82.5735 770.541 81.2531 772.119 Q79.9326 773.697 76.9053 776.144 Q73.8779 778.592 70.1742 780.363 Q61.1888 784.711 49.5947 784.711 Z" fill="#000000" fill-rule="nonzero" fill-opacity="1" /><path clip-path="url(#clip770)" d="M41.2212 737.54 Q42.9281 737.54 44.0231 738.667 Q45.1181 739.762 45.1181 741.179 Q45.1181 742.403 44.4096 743.047 Q43.701 743.691 42.7993 743.691 Q41.511 743.691 40.4482 742.693 Q39.3854 741.695 39.16 740.245 Q38.3871 741.308 38.3871 743.015 Q38.3871 745.817 40.5448 748.297 Q41.5432 749.392 43.379 750.583 Q45.1825 751.775 45.9554 752 L54.5544 754.094 Q55.5206 754.287 60.1582 755.479 Q64.7637 756.638 64.9569 756.735 Q65.8587 757.057 66.3417 757.765 Q66.8248 758.474 66.8248 759.182 Q66.8248 759.987 66.3417 760.535 Q65.8587 761.082 65.0213 761.082 Q64.8925 761.082 64.4094 760.986 Q63.9263 760.889 63.25 760.728 Q62.5737 760.567 62.1872 760.503 L46.9538 756.67 Q44.1841 755.962 43.3146 755.801 Q42.4128 755.607 41.4144 755.607 Q39.6753 755.607 39.0312 756.155 Q38.3871 756.702 38.3871 757.669 Q38.3871 759.343 40.3838 760.438 Q42.3806 761.533 46.2453 762.467 Q47.3081 762.757 47.5335 762.95 Q47.759 763.111 47.759 763.595 Q47.7268 764.4 47.0826 764.4 Q46.9216 764.4 45.891 764.142 Q44.8282 763.884 43.2823 763.401 Q41.7043 762.886 40.7059 762.339 Q40.0296 762.016 39.5787 761.727 Q39.1278 761.437 38.4193 760.857 Q37.7107 760.277 37.3243 759.408 Q36.9378 758.538 36.9378 757.475 Q36.9378 755.157 38.3548 753.514 Q39.7719 751.839 41.9941 751.453 Q40.8347 750.648 39.8363 749.649 Q38.8057 748.651 37.8718 746.815 Q36.9378 744.98 36.9378 743.015 Q36.9378 740.567 38.1938 739.054 Q39.4176 737.54 41.2212 737.54 Z" fill="#000000" fill-rule="nonzero" fill-opacity="1" /><path clip-path="url(#clip770)" d="M81.9294 731.525 Q81.6073 731.525 80.8022 730.688 Q69.981 720.06 49.5947 720.06 Q29.144 720.06 18.8059 730.269 Q17.6143 731.525 17.26 731.525 Q16.6159 731.525 16.6159 730.881 Q16.6159 730.43 17.9363 728.852 Q19.2568 727.242 22.2841 724.827 Q25.3115 722.379 29.0151 720.575 Q38.0006 716.228 49.5947 716.228 Q60.7379 716.228 69.7234 720.382 Q73.4914 722.153 76.6476 724.633 Q79.8038 727.113 81.1886 728.756 Q82.5735 730.398 82.5735 730.881 Q82.5735 731.525 81.9294 731.525 Z" fill="#000000" fill-rule="nonzero" fill-opacity="1" /><path clip-path="url(#clip770)" d="M616.98 18.8205 L616.98 41.5461 L627.269 41.5461 Q632.981 41.5461 636.1 38.5889 Q639.22 35.6318 639.22 30.163 Q639.22 24.7348 636.1 21.7777 Q632.981 18.8205 627.269 18.8205 L616.98 18.8205 M608.797 12.096 L627.269 12.096 Q637.437 12.096 642.622 16.714 Q647.848 21.2916 647.848 30.163 Q647.848 39.1155 642.622 43.6931 Q637.437 48.2706 627.269 48.2706 L616.98 48.2706 L616.98 72.576 L608.797 72.576 L608.797 12.096 Z" fill="#000000" fill-rule="nonzero" fill-opacity="1" /><path clip-path="url(#clip770)" d="M694.352 48.0275 L694.352 51.6733 L660.082 51.6733 Q660.568 59.3701 664.7 63.421 Q668.872 67.4314 676.285 67.4314 Q680.579 67.4314 684.59 66.3781 Q688.641 65.3249 692.611 63.2184 L692.611 70.267 Q688.6 71.9684 684.387 72.8596 Q680.174 73.7508 675.84 73.7508 Q664.983 73.7508 658.623 67.4314 Q652.304 61.1119 652.304 50.3365 Q652.304 39.1965 658.299 32.6746 Q664.335 26.1121 674.544 26.1121 Q683.699 26.1121 689.005 32.0264 Q694.352 37.9003 694.352 48.0275 M686.899 45.84 Q686.818 39.7232 683.456 36.0774 Q680.134 32.4315 674.625 32.4315 Q668.386 32.4315 664.619 35.9558 Q660.892 39.4801 660.325 45.8805 L686.899 45.84 Z" fill="#000000" fill-rule="nonzero" fill-opacity="1" /><path clip-path="url(#clip770)" d="M744.3 45.1919 L744.3 72.576 L736.846 72.576 L736.846 45.4349 Q736.846 38.994 734.335 35.7938 Q731.823 32.5936 726.8 32.5936 Q720.764 32.5936 717.281 36.4419 Q713.797 40.2903 713.797 46.9338 L713.797 72.576 L706.303 72.576 L706.303 27.2059 L713.797 27.2059 L713.797 34.2544 Q716.47 30.163 720.076 28.1376 Q723.722 26.1121 728.461 26.1121 Q736.279 26.1121 740.29 30.9732 Q744.3 35.7938 744.3 45.1919 Z" fill="#000000" fill-rule="nonzero" fill-opacity="1" /><path clip-path="url(#clip770)" d="M778.044 76.7889 Q774.884 84.8907 771.887 87.3618 Q768.889 89.8329 763.866 89.8329 L757.911 89.8329 L757.911 83.5945 L762.286 83.5945 Q765.365 83.5945 767.066 82.1361 Q768.768 80.6778 770.834 75.2496 L772.17 71.8468 L753.82 27.2059 L761.719 27.2059 L775.897 62.6918 L790.075 27.2059 L797.975 27.2059 L778.044 76.7889 Z" fill="#000000" fill-rule="nonzero" fill-opacity="1" /><path clip-path="url(#clip770)" d="M847.072 48.0275 L847.072 51.6733 L812.801 51.6733 Q813.287 59.3701 817.419 63.421 Q821.591 67.4314 829.005 67.4314 Q833.298 67.4314 837.309 66.3781 Q841.36 65.3249 845.33 63.2184 L845.33 70.267 Q841.319 71.9684 837.106 72.8596 Q832.893 73.7508 828.559 73.7508 Q817.702 73.7508 811.343 67.4314 Q805.023 61.1119 805.023 50.3365 Q805.023 39.1965 811.018 32.6746 Q817.054 26.1121 827.263 26.1121 Q836.418 26.1121 841.724 32.0264 Q847.072 37.9003 847.072 48.0275 M839.618 45.84 Q839.537 39.7232 836.175 36.0774 Q832.853 32.4315 827.344 32.4315 Q821.105 32.4315 817.338 35.9558 Q813.611 39.4801 813.044 45.8805 L839.618 45.84 Z" fill="#000000" fill-rule="nonzero" fill-opacity="1" /><path clip-path="url(#clip770)" d="M859.305 9.54393 L866.759 9.54393 L866.759 72.576 L859.305 72.576 L859.305 9.54393 Z" fill="#000000" fill-rule="nonzero" fill-opacity="1" /><path clip-path="url(#clip770)" d="M921.163 48.0275 L921.163 51.6733 L886.892 51.6733 Q887.378 59.3701 891.51 63.421 Q895.682 67.4314 903.096 67.4314 Q907.39 67.4314 911.4 66.3781 Q915.451 65.3249 919.421 63.2184 L919.421 70.267 Q915.41 71.9684 911.197 72.8596 Q906.984 73.7508 902.65 73.7508 Q891.794 73.7508 885.434 67.4314 Q879.114 61.1119 879.114 50.3365 Q879.114 39.1965 885.11 32.6746 Q891.145 26.1121 901.354 26.1121 Q910.509 26.1121 915.815 32.0264 Q921.163 37.9003 921.163 48.0275 M913.709 45.84 Q913.628 39.7232 910.266 36.0774 Q906.944 32.4315 901.435 32.4315 Q895.196 32.4315 891.429 35.9558 Q887.702 39.4801 887.135 45.8805 L913.709 45.84 Z" fill="#000000" fill-rule="nonzero" fill-opacity="1" /><path clip-path="url(#clip770)" d="M962.32 28.5427 L962.32 35.5912 Q959.16 33.9709 955.757 33.1607 Q952.355 32.3505 948.709 32.3505 Q943.159 32.3505 940.364 34.0519 Q937.609 35.7533 937.609 39.156 Q937.609 41.7486 939.594 43.2475 Q941.579 44.7058 947.574 46.0426 L950.127 46.6097 Q958.066 48.3111 961.388 51.4303 Q964.75 54.509 964.75 60.0587 Q964.75 66.3781 959.727 70.0644 Q954.745 73.7508 945.995 73.7508 Q942.349 73.7508 938.379 73.0216 Q934.45 72.3329 930.075 70.9151 L930.075 63.2184 Q934.206 65.3654 938.217 66.4591 Q942.227 67.5124 946.157 67.5124 Q951.423 67.5124 954.258 65.73 Q957.094 63.9071 957.094 60.6258 Q957.094 57.5877 955.028 55.9673 Q953.003 54.3469 946.076 52.8481 L943.483 52.2405 Q936.556 50.7821 933.477 47.7845 Q930.399 44.7463 930.399 39.4801 Q930.399 33.0797 934.936 29.5959 Q939.473 26.1121 947.818 26.1121 Q951.949 26.1121 955.595 26.7198 Q959.241 27.3274 962.32 28.5427 Z" fill="#000000" fill-rule="nonzero" fill-opacity="1" /><path clip-path="url(#clip770)" d="M997.239 49.7694 Q988.205 49.7694 984.721 51.8354 Q981.237 53.9013 981.237 58.8839 Q981.237 62.8538 983.83 65.2034 Q986.463 67.5124 990.96 67.5124 Q997.158 67.5124 1000.88 63.1374 Q1004.65 58.7219 1004.65 51.4303 L1004.65 49.7694 L997.239 49.7694 M1012.11 46.6907 L1012.11 72.576 L1004.65 72.576 L1004.65 65.6895 Q1002.1 69.8214 998.292 71.8063 Q994.484 73.7508 988.975 73.7508 Q982.007 73.7508 977.875 69.8619 Q973.784 65.9325 973.784 59.3701 Q973.784 51.7138 978.888 47.825 Q984.033 43.9361 994.2 43.9361 L1004.65 43.9361 L1004.65 43.2069 Q1004.65 38.0623 1001.25 35.2672 Q997.887 32.4315 991.77 32.4315 Q987.881 32.4315 984.195 33.3632 Q980.508 34.295 977.106 36.1584 L977.106 29.2718 Q981.197 27.692 985.045 26.9223 Q988.894 26.1121 992.54 26.1121 Q1002.38 26.1121 1007.24 31.2163 Q1012.11 36.3204 1012.11 46.6907 Z" fill="#000000" fill-rule="nonzero" fill-opacity="1" /><path clip-path="url(#clip770)" d="M1027.46 27.2059 L1034.91 27.2059 L1034.91 72.576 L1027.46 72.576 L1027.46 27.2059 M1027.46 9.54393 L1034.91 9.54393 L1034.91 18.9825 L1027.46 18.9825 L1027.46 9.54393 Z" fill="#000000" fill-rule="nonzero" fill-opacity="1" /><path clip-path="url(#clip770)" d="M1071.13 49.7694 Q1062.09 49.7694 1058.61 51.8354 Q1055.13 53.9013 1055.13 58.8839 Q1055.13 62.8538 1057.72 65.2034 Q1060.35 67.5124 1064.85 67.5124 Q1071.05 67.5124 1074.77 63.1374 Q1078.54 58.7219 1078.54 51.4303 L1078.54 49.7694 L1071.13 49.7694 M1085.99 46.6907 L1085.99 72.576 L1078.54 72.576 L1078.54 65.6895 Q1075.99 69.8214 1072.18 71.8063 Q1068.37 73.7508 1062.86 73.7508 Q1055.9 73.7508 1051.76 69.8619 Q1047.67 65.9325 1047.67 59.3701 Q1047.67 51.7138 1052.78 47.825 Q1057.92 43.9361 1068.09 43.9361 L1078.54 43.9361 L1078.54 43.2069 Q1078.54 38.0623 1075.14 35.2672 Q1071.78 32.4315 1065.66 32.4315 Q1061.77 32.4315 1058.08 33.3632 Q1054.4 34.295 1050.99 36.1584 L1050.99 29.2718 Q1055.09 27.692 1058.93 26.9223 Q1062.78 26.1121 1066.43 26.1121 Q1076.27 26.1121 1081.13 31.2163 Q1085.99 36.3204 1085.99 46.6907 Z" fill="#000000" fill-rule="nonzero" fill-opacity="1" /><path clip-path="url(#clip770)" d="M1139.06 45.1919 L1139.06 72.576 L1131.61 72.576 L1131.61 45.4349 Q1131.61 38.994 1129.1 35.7938 Q1126.58 32.5936 1121.56 32.5936 Q1115.52 32.5936 1112.04 36.4419 Q1108.56 40.2903 1108.56 46.9338 L1108.56 72.576 L1101.06 72.576 L1101.06 27.2059 L1108.56 27.2059 L1108.56 34.2544 Q1111.23 30.163 1114.84 28.1376 Q1118.48 26.1121 1123.22 26.1121 Q1131.04 26.1121 1135.05 30.9732 Q1139.06 35.7938 1139.06 45.1919 Z" fill="#000000" fill-rule="nonzero" fill-opacity="1" /><path clip-path="url(#clip770)" d="M1188.81 18.8205 L1188.81 41.5461 L1199.1 41.5461 Q1204.81 41.5461 1207.93 38.5889 Q1211.05 35.6318 1211.05 30.163 Q1211.05 24.7348 1207.93 21.7777 Q1204.81 18.8205 1199.1 18.8205 L1188.81 18.8205 M1180.62 12.096 L1199.1 12.096 Q1209.26 12.096 1214.45 16.714 Q1219.67 21.2916 1219.67 30.163 Q1219.67 39.1155 1214.45 43.6931 Q1209.26 48.2706 1199.1 48.2706 L1188.81 48.2706 L1188.81 72.576 L1180.62 72.576 L1180.62 12.096 Z" fill="#000000" fill-rule="nonzero" fill-opacity="1" /><path clip-path="url(#clip770)" d="M1266.18 48.0275 L1266.18 51.6733 L1231.91 51.6733 Q1232.39 59.3701 1236.53 63.421 Q1240.7 67.4314 1248.11 67.4314 Q1252.41 67.4314 1256.42 66.3781 Q1260.47 65.3249 1264.44 63.2184 L1264.44 70.267 Q1260.43 71.9684 1256.21 72.8596 Q1252 73.7508 1247.67 73.7508 Q1236.81 73.7508 1230.45 67.4314 Q1224.13 61.1119 1224.13 50.3365 Q1224.13 39.1965 1230.13 32.6746 Q1236.16 26.1121 1246.37 26.1121 Q1255.52 26.1121 1260.83 32.0264 Q1266.18 37.9003 1266.18 48.0275 M1258.72 45.84 Q1258.64 39.7232 1255.28 36.0774 Q1251.96 32.4315 1246.45 32.4315 Q1240.21 32.4315 1236.44 35.9558 Q1232.72 39.4801 1232.15 45.8805 L1258.72 45.84 Z" fill="#000000" fill-rule="nonzero" fill-opacity="1" /><path clip-path="url(#clip770)" d="M1304.7 34.1734 Q1303.45 33.4443 1301.95 33.1202 Q1300.49 32.7556 1298.71 32.7556 Q1292.39 32.7556 1288.98 36.8875 Q1285.62 40.9789 1285.62 48.6757 L1285.62 72.576 L1278.13 72.576 L1278.13 27.2059 L1285.62 27.2059 L1285.62 34.2544 Q1287.97 30.1225 1291.74 28.1376 Q1295.51 26.1121 1300.89 26.1121 Q1301.66 26.1121 1302.6 26.2337 Q1303.53 26.3147 1304.66 26.5172 L1304.7 34.1734 Z" fill="#000000" fill-rule="nonzero" fill-opacity="1" /><path clip-path="url(#clip770)" d="M1341.44 28.5427 L1341.44 35.5912 Q1338.28 33.9709 1334.88 33.1607 Q1331.48 32.3505 1327.83 32.3505 Q1322.28 32.3505 1319.49 34.0519 Q1316.73 35.7533 1316.73 39.156 Q1316.73 41.7486 1318.72 43.2475 Q1320.7 44.7058 1326.7 46.0426 L1329.25 46.6097 Q1337.19 48.3111 1340.51 51.4303 Q1343.87 54.509 1343.87 60.0587 Q1343.87 66.3781 1338.85 70.0644 Q1333.87 73.7508 1325.12 73.7508 Q1321.47 73.7508 1317.5 73.0216 Q1313.57 72.3329 1309.2 70.9151 L1309.2 63.2184 Q1313.33 65.3654 1317.34 66.4591 Q1321.35 67.5124 1325.28 67.5124 Q1330.55 67.5124 1333.38 65.73 Q1336.22 63.9071 1336.22 60.6258 Q1336.22 57.5877 1334.15 55.9673 Q1332.13 54.3469 1325.2 52.8481 L1322.61 52.2405 Q1315.68 50.7821 1312.6 47.7845 Q1309.52 44.7463 1309.52 39.4801 Q1309.52 33.0797 1314.06 29.5959 Q1318.6 26.1121 1326.94 26.1121 Q1331.07 26.1121 1334.72 26.7198 Q1338.37 27.3274 1341.44 28.5427 Z" fill="#000000" fill-rule="nonzero" fill-opacity="1" /><path clip-path="url(#clip770)" d="M1376.36 49.7694 Q1367.33 49.7694 1363.85 51.8354 Q1360.36 53.9013 1360.36 58.8839 Q1360.36 62.8538 1362.95 65.2034 Q1365.59 67.5124 1370.08 67.5124 Q1376.28 67.5124 1380.01 63.1374 Q1383.78 58.7219 1383.78 51.4303 L1383.78 49.7694 L1376.36 49.7694 M1391.23 46.6907 L1391.23 72.576 L1383.78 72.576 L1383.78 65.6895 Q1381.22 69.8214 1377.42 71.8063 Q1373.61 73.7508 1368.1 73.7508 Q1361.13 73.7508 1357 69.8619 Q1352.91 65.9325 1352.91 59.3701 Q1352.91 51.7138 1358.01 47.825 Q1363.16 43.9361 1373.32 43.9361 L1383.78 43.9361 L1383.78 43.2069 Q1383.78 38.0623 1380.37 35.2672 Q1377.01 32.4315 1370.89 32.4315 Q1367.01 32.4315 1363.32 33.3632 Q1359.63 34.295 1356.23 36.1584 L1356.23 29.2718 Q1360.32 27.692 1364.17 26.9223 Q1368.02 26.1121 1371.66 26.1121 Q1381.51 26.1121 1386.37 31.2163 Q1391.23 36.3204 1391.23 46.6907 Z" fill="#000000" fill-rule="nonzero" fill-opacity="1" /><path clip-path="url(#clip770)" d="M1441.91 35.9153 Q1444.7 30.8922 1448.59 28.5022 Q1452.48 26.1121 1457.75 26.1121 Q1464.83 26.1121 1468.68 31.0947 Q1472.53 36.0368 1472.53 45.1919 L1472.53 72.576 L1465.04 72.576 L1465.04 45.4349 Q1465.04 38.913 1462.73 35.7533 Q1460.42 32.5936 1455.68 32.5936 Q1449.89 32.5936 1446.52 36.4419 Q1443.16 40.2903 1443.16 46.9338 L1443.16 72.576 L1435.67 72.576 L1435.67 45.4349 Q1435.67 38.8725 1433.36 35.7533 Q1431.05 32.5936 1426.23 32.5936 Q1420.52 32.5936 1417.16 36.4824 Q1413.79 40.3308 1413.79 46.9338 L1413.79 72.576 L1406.3 72.576 L1406.3 27.2059 L1413.79 27.2059 L1413.79 34.2544 Q1416.35 30.082 1419.91 28.0971 Q1423.47 26.1121 1428.38 26.1121 Q1433.32 26.1121 1436.76 28.6237 Q1440.25 31.1352 1441.91 35.9153 Z" fill="#000000" fill-rule="nonzero" fill-opacity="1" /><path clip-path="url(#clip770)" d="M1508.02 49.7694 Q1498.98 49.7694 1495.5 51.8354 Q1492.02 53.9013 1492.02 58.8839 Q1492.02 62.8538 1494.61 65.2034 Q1497.24 67.5124 1501.74 67.5124 Q1507.94 67.5124 1511.66 63.1374 Q1515.43 58.7219 1515.43 51.4303 L1515.43 49.7694 L1508.02 49.7694 M1522.88 46.6907 L1522.88 72.576 L1515.43 72.576 L1515.43 65.6895 Q1512.88 69.8214 1509.07 71.8063 Q1505.26 73.7508 1499.75 73.7508 Q1492.79 73.7508 1488.65 69.8619 Q1484.56 65.9325 1484.56 59.3701 Q1484.56 51.7138 1489.67 47.825 Q1494.81 43.9361 1504.98 43.9361 L1515.43 43.9361 L1515.43 43.2069 Q1515.43 38.0623 1512.03 35.2672 Q1508.67 32.4315 1502.55 32.4315 Q1498.66 32.4315 1494.97 33.3632 Q1491.29 34.295 1487.88 36.1584 L1487.88 29.2718 Q1491.98 27.692 1495.82 26.9223 Q1499.67 26.1121 1503.32 26.1121 Q1513.16 26.1121 1518.02 31.2163 Q1522.88 36.3204 1522.88 46.6907 Z" fill="#000000" fill-rule="nonzero" fill-opacity="1" /><path clip-path="url(#clip770)" d="M1558.86 49.7694 Q1549.82 49.7694 1546.34 51.8354 Q1542.85 53.9013 1542.85 58.8839 Q1542.85 62.8538 1545.45 65.2034 Q1548.08 67.5124 1552.58 67.5124 Q1558.77 67.5124 1562.5 63.1374 Q1566.27 58.7219 1566.27 51.4303 L1566.27 49.7694 L1558.86 49.7694 M1573.72 46.6907 L1573.72 72.576 L1566.27 72.576 L1566.27 65.6895 Q1563.72 69.8214 1559.91 71.8063 Q1556.1 73.7508 1550.59 73.7508 Q1543.62 73.7508 1539.49 69.8619 Q1535.4 65.9325 1535.4 59.3701 Q1535.4 51.7138 1540.51 47.825 Q1545.65 43.9361 1555.82 43.9361 L1566.27 43.9361 L1566.27 43.2069 Q1566.27 38.0623 1562.87 35.2672 Q1559.5 32.4315 1553.39 32.4315 Q1549.5 32.4315 1545.81 33.3632 Q1542.13 34.295 1538.72 36.1584 L1538.72 29.2718 Q1542.81 27.692 1546.66 26.9223 Q1550.51 26.1121 1554.16 26.1121 Q1564 26.1121 1568.86 31.2163 Q1573.72 36.3204 1573.72 46.6907 Z" fill="#000000" fill-rule="nonzero" fill-opacity="1" /><path clip-path="url(#clip770)" d="M1626.79 45.1919 L1626.79 72.576 L1619.34 72.576 L1619.34 45.4349 Q1619.34 38.994 1616.82 35.7938 Q1614.31 32.5936 1609.29 32.5936 Q1603.25 32.5936 1599.77 36.4419 Q1596.29 40.2903 1596.29 46.9338 L1596.29 72.576 L1588.79 72.576 L1588.79 27.2059 L1596.29 27.2059 L1596.29 34.2544 Q1598.96 30.163 1602.57 28.1376 Q1606.21 26.1121 1610.95 26.1121 Q1618.77 26.1121 1622.78 30.9732 Q1626.79 35.7938 1626.79 45.1919 Z" fill="#000000" fill-rule="nonzero" fill-opacity="1" /><path clip-path="url(#clip770)" d="M1676.53 18.8205 L1676.53 41.5461 L1686.82 41.5461 Q1692.54 41.5461 1695.65 38.5889 Q1698.77 35.6318 1698.77 30.163 Q1698.77 24.7348 1695.65 21.7777 Q1692.54 18.8205 1686.82 18.8205 L1676.53 18.8205 M1668.35 12.096 L1686.82 12.096 Q1696.99 12.096 1702.18 16.714 Q1707.4 21.2916 1707.4 30.163 Q1707.4 39.1155 1702.18 43.6931 Q1696.99 48.2706 1686.82 48.2706 L1676.53 48.2706 L1676.53 72.576 L1668.35 72.576 L1668.35 12.096 Z" fill="#000000" fill-rule="nonzero" fill-opacity="1" /><path clip-path="url(#clip770)" d="M1732.68 32.4315 Q1726.68 32.4315 1723.2 37.1306 Q1719.72 41.7891 1719.72 49.9314 Q1719.72 58.0738 1723.16 62.7728 Q1726.64 67.4314 1732.68 67.4314 Q1738.64 67.4314 1742.12 62.7323 Q1745.6 58.0333 1745.6 49.9314 Q1745.6 41.8701 1742.12 37.1711 Q1738.64 32.4315 1732.68 32.4315 M1732.68 26.1121 Q1742.4 26.1121 1747.95 32.4315 Q1753.5 38.7509 1753.5 49.9314 Q1753.5 61.0714 1747.95 67.4314 Q1742.4 73.7508 1732.68 73.7508 Q1722.92 73.7508 1717.37 67.4314 Q1711.86 61.0714 1711.86 49.9314 Q1711.86 38.7509 1717.37 32.4315 Q1722.92 26.1121 1732.68 26.1121 Z" fill="#000000" fill-rule="nonzero" fill-opacity="1" /><path clip-path="url(#clip770)" d="M1765.86 27.2059 L1773.31 27.2059 L1773.31 72.576 L1765.86 72.576 L1765.86 27.2059 M1765.86 9.54393 L1773.31 9.54393 L1773.31 18.9825 L1765.86 18.9825 L1765.86 9.54393 Z" fill="#000000" fill-rule="nonzero" fill-opacity="1" /><path clip-path="url(#clip770)" d="M1817.83 28.5427 L1817.83 35.5912 Q1814.67 33.9709 1811.27 33.1607 Q1807.87 32.3505 1804.22 32.3505 Q1798.67 32.3505 1795.87 34.0519 Q1793.12 35.7533 1793.12 39.156 Q1793.12 41.7486 1795.1 43.2475 Q1797.09 44.7058 1803.08 46.0426 L1805.64 46.6097 Q1813.58 48.3111 1816.9 51.4303 Q1820.26 54.509 1820.26 60.0587 Q1820.26 66.3781 1815.24 70.0644 Q1810.26 73.7508 1801.51 73.7508 Q1797.86 73.7508 1793.89 73.0216 Q1789.96 72.3329 1785.59 70.9151 L1785.59 63.2184 Q1789.72 65.3654 1793.73 66.4591 Q1797.74 67.5124 1801.67 67.5124 Q1806.93 67.5124 1809.77 65.73 Q1812.6 63.9071 1812.6 60.6258 Q1812.6 57.5877 1810.54 55.9673 Q1808.51 54.3469 1801.59 52.8481 L1798.99 52.2405 Q1792.07 50.7821 1788.99 47.7845 Q1785.91 44.7463 1785.91 39.4801 Q1785.91 33.0797 1790.45 29.5959 Q1794.98 26.1121 1803.33 26.1121 Q1807.46 26.1121 1811.11 26.7198 Q1814.75 27.3274 1817.83 28.5427 Z" fill="#000000" fill-rule="nonzero" fill-opacity="1" /><path clip-path="url(#clip770)" d="M1861.05 28.5427 L1861.05 35.5912 Q1857.89 33.9709 1854.49 33.1607 Q1851.09 32.3505 1847.44 32.3505 Q1841.89 32.3505 1839.1 34.0519 Q1836.34 35.7533 1836.34 39.156 Q1836.34 41.7486 1838.33 43.2475 Q1840.31 44.7058 1846.31 46.0426 L1848.86 46.6097 Q1856.8 48.3111 1860.12 51.4303 Q1863.48 54.509 1863.48 60.0587 Q1863.48 66.3781 1858.46 70.0644 Q1853.48 73.7508 1844.73 73.7508 Q1841.08 73.7508 1837.11 73.0216 Q1833.18 72.3329 1828.81 70.9151 L1828.81 63.2184 Q1832.94 65.3654 1836.95 66.4591 Q1840.96 67.5124 1844.89 67.5124 Q1850.16 67.5124 1852.99 65.73 Q1855.83 63.9071 1855.83 60.6258 Q1855.83 57.5877 1853.76 55.9673 Q1851.74 54.3469 1844.81 52.8481 L1842.22 52.2405 Q1835.29 50.7821 1832.21 47.7845 Q1829.13 44.7463 1829.13 39.4801 Q1829.13 33.0797 1833.67 29.5959 Q1838.21 26.1121 1846.55 26.1121 Q1850.68 26.1121 1854.33 26.7198 Q1857.97 27.3274 1861.05 28.5427 Z" fill="#000000" fill-rule="nonzero" fill-opacity="1" /><path clip-path="url(#clip770)" d="M1892.93 32.4315 Q1886.94 32.4315 1883.45 37.1306 Q1879.97 41.7891 1879.97 49.9314 Q1879.97 58.0738 1883.41 62.7728 Q1886.9 67.4314 1892.93 67.4314 Q1898.89 67.4314 1902.37 62.7323 Q1905.86 58.0333 1905.86 49.9314 Q1905.86 41.8701 1902.37 37.1711 Q1898.89 32.4315 1892.93 32.4315 M1892.93 26.1121 Q1902.66 26.1121 1908.21 32.4315 Q1913.76 38.7509 1913.76 49.9314 Q1913.76 61.0714 1908.21 67.4314 Q1902.66 73.7508 1892.93 73.7508 Q1883.17 73.7508 1877.62 67.4314 Q1872.11 61.0714 1872.11 49.9314 Q1872.11 38.7509 1877.62 32.4315 Q1883.17 26.1121 1892.93 26.1121 Z" fill="#000000" fill-rule="nonzero" fill-opacity="1" /><path clip-path="url(#clip770)" d="M1963.82 45.1919 L1963.82 72.576 L1956.37 72.576 L1956.37 45.4349 Q1956.37 38.994 1953.86 35.7938 Q1951.35 32.5936 1946.32 32.5936 Q1940.29 32.5936 1936.81 36.4419 Q1933.32 40.2903 1933.32 46.9338 L1933.32 72.576 L1925.83 72.576 L1925.83 27.2059 L1933.32 27.2059 L1933.32 34.2544 Q1936 30.163 1939.6 28.1376 Q1943.25 26.1121 1947.99 26.1121 Q1955.8 26.1121 1959.81 30.9732 Q1963.82 35.7938 1963.82 45.1919 Z" fill="#000000" fill-rule="nonzero" fill-opacity="1" /><polyline clip-path="url(#clip772)" style="stroke:#009af9; stroke-linecap:round; stroke-linejoin:round; stroke-width:4; stroke-opacity:1; fill:none" points="280.231,161.077 282.245,160.387 284.259,160.256 286.274,160.303 288.288,160.449 290.302,160.667 292.316,160.947 294.33,161.282 296.344,161.669 298.359,162.104 300.373,162.587 302.387,163.114 304.401,163.687 306.415,164.302 308.43,164.96 310.444,165.659 312.458,166.399 314.472,167.179 316.486,167.999 318.5,168.856 320.515,169.752 322.529,170.685 324.543,171.654 326.557,172.66 328.571,173.701 330.585,174.776 332.6,175.886 334.614,177.029 336.628,178.206 338.642,179.414 340.656,180.655 342.67,181.927 344.685,183.231 346.699,184.564 348.713,185.927 350.727,187.32 352.741,188.741 354.756,190.191 356.77,191.669 358.784,193.173 360.798,194.705 362.812,196.263 364.826,197.847 366.841,199.457 368.855,201.092 370.869,202.751 372.883,204.434 374.897,206.141 376.911,207.871 378.926,209.624 380.94,211.4 382.954,213.198 384.968,215.017 386.982,216.857 388.996,218.718 391.011,220.6 393.025,222.502 395.039,224.423 397.053,226.364 399.067,228.323 401.082,230.301 403.096,232.297 405.11,234.311 407.124,236.343 409.138,238.391 411.152,240.456 413.167,242.538 415.181,244.636 417.195,246.749 419.209,248.878 421.223,251.022 423.237,253.181 425.252,255.355 427.266,257.542 429.28,259.743 431.294,261.958 433.308,264.186 435.322,266.427 437.337,268.681 439.351,270.947 441.365,273.225 443.379,275.516 445.393,277.817 447.408,280.13 449.422,282.454 451.436,284.788 453.45,287.133 455.464,289.489 457.478,291.854 459.493,294.229 461.507,296.613 463.521,299.007 465.535,301.409 467.549,303.821 469.563,306.24 471.578,308.669 473.592,311.105 475.606,313.549 477.62,316 479.634,318.459 481.648,320.925 483.663,323.398 485.677,325.878 487.691,328.364 489.705,330.857 491.719,333.356 493.734,335.86 495.748,338.371 497.762,340.887 499.776,343.408 501.79,345.934 503.804,348.466 505.819,351.002 507.833,353.543 509.847,356.088 511.861,358.637 513.875,361.191 515.889,363.748 517.904,366.309 519.918,368.874 521.932,371.442 523.946,374.014 525.96,376.588 527.974,379.166 529.989,381.746 532.003,384.329 534.017,386.914 536.031,389.502 538.045,392.091 540.06,394.683 542.074,397.277 544.088,399.872 546.102,402.47 548.116,405.068 550.13,407.668 552.145,410.269 554.159,412.872 556.173,415.475 558.187,418.079 560.201,420.684 562.215,423.289 564.23,425.895 566.244,428.502 568.258,431.108 570.272,433.715 572.286,436.321 574.301,438.928 576.315,441.534 578.329,444.14 580.343,446.746 582.357,449.351 584.371,451.956 586.386,454.559 588.4,457.162 590.414,459.764 592.428,462.365 594.442,464.965 596.456,467.564 598.471,470.161 600.485,472.757 602.499,475.351 604.513,477.944 606.527,480.535 608.541,483.125 610.556,485.713 612.57,488.298 614.584,490.882 616.598,493.464 618.612,496.043 620.627,498.621 622.641,501.196 624.655,503.768 626.669,506.339 628.683,508.906 630.697,511.472 632.712,514.034 634.726,516.594 636.74,519.151 638.754,521.705 640.768,524.256 642.782,526.804 644.797,529.349 646.811,531.891 648.825,534.43 650.839,536.966 652.853,539.498 654.867,542.027 656.882,544.553 658.896,547.075 660.91,549.594 662.924,552.109 664.938,554.621 666.953,557.128 668.967,559.633 670.981,562.133 672.995,564.629 675.009,567.122 677.023,569.611 679.038,572.096 681.052,574.577 683.066,577.053 685.08,579.526 687.094,581.995 689.108,584.459 691.123,586.92 693.137,589.376 695.151,591.827 697.165,594.275 699.179,596.718 701.193,599.156 703.208,601.591 705.222,604.02 707.236,606.446 709.25,608.867 711.264,611.283 713.279,613.694 715.293,616.101 717.307,618.504 719.321,620.901 721.335,623.294 723.349,625.682 725.364,628.066 727.378,630.444 729.392,632.818 731.406,635.187 733.42,637.551 735.434,639.91 737.449,642.265 739.463,644.614 741.477,646.958 743.491,649.298 745.505,651.632 747.519,653.961 749.534,656.285 751.548,658.605 753.562,660.919 755.576,663.228 757.59,665.531 759.605,667.83 761.619,670.124 763.633,672.412 765.647,674.695 767.661,676.973 769.675,679.246 771.69,681.513 773.704,683.776 775.718,686.032 777.732,688.284 779.746,690.53 781.76,692.772 783.775,695.007 785.789,697.238 787.803,699.463 789.817,701.682 791.831,703.897 793.845,706.106 795.86,708.309 797.874,710.507 799.888,712.7 801.902,714.888 803.916,717.07 805.931,719.246 807.945,721.417 809.959,723.583 811.973,725.743 813.987,727.898 816.001,730.047 818.016,732.191 820.03,734.33 822.044,736.462 824.058,738.59 826.072,740.712 828.086,742.828 830.101,744.939 832.115,747.045 834.129,749.145 836.143,751.239 838.157,753.329 840.171,755.412 842.186,757.49 844.2,759.563 846.214,761.63 848.228,763.691 850.242,765.747 852.257,767.798 854.271,769.843 856.285,771.882 858.299,773.917 860.313,775.945 862.327,777.968 864.342,779.986 866.356,781.998 868.37,784.004 870.384,786.005 872.398,788.001 874.412,789.991 876.427,791.976 878.441,793.955 880.455,795.928 882.469,797.897 884.483,799.859 886.498,801.817 888.512,803.768 890.526,805.715 892.54,807.656 894.554,809.591 896.568,811.521 898.583,813.446 900.597,815.365 902.611,817.279 904.625,819.187 906.639,821.09 908.653,822.987 910.668,824.879 912.682,826.766 914.696,828.647 916.71,830.523 918.724,832.394 920.738,834.259 922.753,836.118 924.767,837.973 926.781,839.822 928.795,841.666 930.809,843.504 932.824,845.337 934.838,847.165 936.852,848.987 938.866,850.804 940.88,852.616 942.894,854.423 944.909,856.224 946.923,858.02 948.937,859.811 950.951,861.596 952.965,863.377 954.979,865.152 956.994,866.921 959.008,868.686 961.022,870.445 963.036,872.199 965.05,873.948 967.064,875.692 969.079,877.431 971.093,879.164 973.107,880.893 975.121,882.616 977.135,884.334 979.15,886.047 981.164,887.755 983.178,889.458 985.192,891.155 987.206,892.848 989.22,894.535 991.235,896.218 993.249,897.895 995.263,899.568 997.277,901.235 999.291,902.898 1001.31,904.555 1003.32,906.207 1005.33,907.855 1007.35,909.497 1009.36,911.135 1011.38,912.767 1013.39,914.395 1015.4,916.018 1017.42,917.635 1019.43,919.248 1021.45,920.856 1023.46,922.46 1025.48,924.058 1027.49,925.651 1029.5,927.24 1031.52,928.824 1033.53,930.403 1035.55,931.977 1037.56,933.546 1039.57,935.111 1041.59,936.671 1043.6,938.226 1045.62,939.776 1047.63,941.321 1049.65,942.862 1051.66,944.399 1053.67,945.93 1055.69,947.457 1057.7,948.979 1059.72,950.496 1061.73,952.009 1063.74,953.517 1065.76,955.021 1067.77,956.52 1069.79,958.014 1071.8,959.504 1073.82,960.989 1075.83,962.47 1077.84,963.946 1079.86,965.418 1081.87,966.885 1083.89,968.347 1085.9,969.806 1087.91,971.259 1089.93,972.708 1091.94,974.153 1093.96,975.593 1095.97,977.029 1097.99,978.46 1100,979.887 1102.01,981.31 1104.03,982.728 1106.04,984.142 1108.06,985.552 1110.07,986.957 1112.09,988.358 1114.1,989.754 1116.11,991.146 1118.13,992.534 1120.14,993.918 1122.16,995.297 1124.17,996.672 1126.18,998.043 1128.2,999.41 1130.21,1000.77 1132.23,1002.13 1134.24,1003.48 1136.26,1004.83 1138.27,1006.18 1140.28,1007.52 1142.3,1008.86 1144.31,1010.19 1146.33,1011.52 1148.34,1012.85 1150.35,1014.17 1152.37,1015.48 1154.38,1016.8 1156.4,1018.11 1158.41,1019.41 1160.43,1020.71 1162.44,1022.01 1164.45,1023.3 1166.47,1024.59 1168.48,1025.88 1170.5,1027.16 1172.51,1028.43 1174.52,1029.71 1176.54,1030.97 1178.55,1032.24 1180.57,1033.5 1182.58,1034.76 1184.6,1036.01 1186.61,1037.26 1188.62,1038.51 1190.64,1039.75 1192.65,1040.99 1194.67,1042.22 1196.68,1043.45 1198.69,1044.68 1200.71,1045.9 1202.72,1047.12 1204.74,1048.34 1206.75,1049.55 1208.77,1050.76 1210.78,1051.96 1212.79,1053.16 1214.81,1054.36 1216.82,1055.55 1218.84,1056.74 1220.85,1057.93 1222.86,1059.11 1224.88,1060.29 1226.89,1061.46 1228.91,1062.63 1230.92,1063.8 1232.94,1064.97 1234.95,1066.13 1236.96,1067.28 1238.98,1068.44 1240.99,1069.59 1243.01,1070.73 1245.02,1071.88 1247.03,1073.02 1249.05,1074.15 1251.06,1075.29 1253.08,1076.42 1255.09,1077.54 1257.11,1078.66 1259.12,1079.78 1261.13,1080.9 1263.15,1082.01 1265.16,1083.12 1267.18,1084.22 1269.19,1085.33 1271.2,1086.42 1273.22,1087.52 1275.23,1088.61 1277.25,1089.7 1279.26,1090.79 1281.28,1091.87 1283.29,1092.95 1285.3,1094.02 1287.32,1095.09 1289.33,1096.16 1291.35,1097.23 1293.36,1098.29 1295.37,1099.35 1297.39,1100.41 1299.4,1101.46 1301.42,1102.51 1303.43,1103.55 1305.45,1104.6 1307.46,1105.64 1309.47,1106.67 1311.49,1107.71 1313.5,1108.74 1315.52,1109.77 1317.53,1110.79 1319.54,1111.81 1321.56,1112.83 1323.57,1113.85 1325.59,1114.86 1327.6,1115.87 1329.62,1116.87 1331.63,1117.88 1333.64,1118.88 1335.66,1119.88 1337.67,1120.87 1339.69,1121.86 1341.7,1122.85 1343.72,1123.83 1345.73,1124.82 1347.74,1125.8 1349.76,1126.77 1351.77,1127.75 1353.79,1128.72 1355.8,1129.68 1357.81,1130.65 1359.83,1131.61 1361.84,1132.57 1363.86,1133.53 1365.87,1134.48 1367.89,1135.43 1369.9,1136.38 1371.91,1137.32 1373.93,1138.27 1375.94,1139.21 1377.96,1140.14 1379.97,1141.08 1381.98,1142.01 1384,1142.93 1386.01,1143.86 1388.03,1144.78 1390.04,1145.7 1392.06,1146.62 1394.07,1147.54 1396.08,1148.45 1398.1,1149.36 1400.11,1150.26 1402.13,1151.17 1404.14,1152.07 1406.15,1152.97 1408.17,1153.86 1410.18,1154.76 1412.2,1155.65 1414.21,1156.54 1416.23,1157.42 1418.24,1158.3 1420.25,1159.18 1422.27,1160.06 1424.28,1160.94 1426.3,1161.81 1428.31,1162.68 1430.32,1163.55 1432.34,1164.41 1434.35,1165.28 1436.37,1166.14 1438.38,1166.99 1440.4,1167.85 1442.41,1168.7 1444.42,1169.55 1446.44,1170.4 1448.45,1171.24 1450.47,1172.09 1452.48,1172.93 1454.49,1173.77 1456.51,1174.6 1458.52,1175.43 1460.54,1176.26 1462.55,1177.09 1464.57,1177.92 1466.58,1178.74 1468.59,1179.56 1470.61,1180.38 1472.62,1181.2 1474.64,1182.01 1476.65,1182.82 1478.66,1183.63 1480.68,1184.44 1482.69,1185.25 1484.71,1186.05 1486.72,1186.85 1488.74,1187.65 1490.75,1188.44 1492.76,1189.24 1494.78,1190.03 1496.79,1190.82 1498.81,1191.6 1500.82,1192.39 1502.83,1193.17 1504.85,1193.95 1506.86,1194.73 1508.88,1195.5 1510.89,1196.28 1512.91,1197.05 1514.92,1197.82 1516.93,1198.58 1518.95,1199.35 1520.96,1200.11 1522.98,1200.87 1524.99,1201.63 1527,1202.38 1529.02,1203.14 1531.03,1203.89 1533.05,1204.64 1535.06,1205.39 1537.08,1206.13 1539.09,1206.88 1541.1,1207.62 1543.12,1208.36 1545.13,1209.09 1547.15,1209.83 1549.16,1210.56 1551.17,1211.29 1553.19,1212.02 1555.2,1212.75 1557.22,1213.47 1559.23,1214.2 1561.25,1214.92 1563.26,1215.64 1565.27,1216.35 1567.29,1217.07 1569.3,1217.78 1571.32,1218.49 1573.33,1219.2 1575.35,1219.91 1577.36,1220.62 1579.37,1221.32 1581.39,1222.02 1583.4,1222.72 1585.42,1223.42 1587.43,1224.11 1589.44,1224.81 1591.46,1225.5 1593.47,1226.19 1595.49,1226.88 1597.5,1227.56 1599.52,1228.25 1601.53,1228.93 1603.54,1229.61 1605.56,1230.29 1607.57,1230.96 1609.59,1231.64 1611.6,1232.31 1613.61,1232.98 1615.63,1233.65 1617.64,1234.32 1619.66,1234.99 1621.67,1235.65 1623.69,1236.31 1625.7,1236.97 1627.71,1237.63 1629.73,1238.29 1631.74,1238.94 1633.76,1239.6 1635.77,1240.25 1637.78,1240.9 1639.8,1241.55 1641.81,1242.19 1643.83,1242.84 1645.84,1243.48 1647.86,1244.12 1649.87,1244.76 1651.88,1245.4 1653.9,1246.04 1655.91,1246.67 1657.93,1247.3 1659.94,1247.93 1661.95,1248.56 1663.97,1249.19 1665.98,1249.82 1668,1250.44 1670.01,1251.06 1672.03,1251.69 1674.04,1252.31 1676.05,1252.92 1678.07,1253.54 1680.08,1254.15 1682.1,1254.77 1684.11,1255.38 1686.12,1255.99 1688.14,1256.6 1690.15,1257.2 1692.17,1257.81 1694.18,1258.41 1696.2,1259.01 1698.21,1259.61 1700.22,1260.21 1702.24,1260.81 1704.25,1261.4 1706.27,1262 1708.28,1262.59 1710.29,1263.18 1712.31,1263.77 1714.32,1264.36 1716.34,1264.94 1718.35,1265.53 1720.37,1266.11 1722.38,1266.69 1724.39,1267.27 1726.41,1267.85 1728.42,1268.43 1730.44,1269.01 1732.45,1269.58 1734.46,1270.15 1736.48,1270.72 1738.49,1271.29 1740.51,1271.86 1742.52,1272.43 1744.54,1273 1746.55,1273.56 1748.56,1274.12 1750.58,1274.68 1752.59,1275.24 1754.61,1275.8 1756.62,1276.36 1758.63,1276.91 1760.65,1277.47 1762.66,1278.02 1764.68,1278.57 1766.69,1279.12 1768.71,1279.67 1770.72,1280.22 1772.73,1280.76 1774.75,1281.31 1776.76,1281.85 1778.78,1282.39 1780.79,1282.93 1782.81,1283.47 1784.82,1284.01 1786.83,1284.54 1788.85,1285.08 1790.86,1285.61 1792.88,1286.14 1794.89,1286.68 1796.9,1287.21 1798.92,1287.73 1800.93,1288.26 1802.95,1288.79 1804.96,1289.31 1806.98,1289.83 1808.99,1290.35 1811,1290.87 1813.02,1291.39 1815.03,1291.91 1817.05,1292.43 1819.06,1292.94 1821.07,1293.46 1823.09,1293.97 1825.1,1294.48 1827.12,1294.99 1829.13,1295.5 1831.15,1296.01 1833.16,1296.51 1835.17,1297.02 1837.19,1297.52 1839.2,1298.03 1841.22,1298.53 1843.23,1299.03 1845.24,1299.53 1847.26,1300.02 1849.27,1300.52 1851.29,1301.02 1853.3,1301.51 1855.32,1302 1857.33,1302.5 1859.34,1302.99 1861.36,1303.48 1863.37,1303.96 1865.39,1304.45 1867.4,1304.94 1869.41,1305.42 1871.43,1305.9 1873.44,1306.39 1875.46,1306.87 1877.47,1307.35 1879.49,1307.83 1881.5,1308.3 1883.51,1308.78 1885.53,1309.26 1887.54,1309.73 1889.56,1310.2 1891.57,1310.68 1893.58,1311.15 1895.6,1311.62 1897.61,1312.09 1899.63,1312.55 1901.64,1313.02 1903.66,1313.48 1905.67,1313.95 1907.68,1314.41 1909.7,1314.87 1911.71,1315.33 1913.73,1315.79 1915.74,1316.25 1917.75,1316.71 1919.77,1317.17 1921.78,1317.62 1923.8,1318.08 1925.81,1318.53 1927.83,1318.98 1929.84,1319.43 1931.85,1319.88 1933.87,1320.33 1935.88,1320.78 1937.9,1321.23 1939.91,1321.67 1941.92,1322.12 1943.94,1322.56 1945.95,1323.01 1947.97,1323.45 1949.98,1323.89 1952,1324.33 1954.01,1324.77 1956.02,1325.21 1958.04,1325.64 1960.05,1326.08 1962.07,1326.51 1964.08,1326.95 1966.09,1327.38 1968.11,1327.81 1970.12,1328.24 1972.14,1328.67 1974.15,1329.1 1976.17,1329.53 1978.18,1329.96 1980.19,1330.38 1982.21,1330.81 1984.22,1331.23 1986.24,1331.65 1988.25,1332.07 1990.26,1332.5 1992.28,1332.92 1994.29,1333.33 1996.31,1333.75 1998.32,1334.17 2000.34,1334.59 2002.35,1335 2004.36,1335.42 2006.38,1335.83 2008.39,1336.24 2010.41,1336.65 2012.42,1337.06 2014.44,1337.47 2016.45,1337.88 2018.46,1338.29 2020.48,1338.7 2022.49,1339.1 2024.51,1339.51 2026.52,1339.91 2028.53,1340.32 2030.55,1340.72 2032.56,1341.12 2034.58,1341.52 2036.59,1341.92 2038.61,1342.32 2040.62,1342.72 2042.63,1343.11 2044.65,1343.51 2046.66,1343.91 2048.68,1344.3 2050.69,1344.69 2052.7,1345.09 2054.72,1345.48 2056.73,1345.87 2058.75,1346.26 2060.76,1346.65 2062.78,1347.04 2064.79,1347.42 2066.8,1347.81 2068.82,1348.2 2070.83,1348.58 2072.85,1348.97 2074.86,1349.35 2076.87,1349.73 2078.89,1350.11 2080.9,1350.49 2082.92,1350.87 2084.93,1351.25 2086.95,1351.63 2088.96,1352.01 2090.97,1352.39 2092.99,1352.76 2095,1353.14 2097.02,1353.51 2099.03,1353.88 2101.04,1354.26 2103.06,1354.63 2105.07,1355 2107.09,1355.37 2109.1,1355.74 2111.12,1356.11 2113.13,1356.48 2115.14,1356.84 2117.16,1357.21 2119.17,1357.57 2121.19,1357.94 2123.2,1358.3 2125.21,1358.67 2127.23,1359.03 2129.24,1359.39 2131.26,1359.75 2133.27,1360.11 2135.29,1360.47 2137.3,1360.83 2139.31,1361.19 2141.33,1361.54 2143.34,1361.9 2145.36,1362.25 2147.37,1362.61 2149.38,1362.96 2151.4,1363.32 2153.41,1363.67 2155.43,1364.02 2157.44,1364.37 2159.46,1364.72 2161.47,1365.07 2163.48,1365.42 2165.5,1365.77 2167.51,1366.12 2169.53,1366.46 2171.54,1366.81 2173.55,1367.15 2175.57,1367.5 2177.58,1367.84 2179.6,1368.18 2181.61,1368.53 2183.63,1368.87 2185.64,1369.21 2187.65,1369.55 2189.67,1369.89 2191.68,1370.23 2193.7,1370.57 2195.71,1370.9 2197.72,1371.24 2199.74,1371.58 2201.75,1371.91 2203.77,1372.25 2205.78,1372.58 2207.8,1372.91 2209.81,1373.24 2211.82,1373.58 2213.84,1373.91 2215.85,1374.24 2217.87,1374.57 2219.88,1374.9 2221.9,1375.23 2223.91,1375.55 2225.92,1375.88 2227.94,1376.21 2229.95,1376.53 2231.97,1376.86 2233.98,1377.18 2235.99,1377.51 2238.01,1377.83 2240.02,1378.15 2242.04,1378.47 2244.05,1378.79 2246.07,1379.12 2248.08,1379.43 2250.09,1379.75 2252.11,1380.07 2254.12,1380.39 2256.14,1380.71 2258.15,1381.02 2260.16,1381.34 2262.18,1381.66 2264.19,1381.97 2266.21,1382.29 2268.22,1382.6 2270.24,1382.91 2272.25,1383.22 2274.26,1383.54 2276.28,1383.85 2278.29,1384.16 2280.31,1384.47 2282.32,1384.78 2284.33,1385.08 2286.35,1385.39 2288.36,1385.7 2290.38,1386.01 2292.39,1386.31 "/>
<polyline clip-path="url(#clip772)" style="stroke:#e26f46; stroke-linecap:round; stroke-linejoin:round; stroke-width:4; stroke-opacity:1; fill:none" points="280.231,162.095 282.245,162.171 284.259,162.296 286.274,162.47 288.288,162.692 290.302,162.961 292.316,163.277 294.33,163.639 296.344,164.045 298.359,164.497 300.373,164.992 302.387,165.53 304.401,166.111 306.415,166.734 308.43,167.397 310.444,168.101 312.458,168.846 314.472,169.629 316.486,170.451 318.5,171.311 320.515,172.208 322.529,173.143 324.543,174.113 326.557,175.119 328.571,176.16 330.585,177.236 332.6,178.346 334.614,179.489 336.628,180.664 338.642,181.872 340.656,183.112 342.67,184.383 344.685,185.685 346.699,187.017 348.713,188.379 350.727,189.77 352.741,191.19 354.756,192.637 356.77,194.113 358.784,195.616 360.798,197.145 362.812,198.701 364.826,200.283 366.841,201.89 368.855,203.522 370.869,205.178 372.883,206.859 374.897,208.563 376.911,210.291 378.926,212.041 380.94,213.813 382.954,215.608 384.968,217.424 386.982,219.261 388.996,221.119 391.011,222.997 393.025,224.895 395.039,226.813 397.053,228.75 399.067,230.706 401.082,232.681 403.096,234.673 405.11,236.683 407.124,238.711 409.138,240.756 411.152,242.817 413.167,244.895 415.181,246.989 417.195,249.098 419.209,251.223 421.223,253.363 423.237,255.518 425.252,257.687 427.266,259.871 429.28,262.068 431.294,264.279 433.308,266.502 435.322,268.739 437.337,270.989 439.351,273.25 441.365,275.524 443.379,277.81 445.393,280.107 447.408,282.415 449.422,284.735 451.436,287.065 453.45,289.405 455.464,291.756 457.478,294.117 459.493,296.487 461.507,298.867 463.521,301.256 465.535,303.653 467.549,306.06 469.563,308.475 471.578,310.899 473.592,313.33 475.606,315.769 477.62,318.216 479.634,320.67 481.648,323.131 483.663,325.599 485.677,328.074 487.691,330.556 489.705,333.043 491.719,335.537 493.734,338.037 495.748,340.542 497.762,343.053 499.776,345.57 501.79,348.091 503.804,350.617 505.819,353.149 507.833,355.684 509.847,358.225 511.861,360.769 513.875,363.318 515.889,365.87 517.904,368.426 519.918,370.986 521.932,373.549 523.946,376.115 525.96,378.684 527.974,381.257 529.989,383.832 532.003,386.41 534.017,388.99 536.031,391.572 538.045,394.157 540.06,396.744 542.074,399.332 544.088,401.923 546.102,404.515 548.116,407.108 550.13,409.703 552.145,412.299 554.159,414.896 556.173,417.494 558.187,420.093 560.201,422.693 562.215,425.293 564.23,427.894 566.244,430.495 568.258,433.097 570.272,435.698 572.286,438.299 574.301,440.901 576.315,443.502 578.329,446.103 580.343,448.703 582.357,451.303 584.371,453.903 586.386,456.501 588.4,459.099 590.414,461.696 592.428,464.291 594.442,466.886 596.456,469.48 598.471,472.072 600.485,474.663 602.499,477.252 604.513,479.84 606.527,482.426 608.541,485.01 610.556,487.593 612.57,490.173 614.584,492.752 616.598,495.328 618.612,497.903 620.627,500.475 622.641,503.045 624.655,505.612 626.669,508.178 628.683,510.74 630.697,513.3 632.712,515.858 634.726,518.412 636.74,520.964 638.754,523.513 640.768,526.059 642.782,528.602 644.797,531.143 646.811,533.679 648.825,536.213 650.839,538.744 652.853,541.271 654.867,543.795 656.882,546.316 658.896,548.833 660.91,551.347 662.924,553.857 664.938,556.363 666.953,558.866 668.967,561.365 670.981,563.861 672.995,566.352 675.009,568.84 677.023,571.324 679.038,573.804 681.052,576.28 683.066,578.752 685.08,581.219 687.094,583.683 689.108,586.143 691.123,588.598 693.137,591.049 695.151,593.496 697.165,595.939 699.179,598.377 701.193,600.811 703.208,603.24 705.222,605.665 707.236,608.085 709.25,610.501 711.264,612.913 713.279,615.319 715.293,617.722 717.307,620.119 719.321,622.512 721.335,624.9 723.349,627.284 725.364,629.662 727.378,632.036 729.392,634.405 731.406,636.769 733.42,639.129 735.434,641.483 737.449,643.833 739.463,646.177 741.477,648.517 743.491,650.852 745.505,653.181 747.519,655.506 749.534,657.826 751.548,660.14 753.562,662.45 755.576,664.754 757.59,667.053 759.605,669.347 761.619,671.636 763.633,673.92 765.647,676.199 767.661,678.472 769.675,680.74 771.69,683.003 773.704,685.261 775.718,687.513 777.732,689.76 779.746,692.002 781.76,694.239 783.775,696.47 785.789,698.696 787.803,700.917 789.817,703.132 791.831,705.342 793.845,707.546 795.86,709.746 797.874,711.939 799.888,714.128 801.902,716.311 803.916,718.489 805.931,720.661 807.945,722.827 809.959,724.989 811.973,727.145 813.987,729.295 816.001,731.44 818.016,733.58 820.03,735.714 822.044,737.843 824.058,739.966 826.072,742.084 828.086,744.196 830.101,746.303 832.115,748.404 834.129,750.5 836.143,752.59 838.157,754.675 840.171,756.754 842.186,758.828 844.2,760.897 846.214,762.96 848.228,765.017 850.242,767.069 852.257,769.116 854.271,771.157 856.285,773.192 858.299,775.222 860.313,777.246 862.327,779.265 864.342,781.279 866.356,783.287 868.37,785.29 870.384,787.287 872.398,789.278 874.412,791.264 876.427,793.245 878.441,795.22 880.455,797.19 882.469,799.154 884.483,801.113 886.498,803.066 888.512,805.014 890.526,806.957 892.54,808.894 894.554,810.825 896.568,812.752 898.583,814.672 900.597,816.588 902.611,818.497 904.625,820.402 906.639,822.301 908.653,824.195 910.668,826.083 912.682,827.966 914.696,829.843 916.71,831.716 918.724,833.582 920.738,835.444 922.753,837.3 924.767,839.15 926.781,840.996 928.795,842.836 930.809,844.671 932.824,846.5 934.838,848.324 936.852,850.143 938.866,851.956 940.88,853.765 942.894,855.568 944.909,857.365 946.923,859.158 948.937,860.945 950.951,862.727 952.965,864.503 954.979,866.275 956.994,868.041 959.008,869.802 961.022,871.558 963.036,873.309 965.05,875.054 967.064,876.795 969.079,878.53 971.093,880.26 973.107,881.985 975.121,883.705 977.135,885.419 979.15,887.129 981.164,888.833 983.178,890.533 985.192,892.227 987.206,893.916 989.22,895.6 991.235,897.279 993.249,898.953 995.263,900.623 997.277,902.287 999.291,903.946 1001.31,905.6 1003.32,907.249 1005.33,908.893 1007.35,910.532 1009.36,912.166 1011.38,913.796 1013.39,915.42 1015.4,917.04 1017.42,918.654 1019.43,920.264 1021.45,921.869 1023.46,923.469 1025.48,925.064 1027.49,926.654 1029.5,928.239 1031.52,929.82 1033.53,931.396 1035.55,932.967 1037.56,934.533 1039.57,936.094 1041.59,937.651 1043.6,939.203 1045.62,940.75 1047.63,942.293 1049.65,943.831 1051.66,945.364 1053.67,946.892 1055.69,948.416 1057.7,949.935 1059.72,951.449 1061.73,952.959 1063.74,954.464 1065.76,955.965 1067.77,957.461 1069.79,958.952 1071.8,960.439 1073.82,961.922 1075.83,963.399 1077.84,964.872 1079.86,966.341 1081.87,967.805 1083.89,969.265 1085.9,970.72 1087.91,972.171 1089.93,973.617 1091.94,975.059 1093.96,976.496 1095.97,977.929 1097.99,979.358 1100,980.782 1102.01,982.202 1104.03,983.617 1106.04,985.028 1108.06,986.435 1110.07,987.837 1112.09,989.235 1114.1,990.629 1116.11,992.018 1118.13,993.403 1120.14,994.784 1122.16,996.161 1124.17,997.533 1126.18,998.901 1128.2,1000.27 1130.21,1001.62 1132.23,1002.98 1134.24,1004.33 1136.26,1005.68 1138.27,1007.02 1140.28,1008.36 1142.3,1009.7 1144.31,1011.03 1146.33,1012.35 1148.34,1013.68 1150.35,1014.99 1152.37,1016.31 1154.38,1017.62 1156.4,1018.92 1158.41,1020.23 1160.43,1021.52 1162.44,1022.82 1164.45,1024.11 1166.47,1025.4 1168.48,1026.68 1170.5,1027.96 1172.51,1029.23 1174.52,1030.5 1176.54,1031.77 1178.55,1033.03 1180.57,1034.29 1182.58,1035.54 1184.6,1036.79 1186.61,1038.04 1188.62,1039.29 1190.64,1040.52 1192.65,1041.76 1194.67,1042.99 1196.68,1044.22 1198.69,1045.44 1200.71,1046.66 1202.72,1047.88 1204.74,1049.09 1206.75,1050.3 1208.77,1051.51 1210.78,1052.71 1212.79,1053.91 1214.81,1055.1 1216.82,1056.3 1218.84,1057.48 1220.85,1058.67 1222.86,1059.85 1224.88,1061.02 1226.89,1062.19 1228.91,1063.36 1230.92,1064.53 1232.94,1065.69 1234.95,1066.85 1236.96,1068 1238.98,1069.16 1240.99,1070.3 1243.01,1071.45 1245.02,1072.59 1247.03,1073.73 1249.05,1074.86 1251.06,1075.99 1253.08,1077.12 1255.09,1078.24 1257.11,1079.36 1259.12,1080.48 1261.13,1081.59 1263.15,1082.7 1265.16,1083.81 1267.18,1084.91 1269.19,1086.01 1271.2,1087.11 1273.22,1088.2 1275.23,1089.29 1277.25,1090.37 1279.26,1091.46 1281.28,1092.54 1283.29,1093.61 1285.3,1094.69 1287.32,1095.76 1289.33,1096.82 1291.35,1097.89 1293.36,1098.95 1295.37,1100.01 1297.39,1101.06 1299.4,1102.11 1301.42,1103.16 1303.43,1104.2 1305.45,1105.24 1307.46,1106.28 1309.47,1107.32 1311.49,1108.35 1313.5,1109.38 1315.52,1110.4 1317.53,1111.42 1319.54,1112.44 1321.56,1113.46 1323.57,1114.47 1325.59,1115.48 1327.6,1116.49 1329.62,1117.5 1331.63,1118.5 1333.64,1119.49 1335.66,1120.49 1337.67,1121.48 1339.69,1122.47 1341.7,1123.46 1343.72,1124.44 1345.73,1125.42 1347.74,1126.4 1349.76,1127.37 1351.77,1128.35 1353.79,1129.31 1355.8,1130.28 1357.81,1131.24 1359.83,1132.2 1361.84,1133.16 1363.86,1134.11 1365.87,1135.07 1367.89,1136.01 1369.9,1136.96 1371.91,1137.9 1373.93,1138.84 1375.94,1139.78 1377.96,1140.72 1379.97,1141.65 1381.98,1142.58 1384,1143.5 1386.01,1144.43 1388.03,1145.35 1390.04,1146.27 1392.06,1147.18 1394.07,1148.1 1396.08,1149.01 1398.1,1149.91 1400.11,1150.82 1402.13,1151.72 1404.14,1152.62 1406.15,1153.52 1408.17,1154.41 1410.18,1155.3 1412.2,1156.19 1414.21,1157.08 1416.23,1157.96 1418.24,1158.84 1420.25,1159.72 1422.27,1160.6 1424.28,1161.47 1426.3,1162.34 1428.31,1163.21 1430.32,1164.08 1432.34,1164.94 1434.35,1165.8 1436.37,1166.66 1438.38,1167.51 1440.4,1168.37 1442.41,1169.22 1444.42,1170.07 1446.44,1170.91 1448.45,1171.76 1450.47,1172.6 1452.48,1173.44 1454.49,1174.27 1456.51,1175.11 1458.52,1175.94 1460.54,1176.77 1462.55,1177.59 1464.57,1178.42 1466.58,1179.24 1468.59,1180.06 1470.61,1180.88 1472.62,1181.69 1474.64,1182.5 1476.65,1183.31 1478.66,1184.12 1480.68,1184.93 1482.69,1185.73 1484.71,1186.53 1486.72,1187.33 1488.74,1188.13 1490.75,1188.92 1492.76,1189.71 1494.78,1190.5 1496.79,1191.29 1498.81,1192.07 1500.82,1192.86 1502.83,1193.64 1504.85,1194.42 1506.86,1195.19 1508.88,1195.97 1510.89,1196.74 1512.91,1197.51 1514.92,1198.27 1516.93,1199.04 1518.95,1199.8 1520.96,1200.56 1522.98,1201.32 1524.99,1202.08 1527,1202.83 1529.02,1203.59 1531.03,1204.34 1533.05,1205.09 1535.06,1205.83 1537.08,1206.58 1539.09,1207.32 1541.1,1208.06 1543.12,1208.8 1545.13,1209.53 1547.15,1210.26 1549.16,1211 1551.17,1211.73 1553.19,1212.45 1555.2,1213.18 1557.22,1213.9 1559.23,1214.62 1561.25,1215.34 1563.26,1216.06 1565.27,1216.78 1567.29,1217.49 1569.3,1218.2 1571.32,1218.91 1573.33,1219.62 1575.35,1220.33 1577.36,1221.03 1579.37,1221.73 1581.39,1222.43 1583.4,1223.13 1585.42,1223.83 1587.43,1224.52 1589.44,1225.21 1591.46,1225.9 1593.47,1226.59 1595.49,1227.28 1597.5,1227.96 1599.52,1228.64 1601.53,1229.33 1603.54,1230 1605.56,1230.68 1607.57,1231.36 1609.59,1232.03 1611.6,1232.7 1613.61,1233.37 1615.63,1234.04 1617.64,1234.71 1619.66,1235.37 1621.67,1236.03 1623.69,1236.7 1625.7,1237.35 1627.71,1238.01 1629.73,1238.67 1631.74,1239.32 1633.76,1239.97 1635.77,1240.62 1637.78,1241.27 1639.8,1241.92 1641.81,1242.56 1643.83,1243.21 1645.84,1243.85 1647.86,1244.49 1649.87,1245.13 1651.88,1245.76 1653.9,1246.4 1655.91,1247.03 1657.93,1247.66 1659.94,1248.29 1661.95,1248.92 1663.97,1249.55 1665.98,1250.17 1668,1250.8 1670.01,1251.42 1672.03,1252.04 1674.04,1252.66 1676.05,1253.27 1678.07,1253.89 1680.08,1254.5 1682.1,1255.11 1684.11,1255.72 1686.12,1256.33 1688.14,1256.94 1690.15,1257.54 1692.17,1258.15 1694.18,1258.75 1696.2,1259.35 1698.21,1259.95 1700.22,1260.55 1702.24,1261.14 1704.25,1261.74 1706.27,1262.33 1708.28,1262.92 1710.29,1263.51 1712.31,1264.1 1714.32,1264.68 1716.34,1265.27 1718.35,1265.85 1720.37,1266.44 1722.38,1267.02 1724.39,1267.6 1726.41,1268.17 1728.42,1268.75 1730.44,1269.32 1732.45,1269.9 1734.46,1270.47 1736.48,1271.04 1738.49,1271.61 1740.51,1272.17 1742.52,1272.74 1744.54,1273.3 1746.55,1273.87 1748.56,1274.43 1750.58,1274.99 1752.59,1275.55 1754.61,1276.1 1756.62,1276.66 1758.63,1277.21 1760.65,1277.77 1762.66,1278.32 1764.68,1278.87 1766.69,1279.42 1768.71,1279.97 1770.72,1280.51 1772.73,1281.06 1774.75,1281.6 1776.76,1282.14 1778.78,1282.68 1780.79,1283.22 1782.81,1283.76 1784.82,1284.3 1786.83,1284.83 1788.85,1285.36 1790.86,1285.9 1792.88,1286.43 1794.89,1286.96 1796.9,1287.49 1798.92,1288.01 1800.93,1288.54 1802.95,1289.06 1804.96,1289.59 1806.98,1290.11 1808.99,1290.63 1811,1291.15 1813.02,1291.67 1815.03,1292.18 1817.05,1292.7 1819.06,1293.21 1821.07,1293.73 1823.09,1294.24 1825.1,1294.75 1827.12,1295.26 1829.13,1295.76 1831.15,1296.27 1833.16,1296.78 1835.17,1297.28 1837.19,1297.78 1839.2,1298.29 1841.22,1298.79 1843.23,1299.29 1845.24,1299.78 1847.26,1300.28 1849.27,1300.78 1851.29,1301.27 1853.3,1301.76 1855.32,1302.25 1857.33,1302.75 1859.34,1303.24 1861.36,1303.72 1863.37,1304.21 1865.39,1304.7 1867.4,1305.18 1869.41,1305.67 1871.43,1306.15 1873.44,1306.63 1875.46,1307.11 1877.47,1307.59 1879.49,1308.07 1881.5,1308.54 1883.51,1309.02 1885.53,1309.49 1887.54,1309.97 1889.56,1310.44 1891.57,1310.91 1893.58,1311.38 1895.6,1311.85 1897.61,1312.32 1899.63,1312.78 1901.64,1313.25 1903.66,1313.71 1905.67,1314.18 1907.68,1314.64 1909.7,1315.1 1911.71,1315.56 1913.73,1316.02 1915.74,1316.48 1917.75,1316.93 1919.77,1317.39 1921.78,1317.84 1923.8,1318.3 1925.81,1318.75 1927.83,1319.2 1929.84,1319.65 1931.85,1320.1 1933.87,1320.55 1935.88,1321 1937.9,1321.44 1939.91,1321.89 1941.92,1322.33 1943.94,1322.77 1945.95,1323.22 1947.97,1323.66 1949.98,1324.1 1952,1324.54 1954.01,1324.97 1956.02,1325.41 1958.04,1325.85 1960.05,1326.28 1962.07,1326.72 1964.08,1327.15 1966.09,1327.58 1968.11,1328.01 1970.12,1328.44 1972.14,1328.87 1974.15,1329.3 1976.17,1329.72 1978.18,1330.15 1980.19,1330.58 1982.21,1331 1984.22,1331.42 1986.24,1331.85 1988.25,1332.27 1990.26,1332.69 1992.28,1333.11 1994.29,1333.52 1996.31,1333.94 1998.32,1334.36 2000.34,1334.77 2002.35,1335.19 2004.36,1335.6 2006.38,1336.01 2008.39,1336.43 2010.41,1336.84 2012.42,1337.25 2014.44,1337.65 2016.45,1338.06 2018.46,1338.47 2020.48,1338.88 2022.49,1339.28 2024.51,1339.69 2026.52,1340.09 2028.53,1340.49 2030.55,1340.89 2032.56,1341.29 2034.58,1341.69 2036.59,1342.09 2038.61,1342.49 2040.62,1342.89 2042.63,1343.28 2044.65,1343.68 2046.66,1344.07 2048.68,1344.47 2050.69,1344.86 2052.7,1345.25 2054.72,1345.64 2056.73,1346.03 2058.75,1346.42 2060.76,1346.81 2062.78,1347.2 2064.79,1347.59 2066.8,1347.97 2068.82,1348.36 2070.83,1348.74 2072.85,1349.12 2074.86,1349.51 2076.87,1349.89 2078.89,1350.27 2080.9,1350.65 2082.92,1351.03 2084.93,1351.41 2086.95,1351.78 2088.96,1352.16 2090.97,1352.54 2092.99,1352.91 2095,1353.29 2097.02,1353.66 2099.03,1354.03 2101.04,1354.4 2103.06,1354.77 2105.07,1355.15 2107.09,1355.51 2109.1,1355.88 2111.12,1356.25 2113.13,1356.62 2115.14,1356.98 2117.16,1357.35 2119.17,1357.71 2121.19,1358.08 2123.2,1358.44 2125.21,1358.8 2127.23,1359.17 2129.24,1359.53 2131.26,1359.89 2133.27,1360.25 2135.29,1360.6 2137.3,1360.96 2139.31,1361.32 2141.33,1361.68 2143.34,1362.03 2145.36,1362.39 2147.37,1362.74 2149.38,1363.09 2151.4,1363.45 2153.41,1363.8 2155.43,1364.15 2157.44,1364.5 2159.46,1364.85 2161.47,1365.2 2163.48,1365.55 2165.5,1365.89 2167.51,1366.24 2169.53,1366.58 2171.54,1366.93 2173.55,1367.27 2175.57,1367.62 2177.58,1367.96 2179.6,1368.3 2181.61,1368.65 2183.63,1368.99 2185.64,1369.33 2187.65,1369.67 2189.67,1370 2191.68,1370.34 2193.7,1370.68 2195.71,1371.02 2197.72,1371.35 2199.74,1371.69 2201.75,1372.02 2203.77,1372.36 2205.78,1372.69 2207.8,1373.02 2209.81,1373.35 2211.82,1373.69 2213.84,1374.02 2215.85,1374.35 2217.87,1374.67 2219.88,1375 2221.9,1375.33 2223.91,1375.66 2225.92,1375.98 2227.94,1376.31 2229.95,1376.64 2231.97,1376.96 2233.98,1377.28 2235.99,1377.61 2238.01,1377.93 2240.02,1378.25 2242.04,1378.57 2244.05,1378.89 2246.07,1379.21 2248.08,1379.53 2250.09,1379.85 2252.11,1380.17 2254.12,1380.49 2256.14,1380.8 2258.15,1381.12 2260.16,1381.43 2262.18,1381.75 2264.19,1382.06 2266.21,1382.38 2268.22,1382.69 2270.24,1383 2272.25,1383.31 2274.26,1383.62 2276.28,1383.93 2278.29,1384.24 2280.31,1384.55 2282.32,1384.86 2284.33,1385.17 2286.35,1385.48 2288.36,1385.78 2290.38,1386.09 2292.39,1386.4 "/>
<path clip-path="url(#clip770)" d="M1872.19 322.316 L2281.66 322.316 L2281.66 166.796 L1872.19 166.796  Z" fill="#ffffff" fill-rule="evenodd" fill-opacity="1"/>
<polyline clip-path="url(#clip770)" style="stroke:#000000; stroke-linecap:round; stroke-linejoin:round; stroke-width:4; stroke-opacity:1; fill:none" points="1872.19,322.316 2281.66,322.316 2281.66,166.796 1872.19,166.796 1872.19,322.316 "/>
<polyline clip-path="url(#clip770)" style="stroke:#009af9; stroke-linecap:round; stroke-linejoin:round; stroke-width:4; stroke-opacity:1; fill:none" points="1895.89,218.636 2038.08,218.636 "/>
<path clip-path="url(#clip770)" d="M2061.78 201.356 L2068.08 201.356 L2083.4 230.268 L2083.4 201.356 L2087.94 201.356 L2087.94 235.916 L2081.64 235.916 L2066.32 207.004 L2066.32 235.916 L2061.78 235.916 L2061.78 201.356 Z" fill="#000000" fill-rule="nonzero" fill-opacity="1" /><path clip-path="url(#clip770)" d="M2096.62 225.684 L2096.62 209.99 L2100.88 209.99 L2100.88 225.522 Q2100.88 229.203 2102.31 231.055 Q2103.75 232.883 2106.62 232.883 Q2110.07 232.883 2112.06 230.684 Q2114.07 228.485 2114.07 224.689 L2114.07 209.99 L2118.33 209.99 L2118.33 235.916 L2114.07 235.916 L2114.07 231.934 Q2112.52 234.295 2110.46 235.453 Q2108.42 236.587 2105.72 236.587 Q2101.25 236.587 2098.93 233.809 Q2096.62 231.031 2096.62 225.684 M2107.34 209.365 L2107.34 209.365 Z" fill="#000000" fill-rule="nonzero" fill-opacity="1" /><path clip-path="url(#clip770)" d="M2147.29 214.967 Q2148.89 212.096 2151.11 210.731 Q2153.33 209.365 2156.34 209.365 Q2160.39 209.365 2162.59 212.212 Q2164.79 215.036 2164.79 220.268 L2164.79 235.916 L2160.51 235.916 L2160.51 220.407 Q2160.51 216.68 2159.19 214.874 Q2157.87 213.069 2155.16 213.069 Q2151.85 213.069 2149.93 215.268 Q2148.01 217.467 2148.01 221.263 L2148.01 235.916 L2143.73 235.916 L2143.73 220.407 Q2143.73 216.657 2142.41 214.874 Q2141.09 213.069 2138.33 213.069 Q2135.07 213.069 2133.15 215.291 Q2131.23 217.49 2131.23 221.263 L2131.23 235.916 L2126.94 235.916 L2126.94 209.99 L2131.23 209.99 L2131.23 214.018 Q2132.68 211.633 2134.72 210.499 Q2136.76 209.365 2139.56 209.365 Q2142.38 209.365 2144.35 210.8 Q2146.34 212.235 2147.29 214.967 Z" fill="#000000" fill-rule="nonzero" fill-opacity="1" /><path clip-path="url(#clip770)" d="M2195.46 221.888 L2195.46 223.971 L2175.88 223.971 Q2176.16 228.369 2178.52 230.684 Q2180.9 232.976 2185.14 232.976 Q2187.59 232.976 2189.88 232.374 Q2192.2 231.772 2194.47 230.569 L2194.47 234.596 Q2192.17 235.568 2189.77 236.078 Q2187.36 236.587 2184.88 236.587 Q2178.68 236.587 2175.04 232.976 Q2171.43 229.365 2171.43 223.207 Q2171.43 216.842 2174.86 213.115 Q2178.31 209.365 2184.14 209.365 Q2189.37 209.365 2192.41 212.745 Q2195.46 216.101 2195.46 221.888 M2191.2 220.638 Q2191.16 217.143 2189.23 215.059 Q2187.34 212.976 2184.19 212.976 Q2180.62 212.976 2178.47 214.99 Q2176.34 217.004 2176.02 220.661 L2191.2 220.638 Z" fill="#000000" fill-rule="nonzero" fill-opacity="1" /><path clip-path="url(#clip770)" d="M2217.47 213.971 Q2216.76 213.555 2215.9 213.37 Q2215.07 213.161 2214.05 213.161 Q2210.44 213.161 2208.49 215.522 Q2206.57 217.86 2206.57 222.258 L2206.57 235.916 L2202.29 235.916 L2202.29 209.99 L2206.57 209.99 L2206.57 214.018 Q2207.91 211.657 2210.07 210.522 Q2212.22 209.365 2215.3 209.365 Q2215.74 209.365 2216.27 209.434 Q2216.8 209.481 2217.45 209.596 L2217.47 213.971 Z" fill="#000000" fill-rule="nonzero" fill-opacity="1" /><path clip-path="url(#clip770)" d="M2221.94 209.99 L2226.2 209.99 L2226.2 235.916 L2221.94 235.916 L2221.94 209.99 M2221.94 199.897 L2226.2 199.897 L2226.2 205.291 L2221.94 205.291 L2221.94 199.897 Z" fill="#000000" fill-rule="nonzero" fill-opacity="1" /><path clip-path="url(#clip770)" d="M2234.95 199.897 L2239.23 199.897 L2239.23 221.17 L2251.94 209.99 L2257.38 209.99 L2243.63 222.119 L2257.96 235.916 L2252.41 235.916 L2239.23 223.254 L2239.23 235.916 L2234.95 235.916 L2234.95 199.897 Z" fill="#000000" fill-rule="nonzero" fill-opacity="1" /><polyline clip-path="url(#clip770)" style="stroke:#e26f46; stroke-linecap:round; stroke-linejoin:round; stroke-width:4; stroke-opacity:1; fill:none" points="1895.89,270.476 2038.08,270.476 "/>
<path clip-path="url(#clip770)" d="M2077.61 257.802 L2071.27 275.001 L2083.98 275.001 L2077.61 257.802 M2074.98 253.196 L2080.28 253.196 L2093.45 287.756 L2088.59 287.756 L2085.44 278.89 L2069.86 278.89 L2066.71 287.756 L2061.78 287.756 L2074.98 253.196 Z" fill="#000000" fill-rule="nonzero" fill-opacity="1" /><path clip-path="url(#clip770)" d="M2119.86 272.108 L2119.86 287.756 L2115.6 287.756 L2115.6 272.247 Q2115.6 268.566 2114.17 266.737 Q2112.73 264.909 2109.86 264.909 Q2106.41 264.909 2104.42 267.108 Q2102.43 269.307 2102.43 273.103 L2102.43 287.756 L2098.15 287.756 L2098.15 261.83 L2102.43 261.83 L2102.43 265.858 Q2103.96 263.52 2106.02 262.362 Q2108.1 261.205 2110.81 261.205 Q2115.28 261.205 2117.57 263.983 Q2119.86 266.737 2119.86 272.108 Z" fill="#000000" fill-rule="nonzero" fill-opacity="1" /><path clip-path="url(#clip770)" d="M2140.14 274.723 Q2134.98 274.723 2132.98 275.904 Q2130.99 277.084 2130.99 279.932 Q2130.99 282.2 2132.48 283.543 Q2133.98 284.862 2136.55 284.862 Q2140.09 284.862 2142.22 282.362 Q2144.37 279.839 2144.37 275.672 L2144.37 274.723 L2140.14 274.723 M2148.63 272.964 L2148.63 287.756 L2144.37 287.756 L2144.37 283.821 Q2142.92 286.182 2140.74 287.316 Q2138.56 288.427 2135.42 288.427 Q2131.43 288.427 2129.07 286.205 Q2126.73 283.959 2126.73 280.209 Q2126.73 275.834 2129.65 273.612 Q2132.59 271.39 2138.4 271.39 L2144.37 271.39 L2144.37 270.973 Q2144.37 268.034 2142.43 266.436 Q2140.51 264.816 2137.01 264.816 Q2134.79 264.816 2132.68 265.348 Q2130.58 265.881 2128.63 266.946 L2128.63 263.01 Q2130.97 262.108 2133.17 261.668 Q2135.37 261.205 2137.45 261.205 Q2143.08 261.205 2145.85 264.122 Q2148.63 267.038 2148.63 272.964 Z" fill="#000000" fill-rule="nonzero" fill-opacity="1" /><path clip-path="url(#clip770)" d="M2157.41 251.737 L2161.67 251.737 L2161.67 287.756 L2157.41 287.756 L2157.41 251.737 Z" fill="#000000" fill-rule="nonzero" fill-opacity="1" /><path clip-path="url(#clip770)" d="M2170.58 261.83 L2174.84 261.83 L2174.84 287.756 L2170.58 287.756 L2170.58 261.83 M2170.58 251.737 L2174.84 251.737 L2174.84 257.131 L2170.58 257.131 L2170.58 251.737 Z" fill="#000000" fill-rule="nonzero" fill-opacity="1" /><path clip-path="url(#clip770)" d="M2187.96 254.469 L2187.96 261.83 L2196.73 261.83 L2196.73 265.14 L2187.96 265.14 L2187.96 279.214 Q2187.96 282.385 2188.82 283.288 Q2189.7 284.191 2192.36 284.191 L2196.73 284.191 L2196.73 287.756 L2192.36 287.756 Q2187.43 287.756 2185.55 285.927 Q2183.68 284.075 2183.68 279.214 L2183.68 265.14 L2180.55 265.14 L2180.55 261.83 L2183.68 261.83 L2183.68 254.469 L2187.96 254.469 Z" fill="#000000" fill-rule="nonzero" fill-opacity="1" /><path clip-path="url(#clip770)" d="M2202.34 261.83 L2206.6 261.83 L2206.6 287.756 L2202.34 287.756 L2202.34 261.83 M2202.34 251.737 L2206.6 251.737 L2206.6 257.131 L2202.34 257.131 L2202.34 251.737 Z" fill="#000000" fill-rule="nonzero" fill-opacity="1" /><path clip-path="url(#clip770)" d="M2215.35 251.737 L2219.63 251.737 L2219.63 273.01 L2232.34 261.83 L2237.78 261.83 L2224.03 273.959 L2238.35 287.756 L2232.8 287.756 L2219.63 275.094 L2219.63 287.756 L2215.35 287.756 L2215.35 251.737 Z" fill="#000000" fill-rule="nonzero" fill-opacity="1" /></svg>
