<?xml version="1.0" encoding="utf-8"?>
<svg xmlns="http://www.w3.org/2000/svg" xmlns:xlink="http://www.w3.org/1999/xlink" width="600" height="400" viewBox="0 0 2400 1600">
<defs>
  <clipPath id="clip120">
    <rect x="0" y="0" width="2400" height="1600"/>
  </clipPath>
</defs>
<path clip-path="url(#clip120)" d="M0 1600 L2400 1600 L2400 8.88178e-14 L0 8.88178e-14  Z" fill="#ffffff" fill-rule="evenodd" fill-opacity="1"/>
<defs>
  <clipPath id="clip121">
    <rect x="232" y="123" width="2121" height="1301"/>
  </clipPath>
</defs>
<path clip-path="url(#clip120)" d="M377.713 1423.18 L2352.76 1423.18 L2352.76 123.472 L377.713 123.472  Z" fill="#ffffff" fill-rule="evenodd" fill-opacity="1"/>
<defs>
  <clipPath id="clip122">
    <rect x="377" y="123" width="1976" height="1301"/>
  </clipPath>
</defs>
<polyline clip-path="url(#clip122)" style="stroke:#000000; stroke-linecap:round; stroke-linejoin:round; stroke-width:2; stroke-opacity:0.1; fill:none" points="433.61,1423.18 433.61,123.472 "/>
<polyline clip-path="url(#clip122)" style="stroke:#000000; stroke-linecap:round; stroke-linejoin:round; stroke-width:2; stroke-opacity:0.1; fill:none" points="899.422,1423.18 899.422,123.472 "/>
<polyline clip-path="url(#clip122)" style="stroke:#000000; stroke-linecap:round; stroke-linejoin:round; stroke-width:2; stroke-opacity:0.1; fill:none" points="1365.23,1423.18 1365.23,123.472 "/>
<polyline clip-path="url(#clip122)" style="stroke:#000000; stroke-linecap:round; stroke-linejoin:round; stroke-width:2; stroke-opacity:0.1; fill:none" points="1831.05,1423.18 1831.05,123.472 "/>
<polyline clip-path="url(#clip122)" style="stroke:#000000; stroke-linecap:round; stroke-linejoin:round; stroke-width:2; stroke-opacity:0.1; fill:none" points="2296.86,1423.18 2296.86,123.472 "/>
<polyline clip-path="url(#clip122)" style="stroke:#000000; stroke-linecap:round; stroke-linejoin:round; stroke-width:2; stroke-opacity:0.1; fill:none" points="377.713,1381.7 2352.76,1381.7 "/>
<polyline clip-path="url(#clip122)" style="stroke:#000000; stroke-linecap:round; stroke-linejoin:round; stroke-width:2; stroke-opacity:0.1; fill:none" points="377.713,1104.26 2352.76,1104.26 "/>
<polyline clip-path="url(#clip122)" style="stroke:#000000; stroke-linecap:round; stroke-linejoin:round; stroke-width:2; stroke-opacity:0.1; fill:none" points="377.713,826.813 2352.76,826.813 "/>
<polyline clip-path="url(#clip122)" style="stroke:#000000; stroke-linecap:round; stroke-linejoin:round; stroke-width:2; stroke-opacity:0.1; fill:none" points="377.713,549.368 2352.76,549.368 "/>
<polyline clip-path="url(#clip122)" style="stroke:#000000; stroke-linecap:round; stroke-linejoin:round; stroke-width:2; stroke-opacity:0.1; fill:none" points="377.713,271.923 2352.76,271.923 "/>
<polyline clip-path="url(#clip120)" style="stroke:#000000; stroke-linecap:round; stroke-linejoin:round; stroke-width:4; stroke-opacity:1; fill:none" points="377.713,1423.18 2352.76,1423.18 "/>
<polyline clip-path="url(#clip120)" style="stroke:#000000; stroke-linecap:round; stroke-linejoin:round; stroke-width:4; stroke-opacity:1; fill:none" points="433.61,1423.18 433.61,1404.28 "/>
<polyline clip-path="url(#clip120)" style="stroke:#000000; stroke-linecap:round; stroke-linejoin:round; stroke-width:4; stroke-opacity:1; fill:none" points="899.422,1423.18 899.422,1404.28 "/>
<polyline clip-path="url(#clip120)" style="stroke:#000000; stroke-linecap:round; stroke-linejoin:round; stroke-width:4; stroke-opacity:1; fill:none" points="1365.23,1423.18 1365.23,1404.28 "/>
<polyline clip-path="url(#clip120)" style="stroke:#000000; stroke-linecap:round; stroke-linejoin:round; stroke-width:4; stroke-opacity:1; fill:none" points="1831.05,1423.18 1831.05,1404.28 "/>
<polyline clip-path="url(#clip120)" style="stroke:#000000; stroke-linecap:round; stroke-linejoin:round; stroke-width:4; stroke-opacity:1; fill:none" points="2296.86,1423.18 2296.86,1404.28 "/>
<path clip-path="url(#clip120)" d="M409.096 1481.64 L416.735 1481.64 L416.735 1455.28 L408.425 1456.95 L408.425 1452.69 L416.689 1451.02 L421.365 1451.02 L421.365 1481.64 L429.004 1481.64 L429.004 1485.58 L409.096 1485.58 L409.096 1481.64 Z" fill="#000000" fill-rule="nonzero" fill-opacity="1" /><path clip-path="url(#clip120)" d="M442.476 1481.64 L458.795 1481.64 L458.795 1485.58 L436.851 1485.58 L436.851 1481.64 Q439.513 1478.89 444.096 1474.26 Q448.703 1469.61 449.883 1468.27 Q452.129 1465.74 453.008 1464.01 Q453.911 1462.25 453.911 1460.56 Q453.911 1457.8 451.966 1456.07 Q450.045 1454.33 446.943 1454.33 Q444.744 1454.33 442.291 1455.09 Q439.86 1455.86 437.082 1457.41 L437.082 1452.69 Q439.906 1451.55 442.36 1450.97 Q444.814 1450.39 446.851 1450.39 Q452.221 1450.39 455.416 1453.08 Q458.61 1455.77 458.61 1460.26 Q458.61 1462.39 457.8 1464.31 Q457.013 1466.2 454.906 1468.8 Q454.328 1469.47 451.226 1472.69 Q448.124 1475.88 442.476 1481.64 Z" fill="#000000" fill-rule="nonzero" fill-opacity="1" /><path clip-path="url(#clip120)" d="M873.867 1481.64 L881.506 1481.64 L881.506 1455.28 L873.195 1456.95 L873.195 1452.69 L881.459 1451.02 L886.135 1451.02 L886.135 1481.64 L893.774 1481.64 L893.774 1485.58 L873.867 1485.58 L873.867 1481.64 Z" fill="#000000" fill-rule="nonzero" fill-opacity="1" /><path clip-path="url(#clip120)" d="M916.066 1455.09 L904.26 1473.54 L916.066 1473.54 L916.066 1455.09 M914.839 1451.02 L920.718 1451.02 L920.718 1473.54 L925.649 1473.54 L925.649 1477.43 L920.718 1477.43 L920.718 1485.58 L916.066 1485.58 L916.066 1477.43 L900.464 1477.43 L900.464 1472.92 L914.839 1451.02 Z" fill="#000000" fill-rule="nonzero" fill-opacity="1" /><path clip-path="url(#clip120)" d="M1339.84 1481.64 L1347.48 1481.64 L1347.48 1455.28 L1339.17 1456.95 L1339.17 1452.69 L1347.43 1451.02 L1352.11 1451.02 L1352.11 1481.64 L1359.75 1481.64 L1359.75 1485.58 L1339.84 1485.58 L1339.84 1481.64 Z" fill="#000000" fill-rule="nonzero" fill-opacity="1" /><path clip-path="url(#clip120)" d="M1379.77 1466.44 Q1376.62 1466.44 1374.77 1468.59 Q1372.94 1470.74 1372.94 1474.49 Q1372.94 1478.22 1374.77 1480.39 Q1376.62 1482.55 1379.77 1482.55 Q1382.92 1482.55 1384.75 1480.39 Q1386.6 1478.22 1386.6 1474.49 Q1386.6 1470.74 1384.75 1468.59 Q1382.92 1466.44 1379.77 1466.44 M1389.05 1451.78 L1389.05 1456.04 Q1387.29 1455.21 1385.49 1454.77 Q1383.71 1454.33 1381.95 1454.33 Q1377.32 1454.33 1374.86 1457.45 Q1372.43 1460.58 1372.09 1466.9 Q1373.45 1464.89 1375.51 1463.82 Q1377.57 1462.73 1380.05 1462.73 Q1385.26 1462.73 1388.27 1465.9 Q1391.3 1469.05 1391.3 1474.49 Q1391.3 1479.82 1388.15 1483.03 Q1385 1486.25 1379.77 1486.25 Q1373.78 1486.25 1370.6 1481.67 Q1367.43 1477.06 1367.43 1468.33 Q1367.43 1460.14 1371.32 1455.28 Q1375.21 1450.39 1381.76 1450.39 Q1383.52 1450.39 1385.3 1450.74 Q1387.11 1451.09 1389.05 1451.78 Z" fill="#000000" fill-rule="nonzero" fill-opacity="1" /><path clip-path="url(#clip120)" d="M1805.78 1481.64 L1813.42 1481.64 L1813.42 1455.28 L1805.11 1456.95 L1805.11 1452.69 L1813.37 1451.02 L1818.05 1451.02 L1818.05 1481.64 L1825.69 1481.64 L1825.69 1485.58 L1805.78 1485.58 L1805.78 1481.64 Z" fill="#000000" fill-rule="nonzero" fill-opacity="1" /><path clip-path="url(#clip120)" d="M1845.13 1469.17 Q1841.8 1469.17 1839.88 1470.95 Q1837.98 1472.73 1837.98 1475.86 Q1837.98 1478.98 1839.88 1480.77 Q1841.8 1482.55 1845.13 1482.55 Q1848.47 1482.55 1850.39 1480.77 Q1852.31 1478.96 1852.31 1475.86 Q1852.31 1472.73 1850.39 1470.95 Q1848.49 1469.17 1845.13 1469.17 M1840.46 1467.18 Q1837.45 1466.44 1835.76 1464.38 Q1834.09 1462.32 1834.09 1459.35 Q1834.09 1455.21 1837.03 1452.8 Q1839.99 1450.39 1845.13 1450.39 Q1850.29 1450.39 1853.23 1452.8 Q1856.17 1455.21 1856.17 1459.35 Q1856.17 1462.32 1854.48 1464.38 Q1852.82 1466.44 1849.83 1467.18 Q1853.21 1467.96 1855.09 1470.26 Q1856.98 1472.55 1856.98 1475.86 Q1856.98 1480.88 1853.91 1483.57 Q1850.85 1486.25 1845.13 1486.25 Q1839.41 1486.25 1836.34 1483.57 Q1833.28 1480.88 1833.28 1475.86 Q1833.28 1472.55 1835.18 1470.26 Q1837.08 1467.96 1840.46 1467.18 M1838.74 1459.79 Q1838.74 1462.48 1840.41 1463.98 Q1842.1 1465.49 1845.13 1465.49 Q1848.14 1465.49 1849.83 1463.98 Q1851.54 1462.48 1851.54 1459.79 Q1851.54 1457.11 1849.83 1455.6 Q1848.14 1454.1 1845.13 1454.1 Q1842.1 1454.1 1840.41 1455.6 Q1838.74 1457.11 1838.74 1459.79 Z" fill="#000000" fill-rule="nonzero" fill-opacity="1" /><path clip-path="url(#clip120)" d="M2275.63 1481.64 L2291.95 1481.64 L2291.95 1485.58 L2270.01 1485.58 L2270.01 1481.64 Q2272.67 1478.89 2277.25 1474.26 Q2281.86 1469.61 2283.04 1468.27 Q2285.28 1465.74 2286.16 1464.01 Q2287.07 1462.25 2287.07 1460.56 Q2287.07 1457.8 2285.12 1456.07 Q2283.2 1454.33 2280.1 1454.33 Q2277.9 1454.33 2275.45 1455.09 Q2273.02 1455.86 2270.24 1457.41 L2270.24 1452.69 Q2273.06 1451.55 2275.52 1450.97 Q2277.97 1450.39 2280.01 1450.39 Q2285.38 1450.39 2288.57 1453.08 Q2291.77 1455.77 2291.77 1460.26 Q2291.77 1462.39 2290.96 1464.31 Q2290.17 1466.2 2288.06 1468.8 Q2287.48 1469.47 2284.38 1472.69 Q2281.28 1475.88 2275.63 1481.64 Z" fill="#000000" fill-rule="nonzero" fill-opacity="1" /><path clip-path="url(#clip120)" d="M2311.77 1454.1 Q2308.15 1454.1 2306.33 1457.66 Q2304.52 1461.2 2304.52 1468.33 Q2304.52 1475.44 2306.33 1479.01 Q2308.15 1482.55 2311.77 1482.55 Q2315.4 1482.55 2317.21 1479.01 Q2319.03 1475.44 2319.03 1468.33 Q2319.03 1461.2 2317.21 1457.66 Q2315.4 1454.1 2311.77 1454.1 M2311.77 1450.39 Q2317.58 1450.39 2320.63 1455 Q2323.71 1459.58 2323.71 1468.33 Q2323.71 1477.06 2320.63 1481.67 Q2317.58 1486.25 2311.77 1486.25 Q2305.96 1486.25 2302.88 1481.67 Q2299.82 1477.06 2299.82 1468.33 Q2299.82 1459.58 2302.88 1455 Q2305.96 1450.39 2311.77 1450.39 Z" fill="#000000" fill-rule="nonzero" fill-opacity="1" /><path clip-path="url(#clip120)" d="M1376.62 1527.5 Q1376.62 1528.18 1376.04 1528.72 Q1375.49 1529.27 1374.82 1529.27 Q1374.43 1529.27 1373.5 1528.63 Q1370.82 1526.76 1367.44 1526.76 Q1364.41 1526.76 1361.61 1527.5 Q1358.81 1528.24 1356.91 1529.75 Q1355.04 1531.23 1355.04 1533.17 Q1355.04 1535.58 1357.68 1537 Q1360.42 1535.74 1363.8 1535.74 Q1364.9 1535.74 1365.64 1535.81 Q1366.41 1535.87 1367.15 1536.03 Q1367.89 1536.19 1368.25 1536.58 Q1368.63 1536.94 1368.63 1537.51 Q1368.63 1539.58 1363.29 1539.58 Q1359.81 1539.58 1357.62 1538.64 Q1354.82 1540.03 1353.27 1542.25 Q1351.73 1544.47 1351.73 1546.37 Q1351.73 1548.01 1352.63 1549.21 Q1353.56 1550.4 1355.08 1550.98 Q1356.62 1551.56 1358.13 1551.81 Q1359.68 1552.04 1361.39 1552.04 Q1364.19 1552.04 1366.15 1551.69 Q1368.15 1551.3 1369.25 1550.59 Q1370.37 1549.88 1370.82 1549.4 Q1371.31 1548.88 1371.79 1548.08 Q1372.08 1547.63 1372.47 1547.63 Q1372.76 1547.63 1372.95 1547.82 Q1373.17 1547.98 1373.17 1548.27 Q1373.17 1548.63 1372.72 1549.37 Q1372.31 1550.11 1371.27 1551.11 Q1370.28 1552.07 1368.89 1552.97 Q1367.54 1553.84 1365.38 1554.46 Q1363.22 1555.07 1360.78 1555.07 Q1355.78 1555.07 1352.89 1552.62 Q1350.02 1550.17 1350.02 1546.76 Q1350.02 1544.37 1351.6 1541.93 Q1353.21 1539.45 1356.04 1537.87 Q1353.4 1535.9 1353.4 1533.17 Q1353.4 1530.72 1355.46 1528.53 Q1357.55 1526.34 1360.94 1525.05 Q1364.35 1523.73 1368.09 1523.73 Q1370.18 1523.73 1372.24 1524.44 Q1374.3 1525.12 1375.46 1525.99 Q1376.62 1526.85 1376.62 1527.5 M1366.93 1537.58 Q1365.51 1537.19 1363.8 1537.19 Q1361.48 1537.19 1359.78 1537.77 Q1361.16 1538.13 1363.29 1538.13 Q1365.06 1538.13 1365.57 1538.03 Q1366.12 1537.93 1366.93 1537.58 Z" fill="#000000" fill-rule="nonzero" fill-opacity="1" /><polyline clip-path="url(#clip120)" style="stroke:#000000; stroke-linecap:round; stroke-linejoin:round; stroke-width:4; stroke-opacity:1; fill:none" points="377.713,1423.18 377.713,123.472 "/>
<polyline clip-path="url(#clip120)" style="stroke:#000000; stroke-linecap:round; stroke-linejoin:round; stroke-width:4; stroke-opacity:1; fill:none" points="377.713,1381.7 396.61,1381.7 "/>
<polyline clip-path="url(#clip120)" style="stroke:#000000; stroke-linecap:round; stroke-linejoin:round; stroke-width:4; stroke-opacity:1; fill:none" points="377.713,1104.26 396.61,1104.26 "/>
<polyline clip-path="url(#clip120)" style="stroke:#000000; stroke-linecap:round; stroke-linejoin:round; stroke-width:4; stroke-opacity:1; fill:none" points="377.713,826.813 396.61,826.813 "/>
<polyline clip-path="url(#clip120)" style="stroke:#000000; stroke-linecap:round; stroke-linejoin:round; stroke-width:4; stroke-opacity:1; fill:none" points="377.713,549.368 396.61,549.368 "/>
<polyline clip-path="url(#clip120)" style="stroke:#000000; stroke-linecap:round; stroke-linejoin:round; stroke-width:4; stroke-opacity:1; fill:none" points="377.713,271.923 396.61,271.923 "/>
<path clip-path="url(#clip120)" d="M114.26 1388.6 L143.936 1388.6 L143.936 1392.54 L114.26 1392.54 L114.26 1388.6 Z" fill="#000000" fill-rule="nonzero" fill-opacity="1" /><path clip-path="url(#clip120)" d="M154.839 1401.5 L162.477 1401.5 L162.477 1375.13 L154.167 1376.8 L154.167 1372.54 L162.431 1370.87 L167.107 1370.87 L167.107 1401.5 L174.746 1401.5 L174.746 1405.43 L154.839 1405.43 L154.839 1401.5 Z" fill="#000000" fill-rule="nonzero" fill-opacity="1" /><path clip-path="url(#clip120)" d="M184.19 1399.55 L189.075 1399.55 L189.075 1405.43 L184.19 1405.43 L184.19 1399.55 Z" fill="#000000" fill-rule="nonzero" fill-opacity="1" /><path clip-path="url(#clip120)" d="M209.26 1373.95 Q205.649 1373.95 203.82 1377.51 Q202.014 1381.06 202.014 1388.19 Q202.014 1395.29 203.82 1398.86 Q205.649 1402.4 209.26 1402.4 Q212.894 1402.4 214.699 1398.86 Q216.528 1395.29 216.528 1388.19 Q216.528 1381.06 214.699 1377.51 Q212.894 1373.95 209.26 1373.95 M209.26 1370.25 Q215.07 1370.25 218.125 1374.85 Q221.204 1379.44 221.204 1388.19 Q221.204 1396.91 218.125 1401.52 Q215.07 1406.1 209.26 1406.1 Q203.449 1406.1 200.371 1401.52 Q197.315 1396.91 197.315 1388.19 Q197.315 1379.44 200.371 1374.85 Q203.449 1370.25 209.26 1370.25 Z" fill="#000000" fill-rule="nonzero" fill-opacity="1" /><path clip-path="url(#clip120)" d="M257.593 1379.97 L247.014 1390.59 L257.593 1401.17 L254.838 1403.97 L244.213 1393.35 L233.588 1403.97 L230.857 1401.17 L241.412 1390.59 L230.857 1379.97 L233.588 1377.17 L244.213 1387.79 L254.838 1377.17 L257.593 1379.97 Z" fill="#000000" fill-rule="nonzero" fill-opacity="1" /><path clip-path="url(#clip120)" d="M269.954 1401.5 L277.593 1401.5 L277.593 1375.13 L269.282 1376.8 L269.282 1372.54 L277.546 1370.87 L282.222 1370.87 L282.222 1401.5 L289.861 1401.5 L289.861 1405.43 L269.954 1405.43 L269.954 1401.5 Z" fill="#000000" fill-rule="nonzero" fill-opacity="1" /><path clip-path="url(#clip120)" d="M309.305 1373.95 Q305.694 1373.95 303.866 1377.51 Q302.06 1381.06 302.06 1388.19 Q302.06 1395.29 303.866 1398.86 Q305.694 1402.4 309.305 1402.4 Q312.94 1402.4 314.745 1398.86 Q316.574 1395.29 316.574 1388.19 Q316.574 1381.06 314.745 1377.51 Q312.94 1373.95 309.305 1373.95 M309.305 1370.25 Q315.116 1370.25 318.171 1374.85 Q321.25 1379.44 321.25 1388.19 Q321.25 1396.91 318.171 1401.52 Q315.116 1406.1 309.305 1406.1 Q303.495 1406.1 300.417 1401.52 Q297.361 1396.91 297.361 1388.19 Q297.361 1379.44 300.417 1374.85 Q303.495 1370.25 309.305 1370.25 Z" fill="#000000" fill-rule="nonzero" fill-opacity="1" /><path clip-path="url(#clip120)" d="M333.926 1353.25 L324.334 1368.24 L333.926 1368.24 L333.926 1353.25 M332.929 1349.94 L337.707 1349.94 L337.707 1368.24 L341.713 1368.24 L341.713 1371.4 L337.707 1371.4 L337.707 1378.02 L333.926 1378.02 L333.926 1371.4 L321.25 1371.4 L321.25 1367.73 L332.929 1349.94 Z" fill="#000000" fill-rule="nonzero" fill-opacity="1" /><path clip-path="url(#clip120)" d="M116.235 1111.16 L145.911 1111.16 L145.911 1115.09 L116.235 1115.09 L116.235 1111.16 Z" fill="#000000" fill-rule="nonzero" fill-opacity="1" /><path clip-path="url(#clip120)" d="M156.05 1093.43 L174.406 1093.43 L174.406 1097.36 L160.332 1097.36 L160.332 1105.83 Q161.35 1105.49 162.369 1105.32 Q163.387 1105.14 164.406 1105.14 Q170.193 1105.14 173.573 1108.31 Q176.952 1111.48 176.952 1116.9 Q176.952 1122.48 173.48 1125.58 Q170.008 1128.66 163.688 1128.66 Q161.513 1128.66 159.244 1128.29 Q156.999 1127.92 154.591 1127.18 L154.591 1122.48 Q156.675 1123.61 158.897 1124.17 Q161.119 1124.72 163.596 1124.72 Q167.6 1124.72 169.938 1122.62 Q172.276 1120.51 172.276 1116.9 Q172.276 1113.29 169.938 1111.18 Q167.6 1109.07 163.596 1109.07 Q161.721 1109.07 159.846 1109.49 Q157.994 1109.91 156.05 1110.79 L156.05 1093.43 Z" fill="#000000" fill-rule="nonzero" fill-opacity="1" /><path clip-path="url(#clip120)" d="M186.165 1122.11 L191.049 1122.11 L191.049 1127.99 L186.165 1127.99 L186.165 1122.11 Z" fill="#000000" fill-rule="nonzero" fill-opacity="1" /><path clip-path="url(#clip120)" d="M211.234 1096.5 Q207.623 1096.5 205.795 1100.07 Q203.989 1103.61 203.989 1110.74 Q203.989 1117.85 205.795 1121.41 Q207.623 1124.95 211.234 1124.95 Q214.869 1124.95 216.674 1121.41 Q218.503 1117.85 218.503 1110.74 Q218.503 1103.61 216.674 1100.07 Q214.869 1096.5 211.234 1096.5 M211.234 1092.8 Q217.045 1092.8 220.1 1097.41 Q223.179 1101.99 223.179 1110.74 Q223.179 1119.47 220.1 1124.07 Q217.045 1128.66 211.234 1128.66 Q205.424 1128.66 202.346 1124.07 Q199.29 1119.47 199.29 1110.74 Q199.29 1101.99 202.346 1097.41 Q205.424 1092.8 211.234 1092.8 Z" fill="#000000" fill-rule="nonzero" fill-opacity="1" /><path clip-path="url(#clip120)" d="M259.568 1102.52 L248.989 1113.15 L259.568 1123.73 L256.813 1126.53 L246.188 1115.9 L235.563 1126.53 L232.832 1123.73 L243.387 1113.15 L232.832 1102.52 L235.563 1099.72 L246.188 1110.35 L256.813 1099.72 L259.568 1102.52 Z" fill="#000000" fill-rule="nonzero" fill-opacity="1" /><path clip-path="url(#clip120)" d="M271.929 1124.05 L279.567 1124.05 L279.567 1097.69 L271.257 1099.35 L271.257 1095.09 L279.521 1093.43 L284.197 1093.43 L284.197 1124.05 L291.836 1124.05 L291.836 1127.99 L271.929 1127.99 L271.929 1124.05 Z" fill="#000000" fill-rule="nonzero" fill-opacity="1" /><path clip-path="url(#clip120)" d="M311.28 1096.5 Q307.669 1096.5 305.84 1100.07 Q304.035 1103.61 304.035 1110.74 Q304.035 1117.85 305.84 1121.41 Q307.669 1124.95 311.28 1124.95 Q314.914 1124.95 316.72 1121.41 Q318.549 1117.85 318.549 1110.74 Q318.549 1103.61 316.72 1100.07 Q314.914 1096.5 311.28 1096.5 M311.28 1092.8 Q317.09 1092.8 320.146 1097.41 Q323.225 1101.99 323.225 1110.74 Q323.225 1119.47 320.146 1124.07 Q317.09 1128.66 311.28 1128.66 Q305.47 1128.66 302.391 1124.07 Q299.336 1119.47 299.336 1110.74 Q299.336 1101.99 302.391 1097.41 Q305.47 1092.8 311.28 1092.8 Z" fill="#000000" fill-rule="nonzero" fill-opacity="1" /><path clip-path="url(#clip120)" d="M335.92 1085.44 Q338.647 1086.02 340.17 1087.86 Q341.713 1089.7 341.713 1092.41 Q341.713 1096.57 338.854 1098.85 Q335.995 1101.12 330.729 1101.12 Q328.961 1101.12 327.08 1100.76 Q325.218 1100.43 323.225 1099.73 L323.225 1096.06 Q324.804 1096.98 326.685 1097.45 Q328.566 1097.92 330.616 1097.92 Q334.19 1097.92 336.052 1096.51 Q337.932 1095.1 337.932 1092.41 Q337.932 1089.93 336.183 1088.54 Q334.453 1087.13 331.35 1087.13 L328.077 1087.13 L328.077 1084.01 L331.5 1084.01 Q334.302 1084.01 335.788 1082.9 Q337.274 1081.77 337.274 1079.66 Q337.274 1077.5 335.732 1076.35 Q334.208 1075.19 331.35 1075.19 Q329.789 1075.19 328.002 1075.52 Q326.215 1075.86 324.071 1076.58 L324.071 1073.19 Q326.234 1072.59 328.115 1072.29 Q330.014 1071.99 331.688 1071.99 Q336.014 1071.99 338.534 1073.96 Q341.054 1075.92 341.054 1079.27 Q341.054 1081.6 339.719 1083.22 Q338.384 1084.81 335.92 1085.44 Z" fill="#000000" fill-rule="nonzero" fill-opacity="1" /><path clip-path="url(#clip120)" d="M329.768 812.612 Q326.157 812.612 324.328 816.177 Q322.523 819.719 322.523 826.848 Q322.523 833.955 324.328 837.519 Q326.157 841.061 329.768 841.061 Q333.403 841.061 335.208 837.519 Q337.037 833.955 337.037 826.848 Q337.037 819.719 335.208 816.177 Q333.403 812.612 329.768 812.612 M329.768 808.908 Q335.578 808.908 338.634 813.515 Q341.713 818.098 341.713 826.848 Q341.713 835.575 338.634 840.181 Q335.578 844.765 329.768 844.765 Q323.958 844.765 320.879 840.181 Q317.824 835.575 317.824 826.848 Q317.824 818.098 320.879 813.515 Q323.958 808.908 329.768 808.908 Z" fill="#000000" fill-rule="nonzero" fill-opacity="1" /><path clip-path="url(#clip120)" d="M156.05 538.536 L174.406 538.536 L174.406 542.471 L160.332 542.471 L160.332 550.943 Q161.35 550.596 162.369 550.434 Q163.387 550.249 164.406 550.249 Q170.193 550.249 173.573 553.42 Q176.952 556.591 176.952 562.008 Q176.952 567.587 173.48 570.688 Q170.008 573.767 163.688 573.767 Q161.513 573.767 159.244 573.397 Q156.999 573.026 154.591 572.286 L154.591 567.587 Q156.675 568.721 158.897 569.276 Q161.119 569.832 163.596 569.832 Q167.6 569.832 169.938 567.726 Q172.276 565.619 172.276 562.008 Q172.276 558.397 169.938 556.29 Q167.6 554.184 163.596 554.184 Q161.721 554.184 159.846 554.601 Q157.994 555.017 156.05 555.897 L156.05 538.536 Z" fill="#000000" fill-rule="nonzero" fill-opacity="1" /><path clip-path="url(#clip120)" d="M186.165 567.216 L191.049 567.216 L191.049 573.096 L186.165 573.096 L186.165 567.216 Z" fill="#000000" fill-rule="nonzero" fill-opacity="1" /><path clip-path="url(#clip120)" d="M211.234 541.615 Q207.623 541.615 205.795 545.179 Q203.989 548.721 203.989 555.851 Q203.989 562.957 205.795 566.522 Q207.623 570.063 211.234 570.063 Q214.869 570.063 216.674 566.522 Q218.503 562.957 218.503 555.851 Q218.503 548.721 216.674 545.179 Q214.869 541.615 211.234 541.615 M211.234 537.911 Q217.045 537.911 220.1 542.517 Q223.179 547.101 223.179 555.851 Q223.179 564.577 220.1 569.184 Q217.045 573.767 211.234 573.767 Q205.424 573.767 202.346 569.184 Q199.29 564.577 199.29 555.851 Q199.29 547.101 202.346 542.517 Q205.424 537.911 211.234 537.911 Z" fill="#000000" fill-rule="nonzero" fill-opacity="1" /><path clip-path="url(#clip120)" d="M259.568 547.633 L248.989 558.258 L259.568 568.837 L256.813 571.638 L246.188 561.013 L235.563 571.638 L232.832 568.837 L243.387 558.258 L232.832 547.633 L235.563 544.832 L246.188 555.457 L256.813 544.832 L259.568 547.633 Z" fill="#000000" fill-rule="nonzero" fill-opacity="1" /><path clip-path="url(#clip120)" d="M271.929 569.161 L279.567 569.161 L279.567 542.795 L271.257 544.462 L271.257 540.203 L279.521 538.536 L284.197 538.536 L284.197 569.161 L291.836 569.161 L291.836 573.096 L271.929 573.096 L271.929 569.161 Z" fill="#000000" fill-rule="nonzero" fill-opacity="1" /><path clip-path="url(#clip120)" d="M311.28 541.615 Q307.669 541.615 305.84 545.179 Q304.035 548.721 304.035 555.851 Q304.035 562.957 305.84 566.522 Q307.669 570.063 311.28 570.063 Q314.914 570.063 316.72 566.522 Q318.549 562.957 318.549 555.851 Q318.549 548.721 316.72 545.179 Q314.914 541.615 311.28 541.615 M311.28 537.911 Q317.09 537.911 320.146 542.517 Q323.225 547.101 323.225 555.851 Q323.225 564.577 320.146 569.184 Q317.09 573.767 311.28 573.767 Q305.47 573.767 302.391 569.184 Q299.336 564.577 299.336 555.851 Q299.336 547.101 302.391 542.517 Q305.47 537.911 311.28 537.911 Z" fill="#000000" fill-rule="nonzero" fill-opacity="1" /><path clip-path="url(#clip120)" d="M335.92 530.545 Q338.647 531.128 340.17 532.971 Q341.713 534.815 341.713 537.523 Q341.713 541.679 338.854 543.955 Q335.995 546.231 330.729 546.231 Q328.961 546.231 327.08 545.874 Q325.218 545.535 323.225 544.839 L323.225 541.172 Q324.804 542.093 326.685 542.563 Q328.566 543.034 330.616 543.034 Q334.19 543.034 336.052 541.623 Q337.932 540.212 337.932 537.523 Q337.932 535.04 336.183 533.649 Q334.453 532.238 331.35 532.238 L328.077 532.238 L328.077 529.116 L331.5 529.116 Q334.302 529.116 335.788 528.006 Q337.274 526.878 337.274 524.771 Q337.274 522.608 335.732 521.461 Q334.208 520.295 331.35 520.295 Q329.789 520.295 328.002 520.634 Q326.215 520.972 324.071 521.687 L324.071 518.301 Q326.234 517.7 328.115 517.399 Q330.014 517.098 331.688 517.098 Q336.014 517.098 338.534 519.072 Q341.054 521.028 341.054 524.376 Q341.054 526.708 339.719 528.326 Q338.384 529.925 335.92 530.545 Z" fill="#000000" fill-rule="nonzero" fill-opacity="1" /><path clip-path="url(#clip120)" d="M154.839 291.716 L162.477 291.716 L162.477 265.35 L154.167 267.017 L154.167 262.757 L162.431 261.091 L167.107 261.091 L167.107 291.716 L174.746 291.716 L174.746 295.651 L154.839 295.651 L154.839 291.716 Z" fill="#000000" fill-rule="nonzero" fill-opacity="1" /><path clip-path="url(#clip120)" d="M184.19 289.771 L189.075 289.771 L189.075 295.651 L184.19 295.651 L184.19 289.771 Z" fill="#000000" fill-rule="nonzero" fill-opacity="1" /><path clip-path="url(#clip120)" d="M209.26 264.169 Q205.649 264.169 203.82 267.734 Q202.014 271.276 202.014 278.405 Q202.014 285.512 203.82 289.077 Q205.649 292.618 209.26 292.618 Q212.894 292.618 214.699 289.077 Q216.528 285.512 216.528 278.405 Q216.528 271.276 214.699 267.734 Q212.894 264.169 209.26 264.169 M209.26 260.466 Q215.07 260.466 218.125 265.072 Q221.204 269.655 221.204 278.405 Q221.204 287.132 218.125 291.739 Q215.07 296.322 209.26 296.322 Q203.449 296.322 200.371 291.739 Q197.315 287.132 197.315 278.405 Q197.315 269.655 200.371 265.072 Q203.449 260.466 209.26 260.466 Z" fill="#000000" fill-rule="nonzero" fill-opacity="1" /><path clip-path="url(#clip120)" d="M257.593 270.188 L247.014 280.813 L257.593 291.391 L254.838 294.192 L244.213 283.567 L233.588 294.192 L230.857 291.391 L241.412 280.813 L230.857 270.188 L233.588 267.387 L244.213 278.012 L254.838 267.387 L257.593 270.188 Z" fill="#000000" fill-rule="nonzero" fill-opacity="1" /><path clip-path="url(#clip120)" d="M269.954 291.716 L277.593 291.716 L277.593 265.35 L269.282 267.017 L269.282 262.757 L277.546 261.091 L282.222 261.091 L282.222 291.716 L289.861 291.716 L289.861 295.651 L269.954 295.651 L269.954 291.716 Z" fill="#000000" fill-rule="nonzero" fill-opacity="1" /><path clip-path="url(#clip120)" d="M309.305 264.169 Q305.694 264.169 303.866 267.734 Q302.06 271.276 302.06 278.405 Q302.06 285.512 303.866 289.077 Q305.694 292.618 309.305 292.618 Q312.94 292.618 314.745 289.077 Q316.574 285.512 316.574 278.405 Q316.574 271.276 314.745 267.734 Q312.94 264.169 309.305 264.169 M309.305 260.466 Q315.116 260.466 318.171 265.072 Q321.25 269.655 321.25 278.405 Q321.25 287.132 318.171 291.739 Q315.116 296.322 309.305 296.322 Q303.495 296.322 300.417 291.739 Q297.361 287.132 297.361 278.405 Q297.361 269.655 300.417 265.072 Q303.495 260.466 309.305 260.466 Z" fill="#000000" fill-rule="nonzero" fill-opacity="1" /><path clip-path="url(#clip120)" d="M333.926 243.47 L324.334 258.46 L333.926 258.46 L333.926 243.47 M332.929 240.16 L337.707 240.16 L337.707 258.46 L341.713 258.46 L341.713 261.62 L337.707 261.62 L337.707 268.24 L333.926 268.24 L333.926 261.62 L321.25 261.62 L321.25 257.952 L332.929 240.16 Z" fill="#000000" fill-rule="nonzero" fill-opacity="1" /><path clip-path="url(#clip120)" d="M24.1199 800.68 Q25.8912 800.68 26.9862 801.807 Q28.0812 802.902 28.0812 804.287 Q28.0812 805.285 27.4693 806.026 Q26.8574 806.735 25.7946 806.735 Q24.6996 806.735 23.5402 805.897 Q22.3807 805.06 22.2197 803.16 Q21.0281 804.416 21.0281 806.413 Q21.0281 807.411 21.6722 808.248 Q22.2841 809.053 23.2825 809.504 Q24.3131 809.987 30.1424 811.082 Q32.0425 811.437 33.8782 811.759 Q35.714 812.081 37.6463 812.467 L37.6463 806.992 Q37.6463 806.284 37.6785 805.994 Q37.7107 805.704 37.8718 805.479 Q38.0328 805.221 38.3871 805.221 Q39.2888 805.221 39.5143 805.64 Q39.7075 806.026 39.7075 807.185 L39.7075 812.854 L60.6091 816.815 Q61.221 816.912 63.1534 817.33 Q65.0535 817.717 68.1775 818.651 Q71.3337 819.585 73.2016 820.519 Q74.2644 821.034 75.2628 821.71 Q76.2934 822.354 77.3239 823.288 Q78.3545 824.222 78.9664 825.446 Q79.6106 826.67 79.6106 827.958 Q79.6106 830.148 78.3867 831.855 Q77.1629 833.562 75.0695 833.562 Q73.2982 833.562 72.2032 832.467 Q71.1082 831.34 71.1082 829.955 Q71.1082 828.957 71.7201 828.248 Q72.332 827.507 73.3948 827.507 Q73.8457 827.507 74.361 827.668 Q74.8763 827.829 75.456 828.184 Q76.0679 828.538 76.4866 829.311 Q76.9053 830.084 76.9697 831.147 Q78.1613 829.891 78.1613 827.958 Q78.1613 827.346 77.9036 826.799 Q77.6782 826.251 77.0985 825.8 Q76.5188 825.317 75.9391 824.963 Q75.3916 824.609 74.3288 824.255 Q73.2982 823.9 72.5253 823.675 Q71.7523 823.449 70.3675 823.16 Q68.9826 822.838 68.1453 822.676 Q67.3401 822.515 65.762 822.226 L39.7075 817.298 L39.7075 821.646 Q39.7075 822.419 39.6753 822.741 Q39.6431 823.031 39.4821 823.256 Q39.2888 823.482 38.9023 823.482 Q38.2904 823.482 38.0328 823.224 Q37.7429 822.934 37.7107 822.612 Q37.6463 822.29 37.6463 821.517 L37.6463 816.944 Q29.4982 815.398 27.3082 814.786 Q24.9894 814.078 23.3791 812.983 Q21.7366 811.888 20.9637 810.664 Q20.1907 809.44 19.9009 808.441 Q19.5788 807.411 19.5788 806.413 Q19.5788 804.158 20.8027 802.419 Q21.9943 800.68 24.1199 800.68 Z" fill="#000000" fill-rule="nonzero" fill-opacity="1" /><path clip-path="url(#clip120)" d="M49.5947 791.8 Q38.4515 791.8 29.466 787.645 Q25.6979 785.874 22.5418 783.394 Q19.3856 780.914 18.0007 779.272 Q16.6159 777.629 16.6159 777.178 Q16.6159 776.534 17.26 776.502 Q17.5821 776.502 18.3872 777.372 Q29.2084 788 49.5947 787.967 Q70.0454 787.967 80.4479 777.629 Q81.5751 776.502 81.9294 776.502 Q82.5735 776.502 82.5735 777.178 Q82.5735 777.629 81.2531 779.207 Q79.9326 780.785 76.9053 783.233 Q73.8779 785.681 70.1742 787.452 Q61.1888 791.8 49.5947 791.8 Z" fill="#000000" fill-rule="nonzero" fill-opacity="1" /><path clip-path="url(#clip120)" d="M39.9651 744.886 Q40.6415 744.886 41.189 745.466 Q41.7365 746.014 41.7365 746.69 Q41.7365 747.076 41.0923 748.01 Q39.2244 750.683 39.2244 754.065 Q39.2244 757.092 39.9651 759.894 Q40.7059 762.696 42.2196 764.596 Q43.701 766.464 45.6334 766.464 Q48.0488 766.464 49.4659 763.823 Q48.2098 761.086 48.2098 757.704 Q48.2098 756.609 48.2743 755.869 Q48.3387 755.096 48.4997 754.355 Q48.6607 753.614 49.0472 753.26 Q49.4015 752.873 49.9812 752.873 Q52.0423 752.873 52.0423 758.22 Q52.0423 761.698 51.1084 763.888 Q52.4932 766.69 54.7154 768.236 Q56.9376 769.782 58.8378 769.782 Q60.4803 769.782 61.6719 768.88 Q62.8635 767.946 63.4432 766.432 Q64.0229 764.886 64.2806 763.373 Q64.506 761.827 64.506 760.12 Q64.506 757.318 64.1517 755.353 Q63.7653 753.357 63.0567 752.262 Q62.3482 751.134 61.8651 750.683 Q61.3498 750.2 60.5447 749.717 Q60.0938 749.427 60.0938 749.041 Q60.0938 748.751 60.287 748.558 Q60.4481 748.332 60.7379 748.332 Q61.0922 748.332 61.8329 748.783 Q62.5737 749.202 63.572 750.233 Q64.5382 751.231 65.44 752.616 Q66.3095 753.968 66.9214 756.126 Q67.5334 758.284 67.5334 760.732 Q67.5334 765.724 65.0857 768.622 Q62.6381 771.488 59.2242 771.488 Q56.841 771.488 54.3934 769.91 Q51.9135 768.3 50.3354 765.466 Q48.3709 768.107 45.6334 768.107 Q43.1857 768.107 40.9957 766.046 Q38.8057 763.952 37.5175 760.571 Q36.1971 757.157 36.1971 753.421 Q36.1971 751.328 36.9056 749.266 Q37.5819 747.205 38.4515 746.046 Q39.321 744.886 39.9651 744.886 M50.0456 754.58 Q49.6591 755.997 49.6591 757.704 Q49.6591 760.023 50.2388 761.73 Q50.5931 760.345 50.5931 758.22 Q50.5931 756.448 50.4965 755.933 Q50.3998 755.386 50.0456 754.58 Z" fill="#000000" fill-rule="nonzero" fill-opacity="1" /><path clip-path="url(#clip120)" d="M81.9294 738.417 Q81.6073 738.417 80.8022 737.58 Q69.981 726.952 49.5947 726.952 Q29.144 726.952 18.8059 737.161 Q17.6143 738.417 17.26 738.417 Q16.6159 738.417 16.6159 737.773 Q16.6159 737.322 17.9363 735.744 Q19.2568 734.134 22.2841 731.718 Q25.3115 729.271 29.0151 727.467 Q38.0006 723.12 49.5947 723.12 Q60.7379 723.12 69.7234 727.274 Q73.4914 729.045 76.6476 731.525 Q79.8038 734.005 81.1886 735.648 Q82.5735 737.29 82.5735 737.773 Q82.5735 738.417 81.9294 738.417 Z" fill="#000000" fill-rule="nonzero" fill-opacity="1" /><path clip-path="url(#clip120)" d="M946.634 12.096 L981.391 12.096 L981.391 18.9825 L954.817 18.9825 L954.817 36.8065 L978.798 36.8065 L978.798 43.6931 L954.817 43.6931 L954.817 72.576 L946.634 72.576 L946.634 12.096 Z" fill="#000000" fill-rule="nonzero" fill-opacity="1" /><path clip-path="url(#clip120)" d="M988.723 54.671 L988.723 27.2059 L996.177 27.2059 L996.177 54.3874 Q996.177 60.8284 998.688 64.0691 Q1001.2 67.2693 1006.22 67.2693 Q1012.26 67.2693 1015.74 63.421 Q1019.27 59.5726 1019.27 52.9291 L1019.27 27.2059 L1026.72 27.2059 L1026.72 72.576 L1019.27 72.576 L1019.27 65.6084 Q1016.55 69.7404 1012.95 71.7658 Q1009.38 73.7508 1004.64 73.7508 Q996.825 73.7508 992.774 68.8897 Q988.723 64.0286 988.723 54.671 M1007.48 26.1121 L1007.48 26.1121 Z" fill="#000000" fill-rule="nonzero" fill-opacity="1" /><path clip-path="url(#clip120)" d="M1079.79 45.1919 L1079.79 72.576 L1072.33 72.576 L1072.33 45.4349 Q1072.33 38.994 1069.82 35.7938 Q1067.31 32.5936 1062.29 32.5936 Q1056.25 32.5936 1052.77 36.4419 Q1049.28 40.2903 1049.28 46.9338 L1049.28 72.576 L1041.79 72.576 L1041.79 27.2059 L1049.28 27.2059 L1049.28 34.2544 Q1051.96 30.163 1055.56 28.1376 Q1059.21 26.1121 1063.95 26.1121 Q1071.77 26.1121 1075.78 30.9732 Q1079.79 35.7938 1079.79 45.1919 Z" fill="#000000" fill-rule="nonzero" fill-opacity="1" /><path clip-path="url(#clip120)" d="M1124.51 49.3643 Q1124.51 41.2625 1121.15 36.8065 Q1117.83 32.3505 1111.79 32.3505 Q1105.79 32.3505 1102.43 36.8065 Q1099.11 41.2625 1099.11 49.3643 Q1099.11 57.4256 1102.43 61.8816 Q1105.79 66.3376 1111.79 66.3376 Q1117.83 66.3376 1121.15 61.8816 Q1124.51 57.4256 1124.51 49.3643 M1131.96 66.9452 Q1131.96 78.5308 1126.82 84.1616 Q1121.67 89.8329 1111.06 89.8329 Q1107.13 89.8329 1103.65 89.2252 Q1100.16 88.6581 1096.88 87.4428 L1096.88 80.1917 Q1100.16 81.9741 1103.36 82.8248 Q1106.56 83.6755 1109.89 83.6755 Q1117.22 83.6755 1120.86 79.8271 Q1124.51 76.0193 1124.51 68.282 L1124.51 64.5957 Q1122.2 68.6061 1118.59 70.5911 Q1114.99 72.576 1109.97 72.576 Q1101.62 72.576 1096.52 66.2161 Q1091.41 59.8562 1091.41 49.3643 Q1091.41 38.832 1096.52 32.472 Q1101.62 26.1121 1109.97 26.1121 Q1114.99 26.1121 1118.59 28.0971 Q1122.2 30.082 1124.51 34.0924 L1124.51 27.2059 L1131.96 27.2059 L1131.96 66.9452 Z" fill="#000000" fill-rule="nonzero" fill-opacity="1" /><path clip-path="url(#clip120)" d="M1176.24 28.5427 L1176.24 35.5912 Q1173.08 33.9709 1169.68 33.1607 Q1166.27 32.3505 1162.63 32.3505 Q1157.08 32.3505 1154.28 34.0519 Q1151.53 35.7533 1151.53 39.156 Q1151.53 41.7486 1153.51 43.2475 Q1155.5 44.7058 1161.49 46.0426 L1164.05 46.6097 Q1171.99 48.3111 1175.31 51.4303 Q1178.67 54.509 1178.67 60.0587 Q1178.67 66.3781 1173.65 70.0644 Q1168.66 73.7508 1159.91 73.7508 Q1156.27 73.7508 1152.3 73.0216 Q1148.37 72.3329 1143.99 70.9151 L1143.99 63.2184 Q1148.13 65.3654 1152.14 66.4591 Q1156.15 67.5124 1160.08 67.5124 Q1165.34 67.5124 1168.18 65.73 Q1171.01 63.9071 1171.01 60.6258 Q1171.01 57.5877 1168.95 55.9673 Q1166.92 54.3469 1160 52.8481 L1157.4 52.2405 Q1150.48 50.7821 1147.4 47.7845 Q1144.32 44.7463 1144.32 39.4801 Q1144.32 33.0797 1148.86 29.5959 Q1153.39 26.1121 1161.74 26.1121 Q1165.87 26.1121 1169.51 26.7198 Q1173.16 27.3274 1176.24 28.5427 Z" fill="#000000" fill-rule="nonzero" fill-opacity="1" /><path clip-path="url(#clip120)" d="M1190.54 27.2059 L1197.99 27.2059 L1197.99 72.576 L1190.54 72.576 L1190.54 27.2059 M1190.54 9.54393 L1197.99 9.54393 L1197.99 18.9825 L1190.54 18.9825 L1190.54 9.54393 Z" fill="#000000" fill-rule="nonzero" fill-opacity="1" /><path clip-path="url(#clip120)" d="M1239.19 54.671 L1239.19 27.2059 L1246.64 27.2059 L1246.64 54.3874 Q1246.64 60.8284 1249.16 64.0691 Q1251.67 67.2693 1256.69 67.2693 Q1262.73 67.2693 1266.21 63.421 Q1269.73 59.5726 1269.73 52.9291 L1269.73 27.2059 L1277.19 27.2059 L1277.19 72.576 L1269.73 72.576 L1269.73 65.6084 Q1267.02 69.7404 1263.41 71.7658 Q1259.85 73.7508 1255.11 73.7508 Q1247.29 73.7508 1243.24 68.8897 Q1239.19 64.0286 1239.19 54.671 M1257.95 26.1121 L1257.95 26.1121 Z" fill="#000000" fill-rule="nonzero" fill-opacity="1" /><path clip-path="url(#clip120)" d="M1330.25 45.1919 L1330.25 72.576 L1322.8 72.576 L1322.8 45.4349 Q1322.8 38.994 1320.29 35.7938 Q1317.78 32.5936 1312.75 32.5936 Q1306.72 32.5936 1303.24 36.4419 Q1299.75 40.2903 1299.75 46.9338 L1299.75 72.576 L1292.26 72.576 L1292.26 27.2059 L1299.75 27.2059 L1299.75 34.2544 Q1302.43 30.163 1306.03 28.1376 Q1309.68 26.1121 1314.42 26.1121 Q1322.23 26.1121 1326.24 30.9732 Q1330.25 35.7938 1330.25 45.1919 Z" fill="#000000" fill-rule="nonzero" fill-opacity="1" /><path clip-path="url(#clip120)" d="M1352.49 14.324 L1352.49 27.2059 L1367.85 27.2059 L1367.85 32.9987 L1352.49 32.9987 L1352.49 57.6282 Q1352.49 63.1779 1353.99 64.7578 Q1355.53 66.3376 1360.19 66.3376 L1367.85 66.3376 L1367.85 72.576 L1360.19 72.576 Q1351.56 72.576 1348.28 69.3758 Q1345 66.1351 1345 57.6282 L1345 32.9987 L1339.53 32.9987 L1339.53 27.2059 L1345 27.2059 L1345 14.324 L1352.49 14.324 Z" fill="#000000" fill-rule="nonzero" fill-opacity="1" /><path clip-path="url(#clip120)" d="M1376.88 54.671 L1376.88 27.2059 L1384.33 27.2059 L1384.33 54.3874 Q1384.33 60.8284 1386.85 64.0691 Q1389.36 67.2693 1394.38 67.2693 Q1400.42 67.2693 1403.9 63.421 Q1407.42 59.5726 1407.42 52.9291 L1407.42 27.2059 L1414.88 27.2059 L1414.88 72.576 L1407.42 72.576 L1407.42 65.6084 Q1404.71 69.7404 1401.11 71.7658 Q1397.54 73.7508 1392.8 73.7508 Q1384.98 73.7508 1380.93 68.8897 Q1376.88 64.0286 1376.88 54.671 M1395.64 26.1121 L1395.64 26.1121 Z" fill="#000000" fill-rule="nonzero" fill-opacity="1" /><path clip-path="url(#clip120)" d="M1429.95 9.54393 L1437.44 9.54393 L1437.44 46.7717 L1459.68 27.2059 L1469.2 27.2059 L1445.14 48.4326 L1470.21 72.576 L1460.49 72.576 L1437.44 50.4176 L1437.44 72.576 L1429.95 72.576 L1429.95 9.54393 Z" fill="#000000" fill-rule="nonzero" fill-opacity="1" /><path clip-path="url(#clip120)" d="M1496.58 12.096 L1547.75 12.096 L1547.75 18.9825 L1526.28 18.9825 L1526.28 72.576 L1518.05 72.576 L1518.05 18.9825 L1496.58 18.9825 L1496.58 12.096 Z" fill="#000000" fill-rule="nonzero" fill-opacity="1" /><path clip-path="url(#clip120)" d="M1580.03 48.0275 L1580.03 51.6733 L1545.76 51.6733 Q1546.25 59.3701 1550.38 63.421 Q1554.55 67.4314 1561.97 67.4314 Q1566.26 67.4314 1570.27 66.3781 Q1574.32 65.3249 1578.29 63.2184 L1578.29 70.267 Q1574.28 71.9684 1570.07 72.8596 Q1565.86 73.7508 1561.52 73.7508 Q1550.66 73.7508 1544.3 67.4314 Q1537.99 61.1119 1537.99 50.3365 Q1537.99 39.1965 1543.98 32.6746 Q1550.02 26.1121 1560.22 26.1121 Q1569.38 26.1121 1574.69 32.0264 Q1580.03 37.9003 1580.03 48.0275 M1572.58 45.84 Q1572.5 39.7232 1569.14 36.0774 Q1565.81 32.4315 1560.31 32.4315 Q1554.07 32.4315 1550.3 35.9558 Q1546.57 39.4801 1546.01 45.8805 L1572.58 45.84 Z" fill="#000000" fill-rule="nonzero" fill-opacity="1" /><path clip-path="url(#clip120)" d="M1629.98 45.1919 L1629.98 72.576 L1622.53 72.576 L1622.53 45.4349 Q1622.53 38.994 1620.02 35.7938 Q1617.5 32.5936 1612.48 32.5936 Q1606.45 32.5936 1602.96 36.4419 Q1599.48 40.2903 1599.48 46.9338 L1599.48 72.576 L1591.98 72.576 L1591.98 27.2059 L1599.48 27.2059 L1599.48 34.2544 Q1602.15 30.163 1605.76 28.1376 Q1609.4 26.1121 1614.14 26.1121 Q1621.96 26.1121 1625.97 30.9732 Q1629.98 35.7938 1629.98 45.1919 Z" fill="#000000" fill-rule="nonzero" fill-opacity="1" /><path clip-path="url(#clip120)" d="M1665.47 49.7694 Q1656.43 49.7694 1652.95 51.8354 Q1649.47 53.9013 1649.47 58.8839 Q1649.47 62.8538 1652.06 65.2034 Q1654.69 67.5124 1659.19 67.5124 Q1665.39 67.5124 1669.11 63.1374 Q1672.88 58.7219 1672.88 51.4303 L1672.88 49.7694 L1665.47 49.7694 M1680.33 46.6907 L1680.33 72.576 L1672.88 72.576 L1672.88 65.6895 Q1670.33 69.8214 1666.52 71.8063 Q1662.71 73.7508 1657.2 73.7508 Q1650.24 73.7508 1646.1 69.8619 Q1642.01 65.9325 1642.01 59.3701 Q1642.01 51.7138 1647.12 47.825 Q1652.26 43.9361 1662.43 43.9361 L1672.88 43.9361 L1672.88 43.2069 Q1672.88 38.0623 1669.48 35.2672 Q1666.12 32.4315 1660 32.4315 Q1656.11 32.4315 1652.42 33.3632 Q1648.74 34.295 1645.33 36.1584 L1645.33 29.2718 Q1649.43 27.692 1653.27 26.9223 Q1657.12 26.1121 1660.77 26.1121 Q1670.61 26.1121 1675.47 31.2163 Q1680.33 36.3204 1680.33 46.6907 Z" fill="#000000" fill-rule="nonzero" fill-opacity="1" /><path clip-path="url(#clip120)" d="M1725.54 49.3643 Q1725.54 41.2625 1722.18 36.8065 Q1718.86 32.3505 1712.82 32.3505 Q1706.83 32.3505 1703.46 36.8065 Q1700.14 41.2625 1700.14 49.3643 Q1700.14 57.4256 1703.46 61.8816 Q1706.83 66.3376 1712.82 66.3376 Q1718.86 66.3376 1722.18 61.8816 Q1725.54 57.4256 1725.54 49.3643 M1733 66.9452 Q1733 78.5308 1727.85 84.1616 Q1722.71 89.8329 1712.09 89.8329 Q1708.16 89.8329 1704.68 89.2252 Q1701.2 88.6581 1697.91 87.4428 L1697.91 80.1917 Q1701.2 81.9741 1704.4 82.8248 Q1707.6 83.6755 1710.92 83.6755 Q1718.25 83.6755 1721.9 79.8271 Q1725.54 76.0193 1725.54 68.282 L1725.54 64.5957 Q1723.23 68.6061 1719.63 70.5911 Q1716.02 72.576 1711 72.576 Q1702.65 72.576 1697.55 66.2161 Q1692.45 59.8562 1692.45 49.3643 Q1692.45 38.832 1697.55 32.472 Q1702.65 26.1121 1711 26.1121 Q1716.02 26.1121 1719.63 28.0971 Q1723.23 30.082 1725.54 34.0924 L1725.54 27.2059 L1733 27.2059 L1733 66.9452 Z" fill="#000000" fill-rule="nonzero" fill-opacity="1" /><path clip-path="url(#clip120)" d="M1768.97 49.7694 Q1759.93 49.7694 1756.45 51.8354 Q1752.97 53.9013 1752.97 58.8839 Q1752.97 62.8538 1755.56 65.2034 Q1758.19 67.5124 1762.69 67.5124 Q1768.89 67.5124 1772.61 63.1374 Q1776.38 58.7219 1776.38 51.4303 L1776.38 49.7694 L1768.97 49.7694 M1783.83 46.6907 L1783.83 72.576 L1776.38 72.576 L1776.38 65.6895 Q1773.83 69.8214 1770.02 71.8063 Q1766.21 73.7508 1760.7 73.7508 Q1753.74 73.7508 1749.6 69.8619 Q1745.51 65.9325 1745.51 59.3701 Q1745.51 51.7138 1750.62 47.825 Q1755.76 43.9361 1765.93 43.9361 L1776.38 43.9361 L1776.38 43.2069 Q1776.38 38.0623 1772.98 35.2672 Q1769.62 32.4315 1763.5 32.4315 Q1759.61 32.4315 1755.92 33.3632 Q1752.24 34.295 1748.83 36.1584 L1748.83 29.2718 Q1752.93 27.692 1756.77 26.9223 Q1760.62 26.1121 1764.27 26.1121 Q1774.11 26.1121 1778.97 31.2163 Q1783.83 36.3204 1783.83 46.6907 Z" fill="#000000" fill-rule="nonzero" fill-opacity="1" /><polyline clip-path="url(#clip122)" style="stroke:#009af9; stroke-linecap:round; stroke-linejoin:round; stroke-width:4; stroke-opacity:1; fill:none" points="433.61,160.256 452.431,187.229 471.251,213.782 490.072,239.92 508.893,265.648 527.714,290.969 546.534,315.889 565.355,340.412 584.176,364.543 602.996,388.285 621.817,411.643 640.638,434.622 659.458,457.226 678.279,479.458 697.1,501.324 715.92,522.827 734.741,543.972 753.562,564.762 772.383,585.202 791.203,605.296 810.024,625.047 828.845,644.459 847.665,663.537 866.486,682.285 885.307,700.705 904.127,718.803 922.948,736.581 941.769,754.043 960.589,771.194 979.41,788.037 998.231,804.575 1017.05,820.812 1035.87,836.751 1054.69,852.397 1073.51,867.752 1092.33,882.82 1111.15,897.605 1129.98,912.11 1148.8,926.338 1167.62,940.292 1186.44,953.977 1205.26,967.395 1224.08,980.549 1242.9,993.442 1261.72,1006.08 1280.54,1018.46 1299.36,1030.59 1318.18,1042.48 1337,1054.12 1355.82,1065.51 1374.64,1076.67 1393.47,1087.59 1412.29,1098.28 1431.11,1108.74 1449.93,1118.98 1468.75,1128.99 1487.57,1138.77 1506.39,1148.34 1525.21,1157.7 1544.03,1166.84 1562.85,1175.77 1581.67,1184.49 1600.49,1193.01 1619.31,1201.32 1638.13,1209.44 1656.95,1217.36 1675.78,1225.08 1694.6,1232.62 1713.42,1239.96 1732.24,1247.12 1751.06,1254.09 1769.88,1260.88 1788.7,1267.49 1807.52,1273.93 1826.34,1280.19 1845.16,1286.27 1863.98,1292.19 1882.8,1297.94 1901.62,1303.52 1920.44,1308.94 1939.27,1314.2 1958.09,1319.31 1976.91,1324.25 1995.73,1329.04 2014.55,1333.68 2033.37,1338.17 2052.19,1342.51 2071.01,1346.7 2089.83,1350.75 2108.65,1354.66 2127.47,1358.43 2146.29,1362.07 2165.11,1365.56 2183.93,1368.92 2202.76,1372.15 2221.58,1375.25 2240.4,1378.23 2259.22,1381.07 2278.04,1383.8 2296.86,1386.4 "/>
<path clip-path="url(#clip120)" d="M2036.99 270.476 L2286.92 270.476 L2286.92 166.796 L2036.99 166.796  Z" fill="#ffffff" fill-rule="evenodd" fill-opacity="1"/>
<polyline clip-path="url(#clip120)" style="stroke:#000000; stroke-linecap:round; stroke-linejoin:round; stroke-width:4; stroke-opacity:1; fill:none" points="2036.99,270.476 2286.92,270.476 2286.92,166.796 2036.99,166.796 2036.99,270.476 "/>
<polyline clip-path="url(#clip120)" style="stroke:#009af9; stroke-linecap:round; stroke-linejoin:round; stroke-width:4; stroke-opacity:1; fill:none" points="2058.93,218.636 2190.6,218.636 "/>
<path clip-path="url(#clip120)" d="M2226.39 238.323 Q2224.58 242.953 2222.87 244.365 Q2221.16 245.777 2218.29 245.777 L2214.88 245.777 L2214.88 242.212 L2217.38 242.212 Q2219.14 242.212 2220.12 241.379 Q2221.09 240.545 2222.27 237.443 L2223.03 235.499 L2212.55 209.99 L2217.06 209.99 L2225.16 230.268 L2233.26 209.99 L2237.78 209.99 L2226.39 238.323 Z" fill="#000000" fill-rule="nonzero" fill-opacity="1" /><path clip-path="url(#clip120)" d="M2245.07 231.981 L2252.71 231.981 L2252.71 205.615 L2244.4 207.282 L2244.4 203.022 L2252.66 201.356 L2257.34 201.356 L2257.34 231.981 L2264.98 231.981 L2264.98 235.916 L2245.07 235.916 L2245.07 231.981 Z" fill="#000000" fill-rule="nonzero" fill-opacity="1" /></svg>
