<?xml version="1.0" encoding="utf-8"?>
<svg xmlns="http://www.w3.org/2000/svg" xmlns:xlink="http://www.w3.org/1999/xlink" width="600" height="400" viewBox="0 0 2400 1600">
<defs>
  <clipPath id="clip580">
    <rect x="0" y="0" width="2400" height="1600"/>
  </clipPath>
</defs>
<path clip-path="url(#clip580)" d="M0 1600 L2400 1600 L2400 8.88178e-14 L0 8.88178e-14  Z" fill="#ffffff" fill-rule="evenodd" fill-opacity="1"/>
<defs>
  <clipPath id="clip581">
    <rect x="480" y="0" width="1681" height="1600"/>
  </clipPath>
</defs>
<path clip-path="url(#clip580)" d="M272.297 1423.18 L2352.76 1423.18 L2352.76 123.472 L272.297 123.472  Z" fill="#ffffff" fill-rule="evenodd" fill-opacity="1"/>
<defs>
  <clipPath id="clip582">
    <rect x="272" y="123" width="2081" height="1301"/>
  </clipPath>
</defs>
<polyline clip-path="url(#clip582)" style="stroke:#000000; stroke-linecap:round; stroke-linejoin:round; stroke-width:2; stroke-opacity:0.1; fill:none" points="549.255,1423.18 549.255,123.472 "/>
<polyline clip-path="url(#clip582)" style="stroke:#000000; stroke-linecap:round; stroke-linejoin:round; stroke-width:2; stroke-opacity:0.1; fill:none" points="985.41,1423.18 985.41,123.472 "/>
<polyline clip-path="url(#clip582)" style="stroke:#000000; stroke-linecap:round; stroke-linejoin:round; stroke-width:2; stroke-opacity:0.1; fill:none" points="1421.56,1423.18 1421.56,123.472 "/>
<polyline clip-path="url(#clip582)" style="stroke:#000000; stroke-linecap:round; stroke-linejoin:round; stroke-width:2; stroke-opacity:0.1; fill:none" points="1857.72,1423.18 1857.72,123.472 "/>
<polyline clip-path="url(#clip582)" style="stroke:#000000; stroke-linecap:round; stroke-linejoin:round; stroke-width:2; stroke-opacity:0.1; fill:none" points="2293.87,1423.18 2293.87,123.472 "/>
<polyline clip-path="url(#clip582)" style="stroke:#000000; stroke-linecap:round; stroke-linejoin:round; stroke-width:2; stroke-opacity:0.1; fill:none" points="272.297,1354.16 2352.76,1354.16 "/>
<polyline clip-path="url(#clip582)" style="stroke:#000000; stroke-linecap:round; stroke-linejoin:round; stroke-width:2; stroke-opacity:0.1; fill:none" points="272.297,988.946 2352.76,988.946 "/>
<polyline clip-path="url(#clip582)" style="stroke:#000000; stroke-linecap:round; stroke-linejoin:round; stroke-width:2; stroke-opacity:0.1; fill:none" points="272.297,623.734 2352.76,623.734 "/>
<polyline clip-path="url(#clip582)" style="stroke:#000000; stroke-linecap:round; stroke-linejoin:round; stroke-width:2; stroke-opacity:0.1; fill:none" points="272.297,258.523 2352.76,258.523 "/>
<polyline clip-path="url(#clip580)" style="stroke:#000000; stroke-linecap:round; stroke-linejoin:round; stroke-width:4; stroke-opacity:1; fill:none" points="272.297,1423.18 2352.76,1423.18 "/>
<polyline clip-path="url(#clip580)" style="stroke:#000000; stroke-linecap:round; stroke-linejoin:round; stroke-width:4; stroke-opacity:1; fill:none" points="549.255,1423.18 549.255,1404.28 "/>
<polyline clip-path="url(#clip580)" style="stroke:#000000; stroke-linecap:round; stroke-linejoin:round; stroke-width:4; stroke-opacity:1; fill:none" points="985.41,1423.18 985.41,1404.28 "/>
<polyline clip-path="url(#clip580)" style="stroke:#000000; stroke-linecap:round; stroke-linejoin:round; stroke-width:4; stroke-opacity:1; fill:none" points="1421.56,1423.18 1421.56,1404.28 "/>
<polyline clip-path="url(#clip580)" style="stroke:#000000; stroke-linecap:round; stroke-linejoin:round; stroke-width:4; stroke-opacity:1; fill:none" points="1857.72,1423.18 1857.72,1404.28 "/>
<polyline clip-path="url(#clip580)" style="stroke:#000000; stroke-linecap:round; stroke-linejoin:round; stroke-width:4; stroke-opacity:1; fill:none" points="2293.87,1423.18 2293.87,1404.28 "/>
<path clip-path="url(#clip580)" d="M543.908 1481.64 L560.227 1481.64 L560.227 1485.58 L538.283 1485.58 L538.283 1481.64 Q540.945 1478.89 545.528 1474.26 Q550.135 1469.61 551.315 1468.27 Q553.561 1465.74 554.44 1464.01 Q555.343 1462.25 555.343 1460.56 Q555.343 1457.8 553.398 1456.07 Q551.477 1454.33 548.375 1454.33 Q546.176 1454.33 543.723 1455.09 Q541.292 1455.86 538.514 1457.41 L538.514 1452.69 Q541.338 1451.55 543.792 1450.97 Q546.246 1450.39 548.283 1450.39 Q553.653 1450.39 556.848 1453.08 Q560.042 1455.77 560.042 1460.26 Q560.042 1462.39 559.232 1464.31 Q558.445 1466.2 556.338 1468.8 Q555.76 1469.47 552.658 1472.69 Q549.556 1475.88 543.908 1481.64 Z" fill="#000000" fill-rule="nonzero" fill-opacity="1" /><path clip-path="url(#clip580)" d="M988.419 1455.09 L976.614 1473.54 L988.419 1473.54 L988.419 1455.09 M987.192 1451.02 L993.072 1451.02 L993.072 1473.54 L998.002 1473.54 L998.002 1477.43 L993.072 1477.43 L993.072 1485.58 L988.419 1485.58 L988.419 1477.43 L972.817 1477.43 L972.817 1472.92 L987.192 1451.02 Z" fill="#000000" fill-rule="nonzero" fill-opacity="1" /><path clip-path="url(#clip580)" d="M1421.97 1466.44 Q1418.82 1466.44 1416.97 1468.59 Q1415.14 1470.74 1415.14 1474.49 Q1415.14 1478.22 1416.97 1480.39 Q1418.82 1482.55 1421.97 1482.55 Q1425.12 1482.55 1426.95 1480.39 Q1428.8 1478.22 1428.8 1474.49 Q1428.8 1470.74 1426.95 1468.59 Q1425.12 1466.44 1421.97 1466.44 M1431.25 1451.78 L1431.25 1456.04 Q1429.49 1455.21 1427.69 1454.77 Q1425.91 1454.33 1424.15 1454.33 Q1419.52 1454.33 1417.06 1457.45 Q1414.63 1460.58 1414.28 1466.9 Q1415.65 1464.89 1417.71 1463.82 Q1419.77 1462.73 1422.25 1462.73 Q1427.46 1462.73 1430.47 1465.9 Q1433.5 1469.05 1433.5 1474.49 Q1433.5 1479.82 1430.35 1483.03 Q1427.2 1486.25 1421.97 1486.25 Q1415.97 1486.25 1412.8 1481.67 Q1409.63 1477.06 1409.63 1468.33 Q1409.63 1460.14 1413.52 1455.28 Q1417.41 1450.39 1423.96 1450.39 Q1425.72 1450.39 1427.5 1450.74 Q1429.31 1451.09 1431.25 1451.78 Z" fill="#000000" fill-rule="nonzero" fill-opacity="1" /><path clip-path="url(#clip580)" d="M1857.72 1469.17 Q1854.39 1469.17 1852.47 1470.95 Q1850.57 1472.73 1850.57 1475.86 Q1850.57 1478.98 1852.47 1480.77 Q1854.39 1482.55 1857.72 1482.55 Q1861.05 1482.55 1862.97 1480.77 Q1864.9 1478.96 1864.9 1475.86 Q1864.9 1472.73 1862.97 1470.95 Q1861.08 1469.17 1857.72 1469.17 M1853.04 1467.18 Q1850.03 1466.44 1848.35 1464.38 Q1846.68 1462.32 1846.68 1459.35 Q1846.68 1455.21 1849.62 1452.8 Q1852.58 1450.39 1857.72 1450.39 Q1862.88 1450.39 1865.82 1452.8 Q1868.76 1455.21 1868.76 1459.35 Q1868.76 1462.32 1867.07 1464.38 Q1865.41 1466.44 1862.42 1467.18 Q1865.8 1467.96 1867.67 1470.26 Q1869.57 1472.55 1869.57 1475.86 Q1869.57 1480.88 1866.49 1483.57 Q1863.44 1486.25 1857.72 1486.25 Q1852 1486.25 1848.92 1483.57 Q1845.87 1480.88 1845.87 1475.86 Q1845.87 1472.55 1847.77 1470.26 Q1849.66 1467.96 1853.04 1467.18 M1851.33 1459.79 Q1851.33 1462.48 1853 1463.98 Q1854.69 1465.49 1857.72 1465.49 Q1860.73 1465.49 1862.42 1463.98 Q1864.13 1462.48 1864.13 1459.79 Q1864.13 1457.11 1862.42 1455.6 Q1860.73 1454.1 1857.72 1454.1 Q1854.69 1454.1 1853 1455.6 Q1851.33 1457.11 1851.33 1459.79 Z" fill="#000000" fill-rule="nonzero" fill-opacity="1" /><path clip-path="url(#clip580)" d="M2268.56 1481.64 L2276.2 1481.64 L2276.2 1455.28 L2267.89 1456.95 L2267.89 1452.69 L2276.16 1451.02 L2280.83 1451.02 L2280.83 1481.64 L2288.47 1481.64 L2288.47 1485.58 L2268.56 1485.58 L2268.56 1481.64 Z" fill="#000000" fill-rule="nonzero" fill-opacity="1" /><path clip-path="url(#clip580)" d="M2307.91 1454.1 Q2304.3 1454.1 2302.47 1457.66 Q2300.67 1461.2 2300.67 1468.33 Q2300.67 1475.44 2302.47 1479.01 Q2304.3 1482.55 2307.91 1482.55 Q2311.55 1482.55 2313.35 1479.01 Q2315.18 1475.44 2315.18 1468.33 Q2315.18 1461.2 2313.35 1457.66 Q2311.55 1454.1 2307.91 1454.1 M2307.91 1450.39 Q2313.72 1450.39 2316.78 1455 Q2319.86 1459.58 2319.86 1468.33 Q2319.86 1477.06 2316.78 1481.67 Q2313.72 1486.25 2307.91 1486.25 Q2302.1 1486.25 2299.03 1481.67 Q2295.97 1477.06 2295.97 1468.33 Q2295.97 1459.58 2299.03 1455 Q2302.1 1450.39 2307.91 1450.39 Z" fill="#000000" fill-rule="nonzero" fill-opacity="1" /><path clip-path="url(#clip580)" d="M1323.91 1527.5 Q1323.91 1528.18 1323.33 1528.72 Q1322.79 1529.27 1322.11 1529.27 Q1321.72 1529.27 1320.79 1528.63 Q1318.12 1526.76 1314.73 1526.76 Q1311.71 1526.76 1308.9 1527.5 Q1306.1 1528.24 1304.2 1529.75 Q1302.33 1531.23 1302.33 1533.17 Q1302.33 1535.58 1304.98 1537 Q1307.71 1535.74 1311.09 1535.74 Q1312.19 1535.74 1312.93 1535.81 Q1313.7 1535.87 1314.44 1536.03 Q1315.18 1536.19 1315.54 1536.58 Q1315.93 1536.94 1315.93 1537.51 Q1315.93 1539.58 1310.58 1539.58 Q1307.1 1539.58 1304.91 1538.64 Q1302.11 1540.03 1300.56 1542.25 Q1299.02 1544.47 1299.02 1546.37 Q1299.02 1548.01 1299.92 1549.21 Q1300.85 1550.4 1302.37 1550.98 Q1303.91 1551.56 1305.43 1551.81 Q1306.97 1552.04 1308.68 1552.04 Q1311.48 1552.04 1313.45 1551.69 Q1315.44 1551.3 1316.54 1550.59 Q1317.66 1549.88 1318.12 1549.4 Q1318.6 1548.88 1319.08 1548.08 Q1319.37 1547.63 1319.76 1547.63 Q1320.05 1547.63 1320.24 1547.82 Q1320.47 1547.98 1320.47 1548.27 Q1320.47 1548.63 1320.02 1549.37 Q1319.6 1550.11 1318.57 1551.11 Q1317.57 1552.07 1316.18 1552.97 Q1314.83 1553.84 1312.67 1554.46 Q1310.52 1555.07 1308.07 1555.07 Q1303.08 1555.07 1300.18 1552.62 Q1297.31 1550.17 1297.31 1546.76 Q1297.31 1544.37 1298.89 1541.93 Q1300.5 1539.45 1303.33 1537.87 Q1300.69 1535.9 1300.69 1533.17 Q1300.69 1530.72 1302.75 1528.53 Q1304.85 1526.34 1308.23 1525.05 Q1311.64 1523.73 1315.38 1523.73 Q1317.47 1523.73 1319.53 1524.44 Q1321.59 1525.12 1322.75 1525.99 Q1323.91 1526.85 1323.91 1527.5 M1314.22 1537.58 Q1312.8 1537.19 1311.09 1537.19 Q1308.78 1537.19 1307.07 1537.77 Q1308.45 1538.13 1310.58 1538.13 Q1312.35 1538.13 1312.87 1538.03 Q1313.41 1537.93 1314.22 1537.58 Z" fill="#000000" fill-rule="nonzero" fill-opacity="1" /><polyline clip-path="url(#clip580)" style="stroke:#000000; stroke-linecap:round; stroke-linejoin:round; stroke-width:4; stroke-opacity:1; fill:none" points="272.297,1423.18 272.297,123.472 "/>
<polyline clip-path="url(#clip580)" style="stroke:#000000; stroke-linecap:round; stroke-linejoin:round; stroke-width:4; stroke-opacity:1; fill:none" points="272.297,1354.16 291.194,1354.16 "/>
<polyline clip-path="url(#clip580)" style="stroke:#000000; stroke-linecap:round; stroke-linejoin:round; stroke-width:4; stroke-opacity:1; fill:none" points="272.297,988.946 291.194,988.946 "/>
<polyline clip-path="url(#clip580)" style="stroke:#000000; stroke-linecap:round; stroke-linejoin:round; stroke-width:4; stroke-opacity:1; fill:none" points="272.297,623.734 291.194,623.734 "/>
<polyline clip-path="url(#clip580)" style="stroke:#000000; stroke-linecap:round; stroke-linejoin:round; stroke-width:4; stroke-opacity:1; fill:none" points="272.297,258.523 291.194,258.523 "/>
<path clip-path="url(#clip580)" d="M114.26 1354.61 L143.936 1354.61 L143.936 1358.54 L114.26 1358.54 L114.26 1354.61 Z" fill="#000000" fill-rule="nonzero" fill-opacity="1" /><path clip-path="url(#clip580)" d="M154.839 1367.5 L162.477 1367.5 L162.477 1341.14 L154.167 1342.8 L154.167 1338.54 L162.431 1336.88 L167.107 1336.88 L167.107 1367.5 L174.746 1367.5 L174.746 1371.44 L154.839 1371.44 L154.839 1367.5 Z" fill="#000000" fill-rule="nonzero" fill-opacity="1" /><path clip-path="url(#clip580)" d="M194.19 1339.96 Q190.579 1339.96 188.75 1343.52 Q186.945 1347.06 186.945 1354.19 Q186.945 1361.3 188.75 1364.86 Q190.579 1368.41 194.19 1368.41 Q197.825 1368.41 199.63 1364.86 Q201.459 1361.3 201.459 1354.19 Q201.459 1347.06 199.63 1343.52 Q197.825 1339.96 194.19 1339.96 M194.19 1336.25 Q200 1336.25 203.056 1340.86 Q206.135 1345.44 206.135 1354.19 Q206.135 1362.92 203.056 1367.53 Q200 1372.11 194.19 1372.11 Q188.38 1372.11 185.301 1367.53 Q182.246 1362.92 182.246 1354.19 Q182.246 1345.44 185.301 1340.86 Q188.38 1336.25 194.19 1336.25 Z" fill="#000000" fill-rule="nonzero" fill-opacity="1" /><path clip-path="url(#clip580)" d="M224.352 1339.96 Q220.741 1339.96 218.912 1343.52 Q217.107 1347.06 217.107 1354.19 Q217.107 1361.3 218.912 1364.86 Q220.741 1368.41 224.352 1368.41 Q227.986 1368.41 229.792 1364.86 Q231.621 1361.3 231.621 1354.19 Q231.621 1347.06 229.792 1343.52 Q227.986 1339.96 224.352 1339.96 M224.352 1336.25 Q230.162 1336.25 233.218 1340.86 Q236.297 1345.44 236.297 1354.19 Q236.297 1362.92 233.218 1367.53 Q230.162 1372.11 224.352 1372.11 Q218.542 1372.11 215.463 1367.53 Q212.408 1362.92 212.408 1354.19 Q212.408 1345.44 215.463 1340.86 Q218.542 1336.25 224.352 1336.25 Z" fill="#000000" fill-rule="nonzero" fill-opacity="1" /><path clip-path="url(#clip580)" d="M224.352 974.745 Q220.741 974.745 218.912 978.309 Q217.107 981.851 217.107 988.981 Q217.107 996.087 218.912 999.652 Q220.741 1003.19 224.352 1003.19 Q227.986 1003.19 229.792 999.652 Q231.621 996.087 231.621 988.981 Q231.621 981.851 229.792 978.309 Q227.986 974.745 224.352 974.745 M224.352 971.041 Q230.162 971.041 233.218 975.647 Q236.297 980.231 236.297 988.981 Q236.297 997.707 233.218 1002.31 Q230.162 1006.9 224.352 1006.9 Q218.542 1006.9 215.463 1002.31 Q212.408 997.707 212.408 988.981 Q212.408 980.231 215.463 975.647 Q218.542 971.041 224.352 971.041 Z" fill="#000000" fill-rule="nonzero" fill-opacity="1" /><path clip-path="url(#clip580)" d="M154.839 637.079 L162.477 637.079 L162.477 610.714 L154.167 612.38 L154.167 608.121 L162.431 606.454 L167.107 606.454 L167.107 637.079 L174.746 637.079 L174.746 641.014 L154.839 641.014 L154.839 637.079 Z" fill="#000000" fill-rule="nonzero" fill-opacity="1" /><path clip-path="url(#clip580)" d="M194.19 609.533 Q190.579 609.533 188.75 613.098 Q186.945 616.639 186.945 623.769 Q186.945 630.876 188.75 634.44 Q190.579 637.982 194.19 637.982 Q197.825 637.982 199.63 634.44 Q201.459 630.876 201.459 623.769 Q201.459 616.639 199.63 613.098 Q197.825 609.533 194.19 609.533 M194.19 605.829 Q200 605.829 203.056 610.436 Q206.135 615.019 206.135 623.769 Q206.135 632.496 203.056 637.102 Q200 641.686 194.19 641.686 Q188.38 641.686 185.301 637.102 Q182.246 632.496 182.246 623.769 Q182.246 615.019 185.301 610.436 Q188.38 605.829 194.19 605.829 Z" fill="#000000" fill-rule="nonzero" fill-opacity="1" /><path clip-path="url(#clip580)" d="M224.352 609.533 Q220.741 609.533 218.912 613.098 Q217.107 616.639 217.107 623.769 Q217.107 630.876 218.912 634.44 Q220.741 637.982 224.352 637.982 Q227.986 637.982 229.792 634.44 Q231.621 630.876 231.621 623.769 Q231.621 616.639 229.792 613.098 Q227.986 609.533 224.352 609.533 M224.352 605.829 Q230.162 605.829 233.218 610.436 Q236.297 615.019 236.297 623.769 Q236.297 632.496 233.218 637.102 Q230.162 641.686 224.352 641.686 Q218.542 641.686 215.463 637.102 Q212.408 632.496 212.408 623.769 Q212.408 615.019 215.463 610.436 Q218.542 605.829 224.352 605.829 Z" fill="#000000" fill-rule="nonzero" fill-opacity="1" /><path clip-path="url(#clip580)" d="M158.056 271.868 L174.376 271.868 L174.376 275.803 L152.431 275.803 L152.431 271.868 Q155.093 269.113 159.677 264.483 Q164.283 259.831 165.464 258.488 Q167.709 255.965 168.589 254.229 Q169.491 252.47 169.491 250.78 Q169.491 248.025 167.547 246.289 Q165.626 244.553 162.524 244.553 Q160.325 244.553 157.871 245.317 Q155.44 246.081 152.663 247.632 L152.663 242.909 Q155.487 241.775 157.94 241.196 Q160.394 240.618 162.431 240.618 Q167.802 240.618 170.996 243.303 Q174.19 245.988 174.19 250.479 Q174.19 252.608 173.38 254.53 Q172.593 256.428 170.487 259.02 Q169.908 259.692 166.806 262.909 Q163.704 266.104 158.056 271.868 Z" fill="#000000" fill-rule="nonzero" fill-opacity="1" /><path clip-path="url(#clip580)" d="M194.19 244.321 Q190.579 244.321 188.75 247.886 Q186.945 251.428 186.945 258.557 Q186.945 265.664 188.75 269.229 Q190.579 272.77 194.19 272.77 Q197.825 272.77 199.63 269.229 Q201.459 265.664 201.459 258.557 Q201.459 251.428 199.63 247.886 Q197.825 244.321 194.19 244.321 M194.19 240.618 Q200 240.618 203.056 245.224 Q206.135 249.807 206.135 258.557 Q206.135 267.284 203.056 271.891 Q200 276.474 194.19 276.474 Q188.38 276.474 185.301 271.891 Q182.246 267.284 182.246 258.557 Q182.246 249.807 185.301 245.224 Q188.38 240.618 194.19 240.618 Z" fill="#000000" fill-rule="nonzero" fill-opacity="1" /><path clip-path="url(#clip580)" d="M224.352 244.321 Q220.741 244.321 218.912 247.886 Q217.107 251.428 217.107 258.557 Q217.107 265.664 218.912 269.229 Q220.741 272.77 224.352 272.77 Q227.986 272.77 229.792 269.229 Q231.621 265.664 231.621 258.557 Q231.621 251.428 229.792 247.886 Q227.986 244.321 224.352 244.321 M224.352 240.618 Q230.162 240.618 233.218 245.224 Q236.297 249.807 236.297 258.557 Q236.297 267.284 233.218 271.891 Q230.162 276.474 224.352 276.474 Q218.542 276.474 215.463 271.891 Q212.408 267.284 212.408 258.557 Q212.408 249.807 215.463 245.224 Q218.542 240.618 224.352 240.618 Z" fill="#000000" fill-rule="nonzero" fill-opacity="1" /><path clip-path="url(#clip580)" d="M24.1199 800.68 Q25.8912 800.68 26.9862 801.807 Q28.0812 802.902 28.0812 804.287 Q28.0812 805.285 27.4693 806.026 Q26.8574 806.735 25.7946 806.735 Q24.6996 806.735 23.5402 805.897 Q22.3807 805.06 22.2197 803.16 Q21.0281 804.416 21.0281 806.413 Q21.0281 807.411 21.6722 808.248 Q22.2841 809.053 23.2825 809.504 Q24.3131 809.987 30.1424 811.082 Q32.0425 811.437 33.8782 811.759 Q35.714 812.081 37.6463 812.467 L37.6463 806.992 Q37.6463 806.284 37.6785 805.994 Q37.7107 805.704 37.8718 805.479 Q38.0328 805.221 38.3871 805.221 Q39.2888 805.221 39.5143 805.64 Q39.7075 806.026 39.7075 807.185 L39.7075 812.854 L60.6091 816.815 Q61.221 816.912 63.1534 817.33 Q65.0535 817.717 68.1775 818.651 Q71.3337 819.585 73.2016 820.519 Q74.2644 821.034 75.2628 821.71 Q76.2934 822.354 77.3239 823.288 Q78.3545 824.222 78.9664 825.446 Q79.6106 826.67 79.6106 827.958 Q79.6106 830.148 78.3867 831.855 Q77.1629 833.562 75.0695 833.562 Q73.2982 833.562 72.2032 832.467 Q71.1082 831.34 71.1082 829.955 Q71.1082 828.957 71.7201 828.248 Q72.332 827.507 73.3948 827.507 Q73.8457 827.507 74.361 827.668 Q74.8763 827.829 75.456 828.184 Q76.0679 828.538 76.4866 829.311 Q76.9053 830.084 76.9697 831.147 Q78.1613 829.891 78.1613 827.958 Q78.1613 827.346 77.9036 826.799 Q77.6782 826.251 77.0985 825.8 Q76.5188 825.317 75.9391 824.963 Q75.3916 824.609 74.3288 824.255 Q73.2982 823.9 72.5253 823.675 Q71.7523 823.449 70.3675 823.16 Q68.9826 822.838 68.1453 822.676 Q67.3401 822.515 65.762 822.226 L39.7075 817.298 L39.7075 821.646 Q39.7075 822.419 39.6753 822.741 Q39.6431 823.031 39.4821 823.256 Q39.2888 823.482 38.9023 823.482 Q38.2904 823.482 38.0328 823.224 Q37.7429 822.934 37.7107 822.612 Q37.6463 822.29 37.6463 821.517 L37.6463 816.944 Q29.4982 815.398 27.3082 814.786 Q24.9894 814.078 23.3791 812.983 Q21.7366 811.888 20.9637 810.664 Q20.1907 809.44 19.9009 808.441 Q19.5788 807.411 19.5788 806.413 Q19.5788 804.158 20.8027 802.419 Q21.9943 800.68 24.1199 800.68 Z" fill="#000000" fill-rule="nonzero" fill-opacity="1" /><path clip-path="url(#clip580)" d="M49.5947 791.8 Q38.4515 791.8 29.466 787.645 Q25.6979 785.874 22.5418 783.394 Q19.3856 780.914 18.0007 779.272 Q16.6159 777.629 16.6159 777.178 Q16.6159 776.534 17.26 776.502 Q17.5821 776.502 18.3872 777.372 Q29.2084 788 49.5947 787.967 Q70.0454 787.967 80.4479 777.629 Q81.5751 776.502 81.9294 776.502 Q82.5735 776.502 82.5735 777.178 Q82.5735 777.629 81.2531 779.207 Q79.9326 780.785 76.9053 783.233 Q73.8779 785.681 70.1742 787.452 Q61.1888 791.8 49.5947 791.8 Z" fill="#000000" fill-rule="nonzero" fill-opacity="1" /><path clip-path="url(#clip580)" d="M39.9651 744.886 Q40.6415 744.886 41.189 745.466 Q41.7365 746.014 41.7365 746.69 Q41.7365 747.076 41.0923 748.01 Q39.2244 750.683 39.2244 754.065 Q39.2244 757.092 39.9651 759.894 Q40.7059 762.696 42.2196 764.596 Q43.701 766.464 45.6334 766.464 Q48.0488 766.464 49.4659 763.823 Q48.2098 761.086 48.2098 757.704 Q48.2098 756.609 48.2743 755.869 Q48.3387 755.096 48.4997 754.355 Q48.6607 753.614 49.0472 753.26 Q49.4015 752.873 49.9812 752.873 Q52.0423 752.873 52.0423 758.22 Q52.0423 761.698 51.1084 763.888 Q52.4932 766.69 54.7154 768.236 Q56.9376 769.782 58.8378 769.782 Q60.4803 769.782 61.6719 768.88 Q62.8635 767.946 63.4432 766.432 Q64.0229 764.886 64.2806 763.373 Q64.506 761.827 64.506 760.12 Q64.506 757.318 64.1517 755.353 Q63.7653 753.357 63.0567 752.262 Q62.3482 751.134 61.8651 750.683 Q61.3498 750.2 60.5447 749.717 Q60.0938 749.427 60.0938 749.041 Q60.0938 748.751 60.287 748.558 Q60.4481 748.332 60.7379 748.332 Q61.0922 748.332 61.8329 748.783 Q62.5737 749.202 63.572 750.233 Q64.5382 751.231 65.44 752.616 Q66.3095 753.968 66.9214 756.126 Q67.5334 758.284 67.5334 760.732 Q67.5334 765.724 65.0857 768.622 Q62.6381 771.488 59.2242 771.488 Q56.841 771.488 54.3934 769.91 Q51.9135 768.3 50.3354 765.466 Q48.3709 768.107 45.6334 768.107 Q43.1857 768.107 40.9957 766.046 Q38.8057 763.952 37.5175 760.571 Q36.1971 757.157 36.1971 753.421 Q36.1971 751.328 36.9056 749.266 Q37.5819 747.205 38.4515 746.046 Q39.321 744.886 39.9651 744.886 M50.0456 754.58 Q49.6591 755.997 49.6591 757.704 Q49.6591 760.023 50.2388 761.73 Q50.5931 760.345 50.5931 758.22 Q50.5931 756.448 50.4965 755.933 Q50.3998 755.386 50.0456 754.58 Z" fill="#000000" fill-rule="nonzero" fill-opacity="1" /><path clip-path="url(#clip580)" d="M81.9294 738.417 Q81.6073 738.417 80.8022 737.58 Q69.981 726.952 49.5947 726.952 Q29.144 726.952 18.8059 737.161 Q17.6143 738.417 17.26 738.417 Q16.6159 738.417 16.6159 737.773 Q16.6159 737.322 17.9363 735.744 Q19.2568 734.134 22.2841 731.718 Q25.3115 729.271 29.0151 727.467 Q38.0006 723.12 49.5947 723.12 Q60.7379 723.12 69.7234 727.274 Q73.4914 729.045 76.6476 731.525 Q79.8038 734.005 81.1886 735.648 Q82.5735 737.29 82.5735 737.773 Q82.5735 738.417 81.9294 738.417 Z" fill="#000000" fill-rule="nonzero" fill-opacity="1" /><path clip-path="url(#clip580)" d="M893.926 12.096 L928.683 12.096 L928.683 18.9825 L902.109 18.9825 L902.109 36.8065 L926.09 36.8065 L926.09 43.6931 L902.109 43.6931 L902.109 72.576 L893.926 72.576 L893.926 12.096 Z" fill="#000000" fill-rule="nonzero" fill-opacity="1" /><path clip-path="url(#clip580)" d="M936.015 54.671 L936.015 27.2059 L943.469 27.2059 L943.469 54.3874 Q943.469 60.8284 945.98 64.0691 Q948.492 67.2693 953.515 67.2693 Q959.551 67.2693 963.034 63.421 Q966.559 59.5726 966.559 52.9291 L966.559 27.2059 L974.012 27.2059 L974.012 72.576 L966.559 72.576 L966.559 65.6084 Q963.845 69.7404 960.239 71.7658 Q956.675 73.7508 951.935 73.7508 Q944.117 73.7508 940.066 68.8897 Q936.015 64.0286 936.015 54.671 M954.771 26.1121 L954.771 26.1121 Z" fill="#000000" fill-rule="nonzero" fill-opacity="1" /><path clip-path="url(#clip580)" d="M1027.08 45.1919 L1027.08 72.576 L1019.63 72.576 L1019.63 45.4349 Q1019.63 38.994 1017.11 35.7938 Q1014.6 32.5936 1009.58 32.5936 Q1003.54 32.5936 1000.06 36.4419 Q996.576 40.2903 996.576 46.9338 L996.576 72.576 L989.082 72.576 L989.082 27.2059 L996.576 27.2059 L996.576 34.2544 Q999.25 30.163 1002.85 28.1376 Q1006.5 26.1121 1011.24 26.1121 Q1019.06 26.1121 1023.07 30.9732 Q1027.08 35.7938 1027.08 45.1919 Z" fill="#000000" fill-rule="nonzero" fill-opacity="1" /><path clip-path="url(#clip580)" d="M1071.8 49.3643 Q1071.8 41.2625 1068.44 36.8065 Q1065.12 32.3505 1059.08 32.3505 Q1053.09 32.3505 1049.72 36.8065 Q1046.4 41.2625 1046.4 49.3643 Q1046.4 57.4256 1049.72 61.8816 Q1053.09 66.3376 1059.08 66.3376 Q1065.12 66.3376 1068.44 61.8816 Q1071.8 57.4256 1071.8 49.3643 M1079.25 66.9452 Q1079.25 78.5308 1074.11 84.1616 Q1068.97 89.8329 1058.35 89.8329 Q1054.42 89.8329 1050.94 89.2252 Q1047.46 88.6581 1044.17 87.4428 L1044.17 80.1917 Q1047.46 81.9741 1050.66 82.8248 Q1053.86 83.6755 1057.18 83.6755 Q1064.51 83.6755 1068.16 79.8271 Q1071.8 76.0193 1071.8 68.282 L1071.8 64.5957 Q1069.49 68.6061 1065.89 70.5911 Q1062.28 72.576 1057.26 72.576 Q1048.91 72.576 1043.81 66.2161 Q1038.71 59.8562 1038.71 49.3643 Q1038.71 38.832 1043.81 32.472 Q1048.91 26.1121 1057.26 26.1121 Q1062.28 26.1121 1065.89 28.0971 Q1069.49 30.082 1071.8 34.0924 L1071.8 27.2059 L1079.25 27.2059 L1079.25 66.9452 Z" fill="#000000" fill-rule="nonzero" fill-opacity="1" /><path clip-path="url(#clip580)" d="M1123.53 28.5427 L1123.53 35.5912 Q1120.37 33.9709 1116.97 33.1607 Q1113.57 32.3505 1109.92 32.3505 Q1104.37 32.3505 1101.58 34.0519 Q1098.82 35.7533 1098.82 39.156 Q1098.82 41.7486 1100.81 43.2475 Q1102.79 44.7058 1108.79 46.0426 L1111.34 46.6097 Q1119.28 48.3111 1122.6 51.4303 Q1125.96 54.509 1125.96 60.0587 Q1125.96 66.3781 1120.94 70.0644 Q1115.96 73.7508 1107.21 73.7508 Q1103.56 73.7508 1099.59 73.0216 Q1095.66 72.3329 1091.29 70.9151 L1091.29 63.2184 Q1095.42 65.3654 1099.43 66.4591 Q1103.44 67.5124 1107.37 67.5124 Q1112.63 67.5124 1115.47 65.73 Q1118.31 63.9071 1118.31 60.6258 Q1118.31 57.5877 1116.24 55.9673 Q1114.21 54.3469 1107.29 52.8481 L1104.69 52.2405 Q1097.77 50.7821 1094.69 47.7845 Q1091.61 44.7463 1091.61 39.4801 Q1091.61 33.0797 1096.15 29.5959 Q1100.68 26.1121 1109.03 26.1121 Q1113.16 26.1121 1116.81 26.7198 Q1120.45 27.3274 1123.53 28.5427 Z" fill="#000000" fill-rule="nonzero" fill-opacity="1" /><path clip-path="url(#clip580)" d="M1137.83 27.2059 L1145.28 27.2059 L1145.28 72.576 L1137.83 72.576 L1137.83 27.2059 M1137.83 9.54393 L1145.28 9.54393 L1145.28 18.9825 L1137.83 18.9825 L1137.83 9.54393 Z" fill="#000000" fill-rule="nonzero" fill-opacity="1" /><path clip-path="url(#clip580)" d="M1186.48 54.671 L1186.48 27.2059 L1193.94 27.2059 L1193.94 54.3874 Q1193.94 60.8284 1196.45 64.0691 Q1198.96 67.2693 1203.98 67.2693 Q1210.02 67.2693 1213.5 63.421 Q1217.03 59.5726 1217.03 52.9291 L1217.03 27.2059 L1224.48 27.2059 L1224.48 72.576 L1217.03 72.576 L1217.03 65.6084 Q1214.31 69.7404 1210.71 71.7658 Q1207.14 73.7508 1202.4 73.7508 Q1194.58 73.7508 1190.53 68.8897 Q1186.48 64.0286 1186.48 54.671 M1205.24 26.1121 L1205.24 26.1121 Z" fill="#000000" fill-rule="nonzero" fill-opacity="1" /><path clip-path="url(#clip580)" d="M1277.55 45.1919 L1277.55 72.576 L1270.09 72.576 L1270.09 45.4349 Q1270.09 38.994 1267.58 35.7938 Q1265.07 32.5936 1260.05 32.5936 Q1254.01 32.5936 1250.53 36.4419 Q1247.04 40.2903 1247.04 46.9338 L1247.04 72.576 L1239.55 72.576 L1239.55 27.2059 L1247.04 27.2059 L1247.04 34.2544 Q1249.72 30.163 1253.32 28.1376 Q1256.97 26.1121 1261.71 26.1121 Q1269.53 26.1121 1273.54 30.9732 Q1277.55 35.7938 1277.55 45.1919 Z" fill="#000000" fill-rule="nonzero" fill-opacity="1" /><path clip-path="url(#clip580)" d="M1299.79 14.324 L1299.79 27.2059 L1315.14 27.2059 L1315.14 32.9987 L1299.79 32.9987 L1299.79 57.6282 Q1299.79 63.1779 1301.28 64.7578 Q1302.82 66.3376 1307.48 66.3376 L1315.14 66.3376 L1315.14 72.576 L1307.48 72.576 Q1298.85 72.576 1295.57 69.3758 Q1292.29 66.1351 1292.29 57.6282 L1292.29 32.9987 L1286.82 32.9987 L1286.82 27.2059 L1292.29 27.2059 L1292.29 14.324 L1299.79 14.324 Z" fill="#000000" fill-rule="nonzero" fill-opacity="1" /><path clip-path="url(#clip580)" d="M1324.17 54.671 L1324.17 27.2059 L1331.63 27.2059 L1331.63 54.3874 Q1331.63 60.8284 1334.14 64.0691 Q1336.65 67.2693 1341.67 67.2693 Q1347.71 67.2693 1351.19 63.421 Q1354.72 59.5726 1354.72 52.9291 L1354.72 27.2059 L1362.17 27.2059 L1362.17 72.576 L1354.72 72.576 L1354.72 65.6084 Q1352 69.7404 1348.4 71.7658 Q1344.83 73.7508 1340.09 73.7508 Q1332.27 73.7508 1328.22 68.8897 Q1324.17 64.0286 1324.17 54.671 M1342.93 26.1121 L1342.93 26.1121 Z" fill="#000000" fill-rule="nonzero" fill-opacity="1" /><path clip-path="url(#clip580)" d="M1377.24 9.54393 L1384.73 9.54393 L1384.73 46.7717 L1406.97 27.2059 L1416.49 27.2059 L1392.43 48.4326 L1417.51 72.576 L1407.78 72.576 L1384.73 50.4176 L1384.73 72.576 L1377.24 72.576 L1377.24 9.54393 Z" fill="#000000" fill-rule="nonzero" fill-opacity="1" /><path clip-path="url(#clip580)" d="M1443.88 12.096 L1495.04 12.096 L1495.04 18.9825 L1473.57 18.9825 L1473.57 72.576 L1465.35 72.576 L1465.35 18.9825 L1443.88 18.9825 L1443.88 12.096 Z" fill="#000000" fill-rule="nonzero" fill-opacity="1" /><path clip-path="url(#clip580)" d="M1527.33 48.0275 L1527.33 51.6733 L1493.05 51.6733 Q1493.54 59.3701 1497.67 63.421 Q1501.85 67.4314 1509.26 67.4314 Q1513.55 67.4314 1517.56 66.3781 Q1521.61 65.3249 1525.58 63.2184 L1525.58 70.267 Q1521.57 71.9684 1517.36 72.8596 Q1513.15 73.7508 1508.81 73.7508 Q1497.96 73.7508 1491.6 67.4314 Q1485.28 61.1119 1485.28 50.3365 Q1485.28 39.1965 1491.27 32.6746 Q1497.31 26.1121 1507.52 26.1121 Q1516.67 26.1121 1521.98 32.0264 Q1527.33 37.9003 1527.33 48.0275 M1519.87 45.84 Q1519.79 39.7232 1516.43 36.0774 Q1513.11 32.4315 1507.6 32.4315 Q1501.36 32.4315 1497.59 35.9558 Q1493.86 39.4801 1493.3 45.8805 L1519.87 45.84 Z" fill="#000000" fill-rule="nonzero" fill-opacity="1" /><path clip-path="url(#clip580)" d="M1577.27 45.1919 L1577.27 72.576 L1569.82 72.576 L1569.82 45.4349 Q1569.82 38.994 1567.31 35.7938 Q1564.8 32.5936 1559.77 32.5936 Q1553.74 32.5936 1550.25 36.4419 Q1546.77 40.2903 1546.77 46.9338 L1546.77 72.576 L1539.28 72.576 L1539.28 27.2059 L1546.77 27.2059 L1546.77 34.2544 Q1549.44 30.163 1553.05 28.1376 Q1556.69 26.1121 1561.43 26.1121 Q1569.25 26.1121 1573.26 30.9732 Q1577.27 35.7938 1577.27 45.1919 Z" fill="#000000" fill-rule="nonzero" fill-opacity="1" /><path clip-path="url(#clip580)" d="M1612.76 49.7694 Q1603.73 49.7694 1600.24 51.8354 Q1596.76 53.9013 1596.76 58.8839 Q1596.76 62.8538 1599.35 65.2034 Q1601.98 67.5124 1606.48 67.5124 Q1612.68 67.5124 1616.4 63.1374 Q1620.17 58.7219 1620.17 51.4303 L1620.17 49.7694 L1612.76 49.7694 M1627.63 46.6907 L1627.63 72.576 L1620.17 72.576 L1620.17 65.6895 Q1617.62 69.8214 1613.81 71.8063 Q1610 73.7508 1604.5 73.7508 Q1597.53 73.7508 1593.4 69.8619 Q1589.3 65.9325 1589.3 59.3701 Q1589.3 51.7138 1594.41 47.825 Q1599.55 43.9361 1609.72 43.9361 L1620.17 43.9361 L1620.17 43.2069 Q1620.17 38.0623 1616.77 35.2672 Q1613.41 32.4315 1607.29 32.4315 Q1603.4 32.4315 1599.72 33.3632 Q1596.03 34.295 1592.63 36.1584 L1592.63 29.2718 Q1596.72 27.692 1600.57 26.9223 Q1604.41 26.1121 1608.06 26.1121 Q1617.9 26.1121 1622.76 31.2163 Q1627.63 36.3204 1627.63 46.6907 Z" fill="#000000" fill-rule="nonzero" fill-opacity="1" /><path clip-path="url(#clip580)" d="M1672.83 49.3643 Q1672.83 41.2625 1669.47 36.8065 Q1666.15 32.3505 1660.11 32.3505 Q1654.12 32.3505 1650.76 36.8065 Q1647.43 41.2625 1647.43 49.3643 Q1647.43 57.4256 1650.76 61.8816 Q1654.12 66.3376 1660.11 66.3376 Q1666.15 66.3376 1669.47 61.8816 Q1672.83 57.4256 1672.83 49.3643 M1680.29 66.9452 Q1680.29 78.5308 1675.14 84.1616 Q1670 89.8329 1659.38 89.8329 Q1655.46 89.8329 1651.97 89.2252 Q1648.49 88.6581 1645.21 87.4428 L1645.21 80.1917 Q1648.49 81.9741 1651.69 82.8248 Q1654.89 83.6755 1658.21 83.6755 Q1665.54 83.6755 1669.19 79.8271 Q1672.83 76.0193 1672.83 68.282 L1672.83 64.5957 Q1670.52 68.6061 1666.92 70.5911 Q1663.31 72.576 1658.29 72.576 Q1649.95 72.576 1644.84 66.2161 Q1639.74 59.8562 1639.74 49.3643 Q1639.74 38.832 1644.84 32.472 Q1649.95 26.1121 1658.29 26.1121 Q1663.31 26.1121 1666.92 28.0971 Q1670.52 30.082 1672.83 34.0924 L1672.83 27.2059 L1680.29 27.2059 L1680.29 66.9452 Z" fill="#000000" fill-rule="nonzero" fill-opacity="1" /><path clip-path="url(#clip580)" d="M1716.26 49.7694 Q1707.23 49.7694 1703.74 51.8354 Q1700.26 53.9013 1700.26 58.8839 Q1700.26 62.8538 1702.85 65.2034 Q1705.48 67.5124 1709.98 67.5124 Q1716.18 67.5124 1719.91 63.1374 Q1723.67 58.7219 1723.67 51.4303 L1723.67 49.7694 L1716.26 49.7694 M1731.13 46.6907 L1731.13 72.576 L1723.67 72.576 L1723.67 65.6895 Q1721.12 69.8214 1717.31 71.8063 Q1713.5 73.7508 1708 73.7508 Q1701.03 73.7508 1696.9 69.8619 Q1692.8 65.9325 1692.8 59.3701 Q1692.8 51.7138 1697.91 47.825 Q1703.05 43.9361 1713.22 43.9361 L1723.67 43.9361 L1723.67 43.2069 Q1723.67 38.0623 1720.27 35.2672 Q1716.91 32.4315 1710.79 32.4315 Q1706.9 32.4315 1703.22 33.3632 Q1699.53 34.295 1696.13 36.1584 L1696.13 29.2718 Q1700.22 27.692 1704.07 26.9223 Q1707.91 26.1121 1711.56 26.1121 Q1721.4 26.1121 1726.27 31.2163 Q1731.13 36.3204 1731.13 46.6907 Z" fill="#000000" fill-rule="nonzero" fill-opacity="1" /><polyline clip-path="url(#clip582)" style="stroke:#009af9; stroke-linecap:round; stroke-linejoin:round; stroke-width:4; stroke-opacity:1; fill:none" points="331.177,160.256 351.003,231.34 370.828,299.486 390.653,364.776 410.478,427.29 430.304,487.106 450.129,544.301 469.954,598.95 489.779,651.127 509.605,700.902 529.43,748.348 549.255,793.531 569.08,836.52 588.905,877.381 608.731,916.177 628.556,952.971 648.381,987.825 668.206,1020.8 688.032,1051.95 707.857,1081.34 727.682,1109.03 747.507,1135.05 767.332,1159.48 787.158,1182.37 806.983,1203.76 826.808,1223.7 846.633,1242.25 866.459,1259.44 886.284,1275.34 906.109,1289.97 925.934,1303.4 945.76,1315.65 965.585,1326.78 985.41,1336.82 1005.24,1345.81 1025.06,1353.8 1044.89,1360.82 1064.71,1366.91 1084.54,1372.1 1104.36,1376.44 1124.19,1379.95 1144.01,1382.67 1163.84,1384.63 1183.66,1385.86 1203.49,1386.4 1223.31,1386.27 1243.14,1385.5 1262.96,1384.13 1282.79,1382.19 1302.61,1379.69 1322.44,1376.66 1342.26,1373.13 1362.09,1369.13 1381.91,1364.68 1401.74,1359.81 1421.56,1354.53 1441.39,1348.86 1461.22,1342.84 1481.04,1336.48 1500.87,1329.81 1520.69,1322.83 1540.52,1315.58 1560.34,1308.06 1580.17,1300.31 1599.99,1292.32 1619.82,1284.13 1639.64,1275.75 1659.47,1267.2 1679.29,1258.49 1699.12,1249.63 1718.94,1240.64 1738.77,1231.53 1758.59,1222.32 1778.42,1213.03 1798.24,1203.65 1818.07,1194.21 1837.89,1184.72 1857.72,1175.19 1877.55,1165.63 1897.37,1156.04 1917.2,1146.45 1937.02,1136.86 1956.85,1127.28 1976.67,1117.71 1996.5,1108.17 2016.32,1098.67 2036.15,1089.22 2055.97,1079.81 2075.8,1070.46 2095.62,1061.18 2115.45,1051.97 2135.27,1042.84 2155.1,1033.8 2174.92,1024.85 2194.75,1015.99 2214.57,1007.24 2234.4,998.592 2254.22,990.058 2274.05,981.64 2293.87,973.344 "/>
<path clip-path="url(#clip580)" d="M2022.93 270.476 L2283.41 270.476 L2283.41 166.796 L2022.93 166.796  Z" fill="#ffffff" fill-rule="evenodd" fill-opacity="1"/>
<polyline clip-path="url(#clip580)" style="stroke:#000000; stroke-linecap:round; stroke-linejoin:round; stroke-width:4; stroke-opacity:1; fill:none" points="2022.93,270.476 2283.41,270.476 2283.41,166.796 2022.93,166.796 2022.93,270.476 "/>
<polyline clip-path="url(#clip580)" style="stroke:#009af9; stroke-linecap:round; stroke-linejoin:round; stroke-width:4; stroke-opacity:1; fill:none" points="2046.05,218.636 2184.74,218.636 "/>
<path clip-path="url(#clip580)" d="M2221.7 238.323 Q2219.9 242.953 2218.18 244.365 Q2216.47 245.777 2213.6 245.777 L2210.2 245.777 L2210.2 242.212 L2212.7 242.212 Q2214.46 242.212 2215.43 241.379 Q2216.4 240.545 2217.58 237.443 L2218.35 235.499 L2207.86 209.99 L2212.37 209.99 L2220.48 230.268 L2228.58 209.99 L2233.09 209.99 L2221.7 238.323 Z" fill="#000000" fill-rule="nonzero" fill-opacity="1" /><path clip-path="url(#clip580)" d="M2240.38 231.981 L2248.02 231.981 L2248.02 205.615 L2239.71 207.282 L2239.71 203.022 L2247.98 201.356 L2252.65 201.356 L2252.65 231.981 L2260.29 231.981 L2260.29 235.916 L2240.38 235.916 L2240.38 231.981 Z" fill="#000000" fill-rule="nonzero" fill-opacity="1" /></svg>
