<?xml version="1.0" encoding="utf-8"?>
<svg xmlns="http://www.w3.org/2000/svg" xmlns:xlink="http://www.w3.org/1999/xlink" width="600" height="400" viewBox="0 0 2400 1600">
<defs>
  <clipPath id="clip860">
    <rect x="0" y="0" width="2400" height="1600"/>
  </clipPath>
</defs>
<path clip-path="url(#clip860)" d="M0 1600 L2400 1600 L2400 8.88178e-14 L0 8.88178e-14  Z" fill="#ffffff" fill-rule="evenodd" fill-opacity="1"/>
<defs>
  <clipPath id="clip861">
    <rect x="219" y="123" width="2134" height="1301"/>
  </clipPath>
</defs>
<path clip-path="url(#clip860)" d="M219.38 1423.18 L2352.76 1423.18 L2352.76 123.472 L219.38 123.472  Z" fill="#ffffff" fill-rule="evenodd" fill-opacity="1"/>
<polyline clip-path="url(#clip861)" style="stroke:#000000; stroke-linecap:round; stroke-linejoin:round; stroke-width:2; stroke-opacity:0.1; fill:none" points="277.742,1423.18 277.742,123.472 "/>
<polyline clip-path="url(#clip861)" style="stroke:#000000; stroke-linecap:round; stroke-linejoin:round; stroke-width:2; stroke-opacity:0.1; fill:none" points="781.401,1423.18 781.401,123.472 "/>
<polyline clip-path="url(#clip861)" style="stroke:#000000; stroke-linecap:round; stroke-linejoin:round; stroke-width:2; stroke-opacity:0.1; fill:none" points="1285.06,1423.18 1285.06,123.472 "/>
<polyline clip-path="url(#clip861)" style="stroke:#000000; stroke-linecap:round; stroke-linejoin:round; stroke-width:2; stroke-opacity:0.1; fill:none" points="1788.72,1423.18 1788.72,123.472 "/>
<polyline clip-path="url(#clip861)" style="stroke:#000000; stroke-linecap:round; stroke-linejoin:round; stroke-width:2; stroke-opacity:0.1; fill:none" points="2292.38,1423.18 2292.38,123.472 "/>
<polyline clip-path="url(#clip861)" style="stroke:#000000; stroke-linecap:round; stroke-linejoin:round; stroke-width:2; stroke-opacity:0.1; fill:none" points="219.38,1392.57 2352.76,1392.57 "/>
<polyline clip-path="url(#clip861)" style="stroke:#000000; stroke-linecap:round; stroke-linejoin:round; stroke-width:2; stroke-opacity:0.1; fill:none" points="219.38,1084.49 2352.76,1084.49 "/>
<polyline clip-path="url(#clip861)" style="stroke:#000000; stroke-linecap:round; stroke-linejoin:round; stroke-width:2; stroke-opacity:0.1; fill:none" points="219.38,776.411 2352.76,776.411 "/>
<polyline clip-path="url(#clip861)" style="stroke:#000000; stroke-linecap:round; stroke-linejoin:round; stroke-width:2; stroke-opacity:0.1; fill:none" points="219.38,468.333 2352.76,468.333 "/>
<polyline clip-path="url(#clip861)" style="stroke:#000000; stroke-linecap:round; stroke-linejoin:round; stroke-width:2; stroke-opacity:0.1; fill:none" points="219.38,160.255 2352.76,160.255 "/>
<polyline clip-path="url(#clip860)" style="stroke:#000000; stroke-linecap:round; stroke-linejoin:round; stroke-width:4; stroke-opacity:1; fill:none" points="219.38,1423.18 2352.76,1423.18 "/>
<polyline clip-path="url(#clip860)" style="stroke:#000000; stroke-linecap:round; stroke-linejoin:round; stroke-width:4; stroke-opacity:1; fill:none" points="277.742,1423.18 277.742,1404.28 "/>
<polyline clip-path="url(#clip860)" style="stroke:#000000; stroke-linecap:round; stroke-linejoin:round; stroke-width:4; stroke-opacity:1; fill:none" points="781.401,1423.18 781.401,1404.28 "/>
<polyline clip-path="url(#clip860)" style="stroke:#000000; stroke-linecap:round; stroke-linejoin:round; stroke-width:4; stroke-opacity:1; fill:none" points="1285.06,1423.18 1285.06,1404.28 "/>
<polyline clip-path="url(#clip860)" style="stroke:#000000; stroke-linecap:round; stroke-linejoin:round; stroke-width:4; stroke-opacity:1; fill:none" points="1788.72,1423.18 1788.72,1404.28 "/>
<polyline clip-path="url(#clip860)" style="stroke:#000000; stroke-linecap:round; stroke-linejoin:round; stroke-width:4; stroke-opacity:1; fill:none" points="2292.38,1423.18 2292.38,1404.28 "/>
<path clip-path="url(#clip860)" d="M255.126 1454.1 Q251.515 1454.1 249.687 1457.66 Q247.881 1461.2 247.881 1468.33 Q247.881 1475.44 249.687 1479.01 Q251.515 1482.55 255.126 1482.55 Q258.761 1482.55 260.566 1479.01 Q262.395 1475.44 262.395 1468.33 Q262.395 1461.2 260.566 1457.66 Q258.761 1454.1 255.126 1454.1 M255.126 1450.39 Q260.937 1450.39 263.992 1455 Q267.071 1459.58 267.071 1468.33 Q267.071 1477.06 263.992 1481.67 Q260.937 1486.25 255.126 1486.25 Q249.316 1486.25 246.238 1481.67 Q243.182 1477.06 243.182 1468.33 Q243.182 1459.58 246.238 1455 Q249.316 1450.39 255.126 1450.39 Z" fill="#000000" fill-rule="nonzero" fill-opacity="1" /><path clip-path="url(#clip860)" d="M275.288 1479.7 L280.173 1479.7 L280.173 1485.58 L275.288 1485.58 L275.288 1479.7 Z" fill="#000000" fill-rule="nonzero" fill-opacity="1" /><path clip-path="url(#clip860)" d="M300.358 1454.1 Q296.747 1454.1 294.918 1457.66 Q293.112 1461.2 293.112 1468.33 Q293.112 1475.44 294.918 1479.01 Q296.747 1482.55 300.358 1482.55 Q303.992 1482.55 305.797 1479.01 Q307.626 1475.44 307.626 1468.33 Q307.626 1461.2 305.797 1457.66 Q303.992 1454.1 300.358 1454.1 M300.358 1450.39 Q306.168 1450.39 309.223 1455 Q312.302 1459.58 312.302 1468.33 Q312.302 1477.06 309.223 1481.67 Q306.168 1486.25 300.358 1486.25 Q294.548 1486.25 291.469 1481.67 Q288.413 1477.06 288.413 1468.33 Q288.413 1459.58 291.469 1455 Q294.548 1450.39 300.358 1450.39 Z" fill="#000000" fill-rule="nonzero" fill-opacity="1" /><path clip-path="url(#clip860)" d="M753.137 1481.64 L769.457 1481.64 L769.457 1485.58 L747.512 1485.58 L747.512 1481.64 Q750.174 1478.89 754.758 1474.26 Q759.364 1469.61 760.545 1468.27 Q762.79 1465.74 763.669 1464.01 Q764.572 1462.25 764.572 1460.56 Q764.572 1457.8 762.628 1456.07 Q760.707 1454.33 757.605 1454.33 Q755.406 1454.33 752.952 1455.09 Q750.521 1455.86 747.744 1457.41 L747.744 1452.69 Q750.568 1451.55 753.021 1450.97 Q755.475 1450.39 757.512 1450.39 Q762.882 1450.39 766.077 1453.08 Q769.271 1455.77 769.271 1460.26 Q769.271 1462.39 768.461 1464.31 Q767.674 1466.2 765.568 1468.8 Q764.989 1469.47 761.887 1472.69 Q758.785 1475.88 753.137 1481.64 Z" fill="#000000" fill-rule="nonzero" fill-opacity="1" /><path clip-path="url(#clip860)" d="M779.271 1479.7 L784.155 1479.7 L784.155 1485.58 L779.271 1485.58 L779.271 1479.7 Z" fill="#000000" fill-rule="nonzero" fill-opacity="1" /><path clip-path="url(#clip860)" d="M794.387 1451.02 L812.743 1451.02 L812.743 1454.96 L798.669 1454.96 L798.669 1463.43 Q799.688 1463.08 800.706 1462.92 Q801.725 1462.73 802.743 1462.73 Q808.53 1462.73 811.91 1465.9 Q815.29 1469.08 815.29 1474.49 Q815.29 1480.07 811.817 1483.17 Q808.345 1486.25 802.026 1486.25 Q799.85 1486.25 797.581 1485.88 Q795.336 1485.51 792.929 1484.77 L792.929 1480.07 Q795.012 1481.2 797.234 1481.76 Q799.456 1482.32 801.933 1482.32 Q805.938 1482.32 808.276 1480.21 Q810.614 1478.1 810.614 1474.49 Q810.614 1470.88 808.276 1468.77 Q805.938 1466.67 801.933 1466.67 Q800.058 1466.67 798.183 1467.08 Q796.331 1467.5 794.387 1468.38 L794.387 1451.02 Z" fill="#000000" fill-rule="nonzero" fill-opacity="1" /><path clip-path="url(#clip860)" d="M1252.22 1451.02 L1270.58 1451.02 L1270.58 1454.96 L1256.51 1454.96 L1256.51 1463.43 Q1257.53 1463.08 1258.54 1462.92 Q1259.56 1462.73 1260.58 1462.73 Q1266.37 1462.73 1269.75 1465.9 Q1273.13 1469.08 1273.13 1474.49 Q1273.13 1480.07 1269.65 1483.17 Q1266.18 1486.25 1259.86 1486.25 Q1257.69 1486.25 1255.42 1485.88 Q1253.17 1485.51 1250.77 1484.77 L1250.77 1480.07 Q1252.85 1481.2 1255.07 1481.76 Q1257.29 1482.32 1259.77 1482.32 Q1263.78 1482.32 1266.11 1480.21 Q1268.45 1478.1 1268.45 1474.49 Q1268.45 1470.88 1266.11 1468.77 Q1263.78 1466.67 1259.77 1466.67 Q1257.9 1466.67 1256.02 1467.08 Q1254.17 1467.5 1252.22 1468.38 L1252.22 1451.02 Z" fill="#000000" fill-rule="nonzero" fill-opacity="1" /><path clip-path="url(#clip860)" d="M1282.34 1479.7 L1287.22 1479.7 L1287.22 1485.58 L1282.34 1485.58 L1282.34 1479.7 Z" fill="#000000" fill-rule="nonzero" fill-opacity="1" /><path clip-path="url(#clip860)" d="M1307.41 1454.1 Q1303.8 1454.1 1301.97 1457.66 Q1300.16 1461.2 1300.16 1468.33 Q1300.16 1475.44 1301.97 1479.01 Q1303.8 1482.55 1307.41 1482.55 Q1311.04 1482.55 1312.85 1479.01 Q1314.68 1475.44 1314.68 1468.33 Q1314.68 1461.2 1312.85 1457.66 Q1311.04 1454.1 1307.41 1454.1 M1307.41 1450.39 Q1313.22 1450.39 1316.27 1455 Q1319.35 1459.58 1319.35 1468.33 Q1319.35 1477.06 1316.27 1481.67 Q1313.22 1486.25 1307.41 1486.25 Q1301.6 1486.25 1298.52 1481.67 Q1295.46 1477.06 1295.46 1468.33 Q1295.46 1459.58 1298.52 1455 Q1301.6 1450.39 1307.41 1450.39 Z" fill="#000000" fill-rule="nonzero" fill-opacity="1" /><path clip-path="url(#clip860)" d="M1755.04 1451.02 L1777.26 1451.02 L1777.26 1453.01 L1764.71 1485.58 L1759.83 1485.58 L1771.64 1454.96 L1755.04 1454.96 L1755.04 1451.02 Z" fill="#000000" fill-rule="nonzero" fill-opacity="1" /><path clip-path="url(#clip860)" d="M1786.38 1479.7 L1791.26 1479.7 L1791.26 1485.58 L1786.38 1485.58 L1786.38 1479.7 Z" fill="#000000" fill-rule="nonzero" fill-opacity="1" /><path clip-path="url(#clip860)" d="M1801.5 1451.02 L1819.85 1451.02 L1819.85 1454.96 L1805.78 1454.96 L1805.78 1463.43 Q1806.8 1463.08 1807.82 1462.92 Q1808.83 1462.73 1809.85 1462.73 Q1815.64 1462.73 1819.02 1465.9 Q1822.4 1469.08 1822.4 1474.49 Q1822.4 1480.07 1818.93 1483.17 Q1815.45 1486.25 1809.14 1486.25 Q1806.96 1486.25 1804.69 1485.88 Q1802.45 1485.51 1800.04 1484.77 L1800.04 1480.07 Q1802.12 1481.2 1804.34 1481.76 Q1806.57 1482.32 1809.04 1482.32 Q1813.05 1482.32 1815.39 1480.21 Q1817.72 1478.1 1817.72 1474.49 Q1817.72 1470.88 1815.39 1468.77 Q1813.05 1466.67 1809.04 1466.67 Q1807.17 1466.67 1805.29 1467.08 Q1803.44 1467.5 1801.5 1468.38 L1801.5 1451.02 Z" fill="#000000" fill-rule="nonzero" fill-opacity="1" /><path clip-path="url(#clip860)" d="M2244.45 1481.64 L2252.09 1481.64 L2252.09 1455.28 L2243.78 1456.95 L2243.78 1452.69 L2252.04 1451.02 L2256.72 1451.02 L2256.72 1481.64 L2264.36 1481.64 L2264.36 1485.58 L2244.45 1485.58 L2244.45 1481.64 Z" fill="#000000" fill-rule="nonzero" fill-opacity="1" /><path clip-path="url(#clip860)" d="M2283.8 1454.1 Q2280.19 1454.1 2278.36 1457.66 Q2276.56 1461.2 2276.56 1468.33 Q2276.56 1475.44 2278.36 1479.01 Q2280.19 1482.55 2283.8 1482.55 Q2287.44 1482.55 2289.24 1479.01 Q2291.07 1475.44 2291.07 1468.33 Q2291.07 1461.2 2289.24 1457.66 Q2287.44 1454.1 2283.8 1454.1 M2283.8 1450.39 Q2289.61 1450.39 2292.67 1455 Q2295.75 1459.58 2295.75 1468.33 Q2295.75 1477.06 2292.67 1481.67 Q2289.61 1486.25 2283.8 1486.25 Q2277.99 1486.25 2274.91 1481.67 Q2271.86 1477.06 2271.86 1468.33 Q2271.86 1459.58 2274.91 1455 Q2277.99 1450.39 2283.8 1450.39 Z" fill="#000000" fill-rule="nonzero" fill-opacity="1" /><path clip-path="url(#clip860)" d="M2303.96 1479.7 L2308.85 1479.7 L2308.85 1485.58 L2303.96 1485.58 L2303.96 1479.7 Z" fill="#000000" fill-rule="nonzero" fill-opacity="1" /><path clip-path="url(#clip860)" d="M2329.03 1454.1 Q2325.42 1454.1 2323.59 1457.66 Q2321.79 1461.2 2321.79 1468.33 Q2321.79 1475.44 2323.59 1479.01 Q2325.42 1482.55 2329.03 1482.55 Q2332.67 1482.55 2334.47 1479.01 Q2336.3 1475.44 2336.3 1468.33 Q2336.3 1461.2 2334.47 1457.66 Q2332.67 1454.1 2329.03 1454.1 M2329.03 1450.39 Q2334.84 1450.39 2337.9 1455 Q2340.98 1459.58 2340.98 1468.33 Q2340.98 1477.06 2337.9 1481.67 Q2334.84 1486.25 2329.03 1486.25 Q2323.22 1486.25 2320.14 1481.67 Q2317.09 1477.06 2317.09 1468.33 Q2317.09 1459.58 2320.14 1455 Q2323.22 1450.39 2329.03 1450.39 Z" fill="#000000" fill-rule="nonzero" fill-opacity="1" /><path clip-path="url(#clip860)" d="M1296.51 1537.87 Q1295.52 1537.3 1294.34 1537.04 Q1293.2 1536.76 1291.8 1536.76 Q1286.83 1536.76 1284.16 1540 Q1281.52 1543.22 1281.52 1549.27 L1281.52 1568.04 L1275.63 1568.04 L1275.63 1532.4 L1281.52 1532.4 L1281.52 1537.93 Q1283.36 1534.69 1286.32 1533.13 Q1289.28 1531.54 1293.52 1531.54 Q1294.12 1531.54 1294.85 1531.63 Q1295.58 1531.7 1296.48 1531.85 L1296.51 1537.87 Z" fill="#000000" fill-rule="nonzero" fill-opacity="1" /><polyline clip-path="url(#clip860)" style="stroke:#000000; stroke-linecap:round; stroke-linejoin:round; stroke-width:4; stroke-opacity:1; fill:none" points="219.38,1423.18 219.38,123.472 "/>
<polyline clip-path="url(#clip860)" style="stroke:#000000; stroke-linecap:round; stroke-linejoin:round; stroke-width:4; stroke-opacity:1; fill:none" points="219.38,1392.57 238.278,1392.57 "/>
<polyline clip-path="url(#clip860)" style="stroke:#000000; stroke-linecap:round; stroke-linejoin:round; stroke-width:4; stroke-opacity:1; fill:none" points="219.38,1084.49 238.278,1084.49 "/>
<polyline clip-path="url(#clip860)" style="stroke:#000000; stroke-linecap:round; stroke-linejoin:round; stroke-width:4; stroke-opacity:1; fill:none" points="219.38,776.411 238.278,776.411 "/>
<polyline clip-path="url(#clip860)" style="stroke:#000000; stroke-linecap:round; stroke-linejoin:round; stroke-width:4; stroke-opacity:1; fill:none" points="219.38,468.333 238.278,468.333 "/>
<polyline clip-path="url(#clip860)" style="stroke:#000000; stroke-linecap:round; stroke-linejoin:round; stroke-width:4; stroke-opacity:1; fill:none" points="219.38,160.255 238.278,160.255 "/>
<path clip-path="url(#clip860)" d="M126.205 1378.37 Q122.593 1378.37 120.765 1381.93 Q118.959 1385.47 118.959 1392.6 Q118.959 1399.71 120.765 1403.27 Q122.593 1406.81 126.205 1406.81 Q129.839 1406.81 131.644 1403.27 Q133.473 1399.71 133.473 1392.6 Q133.473 1385.47 131.644 1381.93 Q129.839 1378.37 126.205 1378.37 M126.205 1374.66 Q132.015 1374.66 135.07 1379.27 Q138.149 1383.85 138.149 1392.6 Q138.149 1401.33 135.07 1405.94 Q132.015 1410.52 126.205 1410.52 Q120.394 1410.52 117.316 1405.94 Q114.26 1401.33 114.26 1392.6 Q114.26 1383.85 117.316 1379.27 Q120.394 1374.66 126.205 1374.66 Z" fill="#000000" fill-rule="nonzero" fill-opacity="1" /><path clip-path="url(#clip860)" d="M146.366 1403.97 L151.251 1403.97 L151.251 1409.85 L146.366 1409.85 L146.366 1403.97 Z" fill="#000000" fill-rule="nonzero" fill-opacity="1" /><path clip-path="url(#clip860)" d="M171.436 1378.37 Q167.825 1378.37 165.996 1381.93 Q164.19 1385.47 164.19 1392.6 Q164.19 1399.71 165.996 1403.27 Q167.825 1406.81 171.436 1406.81 Q175.07 1406.81 176.876 1403.27 Q178.704 1399.71 178.704 1392.6 Q178.704 1385.47 176.876 1381.93 Q175.07 1378.37 171.436 1378.37 M171.436 1374.66 Q177.246 1374.66 180.301 1379.27 Q183.38 1383.85 183.38 1392.6 Q183.38 1401.33 180.301 1405.94 Q177.246 1410.52 171.436 1410.52 Q165.626 1410.52 162.547 1405.94 Q159.491 1401.33 159.491 1392.6 Q159.491 1383.85 162.547 1379.27 Q165.626 1374.66 171.436 1374.66 Z" fill="#000000" fill-rule="nonzero" fill-opacity="1" /><path clip-path="url(#clip860)" d="M127.2 1070.29 Q123.589 1070.29 121.76 1073.85 Q119.955 1077.39 119.955 1084.52 Q119.955 1091.63 121.76 1095.2 Q123.589 1098.74 127.2 1098.74 Q130.834 1098.74 132.64 1095.2 Q134.468 1091.63 134.468 1084.52 Q134.468 1077.39 132.64 1073.85 Q130.834 1070.29 127.2 1070.29 M127.2 1066.58 Q133.01 1066.58 136.066 1071.19 Q139.144 1075.77 139.144 1084.52 Q139.144 1093.25 136.066 1097.86 Q133.01 1102.44 127.2 1102.44 Q121.39 1102.44 118.311 1097.86 Q115.256 1093.25 115.256 1084.52 Q115.256 1075.77 118.311 1071.19 Q121.39 1066.58 127.2 1066.58 Z" fill="#000000" fill-rule="nonzero" fill-opacity="1" /><path clip-path="url(#clip860)" d="M147.362 1095.89 L152.246 1095.89 L152.246 1101.77 L147.362 1101.77 L147.362 1095.89 Z" fill="#000000" fill-rule="nonzero" fill-opacity="1" /><path clip-path="url(#clip860)" d="M162.477 1067.21 L180.834 1067.21 L180.834 1071.14 L166.76 1071.14 L166.76 1079.62 Q167.778 1079.27 168.797 1079.11 Q169.815 1078.92 170.834 1078.92 Q176.621 1078.92 180.001 1082.09 Q183.38 1085.26 183.38 1090.68 Q183.38 1096.26 179.908 1099.36 Q176.436 1102.44 170.116 1102.44 Q167.94 1102.44 165.672 1102.07 Q163.427 1101.7 161.019 1100.96 L161.019 1096.26 Q163.102 1097.39 165.325 1097.95 Q167.547 1098.51 170.024 1098.51 Q174.028 1098.51 176.366 1096.4 Q178.704 1094.29 178.704 1090.68 Q178.704 1087.07 176.366 1084.96 Q174.028 1082.86 170.024 1082.86 Q168.149 1082.86 166.274 1083.27 Q164.422 1083.69 162.477 1084.57 L162.477 1067.21 Z" fill="#000000" fill-rule="nonzero" fill-opacity="1" /><path clip-path="url(#clip860)" d="M117.015 789.756 L124.654 789.756 L124.654 763.391 L116.343 765.057 L116.343 760.798 L124.607 759.131 L129.283 759.131 L129.283 789.756 L136.922 789.756 L136.922 793.691 L117.015 793.691 L117.015 789.756 Z" fill="#000000" fill-rule="nonzero" fill-opacity="1" /><path clip-path="url(#clip860)" d="M146.366 787.812 L151.251 787.812 L151.251 793.691 L146.366 793.691 L146.366 787.812 Z" fill="#000000" fill-rule="nonzero" fill-opacity="1" /><path clip-path="url(#clip860)" d="M171.436 762.21 Q167.825 762.21 165.996 765.775 Q164.19 769.317 164.19 776.446 Q164.19 783.553 165.996 787.117 Q167.825 790.659 171.436 790.659 Q175.07 790.659 176.876 787.117 Q178.704 783.553 178.704 776.446 Q178.704 769.317 176.876 765.775 Q175.07 762.21 171.436 762.21 M171.436 758.506 Q177.246 758.506 180.301 763.113 Q183.38 767.696 183.38 776.446 Q183.38 785.173 180.301 789.779 Q177.246 794.363 171.436 794.363 Q165.626 794.363 162.547 789.779 Q159.491 785.173 159.491 776.446 Q159.491 767.696 162.547 763.113 Q165.626 758.506 171.436 758.506 Z" fill="#000000" fill-rule="nonzero" fill-opacity="1" /><path clip-path="url(#clip860)" d="M118.01 481.678 L125.649 481.678 L125.649 455.313 L117.339 456.979 L117.339 452.72 L125.603 451.053 L130.279 451.053 L130.279 481.678 L137.917 481.678 L137.917 485.613 L118.01 485.613 L118.01 481.678 Z" fill="#000000" fill-rule="nonzero" fill-opacity="1" /><path clip-path="url(#clip860)" d="M147.362 479.734 L152.246 479.734 L152.246 485.613 L147.362 485.613 L147.362 479.734 Z" fill="#000000" fill-rule="nonzero" fill-opacity="1" /><path clip-path="url(#clip860)" d="M162.477 451.053 L180.834 451.053 L180.834 454.989 L166.76 454.989 L166.76 463.461 Q167.778 463.113 168.797 462.951 Q169.815 462.766 170.834 462.766 Q176.621 462.766 180.001 465.938 Q183.38 469.109 183.38 474.525 Q183.38 480.104 179.908 483.206 Q176.436 486.285 170.116 486.285 Q167.94 486.285 165.672 485.914 Q163.427 485.544 161.019 484.803 L161.019 480.104 Q163.102 481.238 165.325 481.794 Q167.547 482.35 170.024 482.35 Q174.028 482.35 176.366 480.243 Q178.704 478.137 178.704 474.525 Q178.704 470.914 176.366 468.808 Q174.028 466.701 170.024 466.701 Q168.149 466.701 166.274 467.118 Q164.422 467.535 162.477 468.414 L162.477 451.053 Z" fill="#000000" fill-rule="nonzero" fill-opacity="1" /><path clip-path="url(#clip860)" d="M120.232 173.6 L136.552 173.6 L136.552 177.535 L114.607 177.535 L114.607 173.6 Q117.269 170.846 121.853 166.216 Q126.459 161.563 127.64 160.221 Q129.885 157.698 130.765 155.961 Q131.667 154.202 131.667 152.512 Q131.667 149.758 129.723 148.022 Q127.802 146.286 124.7 146.286 Q122.501 146.286 120.047 147.049 Q117.617 147.813 114.839 149.364 L114.839 144.642 Q117.663 143.508 120.117 142.929 Q122.57 142.35 124.607 142.35 Q129.978 142.35 133.172 145.036 Q136.367 147.721 136.367 152.211 Q136.367 154.341 135.556 156.262 Q134.769 158.16 132.663 160.753 Q132.084 161.424 128.982 164.642 Q125.88 167.836 120.232 173.6 Z" fill="#000000" fill-rule="nonzero" fill-opacity="1" /><path clip-path="url(#clip860)" d="M146.366 171.656 L151.251 171.656 L151.251 177.535 L146.366 177.535 L146.366 171.656 Z" fill="#000000" fill-rule="nonzero" fill-opacity="1" /><path clip-path="url(#clip860)" d="M171.436 146.054 Q167.825 146.054 165.996 149.619 Q164.19 153.16 164.19 160.29 Q164.19 167.397 165.996 170.961 Q167.825 174.503 171.436 174.503 Q175.07 174.503 176.876 170.961 Q178.704 167.397 178.704 160.29 Q178.704 153.16 176.876 149.619 Q175.07 146.054 171.436 146.054 M171.436 142.35 Q177.246 142.35 180.301 146.957 Q183.38 151.54 183.38 160.29 Q183.38 169.017 180.301 173.623 Q177.246 178.207 171.436 178.207 Q165.626 178.207 162.547 173.623 Q159.491 169.017 159.491 160.29 Q159.491 151.54 162.547 146.957 Q165.626 142.35 171.436 142.35 Z" fill="#000000" fill-rule="nonzero" fill-opacity="1" /><path clip-path="url(#clip860)" d="M48.7895 799.696 Q52.0423 799.696 55.2951 801.37 Q58.5479 803.045 61.06 805.782 Q63.5398 808.52 65.1501 812.256 Q66.7604 815.992 66.8892 819.889 L76.712 822.401 Q79.0953 822.884 79.3529 823.141 Q79.6106 823.399 79.6106 823.786 Q79.6106 824.591 78.8698 824.591 Q78.6444 824.591 73.0728 823.141 L66.8892 821.596 Q66.5672 827.457 63.1856 830.871 Q59.804 834.285 54.9409 834.285 Q51.6559 834.285 48.4031 832.61 Q45.1181 830.903 42.6382 828.166 Q40.1584 825.396 38.5803 821.66 Q37.0022 817.924 36.8734 814.092 L21.64 810.259 Q20.7704 810.066 20.545 809.905 Q20.3196 809.744 20.3196 809.261 Q20.3196 808.906 20.4806 808.713 Q20.6416 808.52 20.8027 808.52 L20.9637 808.488 L21.8977 808.681 L36.8734 812.385 Q37.0988 809.1 38.2582 806.555 Q39.4176 804.011 41.1568 802.562 Q42.8637 801.113 44.796 800.404 Q46.7284 799.696 48.7895 799.696 M38.3226 814.478 Q38.6447 818.021 40.3838 821.016 Q42.1229 824.011 44.6994 825.943 Q47.2437 827.876 50.3032 828.938 Q53.3306 830.001 56.3257 830.001 Q58.6767 830.001 60.4803 829.228 Q62.2838 828.423 63.3144 827.103 Q64.3128 825.782 64.8603 824.333 Q65.3756 822.852 65.44 821.273 L38.3226 814.478 M47.4047 804.011 Q43.2179 804.011 40.8669 806.427 Q38.5159 808.842 38.3226 812.771 L65.44 819.567 Q65.2145 816.7 64.0229 814.188 Q62.7991 811.644 60.9956 809.808 Q59.1598 807.972 56.9054 806.652 Q54.6188 805.332 52.2034 804.687 Q49.7557 804.011 47.4047 804.011 Z" fill="#000000" fill-rule="nonzero" fill-opacity="1" /><path clip-path="url(#clip860)" d="M49.5947 790.88 Q38.4515 790.88 29.466 786.726 Q25.6979 784.955 22.5418 782.475 Q19.3856 779.995 18.0007 778.352 Q16.6159 776.71 16.6159 776.259 Q16.6159 775.615 17.26 775.583 Q17.5821 775.583 18.3872 776.452 Q29.2084 787.08 49.5947 787.048 Q70.0454 787.048 80.4479 776.71 Q81.5751 775.583 81.9294 775.583 Q82.5735 775.583 82.5735 776.259 Q82.5735 776.71 81.2531 778.288 Q79.9326 779.866 76.9053 782.314 Q73.8779 784.761 70.1742 786.533 Q61.1888 790.88 49.5947 790.88 Z" fill="#000000" fill-rule="nonzero" fill-opacity="1" /><path clip-path="url(#clip860)" d="M41.2212 743.709 Q42.9281 743.709 44.0231 744.837 Q45.1181 745.932 45.1181 747.349 Q45.1181 748.572 44.4096 749.217 Q43.701 749.861 42.7993 749.861 Q41.511 749.861 40.4482 748.862 Q39.3854 747.864 39.16 746.415 Q38.3871 747.477 38.3871 749.184 Q38.3871 751.986 40.5448 754.466 Q41.5432 755.561 43.379 756.753 Q45.1825 757.944 45.9554 758.17 L54.5544 760.263 Q55.5206 760.456 60.1582 761.648 Q64.7637 762.807 64.9569 762.904 Q65.8587 763.226 66.3417 763.935 Q66.8248 764.643 66.8248 765.352 Q66.8248 766.157 66.3417 766.704 Q65.8587 767.252 65.0213 767.252 Q64.8925 767.252 64.4094 767.155 Q63.9263 767.059 63.25 766.898 Q62.5737 766.737 62.1872 766.672 L46.9538 762.84 Q44.1841 762.131 43.3146 761.97 Q42.4128 761.777 41.4144 761.777 Q39.6753 761.777 39.0312 762.324 Q38.3871 762.872 38.3871 763.838 Q38.3871 765.513 40.3838 766.608 Q42.3806 767.703 46.2453 768.637 Q47.3081 768.927 47.5335 769.12 Q47.759 769.281 47.759 769.764 Q47.7268 770.569 47.0826 770.569 Q46.9216 770.569 45.891 770.311 Q44.8282 770.054 43.2823 769.571 Q41.7043 769.055 40.7059 768.508 Q40.0296 768.186 39.5787 767.896 Q39.1278 767.606 38.4193 767.026 Q37.7107 766.447 37.3243 765.577 Q36.9378 764.708 36.9378 763.645 Q36.9378 761.326 38.3548 759.683 Q39.7719 758.009 41.9941 757.622 Q40.8347 756.817 39.8363 755.819 Q38.8057 754.82 37.8718 752.985 Q36.9378 751.149 36.9378 749.184 Q36.9378 746.737 38.1938 745.223 Q39.4176 743.709 41.2212 743.709 Z" fill="#000000" fill-rule="nonzero" fill-opacity="1" /><path clip-path="url(#clip860)" d="M81.9294 737.695 Q81.6073 737.695 80.8022 736.857 Q69.981 726.229 49.5947 726.229 Q29.144 726.229 18.8059 736.439 Q17.6143 737.695 17.26 737.695 Q16.6159 737.695 16.6159 737.051 Q16.6159 736.6 17.9363 735.022 Q19.2568 733.411 22.2841 730.996 Q25.3115 728.548 29.0151 726.745 Q38.0006 722.397 49.5947 722.397 Q60.7379 722.397 69.7234 726.552 Q73.4914 728.323 76.6476 730.803 Q79.8038 733.283 81.1886 734.925 Q82.5735 736.568 82.5735 737.051 Q82.5735 737.695 81.9294 737.695 Z" fill="#000000" fill-rule="nonzero" fill-opacity="1" /><path clip-path="url(#clip860)" d="M616.737 18.8205 L616.737 41.5461 L627.026 41.5461 Q632.738 41.5461 635.857 38.5889 Q638.977 35.6318 638.977 30.163 Q638.977 24.7348 635.857 21.7777 Q632.738 18.8205 627.026 18.8205 L616.737 18.8205 M608.554 12.096 L627.026 12.096 Q637.194 12.096 642.379 16.714 Q647.605 21.2916 647.605 30.163 Q647.605 39.1155 642.379 43.6931 Q637.194 48.2706 627.026 48.2706 L616.737 48.2706 L616.737 72.576 L608.554 72.576 L608.554 12.096 Z" fill="#000000" fill-rule="nonzero" fill-opacity="1" /><path clip-path="url(#clip860)" d="M694.109 48.0275 L694.109 51.6733 L659.839 51.6733 Q660.325 59.3701 664.457 63.421 Q668.629 67.4314 676.042 67.4314 Q680.336 67.4314 684.347 66.3781 Q688.398 65.3249 692.368 63.2184 L692.368 70.267 Q688.357 71.9684 684.144 72.8596 Q679.931 73.7508 675.597 73.7508 Q664.74 73.7508 658.38 67.4314 Q652.061 61.1119 652.061 50.3365 Q652.061 39.1965 658.056 32.6746 Q664.092 26.1121 674.3 26.1121 Q683.456 26.1121 688.762 32.0264 Q694.109 37.9003 694.109 48.0275 M686.656 45.84 Q686.575 39.7232 683.212 36.0774 Q679.891 32.4315 674.381 32.4315 Q668.143 32.4315 664.376 35.9558 Q660.649 39.4801 660.082 45.8805 L686.656 45.84 Z" fill="#000000" fill-rule="nonzero" fill-opacity="1" /><path clip-path="url(#clip860)" d="M744.057 45.1919 L744.057 72.576 L736.603 72.576 L736.603 45.4349 Q736.603 38.994 734.092 35.7938 Q731.58 32.5936 726.557 32.5936 Q720.521 32.5936 717.038 36.4419 Q713.554 40.2903 713.554 46.9338 L713.554 72.576 L706.06 72.576 L706.06 27.2059 L713.554 27.2059 L713.554 34.2544 Q716.227 30.163 719.833 28.1376 Q723.478 26.1121 728.218 26.1121 Q736.036 26.1121 740.047 30.9732 Q744.057 35.7938 744.057 45.1919 Z" fill="#000000" fill-rule="nonzero" fill-opacity="1" /><path clip-path="url(#clip860)" d="M777.801 76.7889 Q774.641 84.8907 771.644 87.3618 Q768.646 89.8329 763.623 89.8329 L757.668 89.8329 L757.668 83.5945 L762.043 83.5945 Q765.122 83.5945 766.823 82.1361 Q768.525 80.6778 770.59 75.2496 L771.927 71.8468 L753.577 27.2059 L761.476 27.2059 L775.654 62.6918 L789.832 27.2059 L797.732 27.2059 L777.801 76.7889 Z" fill="#000000" fill-rule="nonzero" fill-opacity="1" /><path clip-path="url(#clip860)" d="M846.828 48.0275 L846.828 51.6733 L812.558 51.6733 Q813.044 59.3701 817.176 63.421 Q821.348 67.4314 828.761 67.4314 Q833.055 67.4314 837.066 66.3781 Q841.117 65.3249 845.087 63.2184 L845.087 70.267 Q841.076 71.9684 836.863 72.8596 Q832.65 73.7508 828.316 73.7508 Q817.459 73.7508 811.1 67.4314 Q804.78 61.1119 804.78 50.3365 Q804.78 39.1965 810.775 32.6746 Q816.811 26.1121 827.02 26.1121 Q836.175 26.1121 841.481 32.0264 Q846.828 37.9003 846.828 48.0275 M839.375 45.84 Q839.294 39.7232 835.932 36.0774 Q832.61 32.4315 827.101 32.4315 Q820.862 32.4315 817.095 35.9558 Q813.368 39.4801 812.801 45.8805 L839.375 45.84 Z" fill="#000000" fill-rule="nonzero" fill-opacity="1" /><path clip-path="url(#clip860)" d="M859.062 9.54393 L866.516 9.54393 L866.516 72.576 L859.062 72.576 L859.062 9.54393 Z" fill="#000000" fill-rule="nonzero" fill-opacity="1" /><path clip-path="url(#clip860)" d="M920.92 48.0275 L920.92 51.6733 L886.649 51.6733 Q887.135 59.3701 891.267 63.421 Q895.439 67.4314 902.852 67.4314 Q907.146 67.4314 911.157 66.3781 Q915.208 65.3249 919.178 63.2184 L919.178 70.267 Q915.167 71.9684 910.954 72.8596 Q906.741 73.7508 902.407 73.7508 Q891.55 73.7508 885.191 67.4314 Q878.871 61.1119 878.871 50.3365 Q878.871 39.1965 884.866 32.6746 Q890.902 26.1121 901.111 26.1121 Q910.266 26.1121 915.572 32.0264 Q920.92 37.9003 920.92 48.0275 M913.466 45.84 Q913.385 39.7232 910.023 36.0774 Q906.701 32.4315 901.192 32.4315 Q894.953 32.4315 891.186 35.9558 Q887.459 39.4801 886.892 45.8805 L913.466 45.84 Z" fill="#000000" fill-rule="nonzero" fill-opacity="1" /><path clip-path="url(#clip860)" d="M962.077 28.5427 L962.077 35.5912 Q958.917 33.9709 955.514 33.1607 Q952.111 32.3505 948.466 32.3505 Q942.916 32.3505 940.121 34.0519 Q937.366 35.7533 937.366 39.156 Q937.366 41.7486 939.351 43.2475 Q941.336 44.7058 947.331 46.0426 L949.883 46.6097 Q957.823 48.3111 961.145 51.4303 Q964.507 54.509 964.507 60.0587 Q964.507 66.3781 959.484 70.0644 Q954.502 73.7508 945.752 73.7508 Q942.106 73.7508 938.136 73.0216 Q934.206 72.3329 929.832 70.9151 L929.832 63.2184 Q933.963 65.3654 937.974 66.4591 Q941.984 67.5124 945.914 67.5124 Q951.18 67.5124 954.015 65.73 Q956.851 63.9071 956.851 60.6258 Q956.851 57.5877 954.785 55.9673 Q952.76 54.3469 945.833 52.8481 L943.24 52.2405 Q936.313 50.7821 933.234 47.7845 Q930.156 44.7463 930.156 39.4801 Q930.156 33.0797 934.693 29.5959 Q939.23 26.1121 947.574 26.1121 Q951.706 26.1121 955.352 26.7198 Q958.998 27.3274 962.077 28.5427 Z" fill="#000000" fill-rule="nonzero" fill-opacity="1" /><path clip-path="url(#clip860)" d="M996.996 49.7694 Q987.962 49.7694 984.478 51.8354 Q980.994 53.9013 980.994 58.8839 Q980.994 62.8538 983.587 65.2034 Q986.22 67.5124 990.717 67.5124 Q996.914 67.5124 1000.64 63.1374 Q1004.41 58.7219 1004.41 51.4303 L1004.41 49.7694 L996.996 49.7694 M1011.86 46.6907 L1011.86 72.576 L1004.41 72.576 L1004.41 65.6895 Q1001.86 69.8214 998.049 71.8063 Q994.241 73.7508 988.732 73.7508 Q981.764 73.7508 977.632 69.8619 Q973.541 65.9325 973.541 59.3701 Q973.541 51.7138 978.645 47.825 Q983.79 43.9361 993.957 43.9361 L1004.41 43.9361 L1004.41 43.2069 Q1004.41 38.0623 1001.01 35.2672 Q997.644 32.4315 991.527 32.4315 Q987.638 32.4315 983.952 33.3632 Q980.265 34.295 976.863 36.1584 L976.863 29.2718 Q980.954 27.692 984.802 26.9223 Q988.651 26.1121 992.296 26.1121 Q1002.14 26.1121 1007 31.2163 Q1011.86 36.3204 1011.86 46.6907 Z" fill="#000000" fill-rule="nonzero" fill-opacity="1" /><path clip-path="url(#clip860)" d="M1027.22 27.2059 L1034.67 27.2059 L1034.67 72.576 L1027.22 72.576 L1027.22 27.2059 M1027.22 9.54393 L1034.67 9.54393 L1034.67 18.9825 L1027.22 18.9825 L1027.22 9.54393 Z" fill="#000000" fill-rule="nonzero" fill-opacity="1" /><path clip-path="url(#clip860)" d="M1070.88 49.7694 Q1061.85 49.7694 1058.37 51.8354 Q1054.88 53.9013 1054.88 58.8839 Q1054.88 62.8538 1057.48 65.2034 Q1060.11 67.5124 1064.61 67.5124 Q1070.8 67.5124 1074.53 63.1374 Q1078.3 58.7219 1078.3 51.4303 L1078.3 49.7694 L1070.88 49.7694 M1085.75 46.6907 L1085.75 72.576 L1078.3 72.576 L1078.3 65.6895 Q1075.75 69.8214 1071.94 71.8063 Q1068.13 73.7508 1062.62 73.7508 Q1055.65 73.7508 1051.52 69.8619 Q1047.43 65.9325 1047.43 59.3701 Q1047.43 51.7138 1052.53 47.825 Q1057.68 43.9361 1067.85 43.9361 L1078.3 43.9361 L1078.3 43.2069 Q1078.3 38.0623 1074.89 35.2672 Q1071.53 32.4315 1065.42 32.4315 Q1061.53 32.4315 1057.84 33.3632 Q1054.15 34.295 1050.75 36.1584 L1050.75 29.2718 Q1054.84 27.692 1058.69 26.9223 Q1062.54 26.1121 1066.18 26.1121 Q1076.03 26.1121 1080.89 31.2163 Q1085.75 36.3204 1085.75 46.6907 Z" fill="#000000" fill-rule="nonzero" fill-opacity="1" /><path clip-path="url(#clip860)" d="M1138.82 45.1919 L1138.82 72.576 L1131.36 72.576 L1131.36 45.4349 Q1131.36 38.994 1128.85 35.7938 Q1126.34 32.5936 1121.32 32.5936 Q1115.28 32.5936 1111.8 36.4419 Q1108.31 40.2903 1108.31 46.9338 L1108.31 72.576 L1100.82 72.576 L1100.82 27.2059 L1108.31 27.2059 L1108.31 34.2544 Q1110.99 30.163 1114.59 28.1376 Q1118.24 26.1121 1122.98 26.1121 Q1130.8 26.1121 1134.81 30.9732 Q1138.82 35.7938 1138.82 45.1919 Z" fill="#000000" fill-rule="nonzero" fill-opacity="1" /><path clip-path="url(#clip860)" d="M1188.56 18.8205 L1188.56 41.5461 L1198.85 41.5461 Q1204.56 41.5461 1207.68 38.5889 Q1210.8 35.6318 1210.8 30.163 Q1210.8 24.7348 1207.68 21.7777 Q1204.56 18.8205 1198.85 18.8205 L1188.56 18.8205 M1180.38 12.096 L1198.85 12.096 Q1209.02 12.096 1214.2 16.714 Q1219.43 21.2916 1219.43 30.163 Q1219.43 39.1155 1214.2 43.6931 Q1209.02 48.2706 1198.85 48.2706 L1188.56 48.2706 L1188.56 72.576 L1180.38 72.576 L1180.38 12.096 Z" fill="#000000" fill-rule="nonzero" fill-opacity="1" /><path clip-path="url(#clip860)" d="M1265.94 48.0275 L1265.94 51.6733 L1231.66 51.6733 Q1232.15 59.3701 1236.28 63.421 Q1240.45 67.4314 1247.87 67.4314 Q1252.16 67.4314 1256.17 66.3781 Q1260.22 65.3249 1264.19 63.2184 L1264.19 70.267 Q1260.18 71.9684 1255.97 72.8596 Q1251.76 73.7508 1247.42 73.7508 Q1236.57 73.7508 1230.21 67.4314 Q1223.89 61.1119 1223.89 50.3365 Q1223.89 39.1965 1229.88 32.6746 Q1235.92 26.1121 1246.13 26.1121 Q1255.28 26.1121 1260.59 32.0264 Q1265.94 37.9003 1265.94 48.0275 M1258.48 45.84 Q1258.4 39.7232 1255.04 36.0774 Q1251.72 32.4315 1246.21 32.4315 Q1239.97 32.4315 1236.2 35.9558 Q1232.47 39.4801 1231.91 45.8805 L1258.48 45.84 Z" fill="#000000" fill-rule="nonzero" fill-opacity="1" /><path clip-path="url(#clip860)" d="M1304.46 34.1734 Q1303.2 33.4443 1301.7 33.1202 Q1300.25 32.7556 1298.46 32.7556 Q1292.14 32.7556 1288.74 36.8875 Q1285.38 40.9789 1285.38 48.6757 L1285.38 72.576 L1277.89 72.576 L1277.89 27.2059 L1285.38 27.2059 L1285.38 34.2544 Q1287.73 30.1225 1291.5 28.1376 Q1295.26 26.1121 1300.65 26.1121 Q1301.42 26.1121 1302.35 26.2337 Q1303.28 26.3147 1304.42 26.5172 L1304.46 34.1734 Z" fill="#000000" fill-rule="nonzero" fill-opacity="1" /><path clip-path="url(#clip860)" d="M1341.2 28.5427 L1341.2 35.5912 Q1338.04 33.9709 1334.64 33.1607 Q1331.24 32.3505 1327.59 32.3505 Q1322.04 32.3505 1319.24 34.0519 Q1316.49 35.7533 1316.49 39.156 Q1316.49 41.7486 1318.48 43.2475 Q1320.46 44.7058 1326.46 46.0426 L1329.01 46.6097 Q1336.95 48.3111 1340.27 51.4303 Q1343.63 54.509 1343.63 60.0587 Q1343.63 66.3781 1338.61 70.0644 Q1333.63 73.7508 1324.88 73.7508 Q1321.23 73.7508 1317.26 73.0216 Q1313.33 72.3329 1308.96 70.9151 L1308.96 63.2184 Q1313.09 65.3654 1317.1 66.4591 Q1321.11 67.5124 1325.04 67.5124 Q1330.3 67.5124 1333.14 65.73 Q1335.98 63.9071 1335.98 60.6258 Q1335.98 57.5877 1333.91 55.9673 Q1331.88 54.3469 1324.96 52.8481 L1322.36 52.2405 Q1315.44 50.7821 1312.36 47.7845 Q1309.28 44.7463 1309.28 39.4801 Q1309.28 33.0797 1313.82 29.5959 Q1318.35 26.1121 1326.7 26.1121 Q1330.83 26.1121 1334.48 26.7198 Q1338.12 27.3274 1341.2 28.5427 Z" fill="#000000" fill-rule="nonzero" fill-opacity="1" /><path clip-path="url(#clip860)" d="M1376.12 49.7694 Q1367.09 49.7694 1363.6 51.8354 Q1360.12 53.9013 1360.12 58.8839 Q1360.12 62.8538 1362.71 65.2034 Q1365.34 67.5124 1369.84 67.5124 Q1376.04 67.5124 1379.77 63.1374 Q1383.53 58.7219 1383.53 51.4303 L1383.53 49.7694 L1376.12 49.7694 M1390.99 46.6907 L1390.99 72.576 L1383.53 72.576 L1383.53 65.6895 Q1380.98 69.8214 1377.17 71.8063 Q1373.37 73.7508 1367.86 73.7508 Q1360.89 73.7508 1356.76 69.8619 Q1352.66 65.9325 1352.66 59.3701 Q1352.66 51.7138 1357.77 47.825 Q1362.91 43.9361 1373.08 43.9361 L1383.53 43.9361 L1383.53 43.2069 Q1383.53 38.0623 1380.13 35.2672 Q1376.77 32.4315 1370.65 32.4315 Q1366.76 32.4315 1363.08 33.3632 Q1359.39 34.295 1355.99 36.1584 L1355.99 29.2718 Q1360.08 27.692 1363.93 26.9223 Q1367.77 26.1121 1371.42 26.1121 Q1381.26 26.1121 1386.13 31.2163 Q1390.99 36.3204 1390.99 46.6907 Z" fill="#000000" fill-rule="nonzero" fill-opacity="1" /><path clip-path="url(#clip860)" d="M1441.66 35.9153 Q1444.46 30.8922 1448.35 28.5022 Q1452.24 26.1121 1457.5 26.1121 Q1464.59 26.1121 1468.44 31.0947 Q1472.29 36.0368 1472.29 45.1919 L1472.29 72.576 L1464.79 72.576 L1464.79 45.4349 Q1464.79 38.913 1462.48 35.7533 Q1460.18 32.5936 1455.44 32.5936 Q1449.64 32.5936 1446.28 36.4419 Q1442.92 40.2903 1442.92 46.9338 L1442.92 72.576 L1435.42 72.576 L1435.42 45.4349 Q1435.42 38.8725 1433.12 35.7533 Q1430.81 32.5936 1425.99 32.5936 Q1420.27 32.5936 1416.91 36.4824 Q1413.55 40.3308 1413.55 46.9338 L1413.55 72.576 L1406.06 72.576 L1406.06 27.2059 L1413.55 27.2059 L1413.55 34.2544 Q1416.1 30.082 1419.67 28.0971 Q1423.23 26.1121 1428.13 26.1121 Q1433.08 26.1121 1436.52 28.6237 Q1440 31.1352 1441.66 35.9153 Z" fill="#000000" fill-rule="nonzero" fill-opacity="1" /><path clip-path="url(#clip860)" d="M1507.77 49.7694 Q1498.74 49.7694 1495.26 51.8354 Q1491.77 53.9013 1491.77 58.8839 Q1491.77 62.8538 1494.37 65.2034 Q1497 67.5124 1501.5 67.5124 Q1507.69 67.5124 1511.42 63.1374 Q1515.19 58.7219 1515.19 51.4303 L1515.19 49.7694 L1507.77 49.7694 M1522.64 46.6907 L1522.64 72.576 L1515.19 72.576 L1515.19 65.6895 Q1512.64 69.8214 1508.83 71.8063 Q1505.02 73.7508 1499.51 73.7508 Q1492.54 73.7508 1488.41 69.8619 Q1484.32 65.9325 1484.32 59.3701 Q1484.32 51.7138 1489.42 47.825 Q1494.57 43.9361 1504.74 43.9361 L1515.19 43.9361 L1515.19 43.2069 Q1515.19 38.0623 1511.78 35.2672 Q1508.42 32.4315 1502.31 32.4315 Q1498.42 32.4315 1494.73 33.3632 Q1491.04 34.295 1487.64 36.1584 L1487.64 29.2718 Q1491.73 27.692 1495.58 26.9223 Q1499.43 26.1121 1503.07 26.1121 Q1512.92 26.1121 1517.78 31.2163 Q1522.64 36.3204 1522.64 46.6907 Z" fill="#000000" fill-rule="nonzero" fill-opacity="1" /><path clip-path="url(#clip860)" d="M1558.61 49.7694 Q1549.58 49.7694 1546.1 51.8354 Q1542.61 53.9013 1542.61 58.8839 Q1542.61 62.8538 1545.2 65.2034 Q1547.84 67.5124 1552.33 67.5124 Q1558.53 67.5124 1562.26 63.1374 Q1566.03 58.7219 1566.03 51.4303 L1566.03 49.7694 L1558.61 49.7694 M1573.48 46.6907 L1573.48 72.576 L1566.03 72.576 L1566.03 65.6895 Q1563.47 69.8214 1559.67 71.8063 Q1555.86 73.7508 1550.35 73.7508 Q1543.38 73.7508 1539.25 69.8619 Q1535.16 65.9325 1535.16 59.3701 Q1535.16 51.7138 1540.26 47.825 Q1545.41 43.9361 1555.57 43.9361 L1566.03 43.9361 L1566.03 43.2069 Q1566.03 38.0623 1562.62 35.2672 Q1559.26 32.4315 1553.14 32.4315 Q1549.26 32.4315 1545.57 33.3632 Q1541.88 34.295 1538.48 36.1584 L1538.48 29.2718 Q1542.57 27.692 1546.42 26.9223 Q1550.27 26.1121 1553.91 26.1121 Q1563.76 26.1121 1568.62 31.2163 Q1573.48 36.3204 1573.48 46.6907 Z" fill="#000000" fill-rule="nonzero" fill-opacity="1" /><path clip-path="url(#clip860)" d="M1626.55 45.1919 L1626.55 72.576 L1619.09 72.576 L1619.09 45.4349 Q1619.09 38.994 1616.58 35.7938 Q1614.07 32.5936 1609.05 32.5936 Q1603.01 32.5936 1599.53 36.4419 Q1596.04 40.2903 1596.04 46.9338 L1596.04 72.576 L1588.55 72.576 L1588.55 27.2059 L1596.04 27.2059 L1596.04 34.2544 Q1598.72 30.163 1602.32 28.1376 Q1605.97 26.1121 1610.71 26.1121 Q1618.53 26.1121 1622.54 30.9732 Q1626.55 35.7938 1626.55 45.1919 Z" fill="#000000" fill-rule="nonzero" fill-opacity="1" /><path clip-path="url(#clip860)" d="M1676.29 18.8205 L1676.29 41.5461 L1686.58 41.5461 Q1692.29 41.5461 1695.41 38.5889 Q1698.53 35.6318 1698.53 30.163 Q1698.53 24.7348 1695.41 21.7777 Q1692.29 18.8205 1686.58 18.8205 L1676.29 18.8205 M1668.11 12.096 L1686.58 12.096 Q1696.75 12.096 1701.93 16.714 Q1707.16 21.2916 1707.16 30.163 Q1707.16 39.1155 1701.93 43.6931 Q1696.75 48.2706 1686.58 48.2706 L1676.29 48.2706 L1676.29 72.576 L1668.11 72.576 L1668.11 12.096 Z" fill="#000000" fill-rule="nonzero" fill-opacity="1" /><path clip-path="url(#clip860)" d="M1732.44 32.4315 Q1726.44 32.4315 1722.96 37.1306 Q1719.47 41.7891 1719.47 49.9314 Q1719.47 58.0738 1722.92 62.7728 Q1726.4 67.4314 1732.44 67.4314 Q1738.39 67.4314 1741.88 62.7323 Q1745.36 58.0333 1745.36 49.9314 Q1745.36 41.8701 1741.88 37.1711 Q1738.39 32.4315 1732.44 32.4315 M1732.44 26.1121 Q1742.16 26.1121 1747.71 32.4315 Q1753.26 38.7509 1753.26 49.9314 Q1753.26 61.0714 1747.71 67.4314 Q1742.16 73.7508 1732.44 73.7508 Q1722.67 73.7508 1717.12 67.4314 Q1711.62 61.0714 1711.62 49.9314 Q1711.62 38.7509 1717.12 32.4315 Q1722.67 26.1121 1732.44 26.1121 Z" fill="#000000" fill-rule="nonzero" fill-opacity="1" /><path clip-path="url(#clip860)" d="M1765.61 27.2059 L1773.07 27.2059 L1773.07 72.576 L1765.61 72.576 L1765.61 27.2059 M1765.61 9.54393 L1773.07 9.54393 L1773.07 18.9825 L1765.61 18.9825 L1765.61 9.54393 Z" fill="#000000" fill-rule="nonzero" fill-opacity="1" /><path clip-path="url(#clip860)" d="M1817.59 28.5427 L1817.59 35.5912 Q1814.43 33.9709 1811.02 33.1607 Q1807.62 32.3505 1803.98 32.3505 Q1798.43 32.3505 1795.63 34.0519 Q1792.88 35.7533 1792.88 39.156 Q1792.88 41.7486 1794.86 43.2475 Q1796.85 44.7058 1802.84 46.0426 L1805.39 46.6097 Q1813.33 48.3111 1816.66 51.4303 Q1820.02 54.509 1820.02 60.0587 Q1820.02 66.3781 1814.99 70.0644 Q1810.01 73.7508 1801.26 73.7508 Q1797.62 73.7508 1793.65 73.0216 Q1789.72 72.3329 1785.34 70.9151 L1785.34 63.2184 Q1789.47 65.3654 1793.48 66.4591 Q1797.49 67.5124 1801.42 67.5124 Q1806.69 67.5124 1809.53 65.73 Q1812.36 63.9071 1812.36 60.6258 Q1812.36 57.5877 1810.3 55.9673 Q1808.27 54.3469 1801.34 52.8481 L1798.75 52.2405 Q1791.82 50.7821 1788.74 47.7845 Q1785.67 44.7463 1785.67 39.4801 Q1785.67 33.0797 1790.2 29.5959 Q1794.74 26.1121 1803.08 26.1121 Q1807.22 26.1121 1810.86 26.7198 Q1814.51 27.3274 1817.59 28.5427 Z" fill="#000000" fill-rule="nonzero" fill-opacity="1" /><path clip-path="url(#clip860)" d="M1860.81 28.5427 L1860.81 35.5912 Q1857.65 33.9709 1854.25 33.1607 Q1850.85 32.3505 1847.2 32.3505 Q1841.65 32.3505 1838.85 34.0519 Q1836.1 35.7533 1836.1 39.156 Q1836.1 41.7486 1838.08 43.2475 Q1840.07 44.7058 1846.07 46.0426 L1848.62 46.6097 Q1856.56 48.3111 1859.88 51.4303 Q1863.24 54.509 1863.24 60.0587 Q1863.24 66.3781 1858.22 70.0644 Q1853.24 73.7508 1844.49 73.7508 Q1840.84 73.7508 1836.87 73.0216 Q1832.94 72.3329 1828.57 70.9151 L1828.57 63.2184 Q1832.7 65.3654 1836.71 66.4591 Q1840.72 67.5124 1844.65 67.5124 Q1849.91 67.5124 1852.75 65.73 Q1855.58 63.9071 1855.58 60.6258 Q1855.58 57.5877 1853.52 55.9673 Q1851.49 54.3469 1844.57 52.8481 L1841.97 52.2405 Q1835.05 50.7821 1831.97 47.7845 Q1828.89 44.7463 1828.89 39.4801 Q1828.89 33.0797 1833.43 29.5959 Q1837.96 26.1121 1846.31 26.1121 Q1850.44 26.1121 1854.09 26.7198 Q1857.73 27.3274 1860.81 28.5427 Z" fill="#000000" fill-rule="nonzero" fill-opacity="1" /><path clip-path="url(#clip860)" d="M1892.69 32.4315 Q1886.7 32.4315 1883.21 37.1306 Q1879.73 41.7891 1879.73 49.9314 Q1879.73 58.0738 1883.17 62.7728 Q1886.66 67.4314 1892.69 67.4314 Q1898.65 67.4314 1902.13 62.7323 Q1905.61 58.0333 1905.61 49.9314 Q1905.61 41.8701 1902.13 37.1711 Q1898.65 32.4315 1892.69 32.4315 M1892.69 26.1121 Q1902.41 26.1121 1907.96 32.4315 Q1913.51 38.7509 1913.51 49.9314 Q1913.51 61.0714 1907.96 67.4314 Q1902.41 73.7508 1892.69 73.7508 Q1882.93 73.7508 1877.38 67.4314 Q1871.87 61.0714 1871.87 49.9314 Q1871.87 38.7509 1877.38 32.4315 Q1882.93 26.1121 1892.69 26.1121 Z" fill="#000000" fill-rule="nonzero" fill-opacity="1" /><path clip-path="url(#clip860)" d="M1963.58 45.1919 L1963.58 72.576 L1956.13 72.576 L1956.13 45.4349 Q1956.13 38.994 1953.62 35.7938 Q1951.1 32.5936 1946.08 32.5936 Q1940.05 32.5936 1936.56 36.4419 Q1933.08 40.2903 1933.08 46.9338 L1933.08 72.576 L1925.58 72.576 L1925.58 27.2059 L1933.08 27.2059 L1933.08 34.2544 Q1935.75 30.163 1939.36 28.1376 Q1943 26.1121 1947.74 26.1121 Q1955.56 26.1121 1959.57 30.9732 Q1963.58 35.7938 1963.58 45.1919 Z" fill="#000000" fill-rule="nonzero" fill-opacity="1" /><polyline clip-path="url(#clip861)" style="stroke:#009af9; stroke-linecap:round; stroke-linejoin:round; stroke-width:4; stroke-opacity:1; fill:none" points="279.759,1386.4 281.773,1380.22 283.788,1374.05 285.803,1367.89 287.817,1361.72 289.832,1355.56 291.847,1349.4 293.861,1343.24 295.876,1337.09 297.89,1330.95 299.905,1324.81 301.92,1318.67 303.934,1312.55 305.949,1306.43 307.964,1300.31 309.978,1294.21 311.993,1288.11 314.007,1282.02 316.022,1275.95 318.037,1269.88 320.051,1263.82 322.066,1257.77 324.081,1251.73 326.095,1245.71 328.11,1239.69 330.125,1233.69 332.139,1227.7 334.154,1221.72 336.168,1215.76 338.183,1209.81 340.198,1203.87 342.212,1197.95 344.227,1192.04 346.242,1186.15 348.256,1180.27 350.271,1174.41 352.286,1168.56 354.3,1162.72 356.315,1156.91 358.329,1151.11 360.344,1145.33 362.359,1139.56 364.373,1133.81 366.388,1128.08 368.403,1122.36 370.417,1116.66 372.432,1110.99 374.446,1105.32 376.461,1099.68 378.476,1094.06 380.49,1088.45 382.505,1082.87 384.52,1077.3 386.534,1071.75 388.549,1066.22 390.564,1060.71 392.578,1055.22 394.593,1049.75 396.607,1044.3 398.622,1038.87 400.637,1033.46 402.651,1028.08 404.666,1022.71 406.681,1017.36 408.695,1012.03 410.71,1006.73 412.725,1001.45 414.739,996.182 416.754,990.94 418.768,985.719 420.783,980.52 422.798,975.343 424.812,970.187 426.827,965.053 428.842,959.94 430.856,954.85 432.871,949.781 434.885,944.735 436.9,939.71 438.915,934.708 440.929,929.728 442.944,924.77 444.959,919.834 446.973,914.921 448.988,910.03 451.003,905.162 453.017,900.316 455.032,895.492 457.046,890.691 459.061,885.913 461.076,881.157 463.09,876.424 465.105,871.713 467.12,867.025 469.134,862.36 471.149,857.718 473.164,853.098 475.178,848.501 477.193,843.926 479.207,839.375 481.222,834.846 483.237,830.339 485.251,825.856 487.266,821.395 489.281,816.957 491.295,812.541 493.31,808.148 495.324,803.778 497.339,799.431 499.354,795.106 501.368,790.803 503.383,786.524 505.398,782.267 507.412,778.032 509.427,773.82 511.442,769.63 513.456,765.463 515.471,761.318 517.485,757.196 519.5,753.096 521.515,749.018 523.529,744.963 525.544,740.93 527.559,736.919 529.573,732.93 531.588,728.963 533.603,725.018 535.617,721.096 537.632,717.195 539.646,713.316 541.661,709.459 543.676,705.624 545.69,701.811 547.705,698.02 549.72,694.25 551.734,690.501 553.749,686.775 555.763,683.069 557.778,679.386 559.793,675.723 561.807,672.082 563.822,668.462 565.837,664.864 567.851,661.286 569.866,657.729 571.881,654.194 573.895,650.679 575.91,647.186 577.924,643.713 579.939,640.261 581.954,636.829 583.968,633.418 585.983,630.028 587.998,626.658 590.012,623.309 592.027,619.979 594.042,616.67 596.056,613.382 598.071,610.113 600.085,606.864 602.1,603.635 604.115,600.426 606.129,597.237 608.144,594.068 610.159,590.918 612.173,587.788 614.188,584.677 616.202,581.586 618.217,578.514 620.232,575.461 622.246,572.428 624.261,569.413 626.276,566.418 628.29,563.442 630.305,560.484 632.32,557.545 634.334,554.625 636.349,551.723 638.363,548.84 640.378,545.976 642.393,543.13 644.407,540.302 646.422,537.492 648.437,534.7 650.451,531.927 652.466,529.171 654.481,526.434 656.495,523.714 658.51,521.012 660.524,518.327 662.539,515.66 664.554,513.01 666.568,510.378 668.583,507.763 670.598,505.166 672.612,502.585 674.627,500.022 676.641,497.475 678.656,494.945 680.671,492.433 682.685,489.936 684.7,487.457 686.715,484.994 688.729,482.547 690.744,480.117 692.759,477.703 694.773,475.306 696.788,472.924 698.802,470.559 700.817,468.209 702.832,465.876 704.846,463.558 706.861,461.256 708.876,458.969 710.89,456.698 712.905,454.443 714.92,452.203 716.934,449.978 718.949,447.768 720.963,445.574 722.978,443.394 724.993,441.23 727.007,439.08 729.022,436.945 731.037,434.825 733.051,432.72 735.066,430.629 737.08,428.553 739.095,426.491 741.11,424.443 743.124,422.41 745.139,420.391 747.154,418.385 749.168,416.394 751.183,414.417 753.198,412.453 755.212,410.504 757.227,408.568 759.241,406.645 761.256,404.737 763.271,402.841 765.285,400.959 767.3,399.09 769.315,397.235 771.329,395.392 773.344,393.563 775.358,391.746 777.373,389.943 779.388,388.152 781.402,386.374 783.417,384.609 785.432,382.856 787.446,381.116 789.461,379.388 791.476,377.673 793.49,375.97 795.505,374.279 797.519,372.6 799.534,370.934 801.549,369.279 803.563,367.636 805.578,366.006 807.593,364.386 809.607,362.779 811.622,361.183 813.637,359.599 815.651,358.026 817.666,356.465 819.68,354.915 821.695,353.376 823.71,351.849 825.724,350.333 827.739,348.827 829.754,347.333 831.768,345.85 833.783,344.377 835.797,342.916 837.812,341.464 839.827,340.024 841.841,338.594 843.856,337.175 845.871,335.766 847.885,334.368 849.9,332.98 851.915,331.602 853.929,330.234 855.944,328.876 857.958,327.529 859.973,326.191 861.988,324.864 864.002,323.546 866.017,322.238 868.032,320.94 870.046,319.651 872.061,318.372 874.076,317.102 876.09,315.842 878.105,314.592 880.119,313.35 882.134,312.118 884.149,310.896 886.163,309.682 888.178,308.477 890.193,307.282 892.207,306.096 894.222,304.918 896.236,303.749 898.251,302.589 900.266,301.438 902.28,300.296 904.295,299.162 906.31,298.036 908.324,296.92 910.339,295.811 912.354,294.711 914.368,293.62 916.383,292.536 918.397,291.461 920.412,290.394 922.427,289.335 924.441,288.284 926.456,287.241 928.471,286.207 930.485,285.18 932.5,284.16 934.515,283.149 936.529,282.145 938.544,281.149 940.558,280.161 942.573,279.18 944.588,278.207 946.602,277.241 948.617,276.283 950.632,275.332 952.646,274.388 954.661,273.451 956.675,272.522 958.69,271.6 960.705,270.685 962.719,269.777 964.734,268.876 966.749,267.982 968.763,267.095 970.778,266.215 972.793,265.341 974.807,264.475 976.822,263.615 978.836,262.761 980.851,261.915 982.866,261.075 984.88,260.241 986.895,259.414 988.91,258.593 990.924,257.779 992.939,256.971 994.954,256.17 996.968,255.374 998.983,254.585 1001,253.802 1003.01,253.025 1005.03,252.254 1007.04,251.489 1009.06,250.731 1011.07,249.978 1013.09,249.231 1015.1,248.49 1017.11,247.754 1019.13,247.025 1021.14,246.301 1023.16,245.583 1025.17,244.871 1027.19,244.164 1029.2,243.462 1031.22,242.767 1033.23,242.076 1035.25,241.391 1037.26,240.712 1039.28,240.038 1041.29,239.369 1043.3,238.706 1045.32,238.048 1047.33,237.395 1049.35,236.747 1051.36,236.104 1053.38,235.467 1055.39,234.834 1057.41,234.207 1059.42,233.584 1061.44,232.966 1063.45,232.354 1065.47,231.746 1067.48,231.143 1069.49,230.545 1071.51,229.951 1073.52,229.363 1075.54,228.779 1077.55,228.2 1079.57,227.625 1081.58,227.055 1083.6,226.489 1085.61,225.928 1087.63,225.372 1089.64,224.82 1091.66,224.272 1093.67,223.729 1095.69,223.19 1097.7,222.655 1099.71,222.125 1101.73,221.599 1103.74,221.077 1105.76,220.56 1107.77,220.046 1109.79,219.537 1111.8,219.032 1113.82,218.531 1115.83,218.033 1117.85,217.54 1119.86,217.051 1121.88,216.566 1123.89,216.085 1125.9,215.608 1127.92,215.134 1129.93,214.664 1131.95,214.199 1133.96,213.736 1135.98,213.278 1137.99,212.823 1140.01,212.373 1142.02,211.925 1144.04,211.482 1146.05,211.042 1148.07,210.605 1150.08,210.172 1152.09,209.743 1154.11,209.317 1156.12,208.894 1158.14,208.475 1160.15,208.06 1162.17,207.647 1164.18,207.239 1166.2,206.833 1168.21,206.431 1170.23,206.032 1172.24,205.636 1174.26,205.244 1176.27,204.855 1178.29,204.469 1180.3,204.086 1182.31,203.706 1184.33,203.329 1186.34,202.956 1188.36,202.585 1190.37,202.218 1192.39,201.853 1194.4,201.492 1196.42,201.133 1198.43,200.778 1200.45,200.425 1202.46,200.076 1204.48,199.729 1206.49,199.385 1208.5,199.044 1210.52,198.705 1212.53,198.37 1214.55,198.037 1216.56,197.707 1218.58,197.38 1220.59,197.055 1222.61,196.733 1224.62,196.414 1226.64,196.097 1228.65,195.783 1230.67,195.472 1232.68,195.163 1234.69,194.857 1236.71,194.553 1238.72,194.252 1240.74,193.953 1242.75,193.657 1244.77,193.363 1246.78,193.072 1248.8,192.783 1250.81,192.496 1252.83,192.212 1254.84,191.93 1256.86,191.651 1258.87,191.374 1260.89,191.099 1262.9,190.826 1264.91,190.556 1266.93,190.288 1268.94,190.022 1270.96,189.759 1272.97,189.498 1274.99,189.238 1277,188.981 1279.02,188.727 1281.03,188.474 1283.05,188.223 1285.06,187.975 1287.08,187.728 1289.09,187.484 1291.1,187.242 1293.12,187.001 1295.13,186.763 1297.15,186.527 1299.16,186.292 1301.18,186.06 1303.19,185.83 1305.21,185.601 1307.22,185.375 1309.24,185.15 1311.25,184.927 1313.27,184.707 1315.28,184.488 1317.29,184.27 1319.31,184.055 1321.32,183.842 1323.34,183.63 1325.35,183.42 1327.37,183.212 1329.38,183.005 1331.4,182.801 1333.41,182.598 1335.43,182.397 1337.44,182.197 1339.46,181.999 1341.47,181.803 1343.49,181.609 1345.5,181.416 1347.51,181.225 1349.53,181.035 1351.54,180.847 1353.56,180.661 1355.57,180.476 1357.59,180.293 1359.6,180.111 1361.62,179.931 1363.63,179.752 1365.65,179.575 1367.66,179.4 1369.68,179.226 1371.69,179.053 1373.7,178.882 1375.72,178.712 1377.73,178.544 1379.75,178.377 1381.76,178.212 1383.78,178.048 1385.79,177.885 1387.81,177.724 1389.82,177.564 1391.84,177.406 1393.85,177.249 1395.87,177.093 1397.88,176.938 1399.89,176.785 1401.91,176.634 1403.92,176.483 1405.94,176.334 1407.95,176.186 1409.97,176.039 1411.98,175.894 1414,175.75 1416.01,175.607 1418.03,175.465 1420.04,175.325 1422.06,175.186 1424.07,175.048 1426.09,174.911 1428.1,174.775 1430.11,174.64 1432.13,174.507 1434.14,174.375 1436.16,174.244 1438.17,174.114 1440.19,173.985 1442.2,173.857 1444.22,173.731 1446.23,173.605 1448.25,173.481 1450.26,173.357 1452.28,173.235 1454.29,173.114 1456.3,172.994 1458.32,172.875 1460.33,172.756 1462.35,172.639 1464.36,172.523 1466.38,172.408 1468.39,172.294 1470.41,172.181 1472.42,172.069 1474.44,171.958 1476.45,171.848 1478.47,171.738 1480.48,171.63 1482.49,171.523 1484.51,171.416 1486.52,171.311 1488.54,171.206 1490.55,171.103 1492.57,171 1494.58,170.898 1496.6,170.797 1498.61,170.697 1500.63,170.598 1502.64,170.5 1504.66,170.402 1506.67,170.306 1508.69,170.21 1510.7,170.115 1512.71,170.021 1514.73,169.928 1516.74,169.835 1518.76,169.744 1520.77,169.653 1522.79,169.563 1524.8,169.473 1526.82,169.385 1528.83,169.297 1530.85,169.21 1532.86,169.124 1534.88,169.039 1536.89,168.954 1538.9,168.87 1540.92,168.787 1542.93,168.705 1544.95,168.623 1546.96,168.542 1548.98,168.462 1550.99,168.382 1553.01,168.303 1555.02,168.225 1557.04,168.148 1559.05,168.071 1561.07,167.995 1563.08,167.919 1565.09,167.844 1567.11,167.77 1569.12,167.697 1571.14,167.624 1573.15,167.552 1575.17,167.48 1577.18,167.41 1579.2,167.339 1581.21,167.27 1583.23,167.201 1585.24,167.132 1587.26,167.064 1589.27,166.997 1591.28,166.931 1593.3,166.865 1595.31,166.799 1597.33,166.734 1599.34,166.67 1601.36,166.607 1603.37,166.543 1605.39,166.481 1607.4,166.419 1609.42,166.357 1611.43,166.297 1613.45,166.236 1615.46,166.177 1617.48,166.117 1619.49,166.059 1621.5,166 1623.52,165.943 1625.53,165.886 1627.55,165.829 1629.56,165.773 1631.58,165.717 1633.59,165.662 1635.61,165.607 1637.62,165.553 1639.64,165.5 1641.65,165.446 1643.67,165.394 1645.68,165.341 1647.69,165.29 1649.71,165.238 1651.72,165.188 1653.74,165.137 1655.75,165.087 1657.77,165.038 1659.78,164.989 1661.8,164.94 1663.81,164.892 1665.83,164.845 1667.84,164.797 1669.86,164.751 1671.87,164.704 1673.88,164.658 1675.9,164.613 1677.91,164.568 1679.93,164.523 1681.94,164.479 1683.96,164.435 1685.97,164.391 1687.99,164.348 1690,164.305 1692.02,164.263 1694.03,164.221 1696.05,164.18 1698.06,164.138 1700.08,164.098 1702.09,164.057 1704.1,164.017 1706.12,163.977 1708.13,163.938 1710.15,163.899 1712.16,163.861 1714.18,163.822 1716.19,163.784 1718.21,163.747 1720.22,163.71 1722.24,163.673 1724.25,163.636 1726.27,163.6 1728.28,163.564 1730.29,163.529 1732.31,163.494 1734.32,163.459 1736.34,163.424 1738.35,163.39 1740.37,163.356 1742.38,163.323 1744.4,163.289 1746.41,163.256 1748.43,163.224 1750.44,163.191 1752.46,163.159 1754.47,163.128 1756.48,163.096 1758.5,163.065 1760.51,163.034 1762.53,163.004 1764.54,162.973 1766.56,162.943 1768.57,162.914 1770.59,162.884 1772.6,162.855 1774.62,162.826 1776.63,162.798 1778.65,162.769 1780.66,162.741 1782.68,162.713 1784.69,162.686 1786.7,162.659 1788.72,162.632 1790.73,162.605 1792.75,162.578 1794.76,162.552 1796.78,162.526 1798.79,162.5 1800.81,162.475 1802.82,162.449 1804.84,162.424 1806.85,162.4 1808.87,162.375 1810.88,162.351 1812.89,162.327 1814.91,162.303 1816.92,162.279 1818.94,162.256 1820.95,162.233 1822.97,162.21 1824.98,162.187 1827,162.164 1829.01,162.142 1831.03,162.12 1833.04,162.098 1835.06,162.076 1837.07,162.055 1839.08,162.034 1841.1,162.013 1843.11,161.992 1845.13,161.971 1847.14,161.951 1849.16,161.931 1851.17,161.911 1853.19,161.891 1855.2,161.871 1857.22,161.852 1859.23,161.832 1861.25,161.813 1863.26,161.794 1865.28,161.776 1867.29,161.757 1869.3,161.739 1871.32,161.721 1873.33,161.703 1875.35,161.685 1877.36,161.667 1879.38,161.65 1881.39,161.633 1883.41,161.615 1885.42,161.599 1887.44,161.582 1889.45,161.565 1891.47,161.549 1893.48,161.533 1895.49,161.516 1897.51,161.5 1899.52,161.485 1901.54,161.469 1903.55,161.454 1905.57,161.438 1907.58,161.423 1909.6,161.408 1911.61,161.393 1913.63,161.379 1915.64,161.364 1917.66,161.35 1919.67,161.335 1921.68,161.321 1923.7,161.307 1925.71,161.294 1927.73,161.28 1929.74,161.266 1931.76,161.253 1933.77,161.24 1935.79,161.226 1937.8,161.214 1939.82,161.201 1941.83,161.188 1943.85,161.175 1945.86,161.163 1947.88,161.151 1949.89,161.138 1951.9,161.126 1953.92,161.114 1955.93,161.102 1957.95,161.091 1959.96,161.079 1961.98,161.068 1963.99,161.056 1966.01,161.045 1968.02,161.034 1970.04,161.023 1972.05,161.012 1974.07,161.002 1976.08,160.991 1978.09,160.98 1980.11,160.97 1982.12,160.96 1984.14,160.949 1986.15,160.939 1988.17,160.929 1990.18,160.92 1992.2,160.91 1994.21,160.9 1996.23,160.891 1998.24,160.881 2000.26,160.872 2002.27,160.863 2004.28,160.854 2006.3,160.844 2008.31,160.836 2010.33,160.827 2012.34,160.818 2014.36,160.809 2016.37,160.801 2018.39,160.792 2020.4,160.784 2022.42,160.776 2024.43,160.768 2026.45,160.76 2028.46,160.752 2030.48,160.744 2032.49,160.736 2034.5,160.728 2036.52,160.72 2038.53,160.713 2040.55,160.705 2042.56,160.698 2044.58,160.691 2046.59,160.684 2048.61,160.677 2050.62,160.67 2052.64,160.663 2054.65,160.656 2056.67,160.649 2058.68,160.642 2060.69,160.636 2062.71,160.629 2064.72,160.623 2066.74,160.616 2068.75,160.61 2070.77,160.604 2072.78,160.597 2074.8,160.591 2076.81,160.585 2078.83,160.579 2080.84,160.573 2082.86,160.568 2084.87,160.562 2086.88,160.556 2088.9,160.551 2090.91,160.545 2092.93,160.54 2094.94,160.534 2096.96,160.529 2098.97,160.524 2100.99,160.519 2103,160.513 2105.02,160.508 2107.03,160.503 2109.05,160.498 2111.06,160.494 2113.07,160.489 2115.09,160.484 2117.1,160.479 2119.12,160.475 2121.13,160.47 2123.15,160.466 2125.16,160.461 2127.18,160.457 2129.19,160.453 2131.21,160.448 2133.22,160.444 2135.24,160.44 2137.25,160.436 2139.27,160.432 2141.28,160.428 2143.29,160.424 2145.31,160.42 2147.32,160.416 2149.34,160.412 2151.35,160.409 2153.37,160.405 2155.38,160.401 2157.4,160.398 2159.41,160.394 2161.43,160.391 2163.44,160.388 2165.46,160.384 2167.47,160.381 2169.48,160.378 2171.5,160.374 2173.51,160.371 2175.53,160.368 2177.54,160.365 2179.56,160.362 2181.57,160.359 2183.59,160.356 2185.6,160.353 2187.62,160.35 2189.63,160.348 2191.65,160.345 2193.66,160.342 2195.67,160.34 2197.69,160.337 2199.7,160.334 2201.72,160.332 2203.73,160.329 2205.75,160.327 2207.76,160.325 2209.78,160.322 2211.79,160.32 2213.81,160.318 2215.82,160.315 2217.84,160.313 2219.85,160.311 2221.87,160.309 2223.88,160.307 2225.89,160.305 2227.91,160.303 2229.92,160.301 2231.94,160.299 2233.95,160.297 2235.97,160.295 2237.98,160.293 2240,160.291 2242.01,160.29 2244.03,160.288 2246.04,160.286 2248.06,160.285 2250.07,160.283 2252.08,160.281 2254.1,160.28 2256.11,160.278 2258.13,160.277 2260.14,160.275 2262.16,160.274 2264.17,160.273 2266.19,160.271 2268.2,160.27 2270.22,160.269 2272.23,160.267 2274.25,160.266 2276.26,160.265 2278.27,160.264 2280.29,160.263 2282.3,160.261 2284.32,160.26 2286.33,160.259 2288.35,160.258 2290.36,160.257 2292.38,160.256 "/>
<path clip-path="url(#clip860)" d="M2015.88 1379.86 L2281.64 1379.86 L2281.64 1276.18 L2015.88 1276.18  Z" fill="#ffffff" fill-rule="evenodd" fill-opacity="1"/>
<polyline clip-path="url(#clip860)" style="stroke:#000000; stroke-linecap:round; stroke-linejoin:round; stroke-width:4; stroke-opacity:1; fill:none" points="2015.88,1379.86 2281.64,1379.86 2281.64,1276.18 2015.88,1276.18 2015.88,1379.86 "/>
<polyline clip-path="url(#clip860)" style="stroke:#009af9; stroke-linecap:round; stroke-linejoin:round; stroke-width:4; stroke-opacity:1; fill:none" points="2039.58,1328.02 2181.8,1328.02 "/>
<path clip-path="url(#clip860)" d="M2219.35 1347.7 Q2217.55 1352.33 2215.83 1353.75 Q2214.12 1355.16 2211.25 1355.16 L2207.85 1355.16 L2207.85 1351.59 L2210.35 1351.59 Q2212.11 1351.59 2213.08 1350.76 Q2214.05 1349.93 2215.23 1346.82 L2215.99 1344.88 L2205.51 1319.37 L2210.02 1319.37 L2218.12 1339.65 L2226.23 1319.37 L2230.74 1319.37 L2219.35 1347.7 Z" fill="#000000" fill-rule="nonzero" fill-opacity="1" /><path clip-path="url(#clip860)" d="M2238.03 1341.36 L2245.67 1341.36 L2245.67 1315 L2237.36 1316.66 L2237.36 1312.4 L2245.62 1310.74 L2250.3 1310.74 L2250.3 1341.36 L2257.94 1341.36 L2257.94 1345.3 L2238.03 1345.3 L2238.03 1341.36 Z" fill="#000000" fill-rule="nonzero" fill-opacity="1" /></svg>
