<?xml version="1.0" encoding="utf-8"?>
<svg xmlns="http://www.w3.org/2000/svg" xmlns:xlink="http://www.w3.org/1999/xlink" width="600" height="400" viewBox="0 0 2400 1600">
<defs>
  <clipPath id="clip040">
    <rect x="0" y="0" width="2400" height="1600"/>
  </clipPath>
</defs>
<path clip-path="url(#clip040)" d="M0 1600 L2400 1600 L2400 8.88178e-14 L0 8.88178e-14  Z" fill="#ffffff" fill-rule="evenodd" fill-opacity="1"/>
<defs>
  <clipPath id="clip041">
    <rect x="480" y="0" width="1681" height="1600"/>
  </clipPath>
</defs>
<path clip-path="url(#clip040)" d="M257.69 1423.18 L2352.76 1423.18 L2352.76 123.472 L257.69 123.472  Z" fill="#ffffff" fill-rule="evenodd" fill-opacity="1"/>
<defs>
  <clipPath id="clip042">
    <rect x="257" y="123" width="2096" height="1301"/>
  </clipPath>
</defs>
<polyline clip-path="url(#clip042)" style="stroke:#000000; stroke-linecap:round; stroke-linejoin:round; stroke-width:2; stroke-opacity:0.1; fill:none" points="316.984,1423.18 316.984,123.472 "/>
<polyline clip-path="url(#clip042)" style="stroke:#000000; stroke-linecap:round; stroke-linejoin:round; stroke-width:2; stroke-opacity:0.1; fill:none" points="811.104,1423.18 811.104,123.472 "/>
<polyline clip-path="url(#clip042)" style="stroke:#000000; stroke-linecap:round; stroke-linejoin:round; stroke-width:2; stroke-opacity:0.1; fill:none" points="1305.22,1423.18 1305.22,123.472 "/>
<polyline clip-path="url(#clip042)" style="stroke:#000000; stroke-linecap:round; stroke-linejoin:round; stroke-width:2; stroke-opacity:0.1; fill:none" points="1799.34,1423.18 1799.34,123.472 "/>
<polyline clip-path="url(#clip042)" style="stroke:#000000; stroke-linecap:round; stroke-linejoin:round; stroke-width:2; stroke-opacity:0.1; fill:none" points="2293.46,1423.18 2293.46,123.472 "/>
<polyline clip-path="url(#clip042)" style="stroke:#000000; stroke-linecap:round; stroke-linejoin:round; stroke-width:2; stroke-opacity:0.1; fill:none" points="257.69,1248.3 2352.76,1248.3 "/>
<polyline clip-path="url(#clip042)" style="stroke:#000000; stroke-linecap:round; stroke-linejoin:round; stroke-width:2; stroke-opacity:0.1; fill:none" points="257.69,986.491 2352.76,986.491 "/>
<polyline clip-path="url(#clip042)" style="stroke:#000000; stroke-linecap:round; stroke-linejoin:round; stroke-width:2; stroke-opacity:0.1; fill:none" points="257.69,724.682 2352.76,724.682 "/>
<polyline clip-path="url(#clip042)" style="stroke:#000000; stroke-linecap:round; stroke-linejoin:round; stroke-width:2; stroke-opacity:0.1; fill:none" points="257.69,462.874 2352.76,462.874 "/>
<polyline clip-path="url(#clip042)" style="stroke:#000000; stroke-linecap:round; stroke-linejoin:round; stroke-width:2; stroke-opacity:0.1; fill:none" points="257.69,201.065 2352.76,201.065 "/>
<polyline clip-path="url(#clip040)" style="stroke:#000000; stroke-linecap:round; stroke-linejoin:round; stroke-width:4; stroke-opacity:1; fill:none" points="257.69,1423.18 2352.76,1423.18 "/>
<polyline clip-path="url(#clip040)" style="stroke:#000000; stroke-linecap:round; stroke-linejoin:round; stroke-width:4; stroke-opacity:1; fill:none" points="316.984,1423.18 316.984,1404.28 "/>
<polyline clip-path="url(#clip040)" style="stroke:#000000; stroke-linecap:round; stroke-linejoin:round; stroke-width:4; stroke-opacity:1; fill:none" points="811.104,1423.18 811.104,1404.28 "/>
<polyline clip-path="url(#clip040)" style="stroke:#000000; stroke-linecap:round; stroke-linejoin:round; stroke-width:4; stroke-opacity:1; fill:none" points="1305.22,1423.18 1305.22,1404.28 "/>
<polyline clip-path="url(#clip040)" style="stroke:#000000; stroke-linecap:round; stroke-linejoin:round; stroke-width:4; stroke-opacity:1; fill:none" points="1799.34,1423.18 1799.34,1404.28 "/>
<polyline clip-path="url(#clip040)" style="stroke:#000000; stroke-linecap:round; stroke-linejoin:round; stroke-width:4; stroke-opacity:1; fill:none" points="2293.46,1423.18 2293.46,1404.28 "/>
<path clip-path="url(#clip040)" d="M294.369 1454.1 Q290.758 1454.1 288.929 1457.66 Q287.124 1461.2 287.124 1468.33 Q287.124 1475.44 288.929 1479.01 Q290.758 1482.55 294.369 1482.55 Q298.003 1482.55 299.809 1479.01 Q301.637 1475.44 301.637 1468.33 Q301.637 1461.2 299.809 1457.66 Q298.003 1454.1 294.369 1454.1 M294.369 1450.39 Q300.179 1450.39 303.235 1455 Q306.313 1459.58 306.313 1468.33 Q306.313 1477.06 303.235 1481.67 Q300.179 1486.25 294.369 1486.25 Q288.559 1486.25 285.48 1481.67 Q282.424 1477.06 282.424 1468.33 Q282.424 1459.58 285.48 1455 Q288.559 1450.39 294.369 1450.39 Z" fill="#000000" fill-rule="nonzero" fill-opacity="1" /><path clip-path="url(#clip040)" d="M314.531 1479.7 L319.415 1479.7 L319.415 1485.58 L314.531 1485.58 L314.531 1479.7 Z" fill="#000000" fill-rule="nonzero" fill-opacity="1" /><path clip-path="url(#clip040)" d="M339.6 1454.1 Q335.989 1454.1 334.16 1457.66 Q332.355 1461.2 332.355 1468.33 Q332.355 1475.44 334.16 1479.01 Q335.989 1482.55 339.6 1482.55 Q343.234 1482.55 345.04 1479.01 Q346.869 1475.44 346.869 1468.33 Q346.869 1461.2 345.04 1457.66 Q343.234 1454.1 339.6 1454.1 M339.6 1450.39 Q345.41 1450.39 348.466 1455 Q351.544 1459.58 351.544 1468.33 Q351.544 1477.06 348.466 1481.67 Q345.41 1486.25 339.6 1486.25 Q333.79 1486.25 330.711 1481.67 Q327.656 1477.06 327.656 1468.33 Q327.656 1459.58 330.711 1455 Q333.79 1450.39 339.6 1450.39 Z" fill="#000000" fill-rule="nonzero" fill-opacity="1" /><path clip-path="url(#clip040)" d="M782.84 1481.64 L799.159 1481.64 L799.159 1485.58 L777.215 1485.58 L777.215 1481.64 Q779.877 1478.89 784.46 1474.26 Q789.067 1469.61 790.247 1468.27 Q792.493 1465.74 793.372 1464.01 Q794.275 1462.25 794.275 1460.56 Q794.275 1457.8 792.331 1456.07 Q790.409 1454.33 787.308 1454.33 Q785.109 1454.33 782.655 1455.09 Q780.224 1455.86 777.447 1457.41 L777.447 1452.69 Q780.271 1451.55 782.724 1450.97 Q785.178 1450.39 787.215 1450.39 Q792.585 1450.39 795.78 1453.08 Q798.974 1455.77 798.974 1460.26 Q798.974 1462.39 798.164 1464.31 Q797.377 1466.2 795.27 1468.8 Q794.692 1469.47 791.59 1472.69 Q788.488 1475.88 782.84 1481.64 Z" fill="#000000" fill-rule="nonzero" fill-opacity="1" /><path clip-path="url(#clip040)" d="M808.974 1479.7 L813.858 1479.7 L813.858 1485.58 L808.974 1485.58 L808.974 1479.7 Z" fill="#000000" fill-rule="nonzero" fill-opacity="1" /><path clip-path="url(#clip040)" d="M824.09 1451.02 L842.446 1451.02 L842.446 1454.96 L828.372 1454.96 L828.372 1463.43 Q829.391 1463.08 830.409 1462.92 Q831.428 1462.73 832.446 1462.73 Q838.233 1462.73 841.613 1465.9 Q844.992 1469.08 844.992 1474.49 Q844.992 1480.07 841.52 1483.17 Q838.048 1486.25 831.729 1486.25 Q829.553 1486.25 827.284 1485.88 Q825.039 1485.51 822.631 1484.77 L822.631 1480.07 Q824.715 1481.2 826.937 1481.76 Q829.159 1482.32 831.636 1482.32 Q835.641 1482.32 837.979 1480.21 Q840.317 1478.1 840.317 1474.49 Q840.317 1470.88 837.979 1468.77 Q835.641 1466.67 831.636 1466.67 Q829.761 1466.67 827.886 1467.08 Q826.034 1467.5 824.09 1468.38 L824.09 1451.02 Z" fill="#000000" fill-rule="nonzero" fill-opacity="1" /><path clip-path="url(#clip040)" d="M1272.39 1451.02 L1290.74 1451.02 L1290.74 1454.96 L1276.67 1454.96 L1276.67 1463.43 Q1277.69 1463.08 1278.71 1462.92 Q1279.73 1462.73 1280.74 1462.73 Q1286.53 1462.73 1289.91 1465.9 Q1293.29 1469.08 1293.29 1474.49 Q1293.29 1480.07 1289.82 1483.17 Q1286.35 1486.25 1280.03 1486.25 Q1277.85 1486.25 1275.58 1485.88 Q1273.34 1485.51 1270.93 1484.77 L1270.93 1480.07 Q1273.01 1481.2 1275.23 1481.76 Q1277.46 1482.32 1279.93 1482.32 Q1283.94 1482.32 1286.28 1480.21 Q1288.61 1478.1 1288.61 1474.49 Q1288.61 1470.88 1286.28 1468.77 Q1283.94 1466.67 1279.93 1466.67 Q1278.06 1466.67 1276.18 1467.08 Q1274.33 1467.5 1272.39 1468.38 L1272.39 1451.02 Z" fill="#000000" fill-rule="nonzero" fill-opacity="1" /><path clip-path="url(#clip040)" d="M1302.5 1479.7 L1307.39 1479.7 L1307.39 1485.58 L1302.5 1485.58 L1302.5 1479.7 Z" fill="#000000" fill-rule="nonzero" fill-opacity="1" /><path clip-path="url(#clip040)" d="M1327.57 1454.1 Q1323.96 1454.1 1322.13 1457.66 Q1320.33 1461.2 1320.33 1468.33 Q1320.33 1475.44 1322.13 1479.01 Q1323.96 1482.55 1327.57 1482.55 Q1331.21 1482.55 1333.01 1479.01 Q1334.84 1475.44 1334.84 1468.33 Q1334.84 1461.2 1333.01 1457.66 Q1331.21 1454.1 1327.57 1454.1 M1327.57 1450.39 Q1333.38 1450.39 1336.44 1455 Q1339.52 1459.58 1339.52 1468.33 Q1339.52 1477.06 1336.44 1481.67 Q1333.38 1486.25 1327.57 1486.25 Q1321.76 1486.25 1318.68 1481.67 Q1315.63 1477.06 1315.63 1468.33 Q1315.63 1459.58 1318.68 1455 Q1321.76 1450.39 1327.57 1450.39 Z" fill="#000000" fill-rule="nonzero" fill-opacity="1" /><path clip-path="url(#clip040)" d="M1765.66 1451.02 L1787.88 1451.02 L1787.88 1453.01 L1775.34 1485.58 L1770.45 1485.58 L1782.26 1454.96 L1765.66 1454.96 L1765.66 1451.02 Z" fill="#000000" fill-rule="nonzero" fill-opacity="1" /><path clip-path="url(#clip040)" d="M1797 1479.7 L1801.89 1479.7 L1801.89 1485.58 L1797 1485.58 L1797 1479.7 Z" fill="#000000" fill-rule="nonzero" fill-opacity="1" /><path clip-path="url(#clip040)" d="M1812.12 1451.02 L1830.48 1451.02 L1830.48 1454.96 L1816.4 1454.96 L1816.4 1463.43 Q1817.42 1463.08 1818.44 1462.92 Q1819.46 1462.73 1820.48 1462.73 Q1826.26 1462.73 1829.64 1465.9 Q1833.02 1469.08 1833.02 1474.49 Q1833.02 1480.07 1829.55 1483.17 Q1826.08 1486.25 1819.76 1486.25 Q1817.58 1486.25 1815.31 1485.88 Q1813.07 1485.51 1810.66 1484.77 L1810.66 1480.07 Q1812.75 1481.2 1814.97 1481.76 Q1817.19 1482.32 1819.67 1482.32 Q1823.67 1482.32 1826.01 1480.21 Q1828.35 1478.1 1828.35 1474.49 Q1828.35 1470.88 1826.01 1468.77 Q1823.67 1466.67 1819.67 1466.67 Q1817.79 1466.67 1815.92 1467.08 Q1814.06 1467.5 1812.12 1468.38 L1812.12 1451.02 Z" fill="#000000" fill-rule="nonzero" fill-opacity="1" /><path clip-path="url(#clip040)" d="M2245.53 1481.64 L2253.17 1481.64 L2253.17 1455.28 L2244.86 1456.95 L2244.86 1452.69 L2253.13 1451.02 L2257.8 1451.02 L2257.8 1481.64 L2265.44 1481.64 L2265.44 1485.58 L2245.53 1485.58 L2245.53 1481.64 Z" fill="#000000" fill-rule="nonzero" fill-opacity="1" /><path clip-path="url(#clip040)" d="M2284.89 1454.1 Q2281.27 1454.1 2279.45 1457.66 Q2277.64 1461.2 2277.64 1468.33 Q2277.64 1475.44 2279.45 1479.01 Q2281.27 1482.55 2284.89 1482.55 Q2288.52 1482.55 2290.33 1479.01 Q2292.15 1475.44 2292.15 1468.33 Q2292.15 1461.2 2290.33 1457.66 Q2288.52 1454.1 2284.89 1454.1 M2284.89 1450.39 Q2290.7 1450.39 2293.75 1455 Q2296.83 1459.58 2296.83 1468.33 Q2296.83 1477.06 2293.75 1481.67 Q2290.7 1486.25 2284.89 1486.25 Q2279.08 1486.25 2276 1481.67 Q2272.94 1477.06 2272.94 1468.33 Q2272.94 1459.58 2276 1455 Q2279.08 1450.39 2284.89 1450.39 Z" fill="#000000" fill-rule="nonzero" fill-opacity="1" /><path clip-path="url(#clip040)" d="M2305.05 1479.7 L2309.93 1479.7 L2309.93 1485.58 L2305.05 1485.58 L2305.05 1479.7 Z" fill="#000000" fill-rule="nonzero" fill-opacity="1" /><path clip-path="url(#clip040)" d="M2330.12 1454.1 Q2326.51 1454.1 2324.68 1457.66 Q2322.87 1461.2 2322.87 1468.33 Q2322.87 1475.44 2324.68 1479.01 Q2326.51 1482.55 2330.12 1482.55 Q2333.75 1482.55 2335.56 1479.01 Q2337.38 1475.44 2337.38 1468.33 Q2337.38 1461.2 2335.56 1457.66 Q2333.75 1454.1 2330.12 1454.1 M2330.12 1450.39 Q2335.93 1450.39 2338.98 1455 Q2342.06 1459.58 2342.06 1468.33 Q2342.06 1477.06 2338.98 1481.67 Q2335.93 1486.25 2330.12 1486.25 Q2324.31 1486.25 2321.23 1481.67 Q2318.17 1477.06 2318.17 1468.33 Q2318.17 1459.58 2321.23 1455 Q2324.31 1450.39 2330.12 1450.39 Z" fill="#000000" fill-rule="nonzero" fill-opacity="1" /><path clip-path="url(#clip040)" d="M1253.53 1522.27 L1253.53 1532.4 L1265.6 1532.4 L1265.6 1536.95 L1253.53 1536.95 L1253.53 1556.3 Q1253.53 1560.66 1254.71 1561.9 Q1255.92 1563.14 1259.58 1563.14 L1265.6 1563.14 L1265.6 1568.04 L1259.58 1568.04 Q1252.8 1568.04 1250.22 1565.53 Q1247.65 1562.98 1247.65 1556.3 L1247.65 1536.95 L1243.35 1536.95 L1243.35 1532.4 L1247.65 1532.4 L1247.65 1522.27 L1253.53 1522.27 Z" fill="#000000" fill-rule="nonzero" fill-opacity="1" /><path clip-path="url(#clip040)" d="M1308.09 1518.58 Q1303.82 1525.9 1301.75 1533.06 Q1299.68 1540.23 1299.68 1547.58 Q1299.68 1554.93 1301.75 1562.16 Q1303.85 1569.35 1308.09 1576.64 L1303 1576.64 Q1298.22 1569.16 1295.83 1561.93 Q1293.48 1554.71 1293.48 1547.58 Q1293.48 1540.48 1295.83 1533.29 Q1298.19 1526.09 1303 1518.58 L1308.09 1518.58 Z" fill="#000000" fill-rule="nonzero" fill-opacity="1" /><path clip-path="url(#clip040)" d="M1342.18 1533.45 L1342.18 1538.98 Q1339.69 1537.71 1337.02 1537.07 Q1334.35 1536.44 1331.48 1536.44 Q1327.12 1536.44 1324.92 1537.77 Q1322.76 1539.11 1322.76 1541.79 Q1322.76 1543.82 1324.32 1545 Q1325.88 1546.15 1330.59 1547.2 L1332.6 1547.64 Q1338.83 1548.98 1341.44 1551.43 Q1344.09 1553.85 1344.09 1558.21 Q1344.09 1563.17 1340.14 1566.07 Q1336.22 1568.97 1329.35 1568.97 Q1326.48 1568.97 1323.37 1568.39 Q1320.28 1567.85 1316.84 1566.74 L1316.84 1560.69 Q1320.09 1562.38 1323.24 1563.24 Q1326.39 1564.07 1329.48 1564.07 Q1333.61 1564.07 1335.84 1562.66 Q1338.07 1561.23 1338.07 1558.65 Q1338.07 1556.27 1336.45 1554.99 Q1334.86 1553.72 1329.41 1552.54 L1327.38 1552.07 Q1321.93 1550.92 1319.51 1548.56 Q1317.1 1546.18 1317.1 1542.04 Q1317.1 1537.01 1320.66 1534.27 Q1324.22 1531.54 1330.78 1531.54 Q1334.03 1531.54 1336.89 1532.01 Q1339.76 1532.49 1342.18 1533.45 Z" fill="#000000" fill-rule="nonzero" fill-opacity="1" /><path clip-path="url(#clip040)" d="M1352.49 1518.58 L1357.58 1518.58 Q1362.36 1526.09 1364.71 1533.29 Q1367.1 1540.48 1367.1 1547.58 Q1367.1 1554.71 1364.71 1561.93 Q1362.36 1569.16 1357.58 1576.64 L1352.49 1576.64 Q1356.72 1569.35 1358.79 1562.16 Q1360.89 1554.93 1360.89 1547.58 Q1360.89 1540.23 1358.79 1533.06 Q1356.72 1525.9 1352.49 1518.58 Z" fill="#000000" fill-rule="nonzero" fill-opacity="1" /><polyline clip-path="url(#clip040)" style="stroke:#000000; stroke-linecap:round; stroke-linejoin:round; stroke-width:4; stroke-opacity:1; fill:none" points="257.69,1423.18 257.69,123.472 "/>
<polyline clip-path="url(#clip040)" style="stroke:#000000; stroke-linecap:round; stroke-linejoin:round; stroke-width:4; stroke-opacity:1; fill:none" points="257.69,1248.3 276.588,1248.3 "/>
<polyline clip-path="url(#clip040)" style="stroke:#000000; stroke-linecap:round; stroke-linejoin:round; stroke-width:4; stroke-opacity:1; fill:none" points="257.69,986.491 276.588,986.491 "/>
<polyline clip-path="url(#clip040)" style="stroke:#000000; stroke-linecap:round; stroke-linejoin:round; stroke-width:4; stroke-opacity:1; fill:none" points="257.69,724.682 276.588,724.682 "/>
<polyline clip-path="url(#clip040)" style="stroke:#000000; stroke-linecap:round; stroke-linejoin:round; stroke-width:4; stroke-opacity:1; fill:none" points="257.69,462.874 276.588,462.874 "/>
<polyline clip-path="url(#clip040)" style="stroke:#000000; stroke-linecap:round; stroke-linejoin:round; stroke-width:4; stroke-opacity:1; fill:none" points="257.69,201.065 276.588,201.065 "/>
<path clip-path="url(#clip040)" d="M114.26 1248.75 L143.936 1248.75 L143.936 1252.69 L114.26 1252.69 L114.26 1248.75 Z" fill="#000000" fill-rule="nonzero" fill-opacity="1" /><path clip-path="url(#clip040)" d="M164.028 1234.1 Q160.417 1234.1 158.589 1237.66 Q156.783 1241.2 156.783 1248.33 Q156.783 1255.44 158.589 1259.01 Q160.417 1262.55 164.028 1262.55 Q167.663 1262.55 169.468 1259.01 Q171.297 1255.44 171.297 1248.33 Q171.297 1241.2 169.468 1237.66 Q167.663 1234.1 164.028 1234.1 M164.028 1230.39 Q169.839 1230.39 172.894 1235 Q175.973 1239.58 175.973 1248.33 Q175.973 1257.06 172.894 1261.67 Q169.839 1266.25 164.028 1266.25 Q158.218 1266.25 155.14 1261.67 Q152.084 1257.06 152.084 1248.33 Q152.084 1239.58 155.14 1235 Q158.218 1230.39 164.028 1230.39 Z" fill="#000000" fill-rule="nonzero" fill-opacity="1" /><path clip-path="url(#clip040)" d="M184.19 1259.7 L189.075 1259.7 L189.075 1265.58 L184.19 1265.58 L184.19 1259.7 Z" fill="#000000" fill-rule="nonzero" fill-opacity="1" /><path clip-path="url(#clip040)" d="M212.107 1235.09 L200.301 1253.54 L212.107 1253.54 L212.107 1235.09 M210.88 1231.02 L216.76 1231.02 L216.76 1253.54 L221.69 1253.54 L221.69 1257.43 L216.76 1257.43 L216.76 1265.58 L212.107 1265.58 L212.107 1257.43 L196.505 1257.43 L196.505 1252.92 L210.88 1231.02 Z" fill="#000000" fill-rule="nonzero" fill-opacity="1" /><path clip-path="url(#clip040)" d="M116.343 986.942 L146.019 986.942 L146.019 990.877 L116.343 990.877 L116.343 986.942 Z" fill="#000000" fill-rule="nonzero" fill-opacity="1" /><path clip-path="url(#clip040)" d="M166.112 972.29 Q162.501 972.29 160.672 975.854 Q158.866 979.396 158.866 986.526 Q158.866 993.632 160.672 997.197 Q162.501 1000.74 166.112 1000.74 Q169.746 1000.74 171.552 997.197 Q173.38 993.632 173.38 986.526 Q173.38 979.396 171.552 975.854 Q169.746 972.29 166.112 972.29 M166.112 968.586 Q171.922 968.586 174.977 973.192 Q178.056 977.776 178.056 986.526 Q178.056 995.252 174.977 999.859 Q171.922 1004.44 166.112 1004.44 Q160.302 1004.44 157.223 999.859 Q154.167 995.252 154.167 986.526 Q154.167 977.776 157.223 973.192 Q160.302 968.586 166.112 968.586 Z" fill="#000000" fill-rule="nonzero" fill-opacity="1" /><path clip-path="url(#clip040)" d="M186.274 997.891 L191.158 997.891 L191.158 1003.77 L186.274 1003.77 L186.274 997.891 Z" fill="#000000" fill-rule="nonzero" fill-opacity="1" /><path clip-path="url(#clip040)" d="M205.371 999.836 L221.69 999.836 L221.69 1003.77 L199.746 1003.77 L199.746 999.836 Q202.408 997.081 206.991 992.451 Q211.598 987.799 212.778 986.456 Q215.024 983.933 215.903 982.197 Q216.806 980.438 216.806 978.748 Q216.806 975.993 214.861 974.257 Q212.94 972.521 209.838 972.521 Q207.639 972.521 205.186 973.285 Q202.755 974.049 199.977 975.6 L199.977 970.878 Q202.801 969.743 205.255 969.165 Q207.709 968.586 209.746 968.586 Q215.116 968.586 218.311 971.271 Q221.505 973.956 221.505 978.447 Q221.505 980.577 220.695 982.498 Q219.908 984.396 217.801 986.989 Q217.223 987.66 214.121 990.877 Q211.019 994.072 205.371 999.836 Z" fill="#000000" fill-rule="nonzero" fill-opacity="1" /><path clip-path="url(#clip040)" d="M164.515 710.481 Q160.903 710.481 159.075 714.046 Q157.269 717.588 157.269 724.717 Q157.269 731.824 159.075 735.388 Q160.903 738.93 164.515 738.93 Q168.149 738.93 169.954 735.388 Q171.783 731.824 171.783 724.717 Q171.783 717.588 169.954 714.046 Q168.149 710.481 164.515 710.481 M164.515 706.777 Q170.325 706.777 173.38 711.384 Q176.459 715.967 176.459 724.717 Q176.459 733.444 173.38 738.05 Q170.325 742.634 164.515 742.634 Q158.704 742.634 155.626 738.05 Q152.57 733.444 152.57 724.717 Q152.57 715.967 155.626 711.384 Q158.704 706.777 164.515 706.777 Z" fill="#000000" fill-rule="nonzero" fill-opacity="1" /><path clip-path="url(#clip040)" d="M184.676 736.083 L189.561 736.083 L189.561 741.962 L184.676 741.962 L184.676 736.083 Z" fill="#000000" fill-rule="nonzero" fill-opacity="1" /><path clip-path="url(#clip040)" d="M209.746 710.481 Q206.135 710.481 204.306 714.046 Q202.5 717.588 202.5 724.717 Q202.5 731.824 204.306 735.388 Q206.135 738.93 209.746 738.93 Q213.38 738.93 215.186 735.388 Q217.014 731.824 217.014 724.717 Q217.014 717.588 215.186 714.046 Q213.38 710.481 209.746 710.481 M209.746 706.777 Q215.556 706.777 218.611 711.384 Q221.69 715.967 221.69 724.717 Q221.69 733.444 218.611 738.05 Q215.556 742.634 209.746 742.634 Q203.936 742.634 200.857 738.05 Q197.801 733.444 197.801 724.717 Q197.801 715.967 200.857 711.384 Q203.936 706.777 209.746 706.777 Z" fill="#000000" fill-rule="nonzero" fill-opacity="1" /><path clip-path="url(#clip040)" d="M166.112 448.673 Q162.501 448.673 160.672 452.237 Q158.866 455.779 158.866 462.909 Q158.866 470.015 160.672 473.58 Q162.501 477.122 166.112 477.122 Q169.746 477.122 171.552 473.58 Q173.38 470.015 173.38 462.909 Q173.38 455.779 171.552 452.237 Q169.746 448.673 166.112 448.673 M166.112 444.969 Q171.922 444.969 174.977 449.575 Q178.056 454.159 178.056 462.909 Q178.056 471.635 174.977 476.242 Q171.922 480.825 166.112 480.825 Q160.302 480.825 157.223 476.242 Q154.167 471.635 154.167 462.909 Q154.167 454.159 157.223 449.575 Q160.302 444.969 166.112 444.969 Z" fill="#000000" fill-rule="nonzero" fill-opacity="1" /><path clip-path="url(#clip040)" d="M186.274 474.274 L191.158 474.274 L191.158 480.154 L186.274 480.154 L186.274 474.274 Z" fill="#000000" fill-rule="nonzero" fill-opacity="1" /><path clip-path="url(#clip040)" d="M205.371 476.219 L221.69 476.219 L221.69 480.154 L199.746 480.154 L199.746 476.219 Q202.408 473.464 206.991 468.835 Q211.598 464.182 212.778 462.839 Q215.024 460.316 215.903 458.58 Q216.806 456.821 216.806 455.131 Q216.806 452.376 214.861 450.64 Q212.94 448.904 209.838 448.904 Q207.639 448.904 205.186 449.668 Q202.755 450.432 199.977 451.983 L199.977 447.261 Q202.801 446.126 205.255 445.548 Q207.709 444.969 209.746 444.969 Q215.116 444.969 218.311 447.654 Q221.505 450.339 221.505 454.83 Q221.505 456.96 220.695 458.881 Q219.908 460.779 217.801 463.372 Q217.223 464.043 214.121 467.26 Q211.019 470.455 205.371 476.219 Z" fill="#000000" fill-rule="nonzero" fill-opacity="1" /><path clip-path="url(#clip040)" d="M164.028 186.864 Q160.417 186.864 158.589 190.429 Q156.783 193.971 156.783 201.1 Q156.783 208.207 158.589 211.771 Q160.417 215.313 164.028 215.313 Q167.663 215.313 169.468 211.771 Q171.297 208.207 171.297 201.1 Q171.297 193.971 169.468 190.429 Q167.663 186.864 164.028 186.864 M164.028 183.16 Q169.839 183.16 172.894 187.767 Q175.973 192.35 175.973 201.1 Q175.973 209.827 172.894 214.433 Q169.839 219.017 164.028 219.017 Q158.218 219.017 155.14 214.433 Q152.084 209.827 152.084 201.1 Q152.084 192.35 155.14 187.767 Q158.218 183.16 164.028 183.16 Z" fill="#000000" fill-rule="nonzero" fill-opacity="1" /><path clip-path="url(#clip040)" d="M184.19 212.466 L189.075 212.466 L189.075 218.345 L184.19 218.345 L184.19 212.466 Z" fill="#000000" fill-rule="nonzero" fill-opacity="1" /><path clip-path="url(#clip040)" d="M212.107 187.859 L200.301 206.308 L212.107 206.308 L212.107 187.859 M210.88 183.785 L216.76 183.785 L216.76 206.308 L221.69 206.308 L221.69 210.197 L216.76 210.197 L216.76 218.345 L212.107 218.345 L212.107 210.197 L196.505 210.197 L196.505 205.683 L210.88 183.785 Z" fill="#000000" fill-rule="nonzero" fill-opacity="1" /><path clip-path="url(#clip040)" d="M16.4842 838.59 L16.4842 829.933 L56.238 808.863 L16.4842 808.863 L16.4842 802.624 L64.0042 802.624 L64.0042 811.282 L24.2503 832.352 L64.0042 832.352 L64.0042 838.59 L16.4842 838.59 Z" fill="#000000" fill-rule="nonzero" fill-opacity="1" /><path clip-path="url(#clip040)" d="M28.3562 790.084 L28.3562 784.227 L64.0042 784.227 L64.0042 790.084 L28.3562 790.084 M14.479 790.084 L14.479 784.227 L21.895 784.227 L21.895 790.084 L14.479 790.084 Z" fill="#000000" fill-rule="nonzero" fill-opacity="1" /><path clip-path="url(#clip040)" d="M14.479 771.973 L14.479 766.117 L64.0042 766.117 L64.0042 771.973 L14.479 771.973 Z" fill="#000000" fill-rule="nonzero" fill-opacity="1" /><path clip-path="url(#clip040)" d="M46.0847 737.662 Q46.0847 744.76 47.7079 747.497 Q49.3312 750.234 53.2461 750.234 Q56.3653 750.234 58.2114 748.197 Q60.0256 746.129 60.0256 742.596 Q60.0256 737.726 56.5881 734.798 Q53.1188 731.837 47.3897 731.837 L46.0847 731.837 L46.0847 737.662 M43.6657 725.981 L64.0042 725.981 L64.0042 731.837 L58.5933 731.837 Q61.8398 733.843 63.3994 736.835 Q64.9272 739.826 64.9272 744.155 Q64.9272 749.63 61.8716 752.876 Q58.7843 756.091 53.6281 756.091 Q47.6125 756.091 44.5569 752.08 Q41.5014 748.038 41.5014 740.049 L41.5014 731.837 L40.9285 731.837 Q36.8862 731.837 34.6901 734.511 Q32.4621 737.153 32.4621 741.959 Q32.4621 745.015 33.1941 747.911 Q33.9262 750.807 35.3903 753.481 L29.9795 753.481 Q28.7381 750.266 28.1334 747.243 Q27.4968 744.219 27.4968 741.354 Q27.4968 733.62 31.5072 729.8 Q35.5176 725.981 43.6657 725.981 Z" fill="#000000" fill-rule="nonzero" fill-opacity="1" /><path clip-path="url(#clip040)" d="M28.3562 713.918 L28.3562 708.062 L64.0042 708.062 L64.0042 713.918 L28.3562 713.918 M14.479 713.918 L14.479 708.062 L21.895 708.062 L21.895 713.918 L14.479 713.918 Z" fill="#000000" fill-rule="nonzero" fill-opacity="1" /><path clip-path="url(#clip040)" d="M467.314 12.096 L479.507 12.096 L494.941 53.2532 L510.456 12.096 L522.649 12.096 L522.649 72.576 L514.669 72.576 L514.669 19.4686 L499.073 60.9499 L490.849 60.9499 L475.254 19.4686 L475.254 72.576 L467.314 72.576 L467.314 12.096 Z" fill="#000000" fill-rule="nonzero" fill-opacity="1" /><path clip-path="url(#clip040)" d="M577.377 48.0275 L577.377 51.6733 L543.106 51.6733 Q543.592 59.3701 547.724 63.421 Q551.897 67.4314 559.31 67.4314 Q563.604 67.4314 567.614 66.3781 Q571.665 65.3249 575.635 63.2184 L575.635 70.267 Q571.625 71.9684 567.412 72.8596 Q563.199 73.7508 558.864 73.7508 Q548.008 73.7508 541.648 67.4314 Q535.328 61.1119 535.328 50.3365 Q535.328 39.1965 541.324 32.6746 Q547.36 26.1121 557.568 26.1121 Q566.723 26.1121 572.03 32.0264 Q577.377 37.9003 577.377 48.0275 M569.923 45.84 Q569.842 39.7232 566.48 36.0774 Q563.158 32.4315 557.649 32.4315 Q551.411 32.4315 547.643 35.9558 Q543.916 39.4801 543.349 45.8805 L569.923 45.84 Z" fill="#000000" fill-rule="nonzero" fill-opacity="1" /><path clip-path="url(#clip040)" d="M596.983 14.324 L596.983 27.2059 L612.336 27.2059 L612.336 32.9987 L596.983 32.9987 L596.983 57.6282 Q596.983 63.1779 598.482 64.7578 Q600.021 66.3376 604.68 66.3376 L612.336 66.3376 L612.336 72.576 L604.68 72.576 Q596.051 72.576 592.77 69.3758 Q589.489 66.1351 589.489 57.6282 L589.489 32.9987 L584.02 32.9987 L584.02 27.2059 L589.489 27.2059 L589.489 14.324 L596.983 14.324 Z" fill="#000000" fill-rule="nonzero" fill-opacity="1" /><path clip-path="url(#clip040)" d="M639.72 32.4315 Q633.725 32.4315 630.241 37.1306 Q626.757 41.7891 626.757 49.9314 Q626.757 58.0738 630.201 62.7728 Q633.684 67.4314 639.72 67.4314 Q645.675 67.4314 649.159 62.7323 Q652.643 58.0333 652.643 49.9314 Q652.643 41.8701 649.159 37.1711 Q645.675 32.4315 639.72 32.4315 M639.72 26.1121 Q649.442 26.1121 654.992 32.4315 Q660.542 38.7509 660.542 49.9314 Q660.542 61.0714 654.992 67.4314 Q649.442 73.7508 639.72 73.7508 Q629.958 73.7508 624.408 67.4314 Q618.899 61.0714 618.899 49.9314 Q618.899 38.7509 624.408 32.4315 Q629.958 26.1121 639.72 26.1121 Z" fill="#000000" fill-rule="nonzero" fill-opacity="1" /><path clip-path="url(#clip040)" d="M702.752 34.0924 L702.752 9.54393 L710.206 9.54393 L710.206 72.576 L702.752 72.576 L702.752 65.7705 Q700.403 69.8214 696.797 71.8063 Q693.233 73.7508 688.21 73.7508 Q679.986 73.7508 674.801 67.1883 Q669.656 60.6258 669.656 49.9314 Q669.656 39.2371 674.801 32.6746 Q679.986 26.1121 688.21 26.1121 Q693.233 26.1121 696.797 28.0971 Q700.403 30.0415 702.752 34.0924 M677.353 49.9314 Q677.353 58.1548 680.715 62.8538 Q684.118 67.5124 690.032 67.5124 Q695.947 67.5124 699.35 62.8538 Q702.752 58.1548 702.752 49.9314 Q702.752 41.7081 699.35 37.0496 Q695.947 32.3505 690.032 32.3505 Q684.118 32.3505 680.715 37.0496 Q677.353 41.7081 677.353 49.9314 Z" fill="#000000" fill-rule="nonzero" fill-opacity="1" /><path clip-path="url(#clip040)" d="M764.367 48.0275 L764.367 51.6733 L730.096 51.6733 Q730.582 59.3701 734.714 63.421 Q738.886 67.4314 746.3 67.4314 Q750.593 67.4314 754.604 66.3781 Q758.655 65.3249 762.625 63.2184 L762.625 70.267 Q758.614 71.9684 754.401 72.8596 Q750.188 73.7508 745.854 73.7508 Q734.997 73.7508 728.638 67.4314 Q722.318 61.1119 722.318 50.3365 Q722.318 39.1965 728.313 32.6746 Q734.349 26.1121 744.558 26.1121 Q753.713 26.1121 759.019 32.0264 Q764.367 37.9003 764.367 48.0275 M756.913 45.84 Q756.832 39.7232 753.47 36.0774 Q750.148 32.4315 744.639 32.4315 Q738.4 32.4315 734.633 35.9558 Q730.906 39.4801 730.339 45.8805 L756.913 45.84 Z" fill="#000000" fill-rule="nonzero" fill-opacity="1" /><path clip-path="url(#clip040)" d="M803.296 12.096 L841.536 12.096 L841.536 18.9825 L811.479 18.9825 L811.479 36.8875 L840.28 36.8875 L840.28 43.7741 L811.479 43.7741 L811.479 65.6895 L842.265 65.6895 L842.265 72.576 L803.296 72.576 L803.296 12.096 Z" fill="#000000" fill-rule="nonzero" fill-opacity="1" /><path clip-path="url(#clip040)" d="M854.621 54.671 L854.621 27.2059 L862.074 27.2059 L862.074 54.3874 Q862.074 60.8284 864.586 64.0691 Q867.097 67.2693 872.121 67.2693 Q878.156 67.2693 881.64 63.421 Q885.165 59.5726 885.165 52.9291 L885.165 27.2059 L892.618 27.2059 L892.618 72.576 L885.165 72.576 L885.165 65.6084 Q882.45 69.7404 878.845 71.7658 Q875.28 73.7508 870.541 73.7508 Q862.722 73.7508 858.672 68.8897 Q854.621 64.0286 854.621 54.671 M873.376 26.1121 L873.376 26.1121 Z" fill="#000000" fill-rule="nonzero" fill-opacity="1" /><path clip-path="url(#clip040)" d="M907.971 9.54393 L915.425 9.54393 L915.425 72.576 L907.971 72.576 L907.971 9.54393 Z" fill="#000000" fill-rule="nonzero" fill-opacity="1" /><path clip-path="url(#clip040)" d="M969.828 48.0275 L969.828 51.6733 L935.558 51.6733 Q936.044 59.3701 940.176 63.421 Q944.348 67.4314 951.761 67.4314 Q956.055 67.4314 960.066 66.3781 Q964.117 65.3249 968.087 63.2184 L968.087 70.267 Q964.076 71.9684 959.863 72.8596 Q955.65 73.7508 951.316 73.7508 Q940.459 73.7508 934.099 67.4314 Q927.78 61.1119 927.78 50.3365 Q927.78 39.1965 933.775 32.6746 Q939.811 26.1121 950.019 26.1121 Q959.175 26.1121 964.481 32.0264 Q969.828 37.9003 969.828 48.0275 M962.375 45.84 Q962.294 39.7232 958.931 36.0774 Q955.61 32.4315 950.101 32.4315 Q943.862 32.4315 940.095 35.9558 Q936.368 39.4801 935.801 45.8805 L962.375 45.84 Z" fill="#000000" fill-rule="nonzero" fill-opacity="1" /><path clip-path="url(#clip040)" d="M1008.35 34.1734 Q1007.1 33.4443 1005.6 33.1202 Q1004.14 32.7556 1002.36 32.7556 Q996.038 32.7556 992.635 36.8875 Q989.273 40.9789 989.273 48.6757 L989.273 72.576 L981.779 72.576 L981.779 27.2059 L989.273 27.2059 L989.273 34.2544 Q991.622 30.1225 995.39 28.1376 Q999.157 26.1121 1004.54 26.1121 Q1005.31 26.1121 1006.25 26.2337 Q1007.18 26.3147 1008.31 26.5172 L1008.35 34.1734 Z" fill="#000000" fill-rule="nonzero" fill-opacity="1" /><path clip-path="url(#clip040)" d="M1016.62 62.2867 L1025.16 62.2867 L1025.16 72.576 L1016.62 72.576 L1016.62 62.2867 M1016.62 29.6769 L1025.16 29.6769 L1025.16 39.9662 L1016.62 39.9662 L1016.62 29.6769 Z" fill="#000000" fill-rule="nonzero" fill-opacity="1" /><path clip-path="url(#clip040)" d="M1097.96 28.5427 L1097.96 35.5912 Q1094.8 33.9709 1091.4 33.1607 Q1087.99 32.3505 1084.35 32.3505 Q1078.8 32.3505 1076 34.0519 Q1073.25 35.7533 1073.25 39.156 Q1073.25 41.7486 1075.23 43.2475 Q1077.22 44.7058 1083.21 46.0426 L1085.77 46.6097 Q1093.71 48.3111 1097.03 51.4303 Q1100.39 54.509 1100.39 60.0587 Q1100.39 66.3781 1095.37 70.0644 Q1090.38 73.7508 1081.63 73.7508 Q1077.99 73.7508 1074.02 73.0216 Q1070.09 72.3329 1065.71 70.9151 L1065.71 63.2184 Q1069.85 65.3654 1073.86 66.4591 Q1077.87 67.5124 1081.8 67.5124 Q1087.06 67.5124 1089.9 65.73 Q1092.73 63.9071 1092.73 60.6258 Q1092.73 57.5877 1090.67 55.9673 Q1088.64 54.3469 1081.71 52.8481 L1079.12 52.2405 Q1072.19 50.7821 1069.12 47.7845 Q1066.04 44.7463 1066.04 39.4801 Q1066.04 33.0797 1070.57 29.5959 Q1075.11 26.1121 1083.46 26.1121 Q1087.59 26.1121 1091.23 26.7198 Q1094.88 27.3274 1097.96 28.5427 Z" fill="#000000" fill-rule="nonzero" fill-opacity="1" /><path clip-path="url(#clip040)" d="M1111.97 9.54393 L1119.47 9.54393 L1119.47 46.7717 L1141.71 27.2059 L1151.23 27.2059 L1127.17 48.4326 L1152.24 72.576 L1142.52 72.576 L1119.47 50.4176 L1119.47 72.576 L1111.97 72.576 L1111.97 9.54393 Z" fill="#000000" fill-rule="nonzero" fill-opacity="1" /><path clip-path="url(#clip040)" d="M1196.15 48.0275 L1196.15 51.6733 L1161.88 51.6733 Q1162.37 59.3701 1166.5 63.421 Q1170.67 67.4314 1178.09 67.4314 Q1182.38 67.4314 1186.39 66.3781 Q1190.44 65.3249 1194.41 63.2184 L1194.41 70.267 Q1190.4 71.9684 1186.19 72.8596 Q1181.97 73.7508 1177.64 73.7508 Q1166.78 73.7508 1160.42 67.4314 Q1154.1 61.1119 1154.1 50.3365 Q1154.1 39.1965 1160.1 32.6746 Q1166.14 26.1121 1176.34 26.1121 Q1185.5 26.1121 1190.81 32.0264 Q1196.15 37.9003 1196.15 48.0275 M1188.7 45.84 Q1188.62 39.7232 1185.26 36.0774 Q1181.93 32.4315 1176.42 32.4315 Q1170.19 32.4315 1166.42 35.9558 Q1162.69 39.4801 1162.12 45.8805 L1188.7 45.84 Z" fill="#000000" fill-rule="nonzero" fill-opacity="1" /><path clip-path="url(#clip040)" d="M1243.71 35.9153 Q1246.51 30.8922 1250.39 28.5022 Q1254.28 26.1121 1259.55 26.1121 Q1266.64 26.1121 1270.49 31.0947 Q1274.33 36.0368 1274.33 45.1919 L1274.33 72.576 L1266.84 72.576 L1266.84 45.4349 Q1266.84 38.913 1264.53 35.7533 Q1262.22 32.5936 1257.48 32.5936 Q1251.69 32.5936 1248.33 36.4419 Q1244.97 40.2903 1244.97 46.9338 L1244.97 72.576 L1237.47 72.576 L1237.47 45.4349 Q1237.47 38.8725 1235.16 35.7533 Q1232.85 32.5936 1228.03 32.5936 Q1222.32 32.5936 1218.96 36.4824 Q1215.6 40.3308 1215.6 46.9338 L1215.6 72.576 L1208.1 72.576 L1208.1 27.2059 L1215.6 27.2059 L1215.6 34.2544 Q1218.15 30.082 1221.71 28.0971 Q1225.28 26.1121 1230.18 26.1121 Q1235.12 26.1121 1238.57 28.6237 Q1242.05 31.1352 1243.71 35.9153 Z" fill="#000000" fill-rule="nonzero" fill-opacity="1" /><path clip-path="url(#clip040)" d="M1309.82 49.7694 Q1300.79 49.7694 1297.3 51.8354 Q1293.82 53.9013 1293.82 58.8839 Q1293.82 62.8538 1296.41 65.2034 Q1299.05 67.5124 1303.54 67.5124 Q1309.74 67.5124 1313.47 63.1374 Q1317.23 58.7219 1317.23 51.4303 L1317.23 49.7694 L1309.82 49.7694 M1324.69 46.6907 L1324.69 72.576 L1317.23 72.576 L1317.23 65.6895 Q1314.68 69.8214 1310.87 71.8063 Q1307.07 73.7508 1301.56 73.7508 Q1294.59 73.7508 1290.46 69.8619 Q1286.37 65.9325 1286.37 59.3701 Q1286.37 51.7138 1291.47 47.825 Q1296.61 43.9361 1306.78 43.9361 L1317.23 43.9361 L1317.23 43.2069 Q1317.23 38.0623 1313.83 35.2672 Q1310.47 32.4315 1304.35 32.4315 Q1300.46 32.4315 1296.78 33.3632 Q1293.09 34.295 1289.69 36.1584 L1289.69 29.2718 Q1293.78 27.692 1297.63 26.9223 Q1301.48 26.1121 1305.12 26.1121 Q1314.97 26.1121 1319.83 31.2163 Q1324.69 36.3204 1324.69 46.6907 Z" fill="#000000" fill-rule="nonzero" fill-opacity="1" /><path clip-path="url(#clip040)" d="M1366.74 12.096 L1401.49 12.096 L1401.49 18.9825 L1374.92 18.9825 L1374.92 36.8065 L1398.9 36.8065 L1398.9 43.6931 L1374.92 43.6931 L1374.92 72.576 L1366.74 72.576 L1366.74 12.096 Z" fill="#000000" fill-rule="nonzero" fill-opacity="1" /><path clip-path="url(#clip040)" d="M1428.76 32.4315 Q1422.76 32.4315 1419.28 37.1306 Q1415.79 41.7891 1415.79 49.9314 Q1415.79 58.0738 1419.24 62.7728 Q1422.72 67.4314 1428.76 67.4314 Q1434.71 67.4314 1438.19 62.7323 Q1441.68 58.0333 1441.68 49.9314 Q1441.68 41.8701 1438.19 37.1711 Q1434.71 32.4315 1428.76 32.4315 M1428.76 26.1121 Q1438.48 26.1121 1444.03 32.4315 Q1449.58 38.7509 1449.58 49.9314 Q1449.58 61.0714 1444.03 67.4314 Q1438.48 73.7508 1428.76 73.7508 Q1418.99 73.7508 1413.44 67.4314 Q1407.93 61.0714 1407.93 49.9314 Q1407.93 38.7509 1413.44 32.4315 Q1418.99 26.1121 1428.76 26.1121 Z" fill="#000000" fill-rule="nonzero" fill-opacity="1" /><path clip-path="url(#clip040)" d="M1488.22 34.1734 Q1486.97 33.4443 1485.47 33.1202 Q1484.01 32.7556 1482.23 32.7556 Q1475.91 32.7556 1472.51 36.8875 Q1469.14 40.9789 1469.14 48.6757 L1469.14 72.576 L1461.65 72.576 L1461.65 27.2059 L1469.14 27.2059 L1469.14 34.2544 Q1471.49 30.1225 1475.26 28.1376 Q1479.03 26.1121 1484.41 26.1121 Q1485.18 26.1121 1486.12 26.2337 Q1487.05 26.3147 1488.18 26.5172 L1488.22 34.1734 Z" fill="#000000" fill-rule="nonzero" fill-opacity="1" /><path clip-path="url(#clip040)" d="M1491.71 27.2059 L1499.16 27.2059 L1508.48 62.6108 L1517.75 27.2059 L1526.54 27.2059 L1535.86 62.6108 L1545.14 27.2059 L1552.59 27.2059 L1540.72 72.576 L1531.93 72.576 L1522.17 35.3887 L1512.37 72.576 L1503.58 72.576 L1491.71 27.2059 Z" fill="#000000" fill-rule="nonzero" fill-opacity="1" /><path clip-path="url(#clip040)" d="M1584.51 49.7694 Q1575.48 49.7694 1572 51.8354 Q1568.51 53.9013 1568.51 58.8839 Q1568.51 62.8538 1571.1 65.2034 Q1573.74 67.5124 1578.23 67.5124 Q1584.43 67.5124 1588.16 63.1374 Q1591.93 58.7219 1591.93 51.4303 L1591.93 49.7694 L1584.51 49.7694 M1599.38 46.6907 L1599.38 72.576 L1591.93 72.576 L1591.93 65.6895 Q1589.37 69.8214 1585.57 71.8063 Q1581.76 73.7508 1576.25 73.7508 Q1569.28 73.7508 1565.15 69.8619 Q1561.06 65.9325 1561.06 59.3701 Q1561.06 51.7138 1566.16 47.825 Q1571.31 43.9361 1581.47 43.9361 L1591.93 43.9361 L1591.93 43.2069 Q1591.93 38.0623 1588.52 35.2672 Q1585.16 32.4315 1579.04 32.4315 Q1575.16 32.4315 1571.47 33.3632 Q1567.78 34.295 1564.38 36.1584 L1564.38 29.2718 Q1568.47 27.692 1572.32 26.9223 Q1576.17 26.1121 1579.81 26.1121 Q1589.66 26.1121 1594.52 31.2163 Q1599.38 36.3204 1599.38 46.6907 Z" fill="#000000" fill-rule="nonzero" fill-opacity="1" /><path clip-path="url(#clip040)" d="M1641.02 34.1734 Q1639.77 33.4443 1638.27 33.1202 Q1636.81 32.7556 1635.03 32.7556 Q1628.71 32.7556 1625.31 36.8875 Q1621.94 40.9789 1621.94 48.6757 L1621.94 72.576 L1614.45 72.576 L1614.45 27.2059 L1621.94 27.2059 L1621.94 34.2544 Q1624.29 30.1225 1628.06 28.1376 Q1631.83 26.1121 1637.21 26.1121 Q1637.98 26.1121 1638.92 26.2337 Q1639.85 26.3147 1640.98 26.5172 L1641.02 34.1734 Z" fill="#000000" fill-rule="nonzero" fill-opacity="1" /><path clip-path="url(#clip040)" d="M1677.24 34.0924 L1677.24 9.54393 L1684.69 9.54393 L1684.69 72.576 L1677.24 72.576 L1677.24 65.7705 Q1674.89 69.8214 1671.28 71.8063 Q1667.72 73.7508 1662.7 73.7508 Q1654.47 73.7508 1649.29 67.1883 Q1644.14 60.6258 1644.14 49.9314 Q1644.14 39.2371 1649.29 32.6746 Q1654.47 26.1121 1662.7 26.1121 Q1667.72 26.1121 1671.28 28.0971 Q1674.89 30.0415 1677.24 34.0924 M1651.84 49.9314 Q1651.84 58.1548 1655.2 62.8538 Q1658.6 67.5124 1664.52 67.5124 Q1670.43 67.5124 1673.84 62.8538 Q1677.24 58.1548 1677.24 49.9314 Q1677.24 41.7081 1673.84 37.0496 Q1670.43 32.3505 1664.52 32.3505 Q1658.6 32.3505 1655.2 37.0496 Q1651.84 41.7081 1651.84 49.9314 Z" fill="#000000" fill-rule="nonzero" fill-opacity="1" /><path clip-path="url(#clip040)" d="M1734.92 18.8205 L1734.92 65.8515 L1744.81 65.8515 Q1757.32 65.8515 1763.12 60.1802 Q1768.95 54.509 1768.95 42.2752 Q1768.95 30.1225 1763.12 24.4918 Q1757.32 18.8205 1744.81 18.8205 L1734.92 18.8205 M1726.74 12.096 L1743.55 12.096 Q1761.13 12.096 1769.36 19.4281 Q1777.58 26.7198 1777.58 42.2752 Q1777.58 57.9117 1769.31 65.2439 Q1761.05 72.576 1743.55 72.576 L1726.74 72.576 L1726.74 12.096 Z" fill="#000000" fill-rule="nonzero" fill-opacity="1" /><path clip-path="url(#clip040)" d="M1790.3 27.2059 L1797.75 27.2059 L1797.75 72.576 L1790.3 72.576 L1790.3 27.2059 M1790.3 9.54393 L1797.75 9.54393 L1797.75 18.9825 L1790.3 18.9825 L1790.3 9.54393 Z" fill="#000000" fill-rule="nonzero" fill-opacity="1" /><path clip-path="url(#clip040)" d="M1836.32 9.54393 L1836.32 15.7418 L1829.19 15.7418 Q1825.18 15.7418 1823.6 17.3622 Q1822.06 18.9825 1822.06 23.1955 L1822.06 27.2059 L1834.33 27.2059 L1834.33 32.9987 L1822.06 32.9987 L1822.06 72.576 L1814.56 72.576 L1814.56 32.9987 L1807.43 32.9987 L1807.43 27.2059 L1814.56 27.2059 L1814.56 24.0462 Q1814.56 16.471 1818.09 13.0277 Q1821.61 9.54393 1829.27 9.54393 L1836.32 9.54393 Z" fill="#000000" fill-rule="nonzero" fill-opacity="1" /><path clip-path="url(#clip040)" d="M1865.52 9.54393 L1865.52 15.7418 L1858.39 15.7418 Q1854.38 15.7418 1852.8 17.3622 Q1851.26 18.9825 1851.26 23.1955 L1851.26 27.2059 L1863.54 27.2059 L1863.54 32.9987 L1851.26 32.9987 L1851.26 72.576 L1843.77 72.576 L1843.77 32.9987 L1836.64 32.9987 L1836.64 27.2059 L1843.77 27.2059 L1843.77 24.0462 Q1843.77 16.471 1847.29 13.0277 Q1850.82 9.54393 1858.48 9.54393 L1865.52 9.54393 Z" fill="#000000" fill-rule="nonzero" fill-opacity="1" /><path clip-path="url(#clip040)" d="M1910.57 48.0275 L1910.57 51.6733 L1876.3 51.6733 Q1876.79 59.3701 1880.92 63.421 Q1885.09 67.4314 1892.5 67.4314 Q1896.8 67.4314 1900.81 66.3781 Q1904.86 65.3249 1908.83 63.2184 L1908.83 70.267 Q1904.82 71.9684 1900.6 72.8596 Q1896.39 73.7508 1892.06 73.7508 Q1881.2 73.7508 1874.84 67.4314 Q1868.52 61.1119 1868.52 50.3365 Q1868.52 39.1965 1874.52 32.6746 Q1880.55 26.1121 1890.76 26.1121 Q1899.92 26.1121 1905.22 32.0264 Q1910.57 37.9003 1910.57 48.0275 M1903.12 45.84 Q1903.04 39.7232 1899.67 36.0774 Q1896.35 32.4315 1890.84 32.4315 Q1884.6 32.4315 1880.84 35.9558 Q1877.11 39.4801 1876.54 45.8805 L1903.12 45.84 Z" fill="#000000" fill-rule="nonzero" fill-opacity="1" /><path clip-path="url(#clip040)" d="M1949.09 34.1734 Q1947.84 33.4443 1946.34 33.1202 Q1944.88 32.7556 1943.1 32.7556 Q1936.78 32.7556 1933.38 36.8875 Q1930.01 40.9789 1930.01 48.6757 L1930.01 72.576 L1922.52 72.576 L1922.52 27.2059 L1930.01 27.2059 L1930.01 34.2544 Q1932.36 30.1225 1936.13 28.1376 Q1939.9 26.1121 1945.29 26.1121 Q1946.06 26.1121 1946.99 26.2337 Q1947.92 26.3147 1949.05 26.5172 L1949.09 34.1734 Z" fill="#000000" fill-rule="nonzero" fill-opacity="1" /><path clip-path="url(#clip040)" d="M1993.9 48.0275 L1993.9 51.6733 L1959.63 51.6733 Q1960.11 59.3701 1964.24 63.421 Q1968.42 67.4314 1975.83 67.4314 Q1980.12 67.4314 1984.13 66.3781 Q1988.19 65.3249 1992.16 63.2184 L1992.16 70.267 Q1988.14 71.9684 1983.93 72.8596 Q1979.72 73.7508 1975.38 73.7508 Q1964.53 73.7508 1958.17 67.4314 Q1951.85 61.1119 1951.85 50.3365 Q1951.85 39.1965 1957.84 32.6746 Q1963.88 26.1121 1974.09 26.1121 Q1983.24 26.1121 1988.55 32.0264 Q1993.9 37.9003 1993.9 48.0275 M1986.44 45.84 Q1986.36 39.7232 1983 36.0774 Q1979.68 32.4315 1974.17 32.4315 Q1967.93 32.4315 1964.16 35.9558 Q1960.44 39.4801 1959.87 45.8805 L1986.44 45.84 Z" fill="#000000" fill-rule="nonzero" fill-opacity="1" /><path clip-path="url(#clip040)" d="M2043.84 45.1919 L2043.84 72.576 L2036.39 72.576 L2036.39 45.4349 Q2036.39 38.994 2033.88 35.7938 Q2031.37 32.5936 2026.34 32.5936 Q2020.31 32.5936 2016.83 36.4419 Q2013.34 40.2903 2013.34 46.9338 L2013.34 72.576 L2005.85 72.576 L2005.85 27.2059 L2013.34 27.2059 L2013.34 34.2544 Q2016.01 30.163 2019.62 28.1376 Q2023.27 26.1121 2028.01 26.1121 Q2035.82 26.1121 2039.83 30.9732 Q2043.84 35.7938 2043.84 45.1919 Z" fill="#000000" fill-rule="nonzero" fill-opacity="1" /><path clip-path="url(#clip040)" d="M2091.36 28.9478 L2091.36 35.9153 Q2088.2 34.1734 2085 33.3227 Q2081.84 32.4315 2078.6 32.4315 Q2071.35 32.4315 2067.34 37.0496 Q2063.33 41.6271 2063.33 49.9314 Q2063.33 58.2358 2067.34 62.8538 Q2071.35 67.4314 2078.6 67.4314 Q2081.84 67.4314 2085 66.5807 Q2088.2 65.6895 2091.36 63.9476 L2091.36 70.8341 Q2088.24 72.2924 2084.88 73.0216 Q2081.56 73.7508 2077.79 73.7508 Q2067.54 73.7508 2061.51 67.3098 Q2055.47 60.8689 2055.47 49.9314 Q2055.47 38.832 2061.55 32.472 Q2067.66 26.1121 2078.28 26.1121 Q2081.72 26.1121 2085 26.8413 Q2088.28 27.5299 2091.36 28.9478 Z" fill="#000000" fill-rule="nonzero" fill-opacity="1" /><path clip-path="url(#clip040)" d="M2143.13 48.0275 L2143.13 51.6733 L2108.86 51.6733 Q2109.35 59.3701 2113.48 63.421 Q2117.65 67.4314 2125.07 67.4314 Q2129.36 67.4314 2133.37 66.3781 Q2137.42 65.3249 2141.39 63.2184 L2141.39 70.267 Q2137.38 71.9684 2133.17 72.8596 Q2128.95 73.7508 2124.62 73.7508 Q2113.76 73.7508 2107.4 67.4314 Q2101.08 61.1119 2101.08 50.3365 Q2101.08 39.1965 2107.08 32.6746 Q2113.12 26.1121 2123.32 26.1121 Q2132.48 26.1121 2137.79 32.0264 Q2143.13 37.9003 2143.13 48.0275 M2135.68 45.84 Q2135.6 39.7232 2132.24 36.0774 Q2128.91 32.4315 2123.4 32.4315 Q2117.17 32.4315 2113.4 35.9558 Q2109.67 39.4801 2109.1 45.8805 L2135.68 45.84 Z" fill="#000000" fill-rule="nonzero" fill-opacity="1" /><polyline clip-path="url(#clip042)" style="stroke:#009af9; stroke-linecap:round; stroke-linejoin:round; stroke-width:8; stroke-opacity:1; fill:none" points="316.984,313.435 336.949,313.435 356.913,317.562 376.878,325.816 396.842,338.158 416.807,354.507 436.771,374.743 456.735,398.705 476.7,426.195 496.664,456.977 516.629,490.778 536.593,527.292 556.557,566.179 576.522,607.073 596.486,649.58 616.451,693.285 636.415,737.757 656.38,782.548 676.344,827.206 696.308,871.274 716.273,914.297 736.237,955.828 756.202,995.43 776.166,1032.69 796.13,1067.2 816.095,1098.6 836.059,1126.55 856.024,1150.73 875.988,1170.87 895.953,1186.75 915.917,1198.16 935.881,1204.95 955.846,1207.02 975.81,1204.29 995.775,1196.76 1015.74,1184.44 1035.7,1167.4 1055.67,1145.78 1075.63,1119.72 1095.6,1089.43 1115.56,1055.18 1135.53,1017.26 1155.49,975.996 1175.45,931.774 1195.42,885.004 1215.38,836.129 1235.35,785.623 1255.31,733.981 1275.28,681.717 1295.24,629.359 1315.21,577.439 1335.17,526.49 1355.13,477.041 1375.1,429.606 1395.06,384.683 1415.03,342.745 1434.99,304.237 1454.96,269.572 1474.92,239.122 1494.88,213.223 1514.85,192.166 1534.81,176.195 1554.78,165.509 1574.74,160.256 1594.71,160.537 1614.67,166.401 1634.64,177.843 1654.6,194.811 1674.56,217.197 1694.53,244.843 1714.49,277.538 1734.46,315.021 1754.42,356.977 1774.39,403.045 1794.35,452.816 1814.32,505.835 1834.28,561.608 1854.24,619.604 1874.21,679.26 1894.17,739.986 1914.14,801.176 1934.1,862.21 1954.07,922.463 1974.03,981.316 1994,1038.16 2013.96,1092.4 2033.92,1143.47 2053.89,1190.84 2073.85,1234.01 2093.82,1272.53 2113.78,1305.97 2133.75,1333.99 2153.71,1356.27 2173.68,1372.56 2193.64,1382.65 2213.6,1386.4 2233.57,1383.71 2253.53,1374.55 2273.5,1358.95 2293.46,1336.99 "/>
<polyline clip-path="url(#clip042)" style="stroke:#e26f46; stroke-linecap:round; stroke-linejoin:round; stroke-width:8; stroke-opacity:1; fill:none" points="316.984,724.682 336.949,765.543 356.913,806.403 376.878,846.866 396.842,886.535 416.807,925.013 436.771,961.908 456.735,996.836 476.7,1029.42 496.664,1059.31 516.629,1086.17 536.593,1109.67 556.557,1129.53 576.522,1145.5 596.486,1157.37 616.451,1164.95 636.415,1168.12 656.38,1166.8 676.344,1160.96 696.308,1150.61 716.273,1135.83 736.237,1116.75 756.202,1093.52 776.166,1066.37 796.13,1035.54 816.095,1001.34 836.059,964.079 856.024,924.122 875.988,881.843 895.953,837.641 915.917,791.931 935.881,745.141 955.846,697.71 975.81,650.084 995.775,602.716 1015.74,556.058 1035.7,510.567 1055.67,466.696 1075.63,424.891 1095.6,385.591 1115.56,349.223 1135.53,316.192 1155.49,286.885 1175.45,261.655 1195.42,240.824 1215.38,224.67 1235.35,213.426 1255.31,207.273 1275.28,206.334 1295.24,210.673 1315.21,220.293 1335.17,235.135 1355.13,255.078 1375.1,279.943 1395.06,309.497 1415.03,343.456 1434.99,381.49 1454.96,423.233 1474.92,468.283 1494.88,516.213 1514.85,566.571 1534.81,618.889 1554.78,672.685 1574.74,727.465 1594.71,782.728 1614.67,837.964 1634.64,892.662 1654.6,946.306 1674.56,998.379 1694.53,1048.37 1714.49,1095.76 1734.46,1140.05 1754.42,1180.76 1774.39,1217.41 1794.35,1249.57 1814.32,1276.84 1834.28,1298.84 1854.24,1315.27 1874.21,1325.87 1894.17,1330.46 1914.14,1328.92 1934.1,1321.19 1954.07,1307.33 1974.03,1287.43 1994,1261.67 2013.96,1230.31 2033.92,1193.65 2053.89,1152.06 2073.85,1105.97 2093.82,1055.81 2113.78,1002.07 2133.75,945.265 2153.71,885.917 2173.68,824.567 2193.64,761.764 2213.6,698.066 2233.57,634.036 2253.53,570.245 2273.5,507.265 2293.46,445.675 "/>
<polyline clip-path="url(#clip042)" style="stroke:#3da44d; stroke-linecap:round; stroke-linejoin:round; stroke-width:8; stroke-opacity:1; fill:none" points="316.984,660.613 336.949,659.976 356.913,659.332 376.878,658.682 396.842,658.025 416.807,657.362 436.771,656.691 456.735,656.013 476.7,655.328 496.664,654.633 516.629,653.93 536.593,653.217 556.557,652.494 576.522,651.762 596.486,651.02 616.451,650.269 636.415,649.51 656.38,648.744 676.344,647.97 696.308,647.19 716.273,646.405 736.237,645.615 756.202,644.821 776.166,644.021 796.13,643.217 816.095,642.407 836.059,641.591 856.024,640.769 875.988,639.939 895.953,639.102 915.917,638.258 935.881,637.405 955.846,636.544 975.81,635.675 995.775,634.798 1015.74,633.912 1035.7,633.018 1055.67,632.114 1075.63,631.199 1095.6,630.274 1115.56,629.337 1135.53,628.387 1155.49,627.424 1175.45,626.446 1195.42,625.453 1215.38,624.447 1235.35,623.427 1255.31,622.394 1275.28,621.351 1295.24,620.298 1315.21,619.236 1335.17,618.169 1355.13,617.095 1375.1,616.017 1395.06,614.934 1415.03,613.846 1434.99,612.753 1454.96,611.653 1474.92,610.546 1494.88,609.43 1514.85,608.306 1534.81,607.171 1554.78,606.026 1574.74,604.87 1594.71,603.703 1614.67,602.526 1634.64,601.338 1654.6,600.138 1674.56,598.926 1694.53,597.7 1714.49,596.46 1734.46,595.203 1754.42,593.929 1774.39,592.634 1794.35,591.318 1814.32,589.981 1834.28,588.622 1854.24,587.242 1874.21,585.842 1894.17,584.426 1914.14,582.996 1934.1,581.554 1954.07,580.104 1974.03,578.648 1994,577.188 2013.96,575.724 2033.92,574.258 2053.89,572.787 2073.85,571.311 2093.82,569.828 2113.78,568.336 2133.75,566.833 2153.71,565.319 2173.68,563.792 2193.64,562.251 2213.6,560.697 2233.57,559.128 2253.53,557.546 2273.5,555.949 2293.46,554.337 "/>
<path clip-path="url(#clip040)" d="M1869.55 374.156 L2282.92 374.156 L2282.92 166.796 L1869.55 166.796  Z" fill="#ffffff" fill-rule="evenodd" fill-opacity="1"/>
<polyline clip-path="url(#clip040)" style="stroke:#000000; stroke-linecap:round; stroke-linejoin:round; stroke-width:4; stroke-opacity:1; fill:none" points="1869.55,374.156 2282.92,374.156 2282.92,166.796 1869.55,166.796 1869.55,374.156 "/>
<polyline clip-path="url(#clip040)" style="stroke:#009af9; stroke-linecap:round; stroke-linejoin:round; stroke-width:8; stroke-opacity:1; fill:none" points="1892.83,218.636 2032.5,218.636 "/>
<path clip-path="url(#clip040)" d="M2075.04 219.481 L2060.29 219.481 Q2060.64 226.402 2062.24 229.342 Q2064.23 232.953 2067.68 232.953 Q2071.15 232.953 2073.07 229.319 Q2074.76 226.124 2075.04 219.481 M2074.97 215.545 Q2074.32 208.971 2073.07 206.657 Q2071.08 202.999 2067.68 202.999 Q2064.13 202.999 2062.26 206.61 Q2060.78 209.527 2060.34 215.545 L2074.97 215.545 M2067.68 199.527 Q2073.23 199.527 2076.4 204.434 Q2079.57 209.319 2079.57 217.976 Q2079.57 226.61 2076.4 231.518 Q2073.23 236.448 2067.68 236.448 Q2062.1 236.448 2058.95 231.518 Q2055.78 226.61 2055.78 217.976 Q2055.78 209.319 2058.95 204.434 Q2062.1 199.527 2067.68 199.527 Z" fill="#000000" fill-rule="nonzero" fill-opacity="1" /><path clip-path="url(#clip040)" d="M2111.93 199.944 Q2108.83 205.268 2107.33 210.476 Q2105.82 215.684 2105.82 221.032 Q2105.82 226.379 2107.33 231.633 Q2108.86 236.865 2111.93 242.166 L2108.23 242.166 Q2104.76 236.726 2103.02 231.471 Q2101.31 226.217 2101.31 221.032 Q2101.31 215.87 2103.02 210.638 Q2104.74 205.407 2108.23 199.944 L2111.93 199.944 Z" fill="#000000" fill-rule="nonzero" fill-opacity="1" /><path clip-path="url(#clip040)" d="M2135.22 213.971 Q2134.5 213.555 2133.65 213.37 Q2132.81 213.161 2131.8 213.161 Q2128.18 213.161 2126.24 215.522 Q2124.32 217.86 2124.32 222.258 L2124.32 235.916 L2120.04 235.916 L2120.04 209.99 L2124.32 209.99 L2124.32 214.018 Q2125.66 211.657 2127.81 210.522 Q2129.97 209.365 2133.05 209.365 Q2133.49 209.365 2134.02 209.434 Q2134.55 209.481 2135.2 209.596 L2135.22 213.971 Z" fill="#000000" fill-rule="nonzero" fill-opacity="1" /><path clip-path="url(#clip040)" d="M2151.47 222.883 Q2146.31 222.883 2144.32 224.064 Q2142.33 225.244 2142.33 228.092 Q2142.33 230.36 2143.81 231.703 Q2145.31 233.022 2147.88 233.022 Q2151.42 233.022 2153.55 230.522 Q2155.71 227.999 2155.71 223.832 L2155.71 222.883 L2151.47 222.883 M2159.97 221.124 L2159.97 235.916 L2155.71 235.916 L2155.71 231.981 Q2154.25 234.342 2152.07 235.476 Q2149.9 236.587 2146.75 236.587 Q2142.77 236.587 2140.41 234.365 Q2138.07 232.119 2138.07 228.369 Q2138.07 223.994 2140.99 221.772 Q2143.92 219.55 2149.74 219.55 L2155.71 219.55 L2155.71 219.133 Q2155.71 216.194 2153.76 214.596 Q2151.84 212.976 2148.35 212.976 Q2146.12 212.976 2144.02 213.508 Q2141.91 214.041 2139.97 215.106 L2139.97 211.17 Q2142.3 210.268 2144.5 209.828 Q2146.7 209.365 2148.79 209.365 Q2154.41 209.365 2157.19 212.282 Q2159.97 215.198 2159.97 221.124 Z" fill="#000000" fill-rule="nonzero" fill-opacity="1" /><path clip-path="url(#clip040)" d="M2185.8 213.925 L2185.8 199.897 L2190.06 199.897 L2190.06 235.916 L2185.8 235.916 L2185.8 232.027 Q2184.46 234.342 2182.4 235.476 Q2180.36 236.587 2177.49 236.587 Q2172.79 236.587 2169.83 232.837 Q2166.89 229.087 2166.89 222.976 Q2166.89 216.865 2169.83 213.115 Q2172.79 209.365 2177.49 209.365 Q2180.36 209.365 2182.4 210.499 Q2184.46 211.61 2185.8 213.925 M2171.29 222.976 Q2171.29 227.675 2173.21 230.36 Q2175.15 233.022 2178.53 233.022 Q2181.91 233.022 2183.86 230.36 Q2185.8 227.675 2185.8 222.976 Q2185.8 218.277 2183.86 215.615 Q2181.91 212.93 2178.53 212.93 Q2175.15 212.93 2173.21 215.615 Q2171.29 218.277 2171.29 222.976 Z" fill="#000000" fill-rule="nonzero" fill-opacity="1" /><path clip-path="url(#clip040)" d="M2198.16 199.944 L2201.86 199.944 Q2205.34 205.407 2207.05 210.638 Q2208.79 215.87 2208.79 221.032 Q2208.79 226.217 2207.05 231.471 Q2205.34 236.726 2201.86 242.166 L2198.16 242.166 Q2201.24 236.865 2202.74 231.633 Q2204.27 226.379 2204.27 221.032 Q2204.27 215.684 2202.74 210.476 Q2201.24 205.268 2198.16 199.944 Z" fill="#000000" fill-rule="nonzero" fill-opacity="1" /><polyline clip-path="url(#clip040)" style="stroke:#e26f46; stroke-linecap:round; stroke-linejoin:round; stroke-width:8; stroke-opacity:1; fill:none" points="1892.83,270.476 2032.5,270.476 "/>
<path clip-path="url(#clip040)" d="M2065.38 288.427 Q2055.78 288.427 2055.78 274.677 Q2055.78 269.237 2059.37 261.83 L2063.95 261.83 Q2060.64 269.237 2060.64 274.793 Q2060.64 284.816 2065.78 284.816 Q2070.48 284.816 2070.48 272.362 L2074.41 272.362 Q2074.41 284.816 2079.11 284.816 Q2084.25 284.816 2084.25 274.793 Q2084.25 269.237 2080.94 261.83 L2085.52 261.83 Q2089.11 269.237 2089.11 274.677 Q2089.11 288.427 2079.5 288.427 Q2073.21 288.427 2072.44 281.506 Q2071.49 288.427 2065.38 288.427 Z" fill="#000000" fill-rule="nonzero" fill-opacity="1" /><path clip-path="url(#clip040)" d="M2122.12 251.784 Q2119.02 257.108 2117.51 262.316 Q2116.01 267.524 2116.01 272.872 Q2116.01 278.219 2117.51 283.473 Q2119.04 288.705 2122.12 294.006 L2118.42 294.006 Q2114.94 288.566 2113.21 283.311 Q2111.49 278.057 2111.49 272.872 Q2111.49 267.71 2113.21 262.478 Q2114.92 257.247 2118.42 251.784 L2122.12 251.784 Z" fill="#000000" fill-rule="nonzero" fill-opacity="1" /><path clip-path="url(#clip040)" d="M2145.41 265.811 Q2144.69 265.395 2143.83 265.21 Q2143 265.001 2141.98 265.001 Q2138.37 265.001 2136.42 267.362 Q2134.5 269.7 2134.5 274.098 L2134.5 287.756 L2130.22 287.756 L2130.22 261.83 L2134.5 261.83 L2134.5 265.858 Q2135.85 263.497 2138 262.362 Q2140.15 261.205 2143.23 261.205 Q2143.67 261.205 2144.2 261.274 Q2144.74 261.321 2145.38 261.436 L2145.41 265.811 Z" fill="#000000" fill-rule="nonzero" fill-opacity="1" /><path clip-path="url(#clip040)" d="M2161.66 274.723 Q2156.49 274.723 2154.5 275.904 Q2152.51 277.084 2152.51 279.932 Q2152.51 282.2 2153.99 283.543 Q2155.5 284.862 2158.07 284.862 Q2161.61 284.862 2163.74 282.362 Q2165.89 279.839 2165.89 275.672 L2165.89 274.723 L2161.66 274.723 M2170.15 272.964 L2170.15 287.756 L2165.89 287.756 L2165.89 283.821 Q2164.43 286.182 2162.26 287.316 Q2160.08 288.427 2156.93 288.427 Q2152.95 288.427 2150.59 286.205 Q2148.25 283.959 2148.25 280.209 Q2148.25 275.834 2151.17 273.612 Q2154.11 271.39 2159.92 271.39 L2165.89 271.39 L2165.89 270.973 Q2165.89 268.034 2163.95 266.436 Q2162.03 264.816 2158.53 264.816 Q2156.31 264.816 2154.2 265.348 Q2152.1 265.881 2150.15 266.946 L2150.15 263.01 Q2152.49 262.108 2154.69 261.668 Q2156.89 261.205 2158.97 261.205 Q2164.6 261.205 2167.37 264.122 Q2170.15 267.038 2170.15 272.964 Z" fill="#000000" fill-rule="nonzero" fill-opacity="1" /><path clip-path="url(#clip040)" d="M2195.98 265.765 L2195.98 251.737 L2200.24 251.737 L2200.24 287.756 L2195.98 287.756 L2195.98 283.867 Q2194.64 286.182 2192.58 287.316 Q2190.55 288.427 2187.67 288.427 Q2182.98 288.427 2180.01 284.677 Q2177.07 280.927 2177.07 274.816 Q2177.07 268.705 2180.01 264.955 Q2182.98 261.205 2187.67 261.205 Q2190.55 261.205 2192.58 262.339 Q2194.64 263.45 2195.98 265.765 M2181.47 274.816 Q2181.47 279.515 2183.39 282.2 Q2185.34 284.862 2188.72 284.862 Q2192.1 284.862 2194.04 282.2 Q2195.98 279.515 2195.98 274.816 Q2195.98 270.117 2194.04 267.455 Q2192.1 264.77 2188.72 264.77 Q2185.34 264.77 2183.39 267.455 Q2181.47 270.117 2181.47 274.816 Z" fill="#000000" fill-rule="nonzero" fill-opacity="1" /><path clip-path="url(#clip040)" d="M2216.59 253.196 L2220.52 253.196 L2208.48 292.154 L2204.55 292.154 L2216.59 253.196 Z" fill="#000000" fill-rule="nonzero" fill-opacity="1" /><path clip-path="url(#clip040)" d="M2241.52 262.594 L2241.52 266.622 Q2239.71 265.696 2237.77 265.233 Q2235.82 264.77 2233.74 264.77 Q2230.57 264.77 2228.97 265.742 Q2227.4 266.714 2227.4 268.659 Q2227.4 270.14 2228.53 270.997 Q2229.67 271.83 2233.09 272.594 L2234.55 272.918 Q2239.09 273.89 2240.98 275.672 Q2242.91 277.432 2242.91 280.603 Q2242.91 284.214 2240.04 286.321 Q2237.19 288.427 2232.19 288.427 Q2230.1 288.427 2227.84 288.01 Q2225.59 287.617 2223.09 286.807 L2223.09 282.409 Q2225.45 283.635 2227.74 284.26 Q2230.04 284.862 2232.28 284.862 Q2235.29 284.862 2236.91 283.844 Q2238.53 282.802 2238.53 280.927 Q2238.53 279.191 2237.35 278.265 Q2236.19 277.339 2232.23 276.483 L2230.75 276.135 Q2226.79 275.302 2225.04 273.589 Q2223.28 271.853 2223.28 268.844 Q2223.28 265.186 2225.87 263.196 Q2228.46 261.205 2233.23 261.205 Q2235.59 261.205 2237.67 261.552 Q2239.76 261.899 2241.52 262.594 Z" fill="#000000" fill-rule="nonzero" fill-opacity="1" /><path clip-path="url(#clip040)" d="M2249.02 251.784 L2252.72 251.784 Q2256.19 257.247 2257.91 262.478 Q2259.64 267.71 2259.64 272.872 Q2259.64 278.057 2257.91 283.311 Q2256.19 288.566 2252.72 294.006 L2249.02 294.006 Q2252.1 288.705 2253.6 283.473 Q2255.13 278.219 2255.13 272.872 Q2255.13 267.524 2253.6 262.316 Q2252.1 257.108 2249.02 251.784 Z" fill="#000000" fill-rule="nonzero" fill-opacity="1" /><polyline clip-path="url(#clip040)" style="stroke:#3da44d; stroke-linecap:round; stroke-linejoin:round; stroke-width:8; stroke-opacity:1; fill:none" points="1892.83,322.316 2032.5,322.316 "/>
<path clip-path="url(#clip040)" d="M2055.78 305.036 L2077.63 305.036 L2077.63 308.971 L2060.45 308.971 L2060.45 319.202 L2076.91 319.202 L2076.91 323.137 L2060.45 323.137 L2060.45 335.661 L2078.05 335.661 L2078.05 339.596 L2055.78 339.596 L2055.78 305.036 Z" fill="#000000" fill-rule="nonzero" fill-opacity="1" /><path clip-path="url(#clip040)" d="M2110.85 303.624 Q2107.74 308.948 2106.24 314.156 Q2104.74 319.364 2104.74 324.712 Q2104.74 330.059 2106.24 335.313 Q2107.77 340.545 2110.85 345.846 L2107.14 345.846 Q2103.67 340.406 2101.93 335.151 Q2100.22 329.897 2100.22 324.712 Q2100.22 319.55 2101.93 314.318 Q2103.65 309.087 2107.14 303.624 L2110.85 303.624 Z" fill="#000000" fill-rule="nonzero" fill-opacity="1" /><path clip-path="url(#clip040)" d="M2119.3 305.036 L2123.97 305.036 L2123.97 337.188 Q2123.97 343.438 2121.59 346.262 Q2119.23 349.086 2113.97 349.086 L2112.19 349.086 L2112.19 345.151 L2113.65 345.151 Q2116.75 345.151 2118.02 343.415 Q2119.3 341.679 2119.3 337.188 L2119.3 305.036 Z" fill="#000000" fill-rule="nonzero" fill-opacity="1" /><path clip-path="url(#clip040)" d="M2132.42 303.624 L2136.12 303.624 Q2139.6 309.087 2141.31 314.318 Q2143.05 319.55 2143.05 324.712 Q2143.05 329.897 2141.31 335.151 Q2139.6 340.406 2136.12 345.846 L2132.42 345.846 Q2135.5 340.545 2137 335.313 Q2138.53 330.059 2138.53 324.712 Q2138.53 319.364 2137 314.156 Q2135.5 308.948 2132.42 303.624 Z" fill="#000000" fill-rule="nonzero" fill-opacity="1" /></svg>
