<?xml version="1.0" encoding="utf-8"?>
<svg xmlns="http://www.w3.org/2000/svg" xmlns:xlink="http://www.w3.org/1999/xlink" width="600" height="400" viewBox="0 0 2400 1600">
<defs>
  <clipPath id="clip130">
    <rect x="0" y="0" width="2400" height="1600"/>
  </clipPath>
</defs>
<path clip-path="url(#clip130)" d="M0 1600 L2400 1600 L2400 8.88178e-14 L0 8.88178e-14  Z" fill="#ffffff" fill-rule="evenodd" fill-opacity="1"/>
<defs>
  <clipPath id="clip131">
    <rect x="219" y="123" width="2134" height="1301"/>
  </clipPath>
</defs>
<path clip-path="url(#clip130)" d="M219.866 1423.18 L2352.76 1423.18 L2352.76 123.472 L219.866 123.472  Z" fill="#ffffff" fill-rule="evenodd" fill-opacity="1"/>
<polyline clip-path="url(#clip131)" style="stroke:#000000; stroke-linecap:round; stroke-linejoin:round; stroke-width:2; stroke-opacity:0.1; fill:none" points="278.215,1423.18 278.215,123.472 "/>
<polyline clip-path="url(#clip131)" style="stroke:#000000; stroke-linecap:round; stroke-linejoin:round; stroke-width:2; stroke-opacity:0.1; fill:none" points="781.759,1423.18 781.759,123.472 "/>
<polyline clip-path="url(#clip131)" style="stroke:#000000; stroke-linecap:round; stroke-linejoin:round; stroke-width:2; stroke-opacity:0.1; fill:none" points="1285.3,1423.18 1285.3,123.472 "/>
<polyline clip-path="url(#clip131)" style="stroke:#000000; stroke-linecap:round; stroke-linejoin:round; stroke-width:2; stroke-opacity:0.1; fill:none" points="1788.85,1423.18 1788.85,123.472 "/>
<polyline clip-path="url(#clip131)" style="stroke:#000000; stroke-linecap:round; stroke-linejoin:round; stroke-width:2; stroke-opacity:0.1; fill:none" points="2292.39,1423.18 2292.39,123.472 "/>
<polyline clip-path="url(#clip131)" style="stroke:#000000; stroke-linecap:round; stroke-linejoin:round; stroke-width:2; stroke-opacity:0.1; fill:none" points="219.866,1386.4 2352.76,1386.4 "/>
<polyline clip-path="url(#clip131)" style="stroke:#000000; stroke-linecap:round; stroke-linejoin:round; stroke-width:2; stroke-opacity:0.1; fill:none" points="219.866,1080.31 2352.76,1080.31 "/>
<polyline clip-path="url(#clip131)" style="stroke:#000000; stroke-linecap:round; stroke-linejoin:round; stroke-width:2; stroke-opacity:0.1; fill:none" points="219.866,774.233 2352.76,774.233 "/>
<polyline clip-path="url(#clip131)" style="stroke:#000000; stroke-linecap:round; stroke-linejoin:round; stroke-width:2; stroke-opacity:0.1; fill:none" points="219.866,468.151 2352.76,468.151 "/>
<polyline clip-path="url(#clip131)" style="stroke:#000000; stroke-linecap:round; stroke-linejoin:round; stroke-width:2; stroke-opacity:0.1; fill:none" points="219.866,162.07 2352.76,162.07 "/>
<polyline clip-path="url(#clip130)" style="stroke:#000000; stroke-linecap:round; stroke-linejoin:round; stroke-width:4; stroke-opacity:1; fill:none" points="219.866,1423.18 2352.76,1423.18 "/>
<polyline clip-path="url(#clip130)" style="stroke:#000000; stroke-linecap:round; stroke-linejoin:round; stroke-width:4; stroke-opacity:1; fill:none" points="278.215,1423.18 278.215,1404.28 "/>
<polyline clip-path="url(#clip130)" style="stroke:#000000; stroke-linecap:round; stroke-linejoin:round; stroke-width:4; stroke-opacity:1; fill:none" points="781.759,1423.18 781.759,1404.28 "/>
<polyline clip-path="url(#clip130)" style="stroke:#000000; stroke-linecap:round; stroke-linejoin:round; stroke-width:4; stroke-opacity:1; fill:none" points="1285.3,1423.18 1285.3,1404.28 "/>
<polyline clip-path="url(#clip130)" style="stroke:#000000; stroke-linecap:round; stroke-linejoin:round; stroke-width:4; stroke-opacity:1; fill:none" points="1788.85,1423.18 1788.85,1404.28 "/>
<polyline clip-path="url(#clip130)" style="stroke:#000000; stroke-linecap:round; stroke-linejoin:round; stroke-width:4; stroke-opacity:1; fill:none" points="2292.39,1423.18 2292.39,1404.28 "/>
<path clip-path="url(#clip130)" d="M255.599 1454.1 Q251.988 1454.1 250.159 1457.66 Q248.354 1461.2 248.354 1468.33 Q248.354 1475.44 250.159 1479.01 Q251.988 1482.55 255.599 1482.55 Q259.233 1482.55 261.039 1479.01 Q262.868 1475.44 262.868 1468.33 Q262.868 1461.2 261.039 1457.66 Q259.233 1454.1 255.599 1454.1 M255.599 1450.39 Q261.409 1450.39 264.465 1455 Q267.544 1459.58 267.544 1468.33 Q267.544 1477.06 264.465 1481.67 Q261.409 1486.25 255.599 1486.25 Q249.789 1486.25 246.71 1481.67 Q243.655 1477.06 243.655 1468.33 Q243.655 1459.58 246.71 1455 Q249.789 1450.39 255.599 1450.39 Z" fill="#000000" fill-rule="nonzero" fill-opacity="1" /><path clip-path="url(#clip130)" d="M275.761 1479.7 L280.645 1479.7 L280.645 1485.58 L275.761 1485.58 L275.761 1479.7 Z" fill="#000000" fill-rule="nonzero" fill-opacity="1" /><path clip-path="url(#clip130)" d="M300.83 1454.1 Q297.219 1454.1 295.391 1457.66 Q293.585 1461.2 293.585 1468.33 Q293.585 1475.44 295.391 1479.01 Q297.219 1482.55 300.83 1482.55 Q304.465 1482.55 306.27 1479.01 Q308.099 1475.44 308.099 1468.33 Q308.099 1461.2 306.27 1457.66 Q304.465 1454.1 300.83 1454.1 M300.83 1450.39 Q306.641 1450.39 309.696 1455 Q312.775 1459.58 312.775 1468.33 Q312.775 1477.06 309.696 1481.67 Q306.641 1486.25 300.83 1486.25 Q295.02 1486.25 291.942 1481.67 Q288.886 1477.06 288.886 1468.33 Q288.886 1459.58 291.942 1455 Q295.02 1450.39 300.83 1450.39 Z" fill="#000000" fill-rule="nonzero" fill-opacity="1" /><path clip-path="url(#clip130)" d="M753.495 1481.64 L769.815 1481.64 L769.815 1485.58 L747.87 1485.58 L747.87 1481.64 Q750.532 1478.89 755.116 1474.26 Q759.722 1469.61 760.903 1468.27 Q763.148 1465.74 764.028 1464.01 Q764.93 1462.25 764.93 1460.56 Q764.93 1457.8 762.986 1456.07 Q761.065 1454.33 757.963 1454.33 Q755.764 1454.33 753.31 1455.09 Q750.879 1455.86 748.102 1457.41 L748.102 1452.69 Q750.926 1451.55 753.379 1450.97 Q755.833 1450.39 757.87 1450.39 Q763.241 1450.39 766.435 1453.08 Q769.629 1455.77 769.629 1460.26 Q769.629 1462.39 768.819 1464.31 Q768.032 1466.2 765.926 1468.8 Q765.347 1469.47 762.245 1472.69 Q759.143 1475.88 753.495 1481.64 Z" fill="#000000" fill-rule="nonzero" fill-opacity="1" /><path clip-path="url(#clip130)" d="M779.629 1479.7 L784.514 1479.7 L784.514 1485.58 L779.629 1485.58 L779.629 1479.7 Z" fill="#000000" fill-rule="nonzero" fill-opacity="1" /><path clip-path="url(#clip130)" d="M794.745 1451.02 L813.101 1451.02 L813.101 1454.96 L799.027 1454.96 L799.027 1463.43 Q800.046 1463.08 801.064 1462.92 Q802.083 1462.73 803.101 1462.73 Q808.888 1462.73 812.268 1465.9 Q815.648 1469.08 815.648 1474.49 Q815.648 1480.07 812.175 1483.17 Q808.703 1486.25 802.384 1486.25 Q800.208 1486.25 797.939 1485.88 Q795.694 1485.51 793.287 1484.77 L793.287 1480.07 Q795.37 1481.2 797.592 1481.76 Q799.814 1482.32 802.291 1482.32 Q806.296 1482.32 808.634 1480.21 Q810.972 1478.1 810.972 1474.49 Q810.972 1470.88 808.634 1468.77 Q806.296 1466.67 802.291 1466.67 Q800.416 1466.67 798.541 1467.08 Q796.689 1467.5 794.745 1468.38 L794.745 1451.02 Z" fill="#000000" fill-rule="nonzero" fill-opacity="1" /><path clip-path="url(#clip130)" d="M1252.47 1451.02 L1270.82 1451.02 L1270.82 1454.96 L1256.75 1454.96 L1256.75 1463.43 Q1257.77 1463.08 1258.79 1462.92 Q1259.81 1462.73 1260.82 1462.73 Q1266.61 1462.73 1269.99 1465.9 Q1273.37 1469.08 1273.37 1474.49 Q1273.37 1480.07 1269.9 1483.17 Q1266.43 1486.25 1260.11 1486.25 Q1257.93 1486.25 1255.66 1485.88 Q1253.42 1485.51 1251.01 1484.77 L1251.01 1480.07 Q1253.09 1481.2 1255.31 1481.76 Q1257.54 1482.32 1260.01 1482.32 Q1264.02 1482.32 1266.36 1480.21 Q1268.69 1478.1 1268.69 1474.49 Q1268.69 1470.88 1266.36 1468.77 Q1264.02 1466.67 1260.01 1466.67 Q1258.14 1466.67 1256.26 1467.08 Q1254.41 1467.5 1252.47 1468.38 L1252.47 1451.02 Z" fill="#000000" fill-rule="nonzero" fill-opacity="1" /><path clip-path="url(#clip130)" d="M1282.58 1479.7 L1287.47 1479.7 L1287.47 1485.58 L1282.58 1485.58 L1282.58 1479.7 Z" fill="#000000" fill-rule="nonzero" fill-opacity="1" /><path clip-path="url(#clip130)" d="M1307.65 1454.1 Q1304.04 1454.1 1302.21 1457.66 Q1300.41 1461.2 1300.41 1468.33 Q1300.41 1475.44 1302.21 1479.01 Q1304.04 1482.55 1307.65 1482.55 Q1311.29 1482.55 1313.09 1479.01 Q1314.92 1475.44 1314.92 1468.33 Q1314.92 1461.2 1313.09 1457.66 Q1311.29 1454.1 1307.65 1454.1 M1307.65 1450.39 Q1313.46 1450.39 1316.52 1455 Q1319.6 1459.58 1319.6 1468.33 Q1319.6 1477.06 1316.52 1481.67 Q1313.46 1486.25 1307.65 1486.25 Q1301.84 1486.25 1298.76 1481.67 Q1295.71 1477.06 1295.71 1468.33 Q1295.71 1459.58 1298.76 1455 Q1301.84 1450.39 1307.65 1450.39 Z" fill="#000000" fill-rule="nonzero" fill-opacity="1" /><path clip-path="url(#clip130)" d="M1755.17 1451.02 L1777.39 1451.02 L1777.39 1453.01 L1764.84 1485.58 L1759.96 1485.58 L1771.76 1454.96 L1755.17 1454.96 L1755.17 1451.02 Z" fill="#000000" fill-rule="nonzero" fill-opacity="1" /><path clip-path="url(#clip130)" d="M1786.51 1479.7 L1791.39 1479.7 L1791.39 1485.58 L1786.51 1485.58 L1786.51 1479.7 Z" fill="#000000" fill-rule="nonzero" fill-opacity="1" /><path clip-path="url(#clip130)" d="M1801.62 1451.02 L1819.98 1451.02 L1819.98 1454.96 L1805.91 1454.96 L1805.91 1463.43 Q1806.93 1463.08 1807.94 1462.92 Q1808.96 1462.73 1809.98 1462.73 Q1815.77 1462.73 1819.15 1465.9 Q1822.53 1469.08 1822.53 1474.49 Q1822.53 1480.07 1819.06 1483.17 Q1815.58 1486.25 1809.26 1486.25 Q1807.09 1486.25 1804.82 1485.88 Q1802.57 1485.51 1800.17 1484.77 L1800.17 1480.07 Q1802.25 1481.2 1804.47 1481.76 Q1806.69 1482.32 1809.17 1482.32 Q1813.18 1482.32 1815.51 1480.21 Q1817.85 1478.1 1817.85 1474.49 Q1817.85 1470.88 1815.51 1468.77 Q1813.18 1466.67 1809.17 1466.67 Q1807.3 1466.67 1805.42 1467.08 Q1803.57 1467.5 1801.62 1468.38 L1801.62 1451.02 Z" fill="#000000" fill-rule="nonzero" fill-opacity="1" /><path clip-path="url(#clip130)" d="M2244.46 1481.64 L2252.1 1481.64 L2252.1 1455.28 L2243.79 1456.95 L2243.79 1452.69 L2252.06 1451.02 L2256.73 1451.02 L2256.73 1481.64 L2264.37 1481.64 L2264.37 1485.58 L2244.46 1485.58 L2244.46 1481.64 Z" fill="#000000" fill-rule="nonzero" fill-opacity="1" /><path clip-path="url(#clip130)" d="M2283.81 1454.1 Q2280.2 1454.1 2278.37 1457.66 Q2276.57 1461.2 2276.57 1468.33 Q2276.57 1475.44 2278.37 1479.01 Q2280.2 1482.55 2283.81 1482.55 Q2287.45 1482.55 2289.25 1479.01 Q2291.08 1475.44 2291.08 1468.33 Q2291.08 1461.2 2289.25 1457.66 Q2287.45 1454.1 2283.81 1454.1 M2283.81 1450.39 Q2289.62 1450.39 2292.68 1455 Q2295.76 1459.58 2295.76 1468.33 Q2295.76 1477.06 2292.68 1481.67 Q2289.62 1486.25 2283.81 1486.25 Q2278 1486.25 2274.93 1481.67 Q2271.87 1477.06 2271.87 1468.33 Q2271.87 1459.58 2274.93 1455 Q2278 1450.39 2283.81 1450.39 Z" fill="#000000" fill-rule="nonzero" fill-opacity="1" /><path clip-path="url(#clip130)" d="M2303.98 1479.7 L2308.86 1479.7 L2308.86 1485.58 L2303.98 1485.58 L2303.98 1479.7 Z" fill="#000000" fill-rule="nonzero" fill-opacity="1" /><path clip-path="url(#clip130)" d="M2329.05 1454.1 Q2325.43 1454.1 2323.61 1457.66 Q2321.8 1461.2 2321.8 1468.33 Q2321.8 1475.44 2323.61 1479.01 Q2325.43 1482.55 2329.05 1482.55 Q2332.68 1482.55 2334.49 1479.01 Q2336.31 1475.44 2336.31 1468.33 Q2336.31 1461.2 2334.49 1457.66 Q2332.68 1454.1 2329.05 1454.1 M2329.05 1450.39 Q2334.86 1450.39 2337.91 1455 Q2340.99 1459.58 2340.99 1468.33 Q2340.99 1477.06 2337.91 1481.67 Q2334.86 1486.25 2329.05 1486.25 Q2323.24 1486.25 2320.16 1481.67 Q2317.1 1477.06 2317.1 1468.33 Q2317.1 1459.58 2320.16 1455 Q2323.24 1450.39 2329.05 1450.39 Z" fill="#000000" fill-rule="nonzero" fill-opacity="1" /><path clip-path="url(#clip130)" d="M1298.45 1528.74 Q1298.45 1530.45 1297.32 1531.54 Q1296.23 1532.64 1294.81 1532.64 Q1293.59 1532.64 1292.94 1531.93 Q1292.3 1531.22 1292.3 1530.32 Q1292.3 1529.03 1293.3 1527.97 Q1294.3 1526.9 1295.74 1526.68 Q1294.68 1525.91 1292.97 1525.91 Q1290.17 1525.91 1287.69 1528.06 Q1286.6 1529.06 1285.41 1530.9 Q1284.21 1532.7 1283.99 1533.47 L1281.9 1542.07 Q1281.7 1543.04 1280.51 1547.68 Q1279.35 1552.28 1279.25 1552.47 Q1278.93 1553.38 1278.22 1553.86 Q1277.52 1554.34 1276.81 1554.34 Q1276 1554.34 1275.45 1553.86 Q1274.91 1553.38 1274.91 1552.54 Q1274.91 1552.41 1275 1551.93 Q1275.1 1551.44 1275.26 1550.77 Q1275.42 1550.09 1275.49 1549.71 L1279.32 1534.47 Q1280.03 1531.7 1280.19 1530.83 Q1280.38 1529.93 1280.38 1528.93 Q1280.38 1527.19 1279.83 1526.55 Q1279.29 1525.91 1278.32 1525.91 Q1276.65 1525.91 1275.55 1527.9 Q1274.46 1529.9 1273.52 1533.76 Q1273.23 1534.83 1273.04 1535.05 Q1272.88 1535.28 1272.4 1535.28 Q1271.59 1535.24 1271.59 1534.6 Q1271.59 1534.44 1271.85 1533.41 Q1272.11 1532.35 1272.59 1530.8 Q1273.1 1529.22 1273.65 1528.22 Q1273.97 1527.55 1274.26 1527.1 Q1274.55 1526.65 1275.13 1525.94 Q1275.71 1525.23 1276.58 1524.84 Q1277.45 1524.46 1278.51 1524.46 Q1280.83 1524.46 1282.48 1525.87 Q1284.15 1527.29 1284.54 1529.51 Q1285.34 1528.35 1286.34 1527.35 Q1287.34 1526.32 1289.17 1525.39 Q1291.01 1524.46 1292.97 1524.46 Q1295.42 1524.46 1296.94 1525.71 Q1298.45 1526.94 1298.45 1528.74 Z" fill="#000000" fill-rule="nonzero" fill-opacity="1" /><polyline clip-path="url(#clip130)" style="stroke:#000000; stroke-linecap:round; stroke-linejoin:round; stroke-width:4; stroke-opacity:1; fill:none" points="219.866,1423.18 219.866,123.472 "/>
<polyline clip-path="url(#clip130)" style="stroke:#000000; stroke-linecap:round; stroke-linejoin:round; stroke-width:4; stroke-opacity:1; fill:none" points="219.866,1386.4 238.764,1386.4 "/>
<polyline clip-path="url(#clip130)" style="stroke:#000000; stroke-linecap:round; stroke-linejoin:round; stroke-width:4; stroke-opacity:1; fill:none" points="219.866,1080.31 238.764,1080.31 "/>
<polyline clip-path="url(#clip130)" style="stroke:#000000; stroke-linecap:round; stroke-linejoin:round; stroke-width:4; stroke-opacity:1; fill:none" points="219.866,774.233 238.764,774.233 "/>
<polyline clip-path="url(#clip130)" style="stroke:#000000; stroke-linecap:round; stroke-linejoin:round; stroke-width:4; stroke-opacity:1; fill:none" points="219.866,468.151 238.764,468.151 "/>
<polyline clip-path="url(#clip130)" style="stroke:#000000; stroke-linecap:round; stroke-linejoin:round; stroke-width:4; stroke-opacity:1; fill:none" points="219.866,162.07 238.764,162.07 "/>
<path clip-path="url(#clip130)" d="M128.288 1372.19 Q124.677 1372.19 122.848 1375.76 Q121.043 1379.3 121.043 1386.43 Q121.043 1393.54 122.848 1397.1 Q124.677 1400.64 128.288 1400.64 Q131.922 1400.64 133.728 1397.1 Q135.556 1393.54 135.556 1386.43 Q135.556 1379.3 133.728 1375.76 Q131.922 1372.19 128.288 1372.19 M128.288 1368.49 Q134.098 1368.49 137.154 1373.1 Q140.232 1377.68 140.232 1386.43 Q140.232 1395.16 137.154 1399.76 Q134.098 1404.35 128.288 1404.35 Q122.478 1404.35 119.399 1399.76 Q116.343 1395.16 116.343 1386.43 Q116.343 1377.68 119.399 1373.1 Q122.478 1368.49 128.288 1368.49 Z" fill="#000000" fill-rule="nonzero" fill-opacity="1" /><path clip-path="url(#clip130)" d="M148.45 1397.8 L153.334 1397.8 L153.334 1403.68 L148.45 1403.68 L148.45 1397.8 Z" fill="#000000" fill-rule="nonzero" fill-opacity="1" /><path clip-path="url(#clip130)" d="M167.547 1399.74 L183.866 1399.74 L183.866 1403.68 L161.922 1403.68 L161.922 1399.74 Q164.584 1396.99 169.167 1392.36 Q173.774 1387.7 174.954 1386.36 Q177.2 1383.84 178.079 1382.1 Q178.982 1380.34 178.982 1378.65 Q178.982 1375.9 177.038 1374.16 Q175.116 1372.43 172.014 1372.43 Q169.815 1372.43 167.362 1373.19 Q164.931 1373.95 162.153 1375.5 L162.153 1370.78 Q164.977 1369.65 167.431 1369.07 Q169.885 1368.49 171.922 1368.49 Q177.292 1368.49 180.487 1371.18 Q183.681 1373.86 183.681 1378.35 Q183.681 1380.48 182.871 1382.4 Q182.084 1384.3 179.977 1386.89 Q179.399 1387.56 176.297 1390.78 Q173.195 1393.98 167.547 1399.74 Z" fill="#000000" fill-rule="nonzero" fill-opacity="1" /><path clip-path="url(#clip130)" d="M126.205 1066.11 Q122.593 1066.11 120.765 1069.68 Q118.959 1073.22 118.959 1080.35 Q118.959 1087.46 120.765 1091.02 Q122.593 1094.56 126.205 1094.56 Q129.839 1094.56 131.644 1091.02 Q133.473 1087.46 133.473 1080.35 Q133.473 1073.22 131.644 1069.68 Q129.839 1066.11 126.205 1066.11 M126.205 1062.41 Q132.015 1062.41 135.07 1067.02 Q138.149 1071.6 138.149 1080.35 Q138.149 1089.08 135.07 1093.68 Q132.015 1098.27 126.205 1098.27 Q120.394 1098.27 117.316 1093.68 Q114.26 1089.08 114.26 1080.35 Q114.26 1071.6 117.316 1067.02 Q120.394 1062.41 126.205 1062.41 Z" fill="#000000" fill-rule="nonzero" fill-opacity="1" /><path clip-path="url(#clip130)" d="M146.366 1091.71 L151.251 1091.71 L151.251 1097.59 L146.366 1097.59 L146.366 1091.71 Z" fill="#000000" fill-rule="nonzero" fill-opacity="1" /><path clip-path="url(#clip130)" d="M174.283 1067.11 L162.477 1085.56 L174.283 1085.56 L174.283 1067.11 M173.056 1063.03 L178.936 1063.03 L178.936 1085.56 L183.866 1085.56 L183.866 1089.45 L178.936 1089.45 L178.936 1097.59 L174.283 1097.59 L174.283 1089.45 L158.681 1089.45 L158.681 1084.93 L173.056 1063.03 Z" fill="#000000" fill-rule="nonzero" fill-opacity="1" /><path clip-path="url(#clip130)" d="M126.529 760.031 Q122.918 760.031 121.089 763.596 Q119.283 767.138 119.283 774.267 Q119.283 781.374 121.089 784.939 Q122.918 788.48 126.529 788.48 Q130.163 788.48 131.968 784.939 Q133.797 781.374 133.797 774.267 Q133.797 767.138 131.968 763.596 Q130.163 760.031 126.529 760.031 M126.529 756.328 Q132.339 756.328 135.394 760.934 Q138.473 765.517 138.473 774.267 Q138.473 782.994 135.394 787.601 Q132.339 792.184 126.529 792.184 Q120.718 792.184 117.64 787.601 Q114.584 782.994 114.584 774.267 Q114.584 765.517 117.64 760.934 Q120.718 756.328 126.529 756.328 Z" fill="#000000" fill-rule="nonzero" fill-opacity="1" /><path clip-path="url(#clip130)" d="M146.691 785.633 L151.575 785.633 L151.575 791.513 L146.691 791.513 L146.691 785.633 Z" fill="#000000" fill-rule="nonzero" fill-opacity="1" /><path clip-path="url(#clip130)" d="M172.339 772.369 Q169.19 772.369 167.339 774.522 Q165.51 776.675 165.51 780.425 Q165.51 784.152 167.339 786.327 Q169.19 788.48 172.339 788.48 Q175.487 788.48 177.315 786.327 Q179.167 784.152 179.167 780.425 Q179.167 776.675 177.315 774.522 Q175.487 772.369 172.339 772.369 M181.621 757.716 L181.621 761.976 Q179.862 761.142 178.056 760.703 Q176.274 760.263 174.514 760.263 Q169.885 760.263 167.431 763.388 Q165.001 766.513 164.653 772.832 Q166.019 770.818 168.079 769.753 Q170.139 768.665 172.616 768.665 Q177.825 768.665 180.834 771.837 Q183.866 774.985 183.866 780.425 Q183.866 785.749 180.718 788.966 Q177.57 792.184 172.339 792.184 Q166.343 792.184 163.172 787.601 Q160.001 782.994 160.001 774.267 Q160.001 766.073 163.89 761.212 Q167.778 756.328 174.329 756.328 Q176.089 756.328 177.871 756.675 Q179.676 757.022 181.621 757.716 Z" fill="#000000" fill-rule="nonzero" fill-opacity="1" /><path clip-path="url(#clip130)" d="M126.783 453.95 Q123.172 453.95 121.343 457.515 Q119.538 461.056 119.538 468.186 Q119.538 475.292 121.343 478.857 Q123.172 482.399 126.783 482.399 Q130.417 482.399 132.223 478.857 Q134.052 475.292 134.052 468.186 Q134.052 461.056 132.223 457.515 Q130.417 453.95 126.783 453.95 M126.783 450.246 Q132.593 450.246 135.649 454.853 Q138.728 459.436 138.728 468.186 Q138.728 476.913 135.649 481.519 Q132.593 486.102 126.783 486.102 Q120.973 486.102 117.894 481.519 Q114.839 476.913 114.839 468.186 Q114.839 459.436 117.894 454.853 Q120.973 450.246 126.783 450.246 Z" fill="#000000" fill-rule="nonzero" fill-opacity="1" /><path clip-path="url(#clip130)" d="M146.945 479.552 L151.829 479.552 L151.829 485.431 L146.945 485.431 L146.945 479.552 Z" fill="#000000" fill-rule="nonzero" fill-opacity="1" /><path clip-path="url(#clip130)" d="M172.014 469.019 Q168.681 469.019 166.76 470.802 Q164.862 472.584 164.862 475.709 Q164.862 478.834 166.76 480.616 Q168.681 482.399 172.014 482.399 Q175.348 482.399 177.269 480.616 Q179.19 478.811 179.19 475.709 Q179.19 472.584 177.269 470.802 Q175.371 469.019 172.014 469.019 M167.339 467.028 Q164.329 466.288 162.64 464.228 Q160.973 462.167 160.973 459.204 Q160.973 455.061 163.913 452.654 Q166.876 450.246 172.014 450.246 Q177.176 450.246 180.116 452.654 Q183.056 455.061 183.056 459.204 Q183.056 462.167 181.366 464.228 Q179.7 466.288 176.714 467.028 Q180.093 467.816 181.968 470.107 Q183.866 472.399 183.866 475.709 Q183.866 480.732 180.788 483.417 Q177.732 486.102 172.014 486.102 Q166.297 486.102 163.218 483.417 Q160.163 480.732 160.163 475.709 Q160.163 472.399 162.061 470.107 Q163.959 467.816 167.339 467.028 M165.626 459.644 Q165.626 462.329 167.292 463.834 Q168.982 465.339 172.014 465.339 Q175.024 465.339 176.714 463.834 Q178.426 462.329 178.426 459.644 Q178.426 456.959 176.714 455.454 Q175.024 453.95 172.014 453.95 Q168.982 453.95 167.292 455.454 Q165.626 456.959 165.626 459.644 Z" fill="#000000" fill-rule="nonzero" fill-opacity="1" /><path clip-path="url(#clip130)" d="M117.501 175.415 L125.14 175.415 L125.14 149.049 L116.83 150.716 L116.83 146.456 L125.093 144.79 L129.769 144.79 L129.769 175.415 L137.408 175.415 L137.408 179.35 L117.501 179.35 L117.501 175.415 Z" fill="#000000" fill-rule="nonzero" fill-opacity="1" /><path clip-path="url(#clip130)" d="M146.853 173.47 L151.737 173.47 L151.737 179.35 L146.853 179.35 L146.853 173.47 Z" fill="#000000" fill-rule="nonzero" fill-opacity="1" /><path clip-path="url(#clip130)" d="M171.922 147.868 Q168.311 147.868 166.482 151.433 Q164.677 154.975 164.677 162.104 Q164.677 169.211 166.482 172.776 Q168.311 176.317 171.922 176.317 Q175.556 176.317 177.362 172.776 Q179.19 169.211 179.19 162.104 Q179.19 154.975 177.362 151.433 Q175.556 147.868 171.922 147.868 M171.922 144.165 Q177.732 144.165 180.788 148.771 Q183.866 153.355 183.866 162.104 Q183.866 170.831 180.788 175.438 Q177.732 180.021 171.922 180.021 Q166.112 180.021 163.033 175.438 Q159.978 170.831 159.978 162.104 Q159.978 153.355 163.033 148.771 Q166.112 144.165 171.922 144.165 Z" fill="#000000" fill-rule="nonzero" fill-opacity="1" /><path clip-path="url(#clip130)" d="M21.8332 793.433 Q23.0249 793.498 23.0893 794.303 Q23.1537 795.527 23.3147 796.268 Q23.4435 797.008 23.9266 798.168 Q24.4097 799.327 25.5691 800.454 Q26.7285 801.582 28.5643 802.741 L66.3417 826.477 Q67.0503 826.895 67.2757 827.25 Q67.5334 827.572 67.5334 828.312 Q67.5334 828.989 67.2435 829.246 Q66.9859 829.504 66.0197 829.633 L25.3115 834.85 Q24.5707 834.947 24.2487 835.043 Q23.9266 835.14 23.6046 835.527 Q23.2825 835.881 23.1859 836.654 Q23.0893 837.427 23.0893 838.811 Q23.0893 839.456 23.0571 839.745 Q23.0249 840.003 22.8638 840.229 Q22.6706 840.454 22.2841 840.454 Q21.7044 840.454 21.4146 840.229 Q21.0925 839.971 21.0603 839.778 Q21.0281 839.552 21.0281 839.198 Q21.0281 838.65 21.0925 837.459 Q21.1569 836.267 21.1569 835.655 Q21.1569 835.076 21.1891 833.852 Q21.2213 832.628 21.2213 832.016 Q21.2213 830.663 21.1247 827.926 Q21.0281 825.156 21.0281 823.836 Q21.0281 822.934 21.7688 822.934 Q22.6706 822.934 22.896 823.32 Q23.0893 823.707 23.0893 824.577 Q23.0893 826.767 23.6368 827.958 Q24.1843 829.118 25.0538 829.118 L59.965 824.641 L27.7591 804.383 Q26.2454 803.385 25.2471 803.385 Q23.3147 803.385 23.0893 806.445 Q23.0893 807.475 22.2841 807.475 Q21.7044 807.475 21.4146 807.218 Q21.0925 806.96 21.0603 806.767 Q21.0281 806.541 21.0281 806.219 Q21.0281 805.156 21.1247 802.999 Q21.2213 800.809 21.2213 799.714 Q21.2213 798.812 21.1247 796.976 Q21.0281 795.14 21.0281 794.303 Q21.0281 793.433 21.8332 793.433 Z" fill="#000000" fill-rule="nonzero" fill-opacity="1" /><path clip-path="url(#clip130)" d="M49.5947 784.711 Q38.4515 784.711 29.466 780.557 Q25.6979 778.785 22.5418 776.305 Q19.3856 773.826 18.0007 772.183 Q16.6159 770.541 16.6159 770.09 Q16.6159 769.446 17.26 769.413 Q17.5821 769.413 18.3872 770.283 Q29.2084 780.911 49.5947 780.879 Q70.0454 780.879 80.4479 770.541 Q81.5751 769.413 81.9294 769.413 Q82.5735 769.413 82.5735 770.09 Q82.5735 770.541 81.2531 772.119 Q79.9326 773.697 76.9053 776.144 Q73.8779 778.592 70.1742 780.363 Q61.1888 784.711 49.5947 784.711 Z" fill="#000000" fill-rule="nonzero" fill-opacity="1" /><path clip-path="url(#clip130)" d="M41.2212 737.54 Q42.9281 737.54 44.0231 738.667 Q45.1181 739.762 45.1181 741.179 Q45.1181 742.403 44.4096 743.047 Q43.701 743.691 42.7993 743.691 Q41.511 743.691 40.4482 742.693 Q39.3854 741.695 39.16 740.245 Q38.3871 741.308 38.3871 743.015 Q38.3871 745.817 40.5448 748.297 Q41.5432 749.392 43.379 750.583 Q45.1825 751.775 45.9554 752 L54.5544 754.094 Q55.5206 754.287 60.1582 755.479 Q64.7637 756.638 64.9569 756.735 Q65.8587 757.057 66.3417 757.765 Q66.8248 758.474 66.8248 759.182 Q66.8248 759.987 66.3417 760.535 Q65.8587 761.082 65.0213 761.082 Q64.8925 761.082 64.4094 760.986 Q63.9263 760.889 63.25 760.728 Q62.5737 760.567 62.1872 760.503 L46.9538 756.67 Q44.1841 755.962 43.3146 755.801 Q42.4128 755.607 41.4144 755.607 Q39.6753 755.607 39.0312 756.155 Q38.3871 756.702 38.3871 757.669 Q38.3871 759.343 40.3838 760.438 Q42.3806 761.533 46.2453 762.467 Q47.3081 762.757 47.5335 762.95 Q47.759 763.111 47.759 763.595 Q47.7268 764.4 47.0826 764.4 Q46.9216 764.4 45.891 764.142 Q44.8282 763.884 43.2823 763.401 Q41.7043 762.886 40.7059 762.339 Q40.0296 762.016 39.5787 761.727 Q39.1278 761.437 38.4193 760.857 Q37.7107 760.277 37.3243 759.408 Q36.9378 758.538 36.9378 757.475 Q36.9378 755.157 38.3548 753.514 Q39.7719 751.839 41.9941 751.453 Q40.8347 750.648 39.8363 749.649 Q38.8057 748.651 37.8718 746.815 Q36.9378 744.98 36.9378 743.015 Q36.9378 740.567 38.1938 739.054 Q39.4176 737.54 41.2212 737.54 Z" fill="#000000" fill-rule="nonzero" fill-opacity="1" /><path clip-path="url(#clip130)" d="M81.9294 731.525 Q81.6073 731.525 80.8022 730.688 Q69.981 720.06 49.5947 720.06 Q29.144 720.06 18.8059 730.269 Q17.6143 731.525 17.26 731.525 Q16.6159 731.525 16.6159 730.881 Q16.6159 730.43 17.9363 728.852 Q19.2568 727.242 22.2841 724.827 Q25.3115 722.379 29.0151 720.575 Q38.0006 716.228 49.5947 716.228 Q60.7379 716.228 69.7234 720.382 Q73.4914 722.153 76.6476 724.633 Q79.8038 727.113 81.1886 728.756 Q82.5735 730.398 82.5735 730.881 Q82.5735 731.525 81.9294 731.525 Z" fill="#000000" fill-rule="nonzero" fill-opacity="1" /><path clip-path="url(#clip130)" d="M616.98 18.8205 L616.98 41.5461 L627.269 41.5461 Q632.981 41.5461 636.1 38.5889 Q639.22 35.6318 639.22 30.163 Q639.22 24.7348 636.1 21.7777 Q632.981 18.8205 627.269 18.8205 L616.98 18.8205 M608.797 12.096 L627.269 12.096 Q637.437 12.096 642.622 16.714 Q647.848 21.2916 647.848 30.163 Q647.848 39.1155 642.622 43.6931 Q637.437 48.2706 627.269 48.2706 L616.98 48.2706 L616.98 72.576 L608.797 72.576 L608.797 12.096 Z" fill="#000000" fill-rule="nonzero" fill-opacity="1" /><path clip-path="url(#clip130)" d="M694.352 48.0275 L694.352 51.6733 L660.082 51.6733 Q660.568 59.3701 664.7 63.421 Q668.872 67.4314 676.285 67.4314 Q680.579 67.4314 684.59 66.3781 Q688.641 65.3249 692.611 63.2184 L692.611 70.267 Q688.6 71.9684 684.387 72.8596 Q680.174 73.7508 675.84 73.7508 Q664.983 73.7508 658.623 67.4314 Q652.304 61.1119 652.304 50.3365 Q652.304 39.1965 658.299 32.6746 Q664.335 26.1121 674.544 26.1121 Q683.699 26.1121 689.005 32.0264 Q694.352 37.9003 694.352 48.0275 M686.899 45.84 Q686.818 39.7232 683.456 36.0774 Q680.134 32.4315 674.625 32.4315 Q668.386 32.4315 664.619 35.9558 Q660.892 39.4801 660.325 45.8805 L686.899 45.84 Z" fill="#000000" fill-rule="nonzero" fill-opacity="1" /><path clip-path="url(#clip130)" d="M744.3 45.1919 L744.3 72.576 L736.846 72.576 L736.846 45.4349 Q736.846 38.994 734.335 35.7938 Q731.823 32.5936 726.8 32.5936 Q720.764 32.5936 717.281 36.4419 Q713.797 40.2903 713.797 46.9338 L713.797 72.576 L706.303 72.576 L706.303 27.2059 L713.797 27.2059 L713.797 34.2544 Q716.47 30.163 720.076 28.1376 Q723.722 26.1121 728.461 26.1121 Q736.279 26.1121 740.29 30.9732 Q744.3 35.7938 744.3 45.1919 Z" fill="#000000" fill-rule="nonzero" fill-opacity="1" /><path clip-path="url(#clip130)" d="M778.044 76.7889 Q774.884 84.8907 771.887 87.3618 Q768.889 89.8329 763.866 89.8329 L757.911 89.8329 L757.911 83.5945 L762.286 83.5945 Q765.365 83.5945 767.066 82.1361 Q768.768 80.6778 770.834 75.2496 L772.17 71.8468 L753.82 27.2059 L761.719 27.2059 L775.897 62.6918 L790.075 27.2059 L797.975 27.2059 L778.044 76.7889 Z" fill="#000000" fill-rule="nonzero" fill-opacity="1" /><path clip-path="url(#clip130)" d="M847.072 48.0275 L847.072 51.6733 L812.801 51.6733 Q813.287 59.3701 817.419 63.421 Q821.591 67.4314 829.005 67.4314 Q833.298 67.4314 837.309 66.3781 Q841.36 65.3249 845.33 63.2184 L845.33 70.267 Q841.319 71.9684 837.106 72.8596 Q832.893 73.7508 828.559 73.7508 Q817.702 73.7508 811.343 67.4314 Q805.023 61.1119 805.023 50.3365 Q805.023 39.1965 811.018 32.6746 Q817.054 26.1121 827.263 26.1121 Q836.418 26.1121 841.724 32.0264 Q847.072 37.9003 847.072 48.0275 M839.618 45.84 Q839.537 39.7232 836.175 36.0774 Q832.853 32.4315 827.344 32.4315 Q821.105 32.4315 817.338 35.9558 Q813.611 39.4801 813.044 45.8805 L839.618 45.84 Z" fill="#000000" fill-rule="nonzero" fill-opacity="1" /><path clip-path="url(#clip130)" d="M859.305 9.54393 L866.759 9.54393 L866.759 72.576 L859.305 72.576 L859.305 9.54393 Z" fill="#000000" fill-rule="nonzero" fill-opacity="1" /><path clip-path="url(#clip130)" d="M921.163 48.0275 L921.163 51.6733 L886.892 51.6733 Q887.378 59.3701 891.51 63.421 Q895.682 67.4314 903.096 67.4314 Q907.39 67.4314 911.4 66.3781 Q915.451 65.3249 919.421 63.2184 L919.421 70.267 Q915.41 71.9684 911.197 72.8596 Q906.984 73.7508 902.65 73.7508 Q891.794 73.7508 885.434 67.4314 Q879.114 61.1119 879.114 50.3365 Q879.114 39.1965 885.11 32.6746 Q891.145 26.1121 901.354 26.1121 Q910.509 26.1121 915.815 32.0264 Q921.163 37.9003 921.163 48.0275 M913.709 45.84 Q913.628 39.7232 910.266 36.0774 Q906.944 32.4315 901.435 32.4315 Q895.196 32.4315 891.429 35.9558 Q887.702 39.4801 887.135 45.8805 L913.709 45.84 Z" fill="#000000" fill-rule="nonzero" fill-opacity="1" /><path clip-path="url(#clip130)" d="M962.32 28.5427 L962.32 35.5912 Q959.16 33.9709 955.757 33.1607 Q952.355 32.3505 948.709 32.3505 Q943.159 32.3505 940.364 34.0519 Q937.609 35.7533 937.609 39.156 Q937.609 41.7486 939.594 43.2475 Q941.579 44.7058 947.574 46.0426 L950.127 46.6097 Q958.066 48.3111 961.388 51.4303 Q964.75 54.509 964.75 60.0587 Q964.75 66.3781 959.727 70.0644 Q954.745 73.7508 945.995 73.7508 Q942.349 73.7508 938.379 73.0216 Q934.45 72.3329 930.075 70.9151 L930.075 63.2184 Q934.206 65.3654 938.217 66.4591 Q942.227 67.5124 946.157 67.5124 Q951.423 67.5124 954.258 65.73 Q957.094 63.9071 957.094 60.6258 Q957.094 57.5877 955.028 55.9673 Q953.003 54.3469 946.076 52.8481 L943.483 52.2405 Q936.556 50.7821 933.477 47.7845 Q930.399 44.7463 930.399 39.4801 Q930.399 33.0797 934.936 29.5959 Q939.473 26.1121 947.818 26.1121 Q951.949 26.1121 955.595 26.7198 Q959.241 27.3274 962.32 28.5427 Z" fill="#000000" fill-rule="nonzero" fill-opacity="1" /><path clip-path="url(#clip130)" d="M997.239 49.7694 Q988.205 49.7694 984.721 51.8354 Q981.237 53.9013 981.237 58.8839 Q981.237 62.8538 983.83 65.2034 Q986.463 67.5124 990.96 67.5124 Q997.158 67.5124 1000.88 63.1374 Q1004.65 58.7219 1004.65 51.4303 L1004.65 49.7694 L997.239 49.7694 M1012.11 46.6907 L1012.11 72.576 L1004.65 72.576 L1004.65 65.6895 Q1002.1 69.8214 998.292 71.8063 Q994.484 73.7508 988.975 73.7508 Q982.007 73.7508 977.875 69.8619 Q973.784 65.9325 973.784 59.3701 Q973.784 51.7138 978.888 47.825 Q984.033 43.9361 994.2 43.9361 L1004.65 43.9361 L1004.65 43.2069 Q1004.65 38.0623 1001.25 35.2672 Q997.887 32.4315 991.77 32.4315 Q987.881 32.4315 984.195 33.3632 Q980.508 34.295 977.106 36.1584 L977.106 29.2718 Q981.197 27.692 985.045 26.9223 Q988.894 26.1121 992.54 26.1121 Q1002.38 26.1121 1007.24 31.2163 Q1012.11 36.3204 1012.11 46.6907 Z" fill="#000000" fill-rule="nonzero" fill-opacity="1" /><path clip-path="url(#clip130)" d="M1027.46 27.2059 L1034.91 27.2059 L1034.91 72.576 L1027.46 72.576 L1027.46 27.2059 M1027.46 9.54393 L1034.91 9.54393 L1034.91 18.9825 L1027.46 18.9825 L1027.46 9.54393 Z" fill="#000000" fill-rule="nonzero" fill-opacity="1" /><path clip-path="url(#clip130)" d="M1071.13 49.7694 Q1062.09 49.7694 1058.61 51.8354 Q1055.13 53.9013 1055.13 58.8839 Q1055.13 62.8538 1057.72 65.2034 Q1060.35 67.5124 1064.85 67.5124 Q1071.05 67.5124 1074.77 63.1374 Q1078.54 58.7219 1078.54 51.4303 L1078.54 49.7694 L1071.13 49.7694 M1085.99 46.6907 L1085.99 72.576 L1078.54 72.576 L1078.54 65.6895 Q1075.99 69.8214 1072.18 71.8063 Q1068.37 73.7508 1062.86 73.7508 Q1055.9 73.7508 1051.76 69.8619 Q1047.67 65.9325 1047.67 59.3701 Q1047.67 51.7138 1052.78 47.825 Q1057.92 43.9361 1068.09 43.9361 L1078.54 43.9361 L1078.54 43.2069 Q1078.54 38.0623 1075.14 35.2672 Q1071.78 32.4315 1065.66 32.4315 Q1061.77 32.4315 1058.08 33.3632 Q1054.4 34.295 1050.99 36.1584 L1050.99 29.2718 Q1055.09 27.692 1058.93 26.9223 Q1062.78 26.1121 1066.43 26.1121 Q1076.27 26.1121 1081.13 31.2163 Q1085.99 36.3204 1085.99 46.6907 Z" fill="#000000" fill-rule="nonzero" fill-opacity="1" /><path clip-path="url(#clip130)" d="M1139.06 45.1919 L1139.06 72.576 L1131.61 72.576 L1131.61 45.4349 Q1131.61 38.994 1129.1 35.7938 Q1126.58 32.5936 1121.56 32.5936 Q1115.52 32.5936 1112.04 36.4419 Q1108.56 40.2903 1108.56 46.9338 L1108.56 72.576 L1101.06 72.576 L1101.06 27.2059 L1108.56 27.2059 L1108.56 34.2544 Q1111.23 30.163 1114.84 28.1376 Q1118.48 26.1121 1123.22 26.1121 Q1131.04 26.1121 1135.05 30.9732 Q1139.06 35.7938 1139.06 45.1919 Z" fill="#000000" fill-rule="nonzero" fill-opacity="1" /><path clip-path="url(#clip130)" d="M1188.81 18.8205 L1188.81 41.5461 L1199.1 41.5461 Q1204.81 41.5461 1207.93 38.5889 Q1211.05 35.6318 1211.05 30.163 Q1211.05 24.7348 1207.93 21.7777 Q1204.81 18.8205 1199.1 18.8205 L1188.81 18.8205 M1180.62 12.096 L1199.1 12.096 Q1209.26 12.096 1214.45 16.714 Q1219.67 21.2916 1219.67 30.163 Q1219.67 39.1155 1214.45 43.6931 Q1209.26 48.2706 1199.1 48.2706 L1188.81 48.2706 L1188.81 72.576 L1180.62 72.576 L1180.62 12.096 Z" fill="#000000" fill-rule="nonzero" fill-opacity="1" /><path clip-path="url(#clip130)" d="M1266.18 48.0275 L1266.18 51.6733 L1231.91 51.6733 Q1232.39 59.3701 1236.53 63.421 Q1240.7 67.4314 1248.11 67.4314 Q1252.41 67.4314 1256.42 66.3781 Q1260.47 65.3249 1264.44 63.2184 L1264.44 70.267 Q1260.43 71.9684 1256.21 72.8596 Q1252 73.7508 1247.67 73.7508 Q1236.81 73.7508 1230.45 67.4314 Q1224.13 61.1119 1224.13 50.3365 Q1224.13 39.1965 1230.13 32.6746 Q1236.16 26.1121 1246.37 26.1121 Q1255.52 26.1121 1260.83 32.0264 Q1266.18 37.9003 1266.18 48.0275 M1258.72 45.84 Q1258.64 39.7232 1255.28 36.0774 Q1251.96 32.4315 1246.45 32.4315 Q1240.21 32.4315 1236.44 35.9558 Q1232.72 39.4801 1232.15 45.8805 L1258.72 45.84 Z" fill="#000000" fill-rule="nonzero" fill-opacity="1" /><path clip-path="url(#clip130)" d="M1304.7 34.1734 Q1303.45 33.4443 1301.95 33.1202 Q1300.49 32.7556 1298.71 32.7556 Q1292.39 32.7556 1288.98 36.8875 Q1285.62 40.9789 1285.62 48.6757 L1285.62 72.576 L1278.13 72.576 L1278.13 27.2059 L1285.62 27.2059 L1285.62 34.2544 Q1287.97 30.1225 1291.74 28.1376 Q1295.51 26.1121 1300.89 26.1121 Q1301.66 26.1121 1302.6 26.2337 Q1303.53 26.3147 1304.66 26.5172 L1304.7 34.1734 Z" fill="#000000" fill-rule="nonzero" fill-opacity="1" /><path clip-path="url(#clip130)" d="M1341.44 28.5427 L1341.44 35.5912 Q1338.28 33.9709 1334.88 33.1607 Q1331.48 32.3505 1327.83 32.3505 Q1322.28 32.3505 1319.49 34.0519 Q1316.73 35.7533 1316.73 39.156 Q1316.73 41.7486 1318.72 43.2475 Q1320.7 44.7058 1326.7 46.0426 L1329.25 46.6097 Q1337.19 48.3111 1340.51 51.4303 Q1343.87 54.509 1343.87 60.0587 Q1343.87 66.3781 1338.85 70.0644 Q1333.87 73.7508 1325.12 73.7508 Q1321.47 73.7508 1317.5 73.0216 Q1313.57 72.3329 1309.2 70.9151 L1309.2 63.2184 Q1313.33 65.3654 1317.34 66.4591 Q1321.35 67.5124 1325.28 67.5124 Q1330.55 67.5124 1333.38 65.73 Q1336.22 63.9071 1336.22 60.6258 Q1336.22 57.5877 1334.15 55.9673 Q1332.13 54.3469 1325.2 52.8481 L1322.61 52.2405 Q1315.68 50.7821 1312.6 47.7845 Q1309.52 44.7463 1309.52 39.4801 Q1309.52 33.0797 1314.06 29.5959 Q1318.6 26.1121 1326.94 26.1121 Q1331.07 26.1121 1334.72 26.7198 Q1338.37 27.3274 1341.44 28.5427 Z" fill="#000000" fill-rule="nonzero" fill-opacity="1" /><path clip-path="url(#clip130)" d="M1376.36 49.7694 Q1367.33 49.7694 1363.85 51.8354 Q1360.36 53.9013 1360.36 58.8839 Q1360.36 62.8538 1362.95 65.2034 Q1365.59 67.5124 1370.08 67.5124 Q1376.28 67.5124 1380.01 63.1374 Q1383.78 58.7219 1383.78 51.4303 L1383.78 49.7694 L1376.36 49.7694 M1391.23 46.6907 L1391.23 72.576 L1383.78 72.576 L1383.78 65.6895 Q1381.22 69.8214 1377.42 71.8063 Q1373.61 73.7508 1368.1 73.7508 Q1361.13 73.7508 1357 69.8619 Q1352.91 65.9325 1352.91 59.3701 Q1352.91 51.7138 1358.01 47.825 Q1363.16 43.9361 1373.32 43.9361 L1383.78 43.9361 L1383.78 43.2069 Q1383.78 38.0623 1380.37 35.2672 Q1377.01 32.4315 1370.89 32.4315 Q1367.01 32.4315 1363.32 33.3632 Q1359.63 34.295 1356.23 36.1584 L1356.23 29.2718 Q1360.32 27.692 1364.17 26.9223 Q1368.02 26.1121 1371.66 26.1121 Q1381.51 26.1121 1386.37 31.2163 Q1391.23 36.3204 1391.23 46.6907 Z" fill="#000000" fill-rule="nonzero" fill-opacity="1" /><path clip-path="url(#clip130)" d="M1441.91 35.9153 Q1444.7 30.8922 1448.59 28.5022 Q1452.48 26.1121 1457.75 26.1121 Q1464.83 26.1121 1468.68 31.0947 Q1472.53 36.0368 1472.53 45.1919 L1472.53 72.576 L1465.04 72.576 L1465.04 45.4349 Q1465.04 38.913 1462.73 35.7533 Q1460.42 32.5936 1455.68 32.5936 Q1449.89 32.5936 1446.52 36.4419 Q1443.16 40.2903 1443.16 46.9338 L1443.16 72.576 L1435.67 72.576 L1435.67 45.4349 Q1435.67 38.8725 1433.36 35.7533 Q1431.05 32.5936 1426.23 32.5936 Q1420.52 32.5936 1417.16 36.4824 Q1413.79 40.3308 1413.79 46.9338 L1413.79 72.576 L1406.3 72.576 L1406.3 27.2059 L1413.79 27.2059 L1413.79 34.2544 Q1416.35 30.082 1419.91 28.0971 Q1423.47 26.1121 1428.38 26.1121 Q1433.32 26.1121 1436.76 28.6237 Q1440.25 31.1352 1441.91 35.9153 Z" fill="#000000" fill-rule="nonzero" fill-opacity="1" /><path clip-path="url(#clip130)" d="M1508.02 49.7694 Q1498.98 49.7694 1495.5 51.8354 Q1492.02 53.9013 1492.02 58.8839 Q1492.02 62.8538 1494.61 65.2034 Q1497.24 67.5124 1501.74 67.5124 Q1507.94 67.5124 1511.66 63.1374 Q1515.43 58.7219 1515.43 51.4303 L1515.43 49.7694 L1508.02 49.7694 M1522.88 46.6907 L1522.88 72.576 L1515.43 72.576 L1515.43 65.6895 Q1512.88 69.8214 1509.07 71.8063 Q1505.26 73.7508 1499.75 73.7508 Q1492.79 73.7508 1488.65 69.8619 Q1484.56 65.9325 1484.56 59.3701 Q1484.56 51.7138 1489.67 47.825 Q1494.81 43.9361 1504.98 43.9361 L1515.43 43.9361 L1515.43 43.2069 Q1515.43 38.0623 1512.03 35.2672 Q1508.67 32.4315 1502.55 32.4315 Q1498.66 32.4315 1494.97 33.3632 Q1491.29 34.295 1487.88 36.1584 L1487.88 29.2718 Q1491.98 27.692 1495.82 26.9223 Q1499.67 26.1121 1503.32 26.1121 Q1513.16 26.1121 1518.02 31.2163 Q1522.88 36.3204 1522.88 46.6907 Z" fill="#000000" fill-rule="nonzero" fill-opacity="1" /><path clip-path="url(#clip130)" d="M1558.86 49.7694 Q1549.82 49.7694 1546.34 51.8354 Q1542.85 53.9013 1542.85 58.8839 Q1542.85 62.8538 1545.45 65.2034 Q1548.08 67.5124 1552.58 67.5124 Q1558.77 67.5124 1562.5 63.1374 Q1566.27 58.7219 1566.27 51.4303 L1566.27 49.7694 L1558.86 49.7694 M1573.72 46.6907 L1573.72 72.576 L1566.27 72.576 L1566.27 65.6895 Q1563.72 69.8214 1559.91 71.8063 Q1556.1 73.7508 1550.59 73.7508 Q1543.62 73.7508 1539.49 69.8619 Q1535.4 65.9325 1535.4 59.3701 Q1535.4 51.7138 1540.51 47.825 Q1545.65 43.9361 1555.82 43.9361 L1566.27 43.9361 L1566.27 43.2069 Q1566.27 38.0623 1562.87 35.2672 Q1559.5 32.4315 1553.39 32.4315 Q1549.5 32.4315 1545.81 33.3632 Q1542.13 34.295 1538.72 36.1584 L1538.72 29.2718 Q1542.81 27.692 1546.66 26.9223 Q1550.51 26.1121 1554.16 26.1121 Q1564 26.1121 1568.86 31.2163 Q1573.72 36.3204 1573.72 46.6907 Z" fill="#000000" fill-rule="nonzero" fill-opacity="1" /><path clip-path="url(#clip130)" d="M1626.79 45.1919 L1626.79 72.576 L1619.34 72.576 L1619.34 45.4349 Q1619.34 38.994 1616.82 35.7938 Q1614.31 32.5936 1609.29 32.5936 Q1603.25 32.5936 1599.77 36.4419 Q1596.29 40.2903 1596.29 46.9338 L1596.29 72.576 L1588.79 72.576 L1588.79 27.2059 L1596.29 27.2059 L1596.29 34.2544 Q1598.96 30.163 1602.57 28.1376 Q1606.21 26.1121 1610.95 26.1121 Q1618.77 26.1121 1622.78 30.9732 Q1626.79 35.7938 1626.79 45.1919 Z" fill="#000000" fill-rule="nonzero" fill-opacity="1" /><path clip-path="url(#clip130)" d="M1676.53 18.8205 L1676.53 41.5461 L1686.82 41.5461 Q1692.54 41.5461 1695.65 38.5889 Q1698.77 35.6318 1698.77 30.163 Q1698.77 24.7348 1695.65 21.7777 Q1692.54 18.8205 1686.82 18.8205 L1676.53 18.8205 M1668.35 12.096 L1686.82 12.096 Q1696.99 12.096 1702.18 16.714 Q1707.4 21.2916 1707.4 30.163 Q1707.4 39.1155 1702.18 43.6931 Q1696.99 48.2706 1686.82 48.2706 L1676.53 48.2706 L1676.53 72.576 L1668.35 72.576 L1668.35 12.096 Z" fill="#000000" fill-rule="nonzero" fill-opacity="1" /><path clip-path="url(#clip130)" d="M1732.68 32.4315 Q1726.68 32.4315 1723.2 37.1306 Q1719.72 41.7891 1719.72 49.9314 Q1719.72 58.0738 1723.16 62.7728 Q1726.64 67.4314 1732.68 67.4314 Q1738.64 67.4314 1742.12 62.7323 Q1745.6 58.0333 1745.6 49.9314 Q1745.6 41.8701 1742.12 37.1711 Q1738.64 32.4315 1732.68 32.4315 M1732.68 26.1121 Q1742.4 26.1121 1747.95 32.4315 Q1753.5 38.7509 1753.5 49.9314 Q1753.5 61.0714 1747.95 67.4314 Q1742.4 73.7508 1732.68 73.7508 Q1722.92 73.7508 1717.37 67.4314 Q1711.86 61.0714 1711.86 49.9314 Q1711.86 38.7509 1717.37 32.4315 Q1722.92 26.1121 1732.68 26.1121 Z" fill="#000000" fill-rule="nonzero" fill-opacity="1" /><path clip-path="url(#clip130)" d="M1765.86 27.2059 L1773.31 27.2059 L1773.31 72.576 L1765.86 72.576 L1765.86 27.2059 M1765.86 9.54393 L1773.31 9.54393 L1773.31 18.9825 L1765.86 18.9825 L1765.86 9.54393 Z" fill="#000000" fill-rule="nonzero" fill-opacity="1" /><path clip-path="url(#clip130)" d="M1817.83 28.5427 L1817.83 35.5912 Q1814.67 33.9709 1811.27 33.1607 Q1807.87 32.3505 1804.22 32.3505 Q1798.67 32.3505 1795.87 34.0519 Q1793.12 35.7533 1793.12 39.156 Q1793.12 41.7486 1795.1 43.2475 Q1797.09 44.7058 1803.08 46.0426 L1805.64 46.6097 Q1813.58 48.3111 1816.9 51.4303 Q1820.26 54.509 1820.26 60.0587 Q1820.26 66.3781 1815.24 70.0644 Q1810.26 73.7508 1801.51 73.7508 Q1797.86 73.7508 1793.89 73.0216 Q1789.96 72.3329 1785.59 70.9151 L1785.59 63.2184 Q1789.72 65.3654 1793.73 66.4591 Q1797.74 67.5124 1801.67 67.5124 Q1806.93 67.5124 1809.77 65.73 Q1812.6 63.9071 1812.6 60.6258 Q1812.6 57.5877 1810.54 55.9673 Q1808.51 54.3469 1801.59 52.8481 L1798.99 52.2405 Q1792.07 50.7821 1788.99 47.7845 Q1785.91 44.7463 1785.91 39.4801 Q1785.91 33.0797 1790.45 29.5959 Q1794.98 26.1121 1803.33 26.1121 Q1807.46 26.1121 1811.11 26.7198 Q1814.75 27.3274 1817.83 28.5427 Z" fill="#000000" fill-rule="nonzero" fill-opacity="1" /><path clip-path="url(#clip130)" d="M1861.05 28.5427 L1861.05 35.5912 Q1857.89 33.9709 1854.49 33.1607 Q1851.09 32.3505 1847.44 32.3505 Q1841.89 32.3505 1839.1 34.0519 Q1836.34 35.7533 1836.34 39.156 Q1836.34 41.7486 1838.33 43.2475 Q1840.31 44.7058 1846.31 46.0426 L1848.86 46.6097 Q1856.8 48.3111 1860.12 51.4303 Q1863.48 54.509 1863.48 60.0587 Q1863.48 66.3781 1858.46 70.0644 Q1853.48 73.7508 1844.73 73.7508 Q1841.08 73.7508 1837.11 73.0216 Q1833.18 72.3329 1828.81 70.9151 L1828.81 63.2184 Q1832.94 65.3654 1836.95 66.4591 Q1840.96 67.5124 1844.89 67.5124 Q1850.16 67.5124 1852.99 65.73 Q1855.83 63.9071 1855.83 60.6258 Q1855.83 57.5877 1853.76 55.9673 Q1851.74 54.3469 1844.81 52.8481 L1842.22 52.2405 Q1835.29 50.7821 1832.21 47.7845 Q1829.13 44.7463 1829.13 39.4801 Q1829.13 33.0797 1833.67 29.5959 Q1838.21 26.1121 1846.55 26.1121 Q1850.68 26.1121 1854.33 26.7198 Q1857.97 27.3274 1861.05 28.5427 Z" fill="#000000" fill-rule="nonzero" fill-opacity="1" /><path clip-path="url(#clip130)" d="M1892.93 32.4315 Q1886.94 32.4315 1883.45 37.1306 Q1879.97 41.7891 1879.97 49.9314 Q1879.97 58.0738 1883.41 62.7728 Q1886.9 67.4314 1892.93 67.4314 Q1898.89 67.4314 1902.37 62.7323 Q1905.86 58.0333 1905.86 49.9314 Q1905.86 41.8701 1902.37 37.1711 Q1898.89 32.4315 1892.93 32.4315 M1892.93 26.1121 Q1902.66 26.1121 1908.21 32.4315 Q1913.76 38.7509 1913.76 49.9314 Q1913.76 61.0714 1908.21 67.4314 Q1902.66 73.7508 1892.93 73.7508 Q1883.17 73.7508 1877.62 67.4314 Q1872.11 61.0714 1872.11 49.9314 Q1872.11 38.7509 1877.62 32.4315 Q1883.17 26.1121 1892.93 26.1121 Z" fill="#000000" fill-rule="nonzero" fill-opacity="1" /><path clip-path="url(#clip130)" d="M1963.82 45.1919 L1963.82 72.576 L1956.37 72.576 L1956.37 45.4349 Q1956.37 38.994 1953.86 35.7938 Q1951.35 32.5936 1946.32 32.5936 Q1940.29 32.5936 1936.81 36.4419 Q1933.32 40.2903 1933.32 46.9338 L1933.32 72.576 L1925.83 72.576 L1925.83 27.2059 L1933.32 27.2059 L1933.32 34.2544 Q1936 30.163 1939.6 28.1376 Q1943.25 26.1121 1947.99 26.1121 Q1955.8 26.1121 1959.81 30.9732 Q1963.82 35.7938 1963.82 45.1919 Z" fill="#000000" fill-rule="nonzero" fill-opacity="1" /><polyline clip-path="url(#clip131)" style="stroke:#009af9; stroke-linecap:round; stroke-linejoin:round; stroke-width:4; stroke-opacity:1; fill:none" points="280.231,161.077 282.245,160.387 284.259,160.256 286.274,160.303 288.288,160.449 290.302,160.667 292.316,160.947 294.33,161.283 296.344,161.669 298.359,162.104 300.373,162.587 302.387,163.115 304.401,163.687 306.415,164.302 308.43,164.96 310.444,165.66 312.458,166.4 314.472,167.18 316.486,167.999 318.5,168.857 320.515,169.753 322.529,170.686 324.543,171.655 326.557,172.661 328.571,173.701 330.585,174.777 332.6,175.887 334.614,177.03 336.628,178.207 338.642,179.416 340.656,180.657 342.67,181.929 344.685,183.232 346.699,184.566 348.713,185.929 350.727,187.322 352.741,188.743 354.756,190.193 356.77,191.671 358.784,193.176 360.798,194.707 362.812,196.266 364.826,197.85 366.841,199.46 368.855,201.094 370.869,202.754 372.883,204.437 374.897,206.144 376.911,207.875 378.926,209.628 380.94,211.403 382.954,213.201 384.968,215.02 386.982,216.861 388.996,218.722 391.011,220.604 393.025,222.506 395.039,224.427 397.053,226.368 399.067,228.328 401.082,230.306 403.096,232.302 405.11,234.316 407.124,236.348 409.138,238.396 411.152,240.462 413.167,242.544 415.181,244.642 417.195,246.755 419.209,248.884 421.223,251.029 423.237,253.188 425.252,255.361 427.266,257.549 429.28,259.75 431.294,261.965 433.308,264.193 435.322,266.435 437.337,268.689 439.351,270.955 441.365,273.233 443.379,275.523 445.393,277.825 447.408,280.138 449.422,282.462 451.436,284.797 453.45,287.142 455.464,289.497 457.478,291.863 459.493,294.238 461.507,296.622 463.521,299.016 465.535,301.419 467.549,303.83 469.563,306.25 471.578,308.679 473.592,311.115 475.606,313.559 477.62,316.011 479.634,318.47 481.648,320.936 483.663,323.409 485.677,325.889 487.691,328.376 489.705,330.868 491.719,333.367 493.734,335.872 495.748,338.383 497.762,340.899 499.776,343.42 501.79,345.947 503.804,348.478 505.819,351.015 507.833,353.556 509.847,356.101 511.861,358.651 513.875,361.204 515.889,363.762 517.904,366.323 519.918,368.888 521.932,371.457 523.946,374.028 525.96,376.603 527.974,379.18 529.989,381.761 532.003,384.344 534.017,386.929 536.031,389.517 538.045,392.107 540.06,394.699 542.074,397.293 544.088,399.889 546.102,402.486 548.116,405.085 550.13,407.685 552.145,410.286 554.159,412.889 556.173,415.492 558.187,418.097 560.201,420.702 562.215,423.307 564.23,425.913 566.244,428.52 568.258,431.126 570.272,433.733 572.286,436.34 574.301,438.947 576.315,441.553 578.329,444.16 580.343,446.765 582.357,449.371 584.371,451.975 586.386,454.579 588.4,457.182 590.414,459.784 592.428,462.386 594.442,464.986 596.456,467.584 598.471,470.182 600.485,472.778 602.499,475.373 604.513,477.966 606.527,480.557 608.541,483.147 610.556,485.735 612.57,488.321 614.584,490.905 616.598,493.486 618.612,496.066 620.627,498.644 622.641,501.219 624.655,503.792 626.669,506.362 628.683,508.93 630.697,511.495 632.712,514.058 634.726,516.618 636.74,519.175 638.754,521.729 640.768,524.281 642.782,526.829 644.797,529.374 646.811,531.917 648.825,534.456 650.839,536.992 652.853,539.524 654.867,542.053 656.882,544.579 658.896,547.101 660.91,549.62 662.924,552.136 664.938,554.647 666.953,557.155 668.967,559.66 670.981,562.16 672.995,564.657 675.009,567.15 677.023,569.639 679.038,572.124 681.052,574.605 683.066,577.082 685.08,579.555 687.094,582.023 689.108,584.488 691.123,586.949 693.137,589.405 695.151,591.857 697.165,594.304 699.179,596.747 701.193,599.186 703.208,601.621 705.222,604.051 707.236,606.476 709.25,608.897 711.264,611.313 713.279,613.725 715.293,616.132 717.307,618.535 719.321,620.932 721.335,623.326 723.349,625.714 725.364,628.097 727.378,630.476 729.392,632.85 731.406,635.219 733.42,637.584 735.434,639.943 737.449,642.297 739.463,644.647 741.477,646.991 743.491,649.331 745.505,651.665 747.519,653.995 749.534,656.319 751.548,658.638 753.562,660.953 755.576,663.262 757.59,665.566 759.605,667.865 761.619,670.158 763.633,672.447 765.647,674.73 767.661,677.008 769.675,679.281 771.69,681.549 773.704,683.811 775.718,686.068 777.732,688.32 779.746,690.566 781.76,692.808 783.775,695.044 785.789,697.274 787.803,699.499 789.817,701.719 791.831,703.934 793.845,706.143 795.86,708.346 797.874,710.545 799.888,712.738 801.902,714.925 803.916,717.107 805.931,719.284 807.945,721.455 809.959,723.621 811.973,725.782 813.987,727.936 816.001,730.086 818.016,732.23 820.03,734.368 822.044,736.502 824.058,738.629 826.072,740.751 828.086,742.868 830.101,744.979 832.115,747.085 834.129,749.185 836.143,751.28 838.157,753.369 840.171,755.452 842.186,757.531 844.2,759.603 846.214,761.671 848.228,763.732 850.242,765.788 852.257,767.839 854.271,769.884 856.285,771.924 858.299,773.958 860.313,775.987 862.327,778.01 864.342,780.028 866.356,782.04 868.37,784.047 870.384,786.048 872.398,788.044 874.412,790.034 876.427,792.019 878.441,793.998 880.455,795.972 882.469,797.94 884.483,799.903 886.498,801.86 888.512,803.812 890.526,805.759 892.54,807.7 894.554,809.635 896.568,811.565 898.583,813.49 900.597,815.409 902.611,817.323 904.625,819.232 906.639,821.135 908.653,823.032 910.668,824.924 912.682,826.811 914.696,828.692 916.71,830.568 918.724,832.439 920.738,834.304 922.753,836.164 924.767,838.019 926.781,839.868 928.795,841.712 930.809,843.55 932.824,845.384 934.838,847.211 936.852,849.034 938.866,850.851 940.88,852.663 942.894,854.47 944.909,856.271 946.923,858.067 948.937,859.858 950.951,861.644 952.965,863.424 954.979,865.199 956.994,866.969 959.008,868.734 961.022,870.493 963.036,872.248 965.05,873.997 967.064,875.741 969.079,877.48 971.093,879.213 973.107,880.942 975.121,882.665 977.135,884.383 979.15,886.096 981.164,887.804 983.178,889.507 985.192,891.205 987.206,892.898 989.22,894.585 991.235,896.268 993.249,897.945 995.263,899.618 997.277,901.285 999.291,902.948 1001.31,904.605 1003.32,906.258 1005.33,907.906 1007.35,909.548 1009.36,911.186 1011.38,912.818 1013.39,914.446 1015.4,916.069 1017.42,917.687 1019.43,919.3 1021.45,920.908 1023.46,922.511 1025.48,924.11 1027.49,925.703 1029.5,927.292 1031.52,928.876 1033.53,930.455 1035.55,932.029 1037.56,933.599 1039.57,935.163 1041.59,936.723 1043.6,938.278 1045.62,939.829 1047.63,941.374 1049.65,942.915 1051.66,944.452 1053.67,945.983 1055.69,947.51 1057.7,949.032 1059.72,950.55 1061.73,952.063 1063.74,953.571 1065.76,955.075 1067.77,956.574 1069.79,958.068 1071.8,959.558 1073.82,961.044 1075.83,962.524 1077.84,964.001 1079.86,965.472 1081.87,966.94 1083.89,968.402 1085.9,969.86 1087.91,971.314 1089.93,972.763 1091.94,974.208 1093.96,975.648 1095.97,977.084 1097.99,978.516 1100,979.943 1102.01,981.366 1104.03,982.784 1106.04,984.198 1108.06,985.608 1110.07,987.013 1112.09,988.414 1114.1,989.81 1116.11,991.203 1118.13,992.591 1120.14,993.974 1122.16,995.354 1124.17,996.729 1126.18,998.1 1128.2,999.467 1130.21,1000.83 1132.23,1002.19 1134.24,1003.54 1136.26,1004.89 1138.27,1006.24 1140.28,1007.58 1142.3,1008.92 1144.31,1010.25 1146.33,1011.58 1148.34,1012.9 1150.35,1014.23 1152.37,1015.54 1154.38,1016.86 1156.4,1018.16 1158.41,1019.47 1160.43,1020.77 1162.44,1022.07 1164.45,1023.36 1166.47,1024.65 1168.48,1025.93 1170.5,1027.21 1172.51,1028.49 1174.52,1029.76 1176.54,1031.03 1178.55,1032.3 1180.57,1033.56 1182.58,1034.82 1184.6,1036.07 1186.61,1037.32 1188.62,1038.57 1190.64,1039.81 1192.65,1041.05 1194.67,1042.28 1196.68,1043.51 1198.69,1044.74 1200.71,1045.96 1202.72,1047.18 1204.74,1048.4 1206.75,1049.61 1208.77,1050.82 1210.78,1052.02 1212.79,1053.22 1214.81,1054.42 1216.82,1055.61 1218.84,1056.8 1220.85,1057.99 1222.86,1059.17 1224.88,1060.35 1226.89,1061.52 1228.91,1062.7 1230.92,1063.86 1232.94,1065.03 1234.95,1066.19 1236.96,1067.35 1238.98,1068.5 1240.99,1069.65 1243.01,1070.8 1245.02,1071.94 1247.03,1073.08 1249.05,1074.22 1251.06,1075.35 1253.08,1076.48 1255.09,1077.6 1257.11,1078.73 1259.12,1079.84 1261.13,1080.96 1263.15,1082.07 1265.16,1083.18 1267.18,1084.29 1269.19,1085.39 1271.2,1086.49 1273.22,1087.58 1275.23,1088.67 1277.25,1089.76 1279.26,1090.85 1281.28,1091.93 1283.29,1093.01 1285.3,1094.08 1287.32,1095.16 1289.33,1096.23 1291.35,1097.29 1293.36,1098.35 1295.37,1099.41 1297.39,1100.47 1299.4,1101.52 1301.42,1102.57 1303.43,1103.62 1305.45,1104.66 1307.46,1105.7 1309.47,1106.74 1311.49,1107.77 1313.5,1108.8 1315.52,1109.83 1317.53,1110.86 1319.54,1111.88 1321.56,1112.9 1323.57,1113.91 1325.59,1114.92 1327.6,1115.93 1329.62,1116.94 1331.63,1117.94 1333.64,1118.94 1335.66,1119.94 1337.67,1120.93 1339.69,1121.93 1341.7,1122.91 1343.72,1123.9 1345.73,1124.88 1347.74,1125.86 1349.76,1126.84 1351.77,1127.81 1353.79,1128.78 1355.8,1129.75 1357.81,1130.72 1359.83,1131.68 1361.84,1132.64 1363.86,1133.59 1365.87,1134.55 1367.89,1135.5 1369.9,1136.44 1371.91,1137.39 1373.93,1138.33 1375.94,1139.27 1377.96,1140.21 1379.97,1141.14 1381.98,1142.07 1384,1143 1386.01,1143.93 1388.03,1144.85 1390.04,1145.77 1392.06,1146.69 1394.07,1147.6 1396.08,1148.51 1398.1,1149.42 1400.11,1150.33 1402.13,1151.23 1404.14,1152.14 1406.15,1153.03 1408.17,1153.93 1410.18,1154.82 1412.2,1155.72 1414.21,1156.6 1416.23,1157.49 1418.24,1158.37 1420.25,1159.25 1422.27,1160.13 1424.28,1161.01 1426.3,1161.88 1428.31,1162.75 1430.32,1163.62 1432.34,1164.48 1434.35,1165.34 1436.37,1166.2 1438.38,1167.06 1440.4,1167.92 1442.41,1168.77 1444.42,1169.62 1446.44,1170.47 1448.45,1171.31 1450.47,1172.16 1452.48,1173 1454.49,1173.83 1456.51,1174.67 1458.52,1175.5 1460.54,1176.33 1462.55,1177.16 1464.57,1177.99 1466.58,1178.81 1468.59,1179.63 1470.61,1180.45 1472.62,1181.27 1474.64,1182.08 1476.65,1182.89 1478.66,1183.7 1480.68,1184.51 1482.69,1185.32 1484.71,1186.12 1486.72,1186.92 1488.74,1187.72 1490.75,1188.51 1492.76,1189.31 1494.78,1190.1 1496.79,1190.89 1498.81,1191.67 1500.82,1192.46 1502.83,1193.24 1504.85,1194.02 1506.86,1194.8 1508.88,1195.57 1510.89,1196.35 1512.91,1197.12 1514.92,1197.89 1516.93,1198.65 1518.95,1199.42 1520.96,1200.18 1522.98,1200.94 1524.99,1201.7 1527,1202.45 1529.02,1203.21 1531.03,1203.96 1533.05,1204.71 1535.06,1205.46 1537.08,1206.2 1539.09,1206.95 1541.1,1207.69 1543.12,1208.43 1545.13,1209.17 1547.15,1209.9 1549.16,1210.63 1551.17,1211.36 1553.19,1212.09 1555.2,1212.82 1557.22,1213.55 1559.23,1214.27 1561.25,1214.99 1563.26,1215.71 1565.27,1216.43 1567.29,1217.14 1569.3,1217.85 1571.32,1218.57 1573.33,1219.27 1575.35,1219.98 1577.36,1220.69 1579.37,1221.39 1581.39,1222.09 1583.4,1222.79 1585.42,1223.49 1587.43,1224.18 1589.44,1224.88 1591.46,1225.57 1593.47,1226.26 1595.49,1226.95 1597.5,1227.63 1599.52,1228.32 1601.53,1229 1603.54,1229.68 1605.56,1230.36 1607.57,1231.04 1609.59,1231.71 1611.6,1232.39 1613.61,1233.06 1615.63,1233.73 1617.64,1234.39 1619.66,1235.06 1621.67,1235.72 1623.69,1236.39 1625.7,1237.05 1627.71,1237.71 1629.73,1238.36 1631.74,1239.02 1633.76,1239.67 1635.77,1240.32 1637.78,1240.97 1639.8,1241.62 1641.81,1242.27 1643.83,1242.91 1645.84,1243.55 1647.86,1244.2 1649.87,1244.84 1651.88,1245.47 1653.9,1246.11 1655.91,1246.74 1657.93,1247.38 1659.94,1248.01 1661.95,1248.64 1663.97,1249.27 1665.98,1249.89 1668,1250.52 1670.01,1251.14 1672.03,1251.76 1674.04,1252.38 1676.05,1253 1678.07,1253.61 1680.08,1254.23 1682.1,1254.84 1684.11,1255.45 1686.12,1256.06 1688.14,1256.67 1690.15,1257.28 1692.17,1257.88 1694.18,1258.48 1696.2,1259.09 1698.21,1259.69 1700.22,1260.29 1702.24,1260.88 1704.25,1261.48 1706.27,1262.07 1708.28,1262.66 1710.29,1263.26 1712.31,1263.85 1714.32,1264.43 1716.34,1265.02 1718.35,1265.6 1720.37,1266.19 1722.38,1266.77 1724.39,1267.35 1726.41,1267.93 1728.42,1268.51 1730.44,1269.08 1732.45,1269.66 1734.46,1270.23 1736.48,1270.8 1738.49,1271.37 1740.51,1271.94 1742.52,1272.51 1744.54,1273.07 1746.55,1273.63 1748.56,1274.2 1750.58,1274.76 1752.59,1275.32 1754.61,1275.88 1756.62,1276.43 1758.63,1276.99 1760.65,1277.54 1762.66,1278.1 1764.68,1278.65 1766.69,1279.2 1768.71,1279.75 1770.72,1280.29 1772.73,1280.84 1774.75,1281.38 1776.76,1281.93 1778.78,1282.47 1780.79,1283.01 1782.81,1283.55 1784.82,1284.08 1786.83,1284.62 1788.85,1285.16 1790.86,1285.69 1792.88,1286.22 1794.89,1286.75 1796.9,1287.28 1798.92,1287.81 1800.93,1288.34 1802.95,1288.86 1804.96,1289.39 1806.98,1289.91 1808.99,1290.43 1811,1290.95 1813.02,1291.47 1815.03,1291.99 1817.05,1292.5 1819.06,1293.02 1821.07,1293.53 1823.09,1294.05 1825.1,1294.56 1827.12,1295.07 1829.13,1295.58 1831.15,1296.08 1833.16,1296.59 1835.17,1297.1 1837.19,1297.6 1839.2,1298.1 1841.22,1298.6 1843.23,1299.1 1845.24,1299.6 1847.26,1300.1 1849.27,1300.6 1851.29,1301.09 1853.3,1301.59 1855.32,1302.08 1857.33,1302.57 1859.34,1303.06 1861.36,1303.55 1863.37,1304.04 1865.39,1304.53 1867.4,1305.01 1869.41,1305.5 1871.43,1305.98 1873.44,1306.46 1875.46,1306.95 1877.47,1307.43 1879.49,1307.9 1881.5,1308.38 1883.51,1308.86 1885.53,1309.33 1887.54,1309.81 1889.56,1310.28 1891.57,1310.75 1893.58,1311.22 1895.6,1311.69 1897.61,1312.16 1899.63,1312.63 1901.64,1313.1 1903.66,1313.56 1905.67,1314.03 1907.68,1314.49 1909.7,1314.95 1911.71,1315.41 1913.73,1315.87 1915.74,1316.33 1917.75,1316.79 1919.77,1317.25 1921.78,1317.7 1923.8,1318.16 1925.81,1318.61 1927.83,1319.06 1929.84,1319.51 1931.85,1319.96 1933.87,1320.41 1935.88,1320.86 1937.9,1321.31 1939.91,1321.75 1941.92,1322.2 1943.94,1322.64 1945.95,1323.09 1947.97,1323.53 1949.98,1323.97 1952,1324.41 1954.01,1324.85 1956.02,1325.28 1958.04,1325.72 1960.05,1326.16 1962.07,1326.59 1964.08,1327.03 1966.09,1327.46 1968.11,1327.89 1970.12,1328.32 1972.14,1328.75 1974.15,1329.18 1976.17,1329.61 1978.18,1330.03 1980.19,1330.46 1982.21,1330.89 1984.22,1331.31 1986.24,1331.73 1988.25,1332.15 1990.26,1332.58 1992.28,1333 1994.29,1333.41 1996.31,1333.83 1998.32,1334.25 2000.34,1334.67 2002.35,1335.08 2004.36,1335.5 2006.38,1335.91 2008.39,1336.32 2010.41,1336.73 2012.42,1337.14 2014.44,1337.55 2016.45,1337.96 2018.46,1338.37 2020.48,1338.78 2022.49,1339.18 2024.51,1339.59 2026.52,1339.99 2028.53,1340.4 2030.55,1340.8 2032.56,1341.2 2034.58,1341.6 2036.59,1342 2038.61,1342.4 2040.62,1342.8 2042.63,1343.19 2044.65,1343.59 2046.66,1343.99 2048.68,1344.38 2050.69,1344.77 2052.7,1345.17 2054.72,1345.56 2056.73,1345.95 2058.75,1346.34 2060.76,1346.73 2062.78,1347.12 2064.79,1347.5 2066.8,1347.89 2068.82,1348.28 2070.83,1348.66 2072.85,1349.05 2074.86,1349.43 2076.87,1349.81 2078.89,1350.19 2080.9,1350.57 2082.92,1350.95 2084.93,1351.33 2086.95,1351.71 2088.96,1352.09 2090.97,1352.47 2092.99,1352.84 2095,1353.22 2097.02,1353.59 2099.03,1353.96 2101.04,1354.34 2103.06,1354.71 2105.07,1355.08 2107.09,1355.45 2109.1,1355.82 2111.12,1356.19 2113.13,1356.56 2115.14,1356.92 2117.16,1357.29 2119.17,1357.66 2121.19,1358.02 2123.2,1358.38 2125.21,1358.75 2127.23,1359.11 2129.24,1359.47 2131.26,1359.83 2133.27,1360.19 2135.29,1360.55 2137.3,1360.91 2139.31,1361.27 2141.33,1361.62 2143.34,1361.98 2145.36,1362.34 2147.37,1362.69 2149.38,1363.04 2151.4,1363.4 2153.41,1363.75 2155.43,1364.1 2157.44,1364.45 2159.46,1364.8 2161.47,1365.15 2163.48,1365.5 2165.5,1365.85 2167.51,1366.2 2169.53,1366.54 2171.54,1366.89 2173.55,1367.23 2175.57,1367.58 2177.58,1367.92 2179.6,1368.27 2181.61,1368.61 2183.63,1368.95 2185.64,1369.29 2187.65,1369.63 2189.67,1369.97 2191.68,1370.31 2193.7,1370.65 2195.71,1370.98 2197.72,1371.32 2199.74,1371.66 2201.75,1371.99 2203.77,1372.33 2205.78,1372.66 2207.8,1372.99 2209.81,1373.33 2211.82,1373.66 2213.84,1373.99 2215.85,1374.32 2217.87,1374.65 2219.88,1374.98 2221.9,1375.31 2223.91,1375.64 2225.92,1375.96 2227.94,1376.29 2229.95,1376.61 2231.97,1376.94 2233.98,1377.26 2235.99,1377.59 2238.01,1377.91 2240.02,1378.23 2242.04,1378.56 2244.05,1378.88 2246.07,1379.2 2248.08,1379.52 2250.09,1379.84 2252.11,1380.16 2254.12,1380.47 2256.14,1380.79 2258.15,1381.11 2260.16,1381.42 2262.18,1381.74 2264.19,1382.05 2266.21,1382.37 2268.22,1382.68 2270.24,1382.99 2272.25,1383.31 2274.26,1383.62 2276.28,1383.93 2278.29,1384.24 2280.31,1384.55 2282.32,1384.86 2284.33,1385.17 2286.35,1385.48 2288.36,1385.78 2290.38,1386.09 2292.39,1386.4 "/>
<path clip-path="url(#clip130)" d="M1872.19 270.476 L2281.66 270.476 L2281.66 166.796 L1872.19 166.796  Z" fill="#ffffff" fill-rule="evenodd" fill-opacity="1"/>
<polyline clip-path="url(#clip130)" style="stroke:#000000; stroke-linecap:round; stroke-linejoin:round; stroke-width:4; stroke-opacity:1; fill:none" points="1872.19,270.476 2281.66,270.476 2281.66,166.796 1872.19,166.796 1872.19,270.476 "/>
<polyline clip-path="url(#clip130)" style="stroke:#009af9; stroke-linecap:round; stroke-linejoin:round; stroke-width:4; stroke-opacity:1; fill:none" points="1895.89,218.636 2038.08,218.636 "/>
<path clip-path="url(#clip130)" d="M2061.78 201.356 L2068.08 201.356 L2083.4 230.268 L2083.4 201.356 L2087.94 201.356 L2087.94 235.916 L2081.64 235.916 L2066.32 207.004 L2066.32 235.916 L2061.78 235.916 L2061.78 201.356 Z" fill="#000000" fill-rule="nonzero" fill-opacity="1" /><path clip-path="url(#clip130)" d="M2096.62 225.684 L2096.62 209.99 L2100.88 209.99 L2100.88 225.522 Q2100.88 229.203 2102.31 231.055 Q2103.75 232.883 2106.62 232.883 Q2110.07 232.883 2112.06 230.684 Q2114.07 228.485 2114.07 224.689 L2114.07 209.99 L2118.33 209.99 L2118.33 235.916 L2114.07 235.916 L2114.07 231.934 Q2112.52 234.295 2110.46 235.453 Q2108.42 236.587 2105.72 236.587 Q2101.25 236.587 2098.93 233.809 Q2096.62 231.031 2096.62 225.684 M2107.34 209.365 L2107.34 209.365 Z" fill="#000000" fill-rule="nonzero" fill-opacity="1" /><path clip-path="url(#clip130)" d="M2147.29 214.967 Q2148.89 212.096 2151.11 210.731 Q2153.33 209.365 2156.34 209.365 Q2160.39 209.365 2162.59 212.212 Q2164.79 215.036 2164.79 220.268 L2164.79 235.916 L2160.51 235.916 L2160.51 220.407 Q2160.51 216.68 2159.19 214.874 Q2157.87 213.069 2155.16 213.069 Q2151.85 213.069 2149.93 215.268 Q2148.01 217.467 2148.01 221.263 L2148.01 235.916 L2143.73 235.916 L2143.73 220.407 Q2143.73 216.657 2142.41 214.874 Q2141.09 213.069 2138.33 213.069 Q2135.07 213.069 2133.15 215.291 Q2131.23 217.49 2131.23 221.263 L2131.23 235.916 L2126.94 235.916 L2126.94 209.99 L2131.23 209.99 L2131.23 214.018 Q2132.68 211.633 2134.72 210.499 Q2136.76 209.365 2139.56 209.365 Q2142.38 209.365 2144.35 210.8 Q2146.34 212.235 2147.29 214.967 Z" fill="#000000" fill-rule="nonzero" fill-opacity="1" /><path clip-path="url(#clip130)" d="M2195.46 221.888 L2195.46 223.971 L2175.88 223.971 Q2176.16 228.369 2178.52 230.684 Q2180.9 232.976 2185.14 232.976 Q2187.59 232.976 2189.88 232.374 Q2192.2 231.772 2194.47 230.569 L2194.47 234.596 Q2192.17 235.568 2189.77 236.078 Q2187.36 236.587 2184.88 236.587 Q2178.68 236.587 2175.04 232.976 Q2171.43 229.365 2171.43 223.207 Q2171.43 216.842 2174.86 213.115 Q2178.31 209.365 2184.14 209.365 Q2189.37 209.365 2192.41 212.745 Q2195.46 216.101 2195.46 221.888 M2191.2 220.638 Q2191.16 217.143 2189.23 215.059 Q2187.34 212.976 2184.19 212.976 Q2180.62 212.976 2178.47 214.99 Q2176.34 217.004 2176.02 220.661 L2191.2 220.638 Z" fill="#000000" fill-rule="nonzero" fill-opacity="1" /><path clip-path="url(#clip130)" d="M2217.47 213.971 Q2216.76 213.555 2215.9 213.37 Q2215.07 213.161 2214.05 213.161 Q2210.44 213.161 2208.49 215.522 Q2206.57 217.86 2206.57 222.258 L2206.57 235.916 L2202.29 235.916 L2202.29 209.99 L2206.57 209.99 L2206.57 214.018 Q2207.91 211.657 2210.07 210.522 Q2212.22 209.365 2215.3 209.365 Q2215.74 209.365 2216.27 209.434 Q2216.8 209.481 2217.45 209.596 L2217.47 213.971 Z" fill="#000000" fill-rule="nonzero" fill-opacity="1" /><path clip-path="url(#clip130)" d="M2221.94 209.99 L2226.2 209.99 L2226.2 235.916 L2221.94 235.916 L2221.94 209.99 M2221.94 199.897 L2226.2 199.897 L2226.2 205.291 L2221.94 205.291 L2221.94 199.897 Z" fill="#000000" fill-rule="nonzero" fill-opacity="1" /><path clip-path="url(#clip130)" d="M2234.95 199.897 L2239.23 199.897 L2239.23 221.17 L2251.94 209.99 L2257.38 209.99 L2243.63 222.119 L2257.96 235.916 L2252.41 235.916 L2239.23 223.254 L2239.23 235.916 L2234.95 235.916 L2234.95 199.897 Z" fill="#000000" fill-rule="nonzero" fill-opacity="1" /></svg>
