<?xml version="1.0" encoding="utf-8"?>
<svg xmlns="http://www.w3.org/2000/svg" xmlns:xlink="http://www.w3.org/1999/xlink" width="600" height="400" viewBox="0 0 2400 1600">
<defs>
  <clipPath id="clip670">
    <rect x="0" y="0" width="2400" height="1600"/>
  </clipPath>
</defs>
<path clip-path="url(#clip670)" d="M0 1600 L2400 1600 L2400 8.88178e-14 L0 8.88178e-14  Z" fill="#ffffff" fill-rule="evenodd" fill-opacity="1"/>
<defs>
  <clipPath id="clip671">
    <rect x="272" y="123" width="2081" height="1301"/>
  </clipPath>
</defs>
<path clip-path="url(#clip670)" d="M250.028 1423.18 L2352.76 1423.18 L2352.76 123.472 L250.028 123.472  Z" fill="#ffffff" fill-rule="evenodd" fill-opacity="1"/>
<defs>
  <clipPath id="clip672">
    <rect x="250" y="123" width="2104" height="1301"/>
  </clipPath>
</defs>
<polyline clip-path="url(#clip672)" style="stroke:#000000; stroke-linecap:round; stroke-linejoin:round; stroke-width:2; stroke-opacity:0.1; fill:none" points="309.539,1423.18 309.539,123.472 "/>
<polyline clip-path="url(#clip672)" style="stroke:#000000; stroke-linecap:round; stroke-linejoin:round; stroke-width:2; stroke-opacity:0.1; fill:none" points="805.466,1423.18 805.466,123.472 "/>
<polyline clip-path="url(#clip672)" style="stroke:#000000; stroke-linecap:round; stroke-linejoin:round; stroke-width:2; stroke-opacity:0.1; fill:none" points="1301.39,1423.18 1301.39,123.472 "/>
<polyline clip-path="url(#clip672)" style="stroke:#000000; stroke-linecap:round; stroke-linejoin:round; stroke-width:2; stroke-opacity:0.1; fill:none" points="1797.32,1423.18 1797.32,123.472 "/>
<polyline clip-path="url(#clip672)" style="stroke:#000000; stroke-linecap:round; stroke-linejoin:round; stroke-width:2; stroke-opacity:0.1; fill:none" points="2293.24,1423.18 2293.24,123.472 "/>
<polyline clip-path="url(#clip672)" style="stroke:#000000; stroke-linecap:round; stroke-linejoin:round; stroke-width:2; stroke-opacity:0.1; fill:none" points="250.028,1394.13 2352.76,1394.13 "/>
<polyline clip-path="url(#clip672)" style="stroke:#000000; stroke-linecap:round; stroke-linejoin:round; stroke-width:2; stroke-opacity:0.1; fill:none" points="250.028,1198.85 2352.76,1198.85 "/>
<polyline clip-path="url(#clip672)" style="stroke:#000000; stroke-linecap:round; stroke-linejoin:round; stroke-width:2; stroke-opacity:0.1; fill:none" points="250.028,1003.56 2352.76,1003.56 "/>
<polyline clip-path="url(#clip672)" style="stroke:#000000; stroke-linecap:round; stroke-linejoin:round; stroke-width:2; stroke-opacity:0.1; fill:none" points="250.028,808.279 2352.76,808.279 "/>
<polyline clip-path="url(#clip672)" style="stroke:#000000; stroke-linecap:round; stroke-linejoin:round; stroke-width:2; stroke-opacity:0.1; fill:none" points="250.028,612.994 2352.76,612.994 "/>
<polyline clip-path="url(#clip672)" style="stroke:#000000; stroke-linecap:round; stroke-linejoin:round; stroke-width:2; stroke-opacity:0.1; fill:none" points="250.028,417.709 2352.76,417.709 "/>
<polyline clip-path="url(#clip672)" style="stroke:#000000; stroke-linecap:round; stroke-linejoin:round; stroke-width:2; stroke-opacity:0.1; fill:none" points="250.028,222.425 2352.76,222.425 "/>
<polyline clip-path="url(#clip670)" style="stroke:#000000; stroke-linecap:round; stroke-linejoin:round; stroke-width:4; stroke-opacity:1; fill:none" points="250.028,1423.18 2352.76,1423.18 "/>
<polyline clip-path="url(#clip670)" style="stroke:#000000; stroke-linecap:round; stroke-linejoin:round; stroke-width:4; stroke-opacity:1; fill:none" points="309.539,1423.18 309.539,1404.28 "/>
<polyline clip-path="url(#clip670)" style="stroke:#000000; stroke-linecap:round; stroke-linejoin:round; stroke-width:4; stroke-opacity:1; fill:none" points="805.466,1423.18 805.466,1404.28 "/>
<polyline clip-path="url(#clip670)" style="stroke:#000000; stroke-linecap:round; stroke-linejoin:round; stroke-width:4; stroke-opacity:1; fill:none" points="1301.39,1423.18 1301.39,1404.28 "/>
<polyline clip-path="url(#clip670)" style="stroke:#000000; stroke-linecap:round; stroke-linejoin:round; stroke-width:4; stroke-opacity:1; fill:none" points="1797.32,1423.18 1797.32,1404.28 "/>
<polyline clip-path="url(#clip670)" style="stroke:#000000; stroke-linecap:round; stroke-linejoin:round; stroke-width:4; stroke-opacity:1; fill:none" points="2293.24,1423.18 2293.24,1404.28 "/>
<path clip-path="url(#clip670)" d="M256.067 1468.75 L285.743 1468.75 L285.743 1472.69 L256.067 1472.69 L256.067 1468.75 Z" fill="#000000" fill-rule="nonzero" fill-opacity="1" /><path clip-path="url(#clip670)" d="M296.646 1481.64 L304.285 1481.64 L304.285 1455.28 L295.975 1456.95 L295.975 1452.69 L304.238 1451.02 L308.914 1451.02 L308.914 1481.64 L316.553 1481.64 L316.553 1485.58 L296.646 1485.58 L296.646 1481.64 Z" fill="#000000" fill-rule="nonzero" fill-opacity="1" /><path clip-path="url(#clip670)" d="M325.998 1479.7 L330.882 1479.7 L330.882 1485.58 L325.998 1485.58 L325.998 1479.7 Z" fill="#000000" fill-rule="nonzero" fill-opacity="1" /><path clip-path="url(#clip670)" d="M351.067 1454.1 Q347.456 1454.1 345.627 1457.66 Q343.822 1461.2 343.822 1468.33 Q343.822 1475.44 345.627 1479.01 Q347.456 1482.55 351.067 1482.55 Q354.701 1482.55 356.507 1479.01 Q358.335 1475.44 358.335 1468.33 Q358.335 1461.2 356.507 1457.66 Q354.701 1454.1 351.067 1454.1 M351.067 1450.39 Q356.877 1450.39 359.933 1455 Q363.011 1459.58 363.011 1468.33 Q363.011 1477.06 359.933 1481.67 Q356.877 1486.25 351.067 1486.25 Q345.257 1486.25 342.178 1481.67 Q339.122 1477.06 339.122 1468.33 Q339.122 1459.58 342.178 1455 Q345.257 1450.39 351.067 1450.39 Z" fill="#000000" fill-rule="nonzero" fill-opacity="1" /><path clip-path="url(#clip670)" d="M752.491 1468.75 L782.167 1468.75 L782.167 1472.69 L752.491 1472.69 L752.491 1468.75 Z" fill="#000000" fill-rule="nonzero" fill-opacity="1" /><path clip-path="url(#clip670)" d="M802.26 1454.1 Q798.649 1454.1 796.82 1457.66 Q795.014 1461.2 795.014 1468.33 Q795.014 1475.44 796.82 1479.01 Q798.649 1482.55 802.26 1482.55 Q805.894 1482.55 807.699 1479.01 Q809.528 1475.44 809.528 1468.33 Q809.528 1461.2 807.699 1457.66 Q805.894 1454.1 802.26 1454.1 M802.26 1450.39 Q808.07 1450.39 811.125 1455 Q814.204 1459.58 814.204 1468.33 Q814.204 1477.06 811.125 1481.67 Q808.07 1486.25 802.26 1486.25 Q796.45 1486.25 793.371 1481.67 Q790.315 1477.06 790.315 1468.33 Q790.315 1459.58 793.371 1455 Q796.45 1450.39 802.26 1450.39 Z" fill="#000000" fill-rule="nonzero" fill-opacity="1" /><path clip-path="url(#clip670)" d="M822.422 1479.7 L827.306 1479.7 L827.306 1485.58 L822.422 1485.58 L822.422 1479.7 Z" fill="#000000" fill-rule="nonzero" fill-opacity="1" /><path clip-path="url(#clip670)" d="M837.537 1451.02 L855.894 1451.02 L855.894 1454.96 L841.82 1454.96 L841.82 1463.43 Q842.838 1463.08 843.857 1462.92 Q844.875 1462.73 845.894 1462.73 Q851.681 1462.73 855.06 1465.9 Q858.44 1469.08 858.44 1474.49 Q858.44 1480.07 854.968 1483.17 Q851.496 1486.25 845.176 1486.25 Q843 1486.25 840.732 1485.88 Q838.486 1485.51 836.079 1484.77 L836.079 1480.07 Q838.162 1481.2 840.384 1481.76 Q842.607 1482.32 845.084 1482.32 Q849.088 1482.32 851.426 1480.21 Q853.764 1478.1 853.764 1474.49 Q853.764 1470.88 851.426 1468.77 Q849.088 1466.67 845.084 1466.67 Q843.209 1466.67 841.334 1467.08 Q839.482 1467.5 837.537 1468.38 L837.537 1451.02 Z" fill="#000000" fill-rule="nonzero" fill-opacity="1" /><path clip-path="url(#clip670)" d="M1278.78 1454.1 Q1275.17 1454.1 1273.34 1457.66 Q1271.53 1461.2 1271.53 1468.33 Q1271.53 1475.44 1273.34 1479.01 Q1275.17 1482.55 1278.78 1482.55 Q1282.41 1482.55 1284.22 1479.01 Q1286.04 1475.44 1286.04 1468.33 Q1286.04 1461.2 1284.22 1457.66 Q1282.41 1454.1 1278.78 1454.1 M1278.78 1450.39 Q1284.59 1450.39 1287.64 1455 Q1290.72 1459.58 1290.72 1468.33 Q1290.72 1477.06 1287.64 1481.67 Q1284.59 1486.25 1278.78 1486.25 Q1272.97 1486.25 1269.89 1481.67 Q1266.83 1477.06 1266.83 1468.33 Q1266.83 1459.58 1269.89 1455 Q1272.97 1450.39 1278.78 1450.39 Z" fill="#000000" fill-rule="nonzero" fill-opacity="1" /><path clip-path="url(#clip670)" d="M1298.94 1479.7 L1303.82 1479.7 L1303.82 1485.58 L1298.94 1485.58 L1298.94 1479.7 Z" fill="#000000" fill-rule="nonzero" fill-opacity="1" /><path clip-path="url(#clip670)" d="M1324.01 1454.1 Q1320.4 1454.1 1318.57 1457.66 Q1316.76 1461.2 1316.76 1468.33 Q1316.76 1475.44 1318.57 1479.01 Q1320.4 1482.55 1324.01 1482.55 Q1327.64 1482.55 1329.45 1479.01 Q1331.28 1475.44 1331.28 1468.33 Q1331.28 1461.2 1329.45 1457.66 Q1327.64 1454.1 1324.01 1454.1 M1324.01 1450.39 Q1329.82 1450.39 1332.87 1455 Q1335.95 1459.58 1335.95 1468.33 Q1335.95 1477.06 1332.87 1481.67 Q1329.82 1486.25 1324.01 1486.25 Q1318.2 1486.25 1315.12 1481.67 Q1312.06 1477.06 1312.06 1468.33 Q1312.06 1459.58 1315.12 1455 Q1318.2 1450.39 1324.01 1450.39 Z" fill="#000000" fill-rule="nonzero" fill-opacity="1" /><path clip-path="url(#clip670)" d="M1775.2 1454.1 Q1771.59 1454.1 1769.76 1457.66 Q1767.96 1461.2 1767.96 1468.33 Q1767.96 1475.44 1769.76 1479.01 Q1771.59 1482.55 1775.2 1482.55 Q1778.83 1482.55 1780.64 1479.01 Q1782.47 1475.44 1782.47 1468.33 Q1782.47 1461.2 1780.64 1457.66 Q1778.83 1454.1 1775.2 1454.1 M1775.2 1450.39 Q1781.01 1450.39 1784.07 1455 Q1787.14 1459.58 1787.14 1468.33 Q1787.14 1477.06 1784.07 1481.67 Q1781.01 1486.25 1775.2 1486.25 Q1769.39 1486.25 1766.31 1481.67 Q1763.26 1477.06 1763.26 1468.33 Q1763.26 1459.58 1766.31 1455 Q1769.39 1450.39 1775.2 1450.39 Z" fill="#000000" fill-rule="nonzero" fill-opacity="1" /><path clip-path="url(#clip670)" d="M1795.36 1479.7 L1800.25 1479.7 L1800.25 1485.58 L1795.36 1485.58 L1795.36 1479.7 Z" fill="#000000" fill-rule="nonzero" fill-opacity="1" /><path clip-path="url(#clip670)" d="M1810.48 1451.02 L1828.83 1451.02 L1828.83 1454.96 L1814.76 1454.96 L1814.76 1463.43 Q1815.78 1463.08 1816.8 1462.92 Q1817.82 1462.73 1818.83 1462.73 Q1824.62 1462.73 1828 1465.9 Q1831.38 1469.08 1831.38 1474.49 Q1831.38 1480.07 1827.91 1483.17 Q1824.44 1486.25 1818.12 1486.25 Q1815.94 1486.25 1813.67 1485.88 Q1811.43 1485.51 1809.02 1484.77 L1809.02 1480.07 Q1811.1 1481.2 1813.33 1481.76 Q1815.55 1482.32 1818.02 1482.32 Q1822.03 1482.32 1824.37 1480.21 Q1826.7 1478.1 1826.7 1474.49 Q1826.7 1470.88 1824.37 1468.77 Q1822.03 1466.67 1818.02 1466.67 Q1816.15 1466.67 1814.27 1467.08 Q1812.42 1467.5 1810.48 1468.38 L1810.48 1451.02 Z" fill="#000000" fill-rule="nonzero" fill-opacity="1" /><path clip-path="url(#clip670)" d="M2260.4 1481.64 L2268.04 1481.64 L2268.04 1455.28 L2259.73 1456.95 L2259.73 1452.69 L2267.99 1451.02 L2272.67 1451.02 L2272.67 1481.64 L2280.3 1481.64 L2280.3 1485.58 L2260.4 1485.58 L2260.4 1481.64 Z" fill="#000000" fill-rule="nonzero" fill-opacity="1" /><path clip-path="url(#clip670)" d="M2289.75 1479.7 L2294.63 1479.7 L2294.63 1485.58 L2289.75 1485.58 L2289.75 1479.7 Z" fill="#000000" fill-rule="nonzero" fill-opacity="1" /><path clip-path="url(#clip670)" d="M2314.82 1454.1 Q2311.21 1454.1 2309.38 1457.66 Q2307.57 1461.2 2307.57 1468.33 Q2307.57 1475.44 2309.38 1479.01 Q2311.21 1482.55 2314.82 1482.55 Q2318.45 1482.55 2320.26 1479.01 Q2322.09 1475.44 2322.09 1468.33 Q2322.09 1461.2 2320.26 1457.66 Q2318.45 1454.1 2314.82 1454.1 M2314.82 1450.39 Q2320.63 1450.39 2323.68 1455 Q2326.76 1459.58 2326.76 1468.33 Q2326.76 1477.06 2323.68 1481.67 Q2320.63 1486.25 2314.82 1486.25 Q2309.01 1486.25 2305.93 1481.67 Q2302.87 1477.06 2302.87 1468.33 Q2302.87 1459.58 2305.93 1455 Q2309.01 1450.39 2314.82 1450.39 Z" fill="#000000" fill-rule="nonzero" fill-opacity="1" /><path clip-path="url(#clip670)" d="M1315.83 1520.64 Q1315.83 1521.09 1315.54 1522.15 L1309.23 1547.34 Q1307.84 1552.94 1303.33 1556.87 Q1298.86 1560.8 1293.77 1560.8 Q1290.71 1560.8 1288.74 1559.16 Q1286.78 1557.55 1286.78 1555.07 Q1286.78 1552.88 1287.94 1551.82 Q1289.1 1550.78 1290.48 1550.78 Q1290.93 1550.78 1291.42 1550.91 Q1291.9 1551.04 1292.42 1551.59 Q1292.93 1552.14 1292.93 1553.07 Q1292.93 1554.58 1291.61 1555.78 Q1290.97 1556.32 1290.35 1556.45 Q1289.77 1556.58 1288.78 1556.58 Q1289.16 1557.48 1289.87 1558.1 Q1290.58 1558.71 1291.39 1558.93 Q1292.19 1559.19 1292.71 1559.25 Q1293.25 1559.35 1293.77 1559.35 Q1297.89 1559.35 1301.05 1555.2 Q1301.98 1553.94 1302.66 1552.68 Q1303.37 1551.46 1303.88 1549.95 Q1304.4 1548.47 1304.62 1547.66 Q1304.88 1546.86 1305.33 1545.02 Q1302.34 1548.01 1298.66 1548.01 Q1297.12 1548.01 1295.73 1547.6 Q1294.38 1547.18 1293.19 1546.31 Q1292 1545.41 1291.29 1543.83 Q1290.61 1542.25 1290.61 1540.16 Q1290.61 1537.93 1291.48 1534.91 Q1292.35 1531.88 1294.44 1526.31 Q1295.57 1523.18 1295.57 1521.67 Q1295.57 1520.93 1295.41 1520.48 Q1295.25 1520 1294.93 1519.83 Q1294.61 1519.64 1294.41 1519.61 Q1294.25 1519.58 1293.93 1519.58 Q1292.03 1519.58 1290.26 1521.51 Q1288.49 1523.44 1287.26 1527.76 Q1287.01 1528.56 1286.84 1528.76 Q1286.68 1528.95 1286.2 1528.95 Q1285.39 1528.92 1285.39 1528.27 Q1285.39 1528.01 1285.68 1527.02 Q1285.97 1525.99 1286.65 1524.47 Q1287.36 1522.93 1288.33 1521.54 Q1289.29 1520.12 1290.81 1519.13 Q1292.35 1518.13 1294.12 1518.13 Q1296.54 1518.13 1298.02 1519.71 Q1299.53 1521.25 1299.53 1523.54 Q1299.53 1524.47 1299.28 1525.31 Q1299.05 1526.11 1298.21 1528.27 Q1294.83 1536.97 1294.83 1541.22 Q1294.83 1542.25 1294.99 1543.12 Q1295.19 1543.96 1295.6 1544.79 Q1296.02 1545.6 1296.86 1546.08 Q1297.73 1546.53 1298.92 1546.53 Q1300.44 1546.53 1301.85 1545.82 Q1303.3 1545.08 1304.2 1544.09 Q1305.14 1543.09 1305.68 1542.25 Q1306.26 1541.38 1306.39 1540.93 L1309.36 1529.08 L1310.68 1523.8 Q1311.29 1520.93 1311.58 1520.22 Q1311.96 1519.54 1312.64 1519.19 Q1313.32 1518.84 1313.9 1518.84 Q1314.7 1518.84 1315.25 1519.32 Q1315.83 1519.8 1315.83 1520.64 Z" fill="#000000" fill-rule="nonzero" fill-opacity="1" /><polyline clip-path="url(#clip670)" style="stroke:#000000; stroke-linecap:round; stroke-linejoin:round; stroke-width:4; stroke-opacity:1; fill:none" points="250.028,1423.18 250.028,123.472 "/>
<polyline clip-path="url(#clip670)" style="stroke:#000000; stroke-linecap:round; stroke-linejoin:round; stroke-width:4; stroke-opacity:1; fill:none" points="250.028,1394.13 268.926,1394.13 "/>
<polyline clip-path="url(#clip670)" style="stroke:#000000; stroke-linecap:round; stroke-linejoin:round; stroke-width:4; stroke-opacity:1; fill:none" points="250.028,1198.85 268.926,1198.85 "/>
<polyline clip-path="url(#clip670)" style="stroke:#000000; stroke-linecap:round; stroke-linejoin:round; stroke-width:4; stroke-opacity:1; fill:none" points="250.028,1003.56 268.926,1003.56 "/>
<polyline clip-path="url(#clip670)" style="stroke:#000000; stroke-linecap:round; stroke-linejoin:round; stroke-width:4; stroke-opacity:1; fill:none" points="250.028,808.279 268.926,808.279 "/>
<polyline clip-path="url(#clip670)" style="stroke:#000000; stroke-linecap:round; stroke-linejoin:round; stroke-width:4; stroke-opacity:1; fill:none" points="250.028,612.994 268.926,612.994 "/>
<polyline clip-path="url(#clip670)" style="stroke:#000000; stroke-linecap:round; stroke-linejoin:round; stroke-width:4; stroke-opacity:1; fill:none" points="250.028,417.709 268.926,417.709 "/>
<polyline clip-path="url(#clip670)" style="stroke:#000000; stroke-linecap:round; stroke-linejoin:round; stroke-width:4; stroke-opacity:1; fill:none" points="250.028,222.425 268.926,222.425 "/>
<path clip-path="url(#clip670)" d="M126.691 1379.93 Q123.08 1379.93 121.251 1383.5 Q119.445 1387.04 119.445 1394.17 Q119.445 1401.27 121.251 1404.84 Q123.08 1408.38 126.691 1408.38 Q130.325 1408.38 132.13 1404.84 Q133.959 1401.27 133.959 1394.17 Q133.959 1387.04 132.13 1383.5 Q130.325 1379.93 126.691 1379.93 M126.691 1376.23 Q132.501 1376.23 135.556 1380.83 Q138.635 1385.42 138.635 1394.17 Q138.635 1402.89 135.556 1407.5 Q132.501 1412.08 126.691 1412.08 Q120.88 1412.08 117.802 1407.5 Q114.746 1402.89 114.746 1394.17 Q114.746 1385.42 117.802 1380.83 Q120.88 1376.23 126.691 1376.23 Z" fill="#000000" fill-rule="nonzero" fill-opacity="1" /><path clip-path="url(#clip670)" d="M146.853 1405.53 L151.737 1405.53 L151.737 1411.41 L146.853 1411.41 L146.853 1405.53 Z" fill="#000000" fill-rule="nonzero" fill-opacity="1" /><path clip-path="url(#clip670)" d="M171.922 1379.93 Q168.311 1379.93 166.482 1383.5 Q164.677 1387.04 164.677 1394.17 Q164.677 1401.27 166.482 1404.84 Q168.311 1408.38 171.922 1408.38 Q175.556 1408.38 177.362 1404.84 Q179.19 1401.27 179.19 1394.17 Q179.19 1387.04 177.362 1383.5 Q175.556 1379.93 171.922 1379.93 M171.922 1376.23 Q177.732 1376.23 180.788 1380.83 Q183.866 1385.42 183.866 1394.17 Q183.866 1402.89 180.788 1407.5 Q177.732 1412.08 171.922 1412.08 Q166.112 1412.08 163.033 1407.5 Q159.978 1402.89 159.978 1394.17 Q159.978 1385.42 163.033 1380.83 Q166.112 1376.23 171.922 1376.23 Z" fill="#000000" fill-rule="nonzero" fill-opacity="1" /><path clip-path="url(#clip670)" d="M202.084 1379.93 Q198.473 1379.93 196.644 1383.5 Q194.838 1387.04 194.838 1394.17 Q194.838 1401.27 196.644 1404.84 Q198.473 1408.38 202.084 1408.38 Q205.718 1408.38 207.524 1404.84 Q209.352 1401.27 209.352 1394.17 Q209.352 1387.04 207.524 1383.5 Q205.718 1379.93 202.084 1379.93 M202.084 1376.23 Q207.894 1376.23 210.949 1380.83 Q214.028 1385.42 214.028 1394.17 Q214.028 1402.89 210.949 1407.5 Q207.894 1412.08 202.084 1412.08 Q196.274 1412.08 193.195 1407.5 Q190.139 1402.89 190.139 1394.17 Q190.139 1385.42 193.195 1380.83 Q196.274 1376.23 202.084 1376.23 Z" fill="#000000" fill-rule="nonzero" fill-opacity="1" /><path clip-path="url(#clip670)" d="M127.917 1184.65 Q124.306 1184.65 122.478 1188.21 Q120.672 1191.75 120.672 1198.88 Q120.672 1205.99 122.478 1209.55 Q124.306 1213.1 127.917 1213.1 Q131.552 1213.1 133.357 1209.55 Q135.186 1205.99 135.186 1198.88 Q135.186 1191.75 133.357 1188.21 Q131.552 1184.65 127.917 1184.65 M127.917 1180.94 Q133.728 1180.94 136.783 1185.55 Q139.862 1190.13 139.862 1198.88 Q139.862 1207.61 136.783 1212.22 Q133.728 1216.8 127.917 1216.8 Q122.107 1216.8 119.029 1212.22 Q115.973 1207.61 115.973 1198.88 Q115.973 1190.13 119.029 1185.55 Q122.107 1180.94 127.917 1180.94 Z" fill="#000000" fill-rule="nonzero" fill-opacity="1" /><path clip-path="url(#clip670)" d="M148.079 1210.25 L152.964 1210.25 L152.964 1216.13 L148.079 1216.13 L148.079 1210.25 Z" fill="#000000" fill-rule="nonzero" fill-opacity="1" /><path clip-path="url(#clip670)" d="M173.149 1184.65 Q169.538 1184.65 167.709 1188.21 Q165.903 1191.75 165.903 1198.88 Q165.903 1205.99 167.709 1209.55 Q169.538 1213.1 173.149 1213.1 Q176.783 1213.1 178.589 1209.55 Q180.417 1205.99 180.417 1198.88 Q180.417 1191.75 178.589 1188.21 Q176.783 1184.65 173.149 1184.65 M173.149 1180.94 Q178.959 1180.94 182.014 1185.55 Q185.093 1190.13 185.093 1198.88 Q185.093 1207.61 182.014 1212.22 Q178.959 1216.8 173.149 1216.8 Q167.339 1216.8 164.26 1212.22 Q161.204 1207.61 161.204 1198.88 Q161.204 1190.13 164.26 1185.55 Q167.339 1180.94 173.149 1180.94 Z" fill="#000000" fill-rule="nonzero" fill-opacity="1" /><path clip-path="url(#clip670)" d="M194.121 1212.19 L201.76 1212.19 L201.76 1185.83 L193.45 1187.49 L193.45 1183.24 L201.713 1181.57 L206.389 1181.57 L206.389 1212.19 L214.028 1212.19 L214.028 1216.13 L194.121 1216.13 L194.121 1212.19 Z" fill="#000000" fill-rule="nonzero" fill-opacity="1" /><path clip-path="url(#clip670)" d="M128.288 989.362 Q124.677 989.362 122.848 992.927 Q121.043 996.469 121.043 1003.6 Q121.043 1010.7 122.848 1014.27 Q124.677 1017.81 128.288 1017.81 Q131.922 1017.81 133.728 1014.27 Q135.556 1010.7 135.556 1003.6 Q135.556 996.469 133.728 992.927 Q131.922 989.362 128.288 989.362 M128.288 985.659 Q134.098 985.659 137.154 990.265 Q140.232 994.848 140.232 1003.6 Q140.232 1012.33 137.154 1016.93 Q134.098 1021.51 128.288 1021.51 Q122.478 1021.51 119.399 1016.93 Q116.343 1012.33 116.343 1003.6 Q116.343 994.848 119.399 990.265 Q122.478 985.659 128.288 985.659 Z" fill="#000000" fill-rule="nonzero" fill-opacity="1" /><path clip-path="url(#clip670)" d="M148.45 1014.96 L153.334 1014.96 L153.334 1020.84 L148.45 1020.84 L148.45 1014.96 Z" fill="#000000" fill-rule="nonzero" fill-opacity="1" /><path clip-path="url(#clip670)" d="M173.519 989.362 Q169.908 989.362 168.079 992.927 Q166.274 996.469 166.274 1003.6 Q166.274 1010.7 168.079 1014.27 Q169.908 1017.81 173.519 1017.81 Q177.153 1017.81 178.959 1014.27 Q180.788 1010.7 180.788 1003.6 Q180.788 996.469 178.959 992.927 Q177.153 989.362 173.519 989.362 M173.519 985.659 Q179.329 985.659 182.385 990.265 Q185.463 994.848 185.463 1003.6 Q185.463 1012.33 182.385 1016.93 Q179.329 1021.51 173.519 1021.51 Q167.709 1021.51 164.63 1016.93 Q161.575 1012.33 161.575 1003.6 Q161.575 994.848 164.63 990.265 Q167.709 985.659 173.519 985.659 Z" fill="#000000" fill-rule="nonzero" fill-opacity="1" /><path clip-path="url(#clip670)" d="M197.709 1016.91 L214.028 1016.91 L214.028 1020.84 L192.084 1020.84 L192.084 1016.91 Q194.746 1014.15 199.329 1009.52 Q203.936 1004.87 205.116 1003.53 Q207.362 1001.01 208.241 999.27 Q209.144 997.51 209.144 995.821 Q209.144 993.066 207.199 991.33 Q205.278 989.594 202.176 989.594 Q199.977 989.594 197.524 990.358 Q195.093 991.122 192.315 992.672 L192.315 987.95 Q195.139 986.816 197.593 986.237 Q200.047 985.659 202.084 985.659 Q207.454 985.659 210.649 988.344 Q213.843 991.029 213.843 995.52 Q213.843 997.649 213.033 999.571 Q212.246 1001.47 210.139 1004.06 Q209.561 1004.73 206.459 1007.95 Q203.357 1011.14 197.709 1016.91 Z" fill="#000000" fill-rule="nonzero" fill-opacity="1" /><path clip-path="url(#clip670)" d="M127.339 794.078 Q123.728 794.078 121.899 797.642 Q120.093 801.184 120.093 808.314 Q120.093 815.42 121.899 818.985 Q123.728 822.526 127.339 822.526 Q130.973 822.526 132.779 818.985 Q134.607 815.42 134.607 808.314 Q134.607 801.184 132.779 797.642 Q130.973 794.078 127.339 794.078 M127.339 790.374 Q133.149 790.374 136.204 794.98 Q139.283 799.564 139.283 808.314 Q139.283 817.04 136.204 821.647 Q133.149 826.23 127.339 826.23 Q121.529 826.23 118.45 821.647 Q115.394 817.04 115.394 808.314 Q115.394 799.564 118.45 794.98 Q121.529 790.374 127.339 790.374 Z" fill="#000000" fill-rule="nonzero" fill-opacity="1" /><path clip-path="url(#clip670)" d="M147.501 819.679 L152.385 819.679 L152.385 825.559 L147.501 825.559 L147.501 819.679 Z" fill="#000000" fill-rule="nonzero" fill-opacity="1" /><path clip-path="url(#clip670)" d="M172.57 794.078 Q168.959 794.078 167.13 797.642 Q165.325 801.184 165.325 808.314 Q165.325 815.42 167.13 818.985 Q168.959 822.526 172.57 822.526 Q176.204 822.526 178.01 818.985 Q179.839 815.42 179.839 808.314 Q179.839 801.184 178.01 797.642 Q176.204 794.078 172.57 794.078 M172.57 790.374 Q178.38 790.374 181.436 794.98 Q184.514 799.564 184.514 808.314 Q184.514 817.04 181.436 821.647 Q178.38 826.23 172.57 826.23 Q166.76 826.23 163.681 821.647 Q160.626 817.04 160.626 808.314 Q160.626 799.564 163.681 794.98 Q166.76 790.374 172.57 790.374 Z" fill="#000000" fill-rule="nonzero" fill-opacity="1" /><path clip-path="url(#clip670)" d="M206.899 806.925 Q210.255 807.642 212.13 809.911 Q214.028 812.179 214.028 815.513 Q214.028 820.628 210.51 823.429 Q206.991 826.23 200.51 826.23 Q198.334 826.23 196.019 825.79 Q193.727 825.374 191.274 824.517 L191.274 820.003 Q193.218 821.138 195.533 821.716 Q197.848 822.295 200.371 822.295 Q204.769 822.295 207.061 820.559 Q209.375 818.823 209.375 815.513 Q209.375 812.457 207.223 810.744 Q205.093 809.008 201.274 809.008 L197.246 809.008 L197.246 805.165 L201.459 805.165 Q204.908 805.165 206.737 803.8 Q208.565 802.411 208.565 799.818 Q208.565 797.156 206.667 795.744 Q204.792 794.309 201.274 794.309 Q199.352 794.309 197.153 794.726 Q194.954 795.142 192.315 796.022 L192.315 791.855 Q194.977 791.115 197.292 790.744 Q199.63 790.374 201.69 790.374 Q207.014 790.374 210.116 792.804 Q213.218 795.212 213.218 799.332 Q213.218 802.202 211.574 804.193 Q209.931 806.161 206.899 806.925 Z" fill="#000000" fill-rule="nonzero" fill-opacity="1" /><path clip-path="url(#clip670)" d="M126.205 598.793 Q122.593 598.793 120.765 602.358 Q118.959 605.899 118.959 613.029 Q118.959 620.135 120.765 623.7 Q122.593 627.242 126.205 627.242 Q129.839 627.242 131.644 623.7 Q133.473 620.135 133.473 613.029 Q133.473 605.899 131.644 602.358 Q129.839 598.793 126.205 598.793 M126.205 595.089 Q132.015 595.089 135.07 599.696 Q138.149 604.279 138.149 613.029 Q138.149 621.756 135.07 626.362 Q132.015 630.945 126.205 630.945 Q120.394 630.945 117.316 626.362 Q114.26 621.756 114.26 613.029 Q114.26 604.279 117.316 599.696 Q120.394 595.089 126.205 595.089 Z" fill="#000000" fill-rule="nonzero" fill-opacity="1" /><path clip-path="url(#clip670)" d="M146.366 624.394 L151.251 624.394 L151.251 630.274 L146.366 630.274 L146.366 624.394 Z" fill="#000000" fill-rule="nonzero" fill-opacity="1" /><path clip-path="url(#clip670)" d="M171.436 598.793 Q167.825 598.793 165.996 602.358 Q164.19 605.899 164.19 613.029 Q164.19 620.135 165.996 623.7 Q167.825 627.242 171.436 627.242 Q175.07 627.242 176.876 623.7 Q178.704 620.135 178.704 613.029 Q178.704 605.899 176.876 602.358 Q175.07 598.793 171.436 598.793 M171.436 595.089 Q177.246 595.089 180.301 599.696 Q183.38 604.279 183.38 613.029 Q183.38 621.756 180.301 626.362 Q177.246 630.945 171.436 630.945 Q165.626 630.945 162.547 626.362 Q159.491 621.756 159.491 613.029 Q159.491 604.279 162.547 599.696 Q165.626 595.089 171.436 595.089 Z" fill="#000000" fill-rule="nonzero" fill-opacity="1" /><path clip-path="url(#clip670)" d="M204.445 599.788 L192.639 618.237 L204.445 618.237 L204.445 599.788 M203.218 595.714 L209.098 595.714 L209.098 618.237 L214.028 618.237 L214.028 622.126 L209.098 622.126 L209.098 630.274 L204.445 630.274 L204.445 622.126 L188.843 622.126 L188.843 617.612 L203.218 595.714 Z" fill="#000000" fill-rule="nonzero" fill-opacity="1" /><path clip-path="url(#clip670)" d="M127.686 403.508 Q124.075 403.508 122.246 407.073 Q120.441 410.614 120.441 417.744 Q120.441 424.85 122.246 428.415 Q124.075 431.957 127.686 431.957 Q131.32 431.957 133.126 428.415 Q134.954 424.85 134.954 417.744 Q134.954 410.614 133.126 407.073 Q131.32 403.508 127.686 403.508 M127.686 399.804 Q133.496 399.804 136.552 404.411 Q139.63 408.994 139.63 417.744 Q139.63 426.471 136.552 431.077 Q133.496 435.661 127.686 435.661 Q121.876 435.661 118.797 431.077 Q115.742 426.471 115.742 417.744 Q115.742 408.994 118.797 404.411 Q121.876 399.804 127.686 399.804 Z" fill="#000000" fill-rule="nonzero" fill-opacity="1" /><path clip-path="url(#clip670)" d="M147.848 429.11 L152.732 429.11 L152.732 434.989 L147.848 434.989 L147.848 429.11 Z" fill="#000000" fill-rule="nonzero" fill-opacity="1" /><path clip-path="url(#clip670)" d="M172.917 403.508 Q169.306 403.508 167.477 407.073 Q165.672 410.614 165.672 417.744 Q165.672 424.85 167.477 428.415 Q169.306 431.957 172.917 431.957 Q176.551 431.957 178.357 428.415 Q180.186 424.85 180.186 417.744 Q180.186 410.614 178.357 407.073 Q176.551 403.508 172.917 403.508 M172.917 399.804 Q178.727 399.804 181.783 404.411 Q184.862 408.994 184.862 417.744 Q184.862 426.471 181.783 431.077 Q178.727 435.661 172.917 435.661 Q167.107 435.661 164.028 431.077 Q160.973 426.471 160.973 417.744 Q160.973 408.994 164.028 404.411 Q167.107 399.804 172.917 399.804 Z" fill="#000000" fill-rule="nonzero" fill-opacity="1" /><path clip-path="url(#clip670)" d="M193.125 400.429 L211.482 400.429 L211.482 404.364 L197.408 404.364 L197.408 412.837 Q198.426 412.489 199.445 412.327 Q200.463 412.142 201.482 412.142 Q207.269 412.142 210.649 415.313 Q214.028 418.485 214.028 423.901 Q214.028 429.48 210.556 432.582 Q207.084 435.661 200.764 435.661 Q198.588 435.661 196.32 435.29 Q194.075 434.92 191.667 434.179 L191.667 429.48 Q193.75 430.614 195.973 431.17 Q198.195 431.725 200.672 431.725 Q204.676 431.725 207.014 429.619 Q209.352 427.512 209.352 423.901 Q209.352 420.29 207.014 418.184 Q204.676 416.077 200.672 416.077 Q198.797 416.077 196.922 416.494 Q195.07 416.911 193.125 417.79 L193.125 400.429 Z" fill="#000000" fill-rule="nonzero" fill-opacity="1" /><path clip-path="url(#clip670)" d="M126.529 208.223 Q122.918 208.223 121.089 211.788 Q119.283 215.33 119.283 222.459 Q119.283 229.566 121.089 233.13 Q122.918 236.672 126.529 236.672 Q130.163 236.672 131.968 233.13 Q133.797 229.566 133.797 222.459 Q133.797 215.33 131.968 211.788 Q130.163 208.223 126.529 208.223 M126.529 204.52 Q132.339 204.52 135.394 209.126 Q138.473 213.709 138.473 222.459 Q138.473 231.186 135.394 235.792 Q132.339 240.376 126.529 240.376 Q120.718 240.376 117.64 235.792 Q114.584 231.186 114.584 222.459 Q114.584 213.709 117.64 209.126 Q120.718 204.52 126.529 204.52 Z" fill="#000000" fill-rule="nonzero" fill-opacity="1" /><path clip-path="url(#clip670)" d="M146.691 233.825 L151.575 233.825 L151.575 239.705 L146.691 239.705 L146.691 233.825 Z" fill="#000000" fill-rule="nonzero" fill-opacity="1" /><path clip-path="url(#clip670)" d="M171.76 208.223 Q168.149 208.223 166.32 211.788 Q164.515 215.33 164.515 222.459 Q164.515 229.566 166.32 233.13 Q168.149 236.672 171.76 236.672 Q175.394 236.672 177.2 233.13 Q179.028 229.566 179.028 222.459 Q179.028 215.33 177.2 211.788 Q175.394 208.223 171.76 208.223 M171.76 204.52 Q177.57 204.52 180.626 209.126 Q183.704 213.709 183.704 222.459 Q183.704 231.186 180.626 235.792 Q177.57 240.376 171.76 240.376 Q165.95 240.376 162.871 235.792 Q159.815 231.186 159.815 222.459 Q159.815 213.709 162.871 209.126 Q165.95 204.52 171.76 204.52 Z" fill="#000000" fill-rule="nonzero" fill-opacity="1" /><path clip-path="url(#clip670)" d="M202.5 220.561 Q199.352 220.561 197.5 222.714 Q195.672 224.867 195.672 228.617 Q195.672 232.343 197.5 234.519 Q199.352 236.672 202.5 236.672 Q205.649 236.672 207.477 234.519 Q209.329 232.343 209.329 228.617 Q209.329 224.867 207.477 222.714 Q205.649 220.561 202.5 220.561 M211.783 205.908 L211.783 210.168 Q210.024 209.334 208.218 208.894 Q206.436 208.455 204.676 208.455 Q200.047 208.455 197.593 211.58 Q195.163 214.705 194.815 221.024 Q196.181 219.01 198.241 217.945 Q200.301 216.857 202.778 216.857 Q207.987 216.857 210.996 220.029 Q214.028 223.177 214.028 228.617 Q214.028 233.941 210.88 237.158 Q207.732 240.376 202.5 240.376 Q196.505 240.376 193.334 235.792 Q190.163 231.186 190.163 222.459 Q190.163 214.265 194.051 209.404 Q197.94 204.52 204.491 204.52 Q206.25 204.52 208.033 204.867 Q209.838 205.214 211.783 205.908 Z" fill="#000000" fill-rule="nonzero" fill-opacity="1" /><path clip-path="url(#clip670)" d="M41.5432 799.903 Q43.4756 799.903 46.8572 800.644 Q50.2388 801.353 51.8491 801.932 Q56.1325 803.543 59.7395 806.763 Q61.7363 808.535 63.1856 810.467 Q64.6026 812.367 65.3112 813.784 Q65.9875 815.201 66.3417 816.876 Q66.7282 818.551 66.7604 819.323 Q66.8248 820.096 66.8248 821.191 L76.6476 823.703 Q79.1919 824.219 79.3529 824.476 Q79.4817 824.541 79.5461 824.702 Q79.6106 824.831 79.6106 824.96 L79.6106 825.088 Q79.6106 825.443 79.4495 825.636 Q79.2885 825.829 79.0953 825.861 L78.9342 825.861 Q78.4834 825.861 72.6863 824.348 Q69.7234 823.575 66.6638 822.898 Q66.3417 828.051 64.0551 831.24 Q61.7685 834.396 57.3241 834.396 Q54.5866 834.396 46.1809 831.207 Q42.1551 829.694 40.4804 829.694 Q39.7397 829.694 39.2888 829.855 Q38.8057 830.016 38.6447 830.338 Q38.4515 830.66 38.4193 830.853 Q38.3871 831.014 38.3871 831.336 Q38.3871 833.236 40.2872 835.008 Q42.1873 836.779 46.5673 838.003 Q47.3725 838.261 47.5657 838.422 Q47.759 838.583 47.759 839.066 Q47.7268 839.871 47.0826 839.871 Q46.825 839.871 45.8266 839.581 Q44.796 839.291 43.2823 838.615 Q41.7365 837.906 40.3516 836.94 Q38.9346 835.974 37.9362 834.46 Q36.9378 832.914 36.9378 831.143 Q36.9378 828.728 38.5159 827.246 Q40.0618 825.732 42.3484 825.732 Q42.7993 825.732 43.3146 825.829 Q43.8298 825.926 44.1197 826.022 Q44.4096 826.087 44.957 826.28 Q45.4723 826.441 45.569 826.473 Q49.8201 828.116 52.5898 828.953 Q55.3273 829.79 56.1325 829.919 Q56.9054 830.016 57.8394 830.016 Q64.345 830.016 65.2145 822.512 L21.64 811.562 Q20.7382 811.369 20.545 811.208 Q20.3196 811.047 20.3196 810.563 Q20.3196 809.791 21.0281 809.791 Q21.2535 809.791 22.0265 809.984 L65.3434 820.869 Q65.3434 819.839 65.3112 819.195 Q65.2789 818.551 64.9891 817.198 Q64.667 815.813 64.0873 814.654 Q63.5076 813.462 62.3482 811.787 Q61.1566 810.113 59.4819 808.47 Q57.3885 806.409 53.8781 804.573 Q50.3676 802.737 47.4691 802.737 Q44.2163 802.737 41.8653 805.089 Q41.5432 805.443 41.35 805.636 Q41.1568 805.797 40.8347 805.958 Q40.5126 806.087 40.094 806.087 Q38.999 806.087 37.9684 805.056 Q36.9378 804.026 36.9378 802.802 Q36.9378 801.707 38.0006 800.805 Q39.0634 799.903 41.5432 799.903 Z" fill="#000000" fill-rule="nonzero" fill-opacity="1" /><path clip-path="url(#clip670)" d="M49.5947 789.166 Q38.4515 789.166 29.466 785.012 Q25.6979 783.24 22.5418 780.76 Q19.3856 778.281 18.0007 776.638 Q16.6159 774.996 16.6159 774.545 Q16.6159 773.901 17.26 773.868 Q17.5821 773.868 18.3872 774.738 Q29.2084 785.366 49.5947 785.334 Q70.0454 785.334 80.4479 774.996 Q81.5751 773.868 81.9294 773.868 Q82.5735 773.868 82.5735 774.545 Q82.5735 774.996 81.2531 776.574 Q79.9326 778.152 76.9053 780.599 Q73.8779 783.047 70.1742 784.818 Q61.1888 789.166 49.5947 789.166 Z" fill="#000000" fill-rule="nonzero" fill-opacity="1" /><path clip-path="url(#clip670)" d="M39.4498 738.42 Q39.9007 738.42 40.9635 738.71 L66.1485 745.022 Q71.7523 746.407 75.6814 750.916 Q79.6106 755.393 79.6106 760.481 Q79.6106 763.541 77.9681 765.505 Q76.3578 767.47 73.8779 767.47 Q71.6879 767.47 70.6251 766.31 Q69.5945 765.151 69.5945 763.766 Q69.5945 763.315 69.7234 762.832 Q69.8522 762.349 70.3997 761.834 Q70.9472 761.319 71.8812 761.319 Q73.3948 761.319 74.5864 762.639 Q75.1339 763.283 75.2628 763.895 Q75.3916 764.475 75.3916 765.473 Q76.2934 765.087 76.9053 764.378 Q77.5172 763.67 77.7426 762.864 Q78.0003 762.059 78.0647 761.544 Q78.1613 760.997 78.1613 760.481 Q78.1613 756.359 74.0067 753.203 Q72.7507 752.269 71.4947 751.592 Q70.2709 750.884 68.7572 750.369 Q67.2757 749.853 66.4706 749.628 Q65.6654 749.37 63.8297 748.919 Q66.8248 751.914 66.8248 755.586 Q66.8248 757.132 66.4062 758.517 Q65.9875 759.869 65.1179 761.061 Q64.2162 762.253 62.6381 762.961 Q61.06 763.637 58.9666 763.637 Q56.7444 763.637 53.717 762.768 Q50.6897 761.898 45.1181 759.805 Q41.9941 758.678 40.4804 758.678 Q39.7397 758.678 39.2888 758.839 Q38.8057 759 38.6447 759.322 Q38.4515 759.644 38.4193 759.837 Q38.3871 759.998 38.3871 760.32 Q38.3871 762.22 40.3194 763.992 Q42.2518 765.763 46.5673 766.987 Q47.3725 767.244 47.5657 767.405 Q47.759 767.566 47.759 768.05 Q47.7268 768.855 47.0826 768.855 Q46.825 768.855 45.8266 768.565 Q44.796 768.275 43.2823 767.599 Q41.7365 766.89 40.3516 765.924 Q38.9346 764.958 37.9362 763.444 Q36.9378 761.898 36.9378 760.127 Q36.9378 757.712 38.5159 756.23 Q40.0618 754.716 42.3484 754.716 Q43.2823 754.716 44.1197 754.974 Q44.9248 755.199 47.0826 756.037 Q55.7782 759.418 60.0294 759.418 Q61.06 759.418 61.9295 759.257 Q62.7669 759.064 63.6042 758.645 Q64.4094 758.227 64.8925 757.389 Q65.3434 756.52 65.3434 755.328 Q65.3434 753.815 64.6348 752.398 Q63.8941 750.948 62.8957 750.047 Q61.8973 749.113 61.06 748.565 Q60.1904 747.985 59.7395 747.857 L47.8878 744.894 L42.606 743.573 Q39.7397 742.961 39.0312 742.671 Q38.3548 742.285 38.0006 741.609 Q37.6463 740.932 37.6463 740.353 Q37.6463 739.547 38.1294 739 Q38.6125 738.42 39.4498 738.42 Z" fill="#000000" fill-rule="nonzero" fill-opacity="1" /><path clip-path="url(#clip670)" d="M81.9294 732.109 Q81.6073 732.109 80.8022 731.271 Q69.981 720.643 49.5947 720.643 Q29.144 720.643 18.8059 730.853 Q17.6143 732.109 17.26 732.109 Q16.6159 732.109 16.6159 731.464 Q16.6159 731.014 17.9363 729.435 Q19.2568 727.825 22.2841 725.41 Q25.3115 722.962 29.0151 721.159 Q38.0006 716.811 49.5947 716.811 Q60.7379 716.811 69.7234 720.965 Q73.4914 722.737 76.6476 725.216 Q79.8038 727.696 81.1886 729.339 Q82.5735 730.981 82.5735 731.464 Q82.5735 732.109 81.9294 732.109 Z" fill="#000000" fill-rule="nonzero" fill-opacity="1" /><path clip-path="url(#clip670)" d="M923.058 12.096 L957.815 12.096 L957.815 18.9825 L931.241 18.9825 L931.241 36.8065 L955.222 36.8065 L955.222 43.6931 L931.241 43.6931 L931.241 72.576 L923.058 72.576 L923.058 12.096 Z" fill="#000000" fill-rule="nonzero" fill-opacity="1" /><path clip-path="url(#clip670)" d="M965.147 54.671 L965.147 27.2059 L972.6 27.2059 L972.6 54.3874 Q972.6 60.8284 975.112 64.0691 Q977.624 67.2693 982.647 67.2693 Q988.682 67.2693 992.166 63.421 Q995.691 59.5726 995.691 52.9291 L995.691 27.2059 L1003.14 27.2059 L1003.14 72.576 L995.691 72.576 L995.691 65.6084 Q992.976 69.7404 989.371 71.7658 Q985.806 73.7508 981.067 73.7508 Q973.249 73.7508 969.198 68.8897 Q965.147 64.0286 965.147 54.671 M983.902 26.1121 L983.902 26.1121 Z" fill="#000000" fill-rule="nonzero" fill-opacity="1" /><path clip-path="url(#clip670)" d="M1056.21 45.1919 L1056.21 72.576 L1048.76 72.576 L1048.76 45.4349 Q1048.76 38.994 1046.25 35.7938 Q1043.73 32.5936 1038.71 32.5936 Q1032.68 32.5936 1029.19 36.4419 Q1025.71 40.2903 1025.71 46.9338 L1025.71 72.576 L1018.21 72.576 L1018.21 27.2059 L1025.71 27.2059 L1025.71 34.2544 Q1028.38 30.163 1031.99 28.1376 Q1035.63 26.1121 1040.37 26.1121 Q1048.19 26.1121 1052.2 30.9732 Q1056.21 35.7938 1056.21 45.1919 Z" fill="#000000" fill-rule="nonzero" fill-opacity="1" /><path clip-path="url(#clip670)" d="M1100.93 49.3643 Q1100.93 41.2625 1097.57 36.8065 Q1094.25 32.3505 1088.21 32.3505 Q1082.22 32.3505 1078.86 36.8065 Q1075.53 41.2625 1075.53 49.3643 Q1075.53 57.4256 1078.86 61.8816 Q1082.22 66.3376 1088.21 66.3376 Q1094.25 66.3376 1097.57 61.8816 Q1100.93 57.4256 1100.93 49.3643 M1108.39 66.9452 Q1108.39 78.5308 1103.24 84.1616 Q1098.1 89.8329 1087.48 89.8329 Q1083.55 89.8329 1080.07 89.2252 Q1076.59 88.6581 1073.31 87.4428 L1073.31 80.1917 Q1076.59 81.9741 1079.79 82.8248 Q1082.99 83.6755 1086.31 83.6755 Q1093.64 83.6755 1097.29 79.8271 Q1100.93 76.0193 1100.93 68.282 L1100.93 64.5957 Q1098.62 68.6061 1095.02 70.5911 Q1091.41 72.576 1086.39 72.576 Q1078.05 72.576 1072.94 66.2161 Q1067.84 59.8562 1067.84 49.3643 Q1067.84 38.832 1072.94 32.472 Q1078.05 26.1121 1086.39 26.1121 Q1091.41 26.1121 1095.02 28.0971 Q1098.62 30.082 1100.93 34.0924 L1100.93 27.2059 L1108.39 27.2059 L1108.39 66.9452 Z" fill="#000000" fill-rule="nonzero" fill-opacity="1" /><path clip-path="url(#clip670)" d="M1152.66 28.5427 L1152.66 35.5912 Q1149.5 33.9709 1146.1 33.1607 Q1142.7 32.3505 1139.05 32.3505 Q1133.5 32.3505 1130.71 34.0519 Q1127.95 35.7533 1127.95 39.156 Q1127.95 41.7486 1129.94 43.2475 Q1131.92 44.7058 1137.92 46.0426 L1140.47 46.6097 Q1148.41 48.3111 1151.73 51.4303 Q1155.09 54.509 1155.09 60.0587 Q1155.09 66.3781 1150.07 70.0644 Q1145.09 73.7508 1136.34 73.7508 Q1132.69 73.7508 1128.72 73.0216 Q1124.79 72.3329 1120.42 70.9151 L1120.42 63.2184 Q1124.55 65.3654 1128.56 66.4591 Q1132.57 67.5124 1136.5 67.5124 Q1141.77 67.5124 1144.6 65.73 Q1147.44 63.9071 1147.44 60.6258 Q1147.44 57.5877 1145.37 55.9673 Q1143.35 54.3469 1136.42 52.8481 L1133.83 52.2405 Q1126.9 50.7821 1123.82 47.7845 Q1120.74 44.7463 1120.74 39.4801 Q1120.74 33.0797 1125.28 29.5959 Q1129.82 26.1121 1138.16 26.1121 Q1142.29 26.1121 1145.94 26.7198 Q1149.58 27.3274 1152.66 28.5427 Z" fill="#000000" fill-rule="nonzero" fill-opacity="1" /><path clip-path="url(#clip670)" d="M1166.96 27.2059 L1174.42 27.2059 L1174.42 72.576 L1166.96 72.576 L1166.96 27.2059 M1166.96 9.54393 L1174.42 9.54393 L1174.42 18.9825 L1166.96 18.9825 L1166.96 9.54393 Z" fill="#000000" fill-rule="nonzero" fill-opacity="1" /><path clip-path="url(#clip670)" d="M1257.95 63.9476 L1257.95 47.7034 L1244.58 47.7034 L1244.58 40.9789 L1266.05 40.9789 L1266.05 66.9452 Q1261.31 70.3075 1255.6 72.0494 Q1249.88 73.7508 1243.4 73.7508 Q1229.23 73.7508 1221.2 65.4869 Q1213.22 57.1826 1213.22 42.3968 Q1213.22 27.5705 1221.2 19.3066 Q1229.23 11.0023 1243.4 11.0023 Q1249.32 11.0023 1254.62 12.4606 Q1259.97 13.9189 1264.47 16.7545 L1264.47 25.464 Q1259.93 21.6156 1254.83 19.6712 Q1249.72 17.7268 1244.09 17.7268 Q1232.99 17.7268 1227.4 23.9246 Q1221.85 30.1225 1221.85 42.3968 Q1221.85 54.6305 1227.4 60.8284 Q1232.99 67.0263 1244.09 67.0263 Q1248.43 67.0263 1251.83 66.2971 Q1255.23 65.5274 1257.95 63.9476 Z" fill="#000000" fill-rule="nonzero" fill-opacity="1" /><path clip-path="url(#clip670)" d="M1319.48 48.0275 L1319.48 51.6733 L1285.21 51.6733 Q1285.69 59.3701 1289.83 63.421 Q1294 67.4314 1301.41 67.4314 Q1305.71 67.4314 1309.72 66.3781 Q1313.77 65.3249 1317.74 63.2184 L1317.74 70.267 Q1313.73 71.9684 1309.51 72.8596 Q1305.3 73.7508 1300.97 73.7508 Q1290.11 73.7508 1283.75 67.4314 Q1277.43 61.1119 1277.43 50.3365 Q1277.43 39.1965 1283.43 32.6746 Q1289.46 26.1121 1299.67 26.1121 Q1308.83 26.1121 1314.13 32.0264 Q1319.48 37.9003 1319.48 48.0275 M1312.03 45.84 Q1311.94 39.7232 1308.58 36.0774 Q1305.26 32.4315 1299.75 32.4315 Q1293.51 32.4315 1289.75 35.9558 Q1286.02 39.4801 1285.45 45.8805 L1312.03 45.84 Z" fill="#000000" fill-rule="nonzero" fill-opacity="1" /><path clip-path="url(#clip670)" d="M1331.71 9.54393 L1339.17 9.54393 L1339.17 72.576 L1331.71 72.576 L1331.71 9.54393 Z" fill="#000000" fill-rule="nonzero" fill-opacity="1" /><path clip-path="url(#clip670)" d="M1372.34 32.4315 Q1366.35 32.4315 1362.86 37.1306 Q1359.38 41.7891 1359.38 49.9314 Q1359.38 58.0738 1362.82 62.7728 Q1366.31 67.4314 1372.34 67.4314 Q1378.3 67.4314 1381.78 62.7323 Q1385.27 58.0333 1385.27 49.9314 Q1385.27 41.8701 1381.78 37.1711 Q1378.3 32.4315 1372.34 32.4315 M1372.34 26.1121 Q1382.07 26.1121 1387.62 32.4315 Q1393.17 38.7509 1393.17 49.9314 Q1393.17 61.0714 1387.62 67.4314 Q1382.07 73.7508 1372.34 73.7508 Q1362.58 73.7508 1357.03 67.4314 Q1351.52 61.0714 1351.52 49.9314 Q1351.52 38.7509 1357.03 32.4315 Q1362.58 26.1121 1372.34 26.1121 Z" fill="#000000" fill-rule="nonzero" fill-opacity="1" /><path clip-path="url(#clip670)" d="M1440.84 35.9153 Q1443.64 30.8922 1447.53 28.5022 Q1451.42 26.1121 1456.68 26.1121 Q1463.77 26.1121 1467.62 31.0947 Q1471.47 36.0368 1471.47 45.1919 L1471.47 72.576 L1463.98 72.576 L1463.98 45.4349 Q1463.98 38.913 1461.67 35.7533 Q1459.36 32.5936 1454.62 32.5936 Q1448.82 32.5936 1445.46 36.4419 Q1442.1 40.2903 1442.1 46.9338 L1442.1 72.576 L1434.61 72.576 L1434.61 45.4349 Q1434.61 38.8725 1432.3 35.7533 Q1429.99 32.5936 1425.17 32.5936 Q1419.46 32.5936 1416.09 36.4824 Q1412.73 40.3308 1412.73 46.9338 L1412.73 72.576 L1405.24 72.576 L1405.24 27.2059 L1412.73 27.2059 L1412.73 34.2544 Q1415.28 30.082 1418.85 28.0971 Q1422.41 26.1121 1427.31 26.1121 Q1432.26 26.1121 1435.7 28.6237 Q1439.18 31.1352 1440.84 35.9153 Z" fill="#000000" fill-rule="nonzero" fill-opacity="1" /><path clip-path="url(#clip670)" d="M1518.91 49.9314 Q1518.91 41.7081 1515.5 37.0496 Q1512.14 32.3505 1506.23 32.3505 Q1500.31 32.3505 1496.91 37.0496 Q1493.55 41.7081 1493.55 49.9314 Q1493.55 58.1548 1496.91 62.8538 Q1500.31 67.5124 1506.23 67.5124 Q1512.14 67.5124 1515.5 62.8538 Q1518.91 58.1548 1518.91 49.9314 M1493.55 34.0924 Q1495.9 30.0415 1499.46 28.0971 Q1503.07 26.1121 1508.05 26.1121 Q1516.31 26.1121 1521.46 32.6746 Q1526.64 39.2371 1526.64 49.9314 Q1526.64 60.6258 1521.46 67.1883 Q1516.31 73.7508 1508.05 73.7508 Q1503.07 73.7508 1499.46 71.8063 Q1495.9 69.8214 1493.55 65.7705 L1493.55 72.576 L1486.05 72.576 L1486.05 9.54393 L1493.55 9.54393 L1493.55 34.0924 Z" fill="#000000" fill-rule="nonzero" fill-opacity="1" /><path clip-path="url(#clip670)" d="M1559.62 49.7694 Q1550.58 49.7694 1547.1 51.8354 Q1543.62 53.9013 1543.62 58.8839 Q1543.62 62.8538 1546.21 65.2034 Q1548.84 67.5124 1553.34 67.5124 Q1559.54 67.5124 1563.26 63.1374 Q1567.03 58.7219 1567.03 51.4303 L1567.03 49.7694 L1559.62 49.7694 M1574.48 46.6907 L1574.48 72.576 L1567.03 72.576 L1567.03 65.6895 Q1564.48 69.8214 1560.67 71.8063 Q1556.86 73.7508 1551.35 73.7508 Q1544.39 73.7508 1540.25 69.8619 Q1536.16 65.9325 1536.16 59.3701 Q1536.16 51.7138 1541.27 47.825 Q1546.41 43.9361 1556.58 43.9361 L1567.03 43.9361 L1567.03 43.2069 Q1567.03 38.0623 1563.63 35.2672 Q1560.27 32.4315 1554.15 32.4315 Q1550.26 32.4315 1546.57 33.3632 Q1542.89 34.295 1539.48 36.1584 L1539.48 29.2718 Q1543.58 27.692 1547.42 26.9223 Q1551.27 26.1121 1554.92 26.1121 Q1564.76 26.1121 1569.62 31.2163 Q1574.48 36.3204 1574.48 46.6907 Z" fill="#000000" fill-rule="nonzero" fill-opacity="1" /><path clip-path="url(#clip670)" d="M1627.55 45.1919 L1627.55 72.576 L1620.1 72.576 L1620.1 45.4349 Q1620.1 38.994 1617.59 35.7938 Q1615.07 32.5936 1610.05 32.5936 Q1604.01 32.5936 1600.53 36.4419 Q1597.05 40.2903 1597.05 46.9338 L1597.05 72.576 L1589.55 72.576 L1589.55 27.2059 L1597.05 27.2059 L1597.05 34.2544 Q1599.72 30.163 1603.33 28.1376 Q1606.97 26.1121 1611.71 26.1121 Q1619.53 26.1121 1623.54 30.9732 Q1627.55 35.7938 1627.55 45.1919 Z" fill="#000000" fill-rule="nonzero" fill-opacity="1" /><path clip-path="url(#clip670)" d="M1672.27 49.3643 Q1672.27 41.2625 1668.91 36.8065 Q1665.59 32.3505 1659.55 32.3505 Q1653.56 32.3505 1650.2 36.8065 Q1646.87 41.2625 1646.87 49.3643 Q1646.87 57.4256 1650.2 61.8816 Q1653.56 66.3376 1659.55 66.3376 Q1665.59 66.3376 1668.91 61.8816 Q1672.27 57.4256 1672.27 49.3643 M1679.73 66.9452 Q1679.73 78.5308 1674.58 84.1616 Q1669.44 89.8329 1658.82 89.8329 Q1654.89 89.8329 1651.41 89.2252 Q1647.93 88.6581 1644.65 87.4428 L1644.65 80.1917 Q1647.93 81.9741 1651.13 82.8248 Q1654.33 83.6755 1657.65 83.6755 Q1664.98 83.6755 1668.63 79.8271 Q1672.27 76.0193 1672.27 68.282 L1672.27 64.5957 Q1669.96 68.6061 1666.36 70.5911 Q1662.75 72.576 1657.73 72.576 Q1649.38 72.576 1644.28 66.2161 Q1639.18 59.8562 1639.18 49.3643 Q1639.18 38.832 1644.28 32.472 Q1649.38 26.1121 1657.73 26.1121 Q1662.75 26.1121 1666.36 28.0971 Q1669.96 30.082 1672.27 34.0924 L1672.27 27.2059 L1679.73 27.2059 L1679.73 66.9452 Z" fill="#000000" fill-rule="nonzero" fill-opacity="1" /><polyline clip-path="url(#clip672)" style="stroke:#009af9; stroke-linecap:round; stroke-linejoin:round; stroke-width:4; stroke-opacity:1; fill:none" points="309.539,1386.4 313.523,1378.66 317.506,1370.92 321.489,1363.19 325.473,1355.45 329.456,1347.72 333.439,1339.99 337.423,1332.26 341.406,1324.53 345.389,1316.81 349.373,1309.09 353.356,1301.37 357.339,1293.66 361.323,1285.95 365.306,1278.24 369.289,1270.54 373.273,1262.84 377.256,1255.15 381.24,1247.47 385.223,1239.79 389.206,1232.11 393.19,1224.45 397.173,1216.79 401.156,1209.13 405.14,1201.49 409.123,1193.85 413.106,1186.22 417.09,1178.59 421.073,1170.98 425.056,1163.37 429.04,1155.78 433.023,1148.19 437.006,1140.61 440.99,1133.04 444.973,1125.49 448.956,1117.94 452.94,1110.4 456.923,1102.88 460.906,1095.37 464.89,1087.87 468.873,1080.38 472.856,1072.9 476.84,1065.44 480.823,1057.98 484.806,1050.55 488.79,1043.12 492.773,1035.71 496.756,1028.31 500.74,1020.93 504.723,1013.56 508.707,1006.21 512.69,998.872 516.673,991.55 520.657,984.244 524.64,976.954 528.623,969.68 532.607,962.423 536.59,955.183 540.573,947.961 544.557,940.756 548.54,933.568 552.523,926.399 556.507,919.248 560.49,912.116 564.473,905.003 568.457,897.909 572.44,890.834 576.423,883.78 580.407,876.745 584.39,869.731 588.373,862.737 592.357,855.764 596.34,848.813 600.323,841.883 604.307,834.974 608.29,828.088 612.273,821.224 616.257,814.382 620.24,807.563 624.224,800.768 628.207,793.995 632.19,787.246 636.174,780.521 640.157,773.82 644.14,767.144 648.124,760.492 652.107,753.865 656.09,747.264 660.074,740.687 664.057,734.137 668.04,727.612 672.024,721.114 676.007,714.642 679.99,708.197 683.974,701.779 687.957,695.388 691.94,689.024 695.924,682.688 699.907,676.38 703.89,670.101 707.874,663.85 711.857,657.627 715.84,651.434 719.824,645.27 723.807,639.135 727.79,633.03 731.774,626.954 735.757,620.909 739.74,614.895 743.724,608.911 747.707,602.958 751.691,597.036 755.674,591.145 759.657,585.286 763.641,579.459 767.624,573.664 771.607,567.901 775.591,562.17 779.574,556.473 783.557,550.808 787.541,545.176 791.524,539.578 795.507,534.013 799.491,528.483 803.474,522.986 807.457,517.523 811.441,512.095 815.424,506.702 819.407,501.343 823.391,496.02 827.374,490.732 831.357,485.48 835.341,480.263 839.324,475.082 843.307,469.937 847.291,464.829 851.274,459.757 855.257,454.722 859.241,449.724 863.224,444.763 867.207,439.839 871.191,434.953 875.174,430.105 879.158,425.294 883.141,420.522 887.124,415.788 891.108,411.092 895.091,406.435 899.074,401.817 903.058,397.238 907.041,392.698 911.024,388.197 915.008,383.736 918.991,379.315 922.974,374.934 926.958,370.593 930.941,366.292 934.924,362.031 938.908,357.811 942.891,353.632 946.874,349.493 950.858,345.396 954.841,341.34 958.824,337.326 962.808,333.353 966.791,329.421 970.774,325.532 974.758,321.684 978.741,317.879 982.724,314.116 986.708,310.396 990.691,306.718 994.675,303.083 998.658,299.49 1002.64,295.941 1006.62,292.435 1010.61,288.973 1014.59,285.553 1018.57,282.178 1022.56,278.846 1026.54,275.558 1030.52,272.314 1034.51,269.114 1038.49,265.958 1042.47,262.847 1046.46,259.78 1050.44,256.758 1054.42,253.781 1058.41,250.848 1062.39,247.96 1066.37,245.118 1070.36,242.32 1074.34,239.568 1078.32,236.861 1082.31,234.2 1086.29,231.585 1090.27,229.015 1094.26,226.491 1098.24,224.013 1102.22,221.58 1106.21,219.194 1110.19,216.855 1114.17,214.561 1118.16,212.314 1122.14,210.113 1126.12,207.959 1130.11,205.852 1134.09,203.791 1138.07,201.777 1142.06,199.81 1146.04,197.89 1150.02,196.017 1154.01,194.191 1157.99,192.412 1161.97,190.681 1165.96,188.997 1169.94,187.36 1173.93,185.771 1177.91,184.229 1181.89,182.735 1185.88,181.288 1189.86,179.889 1193.84,178.538 1197.83,177.235 1201.81,175.979 1205.79,174.772 1209.78,173.612 1213.76,172.5 1217.74,171.437 1221.73,170.421 1225.71,169.454 1229.69,168.535 1233.68,167.664 1237.66,166.841 1241.64,166.067 1245.63,165.34 1249.61,164.662 1253.59,164.033 1257.58,163.452 1261.56,162.919 1265.54,162.434 1269.53,161.999 1273.51,161.611 1277.49,161.272 1281.48,160.981 1285.46,160.739 1289.44,160.546 1293.43,160.401 1297.41,160.304 1301.39,160.256 1305.38,160.257 1309.36,160.306 1313.34,160.403 1317.33,160.55 1321.31,160.744 1325.29,160.987 1329.28,161.279 1333.26,161.619 1337.24,162.007 1341.23,162.444 1345.21,162.93 1349.19,163.464 1353.18,164.046 1357.16,164.676 1361.14,165.355 1365.13,166.083 1369.11,166.858 1373.09,167.682 1377.08,168.554 1381.06,169.474 1385.04,170.443 1389.03,171.459 1393.01,172.524 1396.99,173.637 1400.98,174.797 1404.96,176.006 1408.94,177.262 1412.93,178.567 1416.91,179.919 1420.89,181.319 1424.88,182.766 1428.86,184.261 1432.84,185.804 1436.83,187.395 1440.81,189.032 1444.79,190.717 1448.78,192.45 1452.76,194.23 1456.74,196.057 1460.73,197.931 1464.71,199.852 1468.69,201.82 1472.68,203.835 1476.66,205.896 1480.64,208.005 1484.63,210.16 1488.61,212.362 1492.59,214.61 1496.58,216.904 1500.56,219.245 1504.54,221.632 1508.53,224.065 1512.51,226.544 1516.49,229.069 1520.48,231.64 1524.46,234.257 1528.44,236.919 1532.43,239.627 1536.41,242.38 1540.39,245.178 1544.38,248.022 1548.36,250.911 1552.34,253.844 1556.33,256.823 1560.31,259.846 1564.29,262.913 1568.28,266.026 1572.26,269.182 1576.24,272.383 1580.23,275.628 1584.21,278.917 1588.19,282.25 1592.18,285.626 1596.16,289.047 1600.14,292.51 1604.13,296.017 1608.11,299.567 1612.09,303.16 1616.08,306.796 1620.06,310.475 1624.04,314.196 1628.03,317.96 1632.01,321.766 1635.99,325.615 1639.98,329.505 1643.96,333.437 1647.94,337.411 1651.93,341.427 1655.91,345.484 1659.89,349.582 1663.88,353.721 1667.86,357.901 1671.84,362.122 1675.83,366.384 1679.81,370.685 1683.79,375.028 1687.78,379.41 1691.76,383.832 1695.74,388.294 1699.73,392.795 1703.71,397.336 1707.69,401.916 1711.68,406.535 1715.66,411.193 1719.64,415.889 1723.63,420.624 1727.61,425.397 1731.59,430.209 1735.58,435.058 1739.56,439.945 1743.54,444.869 1747.53,449.831 1751.51,454.83 1755.49,459.866 1759.48,464.938 1763.46,470.047 1767.44,475.193 1771.43,480.374 1775.41,485.592 1779.39,490.845 1783.38,496.134 1787.36,501.458 1791.34,506.817 1795.33,512.211 1799.31,517.64 1803.29,523.104 1807.28,528.601 1811.26,534.133 1815.24,539.698 1819.23,545.297 1823.21,550.929 1827.19,556.595 1831.18,562.293 1835.16,568.024 1839.14,573.788 1843.13,579.584 1847.11,585.412 1851.09,591.271 1855.08,597.163 1859.06,603.085 1863.04,609.039 1867.03,615.024 1871.01,621.039 1874.99,627.085 1878.98,633.16 1882.96,639.266 1886.94,645.402 1890.93,651.566 1894.91,657.761 1898.89,663.984 1902.88,670.235 1906.86,676.516 1910.84,682.824 1914.83,689.16 1918.81,695.524 1922.79,701.916 1926.78,708.335 1930.76,714.781 1934.74,721.253 1938.73,727.752 1942.71,734.277 1946.69,740.828 1950.68,747.405 1954.66,754.007 1958.64,760.635 1962.63,767.287 1966.61,773.964 1970.59,780.665 1974.58,787.391 1978.56,794.14 1982.54,800.913 1986.53,807.709 1990.51,814.529 1994.49,821.371 1998.48,828.236 2002.46,835.122 2006.44,842.031 2010.43,848.962 2014.41,855.914 2018.39,862.887 2022.38,869.881 2026.36,876.896 2030.34,883.931 2034.33,890.986 2038.31,898.061 2042.29,905.155 2046.28,912.269 2050.26,919.402 2054.24,926.553 2058.23,933.722 2062.21,940.91 2066.19,948.116 2070.18,955.339 2074.16,962.579 2078.14,969.836 2082.13,977.11 2086.11,984.401 2090.09,991.707 2094.08,999.03 2098.06,1006.37 2102.04,1013.72 2106.03,1021.09 2110.01,1028.47 2113.99,1035.87 2117.98,1043.28 2121.96,1050.7 2125.94,1058.14 2129.93,1065.6 2133.91,1073.06 2137.89,1080.54 2141.88,1088.03 2145.86,1095.53 2149.84,1103.04 2153.83,1110.57 2157.81,1118.1 2161.79,1125.65 2165.78,1133.21 2169.76,1140.77 2173.74,1148.35 2177.73,1155.94 2181.71,1163.54 2185.69,1171.14 2189.68,1178.76 2193.66,1186.38 2197.64,1194.01 2201.63,1201.65 2205.61,1209.3 2209.59,1216.95 2213.58,1224.61 2217.56,1232.28 2221.54,1239.95 2225.53,1247.63 2229.51,1255.32 2233.49,1263.01 2237.48,1270.7 2241.46,1278.41 2245.44,1286.11 2249.43,1293.82 2253.41,1301.54 2257.39,1309.25 2261.38,1316.97 2265.36,1324.7 2269.34,1332.42 2273.33,1340.15 2277.31,1347.88 2281.29,1355.62 2285.28,1363.35 2289.26,1371.09 2293.24,1378.82 "/>
<path clip-path="url(#clip670)" d="M2019.96 270.476 L2282.66 270.476 L2282.66 166.796 L2019.96 166.796  Z" fill="#ffffff" fill-rule="evenodd" fill-opacity="1"/>
<polyline clip-path="url(#clip670)" style="stroke:#000000; stroke-linecap:round; stroke-linejoin:round; stroke-width:4; stroke-opacity:1; fill:none" points="2019.96,270.476 2282.66,270.476 2282.66,166.796 2019.96,166.796 2019.96,270.476 "/>
<polyline clip-path="url(#clip670)" style="stroke:#009af9; stroke-linecap:round; stroke-linejoin:round; stroke-width:4; stroke-opacity:1; fill:none" points="2043.33,218.636 2183.51,218.636 "/>
<path clip-path="url(#clip670)" d="M2220.71 238.323 Q2218.91 242.953 2217.2 244.365 Q2215.48 245.777 2212.61 245.777 L2209.21 245.777 L2209.21 242.212 L2211.71 242.212 Q2213.47 242.212 2214.44 241.379 Q2215.41 240.545 2216.59 237.443 L2217.36 235.499 L2206.87 209.99 L2211.38 209.99 L2219.49 230.268 L2227.59 209.99 L2232.1 209.99 L2220.71 238.323 Z" fill="#000000" fill-rule="nonzero" fill-opacity="1" /><path clip-path="url(#clip670)" d="M2239.39 231.981 L2247.03 231.981 L2247.03 205.615 L2238.72 207.282 L2238.72 203.022 L2246.99 201.356 L2251.66 201.356 L2251.66 231.981 L2259.3 231.981 L2259.3 235.916 L2239.39 235.916 L2239.39 231.981 Z" fill="#000000" fill-rule="nonzero" fill-opacity="1" /></svg>
