<?xml version="1.0" encoding="utf-8"?>
<svg xmlns="http://www.w3.org/2000/svg" xmlns:xlink="http://www.w3.org/1999/xlink" width="600" height="400" viewBox="0 0 2400 1600">
<defs>
  <clipPath id="clip390">
    <rect x="0" y="0" width="2400" height="1600"/>
  </clipPath>
</defs>
<path clip-path="url(#clip390)" d="M0 1600 L2400 1600 L2400 8.88178e-14 L0 8.88178e-14  Z" fill="#ffffff" fill-rule="evenodd" fill-opacity="1"/>
<defs>
  <clipPath id="clip391">
    <rect x="377" y="123" width="1976" height="1301"/>
  </clipPath>
</defs>
<path clip-path="url(#clip390)" d="M250.028 1423.18 L2352.76 1423.18 L2352.76 123.472 L250.028 123.472  Z" fill="#ffffff" fill-rule="evenodd" fill-opacity="1"/>
<defs>
  <clipPath id="clip392">
    <rect x="250" y="123" width="2104" height="1301"/>
  </clipPath>
</defs>
<polyline clip-path="url(#clip392)" style="stroke:#000000; stroke-linecap:round; stroke-linejoin:round; stroke-width:2; stroke-opacity:0.1; fill:none" points="492.275,1423.18 492.275,123.472 "/>
<polyline clip-path="url(#clip392)" style="stroke:#000000; stroke-linecap:round; stroke-linejoin:round; stroke-width:2; stroke-opacity:0.1; fill:none" points="803.474,1423.18 803.474,123.472 "/>
<polyline clip-path="url(#clip392)" style="stroke:#000000; stroke-linecap:round; stroke-linejoin:round; stroke-width:2; stroke-opacity:0.1; fill:none" points="1114.67,1423.18 1114.67,123.472 "/>
<polyline clip-path="url(#clip392)" style="stroke:#000000; stroke-linecap:round; stroke-linejoin:round; stroke-width:2; stroke-opacity:0.1; fill:none" points="1425.87,1423.18 1425.87,123.472 "/>
<polyline clip-path="url(#clip392)" style="stroke:#000000; stroke-linecap:round; stroke-linejoin:round; stroke-width:2; stroke-opacity:0.1; fill:none" points="1737.07,1423.18 1737.07,123.472 "/>
<polyline clip-path="url(#clip392)" style="stroke:#000000; stroke-linecap:round; stroke-linejoin:round; stroke-width:2; stroke-opacity:0.1; fill:none" points="2048.27,1423.18 2048.27,123.472 "/>
<polyline clip-path="url(#clip392)" style="stroke:#000000; stroke-linecap:round; stroke-linejoin:round; stroke-width:2; stroke-opacity:0.1; fill:none" points="250.028,1387.07 2352.76,1387.07 "/>
<polyline clip-path="url(#clip392)" style="stroke:#000000; stroke-linecap:round; stroke-linejoin:round; stroke-width:2; stroke-opacity:0.1; fill:none" points="250.028,1097.71 2352.76,1097.71 "/>
<polyline clip-path="url(#clip392)" style="stroke:#000000; stroke-linecap:round; stroke-linejoin:round; stroke-width:2; stroke-opacity:0.1; fill:none" points="250.028,808.356 2352.76,808.356 "/>
<polyline clip-path="url(#clip392)" style="stroke:#000000; stroke-linecap:round; stroke-linejoin:round; stroke-width:2; stroke-opacity:0.1; fill:none" points="250.028,518.999 2352.76,518.999 "/>
<polyline clip-path="url(#clip392)" style="stroke:#000000; stroke-linecap:round; stroke-linejoin:round; stroke-width:2; stroke-opacity:0.1; fill:none" points="250.028,229.642 2352.76,229.642 "/>
<polyline clip-path="url(#clip390)" style="stroke:#000000; stroke-linecap:round; stroke-linejoin:round; stroke-width:4; stroke-opacity:1; fill:none" points="250.028,1423.18 2352.76,1423.18 "/>
<polyline clip-path="url(#clip390)" style="stroke:#000000; stroke-linecap:round; stroke-linejoin:round; stroke-width:4; stroke-opacity:1; fill:none" points="492.275,1423.18 492.275,1404.28 "/>
<polyline clip-path="url(#clip390)" style="stroke:#000000; stroke-linecap:round; stroke-linejoin:round; stroke-width:4; stroke-opacity:1; fill:none" points="803.474,1423.18 803.474,1404.28 "/>
<polyline clip-path="url(#clip390)" style="stroke:#000000; stroke-linecap:round; stroke-linejoin:round; stroke-width:4; stroke-opacity:1; fill:none" points="1114.67,1423.18 1114.67,1404.28 "/>
<polyline clip-path="url(#clip390)" style="stroke:#000000; stroke-linecap:round; stroke-linejoin:round; stroke-width:4; stroke-opacity:1; fill:none" points="1425.87,1423.18 1425.87,1404.28 "/>
<polyline clip-path="url(#clip390)" style="stroke:#000000; stroke-linecap:round; stroke-linejoin:round; stroke-width:4; stroke-opacity:1; fill:none" points="1737.07,1423.18 1737.07,1404.28 "/>
<polyline clip-path="url(#clip390)" style="stroke:#000000; stroke-linecap:round; stroke-linejoin:round; stroke-width:4; stroke-opacity:1; fill:none" points="2048.27,1423.18 2048.27,1404.28 "/>
<path clip-path="url(#clip390)" d="M424.22 1468.75 L453.896 1468.75 L453.896 1472.69 L424.22 1472.69 L424.22 1468.75 Z" fill="#000000" fill-rule="nonzero" fill-opacity="1" /><path clip-path="url(#clip390)" d="M473.988 1454.1 Q470.377 1454.1 468.548 1457.66 Q466.743 1461.2 466.743 1468.33 Q466.743 1475.44 468.548 1479.01 Q470.377 1482.55 473.988 1482.55 Q477.623 1482.55 479.428 1479.01 Q481.257 1475.44 481.257 1468.33 Q481.257 1461.2 479.428 1457.66 Q477.623 1454.1 473.988 1454.1 M473.988 1450.39 Q479.798 1450.39 482.854 1455 Q485.933 1459.58 485.933 1468.33 Q485.933 1477.06 482.854 1481.67 Q479.798 1486.25 473.988 1486.25 Q468.178 1486.25 465.099 1481.67 Q462.044 1477.06 462.044 1468.33 Q462.044 1459.58 465.099 1455 Q468.178 1450.39 473.988 1450.39 Z" fill="#000000" fill-rule="nonzero" fill-opacity="1" /><path clip-path="url(#clip390)" d="M494.15 1479.7 L499.034 1479.7 L499.034 1485.58 L494.15 1485.58 L494.15 1479.7 Z" fill="#000000" fill-rule="nonzero" fill-opacity="1" /><path clip-path="url(#clip390)" d="M513.247 1481.64 L529.567 1481.64 L529.567 1485.58 L507.622 1485.58 L507.622 1481.64 Q510.284 1478.89 514.868 1474.26 Q519.474 1469.61 520.655 1468.27 Q522.9 1465.74 523.78 1464.01 Q524.682 1462.25 524.682 1460.56 Q524.682 1457.8 522.738 1456.07 Q520.817 1454.33 517.715 1454.33 Q515.516 1454.33 513.062 1455.09 Q510.632 1455.86 507.854 1457.41 L507.854 1452.69 Q510.678 1451.55 513.132 1450.97 Q515.585 1450.39 517.622 1450.39 Q522.993 1450.39 526.187 1453.08 Q529.382 1455.77 529.382 1460.26 Q529.382 1462.39 528.571 1464.31 Q527.784 1466.2 525.678 1468.8 Q525.099 1469.47 521.997 1472.69 Q518.895 1475.88 513.247 1481.64 Z" fill="#000000" fill-rule="nonzero" fill-opacity="1" /><path clip-path="url(#clip390)" d="M539.428 1451.02 L557.784 1451.02 L557.784 1454.96 L543.71 1454.96 L543.71 1463.43 Q544.729 1463.08 545.747 1462.92 Q546.766 1462.73 547.784 1462.73 Q553.571 1462.73 556.951 1465.9 Q560.33 1469.08 560.33 1474.49 Q560.33 1480.07 556.858 1483.17 Q553.386 1486.25 547.067 1486.25 Q544.891 1486.25 542.622 1485.88 Q540.377 1485.51 537.969 1484.77 L537.969 1480.07 Q540.053 1481.2 542.275 1481.76 Q544.497 1482.32 546.974 1482.32 Q550.979 1482.32 553.317 1480.21 Q555.655 1478.1 555.655 1474.49 Q555.655 1470.88 553.317 1468.77 Q550.979 1466.67 546.974 1466.67 Q545.099 1466.67 543.224 1467.08 Q541.372 1467.5 539.428 1468.38 L539.428 1451.02 Z" fill="#000000" fill-rule="nonzero" fill-opacity="1" /><path clip-path="url(#clip390)" d="M765.777 1454.1 Q762.166 1454.1 760.338 1457.66 Q758.532 1461.2 758.532 1468.33 Q758.532 1475.44 760.338 1479.01 Q762.166 1482.55 765.777 1482.55 Q769.412 1482.55 771.217 1479.01 Q773.046 1475.44 773.046 1468.33 Q773.046 1461.2 771.217 1457.66 Q769.412 1454.1 765.777 1454.1 M765.777 1450.39 Q771.588 1450.39 774.643 1455 Q777.722 1459.58 777.722 1468.33 Q777.722 1477.06 774.643 1481.67 Q771.588 1486.25 765.777 1486.25 Q759.967 1486.25 756.889 1481.67 Q753.833 1477.06 753.833 1468.33 Q753.833 1459.58 756.889 1455 Q759.967 1450.39 765.777 1450.39 Z" fill="#000000" fill-rule="nonzero" fill-opacity="1" /><path clip-path="url(#clip390)" d="M785.939 1479.7 L790.824 1479.7 L790.824 1485.58 L785.939 1485.58 L785.939 1479.7 Z" fill="#000000" fill-rule="nonzero" fill-opacity="1" /><path clip-path="url(#clip390)" d="M811.009 1454.1 Q807.398 1454.1 805.569 1457.66 Q803.763 1461.2 803.763 1468.33 Q803.763 1475.44 805.569 1479.01 Q807.398 1482.55 811.009 1482.55 Q814.643 1482.55 816.448 1479.01 Q818.277 1475.44 818.277 1468.33 Q818.277 1461.2 816.448 1457.66 Q814.643 1454.1 811.009 1454.1 M811.009 1450.39 Q816.819 1450.39 819.874 1455 Q822.953 1459.58 822.953 1468.33 Q822.953 1477.06 819.874 1481.67 Q816.819 1486.25 811.009 1486.25 Q805.199 1486.25 802.12 1481.67 Q799.064 1477.06 799.064 1468.33 Q799.064 1459.58 802.12 1455 Q805.199 1450.39 811.009 1450.39 Z" fill="#000000" fill-rule="nonzero" fill-opacity="1" /><path clip-path="url(#clip390)" d="M841.171 1454.1 Q837.559 1454.1 835.731 1457.66 Q833.925 1461.2 833.925 1468.33 Q833.925 1475.44 835.731 1479.01 Q837.559 1482.55 841.171 1482.55 Q844.805 1482.55 846.61 1479.01 Q848.439 1475.44 848.439 1468.33 Q848.439 1461.2 846.61 1457.66 Q844.805 1454.1 841.171 1454.1 M841.171 1450.39 Q846.981 1450.39 850.036 1455 Q853.115 1459.58 853.115 1468.33 Q853.115 1477.06 850.036 1481.67 Q846.981 1486.25 841.171 1486.25 Q835.36 1486.25 832.282 1481.67 Q829.226 1477.06 829.226 1468.33 Q829.226 1459.58 832.282 1455 Q835.36 1450.39 841.171 1450.39 Z" fill="#000000" fill-rule="nonzero" fill-opacity="1" /><path clip-path="url(#clip390)" d="M1077.47 1454.1 Q1073.86 1454.1 1072.03 1457.66 Q1070.23 1461.2 1070.23 1468.33 Q1070.23 1475.44 1072.03 1479.01 Q1073.86 1482.55 1077.47 1482.55 Q1081.11 1482.55 1082.91 1479.01 Q1084.74 1475.44 1084.74 1468.33 Q1084.74 1461.2 1082.91 1457.66 Q1081.11 1454.1 1077.47 1454.1 M1077.47 1450.39 Q1083.28 1450.39 1086.34 1455 Q1089.42 1459.58 1089.42 1468.33 Q1089.42 1477.06 1086.34 1481.67 Q1083.28 1486.25 1077.47 1486.25 Q1071.66 1486.25 1068.59 1481.67 Q1065.53 1477.06 1065.53 1468.33 Q1065.53 1459.58 1068.59 1455 Q1071.66 1450.39 1077.47 1450.39 Z" fill="#000000" fill-rule="nonzero" fill-opacity="1" /><path clip-path="url(#clip390)" d="M1097.64 1479.7 L1102.52 1479.7 L1102.52 1485.58 L1097.64 1485.58 L1097.64 1479.7 Z" fill="#000000" fill-rule="nonzero" fill-opacity="1" /><path clip-path="url(#clip390)" d="M1116.73 1481.64 L1133.05 1481.64 L1133.05 1485.58 L1111.11 1485.58 L1111.11 1481.64 Q1113.77 1478.89 1118.35 1474.26 Q1122.96 1469.61 1124.14 1468.27 Q1126.39 1465.74 1127.27 1464.01 Q1128.17 1462.25 1128.17 1460.56 Q1128.17 1457.8 1126.22 1456.07 Q1124.3 1454.33 1121.2 1454.33 Q1119 1454.33 1116.55 1455.09 Q1114.12 1455.86 1111.34 1457.41 L1111.34 1452.69 Q1114.16 1451.55 1116.62 1450.97 Q1119.07 1450.39 1121.11 1450.39 Q1126.48 1450.39 1129.67 1453.08 Q1132.87 1455.77 1132.87 1460.26 Q1132.87 1462.39 1132.06 1464.31 Q1131.27 1466.2 1129.16 1468.8 Q1128.58 1469.47 1125.48 1472.69 Q1122.38 1475.88 1116.73 1481.64 Z" fill="#000000" fill-rule="nonzero" fill-opacity="1" /><path clip-path="url(#clip390)" d="M1142.91 1451.02 L1161.27 1451.02 L1161.27 1454.96 L1147.2 1454.96 L1147.2 1463.43 Q1148.21 1463.08 1149.23 1462.92 Q1150.25 1462.73 1151.27 1462.73 Q1157.06 1462.73 1160.44 1465.9 Q1163.82 1469.08 1163.82 1474.49 Q1163.82 1480.07 1160.34 1483.17 Q1156.87 1486.25 1150.55 1486.25 Q1148.38 1486.25 1146.11 1485.88 Q1143.86 1485.51 1141.46 1484.77 L1141.46 1480.07 Q1143.54 1481.2 1145.76 1481.76 Q1147.98 1482.32 1150.46 1482.32 Q1154.46 1482.32 1156.8 1480.21 Q1159.14 1478.1 1159.14 1474.49 Q1159.14 1470.88 1156.8 1468.77 Q1154.46 1466.67 1150.46 1466.67 Q1148.58 1466.67 1146.71 1467.08 Q1144.86 1467.5 1142.91 1468.38 L1142.91 1451.02 Z" fill="#000000" fill-rule="nonzero" fill-opacity="1" /><path clip-path="url(#clip390)" d="M1388.17 1454.1 Q1384.56 1454.1 1382.74 1457.66 Q1380.93 1461.2 1380.93 1468.33 Q1380.93 1475.44 1382.74 1479.01 Q1384.56 1482.55 1388.17 1482.55 Q1391.81 1482.55 1393.61 1479.01 Q1395.44 1475.44 1395.44 1468.33 Q1395.44 1461.2 1393.61 1457.66 Q1391.81 1454.1 1388.17 1454.1 M1388.17 1450.39 Q1393.99 1450.39 1397.04 1455 Q1400.12 1459.58 1400.12 1468.33 Q1400.12 1477.06 1397.04 1481.67 Q1393.99 1486.25 1388.17 1486.25 Q1382.36 1486.25 1379.29 1481.67 Q1376.23 1477.06 1376.23 1468.33 Q1376.23 1459.58 1379.29 1455 Q1382.36 1450.39 1388.17 1450.39 Z" fill="#000000" fill-rule="nonzero" fill-opacity="1" /><path clip-path="url(#clip390)" d="M1408.34 1479.7 L1413.22 1479.7 L1413.22 1485.58 L1408.34 1485.58 L1408.34 1479.7 Z" fill="#000000" fill-rule="nonzero" fill-opacity="1" /><path clip-path="url(#clip390)" d="M1423.45 1451.02 L1441.81 1451.02 L1441.81 1454.96 L1427.73 1454.96 L1427.73 1463.43 Q1428.75 1463.08 1429.77 1462.92 Q1430.79 1462.73 1431.81 1462.73 Q1437.6 1462.73 1440.98 1465.9 Q1444.36 1469.08 1444.36 1474.49 Q1444.36 1480.07 1440.88 1483.17 Q1437.41 1486.25 1431.09 1486.25 Q1428.92 1486.25 1426.65 1485.88 Q1424.4 1485.51 1421.99 1484.77 L1421.99 1480.07 Q1424.08 1481.2 1426.3 1481.76 Q1428.52 1482.32 1431 1482.32 Q1435 1482.32 1437.34 1480.21 Q1439.68 1478.1 1439.68 1474.49 Q1439.68 1470.88 1437.34 1468.77 Q1435 1466.67 1431 1466.67 Q1429.12 1466.67 1427.25 1467.08 Q1425.4 1467.5 1423.45 1468.38 L1423.45 1451.02 Z" fill="#000000" fill-rule="nonzero" fill-opacity="1" /><path clip-path="url(#clip390)" d="M1463.57 1454.1 Q1459.96 1454.1 1458.13 1457.66 Q1456.32 1461.2 1456.32 1468.33 Q1456.32 1475.44 1458.13 1479.01 Q1459.96 1482.55 1463.57 1482.55 Q1467.2 1482.55 1469.01 1479.01 Q1470.84 1475.44 1470.84 1468.33 Q1470.84 1461.2 1469.01 1457.66 Q1467.2 1454.1 1463.57 1454.1 M1463.57 1450.39 Q1469.38 1450.39 1472.43 1455 Q1475.51 1459.58 1475.51 1468.33 Q1475.51 1477.06 1472.43 1481.67 Q1469.38 1486.25 1463.57 1486.25 Q1457.76 1486.25 1454.68 1481.67 Q1451.62 1477.06 1451.62 1468.33 Q1451.62 1459.58 1454.68 1455 Q1457.76 1450.39 1463.57 1450.39 Z" fill="#000000" fill-rule="nonzero" fill-opacity="1" /><path clip-path="url(#clip390)" d="M1699.87 1454.1 Q1696.26 1454.1 1694.43 1457.66 Q1692.63 1461.2 1692.63 1468.33 Q1692.63 1475.44 1694.43 1479.01 Q1696.26 1482.55 1699.87 1482.55 Q1703.51 1482.55 1705.31 1479.01 Q1707.14 1475.44 1707.14 1468.33 Q1707.14 1461.2 1705.31 1457.66 Q1703.51 1454.1 1699.87 1454.1 M1699.87 1450.39 Q1705.68 1450.39 1708.74 1455 Q1711.82 1459.58 1711.82 1468.33 Q1711.82 1477.06 1708.74 1481.67 Q1705.68 1486.25 1699.87 1486.25 Q1694.06 1486.25 1690.98 1481.67 Q1687.93 1477.06 1687.93 1468.33 Q1687.93 1459.58 1690.98 1455 Q1694.06 1450.39 1699.87 1450.39 Z" fill="#000000" fill-rule="nonzero" fill-opacity="1" /><path clip-path="url(#clip390)" d="M1720.03 1479.7 L1724.92 1479.7 L1724.92 1485.58 L1720.03 1485.58 L1720.03 1479.7 Z" fill="#000000" fill-rule="nonzero" fill-opacity="1" /><path clip-path="url(#clip390)" d="M1733.92 1451.02 L1756.14 1451.02 L1756.14 1453.01 L1743.6 1485.58 L1738.71 1485.58 L1750.52 1454.96 L1733.92 1454.96 L1733.92 1451.02 Z" fill="#000000" fill-rule="nonzero" fill-opacity="1" /><path clip-path="url(#clip390)" d="M1765.31 1451.02 L1783.67 1451.02 L1783.67 1454.96 L1769.59 1454.96 L1769.59 1463.43 Q1770.61 1463.08 1771.63 1462.92 Q1772.65 1462.73 1773.67 1462.73 Q1779.45 1462.73 1782.83 1465.9 Q1786.21 1469.08 1786.21 1474.49 Q1786.21 1480.07 1782.74 1483.17 Q1779.27 1486.25 1772.95 1486.25 Q1770.77 1486.25 1768.51 1485.88 Q1766.26 1485.51 1763.85 1484.77 L1763.85 1480.07 Q1765.94 1481.2 1768.16 1481.76 Q1770.38 1482.32 1772.86 1482.32 Q1776.86 1482.32 1779.2 1480.21 Q1781.54 1478.1 1781.54 1474.49 Q1781.54 1470.88 1779.2 1468.77 Q1776.86 1466.67 1772.86 1466.67 Q1770.98 1466.67 1769.11 1467.08 Q1767.26 1467.5 1765.31 1468.38 L1765.31 1451.02 Z" fill="#000000" fill-rule="nonzero" fill-opacity="1" /><path clip-path="url(#clip390)" d="M2000.34 1481.64 L2007.98 1481.64 L2007.98 1455.28 L1999.67 1456.95 L1999.67 1452.69 L2007.93 1451.02 L2012.61 1451.02 L2012.61 1481.64 L2020.25 1481.64 L2020.25 1485.58 L2000.34 1485.58 L2000.34 1481.64 Z" fill="#000000" fill-rule="nonzero" fill-opacity="1" /><path clip-path="url(#clip390)" d="M2029.69 1479.7 L2034.58 1479.7 L2034.58 1485.58 L2029.69 1485.58 L2029.69 1479.7 Z" fill="#000000" fill-rule="nonzero" fill-opacity="1" /><path clip-path="url(#clip390)" d="M2054.76 1454.1 Q2051.15 1454.1 2049.32 1457.66 Q2047.52 1461.2 2047.52 1468.33 Q2047.52 1475.44 2049.32 1479.01 Q2051.15 1482.55 2054.76 1482.55 Q2058.4 1482.55 2060.2 1479.01 Q2062.03 1475.44 2062.03 1468.33 Q2062.03 1461.2 2060.2 1457.66 Q2058.4 1454.1 2054.76 1454.1 M2054.76 1450.39 Q2060.57 1450.39 2063.63 1455 Q2066.71 1459.58 2066.71 1468.33 Q2066.71 1477.06 2063.63 1481.67 Q2060.57 1486.25 2054.76 1486.25 Q2048.95 1486.25 2045.87 1481.67 Q2042.82 1477.06 2042.82 1468.33 Q2042.82 1459.58 2045.87 1455 Q2048.95 1450.39 2054.76 1450.39 Z" fill="#000000" fill-rule="nonzero" fill-opacity="1" /><path clip-path="url(#clip390)" d="M2084.92 1454.1 Q2081.31 1454.1 2079.48 1457.66 Q2077.68 1461.2 2077.68 1468.33 Q2077.68 1475.44 2079.48 1479.01 Q2081.31 1482.55 2084.92 1482.55 Q2088.56 1482.55 2090.36 1479.01 Q2092.19 1475.44 2092.19 1468.33 Q2092.19 1461.2 2090.36 1457.66 Q2088.56 1454.1 2084.92 1454.1 M2084.92 1450.39 Q2090.73 1450.39 2093.79 1455 Q2096.87 1459.58 2096.87 1468.33 Q2096.87 1477.06 2093.79 1481.67 Q2090.73 1486.25 2084.92 1486.25 Q2079.11 1486.25 2076.04 1481.67 Q2072.98 1477.06 2072.98 1468.33 Q2072.98 1459.58 2076.04 1455 Q2079.11 1450.39 2084.92 1450.39 Z" fill="#000000" fill-rule="nonzero" fill-opacity="1" /><path clip-path="url(#clip390)" d="M1315.83 1520.64 Q1315.83 1521.09 1315.54 1522.15 L1309.23 1547.34 Q1307.84 1552.94 1303.33 1556.87 Q1298.86 1560.8 1293.77 1560.8 Q1290.71 1560.8 1288.74 1559.16 Q1286.78 1557.55 1286.78 1555.07 Q1286.78 1552.88 1287.94 1551.82 Q1289.1 1550.78 1290.48 1550.78 Q1290.93 1550.78 1291.42 1550.91 Q1291.9 1551.04 1292.42 1551.59 Q1292.93 1552.14 1292.93 1553.07 Q1292.93 1554.58 1291.61 1555.78 Q1290.97 1556.32 1290.35 1556.45 Q1289.77 1556.58 1288.78 1556.58 Q1289.16 1557.48 1289.87 1558.1 Q1290.58 1558.71 1291.39 1558.93 Q1292.19 1559.19 1292.71 1559.25 Q1293.25 1559.35 1293.77 1559.35 Q1297.89 1559.35 1301.05 1555.2 Q1301.98 1553.94 1302.66 1552.68 Q1303.37 1551.46 1303.88 1549.95 Q1304.4 1548.47 1304.62 1547.66 Q1304.88 1546.86 1305.33 1545.02 Q1302.34 1548.01 1298.66 1548.01 Q1297.12 1548.01 1295.73 1547.6 Q1294.38 1547.18 1293.19 1546.31 Q1292 1545.41 1291.29 1543.83 Q1290.61 1542.25 1290.61 1540.16 Q1290.61 1537.93 1291.48 1534.91 Q1292.35 1531.88 1294.44 1526.31 Q1295.57 1523.18 1295.57 1521.67 Q1295.57 1520.93 1295.41 1520.48 Q1295.25 1520 1294.93 1519.83 Q1294.61 1519.64 1294.41 1519.61 Q1294.25 1519.58 1293.93 1519.58 Q1292.03 1519.58 1290.26 1521.51 Q1288.49 1523.44 1287.26 1527.76 Q1287.01 1528.56 1286.84 1528.76 Q1286.68 1528.95 1286.2 1528.95 Q1285.39 1528.92 1285.39 1528.27 Q1285.39 1528.01 1285.68 1527.02 Q1285.97 1525.99 1286.65 1524.47 Q1287.36 1522.93 1288.33 1521.54 Q1289.29 1520.12 1290.81 1519.13 Q1292.35 1518.13 1294.12 1518.13 Q1296.54 1518.13 1298.02 1519.71 Q1299.53 1521.25 1299.53 1523.54 Q1299.53 1524.47 1299.28 1525.31 Q1299.05 1526.11 1298.21 1528.27 Q1294.83 1536.97 1294.83 1541.22 Q1294.83 1542.25 1294.99 1543.12 Q1295.19 1543.96 1295.6 1544.79 Q1296.02 1545.6 1296.86 1546.08 Q1297.73 1546.53 1298.92 1546.53 Q1300.44 1546.53 1301.85 1545.82 Q1303.3 1545.08 1304.2 1544.09 Q1305.14 1543.09 1305.68 1542.25 Q1306.26 1541.38 1306.39 1540.93 L1309.36 1529.08 L1310.68 1523.8 Q1311.29 1520.93 1311.58 1520.22 Q1311.96 1519.54 1312.64 1519.19 Q1313.32 1518.84 1313.9 1518.84 Q1314.7 1518.84 1315.25 1519.32 Q1315.83 1519.8 1315.83 1520.64 Z" fill="#000000" fill-rule="nonzero" fill-opacity="1" /><polyline clip-path="url(#clip390)" style="stroke:#000000; stroke-linecap:round; stroke-linejoin:round; stroke-width:4; stroke-opacity:1; fill:none" points="250.028,1423.18 250.028,123.472 "/>
<polyline clip-path="url(#clip390)" style="stroke:#000000; stroke-linecap:round; stroke-linejoin:round; stroke-width:4; stroke-opacity:1; fill:none" points="250.028,1387.07 268.926,1387.07 "/>
<polyline clip-path="url(#clip390)" style="stroke:#000000; stroke-linecap:round; stroke-linejoin:round; stroke-width:4; stroke-opacity:1; fill:none" points="250.028,1097.71 268.926,1097.71 "/>
<polyline clip-path="url(#clip390)" style="stroke:#000000; stroke-linecap:round; stroke-linejoin:round; stroke-width:4; stroke-opacity:1; fill:none" points="250.028,808.356 268.926,808.356 "/>
<polyline clip-path="url(#clip390)" style="stroke:#000000; stroke-linecap:round; stroke-linejoin:round; stroke-width:4; stroke-opacity:1; fill:none" points="250.028,518.999 268.926,518.999 "/>
<polyline clip-path="url(#clip390)" style="stroke:#000000; stroke-linecap:round; stroke-linejoin:round; stroke-width:4; stroke-opacity:1; fill:none" points="250.028,229.642 268.926,229.642 "/>
<path clip-path="url(#clip390)" d="M126.691 1372.87 Q123.08 1372.87 121.251 1376.43 Q119.445 1379.98 119.445 1387.11 Q119.445 1394.21 121.251 1397.78 Q123.08 1401.32 126.691 1401.32 Q130.325 1401.32 132.13 1397.78 Q133.959 1394.21 133.959 1387.11 Q133.959 1379.98 132.13 1376.43 Q130.325 1372.87 126.691 1372.87 M126.691 1369.17 Q132.501 1369.17 135.556 1373.77 Q138.635 1378.36 138.635 1387.11 Q138.635 1395.83 135.556 1400.44 Q132.501 1405.02 126.691 1405.02 Q120.88 1405.02 117.802 1400.44 Q114.746 1395.83 114.746 1387.11 Q114.746 1378.36 117.802 1373.77 Q120.88 1369.17 126.691 1369.17 Z" fill="#000000" fill-rule="nonzero" fill-opacity="1" /><path clip-path="url(#clip390)" d="M146.853 1398.47 L151.737 1398.47 L151.737 1404.35 L146.853 1404.35 L146.853 1398.47 Z" fill="#000000" fill-rule="nonzero" fill-opacity="1" /><path clip-path="url(#clip390)" d="M171.922 1372.87 Q168.311 1372.87 166.482 1376.43 Q164.677 1379.98 164.677 1387.11 Q164.677 1394.21 166.482 1397.78 Q168.311 1401.32 171.922 1401.32 Q175.556 1401.32 177.362 1397.78 Q179.19 1394.21 179.19 1387.11 Q179.19 1379.98 177.362 1376.43 Q175.556 1372.87 171.922 1372.87 M171.922 1369.17 Q177.732 1369.17 180.788 1373.77 Q183.866 1378.36 183.866 1387.11 Q183.866 1395.83 180.788 1400.44 Q177.732 1405.02 171.922 1405.02 Q166.112 1405.02 163.033 1400.44 Q159.978 1395.83 159.978 1387.11 Q159.978 1378.36 163.033 1373.77 Q166.112 1369.17 171.922 1369.17 Z" fill="#000000" fill-rule="nonzero" fill-opacity="1" /><path clip-path="url(#clip390)" d="M202.084 1372.87 Q198.473 1372.87 196.644 1376.43 Q194.838 1379.98 194.838 1387.11 Q194.838 1394.21 196.644 1397.78 Q198.473 1401.32 202.084 1401.32 Q205.718 1401.32 207.524 1397.78 Q209.352 1394.21 209.352 1387.11 Q209.352 1379.98 207.524 1376.43 Q205.718 1372.87 202.084 1372.87 M202.084 1369.17 Q207.894 1369.17 210.949 1373.77 Q214.028 1378.36 214.028 1387.11 Q214.028 1395.83 210.949 1400.44 Q207.894 1405.02 202.084 1405.02 Q196.274 1405.02 193.195 1400.44 Q190.139 1395.83 190.139 1387.11 Q190.139 1378.36 193.195 1373.77 Q196.274 1369.17 202.084 1369.17 Z" fill="#000000" fill-rule="nonzero" fill-opacity="1" /><path clip-path="url(#clip390)" d="M128.288 1083.51 Q124.677 1083.51 122.848 1087.08 Q121.043 1090.62 121.043 1097.75 Q121.043 1104.85 122.848 1108.42 Q124.677 1111.96 128.288 1111.96 Q131.922 1111.96 133.728 1108.42 Q135.556 1104.85 135.556 1097.75 Q135.556 1090.62 133.728 1087.08 Q131.922 1083.51 128.288 1083.51 M128.288 1079.81 Q134.098 1079.81 137.154 1084.42 Q140.232 1089 140.232 1097.75 Q140.232 1106.48 137.154 1111.08 Q134.098 1115.67 128.288 1115.67 Q122.478 1115.67 119.399 1111.08 Q116.343 1106.48 116.343 1097.75 Q116.343 1089 119.399 1084.42 Q122.478 1079.81 128.288 1079.81 Z" fill="#000000" fill-rule="nonzero" fill-opacity="1" /><path clip-path="url(#clip390)" d="M148.45 1109.11 L153.334 1109.11 L153.334 1114.99 L148.45 1114.99 L148.45 1109.11 Z" fill="#000000" fill-rule="nonzero" fill-opacity="1" /><path clip-path="url(#clip390)" d="M173.519 1083.51 Q169.908 1083.51 168.079 1087.08 Q166.274 1090.62 166.274 1097.75 Q166.274 1104.85 168.079 1108.42 Q169.908 1111.96 173.519 1111.96 Q177.153 1111.96 178.959 1108.42 Q180.788 1104.85 180.788 1097.75 Q180.788 1090.62 178.959 1087.08 Q177.153 1083.51 173.519 1083.51 M173.519 1079.81 Q179.329 1079.81 182.385 1084.42 Q185.463 1089 185.463 1097.75 Q185.463 1106.48 182.385 1111.08 Q179.329 1115.67 173.519 1115.67 Q167.709 1115.67 164.63 1111.08 Q161.575 1106.48 161.575 1097.75 Q161.575 1089 164.63 1084.42 Q167.709 1079.81 173.519 1079.81 Z" fill="#000000" fill-rule="nonzero" fill-opacity="1" /><path clip-path="url(#clip390)" d="M197.709 1111.06 L214.028 1111.06 L214.028 1114.99 L192.084 1114.99 L192.084 1111.06 Q194.746 1108.3 199.329 1103.67 Q203.936 1099.02 205.116 1097.68 Q207.362 1095.16 208.241 1093.42 Q209.144 1091.66 209.144 1089.97 Q209.144 1087.22 207.199 1085.48 Q205.278 1083.74 202.176 1083.74 Q199.977 1083.74 197.524 1084.51 Q195.093 1085.27 192.315 1086.82 L192.315 1082.1 Q195.139 1080.97 197.593 1080.39 Q200.047 1079.81 202.084 1079.81 Q207.454 1079.81 210.649 1082.49 Q213.843 1085.18 213.843 1089.67 Q213.843 1091.8 213.033 1093.72 Q212.246 1095.62 210.139 1098.21 Q209.561 1098.88 206.459 1102.1 Q203.357 1105.29 197.709 1111.06 Z" fill="#000000" fill-rule="nonzero" fill-opacity="1" /><path clip-path="url(#clip390)" d="M126.205 794.155 Q122.593 794.155 120.765 797.72 Q118.959 801.262 118.959 808.391 Q118.959 815.498 120.765 819.062 Q122.593 822.604 126.205 822.604 Q129.839 822.604 131.644 819.062 Q133.473 815.498 133.473 808.391 Q133.473 801.262 131.644 797.72 Q129.839 794.155 126.205 794.155 M126.205 790.451 Q132.015 790.451 135.07 795.058 Q138.149 799.641 138.149 808.391 Q138.149 817.118 135.07 821.724 Q132.015 826.308 126.205 826.308 Q120.394 826.308 117.316 821.724 Q114.26 817.118 114.26 808.391 Q114.26 799.641 117.316 795.058 Q120.394 790.451 126.205 790.451 Z" fill="#000000" fill-rule="nonzero" fill-opacity="1" /><path clip-path="url(#clip390)" d="M146.366 819.757 L151.251 819.757 L151.251 825.636 L146.366 825.636 L146.366 819.757 Z" fill="#000000" fill-rule="nonzero" fill-opacity="1" /><path clip-path="url(#clip390)" d="M171.436 794.155 Q167.825 794.155 165.996 797.72 Q164.19 801.262 164.19 808.391 Q164.19 815.498 165.996 819.062 Q167.825 822.604 171.436 822.604 Q175.07 822.604 176.876 819.062 Q178.704 815.498 178.704 808.391 Q178.704 801.262 176.876 797.72 Q175.07 794.155 171.436 794.155 M171.436 790.451 Q177.246 790.451 180.301 795.058 Q183.38 799.641 183.38 808.391 Q183.38 817.118 180.301 821.724 Q177.246 826.308 171.436 826.308 Q165.626 826.308 162.547 821.724 Q159.491 817.118 159.491 808.391 Q159.491 799.641 162.547 795.058 Q165.626 790.451 171.436 790.451 Z" fill="#000000" fill-rule="nonzero" fill-opacity="1" /><path clip-path="url(#clip390)" d="M204.445 795.15 L192.639 813.599 L204.445 813.599 L204.445 795.15 M203.218 791.076 L209.098 791.076 L209.098 813.599 L214.028 813.599 L214.028 817.488 L209.098 817.488 L209.098 825.636 L204.445 825.636 L204.445 817.488 L188.843 817.488 L188.843 812.974 L203.218 791.076 Z" fill="#000000" fill-rule="nonzero" fill-opacity="1" /><path clip-path="url(#clip390)" d="M126.529 504.798 Q122.918 504.798 121.089 508.363 Q119.283 511.904 119.283 519.034 Q119.283 526.14 121.089 529.705 Q122.918 533.247 126.529 533.247 Q130.163 533.247 131.968 529.705 Q133.797 526.14 133.797 519.034 Q133.797 511.904 131.968 508.363 Q130.163 504.798 126.529 504.798 M126.529 501.094 Q132.339 501.094 135.394 505.701 Q138.473 510.284 138.473 519.034 Q138.473 527.761 135.394 532.367 Q132.339 536.95 126.529 536.95 Q120.718 536.95 117.64 532.367 Q114.584 527.761 114.584 519.034 Q114.584 510.284 117.64 505.701 Q120.718 501.094 126.529 501.094 Z" fill="#000000" fill-rule="nonzero" fill-opacity="1" /><path clip-path="url(#clip390)" d="M146.691 530.399 L151.575 530.399 L151.575 536.279 L146.691 536.279 L146.691 530.399 Z" fill="#000000" fill-rule="nonzero" fill-opacity="1" /><path clip-path="url(#clip390)" d="M171.76 504.798 Q168.149 504.798 166.32 508.363 Q164.515 511.904 164.515 519.034 Q164.515 526.14 166.32 529.705 Q168.149 533.247 171.76 533.247 Q175.394 533.247 177.2 529.705 Q179.028 526.14 179.028 519.034 Q179.028 511.904 177.2 508.363 Q175.394 504.798 171.76 504.798 M171.76 501.094 Q177.57 501.094 180.626 505.701 Q183.704 510.284 183.704 519.034 Q183.704 527.761 180.626 532.367 Q177.57 536.95 171.76 536.95 Q165.95 536.95 162.871 532.367 Q159.815 527.761 159.815 519.034 Q159.815 510.284 162.871 505.701 Q165.95 501.094 171.76 501.094 Z" fill="#000000" fill-rule="nonzero" fill-opacity="1" /><path clip-path="url(#clip390)" d="M202.5 517.136 Q199.352 517.136 197.5 519.288 Q195.672 521.441 195.672 525.191 Q195.672 528.918 197.5 531.094 Q199.352 533.247 202.5 533.247 Q205.649 533.247 207.477 531.094 Q209.329 528.918 209.329 525.191 Q209.329 521.441 207.477 519.288 Q205.649 517.136 202.5 517.136 M211.783 502.483 L211.783 506.742 Q210.024 505.909 208.218 505.469 Q206.436 505.029 204.676 505.029 Q200.047 505.029 197.593 508.154 Q195.163 511.279 194.815 517.599 Q196.181 515.585 198.241 514.52 Q200.301 513.432 202.778 513.432 Q207.987 513.432 210.996 516.603 Q214.028 519.751 214.028 525.191 Q214.028 530.515 210.88 533.733 Q207.732 536.95 202.5 536.95 Q196.505 536.95 193.334 532.367 Q190.163 527.761 190.163 519.034 Q190.163 510.839 194.051 505.978 Q197.94 501.094 204.491 501.094 Q206.25 501.094 208.033 501.441 Q209.838 501.789 211.783 502.483 Z" fill="#000000" fill-rule="nonzero" fill-opacity="1" /><path clip-path="url(#clip390)" d="M126.783 215.44 Q123.172 215.44 121.343 219.005 Q119.538 222.547 119.538 229.676 Q119.538 236.783 121.343 240.348 Q123.172 243.889 126.783 243.889 Q130.417 243.889 132.223 240.348 Q134.052 236.783 134.052 229.676 Q134.052 222.547 132.223 219.005 Q130.417 215.44 126.783 215.44 M126.783 211.737 Q132.593 211.737 135.649 216.343 Q138.728 220.927 138.728 229.676 Q138.728 238.403 135.649 243.01 Q132.593 247.593 126.783 247.593 Q120.973 247.593 117.894 243.01 Q114.839 238.403 114.839 229.676 Q114.839 220.927 117.894 216.343 Q120.973 211.737 126.783 211.737 Z" fill="#000000" fill-rule="nonzero" fill-opacity="1" /><path clip-path="url(#clip390)" d="M146.945 241.042 L151.829 241.042 L151.829 246.922 L146.945 246.922 L146.945 241.042 Z" fill="#000000" fill-rule="nonzero" fill-opacity="1" /><path clip-path="url(#clip390)" d="M172.014 215.44 Q168.403 215.44 166.575 219.005 Q164.769 222.547 164.769 229.676 Q164.769 236.783 166.575 240.348 Q168.403 243.889 172.014 243.889 Q175.649 243.889 177.454 240.348 Q179.283 236.783 179.283 229.676 Q179.283 222.547 177.454 219.005 Q175.649 215.44 172.014 215.44 M172.014 211.737 Q177.825 211.737 180.88 216.343 Q183.959 220.927 183.959 229.676 Q183.959 238.403 180.88 243.01 Q177.825 247.593 172.014 247.593 Q166.204 247.593 163.126 243.01 Q160.07 238.403 160.07 229.676 Q160.07 220.927 163.126 216.343 Q166.204 211.737 172.014 211.737 Z" fill="#000000" fill-rule="nonzero" fill-opacity="1" /><path clip-path="url(#clip390)" d="M202.176 230.51 Q198.843 230.51 196.922 232.292 Q195.024 234.075 195.024 237.2 Q195.024 240.325 196.922 242.107 Q198.843 243.889 202.176 243.889 Q205.51 243.889 207.431 242.107 Q209.352 240.301 209.352 237.2 Q209.352 234.075 207.431 232.292 Q205.533 230.51 202.176 230.51 M197.5 228.519 Q194.491 227.778 192.801 225.718 Q191.135 223.658 191.135 220.695 Q191.135 216.552 194.075 214.144 Q197.037 211.737 202.176 211.737 Q207.338 211.737 210.278 214.144 Q213.218 216.552 213.218 220.695 Q213.218 223.658 211.528 225.718 Q209.861 227.778 206.875 228.519 Q210.255 229.306 212.13 231.598 Q214.028 233.889 214.028 237.2 Q214.028 242.223 210.949 244.908 Q207.894 247.593 202.176 247.593 Q196.459 247.593 193.38 244.908 Q190.325 242.223 190.325 237.2 Q190.325 233.889 192.223 231.598 Q194.121 229.306 197.5 228.519 M195.787 221.135 Q195.787 223.82 197.454 225.325 Q199.144 226.829 202.176 226.829 Q205.186 226.829 206.875 225.325 Q208.588 223.82 208.588 221.135 Q208.588 218.45 206.875 216.945 Q205.186 215.44 202.176 215.44 Q199.144 215.44 197.454 216.945 Q195.787 218.45 195.787 221.135 Z" fill="#000000" fill-rule="nonzero" fill-opacity="1" /><path clip-path="url(#clip390)" d="M41.5432 799.903 Q43.4756 799.903 46.8572 800.644 Q50.2388 801.353 51.8491 801.932 Q56.1325 803.543 59.7395 806.763 Q61.7363 808.535 63.1856 810.467 Q64.6026 812.367 65.3112 813.784 Q65.9875 815.201 66.3417 816.876 Q66.7282 818.551 66.7604 819.323 Q66.8248 820.096 66.8248 821.191 L76.6476 823.703 Q79.1919 824.219 79.3529 824.476 Q79.4817 824.541 79.5461 824.702 Q79.6106 824.831 79.6106 824.96 L79.6106 825.088 Q79.6106 825.443 79.4495 825.636 Q79.2885 825.829 79.0953 825.861 L78.9342 825.861 Q78.4834 825.861 72.6863 824.348 Q69.7234 823.575 66.6638 822.898 Q66.3417 828.051 64.0551 831.24 Q61.7685 834.396 57.3241 834.396 Q54.5866 834.396 46.1809 831.207 Q42.1551 829.694 40.4804 829.694 Q39.7397 829.694 39.2888 829.855 Q38.8057 830.016 38.6447 830.338 Q38.4515 830.66 38.4193 830.853 Q38.3871 831.014 38.3871 831.336 Q38.3871 833.236 40.2872 835.008 Q42.1873 836.779 46.5673 838.003 Q47.3725 838.261 47.5657 838.422 Q47.759 838.583 47.759 839.066 Q47.7268 839.871 47.0826 839.871 Q46.825 839.871 45.8266 839.581 Q44.796 839.291 43.2823 838.615 Q41.7365 837.906 40.3516 836.94 Q38.9346 835.974 37.9362 834.46 Q36.9378 832.914 36.9378 831.143 Q36.9378 828.728 38.5159 827.246 Q40.0618 825.732 42.3484 825.732 Q42.7993 825.732 43.3146 825.829 Q43.8298 825.926 44.1197 826.022 Q44.4096 826.087 44.957 826.28 Q45.4723 826.441 45.569 826.473 Q49.8201 828.116 52.5898 828.953 Q55.3273 829.79 56.1325 829.919 Q56.9054 830.016 57.8394 830.016 Q64.345 830.016 65.2145 822.512 L21.64 811.562 Q20.7382 811.369 20.545 811.208 Q20.3196 811.047 20.3196 810.563 Q20.3196 809.791 21.0281 809.791 Q21.2535 809.791 22.0265 809.984 L65.3434 820.869 Q65.3434 819.839 65.3112 819.195 Q65.2789 818.551 64.9891 817.198 Q64.667 815.813 64.0873 814.654 Q63.5076 813.462 62.3482 811.787 Q61.1566 810.113 59.4819 808.47 Q57.3885 806.409 53.8781 804.573 Q50.3676 802.737 47.4691 802.737 Q44.2163 802.737 41.8653 805.089 Q41.5432 805.443 41.35 805.636 Q41.1568 805.797 40.8347 805.958 Q40.5126 806.087 40.094 806.087 Q38.999 806.087 37.9684 805.056 Q36.9378 804.026 36.9378 802.802 Q36.9378 801.707 38.0006 800.805 Q39.0634 799.903 41.5432 799.903 Z" fill="#000000" fill-rule="nonzero" fill-opacity="1" /><path clip-path="url(#clip390)" d="M49.5947 789.166 Q38.4515 789.166 29.466 785.012 Q25.6979 783.24 22.5418 780.76 Q19.3856 778.281 18.0007 776.638 Q16.6159 774.996 16.6159 774.545 Q16.6159 773.901 17.26 773.868 Q17.5821 773.868 18.3872 774.738 Q29.2084 785.366 49.5947 785.334 Q70.0454 785.334 80.4479 774.996 Q81.5751 773.868 81.9294 773.868 Q82.5735 773.868 82.5735 774.545 Q82.5735 774.996 81.2531 776.574 Q79.9326 778.152 76.9053 780.599 Q73.8779 783.047 70.1742 784.818 Q61.1888 789.166 49.5947 789.166 Z" fill="#000000" fill-rule="nonzero" fill-opacity="1" /><path clip-path="url(#clip390)" d="M39.4498 738.42 Q39.9007 738.42 40.9635 738.71 L66.1485 745.022 Q71.7523 746.407 75.6814 750.916 Q79.6106 755.393 79.6106 760.481 Q79.6106 763.541 77.9681 765.505 Q76.3578 767.47 73.8779 767.47 Q71.6879 767.47 70.6251 766.31 Q69.5945 765.151 69.5945 763.766 Q69.5945 763.315 69.7234 762.832 Q69.8522 762.349 70.3997 761.834 Q70.9472 761.319 71.8812 761.319 Q73.3948 761.319 74.5864 762.639 Q75.1339 763.283 75.2628 763.895 Q75.3916 764.475 75.3916 765.473 Q76.2934 765.087 76.9053 764.378 Q77.5172 763.67 77.7426 762.864 Q78.0003 762.059 78.0647 761.544 Q78.1613 760.997 78.1613 760.481 Q78.1613 756.359 74.0067 753.203 Q72.7507 752.269 71.4947 751.592 Q70.2709 750.884 68.7572 750.369 Q67.2757 749.853 66.4706 749.628 Q65.6654 749.37 63.8297 748.919 Q66.8248 751.914 66.8248 755.586 Q66.8248 757.132 66.4062 758.517 Q65.9875 759.869 65.1179 761.061 Q64.2162 762.253 62.6381 762.961 Q61.06 763.637 58.9666 763.637 Q56.7444 763.637 53.717 762.768 Q50.6897 761.898 45.1181 759.805 Q41.9941 758.678 40.4804 758.678 Q39.7397 758.678 39.2888 758.839 Q38.8057 759 38.6447 759.322 Q38.4515 759.644 38.4193 759.837 Q38.3871 759.998 38.3871 760.32 Q38.3871 762.22 40.3194 763.992 Q42.2518 765.763 46.5673 766.987 Q47.3725 767.244 47.5657 767.405 Q47.759 767.566 47.759 768.05 Q47.7268 768.855 47.0826 768.855 Q46.825 768.855 45.8266 768.565 Q44.796 768.275 43.2823 767.599 Q41.7365 766.89 40.3516 765.924 Q38.9346 764.958 37.9362 763.444 Q36.9378 761.898 36.9378 760.127 Q36.9378 757.712 38.5159 756.23 Q40.0618 754.716 42.3484 754.716 Q43.2823 754.716 44.1197 754.974 Q44.9248 755.199 47.0826 756.037 Q55.7782 759.418 60.0294 759.418 Q61.06 759.418 61.9295 759.257 Q62.7669 759.064 63.6042 758.645 Q64.4094 758.227 64.8925 757.389 Q65.3434 756.52 65.3434 755.328 Q65.3434 753.815 64.6348 752.398 Q63.8941 750.948 62.8957 750.047 Q61.8973 749.113 61.06 748.565 Q60.1904 747.985 59.7395 747.857 L47.8878 744.894 L42.606 743.573 Q39.7397 742.961 39.0312 742.671 Q38.3548 742.285 38.0006 741.609 Q37.6463 740.932 37.6463 740.353 Q37.6463 739.547 38.1294 739 Q38.6125 738.42 39.4498 738.42 Z" fill="#000000" fill-rule="nonzero" fill-opacity="1" /><path clip-path="url(#clip390)" d="M81.9294 732.109 Q81.6073 732.109 80.8022 731.271 Q69.981 720.643 49.5947 720.643 Q29.144 720.643 18.8059 730.853 Q17.6143 732.109 17.26 732.109 Q16.6159 732.109 16.6159 731.464 Q16.6159 731.014 17.9363 729.435 Q19.2568 727.825 22.2841 725.41 Q25.3115 722.962 29.0151 721.159 Q38.0006 716.811 49.5947 716.811 Q60.7379 716.811 69.7234 720.965 Q73.4914 722.737 76.6476 725.216 Q79.8038 727.696 81.1886 729.339 Q82.5735 730.981 82.5735 731.464 Q82.5735 732.109 81.9294 732.109 Z" fill="#000000" fill-rule="nonzero" fill-opacity="1" /><path clip-path="url(#clip390)" d="M532.247 12.096 L567.004 12.096 L567.004 18.9825 L540.43 18.9825 L540.43 36.8065 L564.411 36.8065 L564.411 43.6931 L540.43 43.6931 L540.43 72.576 L532.247 72.576 L532.247 12.096 Z" fill="#000000" fill-rule="nonzero" fill-opacity="1" /><path clip-path="url(#clip390)" d="M574.336 54.671 L574.336 27.2059 L581.789 27.2059 L581.789 54.3874 Q581.789 60.8284 584.301 64.0691 Q586.813 67.2693 591.836 67.2693 Q597.871 67.2693 601.355 63.421 Q604.88 59.5726 604.88 52.9291 L604.88 27.2059 L612.333 27.2059 L612.333 72.576 L604.88 72.576 L604.88 65.6084 Q602.165 69.7404 598.56 71.7658 Q594.995 73.7508 590.256 73.7508 Q582.438 73.7508 578.387 68.8897 Q574.336 64.0286 574.336 54.671 M593.091 26.1121 L593.091 26.1121 Z" fill="#000000" fill-rule="nonzero" fill-opacity="1" /><path clip-path="url(#clip390)" d="M665.4 45.1919 L665.4 72.576 L657.946 72.576 L657.946 45.4349 Q657.946 38.994 655.435 35.7938 Q652.923 32.5936 647.9 32.5936 Q641.864 32.5936 638.381 36.4419 Q634.897 40.2903 634.897 46.9338 L634.897 72.576 L627.403 72.576 L627.403 27.2059 L634.897 27.2059 L634.897 34.2544 Q637.57 30.163 641.176 28.1376 Q644.821 26.1121 649.561 26.1121 Q657.379 26.1121 661.39 30.9732 Q665.4 35.7938 665.4 45.1919 Z" fill="#000000" fill-rule="nonzero" fill-opacity="1" /><path clip-path="url(#clip390)" d="M710.122 49.3643 Q710.122 41.2625 706.76 36.8065 Q703.438 32.3505 697.402 32.3505 Q691.407 32.3505 688.045 36.8065 Q684.723 41.2625 684.723 49.3643 Q684.723 57.4256 688.045 61.8816 Q691.407 66.3376 697.402 66.3376 Q703.438 66.3376 706.76 61.8816 Q710.122 57.4256 710.122 49.3643 M717.576 66.9452 Q717.576 78.5308 712.431 84.1616 Q707.286 89.8329 696.673 89.8329 Q692.744 89.8329 689.26 89.2252 Q685.776 88.6581 682.495 87.4428 L682.495 80.1917 Q685.776 81.9741 688.976 82.8248 Q692.177 83.6755 695.498 83.6755 Q702.83 83.6755 706.476 79.8271 Q710.122 76.0193 710.122 68.282 L710.122 64.5957 Q707.813 68.6061 704.208 70.5911 Q700.602 72.576 695.579 72.576 Q687.234 72.576 682.13 66.2161 Q677.026 59.8562 677.026 49.3643 Q677.026 38.832 682.13 32.472 Q687.234 26.1121 695.579 26.1121 Q700.602 26.1121 704.208 28.0971 Q707.813 30.082 710.122 34.0924 L710.122 27.2059 L717.576 27.2059 L717.576 66.9452 Z" fill="#000000" fill-rule="nonzero" fill-opacity="1" /><path clip-path="url(#clip390)" d="M761.852 28.5427 L761.852 35.5912 Q758.692 33.9709 755.29 33.1607 Q751.887 32.3505 748.241 32.3505 Q742.691 32.3505 739.896 34.0519 Q737.142 35.7533 737.142 39.156 Q737.142 41.7486 739.127 43.2475 Q741.111 44.7058 747.107 46.0426 L749.659 46.6097 Q757.599 48.3111 760.92 51.4303 Q764.283 54.509 764.283 60.0587 Q764.283 66.3781 759.26 70.0644 Q754.277 73.7508 745.527 73.7508 Q741.881 73.7508 737.911 73.0216 Q733.982 72.3329 729.607 70.9151 L729.607 63.2184 Q733.739 65.3654 737.749 66.4591 Q741.76 67.5124 745.689 67.5124 Q750.955 67.5124 753.791 65.73 Q756.626 63.9071 756.626 60.6258 Q756.626 57.5877 754.56 55.9673 Q752.535 54.3469 745.608 52.8481 L743.015 52.2405 Q736.088 50.7821 733.01 47.7845 Q729.931 44.7463 729.931 39.4801 Q729.931 33.0797 734.468 29.5959 Q739.005 26.1121 747.35 26.1121 Q751.482 26.1121 755.128 26.7198 Q758.773 27.3274 761.852 28.5427 Z" fill="#000000" fill-rule="nonzero" fill-opacity="1" /><path clip-path="url(#clip390)" d="M776.152 27.2059 L783.605 27.2059 L783.605 72.576 L776.152 72.576 L776.152 27.2059 M776.152 9.54393 L783.605 9.54393 L783.605 18.9825 L776.152 18.9825 L776.152 9.54393 Z" fill="#000000" fill-rule="nonzero" fill-opacity="1" /><path clip-path="url(#clip390)" d="M867.135 63.9476 L867.135 47.7034 L853.767 47.7034 L853.767 40.9789 L875.237 40.9789 L875.237 66.9452 Q870.497 70.3075 864.786 72.0494 Q859.074 73.7508 852.592 73.7508 Q838.414 73.7508 830.393 65.4869 Q822.413 57.1826 822.413 42.3968 Q822.413 27.5705 830.393 19.3066 Q838.414 11.0023 852.592 11.0023 Q858.507 11.0023 863.813 12.4606 Q869.161 13.9189 873.657 16.7545 L873.657 25.464 Q869.12 21.6156 864.016 19.6712 Q858.912 17.7268 853.281 17.7268 Q842.182 17.7268 836.591 23.9246 Q831.042 30.1225 831.042 42.3968 Q831.042 54.6305 836.591 60.8284 Q842.182 67.0263 853.281 67.0263 Q857.615 67.0263 861.018 66.2971 Q864.421 65.5274 867.135 63.9476 Z" fill="#000000" fill-rule="nonzero" fill-opacity="1" /><path clip-path="url(#clip390)" d="M928.668 48.0275 L928.668 51.6733 L894.398 51.6733 Q894.884 59.3701 899.016 63.421 Q903.188 67.4314 910.601 67.4314 Q914.895 67.4314 918.906 66.3781 Q922.957 65.3249 926.926 63.2184 L926.926 70.267 Q922.916 71.9684 918.703 72.8596 Q914.49 73.7508 910.156 73.7508 Q899.299 73.7508 892.939 67.4314 Q886.62 61.1119 886.62 50.3365 Q886.62 39.1965 892.615 32.6746 Q898.651 26.1121 908.859 26.1121 Q918.014 26.1121 923.321 32.0264 Q928.668 37.9003 928.668 48.0275 M921.215 45.84 Q921.134 39.7232 917.771 36.0774 Q914.45 32.4315 908.94 32.4315 Q902.702 32.4315 898.935 35.9558 Q895.208 39.4801 894.641 45.8805 L921.215 45.84 Z" fill="#000000" fill-rule="nonzero" fill-opacity="1" /><path clip-path="url(#clip390)" d="M940.902 9.54393 L948.356 9.54393 L948.356 72.576 L940.902 72.576 L940.902 9.54393 Z" fill="#000000" fill-rule="nonzero" fill-opacity="1" /><path clip-path="url(#clip390)" d="M981.533 32.4315 Q975.537 32.4315 972.054 37.1306 Q968.57 41.7891 968.57 49.9314 Q968.57 58.0738 972.013 62.7728 Q975.497 67.4314 981.533 67.4314 Q987.487 67.4314 990.971 62.7323 Q994.455 58.0333 994.455 49.9314 Q994.455 41.8701 990.971 37.1711 Q987.487 32.4315 981.533 32.4315 M981.533 26.1121 Q991.255 26.1121 996.805 32.4315 Q1002.35 38.7509 1002.35 49.9314 Q1002.35 61.0714 996.805 67.4314 Q991.255 73.7508 981.533 73.7508 Q971.77 73.7508 966.22 67.4314 Q960.711 61.0714 960.711 49.9314 Q960.711 38.7509 966.22 32.4315 Q971.77 26.1121 981.533 26.1121 Z" fill="#000000" fill-rule="nonzero" fill-opacity="1" /><path clip-path="url(#clip390)" d="M1050.03 35.9153 Q1052.83 30.8922 1056.72 28.5022 Q1060.61 26.1121 1065.87 26.1121 Q1072.96 26.1121 1076.81 31.0947 Q1080.66 36.0368 1080.66 45.1919 L1080.66 72.576 L1073.16 72.576 L1073.16 45.4349 Q1073.16 38.913 1070.86 35.7533 Q1068.55 32.5936 1063.81 32.5936 Q1058.01 32.5936 1054.65 36.4419 Q1051.29 40.2903 1051.29 46.9338 L1051.29 72.576 L1043.8 72.576 L1043.8 45.4349 Q1043.8 38.8725 1041.49 35.7533 Q1039.18 32.5936 1034.36 32.5936 Q1028.64 32.5936 1025.28 36.4824 Q1021.92 40.3308 1021.92 46.9338 L1021.92 72.576 L1014.43 72.576 L1014.43 27.2059 L1021.92 27.2059 L1021.92 34.2544 Q1024.47 30.082 1028.04 28.0971 Q1031.6 26.1121 1036.5 26.1121 Q1041.45 26.1121 1044.89 28.6237 Q1048.37 31.1352 1050.03 35.9153 Z" fill="#000000" fill-rule="nonzero" fill-opacity="1" /><path clip-path="url(#clip390)" d="M1128.09 49.9314 Q1128.09 41.7081 1124.69 37.0496 Q1121.33 32.3505 1115.42 32.3505 Q1109.5 32.3505 1106.1 37.0496 Q1102.74 41.7081 1102.74 49.9314 Q1102.74 58.1548 1106.1 62.8538 Q1109.5 67.5124 1115.42 67.5124 Q1121.33 67.5124 1124.69 62.8538 Q1128.09 58.1548 1128.09 49.9314 M1102.74 34.0924 Q1105.09 30.0415 1108.65 28.0971 Q1112.26 26.1121 1117.24 26.1121 Q1125.5 26.1121 1130.65 32.6746 Q1135.83 39.2371 1135.83 49.9314 Q1135.83 60.6258 1130.65 67.1883 Q1125.5 73.7508 1117.24 73.7508 Q1112.26 73.7508 1108.65 71.8063 Q1105.09 69.8214 1102.74 65.7705 L1102.74 72.576 L1095.24 72.576 L1095.24 9.54393 L1102.74 9.54393 L1102.74 34.0924 Z" fill="#000000" fill-rule="nonzero" fill-opacity="1" /><path clip-path="url(#clip390)" d="M1168.81 49.7694 Q1159.77 49.7694 1156.29 51.8354 Q1152.8 53.9013 1152.8 58.8839 Q1152.8 62.8538 1155.4 65.2034 Q1158.03 67.5124 1162.53 67.5124 Q1168.72 67.5124 1172.45 63.1374 Q1176.22 58.7219 1176.22 51.4303 L1176.22 49.7694 L1168.81 49.7694 M1183.67 46.6907 L1183.67 72.576 L1176.22 72.576 L1176.22 65.6895 Q1173.67 69.8214 1169.86 71.8063 Q1166.05 73.7508 1160.54 73.7508 Q1153.57 73.7508 1149.44 69.8619 Q1145.35 65.9325 1145.35 59.3701 Q1145.35 51.7138 1150.46 47.825 Q1155.6 43.9361 1165.77 43.9361 L1176.22 43.9361 L1176.22 43.2069 Q1176.22 38.0623 1172.82 35.2672 Q1169.45 32.4315 1163.34 32.4315 Q1159.45 32.4315 1155.76 33.3632 Q1152.08 34.295 1148.67 36.1584 L1148.67 29.2718 Q1152.76 27.692 1156.61 26.9223 Q1160.46 26.1121 1164.11 26.1121 Q1173.95 26.1121 1178.81 31.2163 Q1183.67 36.3204 1183.67 46.6907 Z" fill="#000000" fill-rule="nonzero" fill-opacity="1" /><path clip-path="url(#clip390)" d="M1236.74 45.1919 L1236.74 72.576 L1229.29 72.576 L1229.29 45.4349 Q1229.29 38.994 1226.77 35.7938 Q1224.26 32.5936 1219.24 32.5936 Q1213.2 32.5936 1209.72 36.4419 Q1206.24 40.2903 1206.24 46.9338 L1206.24 72.576 L1198.74 72.576 L1198.74 27.2059 L1206.24 27.2059 L1206.24 34.2544 Q1208.91 30.163 1212.52 28.1376 Q1216.16 26.1121 1220.9 26.1121 Q1228.72 26.1121 1232.73 30.9732 Q1236.74 35.7938 1236.74 45.1919 Z" fill="#000000" fill-rule="nonzero" fill-opacity="1" /><path clip-path="url(#clip390)" d="M1281.46 49.3643 Q1281.46 41.2625 1278.1 36.8065 Q1274.78 32.3505 1268.74 32.3505 Q1262.75 32.3505 1259.38 36.8065 Q1256.06 41.2625 1256.06 49.3643 Q1256.06 57.4256 1259.38 61.8816 Q1262.75 66.3376 1268.74 66.3376 Q1274.78 66.3376 1278.1 61.8816 Q1281.46 57.4256 1281.46 49.3643 M1288.92 66.9452 Q1288.92 78.5308 1283.77 84.1616 Q1278.63 89.8329 1268.01 89.8329 Q1264.08 89.8329 1260.6 89.2252 Q1257.12 88.6581 1253.83 87.4428 L1253.83 80.1917 Q1257.12 81.9741 1260.32 82.8248 Q1263.52 83.6755 1266.84 83.6755 Q1274.17 83.6755 1277.82 79.8271 Q1281.46 76.0193 1281.46 68.282 L1281.46 64.5957 Q1279.15 68.6061 1275.55 70.5911 Q1271.94 72.576 1266.92 72.576 Q1258.57 72.576 1253.47 66.2161 Q1248.37 59.8562 1248.37 49.3643 Q1248.37 38.832 1253.47 32.472 Q1258.57 26.1121 1266.92 26.1121 Q1271.94 26.1121 1275.55 28.0971 Q1279.15 30.082 1281.46 34.0924 L1281.46 27.2059 L1288.92 27.2059 L1288.92 66.9452 Z" fill="#000000" fill-rule="nonzero" fill-opacity="1" /><path clip-path="url(#clip390)" d="M1360.49 34.0924 L1360.49 9.54393 L1367.95 9.54393 L1367.95 72.576 L1360.49 72.576 L1360.49 65.7705 Q1358.15 69.8214 1354.54 71.8063 Q1350.98 73.7508 1345.95 73.7508 Q1337.73 73.7508 1332.54 67.1883 Q1327.4 60.6258 1327.4 49.9314 Q1327.4 39.2371 1332.54 32.6746 Q1337.73 26.1121 1345.95 26.1121 Q1350.98 26.1121 1354.54 28.0971 Q1358.15 30.0415 1360.49 34.0924 M1335.1 49.9314 Q1335.1 58.1548 1338.46 62.8538 Q1341.86 67.5124 1347.77 67.5124 Q1353.69 67.5124 1357.09 62.8538 Q1360.49 58.1548 1360.49 49.9314 Q1360.49 41.7081 1357.09 37.0496 Q1353.69 32.3505 1347.77 32.3505 Q1341.86 32.3505 1338.46 37.0496 Q1335.1 41.7081 1335.1 49.9314 Z" fill="#000000" fill-rule="nonzero" fill-opacity="1" /><path clip-path="url(#clip390)" d="M1403.92 49.7694 Q1394.89 49.7694 1391.4 51.8354 Q1387.92 53.9013 1387.92 58.8839 Q1387.92 62.8538 1390.51 65.2034 Q1393.15 67.5124 1397.64 67.5124 Q1403.84 67.5124 1407.57 63.1374 Q1411.33 58.7219 1411.33 51.4303 L1411.33 49.7694 L1403.92 49.7694 M1418.79 46.6907 L1418.79 72.576 L1411.33 72.576 L1411.33 65.6895 Q1408.78 69.8214 1404.97 71.8063 Q1401.17 73.7508 1395.66 73.7508 Q1388.69 73.7508 1384.56 69.8619 Q1380.47 65.9325 1380.47 59.3701 Q1380.47 51.7138 1385.57 47.825 Q1390.71 43.9361 1400.88 43.9361 L1411.33 43.9361 L1411.33 43.2069 Q1411.33 38.0623 1407.93 35.2672 Q1404.57 32.4315 1398.45 32.4315 Q1394.56 32.4315 1390.88 33.3632 Q1387.19 34.295 1383.79 36.1584 L1383.79 29.2718 Q1387.88 27.692 1391.73 26.9223 Q1395.58 26.1121 1399.22 26.1121 Q1409.07 26.1121 1413.93 31.2163 Q1418.79 36.3204 1418.79 46.6907 Z" fill="#000000" fill-rule="nonzero" fill-opacity="1" /><path clip-path="url(#clip390)" d="M1460.43 34.1734 Q1459.17 33.4443 1457.68 33.1202 Q1456.22 32.7556 1454.44 32.7556 Q1448.12 32.7556 1444.71 36.8875 Q1441.35 40.9789 1441.35 48.6757 L1441.35 72.576 L1433.86 72.576 L1433.86 27.2059 L1441.35 27.2059 L1441.35 34.2544 Q1443.7 30.1225 1447.47 28.1376 Q1451.23 26.1121 1456.62 26.1121 Q1457.39 26.1121 1458.32 26.2337 Q1459.26 26.3147 1460.39 26.5172 L1460.43 34.1734 Z" fill="#000000" fill-rule="nonzero" fill-opacity="1" /><path clip-path="url(#clip390)" d="M1468.25 27.2059 L1475.7 27.2059 L1475.7 72.576 L1468.25 72.576 L1468.25 27.2059 M1468.25 9.54393 L1475.7 9.54393 L1475.7 18.9825 L1468.25 18.9825 L1468.25 9.54393 Z" fill="#000000" fill-rule="nonzero" fill-opacity="1" /><path clip-path="url(#clip390)" d="M1517.99 12.096 L1530.19 12.096 L1545.62 53.2532 L1561.14 12.096 L1573.33 12.096 L1573.33 72.576 L1565.35 72.576 L1565.35 19.4686 L1549.75 60.9499 L1541.53 60.9499 L1525.93 19.4686 L1525.93 72.576 L1517.99 72.576 L1517.99 12.096 Z" fill="#000000" fill-rule="nonzero" fill-opacity="1" /><path clip-path="url(#clip390)" d="M1628.06 48.0275 L1628.06 51.6733 L1593.79 51.6733 Q1594.27 59.3701 1598.4 63.421 Q1602.58 67.4314 1609.99 67.4314 Q1614.28 67.4314 1618.29 66.3781 Q1622.35 65.3249 1626.32 63.2184 L1626.32 70.267 Q1622.3 71.9684 1618.09 72.8596 Q1613.88 73.7508 1609.54 73.7508 Q1598.69 73.7508 1592.33 67.4314 Q1586.01 61.1119 1586.01 50.3365 Q1586.01 39.1965 1592 32.6746 Q1598.04 26.1121 1608.25 26.1121 Q1617.4 26.1121 1622.71 32.0264 Q1628.06 37.9003 1628.06 48.0275 M1620.6 45.84 Q1620.52 39.7232 1617.16 36.0774 Q1613.84 32.4315 1608.33 32.4315 Q1602.09 32.4315 1598.32 35.9558 Q1594.6 39.4801 1594.03 45.8805 L1620.6 45.84 Z" fill="#000000" fill-rule="nonzero" fill-opacity="1" /><path clip-path="url(#clip390)" d="M1647.66 14.324 L1647.66 27.2059 L1663.02 27.2059 L1663.02 32.9987 L1647.66 32.9987 L1647.66 57.6282 Q1647.66 63.1779 1649.16 64.7578 Q1650.7 66.3376 1655.36 66.3376 L1663.02 66.3376 L1663.02 72.576 L1655.36 72.576 Q1646.73 72.576 1643.45 69.3758 Q1640.17 66.1351 1640.17 57.6282 L1640.17 32.9987 L1634.7 32.9987 L1634.7 27.2059 L1640.17 27.2059 L1640.17 14.324 L1647.66 14.324 Z" fill="#000000" fill-rule="nonzero" fill-opacity="1" /><path clip-path="url(#clip390)" d="M1690.4 32.4315 Q1684.41 32.4315 1680.92 37.1306 Q1677.44 41.7891 1677.44 49.9314 Q1677.44 58.0738 1680.88 62.7728 Q1684.36 67.4314 1690.4 67.4314 Q1696.36 67.4314 1699.84 62.7323 Q1703.32 58.0333 1703.32 49.9314 Q1703.32 41.8701 1699.84 37.1711 Q1696.36 32.4315 1690.4 32.4315 M1690.4 26.1121 Q1700.12 26.1121 1705.67 32.4315 Q1711.22 38.7509 1711.22 49.9314 Q1711.22 61.0714 1705.67 67.4314 Q1700.12 73.7508 1690.4 73.7508 Q1680.64 73.7508 1675.09 67.4314 Q1669.58 61.0714 1669.58 49.9314 Q1669.58 38.7509 1675.09 32.4315 Q1680.64 26.1121 1690.4 26.1121 Z" fill="#000000" fill-rule="nonzero" fill-opacity="1" /><path clip-path="url(#clip390)" d="M1753.43 34.0924 L1753.43 9.54393 L1760.89 9.54393 L1760.89 72.576 L1753.43 72.576 L1753.43 65.7705 Q1751.08 69.8214 1747.48 71.8063 Q1743.91 73.7508 1738.89 73.7508 Q1730.67 73.7508 1725.48 67.1883 Q1720.34 60.6258 1720.34 49.9314 Q1720.34 39.2371 1725.48 32.6746 Q1730.67 26.1121 1738.89 26.1121 Q1743.91 26.1121 1747.48 28.0971 Q1751.08 30.0415 1753.43 34.0924 M1728.03 49.9314 Q1728.03 58.1548 1731.4 62.8538 Q1734.8 67.5124 1740.71 67.5124 Q1746.63 67.5124 1750.03 62.8538 Q1753.43 58.1548 1753.43 49.9314 Q1753.43 41.7081 1750.03 37.0496 Q1746.63 32.3505 1740.71 32.3505 Q1734.8 32.3505 1731.4 37.0496 Q1728.03 41.7081 1728.03 49.9314 Z" fill="#000000" fill-rule="nonzero" fill-opacity="1" /><path clip-path="url(#clip390)" d="M1815.05 48.0275 L1815.05 51.6733 L1780.78 51.6733 Q1781.26 59.3701 1785.39 63.421 Q1789.57 67.4314 1796.98 67.4314 Q1801.27 67.4314 1805.28 66.3781 Q1809.33 65.3249 1813.3 63.2184 L1813.3 70.267 Q1809.29 71.9684 1805.08 72.8596 Q1800.87 73.7508 1796.53 73.7508 Q1785.68 73.7508 1779.32 67.4314 Q1773 61.1119 1773 50.3365 Q1773 39.1965 1778.99 32.6746 Q1785.03 26.1121 1795.24 26.1121 Q1804.39 26.1121 1809.7 32.0264 Q1815.05 37.9003 1815.05 48.0275 M1807.59 45.84 Q1807.51 39.7232 1804.15 36.0774 Q1800.83 32.4315 1795.32 32.4315 Q1789.08 32.4315 1785.31 35.9558 Q1781.59 39.4801 1781.02 45.8805 L1807.59 45.84 Z" fill="#000000" fill-rule="nonzero" fill-opacity="1" /><path clip-path="url(#clip390)" d="M1853.98 12.096 L1892.22 12.096 L1892.22 18.9825 L1862.16 18.9825 L1862.16 36.8875 L1890.96 36.8875 L1890.96 43.7741 L1862.16 43.7741 L1862.16 65.6895 L1892.95 65.6895 L1892.95 72.576 L1853.98 72.576 L1853.98 12.096 Z" fill="#000000" fill-rule="nonzero" fill-opacity="1" /><path clip-path="url(#clip390)" d="M1906.07 27.2059 L1913.52 27.2059 L1913.52 72.576 L1906.07 72.576 L1906.07 27.2059 M1906.07 9.54393 L1913.52 9.54393 L1913.52 18.9825 L1906.07 18.9825 L1906.07 9.54393 Z" fill="#000000" fill-rule="nonzero" fill-opacity="1" /><path clip-path="url(#clip390)" d="M1958.98 49.3643 Q1958.98 41.2625 1955.61 36.8065 Q1952.29 32.3505 1946.26 32.3505 Q1940.26 32.3505 1936.9 36.8065 Q1933.58 41.2625 1933.58 49.3643 Q1933.58 57.4256 1936.9 61.8816 Q1940.26 66.3376 1946.26 66.3376 Q1952.29 66.3376 1955.61 61.8816 Q1958.98 57.4256 1958.98 49.3643 M1966.43 66.9452 Q1966.43 78.5308 1961.28 84.1616 Q1956.14 89.8329 1945.53 89.8329 Q1941.6 89.8329 1938.11 89.2252 Q1934.63 88.6581 1931.35 87.4428 L1931.35 80.1917 Q1934.63 81.9741 1937.83 82.8248 Q1941.03 83.6755 1944.35 83.6755 Q1951.68 83.6755 1955.33 79.8271 Q1958.98 76.0193 1958.98 68.282 L1958.98 64.5957 Q1956.67 68.6061 1953.06 70.5911 Q1949.46 72.576 1944.43 72.576 Q1936.09 72.576 1930.98 66.2161 Q1925.88 59.8562 1925.88 49.3643 Q1925.88 38.832 1930.98 32.472 Q1936.09 26.1121 1944.43 26.1121 Q1949.46 26.1121 1953.06 28.0971 Q1956.67 30.082 1958.98 34.0924 L1958.98 27.2059 L1966.43 27.2059 L1966.43 66.9452 Z" fill="#000000" fill-rule="nonzero" fill-opacity="1" /><path clip-path="url(#clip390)" d="M2020.59 48.0275 L2020.59 51.6733 L1986.32 51.6733 Q1986.81 59.3701 1990.94 63.421 Q1995.11 67.4314 2002.52 67.4314 Q2006.82 67.4314 2010.83 66.3781 Q2014.88 65.3249 2018.85 63.2184 L2018.85 70.267 Q2014.84 71.9684 2010.62 72.8596 Q2006.41 73.7508 2002.08 73.7508 Q1991.22 73.7508 1984.86 67.4314 Q1978.54 61.1119 1978.54 50.3365 Q1978.54 39.1965 1984.54 32.6746 Q1990.57 26.1121 2000.78 26.1121 Q2009.94 26.1121 2015.24 32.0264 Q2020.59 37.9003 2020.59 48.0275 M2013.14 45.84 Q2013.05 39.7232 2009.69 36.0774 Q2006.37 32.4315 2000.86 32.4315 Q1994.62 32.4315 1990.86 35.9558 Q1987.13 39.4801 1986.56 45.8805 L2013.14 45.84 Z" fill="#000000" fill-rule="nonzero" fill-opacity="1" /><path clip-path="url(#clip390)" d="M2070.54 45.1919 L2070.54 72.576 L2063.08 72.576 L2063.08 45.4349 Q2063.08 38.994 2060.57 35.7938 Q2058.06 32.5936 2053.04 32.5936 Q2047 32.5936 2043.52 36.4419 Q2040.03 40.2903 2040.03 46.9338 L2040.03 72.576 L2032.54 72.576 L2032.54 27.2059 L2040.03 27.2059 L2040.03 34.2544 Q2042.71 30.163 2046.31 28.1376 Q2049.96 26.1121 2054.7 26.1121 Q2062.52 26.1121 2066.53 30.9732 Q2070.54 35.7938 2070.54 45.1919 Z" fill="#000000" fill-rule="nonzero" fill-opacity="1" /><polyline clip-path="url(#clip392)" style="stroke:#009af9; stroke-linecap:round; stroke-linejoin:round; stroke-width:4; stroke-opacity:1; fill:none" points="309.539,1386.4 313.523,1385.72 317.506,1385.04 321.489,1384.36 325.473,1383.68 329.456,1383 333.439,1382.31 337.423,1381.62 341.406,1380.92 345.389,1380.22 349.373,1379.51 353.356,1378.8 357.339,1378.07 361.323,1377.34 365.306,1376.61 369.289,1375.86 373.273,1375.1 377.256,1374.33 381.24,1373.55 385.223,1372.76 389.206,1371.96 393.19,1371.14 397.173,1370.31 401.156,1369.47 405.14,1368.61 409.123,1367.73 413.106,1366.84 417.09,1365.92 421.073,1364.99 425.056,1364.04 429.04,1363.08 433.023,1362.08 437.006,1361.07 440.99,1360.04 444.973,1358.98 448.956,1357.9 452.94,1356.79 456.923,1355.65 460.906,1354.49 464.89,1353.3 468.873,1352.08 472.856,1350.82 476.84,1349.54 480.823,1348.23 484.806,1346.88 488.79,1345.49 492.773,1344.07 496.756,1342.61 500.74,1341.11 504.723,1339.57 508.707,1337.99 512.69,1336.37 516.673,1334.7 520.657,1332.99 524.64,1331.23 528.623,1329.42 532.607,1327.56 536.59,1325.65 540.573,1323.68 544.557,1321.66 548.54,1319.58 552.523,1317.45 556.507,1315.25 560.49,1312.99 564.473,1310.66 568.457,1308.27 572.44,1305.81 576.423,1303.27 580.407,1300.67 584.39,1297.98 588.373,1295.22 592.357,1292.38 596.34,1289.46 600.323,1286.45 604.307,1283.36 608.29,1280.17 612.273,1276.89 616.257,1273.51 620.24,1270.03 624.224,1266.45 628.207,1262.77 632.19,1258.98 636.174,1255.07 640.157,1251.05 644.14,1246.91 648.124,1242.65 652.107,1238.26 656.09,1233.74 660.074,1229.08 664.057,1224.29 668.04,1219.36 672.024,1214.28 676.007,1209.04 679.99,1203.65 683.974,1198.11 687.957,1192.39 691.94,1186.51 695.924,1180.45 699.907,1174.21 703.89,1167.78 707.874,1161.16 711.857,1154.34 715.84,1147.32 719.824,1140.09 723.807,1132.65 727.79,1124.98 731.774,1117.08 735.757,1108.94 739.74,1100.57 743.724,1091.94 747.707,1083.05 751.691,1073.9 755.674,1064.47 759.657,1054.76 763.641,1044.76 767.624,1034.46 771.607,1023.85 775.591,1012.92 779.574,1001.67 783.557,990.079 787.541,978.14 791.524,965.843 795.507,953.178 799.491,940.133 803.474,926.697 807.457,912.858 811.441,899.09 815.424,885.394 819.407,871.773 823.391,858.229 827.374,844.763 831.357,831.378 835.341,818.076 839.324,804.859 843.307,791.728 847.291,778.685 851.274,765.734 855.257,752.874 859.241,740.11 863.224,727.441 867.207,714.871 871.191,702.4 875.174,690.032 879.158,677.767 883.141,665.608 887.124,653.557 891.108,641.614 895.091,629.782 899.074,618.064 903.058,606.459 907.041,594.971 911.024,583.601 915.008,572.35 918.991,561.221 922.974,550.214 926.958,539.332 930.941,528.576 934.924,517.948 938.908,507.45 942.891,497.082 946.874,486.847 950.858,476.745 954.841,466.78 958.824,456.951 962.808,447.26 966.791,437.71 970.774,428.301 974.758,419.034 978.741,409.912 982.724,400.935 986.708,392.105 990.691,383.423 994.675,374.89 998.658,366.508 1002.64,358.278 1006.62,350.201 1010.61,342.278 1014.59,334.511 1018.57,326.901 1022.56,319.448 1026.54,312.154 1030.52,305.02 1034.51,298.048 1038.49,291.237 1042.47,284.589 1046.46,278.106 1050.44,271.788 1054.42,265.635 1058.41,259.65 1062.39,253.832 1066.37,248.183 1070.36,242.703 1074.34,237.394 1078.32,232.256 1082.31,227.29 1086.29,222.497 1090.27,217.876 1094.26,213.43 1098.24,209.159 1102.22,205.063 1106.21,201.142 1110.19,197.399 1114.17,193.832 1118.16,190.443 1122.14,187.232 1126.12,184.2 1130.11,181.346 1134.09,178.673 1138.07,176.179 1142.06,173.865 1146.04,171.732 1150.02,169.779 1154.01,168.008 1157.99,166.419 1161.97,165.011 1165.96,163.785 1169.94,162.741 1173.93,161.879 1177.91,161.199 1181.89,160.703 1185.88,160.388 1189.86,160.256 1193.84,160.307 1197.83,160.54 1201.81,160.956 1205.79,161.555 1209.78,162.336 1213.76,163.299 1217.74,164.444 1221.73,165.771 1225.71,167.28 1229.69,168.971 1233.68,170.843 1237.66,172.896 1241.64,175.129 1245.63,177.543 1249.61,180.137 1253.59,182.911 1257.58,185.864 1261.56,188.996 1265.54,192.306 1269.53,195.794 1273.51,199.459 1277.49,203.301 1281.48,207.319 1285.46,211.512 1289.44,215.881 1293.43,220.424 1297.41,225.141 1301.39,230.03 1305.38,235.092 1309.36,240.326 1313.34,245.73 1317.33,251.303 1321.31,257.046 1325.29,262.957 1329.28,269.036 1333.26,275.281 1337.24,281.691 1341.23,288.266 1345.21,295.004 1349.19,301.905 1353.18,308.967 1357.16,316.19 1361.14,323.573 1365.13,331.113 1369.11,338.811 1373.09,346.665 1377.08,354.673 1381.06,362.836 1385.04,371.15 1389.03,379.616 1393.01,388.232 1396.99,396.997 1400.98,405.909 1404.96,414.967 1408.94,424.17 1412.93,433.516 1416.91,443.003 1420.89,452.632 1424.88,462.399 1428.86,472.305 1432.84,482.112 1436.83,491.822 1440.81,501.436 1444.79,510.955 1448.78,520.381 1452.76,529.713 1456.74,538.954 1460.73,548.104 1464.71,557.164 1468.69,566.135 1472.68,575.018 1476.66,583.814 1480.64,592.524 1484.63,601.148 1488.61,609.689 1492.59,618.146 1496.58,626.521 1500.56,634.814 1504.54,643.027 1508.53,651.16 1512.51,659.214 1516.49,667.19 1520.48,675.089 1524.46,682.912 1528.44,690.659 1532.43,698.332 1536.41,705.931 1540.39,713.457 1544.38,720.91 1548.36,728.292 1552.34,735.604 1556.33,742.846 1560.31,750.019 1564.29,757.123 1568.28,764.16 1572.26,771.131 1576.24,778.035 1580.23,784.874 1584.21,791.649 1588.19,798.359 1592.18,805.007 1596.16,811.592 1600.14,818.116 1604.13,824.578 1608.11,830.981 1612.09,837.323 1616.08,843.607 1620.06,849.833 1624.04,856.001 1628.03,862.112 1632.01,868.167 1635.99,874.166 1639.98,880.11 1643.96,886 1647.94,891.837 1651.93,897.62 1655.91,903.351 1659.89,909.03 1663.88,914.657 1667.86,920.234 1671.84,925.761 1675.83,931.239 1679.81,936.668 1683.79,942.048 1687.78,947.381 1691.76,952.667 1695.74,957.906 1699.73,963.099 1703.71,968.247 1707.69,973.35 1711.68,978.408 1715.66,983.423 1719.64,988.394 1723.63,993.323 1727.61,998.21 1731.59,1003.05 1735.58,1007.86 1739.56,1012.62 1743.54,1017.34 1747.53,1022.03 1751.51,1026.67 1755.49,1031.28 1759.48,1035.85 1763.46,1040.37 1767.44,1044.87 1771.43,1049.32 1775.41,1053.74 1779.39,1058.13 1783.38,1062.48 1787.36,1066.79 1791.34,1071.07 1795.33,1075.32 1799.31,1079.53 1803.29,1083.71 1807.28,1087.86 1811.26,1091.97 1815.24,1096.05 1819.23,1100.11 1823.21,1104.13 1827.19,1108.12 1831.18,1112.08 1835.16,1116.01 1839.14,1119.91 1843.13,1123.79 1847.11,1127.63 1851.09,1131.45 1855.08,1135.24 1859.06,1139.01 1863.04,1142.74 1867.03,1146.45 1871.01,1150.14 1874.99,1153.8 1878.98,1157.43 1882.96,1161.04 1886.94,1164.63 1890.93,1168.19 1894.91,1171.73 1898.89,1175.25 1902.88,1178.74 1906.86,1182.21 1910.84,1185.66 1914.83,1189.08 1918.81,1192.49 1922.79,1195.88 1926.78,1199.24 1930.76,1202.58 1934.74,1205.91 1938.73,1209.21 1942.71,1212.5 1946.69,1215.77 1950.68,1219.02 1954.66,1222.25 1958.64,1225.46 1962.63,1228.66 1966.61,1231.84 1970.59,1235 1974.58,1238.14 1978.56,1241.27 1982.54,1244.39 1986.53,1247.49 1990.51,1250.57 1994.49,1253.64 1998.48,1256.7 2002.46,1259.74 2006.44,1262.77 2010.43,1265.78 2014.41,1268.78 2018.39,1271.77 2022.38,1274.75 2026.36,1277.71 2030.34,1280.66 2034.33,1283.61 2038.31,1286.54 2042.29,1289.45 2046.28,1292.36 2050.26,1295.26 2054.24,1298.08 2058.23,1300.82 2062.21,1303.49 2066.19,1306.08 2070.18,1308.6 2074.16,1311.05 2078.14,1313.44 2082.13,1315.76 2086.11,1318.02 2090.09,1320.22 2094.08,1322.36 2098.06,1324.44 2102.04,1326.47 2106.03,1328.44 2110.01,1330.37 2113.99,1332.24 2117.98,1334.07 2121.96,1335.85 2125.94,1337.58 2129.93,1339.28 2133.91,1340.93 2137.89,1342.54 2141.88,1344.11 2145.86,1345.64 2149.84,1347.14 2153.83,1348.6 2157.81,1350.03 2161.79,1351.43 2165.78,1352.79 2169.76,1354.12 2173.74,1355.43 2177.73,1356.71 2181.71,1357.96 2185.69,1359.19 2189.68,1360.39 2193.66,1361.57 2197.64,1362.72 2201.63,1363.86 2205.61,1364.97 2209.59,1366.07 2213.58,1367.14 2217.56,1368.2 2221.54,1369.25 2225.53,1370.27 2229.51,1371.29 2233.49,1372.29 2237.48,1373.27 2241.46,1374.25 2245.44,1375.21 2249.43,1376.16 2253.41,1377.1 2257.39,1378.04 2261.38,1378.96 2265.36,1379.88 2269.34,1380.79 2273.33,1381.7 2277.31,1382.6 2281.29,1383.5 2285.28,1384.4 2289.26,1385.29 2293.24,1386.18 "/>
<path clip-path="url(#clip390)" d="M2019.96 270.476 L2282.66 270.476 L2282.66 166.796 L2019.96 166.796  Z" fill="#ffffff" fill-rule="evenodd" fill-opacity="1"/>
<polyline clip-path="url(#clip390)" style="stroke:#000000; stroke-linecap:round; stroke-linejoin:round; stroke-width:4; stroke-opacity:1; fill:none" points="2019.96,270.476 2282.66,270.476 2282.66,166.796 2019.96,166.796 2019.96,270.476 "/>
<polyline clip-path="url(#clip390)" style="stroke:#009af9; stroke-linecap:round; stroke-linejoin:round; stroke-width:4; stroke-opacity:1; fill:none" points="2043.33,218.636 2183.51,218.636 "/>
<path clip-path="url(#clip390)" d="M2220.71 238.323 Q2218.91 242.953 2217.2 244.365 Q2215.48 245.777 2212.61 245.777 L2209.21 245.777 L2209.21 242.212 L2211.71 242.212 Q2213.47 242.212 2214.44 241.379 Q2215.41 240.545 2216.59 237.443 L2217.36 235.499 L2206.87 209.99 L2211.38 209.99 L2219.49 230.268 L2227.59 209.99 L2232.1 209.99 L2220.71 238.323 Z" fill="#000000" fill-rule="nonzero" fill-opacity="1" /><path clip-path="url(#clip390)" d="M2239.39 231.981 L2247.03 231.981 L2247.03 205.615 L2238.72 207.282 L2238.72 203.022 L2246.99 201.356 L2251.66 201.356 L2251.66 231.981 L2259.3 231.981 L2259.3 235.916 L2239.39 235.916 L2239.39 231.981 Z" fill="#000000" fill-rule="nonzero" fill-opacity="1" /></svg>
