<?xml version="1.0" encoding="utf-8"?>
<svg xmlns="http://www.w3.org/2000/svg" xmlns:xlink="http://www.w3.org/1999/xlink" width="600" height="400" viewBox="0 0 2400 1600">
<defs>
  <clipPath id="clip850">
    <rect x="0" y="0" width="2400" height="1600"/>
  </clipPath>
</defs>
<path clip-path="url(#clip850)" d="M0 1600 L2400 1600 L2400 8.88178e-14 L0 8.88178e-14  Z" fill="#ffffff" fill-rule="evenodd" fill-opacity="1"/>
<defs>
  <clipPath id="clip851">
    <rect x="205" y="123" width="2149" height="1301"/>
  </clipPath>
</defs>
<path clip-path="url(#clip850)" d="M272.297 1423.18 L2352.76 1423.18 L2352.76 123.472 L272.297 123.472  Z" fill="#ffffff" fill-rule="evenodd" fill-opacity="1"/>
<defs>
  <clipPath id="clip852">
    <rect x="272" y="123" width="2081" height="1301"/>
  </clipPath>
</defs>
<polyline clip-path="url(#clip852)" style="stroke:#000000; stroke-linecap:round; stroke-linejoin:round; stroke-width:2; stroke-opacity:0.1; fill:none" points="549.255,1423.18 549.255,123.472 "/>
<polyline clip-path="url(#clip852)" style="stroke:#000000; stroke-linecap:round; stroke-linejoin:round; stroke-width:2; stroke-opacity:0.1; fill:none" points="985.41,1423.18 985.41,123.472 "/>
<polyline clip-path="url(#clip852)" style="stroke:#000000; stroke-linecap:round; stroke-linejoin:round; stroke-width:2; stroke-opacity:0.1; fill:none" points="1421.56,1423.18 1421.56,123.472 "/>
<polyline clip-path="url(#clip852)" style="stroke:#000000; stroke-linecap:round; stroke-linejoin:round; stroke-width:2; stroke-opacity:0.1; fill:none" points="1857.72,1423.18 1857.72,123.472 "/>
<polyline clip-path="url(#clip852)" style="stroke:#000000; stroke-linecap:round; stroke-linejoin:round; stroke-width:2; stroke-opacity:0.1; fill:none" points="2293.87,1423.18 2293.87,123.472 "/>
<polyline clip-path="url(#clip852)" style="stroke:#000000; stroke-linecap:round; stroke-linejoin:round; stroke-width:2; stroke-opacity:0.1; fill:none" points="272.297,1172.63 2352.76,1172.63 "/>
<polyline clip-path="url(#clip852)" style="stroke:#000000; stroke-linecap:round; stroke-linejoin:round; stroke-width:2; stroke-opacity:0.1; fill:none" points="272.297,920.119 2352.76,920.119 "/>
<polyline clip-path="url(#clip852)" style="stroke:#000000; stroke-linecap:round; stroke-linejoin:round; stroke-width:2; stroke-opacity:0.1; fill:none" points="272.297,667.606 2352.76,667.606 "/>
<polyline clip-path="url(#clip852)" style="stroke:#000000; stroke-linecap:round; stroke-linejoin:round; stroke-width:2; stroke-opacity:0.1; fill:none" points="272.297,415.094 2352.76,415.094 "/>
<polyline clip-path="url(#clip852)" style="stroke:#000000; stroke-linecap:round; stroke-linejoin:round; stroke-width:2; stroke-opacity:0.1; fill:none" points="272.297,162.581 2352.76,162.581 "/>
<polyline clip-path="url(#clip850)" style="stroke:#000000; stroke-linecap:round; stroke-linejoin:round; stroke-width:4; stroke-opacity:1; fill:none" points="272.297,1423.18 2352.76,1423.18 "/>
<polyline clip-path="url(#clip850)" style="stroke:#000000; stroke-linecap:round; stroke-linejoin:round; stroke-width:4; stroke-opacity:1; fill:none" points="549.255,1423.18 549.255,1404.28 "/>
<polyline clip-path="url(#clip850)" style="stroke:#000000; stroke-linecap:round; stroke-linejoin:round; stroke-width:4; stroke-opacity:1; fill:none" points="985.41,1423.18 985.41,1404.28 "/>
<polyline clip-path="url(#clip850)" style="stroke:#000000; stroke-linecap:round; stroke-linejoin:round; stroke-width:4; stroke-opacity:1; fill:none" points="1421.56,1423.18 1421.56,1404.28 "/>
<polyline clip-path="url(#clip850)" style="stroke:#000000; stroke-linecap:round; stroke-linejoin:round; stroke-width:4; stroke-opacity:1; fill:none" points="1857.72,1423.18 1857.72,1404.28 "/>
<polyline clip-path="url(#clip850)" style="stroke:#000000; stroke-linecap:round; stroke-linejoin:round; stroke-width:4; stroke-opacity:1; fill:none" points="2293.87,1423.18 2293.87,1404.28 "/>
<path clip-path="url(#clip850)" d="M543.908 1481.64 L560.227 1481.64 L560.227 1485.58 L538.283 1485.58 L538.283 1481.64 Q540.945 1478.89 545.528 1474.26 Q550.135 1469.61 551.315 1468.27 Q553.561 1465.74 554.44 1464.01 Q555.343 1462.25 555.343 1460.56 Q555.343 1457.8 553.398 1456.07 Q551.477 1454.33 548.375 1454.33 Q546.176 1454.33 543.723 1455.09 Q541.292 1455.86 538.514 1457.41 L538.514 1452.69 Q541.338 1451.55 543.792 1450.97 Q546.246 1450.39 548.283 1450.39 Q553.653 1450.39 556.848 1453.08 Q560.042 1455.77 560.042 1460.26 Q560.042 1462.39 559.232 1464.31 Q558.445 1466.2 556.338 1468.8 Q555.76 1469.47 552.658 1472.69 Q549.556 1475.88 543.908 1481.64 Z" fill="#000000" fill-rule="nonzero" fill-opacity="1" /><path clip-path="url(#clip850)" d="M988.419 1455.09 L976.614 1473.54 L988.419 1473.54 L988.419 1455.09 M987.192 1451.02 L993.072 1451.02 L993.072 1473.54 L998.002 1473.54 L998.002 1477.43 L993.072 1477.43 L993.072 1485.58 L988.419 1485.58 L988.419 1477.43 L972.817 1477.43 L972.817 1472.92 L987.192 1451.02 Z" fill="#000000" fill-rule="nonzero" fill-opacity="1" /><path clip-path="url(#clip850)" d="M1421.97 1466.44 Q1418.82 1466.44 1416.97 1468.59 Q1415.14 1470.74 1415.14 1474.49 Q1415.14 1478.22 1416.97 1480.39 Q1418.82 1482.55 1421.97 1482.55 Q1425.12 1482.55 1426.95 1480.39 Q1428.8 1478.22 1428.8 1474.49 Q1428.8 1470.74 1426.95 1468.59 Q1425.12 1466.44 1421.97 1466.44 M1431.25 1451.78 L1431.25 1456.04 Q1429.49 1455.21 1427.69 1454.77 Q1425.91 1454.33 1424.15 1454.33 Q1419.52 1454.33 1417.06 1457.45 Q1414.63 1460.58 1414.28 1466.9 Q1415.65 1464.89 1417.71 1463.82 Q1419.77 1462.73 1422.25 1462.73 Q1427.46 1462.73 1430.47 1465.9 Q1433.5 1469.05 1433.5 1474.49 Q1433.5 1479.82 1430.35 1483.03 Q1427.2 1486.25 1421.97 1486.25 Q1415.97 1486.25 1412.8 1481.67 Q1409.63 1477.06 1409.63 1468.33 Q1409.63 1460.14 1413.52 1455.28 Q1417.41 1450.39 1423.96 1450.39 Q1425.72 1450.39 1427.5 1450.74 Q1429.31 1451.09 1431.25 1451.78 Z" fill="#000000" fill-rule="nonzero" fill-opacity="1" /><path clip-path="url(#clip850)" d="M1857.72 1469.17 Q1854.39 1469.17 1852.47 1470.95 Q1850.57 1472.73 1850.57 1475.86 Q1850.57 1478.98 1852.47 1480.77 Q1854.39 1482.55 1857.72 1482.55 Q1861.05 1482.55 1862.97 1480.77 Q1864.9 1478.96 1864.9 1475.86 Q1864.9 1472.73 1862.97 1470.95 Q1861.08 1469.17 1857.72 1469.17 M1853.04 1467.18 Q1850.03 1466.44 1848.35 1464.38 Q1846.68 1462.32 1846.68 1459.35 Q1846.68 1455.21 1849.62 1452.8 Q1852.58 1450.39 1857.72 1450.39 Q1862.88 1450.39 1865.82 1452.8 Q1868.76 1455.21 1868.76 1459.35 Q1868.76 1462.32 1867.07 1464.38 Q1865.41 1466.44 1862.42 1467.18 Q1865.8 1467.96 1867.67 1470.26 Q1869.57 1472.55 1869.57 1475.86 Q1869.57 1480.88 1866.49 1483.57 Q1863.44 1486.25 1857.72 1486.25 Q1852 1486.25 1848.92 1483.57 Q1845.87 1480.88 1845.87 1475.86 Q1845.87 1472.55 1847.77 1470.26 Q1849.66 1467.96 1853.04 1467.18 M1851.33 1459.79 Q1851.33 1462.48 1853 1463.98 Q1854.69 1465.49 1857.72 1465.49 Q1860.73 1465.49 1862.42 1463.98 Q1864.13 1462.48 1864.13 1459.79 Q1864.13 1457.11 1862.42 1455.6 Q1860.73 1454.1 1857.72 1454.1 Q1854.69 1454.1 1853 1455.6 Q1851.33 1457.11 1851.33 1459.79 Z" fill="#000000" fill-rule="nonzero" fill-opacity="1" /><path clip-path="url(#clip850)" d="M2268.56 1481.64 L2276.2 1481.64 L2276.2 1455.28 L2267.89 1456.95 L2267.89 1452.69 L2276.16 1451.02 L2280.83 1451.02 L2280.83 1481.64 L2288.47 1481.64 L2288.47 1485.58 L2268.56 1485.58 L2268.56 1481.64 Z" fill="#000000" fill-rule="nonzero" fill-opacity="1" /><path clip-path="url(#clip850)" d="M2307.91 1454.1 Q2304.3 1454.1 2302.47 1457.66 Q2300.67 1461.2 2300.67 1468.33 Q2300.67 1475.44 2302.47 1479.01 Q2304.3 1482.55 2307.91 1482.55 Q2311.55 1482.55 2313.35 1479.01 Q2315.18 1475.44 2315.18 1468.33 Q2315.18 1461.2 2313.35 1457.66 Q2311.55 1454.1 2307.91 1454.1 M2307.91 1450.39 Q2313.72 1450.39 2316.78 1455 Q2319.86 1459.58 2319.86 1468.33 Q2319.86 1477.06 2316.78 1481.67 Q2313.72 1486.25 2307.91 1486.25 Q2302.1 1486.25 2299.03 1481.67 Q2295.97 1477.06 2295.97 1468.33 Q2295.97 1459.58 2299.03 1455 Q2302.1 1450.39 2307.91 1450.39 Z" fill="#000000" fill-rule="nonzero" fill-opacity="1" /><path clip-path="url(#clip850)" d="M1323.91 1527.5 Q1323.91 1528.18 1323.33 1528.72 Q1322.79 1529.27 1322.11 1529.27 Q1321.72 1529.27 1320.79 1528.63 Q1318.12 1526.76 1314.73 1526.76 Q1311.71 1526.76 1308.9 1527.5 Q1306.1 1528.24 1304.2 1529.75 Q1302.33 1531.23 1302.33 1533.17 Q1302.33 1535.58 1304.98 1537 Q1307.71 1535.74 1311.09 1535.74 Q1312.19 1535.74 1312.93 1535.81 Q1313.7 1535.87 1314.44 1536.03 Q1315.18 1536.19 1315.54 1536.58 Q1315.93 1536.94 1315.93 1537.51 Q1315.93 1539.58 1310.58 1539.58 Q1307.1 1539.58 1304.91 1538.64 Q1302.11 1540.03 1300.56 1542.25 Q1299.02 1544.47 1299.02 1546.37 Q1299.02 1548.01 1299.92 1549.21 Q1300.85 1550.4 1302.37 1550.98 Q1303.91 1551.56 1305.43 1551.81 Q1306.97 1552.04 1308.68 1552.04 Q1311.48 1552.04 1313.45 1551.69 Q1315.44 1551.3 1316.54 1550.59 Q1317.66 1549.88 1318.12 1549.4 Q1318.6 1548.88 1319.08 1548.08 Q1319.37 1547.63 1319.76 1547.63 Q1320.05 1547.63 1320.24 1547.82 Q1320.47 1547.98 1320.47 1548.27 Q1320.47 1548.63 1320.02 1549.37 Q1319.6 1550.11 1318.57 1551.11 Q1317.57 1552.07 1316.18 1552.97 Q1314.83 1553.84 1312.67 1554.46 Q1310.52 1555.07 1308.07 1555.07 Q1303.08 1555.07 1300.18 1552.62 Q1297.31 1550.17 1297.31 1546.76 Q1297.31 1544.37 1298.89 1541.93 Q1300.5 1539.45 1303.33 1537.87 Q1300.69 1535.9 1300.69 1533.17 Q1300.69 1530.72 1302.75 1528.53 Q1304.85 1526.34 1308.23 1525.05 Q1311.64 1523.73 1315.38 1523.73 Q1317.47 1523.73 1319.53 1524.44 Q1321.59 1525.12 1322.75 1525.99 Q1323.91 1526.85 1323.91 1527.5 M1314.22 1537.58 Q1312.8 1537.19 1311.09 1537.19 Q1308.78 1537.19 1307.07 1537.77 Q1308.45 1538.13 1310.58 1538.13 Q1312.35 1538.13 1312.87 1538.03 Q1313.41 1537.93 1314.22 1537.58 Z" fill="#000000" fill-rule="nonzero" fill-opacity="1" /><polyline clip-path="url(#clip850)" style="stroke:#000000; stroke-linecap:round; stroke-linejoin:round; stroke-width:4; stroke-opacity:1; fill:none" points="272.297,1423.18 272.297,123.472 "/>
<polyline clip-path="url(#clip850)" style="stroke:#000000; stroke-linecap:round; stroke-linejoin:round; stroke-width:4; stroke-opacity:1; fill:none" points="272.297,1172.63 291.194,1172.63 "/>
<polyline clip-path="url(#clip850)" style="stroke:#000000; stroke-linecap:round; stroke-linejoin:round; stroke-width:4; stroke-opacity:1; fill:none" points="272.297,920.119 291.194,920.119 "/>
<polyline clip-path="url(#clip850)" style="stroke:#000000; stroke-linecap:round; stroke-linejoin:round; stroke-width:4; stroke-opacity:1; fill:none" points="272.297,667.606 291.194,667.606 "/>
<polyline clip-path="url(#clip850)" style="stroke:#000000; stroke-linecap:round; stroke-linejoin:round; stroke-width:4; stroke-opacity:1; fill:none" points="272.297,415.094 291.194,415.094 "/>
<polyline clip-path="url(#clip850)" style="stroke:#000000; stroke-linecap:round; stroke-linejoin:round; stroke-width:4; stroke-opacity:1; fill:none" points="272.297,162.581 291.194,162.581 "/>
<path clip-path="url(#clip850)" d="M114.26 1173.08 L143.936 1173.08 L143.936 1177.02 L114.26 1177.02 L114.26 1173.08 Z" fill="#000000" fill-rule="nonzero" fill-opacity="1" /><path clip-path="url(#clip850)" d="M158.056 1185.98 L174.376 1185.98 L174.376 1189.91 L152.431 1189.91 L152.431 1185.98 Q155.093 1183.22 159.677 1178.59 Q164.283 1173.94 165.464 1172.6 Q167.709 1170.07 168.589 1168.34 Q169.491 1166.58 169.491 1164.89 Q169.491 1162.13 167.547 1160.4 Q165.626 1158.66 162.524 1158.66 Q160.325 1158.66 157.871 1159.43 Q155.44 1160.19 152.663 1161.74 L152.663 1157.02 Q155.487 1155.88 157.94 1155.31 Q160.394 1154.73 162.431 1154.73 Q167.802 1154.73 170.996 1157.41 Q174.19 1160.1 174.19 1164.59 Q174.19 1166.72 173.38 1168.64 Q172.593 1170.54 170.487 1173.13 Q169.908 1173.8 166.806 1177.02 Q163.704 1180.21 158.056 1185.98 Z" fill="#000000" fill-rule="nonzero" fill-opacity="1" /><path clip-path="url(#clip850)" d="M184.237 1155.35 L202.593 1155.35 L202.593 1159.29 L188.519 1159.29 L188.519 1167.76 Q189.538 1167.41 190.556 1167.25 Q191.575 1167.06 192.593 1167.06 Q198.38 1167.06 201.76 1170.24 Q205.139 1173.41 205.139 1178.82 Q205.139 1184.4 201.667 1187.5 Q198.195 1190.58 191.875 1190.58 Q189.7 1190.58 187.431 1190.21 Q185.186 1189.84 182.778 1189.1 L182.778 1184.4 Q184.862 1185.54 187.084 1186.09 Q189.306 1186.65 191.783 1186.65 Q195.787 1186.65 198.125 1184.54 Q200.463 1182.43 200.463 1178.82 Q200.463 1175.21 198.125 1173.11 Q195.787 1171 191.783 1171 Q189.908 1171 188.033 1171.42 Q186.181 1171.83 184.237 1172.71 L184.237 1155.35 Z" fill="#000000" fill-rule="nonzero" fill-opacity="1" /><path clip-path="url(#clip850)" d="M224.352 1158.43 Q220.741 1158.43 218.912 1161.99 Q217.107 1165.54 217.107 1172.67 Q217.107 1179.77 218.912 1183.34 Q220.741 1186.88 224.352 1186.88 Q227.986 1186.88 229.792 1183.34 Q231.621 1179.77 231.621 1172.67 Q231.621 1165.54 229.792 1161.99 Q227.986 1158.43 224.352 1158.43 M224.352 1154.73 Q230.162 1154.73 233.218 1159.33 Q236.297 1163.92 236.297 1172.67 Q236.297 1181.39 233.218 1186 Q230.162 1190.58 224.352 1190.58 Q218.542 1190.58 215.463 1186 Q212.408 1181.39 212.408 1172.67 Q212.408 1163.92 215.463 1159.33 Q218.542 1154.73 224.352 1154.73 Z" fill="#000000" fill-rule="nonzero" fill-opacity="1" /><path clip-path="url(#clip850)" d="M224.352 905.918 Q220.741 905.918 218.912 909.482 Q217.107 913.024 217.107 920.154 Q217.107 927.26 218.912 930.825 Q220.741 934.367 224.352 934.367 Q227.986 934.367 229.792 930.825 Q231.621 927.26 231.621 920.154 Q231.621 913.024 229.792 909.482 Q227.986 905.918 224.352 905.918 M224.352 902.214 Q230.162 902.214 233.218 906.82 Q236.297 911.404 236.297 920.154 Q236.297 928.88 233.218 933.487 Q230.162 938.07 224.352 938.07 Q218.542 938.07 215.463 933.487 Q212.408 928.88 212.408 920.154 Q212.408 911.404 215.463 906.82 Q218.542 902.214 224.352 902.214 Z" fill="#000000" fill-rule="nonzero" fill-opacity="1" /><path clip-path="url(#clip850)" d="M158.056 680.951 L174.376 680.951 L174.376 684.886 L152.431 684.886 L152.431 680.951 Q155.093 678.197 159.677 673.567 Q164.283 668.914 165.464 667.572 Q167.709 665.049 168.589 663.312 Q169.491 661.553 169.491 659.863 Q169.491 657.109 167.547 655.373 Q165.626 653.637 162.524 653.637 Q160.325 653.637 157.871 654.4 Q155.44 655.164 152.663 656.715 L152.663 651.993 Q155.487 650.859 157.94 650.28 Q160.394 649.701 162.431 649.701 Q167.802 649.701 170.996 652.387 Q174.19 655.072 174.19 659.562 Q174.19 661.692 173.38 663.613 Q172.593 665.512 170.487 668.104 Q169.908 668.775 166.806 671.993 Q163.704 675.187 158.056 680.951 Z" fill="#000000" fill-rule="nonzero" fill-opacity="1" /><path clip-path="url(#clip850)" d="M184.237 650.326 L202.593 650.326 L202.593 654.262 L188.519 654.262 L188.519 662.734 Q189.538 662.387 190.556 662.225 Q191.575 662.039 192.593 662.039 Q198.38 662.039 201.76 665.211 Q205.139 668.382 205.139 673.799 Q205.139 679.377 201.667 682.479 Q198.195 685.558 191.875 685.558 Q189.7 685.558 187.431 685.187 Q185.186 684.817 182.778 684.076 L182.778 679.377 Q184.862 680.511 187.084 681.067 Q189.306 681.623 191.783 681.623 Q195.787 681.623 198.125 679.516 Q200.463 677.41 200.463 673.799 Q200.463 670.187 198.125 668.081 Q195.787 665.974 191.783 665.974 Q189.908 665.974 188.033 666.391 Q186.181 666.808 184.237 667.687 L184.237 650.326 Z" fill="#000000" fill-rule="nonzero" fill-opacity="1" /><path clip-path="url(#clip850)" d="M224.352 653.405 Q220.741 653.405 218.912 656.97 Q217.107 660.512 217.107 667.641 Q217.107 674.748 218.912 678.312 Q220.741 681.854 224.352 681.854 Q227.986 681.854 229.792 678.312 Q231.621 674.748 231.621 667.641 Q231.621 660.512 229.792 656.97 Q227.986 653.405 224.352 653.405 M224.352 649.701 Q230.162 649.701 233.218 654.308 Q236.297 658.891 236.297 667.641 Q236.297 676.368 233.218 680.974 Q230.162 685.558 224.352 685.558 Q218.542 685.558 215.463 680.974 Q212.408 676.368 212.408 667.641 Q212.408 658.891 215.463 654.308 Q218.542 649.701 224.352 649.701 Z" fill="#000000" fill-rule="nonzero" fill-opacity="1" /><path clip-path="url(#clip850)" d="M154.075 397.814 L172.431 397.814 L172.431 401.749 L158.357 401.749 L158.357 410.221 Q159.376 409.874 160.394 409.712 Q161.413 409.527 162.431 409.527 Q168.218 409.527 171.598 412.698 Q174.977 415.869 174.977 421.286 Q174.977 426.865 171.505 429.967 Q168.033 433.045 161.714 433.045 Q159.538 433.045 157.269 432.675 Q155.024 432.305 152.616 431.564 L152.616 426.865 Q154.7 427.999 156.922 428.555 Q159.144 429.11 161.621 429.11 Q165.626 429.11 167.964 427.004 Q170.302 424.897 170.302 421.286 Q170.302 417.675 167.964 415.568 Q165.626 413.462 161.621 413.462 Q159.746 413.462 157.871 413.879 Q156.019 414.295 154.075 415.175 L154.075 397.814 Z" fill="#000000" fill-rule="nonzero" fill-opacity="1" /><path clip-path="url(#clip850)" d="M194.19 400.893 Q190.579 400.893 188.75 404.457 Q186.945 407.999 186.945 415.129 Q186.945 422.235 188.75 425.8 Q190.579 429.342 194.19 429.342 Q197.825 429.342 199.63 425.8 Q201.459 422.235 201.459 415.129 Q201.459 407.999 199.63 404.457 Q197.825 400.893 194.19 400.893 M194.19 397.189 Q200 397.189 203.056 401.795 Q206.135 406.379 206.135 415.129 Q206.135 423.855 203.056 428.462 Q200 433.045 194.19 433.045 Q188.38 433.045 185.301 428.462 Q182.246 423.855 182.246 415.129 Q182.246 406.379 185.301 401.795 Q188.38 397.189 194.19 397.189 Z" fill="#000000" fill-rule="nonzero" fill-opacity="1" /><path clip-path="url(#clip850)" d="M224.352 400.893 Q220.741 400.893 218.912 404.457 Q217.107 407.999 217.107 415.129 Q217.107 422.235 218.912 425.8 Q220.741 429.342 224.352 429.342 Q227.986 429.342 229.792 425.8 Q231.621 422.235 231.621 415.129 Q231.621 407.999 229.792 404.457 Q227.986 400.893 224.352 400.893 M224.352 397.189 Q230.162 397.189 233.218 401.795 Q236.297 406.379 236.297 415.129 Q236.297 423.855 233.218 428.462 Q230.162 433.045 224.352 433.045 Q218.542 433.045 215.463 428.462 Q212.408 423.855 212.408 415.129 Q212.408 406.379 215.463 401.795 Q218.542 397.189 224.352 397.189 Z" fill="#000000" fill-rule="nonzero" fill-opacity="1" /><path clip-path="url(#clip850)" d="M152.848 145.301 L175.07 145.301 L175.07 147.292 L162.524 179.861 L157.64 179.861 L169.445 149.237 L152.848 149.237 L152.848 145.301 Z" fill="#000000" fill-rule="nonzero" fill-opacity="1" /><path clip-path="url(#clip850)" d="M184.237 145.301 L202.593 145.301 L202.593 149.237 L188.519 149.237 L188.519 157.709 Q189.538 157.362 190.556 157.2 Q191.575 157.014 192.593 157.014 Q198.38 157.014 201.76 160.186 Q205.139 163.357 205.139 168.774 Q205.139 174.352 201.667 177.454 Q198.195 180.533 191.875 180.533 Q189.7 180.533 187.431 180.162 Q185.186 179.792 182.778 179.051 L182.778 174.352 Q184.862 175.487 187.084 176.042 Q189.306 176.598 191.783 176.598 Q195.787 176.598 198.125 174.491 Q200.463 172.385 200.463 168.774 Q200.463 165.162 198.125 163.056 Q195.787 160.95 191.783 160.95 Q189.908 160.95 188.033 161.366 Q186.181 161.783 184.237 162.663 L184.237 145.301 Z" fill="#000000" fill-rule="nonzero" fill-opacity="1" /><path clip-path="url(#clip850)" d="M224.352 148.38 Q220.741 148.38 218.912 151.945 Q217.107 155.487 217.107 162.616 Q217.107 169.723 218.912 173.287 Q220.741 176.829 224.352 176.829 Q227.986 176.829 229.792 173.287 Q231.621 169.723 231.621 162.616 Q231.621 155.487 229.792 151.945 Q227.986 148.38 224.352 148.38 M224.352 144.676 Q230.162 144.676 233.218 149.283 Q236.297 153.866 236.297 162.616 Q236.297 171.343 233.218 175.949 Q230.162 180.533 224.352 180.533 Q218.542 180.533 215.463 175.949 Q212.408 171.343 212.408 162.616 Q212.408 153.866 215.463 149.283 Q218.542 144.676 224.352 144.676 Z" fill="#000000" fill-rule="nonzero" fill-opacity="1" /><path clip-path="url(#clip850)" d="M24.1199 800.68 Q25.8912 800.68 26.9862 801.807 Q28.0812 802.902 28.0812 804.287 Q28.0812 805.285 27.4693 806.026 Q26.8574 806.735 25.7946 806.735 Q24.6996 806.735 23.5402 805.897 Q22.3807 805.06 22.2197 803.16 Q21.0281 804.416 21.0281 806.413 Q21.0281 807.411 21.6722 808.248 Q22.2841 809.053 23.2825 809.504 Q24.3131 809.987 30.1424 811.082 Q32.0425 811.437 33.8782 811.759 Q35.714 812.081 37.6463 812.467 L37.6463 806.992 Q37.6463 806.284 37.6785 805.994 Q37.7107 805.704 37.8718 805.479 Q38.0328 805.221 38.3871 805.221 Q39.2888 805.221 39.5143 805.64 Q39.7075 806.026 39.7075 807.185 L39.7075 812.854 L60.6091 816.815 Q61.221 816.912 63.1534 817.33 Q65.0535 817.717 68.1775 818.651 Q71.3337 819.585 73.2016 820.519 Q74.2644 821.034 75.2628 821.71 Q76.2934 822.354 77.3239 823.288 Q78.3545 824.222 78.9664 825.446 Q79.6106 826.67 79.6106 827.958 Q79.6106 830.148 78.3867 831.855 Q77.1629 833.562 75.0695 833.562 Q73.2982 833.562 72.2032 832.467 Q71.1082 831.34 71.1082 829.955 Q71.1082 828.957 71.7201 828.248 Q72.332 827.507 73.3948 827.507 Q73.8457 827.507 74.361 827.668 Q74.8763 827.829 75.456 828.184 Q76.0679 828.538 76.4866 829.311 Q76.9053 830.084 76.9697 831.147 Q78.1613 829.891 78.1613 827.958 Q78.1613 827.346 77.9036 826.799 Q77.6782 826.251 77.0985 825.8 Q76.5188 825.317 75.9391 824.963 Q75.3916 824.609 74.3288 824.255 Q73.2982 823.9 72.5253 823.675 Q71.7523 823.449 70.3675 823.16 Q68.9826 822.838 68.1453 822.676 Q67.3401 822.515 65.762 822.226 L39.7075 817.298 L39.7075 821.646 Q39.7075 822.419 39.6753 822.741 Q39.6431 823.031 39.4821 823.256 Q39.2888 823.482 38.9023 823.482 Q38.2904 823.482 38.0328 823.224 Q37.7429 822.934 37.7107 822.612 Q37.6463 822.29 37.6463 821.517 L37.6463 816.944 Q29.4982 815.398 27.3082 814.786 Q24.9894 814.078 23.3791 812.983 Q21.7366 811.888 20.9637 810.664 Q20.1907 809.44 19.9009 808.441 Q19.5788 807.411 19.5788 806.413 Q19.5788 804.158 20.8027 802.419 Q21.9943 800.68 24.1199 800.68 Z" fill="#000000" fill-rule="nonzero" fill-opacity="1" /><path clip-path="url(#clip850)" d="M49.5947 791.8 Q38.4515 791.8 29.466 787.645 Q25.6979 785.874 22.5418 783.394 Q19.3856 780.914 18.0007 779.272 Q16.6159 777.629 16.6159 777.178 Q16.6159 776.534 17.26 776.502 Q17.5821 776.502 18.3872 777.372 Q29.2084 788 49.5947 787.967 Q70.0454 787.967 80.4479 777.629 Q81.5751 776.502 81.9294 776.502 Q82.5735 776.502 82.5735 777.178 Q82.5735 777.629 81.2531 779.207 Q79.9326 780.785 76.9053 783.233 Q73.8779 785.681 70.1742 787.452 Q61.1888 791.8 49.5947 791.8 Z" fill="#000000" fill-rule="nonzero" fill-opacity="1" /><path clip-path="url(#clip850)" d="M39.9651 744.886 Q40.6415 744.886 41.189 745.466 Q41.7365 746.014 41.7365 746.69 Q41.7365 747.076 41.0923 748.01 Q39.2244 750.683 39.2244 754.065 Q39.2244 757.092 39.9651 759.894 Q40.7059 762.696 42.2196 764.596 Q43.701 766.464 45.6334 766.464 Q48.0488 766.464 49.4659 763.823 Q48.2098 761.086 48.2098 757.704 Q48.2098 756.609 48.2743 755.869 Q48.3387 755.096 48.4997 754.355 Q48.6607 753.614 49.0472 753.26 Q49.4015 752.873 49.9812 752.873 Q52.0423 752.873 52.0423 758.22 Q52.0423 761.698 51.1084 763.888 Q52.4932 766.69 54.7154 768.236 Q56.9376 769.782 58.8378 769.782 Q60.4803 769.782 61.6719 768.88 Q62.8635 767.946 63.4432 766.432 Q64.0229 764.886 64.2806 763.373 Q64.506 761.827 64.506 760.12 Q64.506 757.318 64.1517 755.353 Q63.7653 753.357 63.0567 752.262 Q62.3482 751.134 61.8651 750.683 Q61.3498 750.2 60.5447 749.717 Q60.0938 749.427 60.0938 749.041 Q60.0938 748.751 60.287 748.558 Q60.4481 748.332 60.7379 748.332 Q61.0922 748.332 61.8329 748.783 Q62.5737 749.202 63.572 750.233 Q64.5382 751.231 65.44 752.616 Q66.3095 753.968 66.9214 756.126 Q67.5334 758.284 67.5334 760.732 Q67.5334 765.724 65.0857 768.622 Q62.6381 771.488 59.2242 771.488 Q56.841 771.488 54.3934 769.91 Q51.9135 768.3 50.3354 765.466 Q48.3709 768.107 45.6334 768.107 Q43.1857 768.107 40.9957 766.046 Q38.8057 763.952 37.5175 760.571 Q36.1971 757.157 36.1971 753.421 Q36.1971 751.328 36.9056 749.266 Q37.5819 747.205 38.4515 746.046 Q39.321 744.886 39.9651 744.886 M50.0456 754.58 Q49.6591 755.997 49.6591 757.704 Q49.6591 760.023 50.2388 761.73 Q50.5931 760.345 50.5931 758.22 Q50.5931 756.448 50.4965 755.933 Q50.3998 755.386 50.0456 754.58 Z" fill="#000000" fill-rule="nonzero" fill-opacity="1" /><path clip-path="url(#clip850)" d="M81.9294 738.417 Q81.6073 738.417 80.8022 737.58 Q69.981 726.952 49.5947 726.952 Q29.144 726.952 18.8059 737.161 Q17.6143 738.417 17.26 738.417 Q16.6159 738.417 16.6159 737.773 Q16.6159 737.322 17.9363 735.744 Q19.2568 734.134 22.2841 731.718 Q25.3115 729.271 29.0151 727.467 Q38.0006 723.12 49.5947 723.12 Q60.7379 723.12 69.7234 727.274 Q73.4914 729.045 76.6476 731.525 Q79.8038 734.005 81.1886 735.648 Q82.5735 737.29 82.5735 737.773 Q82.5735 738.417 81.9294 738.417 Z" fill="#000000" fill-rule="nonzero" fill-opacity="1" /><path clip-path="url(#clip850)" d="M893.926 12.096 L928.683 12.096 L928.683 18.9825 L902.109 18.9825 L902.109 36.8065 L926.09 36.8065 L926.09 43.6931 L902.109 43.6931 L902.109 72.576 L893.926 72.576 L893.926 12.096 Z" fill="#000000" fill-rule="nonzero" fill-opacity="1" /><path clip-path="url(#clip850)" d="M936.015 54.671 L936.015 27.2059 L943.469 27.2059 L943.469 54.3874 Q943.469 60.8284 945.98 64.0691 Q948.492 67.2693 953.515 67.2693 Q959.551 67.2693 963.034 63.421 Q966.559 59.5726 966.559 52.9291 L966.559 27.2059 L974.012 27.2059 L974.012 72.576 L966.559 72.576 L966.559 65.6084 Q963.845 69.7404 960.239 71.7658 Q956.675 73.7508 951.935 73.7508 Q944.117 73.7508 940.066 68.8897 Q936.015 64.0286 936.015 54.671 M954.771 26.1121 L954.771 26.1121 Z" fill="#000000" fill-rule="nonzero" fill-opacity="1" /><path clip-path="url(#clip850)" d="M1027.08 45.1919 L1027.08 72.576 L1019.63 72.576 L1019.63 45.4349 Q1019.63 38.994 1017.11 35.7938 Q1014.6 32.5936 1009.58 32.5936 Q1003.54 32.5936 1000.06 36.4419 Q996.576 40.2903 996.576 46.9338 L996.576 72.576 L989.082 72.576 L989.082 27.2059 L996.576 27.2059 L996.576 34.2544 Q999.25 30.163 1002.85 28.1376 Q1006.5 26.1121 1011.24 26.1121 Q1019.06 26.1121 1023.07 30.9732 Q1027.08 35.7938 1027.08 45.1919 Z" fill="#000000" fill-rule="nonzero" fill-opacity="1" /><path clip-path="url(#clip850)" d="M1071.8 49.3643 Q1071.8 41.2625 1068.44 36.8065 Q1065.12 32.3505 1059.08 32.3505 Q1053.09 32.3505 1049.72 36.8065 Q1046.4 41.2625 1046.4 49.3643 Q1046.4 57.4256 1049.72 61.8816 Q1053.09 66.3376 1059.08 66.3376 Q1065.12 66.3376 1068.44 61.8816 Q1071.8 57.4256 1071.8 49.3643 M1079.25 66.9452 Q1079.25 78.5308 1074.11 84.1616 Q1068.97 89.8329 1058.35 89.8329 Q1054.42 89.8329 1050.94 89.2252 Q1047.46 88.6581 1044.17 87.4428 L1044.17 80.1917 Q1047.46 81.9741 1050.66 82.8248 Q1053.86 83.6755 1057.18 83.6755 Q1064.51 83.6755 1068.16 79.8271 Q1071.8 76.0193 1071.8 68.282 L1071.8 64.5957 Q1069.49 68.6061 1065.89 70.5911 Q1062.28 72.576 1057.26 72.576 Q1048.91 72.576 1043.81 66.2161 Q1038.71 59.8562 1038.71 49.3643 Q1038.71 38.832 1043.81 32.472 Q1048.91 26.1121 1057.26 26.1121 Q1062.28 26.1121 1065.89 28.0971 Q1069.49 30.082 1071.8 34.0924 L1071.8 27.2059 L1079.25 27.2059 L1079.25 66.9452 Z" fill="#000000" fill-rule="nonzero" fill-opacity="1" /><path clip-path="url(#clip850)" d="M1123.53 28.5427 L1123.53 35.5912 Q1120.37 33.9709 1116.97 33.1607 Q1113.57 32.3505 1109.92 32.3505 Q1104.37 32.3505 1101.58 34.0519 Q1098.82 35.7533 1098.82 39.156 Q1098.82 41.7486 1100.81 43.2475 Q1102.79 44.7058 1108.79 46.0426 L1111.34 46.6097 Q1119.28 48.3111 1122.6 51.4303 Q1125.96 54.509 1125.96 60.0587 Q1125.96 66.3781 1120.94 70.0644 Q1115.96 73.7508 1107.21 73.7508 Q1103.56 73.7508 1099.59 73.0216 Q1095.66 72.3329 1091.29 70.9151 L1091.29 63.2184 Q1095.42 65.3654 1099.43 66.4591 Q1103.44 67.5124 1107.37 67.5124 Q1112.63 67.5124 1115.47 65.73 Q1118.31 63.9071 1118.31 60.6258 Q1118.31 57.5877 1116.24 55.9673 Q1114.21 54.3469 1107.29 52.8481 L1104.69 52.2405 Q1097.77 50.7821 1094.69 47.7845 Q1091.61 44.7463 1091.61 39.4801 Q1091.61 33.0797 1096.15 29.5959 Q1100.68 26.1121 1109.03 26.1121 Q1113.16 26.1121 1116.81 26.7198 Q1120.45 27.3274 1123.53 28.5427 Z" fill="#000000" fill-rule="nonzero" fill-opacity="1" /><path clip-path="url(#clip850)" d="M1137.83 27.2059 L1145.28 27.2059 L1145.28 72.576 L1137.83 72.576 L1137.83 27.2059 M1137.83 9.54393 L1145.28 9.54393 L1145.28 18.9825 L1137.83 18.9825 L1137.83 9.54393 Z" fill="#000000" fill-rule="nonzero" fill-opacity="1" /><path clip-path="url(#clip850)" d="M1186.48 54.671 L1186.48 27.2059 L1193.94 27.2059 L1193.94 54.3874 Q1193.94 60.8284 1196.45 64.0691 Q1198.96 67.2693 1203.98 67.2693 Q1210.02 67.2693 1213.5 63.421 Q1217.03 59.5726 1217.03 52.9291 L1217.03 27.2059 L1224.48 27.2059 L1224.48 72.576 L1217.03 72.576 L1217.03 65.6084 Q1214.31 69.7404 1210.71 71.7658 Q1207.14 73.7508 1202.4 73.7508 Q1194.58 73.7508 1190.53 68.8897 Q1186.48 64.0286 1186.48 54.671 M1205.24 26.1121 L1205.24 26.1121 Z" fill="#000000" fill-rule="nonzero" fill-opacity="1" /><path clip-path="url(#clip850)" d="M1277.55 45.1919 L1277.55 72.576 L1270.09 72.576 L1270.09 45.4349 Q1270.09 38.994 1267.58 35.7938 Q1265.07 32.5936 1260.05 32.5936 Q1254.01 32.5936 1250.53 36.4419 Q1247.04 40.2903 1247.04 46.9338 L1247.04 72.576 L1239.55 72.576 L1239.55 27.2059 L1247.04 27.2059 L1247.04 34.2544 Q1249.72 30.163 1253.32 28.1376 Q1256.97 26.1121 1261.71 26.1121 Q1269.53 26.1121 1273.54 30.9732 Q1277.55 35.7938 1277.55 45.1919 Z" fill="#000000" fill-rule="nonzero" fill-opacity="1" /><path clip-path="url(#clip850)" d="M1299.79 14.324 L1299.79 27.2059 L1315.14 27.2059 L1315.14 32.9987 L1299.79 32.9987 L1299.79 57.6282 Q1299.79 63.1779 1301.28 64.7578 Q1302.82 66.3376 1307.48 66.3376 L1315.14 66.3376 L1315.14 72.576 L1307.48 72.576 Q1298.85 72.576 1295.57 69.3758 Q1292.29 66.1351 1292.29 57.6282 L1292.29 32.9987 L1286.82 32.9987 L1286.82 27.2059 L1292.29 27.2059 L1292.29 14.324 L1299.79 14.324 Z" fill="#000000" fill-rule="nonzero" fill-opacity="1" /><path clip-path="url(#clip850)" d="M1324.17 54.671 L1324.17 27.2059 L1331.63 27.2059 L1331.63 54.3874 Q1331.63 60.8284 1334.14 64.0691 Q1336.65 67.2693 1341.67 67.2693 Q1347.71 67.2693 1351.19 63.421 Q1354.72 59.5726 1354.72 52.9291 L1354.72 27.2059 L1362.17 27.2059 L1362.17 72.576 L1354.72 72.576 L1354.72 65.6084 Q1352 69.7404 1348.4 71.7658 Q1344.83 73.7508 1340.09 73.7508 Q1332.27 73.7508 1328.22 68.8897 Q1324.17 64.0286 1324.17 54.671 M1342.93 26.1121 L1342.93 26.1121 Z" fill="#000000" fill-rule="nonzero" fill-opacity="1" /><path clip-path="url(#clip850)" d="M1377.24 9.54393 L1384.73 9.54393 L1384.73 46.7717 L1406.97 27.2059 L1416.49 27.2059 L1392.43 48.4326 L1417.51 72.576 L1407.78 72.576 L1384.73 50.4176 L1384.73 72.576 L1377.24 72.576 L1377.24 9.54393 Z" fill="#000000" fill-rule="nonzero" fill-opacity="1" /><path clip-path="url(#clip850)" d="M1443.88 12.096 L1495.04 12.096 L1495.04 18.9825 L1473.57 18.9825 L1473.57 72.576 L1465.35 72.576 L1465.35 18.9825 L1443.88 18.9825 L1443.88 12.096 Z" fill="#000000" fill-rule="nonzero" fill-opacity="1" /><path clip-path="url(#clip850)" d="M1527.33 48.0275 L1527.33 51.6733 L1493.05 51.6733 Q1493.54 59.3701 1497.67 63.421 Q1501.85 67.4314 1509.26 67.4314 Q1513.55 67.4314 1517.56 66.3781 Q1521.61 65.3249 1525.58 63.2184 L1525.58 70.267 Q1521.57 71.9684 1517.36 72.8596 Q1513.15 73.7508 1508.81 73.7508 Q1497.96 73.7508 1491.6 67.4314 Q1485.28 61.1119 1485.28 50.3365 Q1485.28 39.1965 1491.27 32.6746 Q1497.31 26.1121 1507.52 26.1121 Q1516.67 26.1121 1521.98 32.0264 Q1527.33 37.9003 1527.33 48.0275 M1519.87 45.84 Q1519.79 39.7232 1516.43 36.0774 Q1513.11 32.4315 1507.6 32.4315 Q1501.36 32.4315 1497.59 35.9558 Q1493.86 39.4801 1493.3 45.8805 L1519.87 45.84 Z" fill="#000000" fill-rule="nonzero" fill-opacity="1" /><path clip-path="url(#clip850)" d="M1577.27 45.1919 L1577.27 72.576 L1569.82 72.576 L1569.82 45.4349 Q1569.82 38.994 1567.31 35.7938 Q1564.8 32.5936 1559.77 32.5936 Q1553.74 32.5936 1550.25 36.4419 Q1546.77 40.2903 1546.77 46.9338 L1546.77 72.576 L1539.28 72.576 L1539.28 27.2059 L1546.77 27.2059 L1546.77 34.2544 Q1549.44 30.163 1553.05 28.1376 Q1556.69 26.1121 1561.43 26.1121 Q1569.25 26.1121 1573.26 30.9732 Q1577.27 35.7938 1577.27 45.1919 Z" fill="#000000" fill-rule="nonzero" fill-opacity="1" /><path clip-path="url(#clip850)" d="M1612.76 49.7694 Q1603.73 49.7694 1600.24 51.8354 Q1596.76 53.9013 1596.76 58.8839 Q1596.76 62.8538 1599.35 65.2034 Q1601.98 67.5124 1606.48 67.5124 Q1612.68 67.5124 1616.4 63.1374 Q1620.17 58.7219 1620.17 51.4303 L1620.17 49.7694 L1612.76 49.7694 M1627.63 46.6907 L1627.63 72.576 L1620.17 72.576 L1620.17 65.6895 Q1617.62 69.8214 1613.81 71.8063 Q1610 73.7508 1604.5 73.7508 Q1597.53 73.7508 1593.4 69.8619 Q1589.3 65.9325 1589.3 59.3701 Q1589.3 51.7138 1594.41 47.825 Q1599.55 43.9361 1609.72 43.9361 L1620.17 43.9361 L1620.17 43.2069 Q1620.17 38.0623 1616.77 35.2672 Q1613.41 32.4315 1607.29 32.4315 Q1603.4 32.4315 1599.72 33.3632 Q1596.03 34.295 1592.63 36.1584 L1592.63 29.2718 Q1596.72 27.692 1600.57 26.9223 Q1604.41 26.1121 1608.06 26.1121 Q1617.9 26.1121 1622.76 31.2163 Q1627.63 36.3204 1627.63 46.6907 Z" fill="#000000" fill-rule="nonzero" fill-opacity="1" /><path clip-path="url(#clip850)" d="M1672.83 49.3643 Q1672.83 41.2625 1669.47 36.8065 Q1666.15 32.3505 1660.11 32.3505 Q1654.12 32.3505 1650.76 36.8065 Q1647.43 41.2625 1647.43 49.3643 Q1647.43 57.4256 1650.76 61.8816 Q1654.12 66.3376 1660.11 66.3376 Q1666.15 66.3376 1669.47 61.8816 Q1672.83 57.4256 1672.83 49.3643 M1680.29 66.9452 Q1680.29 78.5308 1675.14 84.1616 Q1670 89.8329 1659.38 89.8329 Q1655.46 89.8329 1651.97 89.2252 Q1648.49 88.6581 1645.21 87.4428 L1645.21 80.1917 Q1648.49 81.9741 1651.69 82.8248 Q1654.89 83.6755 1658.21 83.6755 Q1665.54 83.6755 1669.19 79.8271 Q1672.83 76.0193 1672.83 68.282 L1672.83 64.5957 Q1670.52 68.6061 1666.92 70.5911 Q1663.31 72.576 1658.29 72.576 Q1649.95 72.576 1644.84 66.2161 Q1639.74 59.8562 1639.74 49.3643 Q1639.74 38.832 1644.84 32.472 Q1649.95 26.1121 1658.29 26.1121 Q1663.31 26.1121 1666.92 28.0971 Q1670.52 30.082 1672.83 34.0924 L1672.83 27.2059 L1680.29 27.2059 L1680.29 66.9452 Z" fill="#000000" fill-rule="nonzero" fill-opacity="1" /><path clip-path="url(#clip850)" d="M1716.26 49.7694 Q1707.23 49.7694 1703.74 51.8354 Q1700.26 53.9013 1700.26 58.8839 Q1700.26 62.8538 1702.85 65.2034 Q1705.48 67.5124 1709.98 67.5124 Q1716.18 67.5124 1719.91 63.1374 Q1723.67 58.7219 1723.67 51.4303 L1723.67 49.7694 L1716.26 49.7694 M1731.13 46.6907 L1731.13 72.576 L1723.67 72.576 L1723.67 65.6895 Q1721.12 69.8214 1717.31 71.8063 Q1713.5 73.7508 1708 73.7508 Q1701.03 73.7508 1696.9 69.8619 Q1692.8 65.9325 1692.8 59.3701 Q1692.8 51.7138 1697.91 47.825 Q1703.05 43.9361 1713.22 43.9361 L1723.67 43.9361 L1723.67 43.2069 Q1723.67 38.0623 1720.27 35.2672 Q1716.91 32.4315 1710.79 32.4315 Q1706.9 32.4315 1703.22 33.3632 Q1699.53 34.295 1696.13 36.1584 L1696.13 29.2718 Q1700.22 27.692 1704.07 26.9223 Q1707.91 26.1121 1711.56 26.1121 Q1721.4 26.1121 1726.27 31.2163 Q1731.13 36.3204 1731.13 46.6907 Z" fill="#000000" fill-rule="nonzero" fill-opacity="1" /><polyline clip-path="url(#clip852)" style="stroke:#009af9; stroke-linecap:round; stroke-linejoin:round; stroke-width:4; stroke-opacity:1; fill:none" points="331.177,160.256 351.003,255.926 370.828,346.278 390.653,431.511 410.478,511.817 430.304,587.381 450.129,658.385 469.954,725.003 489.779,787.408 509.605,845.764 529.43,900.233 549.255,950.97 569.08,998.128 588.905,1041.85 608.731,1082.29 628.556,1119.57 648.381,1153.84 668.206,1185.21 688.032,1213.83 707.857,1239.81 727.682,1263.26 747.507,1284.31 767.332,1303.07 787.158,1319.63 806.983,1334.12 826.808,1346.62 846.633,1357.23 866.459,1366.05 886.284,1373.18 906.109,1378.69 925.934,1382.68 945.76,1385.22 965.585,1386.4 985.41,1386.28 1005.24,1384.96 1025.06,1382.49 1044.89,1378.95 1064.71,1374.4 1084.54,1368.91 1104.36,1362.54 1124.19,1355.35 1144.01,1347.39 1163.84,1338.73 1183.66,1329.41 1203.49,1319.48 1223.31,1309 1243.14,1298.01 1262.96,1286.56 1282.79,1274.69 1302.61,1262.44 1322.44,1249.85 1342.26,1236.97 1362.09,1223.82 1381.91,1210.44 1401.74,1196.87 1421.56,1183.14 1441.39,1169.27 1461.22,1155.31 1481.04,1141.27 1500.87,1127.18 1520.69,1113.07 1540.52,1098.97 1560.34,1084.88 1580.17,1070.85 1599.99,1056.88 1619.82,1043 1639.64,1029.23 1659.47,1015.58 1679.29,1002.07 1699.12,988.713 1718.94,975.528 1738.77,962.525 1758.59,949.719 1778.42,937.121 1798.24,924.743 1818.07,912.595 1837.89,900.687 1857.72,889.027 1877.55,877.624 1897.37,866.485 1917.2,855.618 1937.02,845.028 1956.85,834.721 1976.67,824.703 1996.5,814.978 2016.32,805.55 2036.15,796.422 2055.97,787.597 2075.8,779.078 2095.62,770.867 2115.45,762.966 2135.27,755.375 2155.1,748.095 2174.92,741.128 2194.75,734.472 2214.57,728.128 2234.4,722.094 2254.22,716.37 2274.05,710.955 2293.87,705.846 "/>
<path clip-path="url(#clip850)" d="M2022.93 270.476 L2283.41 270.476 L2283.41 166.796 L2022.93 166.796  Z" fill="#ffffff" fill-rule="evenodd" fill-opacity="1"/>
<polyline clip-path="url(#clip850)" style="stroke:#000000; stroke-linecap:round; stroke-linejoin:round; stroke-width:4; stroke-opacity:1; fill:none" points="2022.93,270.476 2283.41,270.476 2283.41,166.796 2022.93,166.796 2022.93,270.476 "/>
<polyline clip-path="url(#clip850)" style="stroke:#009af9; stroke-linecap:round; stroke-linejoin:round; stroke-width:4; stroke-opacity:1; fill:none" points="2046.05,218.636 2184.74,218.636 "/>
<path clip-path="url(#clip850)" d="M2221.7 238.323 Q2219.9 242.953 2218.18 244.365 Q2216.47 245.777 2213.6 245.777 L2210.2 245.777 L2210.2 242.212 L2212.7 242.212 Q2214.46 242.212 2215.43 241.379 Q2216.4 240.545 2217.58 237.443 L2218.35 235.499 L2207.86 209.99 L2212.37 209.99 L2220.48 230.268 L2228.58 209.99 L2233.09 209.99 L2221.7 238.323 Z" fill="#000000" fill-rule="nonzero" fill-opacity="1" /><path clip-path="url(#clip850)" d="M2240.38 231.981 L2248.02 231.981 L2248.02 205.615 L2239.71 207.282 L2239.71 203.022 L2247.98 201.356 L2252.65 201.356 L2252.65 231.981 L2260.29 231.981 L2260.29 235.916 L2240.38 235.916 L2240.38 231.981 Z" fill="#000000" fill-rule="nonzero" fill-opacity="1" /></svg>
