<?xml version="1.0" encoding="utf-8"?>
<svg xmlns="http://www.w3.org/2000/svg" xmlns:xlink="http://www.w3.org/1999/xlink" width="600" height="400" viewBox="0 0 2400 1600">
<defs>
  <clipPath id="clip220">
    <rect x="0" y="0" width="2400" height="1600"/>
  </clipPath>
</defs>
<path clip-path="url(#clip220)" d="M0 1600 L2400 1600 L2400 8.88178e-14 L0 8.88178e-14  Z" fill="#ffffff" fill-rule="evenodd" fill-opacity="1"/>
<defs>
  <clipPath id="clip221">
    <rect x="256" y="123" width="2097" height="1301"/>
  </clipPath>
</defs>
<path clip-path="url(#clip220)" d="M256.556 1423.18 L2352.76 1423.18 L2352.76 123.472 L256.556 123.472  Z" fill="#ffffff" fill-rule="evenodd" fill-opacity="1"/>
<polyline clip-path="url(#clip221)" style="stroke:#000000; stroke-linecap:round; stroke-linejoin:round; stroke-width:2; stroke-opacity:0.1; fill:none" points="315.882,1423.18 315.882,123.472 "/>
<polyline clip-path="url(#clip221)" style="stroke:#000000; stroke-linecap:round; stroke-linejoin:round; stroke-width:2; stroke-opacity:0.1; fill:none" points="810.269,1423.18 810.269,123.472 "/>
<polyline clip-path="url(#clip221)" style="stroke:#000000; stroke-linecap:round; stroke-linejoin:round; stroke-width:2; stroke-opacity:0.1; fill:none" points="1304.66,1423.18 1304.66,123.472 "/>
<polyline clip-path="url(#clip221)" style="stroke:#000000; stroke-linecap:round; stroke-linejoin:round; stroke-width:2; stroke-opacity:0.1; fill:none" points="1799.04,1423.18 1799.04,123.472 "/>
<polyline clip-path="url(#clip221)" style="stroke:#000000; stroke-linecap:round; stroke-linejoin:round; stroke-width:2; stroke-opacity:0.1; fill:none" points="2293.43,1423.18 2293.43,123.472 "/>
<polyline clip-path="url(#clip221)" style="stroke:#000000; stroke-linecap:round; stroke-linejoin:round; stroke-width:2; stroke-opacity:0.1; fill:none" points="256.556,1407.61 2352.76,1407.61 "/>
<polyline clip-path="url(#clip221)" style="stroke:#000000; stroke-linecap:round; stroke-linejoin:round; stroke-width:2; stroke-opacity:0.1; fill:none" points="256.556,1204.51 2352.76,1204.51 "/>
<polyline clip-path="url(#clip221)" style="stroke:#000000; stroke-linecap:round; stroke-linejoin:round; stroke-width:2; stroke-opacity:0.1; fill:none" points="256.556,1001.41 2352.76,1001.41 "/>
<polyline clip-path="url(#clip221)" style="stroke:#000000; stroke-linecap:round; stroke-linejoin:round; stroke-width:2; stroke-opacity:0.1; fill:none" points="256.556,798.31 2352.76,798.31 "/>
<polyline clip-path="url(#clip221)" style="stroke:#000000; stroke-linecap:round; stroke-linejoin:round; stroke-width:2; stroke-opacity:0.1; fill:none" points="256.556,595.211 2352.76,595.211 "/>
<polyline clip-path="url(#clip221)" style="stroke:#000000; stroke-linecap:round; stroke-linejoin:round; stroke-width:2; stroke-opacity:0.1; fill:none" points="256.556,392.112 2352.76,392.112 "/>
<polyline clip-path="url(#clip221)" style="stroke:#000000; stroke-linecap:round; stroke-linejoin:round; stroke-width:2; stroke-opacity:0.1; fill:none" points="256.556,189.014 2352.76,189.014 "/>
<polyline clip-path="url(#clip220)" style="stroke:#000000; stroke-linecap:round; stroke-linejoin:round; stroke-width:4; stroke-opacity:1; fill:none" points="256.556,1423.18 2352.76,1423.18 "/>
<polyline clip-path="url(#clip220)" style="stroke:#000000; stroke-linecap:round; stroke-linejoin:round; stroke-width:4; stroke-opacity:1; fill:none" points="315.882,1423.18 315.882,1404.28 "/>
<polyline clip-path="url(#clip220)" style="stroke:#000000; stroke-linecap:round; stroke-linejoin:round; stroke-width:4; stroke-opacity:1; fill:none" points="810.269,1423.18 810.269,1404.28 "/>
<polyline clip-path="url(#clip220)" style="stroke:#000000; stroke-linecap:round; stroke-linejoin:round; stroke-width:4; stroke-opacity:1; fill:none" points="1304.66,1423.18 1304.66,1404.28 "/>
<polyline clip-path="url(#clip220)" style="stroke:#000000; stroke-linecap:round; stroke-linejoin:round; stroke-width:4; stroke-opacity:1; fill:none" points="1799.04,1423.18 1799.04,1404.28 "/>
<polyline clip-path="url(#clip220)" style="stroke:#000000; stroke-linecap:round; stroke-linejoin:round; stroke-width:4; stroke-opacity:1; fill:none" points="2293.43,1423.18 2293.43,1404.28 "/>
<path clip-path="url(#clip220)" d="M293.267 1454.1 Q289.656 1454.1 287.827 1457.66 Q286.021 1461.2 286.021 1468.33 Q286.021 1475.44 287.827 1479.01 Q289.656 1482.55 293.267 1482.55 Q296.901 1482.55 298.706 1479.01 Q300.535 1475.44 300.535 1468.33 Q300.535 1461.2 298.706 1457.66 Q296.901 1454.1 293.267 1454.1 M293.267 1450.39 Q299.077 1450.39 302.132 1455 Q305.211 1459.58 305.211 1468.33 Q305.211 1477.06 302.132 1481.67 Q299.077 1486.25 293.267 1486.25 Q287.457 1486.25 284.378 1481.67 Q281.322 1477.06 281.322 1468.33 Q281.322 1459.58 284.378 1455 Q287.457 1450.39 293.267 1450.39 Z" fill="#000000" fill-rule="nonzero" fill-opacity="1" /><path clip-path="url(#clip220)" d="M313.429 1479.7 L318.313 1479.7 L318.313 1485.58 L313.429 1485.58 L313.429 1479.7 Z" fill="#000000" fill-rule="nonzero" fill-opacity="1" /><path clip-path="url(#clip220)" d="M338.498 1454.1 Q334.887 1454.1 333.058 1457.66 Q331.253 1461.2 331.253 1468.33 Q331.253 1475.44 333.058 1479.01 Q334.887 1482.55 338.498 1482.55 Q342.132 1482.55 343.938 1479.01 Q345.766 1475.44 345.766 1468.33 Q345.766 1461.2 343.938 1457.66 Q342.132 1454.1 338.498 1454.1 M338.498 1450.39 Q344.308 1450.39 347.364 1455 Q350.442 1459.58 350.442 1468.33 Q350.442 1477.06 347.364 1481.67 Q344.308 1486.25 338.498 1486.25 Q332.688 1486.25 329.609 1481.67 Q326.554 1477.06 326.554 1468.33 Q326.554 1459.58 329.609 1455 Q332.688 1450.39 338.498 1450.39 Z" fill="#000000" fill-rule="nonzero" fill-opacity="1" /><path clip-path="url(#clip220)" d="M782.005 1481.64 L798.325 1481.64 L798.325 1485.58 L776.38 1485.58 L776.38 1481.64 Q779.042 1478.89 783.626 1474.26 Q788.232 1469.61 789.413 1468.27 Q791.658 1465.74 792.538 1464.01 Q793.44 1462.25 793.44 1460.56 Q793.44 1457.8 791.496 1456.07 Q789.575 1454.33 786.473 1454.33 Q784.274 1454.33 781.82 1455.09 Q779.39 1455.86 776.612 1457.41 L776.612 1452.69 Q779.436 1451.55 781.89 1450.97 Q784.343 1450.39 786.38 1450.39 Q791.751 1450.39 794.945 1453.08 Q798.14 1455.77 798.14 1460.26 Q798.14 1462.39 797.329 1464.31 Q796.542 1466.2 794.436 1468.8 Q793.857 1469.47 790.755 1472.69 Q787.653 1475.88 782.005 1481.64 Z" fill="#000000" fill-rule="nonzero" fill-opacity="1" /><path clip-path="url(#clip220)" d="M808.139 1479.7 L813.024 1479.7 L813.024 1485.58 L808.139 1485.58 L808.139 1479.7 Z" fill="#000000" fill-rule="nonzero" fill-opacity="1" /><path clip-path="url(#clip220)" d="M823.255 1451.02 L841.612 1451.02 L841.612 1454.96 L827.538 1454.96 L827.538 1463.43 Q828.556 1463.08 829.575 1462.92 Q830.593 1462.73 831.612 1462.73 Q837.399 1462.73 840.778 1465.9 Q844.158 1469.08 844.158 1474.49 Q844.158 1480.07 840.686 1483.17 Q837.213 1486.25 830.894 1486.25 Q828.718 1486.25 826.45 1485.88 Q824.204 1485.51 821.797 1484.77 L821.797 1480.07 Q823.88 1481.2 826.102 1481.76 Q828.325 1482.32 830.801 1482.32 Q834.806 1482.32 837.144 1480.21 Q839.482 1478.1 839.482 1474.49 Q839.482 1470.88 837.144 1468.77 Q834.806 1466.67 830.801 1466.67 Q828.926 1466.67 827.051 1467.08 Q825.2 1467.5 823.255 1468.38 L823.255 1451.02 Z" fill="#000000" fill-rule="nonzero" fill-opacity="1" /><path clip-path="url(#clip220)" d="M1271.82 1451.02 L1290.18 1451.02 L1290.18 1454.96 L1276.1 1454.96 L1276.1 1463.43 Q1277.12 1463.08 1278.14 1462.92 Q1279.16 1462.73 1280.18 1462.73 Q1285.96 1462.73 1289.34 1465.9 Q1292.72 1469.08 1292.72 1474.49 Q1292.72 1480.07 1289.25 1483.17 Q1285.78 1486.25 1279.46 1486.25 Q1277.28 1486.25 1275.01 1485.88 Q1272.77 1485.51 1270.36 1484.77 L1270.36 1480.07 Q1272.45 1481.2 1274.67 1481.76 Q1276.89 1482.32 1279.37 1482.32 Q1283.37 1482.32 1285.71 1480.21 Q1288.05 1478.1 1288.05 1474.49 Q1288.05 1470.88 1285.71 1468.77 Q1283.37 1466.67 1279.37 1466.67 Q1277.49 1466.67 1275.62 1467.08 Q1273.76 1467.5 1271.82 1468.38 L1271.82 1451.02 Z" fill="#000000" fill-rule="nonzero" fill-opacity="1" /><path clip-path="url(#clip220)" d="M1301.94 1479.7 L1306.82 1479.7 L1306.82 1485.58 L1301.94 1485.58 L1301.94 1479.7 Z" fill="#000000" fill-rule="nonzero" fill-opacity="1" /><path clip-path="url(#clip220)" d="M1327.01 1454.1 Q1323.39 1454.1 1321.57 1457.66 Q1319.76 1461.2 1319.76 1468.33 Q1319.76 1475.44 1321.57 1479.01 Q1323.39 1482.55 1327.01 1482.55 Q1330.64 1482.55 1332.45 1479.01 Q1334.27 1475.44 1334.27 1468.33 Q1334.27 1461.2 1332.45 1457.66 Q1330.64 1454.1 1327.01 1454.1 M1327.01 1450.39 Q1332.82 1450.39 1335.87 1455 Q1338.95 1459.58 1338.95 1468.33 Q1338.95 1477.06 1335.87 1481.67 Q1332.82 1486.25 1327.01 1486.25 Q1321.2 1486.25 1318.12 1481.67 Q1315.06 1477.06 1315.06 1468.33 Q1315.06 1459.58 1318.12 1455 Q1321.2 1450.39 1327.01 1450.39 Z" fill="#000000" fill-rule="nonzero" fill-opacity="1" /><path clip-path="url(#clip220)" d="M1765.36 1451.02 L1787.58 1451.02 L1787.58 1453.01 L1775.04 1485.58 L1770.15 1485.58 L1781.96 1454.96 L1765.36 1454.96 L1765.36 1451.02 Z" fill="#000000" fill-rule="nonzero" fill-opacity="1" /><path clip-path="url(#clip220)" d="M1796.7 1479.7 L1801.59 1479.7 L1801.59 1485.58 L1796.7 1485.58 L1796.7 1479.7 Z" fill="#000000" fill-rule="nonzero" fill-opacity="1" /><path clip-path="url(#clip220)" d="M1811.82 1451.02 L1830.18 1451.02 L1830.18 1454.96 L1816.1 1454.96 L1816.1 1463.43 Q1817.12 1463.08 1818.14 1462.92 Q1819.16 1462.73 1820.18 1462.73 Q1825.96 1462.73 1829.34 1465.9 Q1832.72 1469.08 1832.72 1474.49 Q1832.72 1480.07 1829.25 1483.17 Q1825.78 1486.25 1819.46 1486.25 Q1817.28 1486.25 1815.01 1485.88 Q1812.77 1485.51 1810.36 1484.77 L1810.36 1480.07 Q1812.45 1481.2 1814.67 1481.76 Q1816.89 1482.32 1819.37 1482.32 Q1823.37 1482.32 1825.71 1480.21 Q1828.05 1478.1 1828.05 1474.49 Q1828.05 1470.88 1825.71 1468.77 Q1823.37 1466.67 1819.37 1466.67 Q1817.49 1466.67 1815.62 1467.08 Q1813.76 1467.5 1811.82 1468.38 L1811.82 1451.02 Z" fill="#000000" fill-rule="nonzero" fill-opacity="1" /><path clip-path="url(#clip220)" d="M2245.5 1481.64 L2253.14 1481.64 L2253.14 1455.28 L2244.83 1456.95 L2244.83 1452.69 L2253.09 1451.02 L2257.77 1451.02 L2257.77 1481.64 L2265.41 1481.64 L2265.41 1485.58 L2245.5 1485.58 L2245.5 1481.64 Z" fill="#000000" fill-rule="nonzero" fill-opacity="1" /><path clip-path="url(#clip220)" d="M2284.85 1454.1 Q2281.24 1454.1 2279.41 1457.66 Q2277.61 1461.2 2277.61 1468.33 Q2277.61 1475.44 2279.41 1479.01 Q2281.24 1482.55 2284.85 1482.55 Q2288.49 1482.55 2290.29 1479.01 Q2292.12 1475.44 2292.12 1468.33 Q2292.12 1461.2 2290.29 1457.66 Q2288.49 1454.1 2284.85 1454.1 M2284.85 1450.39 Q2290.66 1450.39 2293.72 1455 Q2296.8 1459.58 2296.8 1468.33 Q2296.8 1477.06 2293.72 1481.67 Q2290.66 1486.25 2284.85 1486.25 Q2279.04 1486.25 2275.96 1481.67 Q2272.91 1477.06 2272.91 1468.33 Q2272.91 1459.58 2275.96 1455 Q2279.04 1450.39 2284.85 1450.39 Z" fill="#000000" fill-rule="nonzero" fill-opacity="1" /><path clip-path="url(#clip220)" d="M2305.02 1479.7 L2309.9 1479.7 L2309.9 1485.58 L2305.02 1485.58 L2305.02 1479.7 Z" fill="#000000" fill-rule="nonzero" fill-opacity="1" /><path clip-path="url(#clip220)" d="M2330.08 1454.1 Q2326.47 1454.1 2324.64 1457.66 Q2322.84 1461.2 2322.84 1468.33 Q2322.84 1475.44 2324.64 1479.01 Q2326.47 1482.55 2330.08 1482.55 Q2333.72 1482.55 2335.52 1479.01 Q2337.35 1475.44 2337.35 1468.33 Q2337.35 1461.2 2335.52 1457.66 Q2333.72 1454.1 2330.08 1454.1 M2330.08 1450.39 Q2335.89 1450.39 2338.95 1455 Q2342.03 1459.58 2342.03 1468.33 Q2342.03 1477.06 2338.95 1481.67 Q2335.89 1486.25 2330.08 1486.25 Q2324.27 1486.25 2321.2 1481.67 Q2318.14 1477.06 2318.14 1468.33 Q2318.14 1459.58 2321.2 1455 Q2324.27 1450.39 2330.08 1450.39 Z" fill="#000000" fill-rule="nonzero" fill-opacity="1" /><path clip-path="url(#clip220)" d="M1252.97 1522.27 L1252.97 1532.4 L1265.03 1532.4 L1265.03 1536.95 L1252.97 1536.95 L1252.97 1556.3 Q1252.97 1560.66 1254.14 1561.9 Q1255.35 1563.14 1259.01 1563.14 L1265.03 1563.14 L1265.03 1568.04 L1259.01 1568.04 Q1252.23 1568.04 1249.66 1565.53 Q1247.08 1562.98 1247.08 1556.3 L1247.08 1536.95 L1242.78 1536.95 L1242.78 1532.4 L1247.08 1532.4 L1247.08 1522.27 L1252.97 1522.27 Z" fill="#000000" fill-rule="nonzero" fill-opacity="1" /><path clip-path="url(#clip220)" d="M1307.52 1518.58 Q1303.26 1525.9 1301.19 1533.06 Q1299.12 1540.23 1299.12 1547.58 Q1299.12 1554.93 1301.19 1562.16 Q1303.29 1569.35 1307.52 1576.64 L1302.43 1576.64 Q1297.65 1569.16 1295.27 1561.93 Q1292.91 1554.71 1292.91 1547.58 Q1292.91 1540.48 1295.27 1533.29 Q1297.62 1526.09 1302.43 1518.58 L1307.52 1518.58 Z" fill="#000000" fill-rule="nonzero" fill-opacity="1" /><path clip-path="url(#clip220)" d="M1341.61 1533.45 L1341.61 1538.98 Q1339.13 1537.71 1336.45 1537.07 Q1333.78 1536.44 1330.91 1536.44 Q1326.55 1536.44 1324.36 1537.77 Q1322.19 1539.11 1322.19 1541.79 Q1322.19 1543.82 1323.75 1545 Q1325.31 1546.15 1330.02 1547.2 L1332.03 1547.64 Q1338.27 1548.98 1340.88 1551.43 Q1343.52 1553.85 1343.52 1558.21 Q1343.52 1563.17 1339.57 1566.07 Q1335.66 1568.97 1328.78 1568.97 Q1325.92 1568.97 1322.8 1568.39 Q1319.71 1567.85 1316.27 1566.74 L1316.27 1560.69 Q1319.52 1562.38 1322.67 1563.24 Q1325.82 1564.07 1328.91 1564.07 Q1333.05 1564.07 1335.27 1562.66 Q1337.5 1561.23 1337.5 1558.65 Q1337.5 1556.27 1335.88 1554.99 Q1334.29 1553.72 1328.85 1552.54 L1326.81 1552.07 Q1321.37 1550.92 1318.95 1548.56 Q1316.53 1546.18 1316.53 1542.04 Q1316.53 1537.01 1320.09 1534.27 Q1323.66 1531.54 1330.21 1531.54 Q1333.46 1531.54 1336.33 1532.01 Q1339.19 1532.49 1341.61 1533.45 Z" fill="#000000" fill-rule="nonzero" fill-opacity="1" /><path clip-path="url(#clip220)" d="M1351.92 1518.58 L1357.01 1518.58 Q1361.79 1526.09 1364.14 1533.29 Q1366.53 1540.48 1366.53 1547.58 Q1366.53 1554.71 1364.14 1561.93 Q1361.79 1569.16 1357.01 1576.64 L1351.92 1576.64 Q1356.15 1569.35 1358.22 1562.16 Q1360.32 1554.93 1360.32 1547.58 Q1360.32 1540.23 1358.22 1533.06 Q1356.15 1525.9 1351.92 1518.58 Z" fill="#000000" fill-rule="nonzero" fill-opacity="1" /><polyline clip-path="url(#clip220)" style="stroke:#000000; stroke-linecap:round; stroke-linejoin:round; stroke-width:4; stroke-opacity:1; fill:none" points="256.556,1423.18 256.556,123.472 "/>
<polyline clip-path="url(#clip220)" style="stroke:#000000; stroke-linecap:round; stroke-linejoin:round; stroke-width:4; stroke-opacity:1; fill:none" points="256.556,1407.61 275.454,1407.61 "/>
<polyline clip-path="url(#clip220)" style="stroke:#000000; stroke-linecap:round; stroke-linejoin:round; stroke-width:4; stroke-opacity:1; fill:none" points="256.556,1204.51 275.454,1204.51 "/>
<polyline clip-path="url(#clip220)" style="stroke:#000000; stroke-linecap:round; stroke-linejoin:round; stroke-width:4; stroke-opacity:1; fill:none" points="256.556,1001.41 275.454,1001.41 "/>
<polyline clip-path="url(#clip220)" style="stroke:#000000; stroke-linecap:round; stroke-linejoin:round; stroke-width:4; stroke-opacity:1; fill:none" points="256.556,798.31 275.454,798.31 "/>
<polyline clip-path="url(#clip220)" style="stroke:#000000; stroke-linecap:round; stroke-linejoin:round; stroke-width:4; stroke-opacity:1; fill:none" points="256.556,595.211 275.454,595.211 "/>
<polyline clip-path="url(#clip220)" style="stroke:#000000; stroke-linecap:round; stroke-linejoin:round; stroke-width:4; stroke-opacity:1; fill:none" points="256.556,392.112 275.454,392.112 "/>
<polyline clip-path="url(#clip220)" style="stroke:#000000; stroke-linecap:round; stroke-linejoin:round; stroke-width:4; stroke-opacity:1; fill:none" points="256.556,189.014 275.454,189.014 "/>
<path clip-path="url(#clip220)" d="M114.26 1408.06 L143.936 1408.06 L143.936 1411.99 L114.26 1411.99 L114.26 1408.06 Z" fill="#000000" fill-rule="nonzero" fill-opacity="1" /><path clip-path="url(#clip220)" d="M164.028 1393.4 Q160.417 1393.4 158.589 1396.97 Q156.783 1400.51 156.783 1407.64 Q156.783 1414.75 158.589 1418.31 Q160.417 1421.85 164.028 1421.85 Q167.663 1421.85 169.468 1418.31 Q171.297 1414.75 171.297 1407.64 Q171.297 1400.51 169.468 1396.97 Q167.663 1393.4 164.028 1393.4 M164.028 1389.7 Q169.839 1389.7 172.894 1394.31 Q175.973 1398.89 175.973 1407.64 Q175.973 1416.37 172.894 1420.97 Q169.839 1425.56 164.028 1425.56 Q158.218 1425.56 155.14 1420.97 Q152.084 1416.37 152.084 1407.64 Q152.084 1398.89 155.14 1394.31 Q158.218 1389.7 164.028 1389.7 Z" fill="#000000" fill-rule="nonzero" fill-opacity="1" /><path clip-path="url(#clip220)" d="M184.19 1419.01 L189.075 1419.01 L189.075 1424.89 L184.19 1424.89 L184.19 1419.01 Z" fill="#000000" fill-rule="nonzero" fill-opacity="1" /><path clip-path="url(#clip220)" d="M213.426 1406.25 Q216.783 1406.97 218.658 1409.24 Q220.556 1411.51 220.556 1414.84 Q220.556 1419.95 217.037 1422.76 Q213.519 1425.56 207.037 1425.56 Q204.862 1425.56 202.547 1425.12 Q200.255 1424.7 197.801 1423.84 L197.801 1419.33 Q199.746 1420.46 202.061 1421.04 Q204.375 1421.62 206.899 1421.62 Q211.297 1421.62 213.588 1419.89 Q215.903 1418.15 215.903 1414.84 Q215.903 1411.78 213.75 1410.07 Q211.621 1408.33 207.801 1408.33 L203.774 1408.33 L203.774 1404.49 L207.987 1404.49 Q211.436 1404.49 213.264 1403.13 Q215.093 1401.74 215.093 1399.14 Q215.093 1396.48 213.195 1395.07 Q211.32 1393.64 207.801 1393.64 Q205.88 1393.64 203.681 1394.05 Q201.482 1394.47 198.843 1395.35 L198.843 1391.18 Q201.505 1390.44 203.82 1390.07 Q206.158 1389.7 208.218 1389.7 Q213.542 1389.7 216.644 1392.13 Q219.746 1394.54 219.746 1398.66 Q219.746 1401.53 218.102 1403.52 Q216.459 1405.49 213.426 1406.25 Z" fill="#000000" fill-rule="nonzero" fill-opacity="1" /><path clip-path="url(#clip220)" d="M115.209 1204.96 L144.885 1204.96 L144.885 1208.89 L115.209 1208.89 L115.209 1204.96 Z" fill="#000000" fill-rule="nonzero" fill-opacity="1" /><path clip-path="url(#clip220)" d="M164.977 1190.31 Q161.366 1190.31 159.538 1193.87 Q157.732 1197.41 157.732 1204.54 Q157.732 1211.65 159.538 1215.21 Q161.366 1218.75 164.977 1218.75 Q168.612 1218.75 170.417 1215.21 Q172.246 1211.65 172.246 1204.54 Q172.246 1197.41 170.417 1193.87 Q168.612 1190.31 164.977 1190.31 M164.977 1186.6 Q170.788 1186.6 173.843 1191.21 Q176.922 1195.79 176.922 1204.54 Q176.922 1213.27 173.843 1217.87 Q170.788 1222.46 164.977 1222.46 Q159.167 1222.46 156.089 1217.87 Q153.033 1213.27 153.033 1204.54 Q153.033 1195.79 156.089 1191.21 Q159.167 1186.6 164.977 1186.6 Z" fill="#000000" fill-rule="nonzero" fill-opacity="1" /><path clip-path="url(#clip220)" d="M185.139 1215.91 L190.024 1215.91 L190.024 1221.79 L185.139 1221.79 L185.139 1215.91 Z" fill="#000000" fill-rule="nonzero" fill-opacity="1" /><path clip-path="url(#clip220)" d="M204.237 1217.85 L220.556 1217.85 L220.556 1221.79 L198.612 1221.79 L198.612 1217.85 Q201.274 1215.1 205.857 1210.47 Q210.463 1205.81 211.644 1204.47 Q213.889 1201.95 214.769 1200.21 Q215.672 1198.45 215.672 1196.76 Q215.672 1194.01 213.727 1192.27 Q211.806 1190.54 208.704 1190.54 Q206.505 1190.54 204.051 1191.3 Q201.621 1192.06 198.843 1193.62 L198.843 1188.89 Q201.667 1187.76 204.121 1187.18 Q206.574 1186.6 208.612 1186.6 Q213.982 1186.6 217.176 1189.29 Q220.371 1191.97 220.371 1196.46 Q220.371 1198.59 219.561 1200.51 Q218.773 1202.41 216.667 1205 Q216.088 1205.68 212.986 1208.89 Q209.885 1212.09 204.237 1217.85 Z" fill="#000000" fill-rule="nonzero" fill-opacity="1" /><path clip-path="url(#clip220)" d="M114.839 1001.86 L144.515 1001.86 L144.515 1005.79 L114.839 1005.79 L114.839 1001.86 Z" fill="#000000" fill-rule="nonzero" fill-opacity="1" /><path clip-path="url(#clip220)" d="M164.607 987.207 Q160.996 987.207 159.167 990.772 Q157.362 994.313 157.362 1001.44 Q157.362 1008.55 159.167 1012.11 Q160.996 1015.66 164.607 1015.66 Q168.241 1015.66 170.047 1012.11 Q171.876 1008.55 171.876 1001.44 Q171.876 994.313 170.047 990.772 Q168.241 987.207 164.607 987.207 M164.607 983.503 Q170.417 983.503 173.473 988.11 Q176.551 992.693 176.551 1001.44 Q176.551 1010.17 173.473 1014.78 Q170.417 1019.36 164.607 1019.36 Q158.797 1019.36 155.718 1014.78 Q152.663 1010.17 152.663 1001.44 Q152.663 992.693 155.718 988.11 Q158.797 983.503 164.607 983.503 Z" fill="#000000" fill-rule="nonzero" fill-opacity="1" /><path clip-path="url(#clip220)" d="M184.769 1012.81 L189.653 1012.81 L189.653 1018.69 L184.769 1018.69 L184.769 1012.81 Z" fill="#000000" fill-rule="nonzero" fill-opacity="1" /><path clip-path="url(#clip220)" d="M200.649 1014.75 L208.287 1014.75 L208.287 988.387 L199.977 990.054 L199.977 985.795 L208.241 984.128 L212.917 984.128 L212.917 1014.75 L220.556 1014.75 L220.556 1018.69 L200.649 1018.69 L200.649 1014.75 Z" fill="#000000" fill-rule="nonzero" fill-opacity="1" /><path clip-path="url(#clip220)" d="M163.38 784.108 Q159.769 784.108 157.94 787.673 Q156.135 791.215 156.135 798.344 Q156.135 805.451 157.94 809.016 Q159.769 812.557 163.38 812.557 Q167.015 812.557 168.82 809.016 Q170.649 805.451 170.649 798.344 Q170.649 791.215 168.82 787.673 Q167.015 784.108 163.38 784.108 M163.38 780.405 Q169.19 780.405 172.246 785.011 Q175.325 789.594 175.325 798.344 Q175.325 807.071 172.246 811.678 Q169.19 816.261 163.38 816.261 Q157.57 816.261 154.491 811.678 Q151.436 807.071 151.436 798.344 Q151.436 789.594 154.491 785.011 Q157.57 780.405 163.38 780.405 Z" fill="#000000" fill-rule="nonzero" fill-opacity="1" /><path clip-path="url(#clip220)" d="M183.542 809.71 L188.426 809.71 L188.426 815.59 L183.542 815.59 L183.542 809.71 Z" fill="#000000" fill-rule="nonzero" fill-opacity="1" /><path clip-path="url(#clip220)" d="M208.612 784.108 Q205 784.108 203.172 787.673 Q201.366 791.215 201.366 798.344 Q201.366 805.451 203.172 809.016 Q205 812.557 208.612 812.557 Q212.246 812.557 214.051 809.016 Q215.88 805.451 215.88 798.344 Q215.88 791.215 214.051 787.673 Q212.246 784.108 208.612 784.108 M208.612 780.405 Q214.422 780.405 217.477 785.011 Q220.556 789.594 220.556 798.344 Q220.556 807.071 217.477 811.678 Q214.422 816.261 208.612 816.261 Q202.801 816.261 199.723 811.678 Q196.667 807.071 196.667 798.344 Q196.667 789.594 199.723 785.011 Q202.801 780.405 208.612 780.405 Z" fill="#000000" fill-rule="nonzero" fill-opacity="1" /><path clip-path="url(#clip220)" d="M164.607 581.01 Q160.996 581.01 159.167 584.574 Q157.362 588.116 157.362 595.246 Q157.362 602.352 159.167 605.917 Q160.996 609.459 164.607 609.459 Q168.241 609.459 170.047 605.917 Q171.876 602.352 171.876 595.246 Q171.876 588.116 170.047 584.574 Q168.241 581.01 164.607 581.01 M164.607 577.306 Q170.417 577.306 173.473 581.912 Q176.551 586.496 176.551 595.246 Q176.551 603.972 173.473 608.579 Q170.417 613.162 164.607 613.162 Q158.797 613.162 155.718 608.579 Q152.663 603.972 152.663 595.246 Q152.663 586.496 155.718 581.912 Q158.797 577.306 164.607 577.306 Z" fill="#000000" fill-rule="nonzero" fill-opacity="1" /><path clip-path="url(#clip220)" d="M184.769 606.611 L189.653 606.611 L189.653 612.491 L184.769 612.491 L184.769 606.611 Z" fill="#000000" fill-rule="nonzero" fill-opacity="1" /><path clip-path="url(#clip220)" d="M200.649 608.556 L208.287 608.556 L208.287 582.19 L199.977 583.857 L199.977 579.598 L208.241 577.931 L212.917 577.931 L212.917 608.556 L220.556 608.556 L220.556 612.491 L200.649 612.491 L200.649 608.556 Z" fill="#000000" fill-rule="nonzero" fill-opacity="1" /><path clip-path="url(#clip220)" d="M164.977 377.911 Q161.366 377.911 159.538 381.476 Q157.732 385.017 157.732 392.147 Q157.732 399.253 159.538 402.818 Q161.366 406.36 164.977 406.36 Q168.612 406.36 170.417 402.818 Q172.246 399.253 172.246 392.147 Q172.246 385.017 170.417 381.476 Q168.612 377.911 164.977 377.911 M164.977 374.207 Q170.788 374.207 173.843 378.814 Q176.922 383.397 176.922 392.147 Q176.922 400.874 173.843 405.48 Q170.788 410.064 164.977 410.064 Q159.167 410.064 156.089 405.48 Q153.033 400.874 153.033 392.147 Q153.033 383.397 156.089 378.814 Q159.167 374.207 164.977 374.207 Z" fill="#000000" fill-rule="nonzero" fill-opacity="1" /><path clip-path="url(#clip220)" d="M185.139 403.513 L190.024 403.513 L190.024 409.392 L185.139 409.392 L185.139 403.513 Z" fill="#000000" fill-rule="nonzero" fill-opacity="1" /><path clip-path="url(#clip220)" d="M204.237 405.457 L220.556 405.457 L220.556 409.392 L198.612 409.392 L198.612 405.457 Q201.274 402.702 205.857 398.073 Q210.463 393.42 211.644 392.078 Q213.889 389.554 214.769 387.818 Q215.672 386.059 215.672 384.369 Q215.672 381.615 213.727 379.879 Q211.806 378.142 208.704 378.142 Q206.505 378.142 204.051 378.906 Q201.621 379.67 198.843 381.221 L198.843 376.499 Q201.667 375.365 204.121 374.786 Q206.574 374.207 208.612 374.207 Q213.982 374.207 217.176 376.892 Q220.371 379.578 220.371 384.068 Q220.371 386.198 219.561 388.119 Q218.773 390.017 216.667 392.61 Q216.088 393.281 212.986 396.499 Q209.885 399.693 204.237 405.457 Z" fill="#000000" fill-rule="nonzero" fill-opacity="1" /><path clip-path="url(#clip220)" d="M164.028 174.812 Q160.417 174.812 158.589 178.377 Q156.783 181.919 156.783 189.048 Q156.783 196.155 158.589 199.72 Q160.417 203.261 164.028 203.261 Q167.663 203.261 169.468 199.72 Q171.297 196.155 171.297 189.048 Q171.297 181.919 169.468 178.377 Q167.663 174.812 164.028 174.812 M164.028 171.109 Q169.839 171.109 172.894 175.715 Q175.973 180.298 175.973 189.048 Q175.973 197.775 172.894 202.382 Q169.839 206.965 164.028 206.965 Q158.218 206.965 155.14 202.382 Q152.084 197.775 152.084 189.048 Q152.084 180.298 155.14 175.715 Q158.218 171.109 164.028 171.109 Z" fill="#000000" fill-rule="nonzero" fill-opacity="1" /><path clip-path="url(#clip220)" d="M184.19 200.414 L189.075 200.414 L189.075 206.294 L184.19 206.294 L184.19 200.414 Z" fill="#000000" fill-rule="nonzero" fill-opacity="1" /><path clip-path="url(#clip220)" d="M213.426 187.659 Q216.783 188.377 218.658 190.646 Q220.556 192.914 220.556 196.247 Q220.556 201.363 217.037 204.164 Q213.519 206.965 207.037 206.965 Q204.862 206.965 202.547 206.525 Q200.255 206.108 197.801 205.252 L197.801 200.738 Q199.746 201.872 202.061 202.451 Q204.375 203.03 206.899 203.03 Q211.297 203.03 213.588 201.294 Q215.903 199.558 215.903 196.247 Q215.903 193.192 213.75 191.479 Q211.621 189.743 207.801 189.743 L203.774 189.743 L203.774 185.9 L207.987 185.9 Q211.436 185.9 213.264 184.534 Q215.093 183.146 215.093 180.553 Q215.093 177.891 213.195 176.479 Q211.32 175.044 207.801 175.044 Q205.88 175.044 203.681 175.46 Q201.482 175.877 198.843 176.757 L198.843 172.59 Q201.505 171.849 203.82 171.479 Q206.158 171.109 208.218 171.109 Q213.542 171.109 216.644 173.539 Q219.746 175.947 219.746 180.067 Q219.746 182.937 218.102 184.928 Q216.459 186.896 213.426 187.659 Z" fill="#000000" fill-rule="nonzero" fill-opacity="1" /><path clip-path="url(#clip220)" d="M16.4842 838.59 L16.4842 829.933 L56.238 808.863 L16.4842 808.863 L16.4842 802.624 L64.0042 802.624 L64.0042 811.282 L24.2503 832.352 L64.0042 832.352 L64.0042 838.59 L16.4842 838.59 Z" fill="#000000" fill-rule="nonzero" fill-opacity="1" /><path clip-path="url(#clip220)" d="M28.3562 790.084 L28.3562 784.227 L64.0042 784.227 L64.0042 790.084 L28.3562 790.084 M14.479 790.084 L14.479 784.227 L21.895 784.227 L21.895 790.084 L14.479 790.084 Z" fill="#000000" fill-rule="nonzero" fill-opacity="1" /><path clip-path="url(#clip220)" d="M14.479 771.973 L14.479 766.117 L64.0042 766.117 L64.0042 771.973 L14.479 771.973 Z" fill="#000000" fill-rule="nonzero" fill-opacity="1" /><path clip-path="url(#clip220)" d="M46.0847 737.662 Q46.0847 744.76 47.7079 747.497 Q49.3312 750.234 53.2461 750.234 Q56.3653 750.234 58.2114 748.197 Q60.0256 746.129 60.0256 742.596 Q60.0256 737.726 56.5881 734.798 Q53.1188 731.837 47.3897 731.837 L46.0847 731.837 L46.0847 737.662 M43.6657 725.981 L64.0042 725.981 L64.0042 731.837 L58.5933 731.837 Q61.8398 733.843 63.3994 736.835 Q64.9272 739.826 64.9272 744.155 Q64.9272 749.63 61.8716 752.876 Q58.7843 756.091 53.6281 756.091 Q47.6125 756.091 44.5569 752.08 Q41.5014 748.038 41.5014 740.049 L41.5014 731.837 L40.9285 731.837 Q36.8862 731.837 34.6901 734.511 Q32.4621 737.153 32.4621 741.959 Q32.4621 745.015 33.1941 747.911 Q33.9262 750.807 35.3903 753.481 L29.9795 753.481 Q28.7381 750.266 28.1334 747.243 Q27.4968 744.219 27.4968 741.354 Q27.4968 733.62 31.5072 729.8 Q35.5176 725.981 43.6657 725.981 Z" fill="#000000" fill-rule="nonzero" fill-opacity="1" /><path clip-path="url(#clip220)" d="M28.3562 713.918 L28.3562 708.062 L64.0042 708.062 L64.0042 713.918 L28.3562 713.918 M14.479 713.918 L14.479 708.062 L21.895 708.062 L21.895 713.918 L14.479 713.918 Z" fill="#000000" fill-rule="nonzero" fill-opacity="1" /><path clip-path="url(#clip220)" d="M430.856 12.096 L443.049 12.096 L458.483 53.2532 L473.998 12.096 L486.191 12.096 L486.191 72.576 L478.211 72.576 L478.211 19.4686 L462.615 60.9499 L454.391 60.9499 L438.795 19.4686 L438.795 72.576 L430.856 72.576 L430.856 12.096 Z" fill="#000000" fill-rule="nonzero" fill-opacity="1" /><path clip-path="url(#clip220)" d="M540.919 48.0275 L540.919 51.6733 L506.648 51.6733 Q507.134 59.3701 511.266 63.421 Q515.438 67.4314 522.852 67.4314 Q527.146 67.4314 531.156 66.3781 Q535.207 65.3249 539.177 63.2184 L539.177 70.267 Q535.166 71.9684 530.953 72.8596 Q526.741 73.7508 522.406 73.7508 Q511.55 73.7508 505.19 67.4314 Q498.87 61.1119 498.87 50.3365 Q498.87 39.1965 504.866 32.6746 Q510.901 26.1121 521.11 26.1121 Q530.265 26.1121 535.571 32.0264 Q540.919 37.9003 540.919 48.0275 M533.465 45.84 Q533.384 39.7232 530.022 36.0774 Q526.7 32.4315 521.191 32.4315 Q514.952 32.4315 511.185 35.9558 Q507.458 39.4801 506.891 45.8805 L533.465 45.84 Z" fill="#000000" fill-rule="nonzero" fill-opacity="1" /><path clip-path="url(#clip220)" d="M560.525 14.324 L560.525 27.2059 L575.878 27.2059 L575.878 32.9987 L560.525 32.9987 L560.525 57.6282 Q560.525 63.1779 562.024 64.7578 Q563.563 66.3376 568.222 66.3376 L575.878 66.3376 L575.878 72.576 L568.222 72.576 Q559.593 72.576 556.312 69.3758 Q553.031 66.1351 553.031 57.6282 L553.031 32.9987 L547.562 32.9987 L547.562 27.2059 L553.031 27.2059 L553.031 14.324 L560.525 14.324 Z" fill="#000000" fill-rule="nonzero" fill-opacity="1" /><path clip-path="url(#clip220)" d="M603.262 32.4315 Q597.267 32.4315 593.783 37.1306 Q590.299 41.7891 590.299 49.9314 Q590.299 58.0738 593.742 62.7728 Q597.226 67.4314 603.262 67.4314 Q609.217 67.4314 612.701 62.7323 Q616.184 58.0333 616.184 49.9314 Q616.184 41.8701 612.701 37.1711 Q609.217 32.4315 603.262 32.4315 M603.262 26.1121 Q612.984 26.1121 618.534 32.4315 Q624.084 38.7509 624.084 49.9314 Q624.084 61.0714 618.534 67.4314 Q612.984 73.7508 603.262 73.7508 Q593.499 73.7508 587.95 67.4314 Q582.44 61.0714 582.44 49.9314 Q582.44 38.7509 587.95 32.4315 Q593.499 26.1121 603.262 26.1121 Z" fill="#000000" fill-rule="nonzero" fill-opacity="1" /><path clip-path="url(#clip220)" d="M666.294 34.0924 L666.294 9.54393 L673.748 9.54393 L673.748 72.576 L666.294 72.576 L666.294 65.7705 Q663.945 69.8214 660.339 71.8063 Q656.775 73.7508 651.751 73.7508 Q643.528 73.7508 638.343 67.1883 Q633.198 60.6258 633.198 49.9314 Q633.198 39.2371 638.343 32.6746 Q643.528 26.1121 651.751 26.1121 Q656.775 26.1121 660.339 28.0971 Q663.945 30.0415 666.294 34.0924 M640.895 49.9314 Q640.895 58.1548 644.257 62.8538 Q647.66 67.5124 653.574 67.5124 Q659.489 67.5124 662.891 62.8538 Q666.294 58.1548 666.294 49.9314 Q666.294 41.7081 662.891 37.0496 Q659.489 32.3505 653.574 32.3505 Q647.66 32.3505 644.257 37.0496 Q640.895 41.7081 640.895 49.9314 Z" fill="#000000" fill-rule="nonzero" fill-opacity="1" /><path clip-path="url(#clip220)" d="M727.908 48.0275 L727.908 51.6733 L693.638 51.6733 Q694.124 59.3701 698.256 63.421 Q702.428 67.4314 709.841 67.4314 Q714.135 67.4314 718.146 66.3781 Q722.197 65.3249 726.167 63.2184 L726.167 70.267 Q722.156 71.9684 717.943 72.8596 Q713.73 73.7508 709.396 73.7508 Q698.539 73.7508 692.179 67.4314 Q685.86 61.1119 685.86 50.3365 Q685.86 39.1965 691.855 32.6746 Q697.891 26.1121 708.099 26.1121 Q717.255 26.1121 722.561 32.0264 Q727.908 37.9003 727.908 48.0275 M720.455 45.84 Q720.374 39.7232 717.011 36.0774 Q713.69 32.4315 708.181 32.4315 Q701.942 32.4315 698.175 35.9558 Q694.448 39.4801 693.881 45.8805 L720.455 45.84 Z" fill="#000000" fill-rule="nonzero" fill-opacity="1" /><path clip-path="url(#clip220)" d="M766.838 12.096 L805.078 12.096 L805.078 18.9825 L775.02 18.9825 L775.02 36.8875 L803.822 36.8875 L803.822 43.7741 L775.02 43.7741 L775.02 65.6895 L805.807 65.6895 L805.807 72.576 L766.838 72.576 L766.838 12.096 Z" fill="#000000" fill-rule="nonzero" fill-opacity="1" /><path clip-path="url(#clip220)" d="M818.163 54.671 L818.163 27.2059 L825.616 27.2059 L825.616 54.3874 Q825.616 60.8284 828.128 64.0691 Q830.639 67.2693 835.662 67.2693 Q841.698 67.2693 845.182 63.421 Q848.706 59.5726 848.706 52.9291 L848.706 27.2059 L856.16 27.2059 L856.16 72.576 L848.706 72.576 L848.706 65.6084 Q845.992 69.7404 842.387 71.7658 Q838.822 73.7508 834.083 73.7508 Q826.264 73.7508 822.213 68.8897 Q818.163 64.0286 818.163 54.671 M836.918 26.1121 L836.918 26.1121 Z" fill="#000000" fill-rule="nonzero" fill-opacity="1" /><path clip-path="url(#clip220)" d="M871.513 9.54393 L878.967 9.54393 L878.967 72.576 L871.513 72.576 L871.513 9.54393 Z" fill="#000000" fill-rule="nonzero" fill-opacity="1" /><path clip-path="url(#clip220)" d="M933.37 48.0275 L933.37 51.6733 L899.1 51.6733 Q899.586 59.3701 903.718 63.421 Q907.89 67.4314 915.303 67.4314 Q919.597 67.4314 923.608 66.3781 Q927.658 65.3249 931.628 63.2184 L931.628 70.267 Q927.618 71.9684 923.405 72.8596 Q919.192 73.7508 914.858 73.7508 Q904.001 73.7508 897.641 67.4314 Q891.322 61.1119 891.322 50.3365 Q891.322 39.1965 897.317 32.6746 Q903.353 26.1121 913.561 26.1121 Q922.716 26.1121 928.023 32.0264 Q933.37 37.9003 933.37 48.0275 M925.917 45.84 Q925.836 39.7232 922.473 36.0774 Q919.152 32.4315 913.642 32.4315 Q907.404 32.4315 903.637 35.9558 Q899.91 39.4801 899.343 45.8805 L925.917 45.84 Z" fill="#000000" fill-rule="nonzero" fill-opacity="1" /><path clip-path="url(#clip220)" d="M971.894 34.1734 Q970.639 33.4443 969.14 33.1202 Q967.681 32.7556 965.899 32.7556 Q959.58 32.7556 956.177 36.8875 Q952.815 40.9789 952.815 48.6757 L952.815 72.576 L945.32 72.576 L945.32 27.2059 L952.815 27.2059 L952.815 34.2544 Q955.164 30.1225 958.931 28.1376 Q962.699 26.1121 968.087 26.1121 Q968.856 26.1121 969.788 26.2337 Q970.72 26.3147 971.854 26.5172 L971.894 34.1734 Z" fill="#000000" fill-rule="nonzero" fill-opacity="1" /><path clip-path="url(#clip220)" d="M980.158 62.2867 L988.706 62.2867 L988.706 72.576 L980.158 72.576 L980.158 62.2867 M980.158 29.6769 L988.706 29.6769 L988.706 39.9662 L980.158 39.9662 L980.158 29.6769 Z" fill="#000000" fill-rule="nonzero" fill-opacity="1" /><path clip-path="url(#clip220)" d="M1061.5 28.5427 L1061.5 35.5912 Q1058.34 33.9709 1054.94 33.1607 Q1051.54 32.3505 1047.89 32.3505 Q1042.34 32.3505 1039.54 34.0519 Q1036.79 35.7533 1036.79 39.156 Q1036.79 41.7486 1038.77 43.2475 Q1040.76 44.7058 1046.76 46.0426 L1049.31 46.6097 Q1057.25 48.3111 1060.57 51.4303 Q1063.93 54.509 1063.93 60.0587 Q1063.93 66.3781 1058.91 70.0644 Q1053.93 73.7508 1045.18 73.7508 Q1041.53 73.7508 1037.56 73.0216 Q1033.63 72.3329 1029.26 70.9151 L1029.26 63.2184 Q1033.39 65.3654 1037.4 66.4591 Q1041.41 67.5124 1045.34 67.5124 Q1050.6 67.5124 1053.44 65.73 Q1056.27 63.9071 1056.27 60.6258 Q1056.27 57.5877 1054.21 55.9673 Q1052.18 54.3469 1045.26 52.8481 L1042.66 52.2405 Q1035.74 50.7821 1032.66 47.7845 Q1029.58 44.7463 1029.58 39.4801 Q1029.58 33.0797 1034.12 29.5959 Q1038.65 26.1121 1047 26.1121 Q1051.13 26.1121 1054.78 26.7198 Q1058.42 27.3274 1061.5 28.5427 Z" fill="#000000" fill-rule="nonzero" fill-opacity="1" /><path clip-path="url(#clip220)" d="M1075.52 9.54393 L1083.01 9.54393 L1083.01 46.7717 L1105.25 27.2059 L1114.77 27.2059 L1090.71 48.4326 L1115.78 72.576 L1106.06 72.576 L1083.01 50.4176 L1083.01 72.576 L1075.52 72.576 L1075.52 9.54393 Z" fill="#000000" fill-rule="nonzero" fill-opacity="1" /><path clip-path="url(#clip220)" d="M1159.69 48.0275 L1159.69 51.6733 L1125.42 51.6733 Q1125.91 59.3701 1130.04 63.421 Q1134.21 67.4314 1141.63 67.4314 Q1145.92 67.4314 1149.93 66.3781 Q1153.98 65.3249 1157.95 63.2184 L1157.95 70.267 Q1153.94 71.9684 1149.73 72.8596 Q1145.52 73.7508 1141.18 73.7508 Q1130.33 73.7508 1123.97 67.4314 Q1117.65 61.1119 1117.65 50.3365 Q1117.65 39.1965 1123.64 32.6746 Q1129.68 26.1121 1139.89 26.1121 Q1149.04 26.1121 1154.35 32.0264 Q1159.69 37.9003 1159.69 48.0275 M1152.24 45.84 Q1152.16 39.7232 1148.8 36.0774 Q1145.48 32.4315 1139.97 32.4315 Q1133.73 32.4315 1129.96 35.9558 Q1126.23 39.4801 1125.67 45.8805 L1152.24 45.84 Z" fill="#000000" fill-rule="nonzero" fill-opacity="1" /><path clip-path="url(#clip220)" d="M1207.25 35.9153 Q1210.05 30.8922 1213.94 28.5022 Q1217.82 26.1121 1223.09 26.1121 Q1230.18 26.1121 1234.03 31.0947 Q1237.88 36.0368 1237.88 45.1919 L1237.88 72.576 L1230.38 72.576 L1230.38 45.4349 Q1230.38 38.913 1228.07 35.7533 Q1225.76 32.5936 1221.02 32.5936 Q1215.23 32.5936 1211.87 36.4419 Q1208.51 40.2903 1208.51 46.9338 L1208.51 72.576 L1201.01 72.576 L1201.01 45.4349 Q1201.01 38.8725 1198.7 35.7533 Q1196.4 32.5936 1191.57 32.5936 Q1185.86 32.5936 1182.5 36.4824 Q1179.14 40.3308 1179.14 46.9338 L1179.14 72.576 L1171.64 72.576 L1171.64 27.2059 L1179.14 27.2059 L1179.14 34.2544 Q1181.69 30.082 1185.26 28.0971 Q1188.82 26.1121 1193.72 26.1121 Q1198.66 26.1121 1202.11 28.6237 Q1205.59 31.1352 1207.25 35.9153 Z" fill="#000000" fill-rule="nonzero" fill-opacity="1" /><path clip-path="url(#clip220)" d="M1273.36 49.7694 Q1264.33 49.7694 1260.85 51.8354 Q1257.36 53.9013 1257.36 58.8839 Q1257.36 62.8538 1259.95 65.2034 Q1262.59 67.5124 1267.08 67.5124 Q1273.28 67.5124 1277.01 63.1374 Q1280.78 58.7219 1280.78 51.4303 L1280.78 49.7694 L1273.36 49.7694 M1288.23 46.6907 L1288.23 72.576 L1280.78 72.576 L1280.78 65.6895 Q1278.22 69.8214 1274.42 71.8063 Q1270.61 73.7508 1265.1 73.7508 Q1258.13 73.7508 1254 69.8619 Q1249.91 65.9325 1249.91 59.3701 Q1249.91 51.7138 1255.01 47.825 Q1260.16 43.9361 1270.32 43.9361 L1280.78 43.9361 L1280.78 43.2069 Q1280.78 38.0623 1277.37 35.2672 Q1274.01 32.4315 1267.89 32.4315 Q1264.01 32.4315 1260.32 33.3632 Q1256.63 34.295 1253.23 36.1584 L1253.23 29.2718 Q1257.32 27.692 1261.17 26.9223 Q1265.02 26.1121 1268.66 26.1121 Q1278.51 26.1121 1283.37 31.2163 Q1288.23 36.3204 1288.23 46.6907 Z" fill="#000000" fill-rule="nonzero" fill-opacity="1" /><path clip-path="url(#clip220)" d="M1338.46 43.6931 L1338.46 65.8515 L1351.59 65.8515 Q1358.19 65.8515 1361.35 63.1374 Q1364.55 60.3828 1364.55 54.752 Q1364.55 49.0808 1361.35 46.4072 Q1358.19 43.6931 1351.59 43.6931 L1338.46 43.6931 M1338.46 18.8205 L1338.46 37.0496 L1350.57 37.0496 Q1356.57 37.0496 1359.48 34.8216 Q1362.44 32.5531 1362.44 27.935 Q1362.44 23.3575 1359.48 21.089 Q1356.57 18.8205 1350.57 18.8205 L1338.46 18.8205 M1330.28 12.096 L1351.18 12.096 Q1360.54 12.096 1365.6 15.9849 Q1370.67 19.8737 1370.67 27.0438 Q1370.67 32.5936 1368.07 35.8748 Q1365.48 39.156 1360.46 39.9662 Q1366.49 41.2625 1369.81 45.3944 Q1373.18 49.4858 1373.18 55.6432 Q1373.18 63.745 1367.67 68.1605 Q1362.16 72.576 1351.99 72.576 L1330.28 72.576 L1330.28 12.096 Z" fill="#000000" fill-rule="nonzero" fill-opacity="1" /><path clip-path="url(#clip220)" d="M1407.49 49.7694 Q1398.45 49.7694 1394.97 51.8354 Q1391.49 53.9013 1391.49 58.8839 Q1391.49 62.8538 1394.08 65.2034 Q1396.71 67.5124 1401.21 67.5124 Q1407.41 67.5124 1411.13 63.1374 Q1414.9 58.7219 1414.9 51.4303 L1414.9 49.7694 L1407.49 49.7694 M1422.35 46.6907 L1422.35 72.576 L1414.9 72.576 L1414.9 65.6895 Q1412.35 69.8214 1408.54 71.8063 Q1404.73 73.7508 1399.22 73.7508 Q1392.26 73.7508 1388.12 69.8619 Q1384.03 65.9325 1384.03 59.3701 Q1384.03 51.7138 1389.14 47.825 Q1394.28 43.9361 1404.45 43.9361 L1414.9 43.9361 L1414.9 43.2069 Q1414.9 38.0623 1411.5 35.2672 Q1408.14 32.4315 1402.02 32.4315 Q1398.13 32.4315 1394.44 33.3632 Q1390.76 34.295 1387.36 36.1584 L1387.36 29.2718 Q1391.45 27.692 1395.29 26.9223 Q1399.14 26.1121 1402.79 26.1121 Q1412.63 26.1121 1417.49 31.2163 Q1422.35 36.3204 1422.35 46.6907 Z" fill="#000000" fill-rule="nonzero" fill-opacity="1" /><path clip-path="url(#clip220)" d="M1470.36 28.9478 L1470.36 35.9153 Q1467.2 34.1734 1464 33.3227 Q1460.84 32.4315 1457.6 32.4315 Q1450.35 32.4315 1446.34 37.0496 Q1442.33 41.6271 1442.33 49.9314 Q1442.33 58.2358 1446.34 62.8538 Q1450.35 67.4314 1457.6 67.4314 Q1460.84 67.4314 1464 66.5807 Q1467.2 65.6895 1470.36 63.9476 L1470.36 70.8341 Q1467.24 72.2924 1463.88 73.0216 Q1460.55 73.7508 1456.79 73.7508 Q1446.54 73.7508 1440.5 67.3098 Q1434.47 60.8689 1434.47 49.9314 Q1434.47 38.832 1440.54 32.472 Q1446.66 26.1121 1457.27 26.1121 Q1460.72 26.1121 1464 26.8413 Q1467.28 27.5299 1470.36 28.9478 Z" fill="#000000" fill-rule="nonzero" fill-opacity="1" /><path clip-path="url(#clip220)" d="M1483.04 9.54393 L1490.53 9.54393 L1490.53 46.7717 L1512.77 27.2059 L1522.29 27.2059 L1498.23 48.4326 L1523.3 72.576 L1513.58 72.576 L1490.53 50.4176 L1490.53 72.576 L1483.04 72.576 L1483.04 9.54393 Z" fill="#000000" fill-rule="nonzero" fill-opacity="1" /><path clip-path="url(#clip220)" d="M1527.03 27.2059 L1534.48 27.2059 L1543.8 62.6108 L1553.08 27.2059 L1561.87 27.2059 L1571.19 62.6108 L1580.46 27.2059 L1587.92 27.2059 L1576.05 72.576 L1567.26 72.576 L1557.49 35.3887 L1547.69 72.576 L1538.9 72.576 L1527.03 27.2059 Z" fill="#000000" fill-rule="nonzero" fill-opacity="1" /><path clip-path="url(#clip220)" d="M1619.84 49.7694 Q1610.8 49.7694 1607.32 51.8354 Q1603.84 53.9013 1603.84 58.8839 Q1603.84 62.8538 1606.43 65.2034 Q1609.06 67.5124 1613.56 67.5124 Q1619.76 67.5124 1623.48 63.1374 Q1627.25 58.7219 1627.25 51.4303 L1627.25 49.7694 L1619.84 49.7694 M1634.7 46.6907 L1634.7 72.576 L1627.25 72.576 L1627.25 65.6895 Q1624.7 69.8214 1620.89 71.8063 Q1617.08 73.7508 1611.57 73.7508 Q1604.61 73.7508 1600.47 69.8619 Q1596.38 65.9325 1596.38 59.3701 Q1596.38 51.7138 1601.49 47.825 Q1606.63 43.9361 1616.8 43.9361 L1627.25 43.9361 L1627.25 43.2069 Q1627.25 38.0623 1623.85 35.2672 Q1620.48 32.4315 1614.37 32.4315 Q1610.48 32.4315 1606.79 33.3632 Q1603.11 34.295 1599.7 36.1584 L1599.7 29.2718 Q1603.79 27.692 1607.64 26.9223 Q1611.49 26.1121 1615.14 26.1121 Q1624.98 26.1121 1629.84 31.2163 Q1634.7 36.3204 1634.7 46.6907 Z" fill="#000000" fill-rule="nonzero" fill-opacity="1" /><path clip-path="url(#clip220)" d="M1676.35 34.1734 Q1675.09 33.4443 1673.59 33.1202 Q1672.13 32.7556 1670.35 32.7556 Q1664.03 32.7556 1660.63 36.8875 Q1657.27 40.9789 1657.27 48.6757 L1657.27 72.576 L1649.77 72.576 L1649.77 27.2059 L1657.27 27.2059 L1657.27 34.2544 Q1659.62 30.1225 1663.38 28.1376 Q1667.15 26.1121 1672.54 26.1121 Q1673.31 26.1121 1674.24 26.2337 Q1675.17 26.3147 1676.31 26.5172 L1676.35 34.1734 Z" fill="#000000" fill-rule="nonzero" fill-opacity="1" /><path clip-path="url(#clip220)" d="M1712.56 34.0924 L1712.56 9.54393 L1720.02 9.54393 L1720.02 72.576 L1712.56 72.576 L1712.56 65.7705 Q1710.21 69.8214 1706.61 71.8063 Q1703.04 73.7508 1698.02 73.7508 Q1689.8 73.7508 1684.61 67.1883 Q1679.47 60.6258 1679.47 49.9314 Q1679.47 39.2371 1684.61 32.6746 Q1689.8 26.1121 1698.02 26.1121 Q1703.04 26.1121 1706.61 28.0971 Q1710.21 30.0415 1712.56 34.0924 M1687.16 49.9314 Q1687.16 58.1548 1690.52 62.8538 Q1693.93 67.5124 1699.84 67.5124 Q1705.76 67.5124 1709.16 62.8538 Q1712.56 58.1548 1712.56 49.9314 Q1712.56 41.7081 1709.16 37.0496 Q1705.76 32.3505 1699.84 32.3505 Q1693.93 32.3505 1690.52 37.0496 Q1687.16 41.7081 1687.16 49.9314 Z" fill="#000000" fill-rule="nonzero" fill-opacity="1" /><path clip-path="url(#clip220)" d="M1770.25 18.8205 L1770.25 65.8515 L1780.13 65.8515 Q1792.65 65.8515 1798.44 60.1802 Q1804.27 54.509 1804.27 42.2752 Q1804.27 30.1225 1798.44 24.4918 Q1792.65 18.8205 1780.13 18.8205 L1770.25 18.8205 M1762.06 12.096 L1778.87 12.096 Q1796.46 12.096 1804.68 19.4281 Q1812.9 26.7198 1812.9 42.2752 Q1812.9 57.9117 1804.64 65.2439 Q1796.37 72.576 1778.87 72.576 L1762.06 72.576 L1762.06 12.096 Z" fill="#000000" fill-rule="nonzero" fill-opacity="1" /><path clip-path="url(#clip220)" d="M1825.62 27.2059 L1833.08 27.2059 L1833.08 72.576 L1825.62 72.576 L1825.62 27.2059 M1825.62 9.54393 L1833.08 9.54393 L1833.08 18.9825 L1825.62 18.9825 L1825.62 9.54393 Z" fill="#000000" fill-rule="nonzero" fill-opacity="1" /><path clip-path="url(#clip220)" d="M1871.64 9.54393 L1871.64 15.7418 L1864.51 15.7418 Q1860.5 15.7418 1858.92 17.3622 Q1857.38 18.9825 1857.38 23.1955 L1857.38 27.2059 L1869.66 27.2059 L1869.66 32.9987 L1857.38 32.9987 L1857.38 72.576 L1849.89 72.576 L1849.89 32.9987 L1842.76 32.9987 L1842.76 27.2059 L1849.89 27.2059 L1849.89 24.0462 Q1849.89 16.471 1853.41 13.0277 Q1856.94 9.54393 1864.59 9.54393 L1871.64 9.54393 Z" fill="#000000" fill-rule="nonzero" fill-opacity="1" /><path clip-path="url(#clip220)" d="M1900.85 9.54393 L1900.85 15.7418 L1893.72 15.7418 Q1889.71 15.7418 1888.13 17.3622 Q1886.59 18.9825 1886.59 23.1955 L1886.59 27.2059 L1898.86 27.2059 L1898.86 32.9987 L1886.59 32.9987 L1886.59 72.576 L1879.09 72.576 L1879.09 32.9987 L1871.96 32.9987 L1871.96 27.2059 L1879.09 27.2059 L1879.09 24.0462 Q1879.09 16.471 1882.62 13.0277 Q1886.14 9.54393 1893.8 9.54393 L1900.85 9.54393 Z" fill="#000000" fill-rule="nonzero" fill-opacity="1" /><path clip-path="url(#clip220)" d="M1945.89 48.0275 L1945.89 51.6733 L1911.62 51.6733 Q1912.11 59.3701 1916.24 63.421 Q1920.41 67.4314 1927.83 67.4314 Q1932.12 67.4314 1936.13 66.3781 Q1940.18 65.3249 1944.15 63.2184 L1944.15 70.267 Q1940.14 71.9684 1935.93 72.8596 Q1931.72 73.7508 1927.38 73.7508 Q1916.52 73.7508 1910.16 67.4314 Q1903.85 61.1119 1903.85 50.3365 Q1903.85 39.1965 1909.84 32.6746 Q1915.88 26.1121 1926.08 26.1121 Q1935.24 26.1121 1940.55 32.0264 Q1945.89 37.9003 1945.89 48.0275 M1938.44 45.84 Q1938.36 39.7232 1935 36.0774 Q1931.68 32.4315 1926.17 32.4315 Q1919.93 32.4315 1916.16 35.9558 Q1912.43 39.4801 1911.87 45.8805 L1938.44 45.84 Z" fill="#000000" fill-rule="nonzero" fill-opacity="1" /><path clip-path="url(#clip220)" d="M1984.42 34.1734 Q1983.16 33.4443 1981.66 33.1202 Q1980.2 32.7556 1978.42 32.7556 Q1972.1 32.7556 1968.7 36.8875 Q1965.34 40.9789 1965.34 48.6757 L1965.34 72.576 L1957.84 72.576 L1957.84 27.2059 L1965.34 27.2059 L1965.34 34.2544 Q1967.69 30.1225 1971.45 28.1376 Q1975.22 26.1121 1980.61 26.1121 Q1981.38 26.1121 1982.31 26.2337 Q1983.24 26.3147 1984.38 26.5172 L1984.42 34.1734 Z" fill="#000000" fill-rule="nonzero" fill-opacity="1" /><path clip-path="url(#clip220)" d="M2029.22 48.0275 L2029.22 51.6733 L1994.95 51.6733 Q1995.44 59.3701 1999.57 63.421 Q2003.74 67.4314 2011.15 67.4314 Q2015.45 67.4314 2019.46 66.3781 Q2023.51 65.3249 2027.48 63.2184 L2027.48 70.267 Q2023.47 71.9684 2019.26 72.8596 Q2015.04 73.7508 2010.71 73.7508 Q1999.85 73.7508 1993.49 67.4314 Q1987.17 61.1119 1987.17 50.3365 Q1987.17 39.1965 1993.17 32.6746 Q1999.2 26.1121 2009.41 26.1121 Q2018.57 26.1121 2023.87 32.0264 Q2029.22 37.9003 2029.22 48.0275 M2021.77 45.84 Q2021.69 39.7232 2018.32 36.0774 Q2015 32.4315 2009.49 32.4315 Q2003.25 32.4315 1999.49 35.9558 Q1995.76 39.4801 1995.19 45.8805 L2021.77 45.84 Z" fill="#000000" fill-rule="nonzero" fill-opacity="1" /><path clip-path="url(#clip220)" d="M2079.17 45.1919 L2079.17 72.576 L2071.71 72.576 L2071.71 45.4349 Q2071.71 38.994 2069.2 35.7938 Q2066.69 32.5936 2061.67 32.5936 Q2055.63 32.5936 2052.15 36.4419 Q2048.67 40.2903 2048.67 46.9338 L2048.67 72.576 L2041.17 72.576 L2041.17 27.2059 L2048.67 27.2059 L2048.67 34.2544 Q2051.34 30.163 2054.94 28.1376 Q2058.59 26.1121 2063.33 26.1121 Q2071.15 26.1121 2075.16 30.9732 Q2079.17 35.7938 2079.17 45.1919 Z" fill="#000000" fill-rule="nonzero" fill-opacity="1" /><path clip-path="url(#clip220)" d="M2126.69 28.9478 L2126.69 35.9153 Q2123.53 34.1734 2120.33 33.3227 Q2117.17 32.4315 2113.93 32.4315 Q2106.67 32.4315 2102.66 37.0496 Q2098.65 41.6271 2098.65 49.9314 Q2098.65 58.2358 2102.66 62.8538 Q2106.67 67.4314 2113.93 67.4314 Q2117.17 67.4314 2120.33 66.5807 Q2123.53 65.6895 2126.69 63.9476 L2126.69 70.8341 Q2123.57 72.2924 2120.2 73.0216 Q2116.88 73.7508 2113.12 73.7508 Q2102.87 73.7508 2096.83 67.3098 Q2090.79 60.8689 2090.79 49.9314 Q2090.79 38.832 2096.87 32.472 Q2102.99 26.1121 2113.6 26.1121 Q2117.04 26.1121 2120.33 26.8413 Q2123.61 27.5299 2126.69 28.9478 Z" fill="#000000" fill-rule="nonzero" fill-opacity="1" /><path clip-path="url(#clip220)" d="M2178.46 48.0275 L2178.46 51.6733 L2144.19 51.6733 Q2144.67 59.3701 2148.8 63.421 Q2152.98 67.4314 2160.39 67.4314 Q2164.68 67.4314 2168.69 66.3781 Q2172.74 65.3249 2176.71 63.2184 L2176.71 70.267 Q2172.7 71.9684 2168.49 72.8596 Q2164.28 73.7508 2159.94 73.7508 Q2149.09 73.7508 2142.73 67.4314 Q2136.41 61.1119 2136.41 50.3365 Q2136.41 39.1965 2142.4 32.6746 Q2148.44 26.1121 2158.65 26.1121 Q2167.8 26.1121 2173.11 32.0264 Q2178.46 37.9003 2178.46 48.0275 M2171 45.84 Q2170.92 39.7232 2167.56 36.0774 Q2164.24 32.4315 2158.73 32.4315 Q2152.49 32.4315 2148.72 35.9558 Q2145 39.4801 2144.43 45.8805 L2171 45.84 Z" fill="#000000" fill-rule="nonzero" fill-opacity="1" /><polyline clip-path="url(#clip221)" style="stroke:#009af9; stroke-linecap:round; stroke-linejoin:round; stroke-width:8; stroke-opacity:1; fill:none" points="315.882,160.256 335.858,166.598 355.833,179.16 375.808,197.76 395.783,222.161 415.758,252.067 435.734,287.134 455.709,326.968 475.684,371.128 495.659,419.134 515.635,470.47 535.61,524.591 555.585,580.926 575.56,638.885 595.535,697.869 615.511,757.272 635.486,816.489 655.461,874.925 675.436,931.997 695.412,987.146 715.387,1039.84 735.362,1089.56 755.337,1135.87 775.312,1178.31 795.288,1216.52 815.263,1250.16 835.238,1278.93 855.213,1302.62 875.189,1321.03 895.164,1334.04 915.139,1341.57 935.114,1343.6 955.089,1340.17 975.065,1331.37 995.04,1317.32 1015.02,1298.23 1034.99,1274.33 1054.97,1245.89 1074.94,1213.25 1094.92,1176.77 1114.89,1136.85 1134.87,1093.93 1154.84,1048.46 1174.82,1000.93 1194.79,951.831 1214.77,901.679 1234.74,850.99 1254.72,800.281 1274.69,750.064 1294.67,700.841 1314.64,653.098 1334.62,607.301 1354.59,563.891 1374.57,523.278 1394.54,485.841 1414.52,451.921 1434.49,421.82 1454.47,395.8 1474.45,374.076 1494.42,356.822 1514.4,344.162 1534.37,336.178 1554.35,332.9 1574.32,334.316 1594.3,340.364 1614.27,350.94 1634.25,365.895 1654.22,385.038 1674.2,408.136 1694.17,434.923 1714.15,465.095 1734.12,498.316 1754.1,534.224 1774.07,572.432 1794.05,612.532 1814.02,654.103 1834,696.71 1853.97,739.913 1873.95,783.269 1893.93,826.34 1913.9,868.692 1933.88,909.906 1953.85,949.579 1973.83,987.325 1993.8,1022.79 2013.78,1055.63 2033.75,1085.55 2053.73,1112.28 2073.7,1135.59 2093.68,1155.27 2113.65,1171.17 2133.63,1183.16 2153.6,1191.17 2173.58,1195.16 2193.55,1195.13 2213.53,1191.11 2233.5,1183.19 2253.48,1171.49 2273.45,1156.15 2293.43,1137.36 "/>
<polyline clip-path="url(#clip221)" style="stroke:#e26f46; stroke-linecap:round; stroke-linejoin:round; stroke-width:8; stroke-opacity:1; fill:none" points="315.882,798.31 335.858,861.095 355.833,922.671 375.808,982.452 395.783,1039.87 415.758,1094.39 435.734,1145.48 455.709,1192.66 475.684,1235.49 495.659,1273.57 515.635,1306.54 535.61,1334.11 555.585,1356.02 575.56,1372.11 595.535,1382.25 615.511,1386.4 635.486,1384.56 655.461,1376.82 675.436,1363.33 695.412,1344.28 715.387,1319.94 735.362,1290.62 755.337,1256.68 775.312,1218.52 795.288,1176.58 815.263,1131.31 835.238,1083.22 855.213,1032.8 875.189,980.578 895.164,927.089 915.139,872.866 935.114,818.445 955.089,764.358 975.065,711.13 995.04,659.273 1015.02,609.284 1034.99,561.641 1054.97,516.796 1074.94,475.174 1094.92,437.166 1114.89,403.128 1134.87,373.373 1154.84,348.169 1174.82,327.736 1194.79,312.243 1214.77,301.806 1234.74,296.486 1254.72,296.287 1274.69,301.16 1294.67,311.001 1314.64,325.656 1334.62,344.922 1354.59,368.548 1374.57,396.244 1394.54,427.682 1414.52,462.502 1434.49,500.313 1454.47,540.705 1474.45,583.246 1494.42,627.49 1514.4,672.983 1534.37,719.261 1554.35,765.862 1574.32,812.323 1594.3,858.189 1614.27,903.013 1634.25,946.362 1654.22,987.82 1674.2,1026.99 1694.17,1063.5 1714.15,1097.01 1734.12,1127.2 1754.1,1153.8 1774.07,1176.57 1794.05,1195.31 1814.02,1209.86 1834,1220.12 1853.97,1226.02 1873.95,1227.54 1893.93,1224.71 1913.9,1217.6 1933.88,1206.33 1953.85,1191.06 1973.83,1172 1993.8,1149.37 2013.78,1123.45 2033.75,1094.53 2053.73,1062.94 2073.7,1029.03 2093.68,993.161 2113.65,955.71 2133.63,917.068 2153.6,877.632 2173.58,837.8 2193.55,797.972 2213.53,758.541 2233.5,719.897 2253.48,682.414 2273.45,646.455 2293.43,612.366 "/>
<polyline clip-path="url(#clip221)" style="stroke:#3da44d; stroke-linecap:round; stroke-linejoin:round; stroke-width:8; stroke-opacity:1; fill:none" points="315.882,698.906 335.858,699.886 355.833,700.856 375.808,701.818 395.783,702.77 415.758,703.713 435.734,704.649 455.709,705.576 475.684,706.497 495.659,707.41 515.635,708.317 535.61,709.218 555.585,710.112 575.56,711 595.535,711.88 615.511,712.753 635.486,713.617 655.461,714.472 675.436,715.317 695.412,716.153 715.387,716.978 735.362,717.793 755.337,718.597 775.312,719.392 795.288,720.178 815.263,720.954 835.238,721.722 855.213,722.482 875.189,723.234 895.164,723.979 915.139,724.716 935.114,725.446 955.089,726.169 975.065,726.885 995.04,727.594 1015.02,728.296 1034.99,728.992 1054.97,729.681 1074.94,730.364 1094.92,731.041 1114.89,731.713 1134.87,732.379 1154.84,733.04 1174.82,733.696 1194.79,734.346 1214.77,734.991 1234.74,735.63 1254.72,736.263 1274.69,736.89 1294.67,737.51 1314.64,738.122 1334.62,738.728 1354.59,739.327 1374.57,739.918 1394.54,740.503 1414.52,741.081 1434.49,741.652 1454.47,742.217 1474.45,742.777 1494.42,743.33 1514.4,743.878 1534.37,744.421 1554.35,744.958 1574.32,745.49 1594.3,746.017 1614.27,746.538 1634.25,747.054 1654.22,747.566 1674.2,748.072 1694.17,748.574 1714.15,749.072 1734.12,749.565 1754.1,750.053 1774.07,750.538 1794.05,751.018 1814.02,751.495 1834,751.967 1853.97,752.434 1873.95,752.898 1893.93,753.356 1913.9,753.81 1933.88,754.259 1953.85,754.703 1973.83,755.142 1993.8,755.576 2013.78,756.005 2033.75,756.429 2053.73,756.849 2073.7,757.264 2093.68,757.674 2113.65,758.081 2133.63,758.483 2153.6,758.882 2173.58,759.276 2193.55,759.667 2213.53,760.053 2233.5,760.436 2253.48,760.815 2273.45,761.191 2293.43,761.562 "/>
<path clip-path="url(#clip220)" d="M1869.4 374.156 L2282.88 374.156 L2282.88 166.796 L1869.4 166.796  Z" fill="#ffffff" fill-rule="evenodd" fill-opacity="1"/>
<polyline clip-path="url(#clip220)" style="stroke:#000000; stroke-linecap:round; stroke-linejoin:round; stroke-width:4; stroke-opacity:1; fill:none" points="1869.4,374.156 2282.88,374.156 2282.88,166.796 1869.4,166.796 1869.4,374.156 "/>
<polyline clip-path="url(#clip220)" style="stroke:#009af9; stroke-linecap:round; stroke-linejoin:round; stroke-width:8; stroke-opacity:1; fill:none" points="1892.69,218.636 2032.44,218.636 "/>
<path clip-path="url(#clip220)" d="M2074.99 219.481 L2060.24 219.481 Q2060.59 226.402 2062.19 229.342 Q2064.18 232.953 2067.62 232.953 Q2071.1 232.953 2073.02 229.319 Q2074.71 226.124 2074.99 219.481 M2074.92 215.545 Q2074.27 208.971 2073.02 206.657 Q2071.03 202.999 2067.62 202.999 Q2064.08 202.999 2062.21 206.61 Q2060.73 209.527 2060.29 215.545 L2074.92 215.545 M2067.62 199.527 Q2073.18 199.527 2076.35 204.434 Q2079.52 209.319 2079.52 217.976 Q2079.52 226.61 2076.35 231.518 Q2073.18 236.448 2067.62 236.448 Q2062.05 236.448 2058.9 231.518 Q2055.73 226.61 2055.73 217.976 Q2055.73 209.319 2058.9 204.434 Q2062.05 199.527 2067.62 199.527 Z" fill="#000000" fill-rule="nonzero" fill-opacity="1" /><path clip-path="url(#clip220)" d="M2111.88 199.944 Q2108.78 205.268 2107.28 210.476 Q2105.77 215.684 2105.77 221.032 Q2105.77 226.379 2107.28 231.633 Q2108.81 236.865 2111.88 242.166 L2108.18 242.166 Q2104.71 236.726 2102.97 231.471 Q2101.26 226.217 2101.26 221.032 Q2101.26 215.87 2102.97 210.638 Q2104.68 205.407 2108.18 199.944 L2111.88 199.944 Z" fill="#000000" fill-rule="nonzero" fill-opacity="1" /><path clip-path="url(#clip220)" d="M2135.17 213.971 Q2134.45 213.555 2133.6 213.37 Q2132.76 213.161 2131.74 213.161 Q2128.13 213.161 2126.19 215.522 Q2124.27 217.86 2124.27 222.258 L2124.27 235.916 L2119.99 235.916 L2119.99 209.99 L2124.27 209.99 L2124.27 214.018 Q2125.61 211.657 2127.76 210.522 Q2129.92 209.365 2132.99 209.365 Q2133.43 209.365 2133.97 209.434 Q2134.5 209.481 2135.15 209.596 L2135.17 213.971 Z" fill="#000000" fill-rule="nonzero" fill-opacity="1" /><path clip-path="url(#clip220)" d="M2151.42 222.883 Q2146.26 222.883 2144.27 224.064 Q2142.28 225.244 2142.28 228.092 Q2142.28 230.36 2143.76 231.703 Q2145.26 233.022 2147.83 233.022 Q2151.37 233.022 2153.5 230.522 Q2155.66 227.999 2155.66 223.832 L2155.66 222.883 L2151.42 222.883 M2159.92 221.124 L2159.92 235.916 L2155.66 235.916 L2155.66 231.981 Q2154.2 234.342 2152.02 235.476 Q2149.85 236.587 2146.7 236.587 Q2142.72 236.587 2140.36 234.365 Q2138.02 232.119 2138.02 228.369 Q2138.02 223.994 2140.93 221.772 Q2143.87 219.55 2149.68 219.55 L2155.66 219.55 L2155.66 219.133 Q2155.66 216.194 2153.71 214.596 Q2151.79 212.976 2148.3 212.976 Q2146.07 212.976 2143.97 213.508 Q2141.86 214.041 2139.92 215.106 L2139.92 211.17 Q2142.25 210.268 2144.45 209.828 Q2146.65 209.365 2148.74 209.365 Q2154.36 209.365 2157.14 212.282 Q2159.92 215.198 2159.92 221.124 Z" fill="#000000" fill-rule="nonzero" fill-opacity="1" /><path clip-path="url(#clip220)" d="M2185.75 213.925 L2185.75 199.897 L2190.01 199.897 L2190.01 235.916 L2185.75 235.916 L2185.75 232.027 Q2184.41 234.342 2182.35 235.476 Q2180.31 236.587 2177.44 236.587 Q2172.74 236.587 2169.78 232.837 Q2166.84 229.087 2166.84 222.976 Q2166.84 216.865 2169.78 213.115 Q2172.74 209.365 2177.44 209.365 Q2180.31 209.365 2182.35 210.499 Q2184.41 211.61 2185.75 213.925 M2171.24 222.976 Q2171.24 227.675 2173.16 230.36 Q2175.1 233.022 2178.48 233.022 Q2181.86 233.022 2183.8 230.36 Q2185.75 227.675 2185.75 222.976 Q2185.75 218.277 2183.8 215.615 Q2181.86 212.93 2178.48 212.93 Q2175.1 212.93 2173.16 215.615 Q2171.24 218.277 2171.24 222.976 Z" fill="#000000" fill-rule="nonzero" fill-opacity="1" /><path clip-path="url(#clip220)" d="M2198.11 199.944 L2201.81 199.944 Q2205.29 205.407 2207 210.638 Q2208.74 215.87 2208.74 221.032 Q2208.74 226.217 2207 231.471 Q2205.29 236.726 2201.81 242.166 L2198.11 242.166 Q2201.19 236.865 2202.69 231.633 Q2204.22 226.379 2204.22 221.032 Q2204.22 215.684 2202.69 210.476 Q2201.19 205.268 2198.11 199.944 Z" fill="#000000" fill-rule="nonzero" fill-opacity="1" /><polyline clip-path="url(#clip220)" style="stroke:#e26f46; stroke-linecap:round; stroke-linejoin:round; stroke-width:8; stroke-opacity:1; fill:none" points="1892.69,270.476 2032.44,270.476 "/>
<path clip-path="url(#clip220)" d="M2065.33 288.427 Q2055.73 288.427 2055.73 274.677 Q2055.73 269.237 2059.31 261.83 L2063.9 261.83 Q2060.59 269.237 2060.59 274.793 Q2060.59 284.816 2065.73 284.816 Q2070.43 284.816 2070.43 272.362 L2074.36 272.362 Q2074.36 284.816 2079.06 284.816 Q2084.2 284.816 2084.2 274.793 Q2084.2 269.237 2080.89 261.83 L2085.47 261.83 Q2089.06 269.237 2089.06 274.677 Q2089.06 288.427 2079.45 288.427 Q2073.16 288.427 2072.39 281.506 Q2071.44 288.427 2065.33 288.427 Z" fill="#000000" fill-rule="nonzero" fill-opacity="1" /><path clip-path="url(#clip220)" d="M2122.07 251.784 Q2118.97 257.108 2117.46 262.316 Q2115.96 267.524 2115.96 272.872 Q2115.96 278.219 2117.46 283.473 Q2118.99 288.705 2122.07 294.006 L2118.37 294.006 Q2114.89 288.566 2113.16 283.311 Q2111.44 278.057 2111.44 272.872 Q2111.44 267.71 2113.16 262.478 Q2114.87 257.247 2118.37 251.784 L2122.07 251.784 Z" fill="#000000" fill-rule="nonzero" fill-opacity="1" /><path clip-path="url(#clip220)" d="M2145.36 265.811 Q2144.64 265.395 2143.78 265.21 Q2142.95 265.001 2141.93 265.001 Q2138.32 265.001 2136.37 267.362 Q2134.45 269.7 2134.45 274.098 L2134.45 287.756 L2130.17 287.756 L2130.17 261.83 L2134.45 261.83 L2134.45 265.858 Q2135.8 263.497 2137.95 262.362 Q2140.1 261.205 2143.18 261.205 Q2143.62 261.205 2144.15 261.274 Q2144.68 261.321 2145.33 261.436 L2145.36 265.811 Z" fill="#000000" fill-rule="nonzero" fill-opacity="1" /><path clip-path="url(#clip220)" d="M2161.61 274.723 Q2156.44 274.723 2154.45 275.904 Q2152.46 277.084 2152.46 279.932 Q2152.46 282.2 2153.94 283.543 Q2155.45 284.862 2158.02 284.862 Q2161.56 284.862 2163.69 282.362 Q2165.84 279.839 2165.84 275.672 L2165.84 274.723 L2161.61 274.723 M2170.1 272.964 L2170.1 287.756 L2165.84 287.756 L2165.84 283.821 Q2164.38 286.182 2162.21 287.316 Q2160.03 288.427 2156.88 288.427 Q2152.9 288.427 2150.54 286.205 Q2148.2 283.959 2148.2 280.209 Q2148.2 275.834 2151.12 273.612 Q2154.06 271.39 2159.87 271.39 L2165.84 271.39 L2165.84 270.973 Q2165.84 268.034 2163.9 266.436 Q2161.98 264.816 2158.48 264.816 Q2156.26 264.816 2154.15 265.348 Q2152.05 265.881 2150.1 266.946 L2150.1 263.01 Q2152.44 262.108 2154.64 261.668 Q2156.84 261.205 2158.92 261.205 Q2164.55 261.205 2167.32 264.122 Q2170.1 267.038 2170.1 272.964 Z" fill="#000000" fill-rule="nonzero" fill-opacity="1" /><path clip-path="url(#clip220)" d="M2195.93 265.765 L2195.93 251.737 L2200.19 251.737 L2200.19 287.756 L2195.93 287.756 L2195.93 283.867 Q2194.59 286.182 2192.53 287.316 Q2190.49 288.427 2187.62 288.427 Q2182.93 288.427 2179.96 284.677 Q2177.02 280.927 2177.02 274.816 Q2177.02 268.705 2179.96 264.955 Q2182.93 261.205 2187.62 261.205 Q2190.49 261.205 2192.53 262.339 Q2194.59 263.45 2195.93 265.765 M2181.42 274.816 Q2181.42 279.515 2183.34 282.2 Q2185.29 284.862 2188.67 284.862 Q2192.05 284.862 2193.99 282.2 Q2195.93 279.515 2195.93 274.816 Q2195.93 270.117 2193.99 267.455 Q2192.05 264.77 2188.67 264.77 Q2185.29 264.77 2183.34 267.455 Q2181.42 270.117 2181.42 274.816 Z" fill="#000000" fill-rule="nonzero" fill-opacity="1" /><path clip-path="url(#clip220)" d="M2216.54 253.196 L2220.47 253.196 L2208.43 292.154 L2204.5 292.154 L2216.54 253.196 Z" fill="#000000" fill-rule="nonzero" fill-opacity="1" /><path clip-path="url(#clip220)" d="M2241.47 262.594 L2241.47 266.622 Q2239.66 265.696 2237.72 265.233 Q2235.77 264.77 2233.69 264.77 Q2230.52 264.77 2228.92 265.742 Q2227.35 266.714 2227.35 268.659 Q2227.35 270.14 2228.48 270.997 Q2229.61 271.83 2233.04 272.594 L2234.5 272.918 Q2239.04 273.89 2240.93 275.672 Q2242.86 277.432 2242.86 280.603 Q2242.86 284.214 2239.99 286.321 Q2237.14 288.427 2232.14 288.427 Q2230.05 288.427 2227.79 288.01 Q2225.54 287.617 2223.04 286.807 L2223.04 282.409 Q2225.4 283.635 2227.69 284.26 Q2229.99 284.862 2232.23 284.862 Q2235.24 284.862 2236.86 283.844 Q2238.48 282.802 2238.48 280.927 Q2238.48 279.191 2237.3 278.265 Q2236.14 277.339 2232.18 276.483 L2230.7 276.135 Q2226.74 275.302 2224.99 273.589 Q2223.23 271.853 2223.23 268.844 Q2223.23 265.186 2225.82 263.196 Q2228.41 261.205 2233.18 261.205 Q2235.54 261.205 2237.62 261.552 Q2239.71 261.899 2241.47 262.594 Z" fill="#000000" fill-rule="nonzero" fill-opacity="1" /><path clip-path="url(#clip220)" d="M2248.97 251.784 L2252.67 251.784 Q2256.14 257.247 2257.86 262.478 Q2259.59 267.71 2259.59 272.872 Q2259.59 278.057 2257.86 283.311 Q2256.14 288.566 2252.67 294.006 L2248.97 294.006 Q2252.05 288.705 2253.55 283.473 Q2255.08 278.219 2255.08 272.872 Q2255.08 267.524 2253.55 262.316 Q2252.05 257.108 2248.97 251.784 Z" fill="#000000" fill-rule="nonzero" fill-opacity="1" /><polyline clip-path="url(#clip220)" style="stroke:#3da44d; stroke-linecap:round; stroke-linejoin:round; stroke-width:8; stroke-opacity:1; fill:none" points="1892.69,322.316 2032.44,322.316 "/>
<path clip-path="url(#clip220)" d="M2055.73 305.036 L2077.58 305.036 L2077.58 308.971 L2060.4 308.971 L2060.4 319.202 L2076.86 319.202 L2076.86 323.137 L2060.4 323.137 L2060.4 335.661 L2078 335.661 L2078 339.596 L2055.73 339.596 L2055.73 305.036 Z" fill="#000000" fill-rule="nonzero" fill-opacity="1" /><path clip-path="url(#clip220)" d="M2110.8 303.624 Q2107.69 308.948 2106.19 314.156 Q2104.68 319.364 2104.68 324.712 Q2104.68 330.059 2106.19 335.313 Q2107.72 340.545 2110.8 345.846 L2107.09 345.846 Q2103.62 340.406 2101.88 335.151 Q2100.17 329.897 2100.17 324.712 Q2100.17 319.55 2101.88 314.318 Q2103.6 309.087 2107.09 303.624 L2110.8 303.624 Z" fill="#000000" fill-rule="nonzero" fill-opacity="1" /><path clip-path="url(#clip220)" d="M2119.24 305.036 L2123.92 305.036 L2123.92 337.188 Q2123.92 343.438 2121.54 346.262 Q2119.18 349.086 2113.92 349.086 L2112.14 349.086 L2112.14 345.151 L2113.6 345.151 Q2116.7 345.151 2117.97 343.415 Q2119.24 341.679 2119.24 337.188 L2119.24 305.036 Z" fill="#000000" fill-rule="nonzero" fill-opacity="1" /><path clip-path="url(#clip220)" d="M2132.37 303.624 L2136.07 303.624 Q2139.55 309.087 2141.26 314.318 Q2142.99 319.55 2142.99 324.712 Q2142.99 329.897 2141.26 335.151 Q2139.55 340.406 2136.07 345.846 L2132.37 345.846 Q2135.45 340.545 2136.95 335.313 Q2138.48 330.059 2138.48 324.712 Q2138.48 319.364 2136.95 314.156 Q2135.45 308.948 2132.37 303.624 Z" fill="#000000" fill-rule="nonzero" fill-opacity="1" /></svg>
