<?xml version="1.0" encoding="utf-8"?>
<svg xmlns="http://www.w3.org/2000/svg" xmlns:xlink="http://www.w3.org/1999/xlink" width="600" height="400" viewBox="0 0 2400 1600">
<defs>
  <clipPath id="clip210">
    <rect x="0" y="0" width="2400" height="1600"/>
  </clipPath>
</defs>
<path clip-path="url(#clip210)" d="M0 1600 L2400 1600 L2400 8.88178e-14 L0 8.88178e-14  Z" fill="#ffffff" fill-rule="evenodd" fill-opacity="1"/>
<defs>
  <clipPath id="clip211">
    <rect x="377" y="123" width="1976" height="1301"/>
  </clipPath>
</defs>
<path clip-path="url(#clip210)" d="M280.19 1423.18 L2352.76 1423.18 L2352.76 123.472 L280.19 123.472  Z" fill="#ffffff" fill-rule="evenodd" fill-opacity="1"/>
<defs>
  <clipPath id="clip212">
    <rect x="280" y="123" width="2074" height="1301"/>
  </clipPath>
</defs>
<polyline clip-path="url(#clip212)" style="stroke:#000000; stroke-linecap:round; stroke-linejoin:round; stroke-width:2; stroke-opacity:0.1; fill:none" points="518.962,1423.18 518.962,123.472 "/>
<polyline clip-path="url(#clip212)" style="stroke:#000000; stroke-linecap:round; stroke-linejoin:round; stroke-width:2; stroke-opacity:0.1; fill:none" points="825.697,1423.18 825.697,123.472 "/>
<polyline clip-path="url(#clip212)" style="stroke:#000000; stroke-linecap:round; stroke-linejoin:round; stroke-width:2; stroke-opacity:0.1; fill:none" points="1132.43,1423.18 1132.43,123.472 "/>
<polyline clip-path="url(#clip212)" style="stroke:#000000; stroke-linecap:round; stroke-linejoin:round; stroke-width:2; stroke-opacity:0.1; fill:none" points="1439.17,1423.18 1439.17,123.472 "/>
<polyline clip-path="url(#clip212)" style="stroke:#000000; stroke-linecap:round; stroke-linejoin:round; stroke-width:2; stroke-opacity:0.1; fill:none" points="1745.9,1423.18 1745.9,123.472 "/>
<polyline clip-path="url(#clip212)" style="stroke:#000000; stroke-linecap:round; stroke-linejoin:round; stroke-width:2; stroke-opacity:0.1; fill:none" points="2052.64,1423.18 2052.64,123.472 "/>
<polyline clip-path="url(#clip212)" style="stroke:#000000; stroke-linecap:round; stroke-linejoin:round; stroke-width:2; stroke-opacity:0.1; fill:none" points="280.19,1386.4 2352.76,1386.4 "/>
<polyline clip-path="url(#clip212)" style="stroke:#000000; stroke-linecap:round; stroke-linejoin:round; stroke-width:2; stroke-opacity:0.1; fill:none" points="280.19,1045.38 2352.76,1045.38 "/>
<polyline clip-path="url(#clip212)" style="stroke:#000000; stroke-linecap:round; stroke-linejoin:round; stroke-width:2; stroke-opacity:0.1; fill:none" points="280.19,704.364 2352.76,704.364 "/>
<polyline clip-path="url(#clip212)" style="stroke:#000000; stroke-linecap:round; stroke-linejoin:round; stroke-width:2; stroke-opacity:0.1; fill:none" points="280.19,363.348 2352.76,363.348 "/>
<polyline clip-path="url(#clip210)" style="stroke:#000000; stroke-linecap:round; stroke-linejoin:round; stroke-width:4; stroke-opacity:1; fill:none" points="280.19,1423.18 2352.76,1423.18 "/>
<polyline clip-path="url(#clip210)" style="stroke:#000000; stroke-linecap:round; stroke-linejoin:round; stroke-width:4; stroke-opacity:1; fill:none" points="518.962,1423.18 518.962,1404.28 "/>
<polyline clip-path="url(#clip210)" style="stroke:#000000; stroke-linecap:round; stroke-linejoin:round; stroke-width:4; stroke-opacity:1; fill:none" points="825.697,1423.18 825.697,1404.28 "/>
<polyline clip-path="url(#clip210)" style="stroke:#000000; stroke-linecap:round; stroke-linejoin:round; stroke-width:4; stroke-opacity:1; fill:none" points="1132.43,1423.18 1132.43,1404.28 "/>
<polyline clip-path="url(#clip210)" style="stroke:#000000; stroke-linecap:round; stroke-linejoin:round; stroke-width:4; stroke-opacity:1; fill:none" points="1439.17,1423.18 1439.17,1404.28 "/>
<polyline clip-path="url(#clip210)" style="stroke:#000000; stroke-linecap:round; stroke-linejoin:round; stroke-width:4; stroke-opacity:1; fill:none" points="1745.9,1423.18 1745.9,1404.28 "/>
<polyline clip-path="url(#clip210)" style="stroke:#000000; stroke-linecap:round; stroke-linejoin:round; stroke-width:4; stroke-opacity:1; fill:none" points="2052.64,1423.18 2052.64,1404.28 "/>
<path clip-path="url(#clip210)" d="M450.907 1468.75 L480.583 1468.75 L480.583 1472.69 L450.907 1472.69 L450.907 1468.75 Z" fill="#000000" fill-rule="nonzero" fill-opacity="1" /><path clip-path="url(#clip210)" d="M500.675 1454.1 Q497.064 1454.1 495.236 1457.66 Q493.43 1461.2 493.43 1468.33 Q493.43 1475.44 495.236 1479.01 Q497.064 1482.55 500.675 1482.55 Q504.31 1482.55 506.115 1479.01 Q507.944 1475.44 507.944 1468.33 Q507.944 1461.2 506.115 1457.66 Q504.31 1454.1 500.675 1454.1 M500.675 1450.39 Q506.485 1450.39 509.541 1455 Q512.62 1459.58 512.62 1468.33 Q512.62 1477.06 509.541 1481.67 Q506.485 1486.25 500.675 1486.25 Q494.865 1486.25 491.786 1481.67 Q488.731 1477.06 488.731 1468.33 Q488.731 1459.58 491.786 1455 Q494.865 1450.39 500.675 1450.39 Z" fill="#000000" fill-rule="nonzero" fill-opacity="1" /><path clip-path="url(#clip210)" d="M520.837 1479.7 L525.721 1479.7 L525.721 1485.58 L520.837 1485.58 L520.837 1479.7 Z" fill="#000000" fill-rule="nonzero" fill-opacity="1" /><path clip-path="url(#clip210)" d="M539.934 1481.64 L556.254 1481.64 L556.254 1485.58 L534.309 1485.58 L534.309 1481.64 Q536.971 1478.89 541.555 1474.26 Q546.161 1469.61 547.342 1468.27 Q549.587 1465.74 550.467 1464.01 Q551.369 1462.25 551.369 1460.56 Q551.369 1457.8 549.425 1456.07 Q547.504 1454.33 544.402 1454.33 Q542.203 1454.33 539.749 1455.09 Q537.319 1455.86 534.541 1457.41 L534.541 1452.69 Q537.365 1451.55 539.819 1450.97 Q542.272 1450.39 544.309 1450.39 Q549.68 1450.39 552.874 1453.08 Q556.069 1455.77 556.069 1460.26 Q556.069 1462.39 555.258 1464.31 Q554.471 1466.2 552.365 1468.8 Q551.786 1469.47 548.684 1472.69 Q545.582 1475.88 539.934 1481.64 Z" fill="#000000" fill-rule="nonzero" fill-opacity="1" /><path clip-path="url(#clip210)" d="M566.115 1451.02 L584.471 1451.02 L584.471 1454.96 L570.397 1454.96 L570.397 1463.43 Q571.416 1463.08 572.434 1462.92 Q573.453 1462.73 574.471 1462.73 Q580.258 1462.73 583.638 1465.9 Q587.017 1469.08 587.017 1474.49 Q587.017 1480.07 583.545 1483.17 Q580.073 1486.25 573.754 1486.25 Q571.578 1486.25 569.309 1485.88 Q567.064 1485.51 564.656 1484.77 L564.656 1480.07 Q566.74 1481.2 568.962 1481.76 Q571.184 1482.32 573.661 1482.32 Q577.666 1482.32 580.004 1480.21 Q582.342 1478.1 582.342 1474.49 Q582.342 1470.88 580.004 1468.77 Q577.666 1466.67 573.661 1466.67 Q571.786 1466.67 569.911 1467.08 Q568.059 1467.5 566.115 1468.38 L566.115 1451.02 Z" fill="#000000" fill-rule="nonzero" fill-opacity="1" /><path clip-path="url(#clip210)" d="M788.001 1454.1 Q784.389 1454.1 782.561 1457.66 Q780.755 1461.2 780.755 1468.33 Q780.755 1475.44 782.561 1479.01 Q784.389 1482.55 788.001 1482.55 Q791.635 1482.55 793.44 1479.01 Q795.269 1475.44 795.269 1468.33 Q795.269 1461.2 793.44 1457.66 Q791.635 1454.1 788.001 1454.1 M788.001 1450.39 Q793.811 1450.39 796.866 1455 Q799.945 1459.58 799.945 1468.33 Q799.945 1477.06 796.866 1481.67 Q793.811 1486.25 788.001 1486.25 Q782.19 1486.25 779.112 1481.67 Q776.056 1477.06 776.056 1468.33 Q776.056 1459.58 779.112 1455 Q782.19 1450.39 788.001 1450.39 Z" fill="#000000" fill-rule="nonzero" fill-opacity="1" /><path clip-path="url(#clip210)" d="M808.163 1479.7 L813.047 1479.7 L813.047 1485.58 L808.163 1485.58 L808.163 1479.7 Z" fill="#000000" fill-rule="nonzero" fill-opacity="1" /><path clip-path="url(#clip210)" d="M833.232 1454.1 Q829.621 1454.1 827.792 1457.66 Q825.986 1461.2 825.986 1468.33 Q825.986 1475.44 827.792 1479.01 Q829.621 1482.55 833.232 1482.55 Q836.866 1482.55 838.672 1479.01 Q840.5 1475.44 840.5 1468.33 Q840.5 1461.2 838.672 1457.66 Q836.866 1454.1 833.232 1454.1 M833.232 1450.39 Q839.042 1450.39 842.098 1455 Q845.176 1459.58 845.176 1468.33 Q845.176 1477.06 842.098 1481.67 Q839.042 1486.25 833.232 1486.25 Q827.422 1486.25 824.343 1481.67 Q821.287 1477.06 821.287 1468.33 Q821.287 1459.58 824.343 1455 Q827.422 1450.39 833.232 1450.39 Z" fill="#000000" fill-rule="nonzero" fill-opacity="1" /><path clip-path="url(#clip210)" d="M863.394 1454.1 Q859.783 1454.1 857.954 1457.66 Q856.148 1461.2 856.148 1468.33 Q856.148 1475.44 857.954 1479.01 Q859.783 1482.55 863.394 1482.55 Q867.028 1482.55 868.833 1479.01 Q870.662 1475.44 870.662 1468.33 Q870.662 1461.2 868.833 1457.66 Q867.028 1454.1 863.394 1454.1 M863.394 1450.39 Q869.204 1450.39 872.259 1455 Q875.338 1459.58 875.338 1468.33 Q875.338 1477.06 872.259 1481.67 Q869.204 1486.25 863.394 1486.25 Q857.584 1486.25 854.505 1481.67 Q851.449 1477.06 851.449 1468.33 Q851.449 1459.58 854.505 1455 Q857.584 1450.39 863.394 1450.39 Z" fill="#000000" fill-rule="nonzero" fill-opacity="1" /><path clip-path="url(#clip210)" d="M1095.23 1454.1 Q1091.62 1454.1 1089.79 1457.66 Q1087.99 1461.2 1087.99 1468.33 Q1087.99 1475.44 1089.79 1479.01 Q1091.62 1482.55 1095.23 1482.55 Q1098.87 1482.55 1100.67 1479.01 Q1102.5 1475.44 1102.5 1468.33 Q1102.5 1461.2 1100.67 1457.66 Q1098.87 1454.1 1095.23 1454.1 M1095.23 1450.39 Q1101.04 1450.39 1104.1 1455 Q1107.18 1459.58 1107.18 1468.33 Q1107.18 1477.06 1104.1 1481.67 Q1101.04 1486.25 1095.23 1486.25 Q1089.42 1486.25 1086.34 1481.67 Q1083.29 1477.06 1083.29 1468.33 Q1083.29 1459.58 1086.34 1455 Q1089.42 1450.39 1095.23 1450.39 Z" fill="#000000" fill-rule="nonzero" fill-opacity="1" /><path clip-path="url(#clip210)" d="M1115.4 1479.7 L1120.28 1479.7 L1120.28 1485.58 L1115.4 1485.58 L1115.4 1479.7 Z" fill="#000000" fill-rule="nonzero" fill-opacity="1" /><path clip-path="url(#clip210)" d="M1134.49 1481.64 L1150.81 1481.64 L1150.81 1485.58 L1128.87 1485.58 L1128.87 1481.64 Q1131.53 1478.89 1136.11 1474.26 Q1140.72 1469.61 1141.9 1468.27 Q1144.14 1465.74 1145.02 1464.01 Q1145.93 1462.25 1145.93 1460.56 Q1145.93 1457.8 1143.98 1456.07 Q1142.06 1454.33 1138.96 1454.33 Q1136.76 1454.33 1134.31 1455.09 Q1131.88 1455.86 1129.1 1457.41 L1129.1 1452.69 Q1131.92 1451.55 1134.38 1450.97 Q1136.83 1450.39 1138.87 1450.39 Q1144.24 1450.39 1147.43 1453.08 Q1150.63 1455.77 1150.63 1460.26 Q1150.63 1462.39 1149.82 1464.31 Q1149.03 1466.2 1146.92 1468.8 Q1146.34 1469.47 1143.24 1472.69 Q1140.14 1475.88 1134.49 1481.64 Z" fill="#000000" fill-rule="nonzero" fill-opacity="1" /><path clip-path="url(#clip210)" d="M1160.67 1451.02 L1179.03 1451.02 L1179.03 1454.96 L1164.96 1454.96 L1164.96 1463.43 Q1165.97 1463.08 1166.99 1462.92 Q1168.01 1462.73 1169.03 1462.73 Q1174.82 1462.73 1178.2 1465.9 Q1181.58 1469.08 1181.58 1474.49 Q1181.58 1480.07 1178.1 1483.17 Q1174.63 1486.25 1168.31 1486.25 Q1166.14 1486.25 1163.87 1485.88 Q1161.62 1485.51 1159.21 1484.77 L1159.21 1480.07 Q1161.3 1481.2 1163.52 1481.76 Q1165.74 1482.32 1168.22 1482.32 Q1172.22 1482.32 1174.56 1480.21 Q1176.9 1478.1 1176.9 1474.49 Q1176.9 1470.88 1174.56 1468.77 Q1172.22 1466.67 1168.22 1466.67 Q1166.34 1466.67 1164.47 1467.08 Q1162.62 1467.5 1160.67 1468.38 L1160.67 1451.02 Z" fill="#000000" fill-rule="nonzero" fill-opacity="1" /><path clip-path="url(#clip210)" d="M1401.47 1454.1 Q1397.86 1454.1 1396.03 1457.66 Q1394.23 1461.2 1394.23 1468.33 Q1394.23 1475.44 1396.03 1479.01 Q1397.86 1482.55 1401.47 1482.55 Q1405.1 1482.55 1406.91 1479.01 Q1408.74 1475.44 1408.74 1468.33 Q1408.74 1461.2 1406.91 1457.66 Q1405.1 1454.1 1401.47 1454.1 M1401.47 1450.39 Q1407.28 1450.39 1410.34 1455 Q1413.41 1459.58 1413.41 1468.33 Q1413.41 1477.06 1410.34 1481.67 Q1407.28 1486.25 1401.47 1486.25 Q1395.66 1486.25 1392.58 1481.67 Q1389.53 1477.06 1389.53 1468.33 Q1389.53 1459.58 1392.58 1455 Q1395.66 1450.39 1401.47 1450.39 Z" fill="#000000" fill-rule="nonzero" fill-opacity="1" /><path clip-path="url(#clip210)" d="M1421.63 1479.7 L1426.52 1479.7 L1426.52 1485.58 L1421.63 1485.58 L1421.63 1479.7 Z" fill="#000000" fill-rule="nonzero" fill-opacity="1" /><path clip-path="url(#clip210)" d="M1436.75 1451.02 L1455.1 1451.02 L1455.1 1454.96 L1441.03 1454.96 L1441.03 1463.43 Q1442.05 1463.08 1443.07 1462.92 Q1444.09 1462.73 1445.1 1462.73 Q1450.89 1462.73 1454.27 1465.9 Q1457.65 1469.08 1457.65 1474.49 Q1457.65 1480.07 1454.18 1483.17 Q1450.71 1486.25 1444.39 1486.25 Q1442.21 1486.25 1439.94 1485.88 Q1437.7 1485.51 1435.29 1484.77 L1435.29 1480.07 Q1437.37 1481.2 1439.6 1481.76 Q1441.82 1482.32 1444.29 1482.32 Q1448.3 1482.32 1450.64 1480.21 Q1452.97 1478.1 1452.97 1474.49 Q1452.97 1470.88 1450.64 1468.77 Q1448.3 1466.67 1444.29 1466.67 Q1442.42 1466.67 1440.54 1467.08 Q1438.69 1467.5 1436.75 1468.38 L1436.75 1451.02 Z" fill="#000000" fill-rule="nonzero" fill-opacity="1" /><path clip-path="url(#clip210)" d="M1476.86 1454.1 Q1473.25 1454.1 1471.42 1457.66 Q1469.62 1461.2 1469.62 1468.33 Q1469.62 1475.44 1471.42 1479.01 Q1473.25 1482.55 1476.86 1482.55 Q1480.5 1482.55 1482.3 1479.01 Q1484.13 1475.44 1484.13 1468.33 Q1484.13 1461.2 1482.3 1457.66 Q1480.5 1454.1 1476.86 1454.1 M1476.86 1450.39 Q1482.67 1450.39 1485.73 1455 Q1488.81 1459.58 1488.81 1468.33 Q1488.81 1477.06 1485.73 1481.67 Q1482.67 1486.25 1476.86 1486.25 Q1471.05 1486.25 1467.97 1481.67 Q1464.92 1477.06 1464.92 1468.33 Q1464.92 1459.58 1467.97 1455 Q1471.05 1450.39 1476.86 1450.39 Z" fill="#000000" fill-rule="nonzero" fill-opacity="1" /><path clip-path="url(#clip210)" d="M1708.7 1454.1 Q1705.09 1454.1 1703.26 1457.66 Q1701.46 1461.2 1701.46 1468.33 Q1701.46 1475.44 1703.26 1479.01 Q1705.09 1482.55 1708.7 1482.55 Q1712.34 1482.55 1714.14 1479.01 Q1715.97 1475.44 1715.97 1468.33 Q1715.97 1461.2 1714.14 1457.66 Q1712.34 1454.1 1708.7 1454.1 M1708.7 1450.39 Q1714.51 1450.39 1717.57 1455 Q1720.65 1459.58 1720.65 1468.33 Q1720.65 1477.06 1717.57 1481.67 Q1714.51 1486.25 1708.7 1486.25 Q1702.89 1486.25 1699.81 1481.67 Q1696.76 1477.06 1696.76 1468.33 Q1696.76 1459.58 1699.81 1455 Q1702.89 1450.39 1708.7 1450.39 Z" fill="#000000" fill-rule="nonzero" fill-opacity="1" /><path clip-path="url(#clip210)" d="M1728.86 1479.7 L1733.75 1479.7 L1733.75 1485.58 L1728.86 1485.58 L1728.86 1479.7 Z" fill="#000000" fill-rule="nonzero" fill-opacity="1" /><path clip-path="url(#clip210)" d="M1742.75 1451.02 L1764.98 1451.02 L1764.98 1453.01 L1752.43 1485.58 L1747.55 1485.58 L1759.35 1454.96 L1742.75 1454.96 L1742.75 1451.02 Z" fill="#000000" fill-rule="nonzero" fill-opacity="1" /><path clip-path="url(#clip210)" d="M1774.14 1451.02 L1792.5 1451.02 L1792.5 1454.96 L1778.42 1454.96 L1778.42 1463.43 Q1779.44 1463.08 1780.46 1462.92 Q1781.48 1462.73 1782.5 1462.73 Q1788.29 1462.73 1791.67 1465.9 Q1795.05 1469.08 1795.05 1474.49 Q1795.05 1480.07 1791.57 1483.17 Q1788.1 1486.25 1781.78 1486.25 Q1779.61 1486.25 1777.34 1485.88 Q1775.09 1485.51 1772.68 1484.77 L1772.68 1480.07 Q1774.77 1481.2 1776.99 1481.76 Q1779.21 1482.32 1781.69 1482.32 Q1785.69 1482.32 1788.03 1480.21 Q1790.37 1478.1 1790.37 1474.49 Q1790.37 1470.88 1788.03 1468.77 Q1785.69 1466.67 1781.69 1466.67 Q1779.81 1466.67 1777.94 1467.08 Q1776.09 1467.5 1774.14 1468.38 L1774.14 1451.02 Z" fill="#000000" fill-rule="nonzero" fill-opacity="1" /><path clip-path="url(#clip210)" d="M2004.71 1481.64 L2012.35 1481.64 L2012.35 1455.28 L2004.04 1456.95 L2004.04 1452.69 L2012.3 1451.02 L2016.98 1451.02 L2016.98 1481.64 L2024.62 1481.64 L2024.62 1485.58 L2004.71 1485.58 L2004.71 1481.64 Z" fill="#000000" fill-rule="nonzero" fill-opacity="1" /><path clip-path="url(#clip210)" d="M2034.06 1479.7 L2038.94 1479.7 L2038.94 1485.58 L2034.06 1485.58 L2034.06 1479.7 Z" fill="#000000" fill-rule="nonzero" fill-opacity="1" /><path clip-path="url(#clip210)" d="M2059.13 1454.1 Q2055.52 1454.1 2053.69 1457.66 Q2051.88 1461.2 2051.88 1468.33 Q2051.88 1475.44 2053.69 1479.01 Q2055.52 1482.55 2059.13 1482.55 Q2062.76 1482.55 2064.57 1479.01 Q2066.4 1475.44 2066.4 1468.33 Q2066.4 1461.2 2064.57 1457.66 Q2062.76 1454.1 2059.13 1454.1 M2059.13 1450.39 Q2064.94 1450.39 2068 1455 Q2071.07 1459.58 2071.07 1468.33 Q2071.07 1477.06 2068 1481.67 Q2064.94 1486.25 2059.13 1486.25 Q2053.32 1486.25 2050.24 1481.67 Q2047.19 1477.06 2047.19 1468.33 Q2047.19 1459.58 2050.24 1455 Q2053.32 1450.39 2059.13 1450.39 Z" fill="#000000" fill-rule="nonzero" fill-opacity="1" /><path clip-path="url(#clip210)" d="M2089.29 1454.1 Q2085.68 1454.1 2083.85 1457.66 Q2082.05 1461.2 2082.05 1468.33 Q2082.05 1475.44 2083.85 1479.01 Q2085.68 1482.55 2089.29 1482.55 Q2092.93 1482.55 2094.73 1479.01 Q2096.56 1475.44 2096.56 1468.33 Q2096.56 1461.2 2094.73 1457.66 Q2092.93 1454.1 2089.29 1454.1 M2089.29 1450.39 Q2095.1 1450.39 2098.16 1455 Q2101.24 1459.58 2101.24 1468.33 Q2101.24 1477.06 2098.16 1481.67 Q2095.1 1486.25 2089.29 1486.25 Q2083.48 1486.25 2080.4 1481.67 Q2077.35 1477.06 2077.35 1468.33 Q2077.35 1459.58 2080.4 1455 Q2083.48 1450.39 2089.29 1450.39 Z" fill="#000000" fill-rule="nonzero" fill-opacity="1" /><path clip-path="url(#clip210)" d="M1330.91 1520.64 Q1330.91 1521.09 1330.62 1522.15 L1324.31 1547.34 Q1322.92 1552.94 1318.41 1556.87 Q1313.94 1560.8 1308.85 1560.8 Q1305.79 1560.8 1303.83 1559.16 Q1301.86 1557.55 1301.86 1555.07 Q1301.86 1552.88 1303.02 1551.82 Q1304.18 1550.78 1305.56 1550.78 Q1306.02 1550.78 1306.5 1550.91 Q1306.98 1551.04 1307.5 1551.59 Q1308.01 1552.14 1308.01 1553.07 Q1308.01 1554.58 1306.69 1555.78 Q1306.05 1556.32 1305.44 1556.45 Q1304.86 1556.58 1303.86 1556.58 Q1304.24 1557.48 1304.95 1558.1 Q1305.66 1558.71 1306.47 1558.93 Q1307.27 1559.19 1307.79 1559.25 Q1308.33 1559.35 1308.85 1559.35 Q1312.97 1559.35 1316.13 1555.2 Q1317.06 1553.94 1317.74 1552.68 Q1318.45 1551.46 1318.96 1549.95 Q1319.48 1548.47 1319.7 1547.66 Q1319.96 1546.86 1320.41 1545.02 Q1317.42 1548.01 1313.74 1548.01 Q1312.2 1548.01 1310.81 1547.6 Q1309.46 1547.18 1308.27 1546.31 Q1307.08 1545.41 1306.37 1543.83 Q1305.69 1542.25 1305.69 1540.16 Q1305.69 1537.93 1306.56 1534.91 Q1307.43 1531.88 1309.53 1526.31 Q1310.65 1523.18 1310.65 1521.67 Q1310.65 1520.93 1310.49 1520.48 Q1310.33 1520 1310.01 1519.83 Q1309.69 1519.64 1309.49 1519.61 Q1309.33 1519.58 1309.01 1519.58 Q1307.11 1519.58 1305.34 1521.51 Q1303.57 1523.44 1302.34 1527.76 Q1302.09 1528.56 1301.93 1528.76 Q1301.76 1528.95 1301.28 1528.95 Q1300.48 1528.92 1300.48 1528.27 Q1300.48 1528.01 1300.77 1527.02 Q1301.06 1525.99 1301.73 1524.47 Q1302.44 1522.93 1303.41 1521.54 Q1304.37 1520.12 1305.89 1519.13 Q1307.43 1518.13 1309.2 1518.13 Q1311.62 1518.13 1313.1 1519.71 Q1314.61 1521.25 1314.61 1523.54 Q1314.61 1524.47 1314.36 1525.31 Q1314.13 1526.11 1313.29 1528.27 Q1309.91 1536.97 1309.91 1541.22 Q1309.91 1542.25 1310.07 1543.12 Q1310.27 1543.96 1310.69 1544.79 Q1311.1 1545.6 1311.94 1546.08 Q1312.81 1546.53 1314 1546.53 Q1315.52 1546.53 1316.93 1545.82 Q1318.38 1545.08 1319.28 1544.09 Q1320.22 1543.09 1320.77 1542.25 Q1321.35 1541.38 1321.47 1540.93 L1324.44 1529.08 L1325.76 1523.8 Q1326.37 1520.93 1326.66 1520.22 Q1327.05 1519.54 1327.72 1519.19 Q1328.4 1518.84 1328.98 1518.84 Q1329.78 1518.84 1330.33 1519.32 Q1330.91 1519.8 1330.91 1520.64 Z" fill="#000000" fill-rule="nonzero" fill-opacity="1" /><polyline clip-path="url(#clip210)" style="stroke:#000000; stroke-linecap:round; stroke-linejoin:round; stroke-width:4; stroke-opacity:1; fill:none" points="280.19,1423.18 280.19,123.472 "/>
<polyline clip-path="url(#clip210)" style="stroke:#000000; stroke-linecap:round; stroke-linejoin:round; stroke-width:4; stroke-opacity:1; fill:none" points="280.19,1386.4 299.088,1386.4 "/>
<polyline clip-path="url(#clip210)" style="stroke:#000000; stroke-linecap:round; stroke-linejoin:round; stroke-width:4; stroke-opacity:1; fill:none" points="280.19,1045.38 299.088,1045.38 "/>
<polyline clip-path="url(#clip210)" style="stroke:#000000; stroke-linecap:round; stroke-linejoin:round; stroke-width:4; stroke-opacity:1; fill:none" points="280.19,704.364 299.088,704.364 "/>
<polyline clip-path="url(#clip210)" style="stroke:#000000; stroke-linecap:round; stroke-linejoin:round; stroke-width:4; stroke-opacity:1; fill:none" points="280.19,363.348 299.088,363.348 "/>
<path clip-path="url(#clip210)" d="M126.691 1372.19 Q123.08 1372.19 121.251 1375.76 Q119.445 1379.3 119.445 1386.43 Q119.445 1393.54 121.251 1397.1 Q123.08 1400.64 126.691 1400.64 Q130.325 1400.64 132.13 1397.1 Q133.959 1393.54 133.959 1386.43 Q133.959 1379.3 132.13 1375.76 Q130.325 1372.19 126.691 1372.19 M126.691 1368.49 Q132.501 1368.49 135.556 1373.1 Q138.635 1377.68 138.635 1386.43 Q138.635 1395.16 135.556 1399.76 Q132.501 1404.35 126.691 1404.35 Q120.88 1404.35 117.802 1399.76 Q114.746 1395.16 114.746 1386.43 Q114.746 1377.68 117.802 1373.1 Q120.88 1368.49 126.691 1368.49 Z" fill="#000000" fill-rule="nonzero" fill-opacity="1" /><path clip-path="url(#clip210)" d="M146.853 1397.8 L151.737 1397.8 L151.737 1403.68 L146.853 1403.68 L146.853 1397.8 Z" fill="#000000" fill-rule="nonzero" fill-opacity="1" /><path clip-path="url(#clip210)" d="M171.922 1372.19 Q168.311 1372.19 166.482 1375.76 Q164.677 1379.3 164.677 1386.43 Q164.677 1393.54 166.482 1397.1 Q168.311 1400.64 171.922 1400.64 Q175.556 1400.64 177.362 1397.1 Q179.19 1393.54 179.19 1386.43 Q179.19 1379.3 177.362 1375.76 Q175.556 1372.19 171.922 1372.19 M171.922 1368.49 Q177.732 1368.49 180.788 1373.1 Q183.866 1377.68 183.866 1386.43 Q183.866 1395.16 180.788 1399.76 Q177.732 1404.35 171.922 1404.35 Q166.112 1404.35 163.033 1399.76 Q159.978 1395.16 159.978 1386.43 Q159.978 1377.68 163.033 1373.1 Q166.112 1368.49 171.922 1368.49 Z" fill="#000000" fill-rule="nonzero" fill-opacity="1" /><path clip-path="url(#clip210)" d="M202.084 1372.19 Q198.473 1372.19 196.644 1375.76 Q194.838 1379.3 194.838 1386.43 Q194.838 1393.54 196.644 1397.1 Q198.473 1400.64 202.084 1400.64 Q205.718 1400.64 207.524 1397.1 Q209.352 1393.54 209.352 1386.43 Q209.352 1379.3 207.524 1375.76 Q205.718 1372.19 202.084 1372.19 M202.084 1368.49 Q207.894 1368.49 210.949 1373.1 Q214.028 1377.68 214.028 1386.43 Q214.028 1395.16 210.949 1399.76 Q207.894 1404.35 202.084 1404.35 Q196.274 1404.35 193.195 1399.76 Q190.139 1395.16 190.139 1386.43 Q190.139 1377.68 193.195 1373.1 Q196.274 1368.49 202.084 1368.49 Z" fill="#000000" fill-rule="nonzero" fill-opacity="1" /><path clip-path="url(#clip210)" d="M232.246 1372.19 Q228.635 1372.19 226.806 1375.76 Q225 1379.3 225 1386.43 Q225 1393.54 226.806 1397.1 Q228.635 1400.64 232.246 1400.64 Q235.88 1400.64 237.685 1397.1 Q239.514 1393.54 239.514 1386.43 Q239.514 1379.3 237.685 1375.76 Q235.88 1372.19 232.246 1372.19 M232.246 1368.49 Q238.056 1368.49 241.111 1373.1 Q244.19 1377.68 244.19 1386.43 Q244.19 1395.16 241.111 1399.76 Q238.056 1404.35 232.246 1404.35 Q226.435 1404.35 223.357 1399.76 Q220.301 1395.16 220.301 1386.43 Q220.301 1377.68 223.357 1373.1 Q226.435 1368.49 232.246 1368.49 Z" fill="#000000" fill-rule="nonzero" fill-opacity="1" /><path clip-path="url(#clip210)" d="M128.288 1031.18 Q124.677 1031.18 122.848 1034.74 Q121.043 1038.29 121.043 1045.41 Q121.043 1052.52 122.848 1056.09 Q124.677 1059.63 128.288 1059.63 Q131.922 1059.63 133.728 1056.09 Q135.556 1052.52 135.556 1045.41 Q135.556 1038.29 133.728 1034.74 Q131.922 1031.18 128.288 1031.18 M128.288 1027.47 Q134.098 1027.47 137.154 1032.08 Q140.232 1036.66 140.232 1045.41 Q140.232 1054.14 137.154 1058.75 Q134.098 1063.33 128.288 1063.33 Q122.478 1063.33 119.399 1058.75 Q116.343 1054.14 116.343 1045.41 Q116.343 1036.66 119.399 1032.08 Q122.478 1027.47 128.288 1027.47 Z" fill="#000000" fill-rule="nonzero" fill-opacity="1" /><path clip-path="url(#clip210)" d="M148.45 1056.78 L153.334 1056.78 L153.334 1062.66 L148.45 1062.66 L148.45 1056.78 Z" fill="#000000" fill-rule="nonzero" fill-opacity="1" /><path clip-path="url(#clip210)" d="M173.519 1031.18 Q169.908 1031.18 168.079 1034.74 Q166.274 1038.29 166.274 1045.41 Q166.274 1052.52 168.079 1056.09 Q169.908 1059.63 173.519 1059.63 Q177.153 1059.63 178.959 1056.09 Q180.788 1052.52 180.788 1045.41 Q180.788 1038.29 178.959 1034.74 Q177.153 1031.18 173.519 1031.18 M173.519 1027.47 Q179.329 1027.47 182.385 1032.08 Q185.463 1036.66 185.463 1045.41 Q185.463 1054.14 182.385 1058.75 Q179.329 1063.33 173.519 1063.33 Q167.709 1063.33 164.63 1058.75 Q161.575 1054.14 161.575 1045.41 Q161.575 1036.66 164.63 1032.08 Q167.709 1027.47 173.519 1027.47 Z" fill="#000000" fill-rule="nonzero" fill-opacity="1" /><path clip-path="url(#clip210)" d="M203.681 1031.18 Q200.07 1031.18 198.241 1034.74 Q196.436 1038.29 196.436 1045.41 Q196.436 1052.52 198.241 1056.09 Q200.07 1059.63 203.681 1059.63 Q207.315 1059.63 209.121 1056.09 Q210.949 1052.52 210.949 1045.41 Q210.949 1038.29 209.121 1034.74 Q207.315 1031.18 203.681 1031.18 M203.681 1027.47 Q209.491 1027.47 212.547 1032.08 Q215.625 1036.66 215.625 1045.41 Q215.625 1054.14 212.547 1058.75 Q209.491 1063.33 203.681 1063.33 Q197.871 1063.33 194.792 1058.75 Q191.737 1054.14 191.737 1045.41 Q191.737 1036.66 194.792 1032.08 Q197.871 1027.47 203.681 1027.47 Z" fill="#000000" fill-rule="nonzero" fill-opacity="1" /><path clip-path="url(#clip210)" d="M227.871 1058.72 L244.19 1058.72 L244.19 1062.66 L222.246 1062.66 L222.246 1058.72 Q224.908 1055.97 229.491 1051.34 Q234.097 1046.69 235.278 1045.35 Q237.523 1042.82 238.403 1041.09 Q239.306 1039.33 239.306 1037.64 Q239.306 1034.88 237.361 1033.15 Q235.44 1031.41 232.338 1031.41 Q230.139 1031.41 227.685 1032.17 Q225.255 1032.94 222.477 1034.49 L222.477 1029.77 Q225.301 1028.63 227.755 1028.05 Q230.209 1027.47 232.246 1027.47 Q237.616 1027.47 240.81 1030.16 Q244.005 1032.85 244.005 1037.34 Q244.005 1039.47 243.195 1041.39 Q242.408 1043.29 240.301 1045.88 Q239.722 1046.55 236.621 1049.77 Q233.519 1052.96 227.871 1058.72 Z" fill="#000000" fill-rule="nonzero" fill-opacity="1" /><path clip-path="url(#clip210)" d="M126.205 690.163 Q122.593 690.163 120.765 693.728 Q118.959 697.269 118.959 704.399 Q118.959 711.505 120.765 715.07 Q122.593 718.612 126.205 718.612 Q129.839 718.612 131.644 715.07 Q133.473 711.505 133.473 704.399 Q133.473 697.269 131.644 693.728 Q129.839 690.163 126.205 690.163 M126.205 686.459 Q132.015 686.459 135.07 691.066 Q138.149 695.649 138.149 704.399 Q138.149 713.126 135.07 717.732 Q132.015 722.315 126.205 722.315 Q120.394 722.315 117.316 717.732 Q114.26 713.126 114.26 704.399 Q114.26 695.649 117.316 691.066 Q120.394 686.459 126.205 686.459 Z" fill="#000000" fill-rule="nonzero" fill-opacity="1" /><path clip-path="url(#clip210)" d="M146.366 715.765 L151.251 715.765 L151.251 721.644 L146.366 721.644 L146.366 715.765 Z" fill="#000000" fill-rule="nonzero" fill-opacity="1" /><path clip-path="url(#clip210)" d="M171.436 690.163 Q167.825 690.163 165.996 693.728 Q164.19 697.269 164.19 704.399 Q164.19 711.505 165.996 715.07 Q167.825 718.612 171.436 718.612 Q175.07 718.612 176.876 715.07 Q178.704 711.505 178.704 704.399 Q178.704 697.269 176.876 693.728 Q175.07 690.163 171.436 690.163 M171.436 686.459 Q177.246 686.459 180.301 691.066 Q183.38 695.649 183.38 704.399 Q183.38 713.126 180.301 717.732 Q177.246 722.315 171.436 722.315 Q165.626 722.315 162.547 717.732 Q159.491 713.126 159.491 704.399 Q159.491 695.649 162.547 691.066 Q165.626 686.459 171.436 686.459 Z" fill="#000000" fill-rule="nonzero" fill-opacity="1" /><path clip-path="url(#clip210)" d="M201.598 690.163 Q197.987 690.163 196.158 693.728 Q194.352 697.269 194.352 704.399 Q194.352 711.505 196.158 715.07 Q197.987 718.612 201.598 718.612 Q205.232 718.612 207.037 715.07 Q208.866 711.505 208.866 704.399 Q208.866 697.269 207.037 693.728 Q205.232 690.163 201.598 690.163 M201.598 686.459 Q207.408 686.459 210.463 691.066 Q213.542 695.649 213.542 704.399 Q213.542 713.126 210.463 717.732 Q207.408 722.315 201.598 722.315 Q195.787 722.315 192.709 717.732 Q189.653 713.126 189.653 704.399 Q189.653 695.649 192.709 691.066 Q195.787 686.459 201.598 686.459 Z" fill="#000000" fill-rule="nonzero" fill-opacity="1" /><path clip-path="url(#clip210)" d="M234.607 691.158 L222.801 709.607 L234.607 709.607 L234.607 691.158 M233.38 687.084 L239.259 687.084 L239.259 709.607 L244.19 709.607 L244.19 713.496 L239.259 713.496 L239.259 721.644 L234.607 721.644 L234.607 713.496 L219.005 713.496 L219.005 708.982 L233.38 687.084 Z" fill="#000000" fill-rule="nonzero" fill-opacity="1" /><path clip-path="url(#clip210)" d="M126.529 349.147 Q122.918 349.147 121.089 352.712 Q119.283 356.254 119.283 363.383 Q119.283 370.49 121.089 374.054 Q122.918 377.596 126.529 377.596 Q130.163 377.596 131.968 374.054 Q133.797 370.49 133.797 363.383 Q133.797 356.254 131.968 352.712 Q130.163 349.147 126.529 349.147 M126.529 345.443 Q132.339 345.443 135.394 350.05 Q138.473 354.633 138.473 363.383 Q138.473 372.11 135.394 376.716 Q132.339 381.3 126.529 381.3 Q120.718 381.3 117.64 376.716 Q114.584 372.11 114.584 363.383 Q114.584 354.633 117.64 350.05 Q120.718 345.443 126.529 345.443 Z" fill="#000000" fill-rule="nonzero" fill-opacity="1" /><path clip-path="url(#clip210)" d="M146.691 374.749 L151.575 374.749 L151.575 380.628 L146.691 380.628 L146.691 374.749 Z" fill="#000000" fill-rule="nonzero" fill-opacity="1" /><path clip-path="url(#clip210)" d="M171.76 349.147 Q168.149 349.147 166.32 352.712 Q164.515 356.254 164.515 363.383 Q164.515 370.49 166.32 374.054 Q168.149 377.596 171.76 377.596 Q175.394 377.596 177.2 374.054 Q179.028 370.49 179.028 363.383 Q179.028 356.254 177.2 352.712 Q175.394 349.147 171.76 349.147 M171.76 345.443 Q177.57 345.443 180.626 350.05 Q183.704 354.633 183.704 363.383 Q183.704 372.11 180.626 376.716 Q177.57 381.3 171.76 381.3 Q165.95 381.3 162.871 376.716 Q159.815 372.11 159.815 363.383 Q159.815 354.633 162.871 350.05 Q165.95 345.443 171.76 345.443 Z" fill="#000000" fill-rule="nonzero" fill-opacity="1" /><path clip-path="url(#clip210)" d="M201.922 349.147 Q198.311 349.147 196.482 352.712 Q194.676 356.254 194.676 363.383 Q194.676 370.49 196.482 374.054 Q198.311 377.596 201.922 377.596 Q205.556 377.596 207.362 374.054 Q209.19 370.49 209.19 363.383 Q209.19 356.254 207.362 352.712 Q205.556 349.147 201.922 349.147 M201.922 345.443 Q207.732 345.443 210.787 350.05 Q213.866 354.633 213.866 363.383 Q213.866 372.11 210.787 376.716 Q207.732 381.3 201.922 381.3 Q196.112 381.3 193.033 376.716 Q189.977 372.11 189.977 363.383 Q189.977 354.633 193.033 350.05 Q196.112 345.443 201.922 345.443 Z" fill="#000000" fill-rule="nonzero" fill-opacity="1" /><path clip-path="url(#clip210)" d="M232.662 361.485 Q229.514 361.485 227.662 363.638 Q225.834 365.791 225.834 369.541 Q225.834 373.267 227.662 375.443 Q229.514 377.596 232.662 377.596 Q235.81 377.596 237.639 375.443 Q239.491 373.267 239.491 369.541 Q239.491 365.791 237.639 363.638 Q235.81 361.485 232.662 361.485 M241.945 346.832 L241.945 351.092 Q240.185 350.258 238.38 349.818 Q236.597 349.379 234.838 349.379 Q230.209 349.379 227.755 352.504 Q225.324 355.629 224.977 361.948 Q226.343 359.934 228.403 358.869 Q230.463 357.781 232.94 357.781 Q238.148 357.781 241.158 360.953 Q244.19 364.101 244.19 369.541 Q244.19 374.865 241.042 378.082 Q237.894 381.3 232.662 381.3 Q226.667 381.3 223.496 376.716 Q220.324 372.11 220.324 363.383 Q220.324 355.189 224.213 350.328 Q228.102 345.443 234.653 345.443 Q236.412 345.443 238.195 345.791 Q240 346.138 241.945 346.832 Z" fill="#000000" fill-rule="nonzero" fill-opacity="1" /><path clip-path="url(#clip210)" d="M41.5432 799.903 Q43.4756 799.903 46.8572 800.644 Q50.2388 801.353 51.8491 801.932 Q56.1325 803.543 59.7395 806.763 Q61.7363 808.535 63.1856 810.467 Q64.6026 812.367 65.3112 813.784 Q65.9875 815.201 66.3417 816.876 Q66.7282 818.551 66.7604 819.323 Q66.8248 820.096 66.8248 821.191 L76.6476 823.703 Q79.1919 824.219 79.3529 824.476 Q79.4817 824.541 79.5461 824.702 Q79.6106 824.831 79.6106 824.96 L79.6106 825.088 Q79.6106 825.443 79.4495 825.636 Q79.2885 825.829 79.0953 825.861 L78.9342 825.861 Q78.4834 825.861 72.6863 824.348 Q69.7234 823.575 66.6638 822.898 Q66.3417 828.051 64.0551 831.24 Q61.7685 834.396 57.3241 834.396 Q54.5866 834.396 46.1809 831.207 Q42.1551 829.694 40.4804 829.694 Q39.7397 829.694 39.2888 829.855 Q38.8057 830.016 38.6447 830.338 Q38.4515 830.66 38.4193 830.853 Q38.3871 831.014 38.3871 831.336 Q38.3871 833.236 40.2872 835.008 Q42.1873 836.779 46.5673 838.003 Q47.3725 838.261 47.5657 838.422 Q47.759 838.583 47.759 839.066 Q47.7268 839.871 47.0826 839.871 Q46.825 839.871 45.8266 839.581 Q44.796 839.291 43.2823 838.615 Q41.7365 837.906 40.3516 836.94 Q38.9346 835.974 37.9362 834.46 Q36.9378 832.914 36.9378 831.143 Q36.9378 828.728 38.5159 827.246 Q40.0618 825.732 42.3484 825.732 Q42.7993 825.732 43.3146 825.829 Q43.8298 825.926 44.1197 826.022 Q44.4096 826.087 44.957 826.28 Q45.4723 826.441 45.569 826.473 Q49.8201 828.116 52.5898 828.953 Q55.3273 829.79 56.1325 829.919 Q56.9054 830.016 57.8394 830.016 Q64.345 830.016 65.2145 822.512 L21.64 811.562 Q20.7382 811.369 20.545 811.208 Q20.3196 811.047 20.3196 810.563 Q20.3196 809.791 21.0281 809.791 Q21.2535 809.791 22.0265 809.984 L65.3434 820.869 Q65.3434 819.839 65.3112 819.195 Q65.2789 818.551 64.9891 817.198 Q64.667 815.813 64.0873 814.654 Q63.5076 813.462 62.3482 811.787 Q61.1566 810.113 59.4819 808.47 Q57.3885 806.409 53.8781 804.573 Q50.3676 802.737 47.4691 802.737 Q44.2163 802.737 41.8653 805.089 Q41.5432 805.443 41.35 805.636 Q41.1568 805.797 40.8347 805.958 Q40.5126 806.087 40.094 806.087 Q38.999 806.087 37.9684 805.056 Q36.9378 804.026 36.9378 802.802 Q36.9378 801.707 38.0006 800.805 Q39.0634 799.903 41.5432 799.903 Z" fill="#000000" fill-rule="nonzero" fill-opacity="1" /><path clip-path="url(#clip210)" d="M49.5947 789.166 Q38.4515 789.166 29.466 785.012 Q25.6979 783.24 22.5418 780.76 Q19.3856 778.281 18.0007 776.638 Q16.6159 774.996 16.6159 774.545 Q16.6159 773.901 17.26 773.868 Q17.5821 773.868 18.3872 774.738 Q29.2084 785.366 49.5947 785.334 Q70.0454 785.334 80.4479 774.996 Q81.5751 773.868 81.9294 773.868 Q82.5735 773.868 82.5735 774.545 Q82.5735 774.996 81.2531 776.574 Q79.9326 778.152 76.9053 780.599 Q73.8779 783.047 70.1742 784.818 Q61.1888 789.166 49.5947 789.166 Z" fill="#000000" fill-rule="nonzero" fill-opacity="1" /><path clip-path="url(#clip210)" d="M39.4498 738.42 Q39.9007 738.42 40.9635 738.71 L66.1485 745.022 Q71.7523 746.407 75.6814 750.916 Q79.6106 755.393 79.6106 760.481 Q79.6106 763.541 77.9681 765.505 Q76.3578 767.47 73.8779 767.47 Q71.6879 767.47 70.6251 766.31 Q69.5945 765.151 69.5945 763.766 Q69.5945 763.315 69.7234 762.832 Q69.8522 762.349 70.3997 761.834 Q70.9472 761.319 71.8812 761.319 Q73.3948 761.319 74.5864 762.639 Q75.1339 763.283 75.2628 763.895 Q75.3916 764.475 75.3916 765.473 Q76.2934 765.087 76.9053 764.378 Q77.5172 763.67 77.7426 762.864 Q78.0003 762.059 78.0647 761.544 Q78.1613 760.997 78.1613 760.481 Q78.1613 756.359 74.0067 753.203 Q72.7507 752.269 71.4947 751.592 Q70.2709 750.884 68.7572 750.369 Q67.2757 749.853 66.4706 749.628 Q65.6654 749.37 63.8297 748.919 Q66.8248 751.914 66.8248 755.586 Q66.8248 757.132 66.4062 758.517 Q65.9875 759.869 65.1179 761.061 Q64.2162 762.253 62.6381 762.961 Q61.06 763.637 58.9666 763.637 Q56.7444 763.637 53.717 762.768 Q50.6897 761.898 45.1181 759.805 Q41.9941 758.678 40.4804 758.678 Q39.7397 758.678 39.2888 758.839 Q38.8057 759 38.6447 759.322 Q38.4515 759.644 38.4193 759.837 Q38.3871 759.998 38.3871 760.32 Q38.3871 762.22 40.3194 763.992 Q42.2518 765.763 46.5673 766.987 Q47.3725 767.244 47.5657 767.405 Q47.759 767.566 47.759 768.05 Q47.7268 768.855 47.0826 768.855 Q46.825 768.855 45.8266 768.565 Q44.796 768.275 43.2823 767.599 Q41.7365 766.89 40.3516 765.924 Q38.9346 764.958 37.9362 763.444 Q36.9378 761.898 36.9378 760.127 Q36.9378 757.712 38.5159 756.23 Q40.0618 754.716 42.3484 754.716 Q43.2823 754.716 44.1197 754.974 Q44.9248 755.199 47.0826 756.037 Q55.7782 759.418 60.0294 759.418 Q61.06 759.418 61.9295 759.257 Q62.7669 759.064 63.6042 758.645 Q64.4094 758.227 64.8925 757.389 Q65.3434 756.52 65.3434 755.328 Q65.3434 753.815 64.6348 752.398 Q63.8941 750.948 62.8957 750.047 Q61.8973 749.113 61.06 748.565 Q60.1904 747.985 59.7395 747.857 L47.8878 744.894 L42.606 743.573 Q39.7397 742.961 39.0312 742.671 Q38.3548 742.285 38.0006 741.609 Q37.6463 740.932 37.6463 740.353 Q37.6463 739.547 38.1294 739 Q38.6125 738.42 39.4498 738.42 Z" fill="#000000" fill-rule="nonzero" fill-opacity="1" /><path clip-path="url(#clip210)" d="M81.9294 732.109 Q81.6073 732.109 80.8022 731.271 Q69.981 720.643 49.5947 720.643 Q29.144 720.643 18.8059 730.853 Q17.6143 732.109 17.26 732.109 Q16.6159 732.109 16.6159 731.464 Q16.6159 731.014 17.9363 729.435 Q19.2568 727.825 22.2841 725.41 Q25.3115 722.962 29.0151 721.159 Q38.0006 716.811 49.5947 716.811 Q60.7379 716.811 69.7234 720.965 Q73.4914 722.737 76.6476 725.216 Q79.8038 727.696 81.1886 729.339 Q82.5735 730.981 82.5735 731.464 Q82.5735 732.109 81.9294 732.109 Z" fill="#000000" fill-rule="nonzero" fill-opacity="1" /><path clip-path="url(#clip210)" d="M938.139 12.096 L972.896 12.096 L972.896 18.9825 L946.322 18.9825 L946.322 36.8065 L970.303 36.8065 L970.303 43.6931 L946.322 43.6931 L946.322 72.576 L938.139 72.576 L938.139 12.096 Z" fill="#000000" fill-rule="nonzero" fill-opacity="1" /><path clip-path="url(#clip210)" d="M980.228 54.671 L980.228 27.2059 L987.681 27.2059 L987.681 54.3874 Q987.681 60.8284 990.193 64.0691 Q992.704 67.2693 997.728 67.2693 Q1003.76 67.2693 1007.25 63.421 Q1010.77 59.5726 1010.77 52.9291 L1010.77 27.2059 L1018.23 27.2059 L1018.23 72.576 L1010.77 72.576 L1010.77 65.6084 Q1008.06 69.7404 1004.45 71.7658 Q1000.89 73.7508 996.148 73.7508 Q988.329 73.7508 984.279 68.8897 Q980.228 64.0286 980.228 54.671 M998.983 26.1121 L998.983 26.1121 Z" fill="#000000" fill-rule="nonzero" fill-opacity="1" /><path clip-path="url(#clip210)" d="M1071.29 45.1919 L1071.29 72.576 L1063.84 72.576 L1063.84 45.4349 Q1063.84 38.994 1061.33 35.7938 Q1058.82 32.5936 1053.79 32.5936 Q1047.76 32.5936 1044.27 36.4419 Q1040.79 40.2903 1040.79 46.9338 L1040.79 72.576 L1033.29 72.576 L1033.29 27.2059 L1040.79 27.2059 L1040.79 34.2544 Q1043.46 30.163 1047.07 28.1376 Q1050.71 26.1121 1055.45 26.1121 Q1063.27 26.1121 1067.28 30.9732 Q1071.29 35.7938 1071.29 45.1919 Z" fill="#000000" fill-rule="nonzero" fill-opacity="1" /><path clip-path="url(#clip210)" d="M1116.01 49.3643 Q1116.01 41.2625 1112.65 36.8065 Q1109.33 32.3505 1103.29 32.3505 Q1097.3 32.3505 1093.94 36.8065 Q1090.61 41.2625 1090.61 49.3643 Q1090.61 57.4256 1093.94 61.8816 Q1097.3 66.3376 1103.29 66.3376 Q1109.33 66.3376 1112.65 61.8816 Q1116.01 57.4256 1116.01 49.3643 M1123.47 66.9452 Q1123.47 78.5308 1118.32 84.1616 Q1113.18 89.8329 1102.56 89.8329 Q1098.64 89.8329 1095.15 89.2252 Q1091.67 88.6581 1088.39 87.4428 L1088.39 80.1917 Q1091.67 81.9741 1094.87 82.8248 Q1098.07 83.6755 1101.39 83.6755 Q1108.72 83.6755 1112.37 79.8271 Q1116.01 76.0193 1116.01 68.282 L1116.01 64.5957 Q1113.7 68.6061 1110.1 70.5911 Q1106.49 72.576 1101.47 72.576 Q1093.13 72.576 1088.02 66.2161 Q1082.92 59.8562 1082.92 49.3643 Q1082.92 38.832 1088.02 32.472 Q1093.13 26.1121 1101.47 26.1121 Q1106.49 26.1121 1110.1 28.0971 Q1113.7 30.082 1116.01 34.0924 L1116.01 27.2059 L1123.47 27.2059 L1123.47 66.9452 Z" fill="#000000" fill-rule="nonzero" fill-opacity="1" /><path clip-path="url(#clip210)" d="M1167.74 28.5427 L1167.74 35.5912 Q1164.58 33.9709 1161.18 33.1607 Q1157.78 32.3505 1154.13 32.3505 Q1148.58 32.3505 1145.79 34.0519 Q1143.03 35.7533 1143.03 39.156 Q1143.03 41.7486 1145.02 43.2475 Q1147 44.7058 1153 46.0426 L1155.55 46.6097 Q1163.49 48.3111 1166.81 51.4303 Q1170.17 54.509 1170.17 60.0587 Q1170.17 66.3781 1165.15 70.0644 Q1160.17 73.7508 1151.42 73.7508 Q1147.77 73.7508 1143.8 73.0216 Q1139.87 72.3329 1135.5 70.9151 L1135.5 63.2184 Q1139.63 65.3654 1143.64 66.4591 Q1147.65 67.5124 1151.58 67.5124 Q1156.85 67.5124 1159.68 65.73 Q1162.52 63.9071 1162.52 60.6258 Q1162.52 57.5877 1160.45 55.9673 Q1158.43 54.3469 1151.5 52.8481 L1148.91 52.2405 Q1141.98 50.7821 1138.9 47.7845 Q1135.82 44.7463 1135.82 39.4801 Q1135.82 33.0797 1140.36 29.5959 Q1144.9 26.1121 1153.24 26.1121 Q1157.37 26.1121 1161.02 26.7198 Q1164.67 27.3274 1167.74 28.5427 Z" fill="#000000" fill-rule="nonzero" fill-opacity="1" /><path clip-path="url(#clip210)" d="M1182.04 27.2059 L1189.5 27.2059 L1189.5 72.576 L1182.04 72.576 L1182.04 27.2059 M1182.04 9.54393 L1189.5 9.54393 L1189.5 18.9825 L1182.04 18.9825 L1182.04 9.54393 Z" fill="#000000" fill-rule="nonzero" fill-opacity="1" /><path clip-path="url(#clip210)" d="M1273.03 63.9476 L1273.03 47.7034 L1259.66 47.7034 L1259.66 40.9789 L1281.13 40.9789 L1281.13 66.9452 Q1276.39 70.3075 1270.68 72.0494 Q1264.97 73.7508 1258.48 73.7508 Q1244.31 73.7508 1236.29 65.4869 Q1228.31 57.1826 1228.31 42.3968 Q1228.31 27.5705 1236.29 19.3066 Q1244.31 11.0023 1258.48 11.0023 Q1264.4 11.0023 1269.71 12.4606 Q1275.05 13.9189 1279.55 16.7545 L1279.55 25.464 Q1275.01 21.6156 1269.91 19.6712 Q1264.8 17.7268 1259.17 17.7268 Q1248.07 17.7268 1242.48 23.9246 Q1236.93 30.1225 1236.93 42.3968 Q1236.93 54.6305 1242.48 60.8284 Q1248.07 67.0263 1259.17 67.0263 Q1263.51 67.0263 1266.91 66.2971 Q1270.31 65.5274 1273.03 63.9476 Z" fill="#000000" fill-rule="nonzero" fill-opacity="1" /><path clip-path="url(#clip210)" d="M1334.56 48.0275 L1334.56 51.6733 L1300.29 51.6733 Q1300.78 59.3701 1304.91 63.421 Q1309.08 67.4314 1316.49 67.4314 Q1320.79 67.4314 1324.8 66.3781 Q1328.85 65.3249 1332.82 63.2184 L1332.82 70.267 Q1328.81 71.9684 1324.6 72.8596 Q1320.38 73.7508 1316.05 73.7508 Q1305.19 73.7508 1298.83 67.4314 Q1292.51 61.1119 1292.51 50.3365 Q1292.51 39.1965 1298.51 32.6746 Q1304.54 26.1121 1314.75 26.1121 Q1323.91 26.1121 1329.21 32.0264 Q1334.56 37.9003 1334.56 48.0275 M1327.11 45.84 Q1327.03 39.7232 1323.66 36.0774 Q1320.34 32.4315 1314.83 32.4315 Q1308.59 32.4315 1304.83 35.9558 Q1301.1 39.4801 1300.53 45.8805 L1327.11 45.84 Z" fill="#000000" fill-rule="nonzero" fill-opacity="1" /><path clip-path="url(#clip210)" d="M1346.79 9.54393 L1354.25 9.54393 L1354.25 72.576 L1346.79 72.576 L1346.79 9.54393 Z" fill="#000000" fill-rule="nonzero" fill-opacity="1" /><path clip-path="url(#clip210)" d="M1387.42 32.4315 Q1381.43 32.4315 1377.95 37.1306 Q1374.46 41.7891 1374.46 49.9314 Q1374.46 58.0738 1377.9 62.7728 Q1381.39 67.4314 1387.42 67.4314 Q1393.38 67.4314 1396.86 62.7323 Q1400.35 58.0333 1400.35 49.9314 Q1400.35 41.8701 1396.86 37.1711 Q1393.38 32.4315 1387.42 32.4315 M1387.42 26.1121 Q1397.15 26.1121 1402.7 32.4315 Q1408.25 38.7509 1408.25 49.9314 Q1408.25 61.0714 1402.7 67.4314 Q1397.15 73.7508 1387.42 73.7508 Q1377.66 73.7508 1372.11 67.4314 Q1366.6 61.0714 1366.6 49.9314 Q1366.6 38.7509 1372.11 32.4315 Q1377.66 26.1121 1387.42 26.1121 Z" fill="#000000" fill-rule="nonzero" fill-opacity="1" /><path clip-path="url(#clip210)" d="M1455.93 35.9153 Q1458.72 30.8922 1462.61 28.5022 Q1466.5 26.1121 1471.76 26.1121 Q1478.85 26.1121 1482.7 31.0947 Q1486.55 36.0368 1486.55 45.1919 L1486.55 72.576 L1479.06 72.576 L1479.06 45.4349 Q1479.06 38.913 1476.75 35.7533 Q1474.44 32.5936 1469.7 32.5936 Q1463.91 32.5936 1460.54 36.4419 Q1457.18 40.2903 1457.18 46.9338 L1457.18 72.576 L1449.69 72.576 L1449.69 45.4349 Q1449.69 38.8725 1447.38 35.7533 Q1445.07 32.5936 1440.25 32.5936 Q1434.54 32.5936 1431.17 36.4824 Q1427.81 40.3308 1427.81 46.9338 L1427.81 72.576 L1420.32 72.576 L1420.32 27.2059 L1427.81 27.2059 L1427.81 34.2544 Q1430.36 30.082 1433.93 28.0971 Q1437.49 26.1121 1442.4 26.1121 Q1447.34 26.1121 1450.78 28.6237 Q1454.26 31.1352 1455.93 35.9153 Z" fill="#000000" fill-rule="nonzero" fill-opacity="1" /><path clip-path="url(#clip210)" d="M1533.99 49.9314 Q1533.99 41.7081 1530.58 37.0496 Q1527.22 32.3505 1521.31 32.3505 Q1515.39 32.3505 1511.99 37.0496 Q1508.63 41.7081 1508.63 49.9314 Q1508.63 58.1548 1511.99 62.8538 Q1515.39 67.5124 1521.31 67.5124 Q1527.22 67.5124 1530.58 62.8538 Q1533.99 58.1548 1533.99 49.9314 M1508.63 34.0924 Q1510.98 30.0415 1514.54 28.0971 Q1518.15 26.1121 1523.13 26.1121 Q1531.39 26.1121 1536.54 32.6746 Q1541.72 39.2371 1541.72 49.9314 Q1541.72 60.6258 1536.54 67.1883 Q1531.39 73.7508 1523.13 73.7508 Q1518.15 73.7508 1514.54 71.8063 Q1510.98 69.8214 1508.63 65.7705 L1508.63 72.576 L1501.13 72.576 L1501.13 9.54393 L1508.63 9.54393 L1508.63 34.0924 Z" fill="#000000" fill-rule="nonzero" fill-opacity="1" /><path clip-path="url(#clip210)" d="M1574.7 49.7694 Q1565.66 49.7694 1562.18 51.8354 Q1558.7 53.9013 1558.7 58.8839 Q1558.7 62.8538 1561.29 65.2034 Q1563.92 67.5124 1568.42 67.5124 Q1574.62 67.5124 1578.34 63.1374 Q1582.11 58.7219 1582.11 51.4303 L1582.11 49.7694 L1574.7 49.7694 M1589.56 46.6907 L1589.56 72.576 L1582.11 72.576 L1582.11 65.6895 Q1579.56 69.8214 1575.75 71.8063 Q1571.94 73.7508 1566.43 73.7508 Q1559.47 73.7508 1555.33 69.8619 Q1551.24 65.9325 1551.24 59.3701 Q1551.24 51.7138 1556.35 47.825 Q1561.49 43.9361 1571.66 43.9361 L1582.11 43.9361 L1582.11 43.2069 Q1582.11 38.0623 1578.71 35.2672 Q1575.35 32.4315 1569.23 32.4315 Q1565.34 32.4315 1561.65 33.3632 Q1557.97 34.295 1554.56 36.1584 L1554.56 29.2718 Q1558.66 27.692 1562.5 26.9223 Q1566.35 26.1121 1570 26.1121 Q1579.84 26.1121 1584.7 31.2163 Q1589.56 36.3204 1589.56 46.6907 Z" fill="#000000" fill-rule="nonzero" fill-opacity="1" /><path clip-path="url(#clip210)" d="M1642.63 45.1919 L1642.63 72.576 L1635.18 72.576 L1635.18 45.4349 Q1635.18 38.994 1632.67 35.7938 Q1630.15 32.5936 1625.13 32.5936 Q1619.1 32.5936 1615.61 36.4419 Q1612.13 40.2903 1612.13 46.9338 L1612.13 72.576 L1604.63 72.576 L1604.63 27.2059 L1612.13 27.2059 L1612.13 34.2544 Q1614.8 30.163 1618.41 28.1376 Q1622.05 26.1121 1626.79 26.1121 Q1634.61 26.1121 1638.62 30.9732 Q1642.63 35.7938 1642.63 45.1919 Z" fill="#000000" fill-rule="nonzero" fill-opacity="1" /><path clip-path="url(#clip210)" d="M1687.35 49.3643 Q1687.35 41.2625 1683.99 36.8065 Q1680.67 32.3505 1674.63 32.3505 Q1668.64 32.3505 1665.28 36.8065 Q1661.95 41.2625 1661.95 49.3643 Q1661.95 57.4256 1665.28 61.8816 Q1668.64 66.3376 1674.63 66.3376 Q1680.67 66.3376 1683.99 61.8816 Q1687.35 57.4256 1687.35 49.3643 M1694.81 66.9452 Q1694.81 78.5308 1689.66 84.1616 Q1684.52 89.8329 1673.9 89.8329 Q1669.98 89.8329 1666.49 89.2252 Q1663.01 88.6581 1659.73 87.4428 L1659.73 80.1917 Q1663.01 81.9741 1666.21 82.8248 Q1669.41 83.6755 1672.73 83.6755 Q1680.06 83.6755 1683.71 79.8271 Q1687.35 76.0193 1687.35 68.282 L1687.35 64.5957 Q1685.04 68.6061 1681.44 70.5911 Q1677.83 72.576 1672.81 72.576 Q1664.47 72.576 1659.36 66.2161 Q1654.26 59.8562 1654.26 49.3643 Q1654.26 38.832 1659.36 32.472 Q1664.47 26.1121 1672.81 26.1121 Q1677.83 26.1121 1681.44 28.0971 Q1685.04 30.082 1687.35 34.0924 L1687.35 27.2059 L1694.81 27.2059 L1694.81 66.9452 Z" fill="#000000" fill-rule="nonzero" fill-opacity="1" /><polyline clip-path="url(#clip212)" style="stroke:#009af9; stroke-linecap:round; stroke-linejoin:round; stroke-width:4; stroke-opacity:1; fill:none" points="338.848,1386.4 342.774,1386.39 346.7,1386.39 350.626,1386.39 354.552,1386.39 358.479,1386.38 362.405,1386.38 366.331,1386.37 370.257,1386.36 374.183,1386.36 378.11,1386.35 382.036,1386.34 385.962,1386.33 389.888,1386.32 393.814,1386.31 397.741,1386.29 401.667,1386.28 405.593,1386.26 409.519,1386.25 413.445,1386.23 417.372,1386.21 421.298,1386.19 425.224,1386.17 429.15,1386.14 433.076,1386.12 437.003,1386.09 440.929,1386.06 444.855,1386.03 448.781,1386 452.708,1385.96 456.634,1385.93 460.56,1385.89 464.486,1385.84 468.412,1385.8 472.339,1385.75 476.265,1385.7 480.191,1385.65 484.117,1385.59 488.043,1385.53 491.97,1385.47 495.896,1385.4 499.822,1385.33 503.748,1385.25 507.674,1385.17 511.601,1385.08 515.527,1384.99 519.453,1384.89 523.379,1384.79 527.305,1384.67 531.232,1384.56 535.158,1384.43 539.084,1384.3 543.01,1384.16 546.936,1384.01 550.863,1383.86 554.789,1383.69 558.715,1383.51 562.641,1383.32 566.568,1383.12 570.494,1382.91 574.42,1382.68 578.346,1382.45 582.272,1382.19 586.199,1381.92 590.125,1381.64 594.051,1381.34 597.977,1381.02 601.903,1380.67 605.83,1380.31 609.756,1379.93 613.682,1379.52 617.608,1379.09 621.534,1378.63 625.461,1378.15 629.387,1377.63 633.313,1377.08 637.239,1376.5 641.165,1375.89 645.092,1375.24 649.018,1374.54 652.944,1373.81 656.87,1373.03 660.796,1372.2 664.723,1371.32 668.649,1370.39 672.575,1369.4 676.501,1368.35 680.428,1367.24 684.354,1366.06 688.28,1364.81 692.206,1363.48 696.132,1362.07 700.059,1360.57 703.985,1358.99 707.911,1357.3 711.837,1355.52 715.763,1353.62 719.69,1351.61 723.616,1349.48 727.542,1347.22 731.468,1344.82 735.394,1342.27 739.321,1339.57 743.247,1336.7 747.173,1333.66 751.099,1330.43 755.025,1327.01 758.952,1323.37 762.878,1319.52 766.804,1315.43 770.73,1311.09 774.656,1306.49 778.583,1301.61 782.509,1296.43 786.435,1290.93 790.361,1285.1 794.287,1278.91 798.214,1272.35 802.14,1265.38 806.066,1257.99 809.992,1250.15 813.919,1241.84 817.845,1233.01 821.771,1223.65 825.697,1213.72 829.623,1203.18 833.55,1192.39 837.476,1181.35 841.402,1170.06 845.328,1158.54 849.254,1146.79 853.181,1134.82 857.107,1122.63 861.033,1110.23 864.959,1097.63 868.885,1084.84 872.812,1071.87 876.738,1058.71 880.664,1045.39 884.59,1031.9 888.516,1018.26 892.443,1004.48 896.369,990.557 900.295,976.504 904.221,962.331 908.147,948.045 912.074,933.656 916,919.17 919.926,904.598 923.852,889.948 927.779,875.228 931.705,860.448 935.631,845.616 939.557,830.741 943.483,815.831 947.41,800.896 951.336,785.945 955.262,770.986 959.188,756.029 963.114,741.082 967.041,726.154 970.967,711.255 974.893,696.392 978.819,681.575 982.745,666.812 986.672,652.113 990.598,637.487 994.524,622.941 998.45,608.484 1002.38,594.126 1006.3,579.875 1010.23,565.738 1014.16,551.725 1018.08,537.845 1022.01,524.104 1025.93,510.512 1029.86,497.076 1033.79,483.805 1037.71,470.706 1041.64,457.787 1045.56,445.056 1049.49,432.52 1053.42,420.188 1057.34,408.065 1061.27,396.161 1065.2,384.48 1069.12,373.031 1073.05,361.821 1076.97,350.856 1080.9,340.142 1084.83,329.686 1088.75,319.494 1092.68,309.572 1096.61,299.926 1100.53,290.563 1104.46,281.486 1108.38,272.703 1112.31,264.217 1116.24,256.035 1120.16,248.161 1124.09,240.599 1128.02,233.354 1131.94,226.431 1135.87,219.834 1139.79,213.566 1143.72,207.631 1147.65,202.033 1151.57,196.776 1155.5,191.861 1159.42,187.293 1163.35,183.074 1167.28,179.206 1171.2,175.692 1175.13,172.533 1179.06,169.733 1182.98,167.291 1186.91,165.211 1190.83,163.492 1194.76,162.137 1198.69,161.145 1202.61,160.518 1206.54,160.256 1210.47,160.359 1214.39,160.827 1218.32,161.659 1222.24,162.856 1226.17,164.416 1230.1,166.339 1234.02,168.623 1237.95,171.267 1241.88,174.269 1245.8,177.628 1249.73,181.342 1253.65,185.408 1257.58,189.825 1261.51,194.588 1265.43,199.697 1269.36,205.146 1273.28,210.934 1277.21,217.057 1281.14,223.511 1285.06,230.293 1288.99,237.398 1292.92,244.821 1296.84,252.56 1300.77,260.608 1304.69,268.962 1308.62,277.616 1312.55,286.565 1316.47,295.804 1320.4,305.328 1324.33,315.13 1328.25,325.204 1332.18,335.546 1336.1,346.148 1340.03,357.004 1343.96,368.109 1347.88,379.454 1351.81,391.034 1355.74,402.842 1359.66,414.871 1363.59,427.112 1367.51,439.56 1371.44,452.207 1375.37,465.044 1379.29,478.066 1383.22,491.263 1387.14,504.628 1391.07,518.153 1395,531.83 1398.92,545.65 1402.85,559.606 1406.78,573.69 1410.7,587.892 1414.63,602.205 1418.55,616.619 1422.48,631.127 1426.41,645.72 1430.33,660.388 1434.26,675.124 1438.19,689.918 1442.11,704.762 1446.04,719.302 1449.96,733.543 1453.89,747.492 1457.82,761.156 1461.74,774.539 1465.67,787.647 1469.6,800.487 1473.52,813.063 1477.45,825.381 1481.37,837.447 1485.3,849.265 1489.23,860.841 1493.15,872.179 1497.08,883.284 1501,894.162 1504.93,904.816 1508.86,915.252 1512.78,925.474 1516.71,935.486 1520.64,945.292 1524.56,954.897 1528.49,964.305 1532.41,973.519 1536.34,982.545 1540.27,991.385 1544.19,1000.04 1548.12,1008.52 1552.05,1016.83 1555.97,1024.97 1559.9,1032.94 1563.82,1040.74 1567.75,1048.39 1571.68,1055.87 1575.6,1063.21 1579.53,1070.39 1583.46,1077.42 1587.38,1084.32 1591.31,1091.06 1595.23,1097.67 1599.16,1104.15 1603.09,1110.49 1607.01,1116.7 1610.94,1122.78 1614.86,1128.74 1618.79,1134.57 1622.72,1140.29 1626.64,1145.89 1630.57,1151.37 1634.5,1156.74 1638.42,1161.99 1642.35,1167.14 1646.27,1172.19 1650.2,1177.12 1654.13,1181.96 1658.05,1186.7 1661.98,1191.34 1665.91,1195.88 1669.83,1200.33 1673.76,1204.69 1677.68,1208.96 1681.61,1213.14 1685.54,1217.23 1689.46,1221.24 1693.39,1225.16 1697.31,1229.01 1701.24,1232.77 1705.17,1236.46 1709.09,1240.07 1713.02,1243.6 1716.95,1247.06 1720.87,1250.45 1724.8,1253.77 1728.72,1257.02 1732.65,1260.2 1736.58,1263.32 1740.5,1266.37 1744.43,1269.35 1748.36,1272.28 1752.28,1275.14 1756.21,1277.95 1760.13,1280.69 1764.06,1283.38 1767.99,1286.01 1771.91,1288.58 1775.84,1291.11 1779.77,1293.57 1783.69,1295.99 1787.62,1298.36 1791.54,1300.67 1795.47,1302.94 1799.4,1305.16 1803.32,1307.33 1807.25,1309.45 1811.17,1311.53 1815.1,1313.57 1819.03,1315.56 1822.95,1317.51 1826.88,1319.42 1830.81,1321.28 1834.73,1323.11 1838.66,1324.9 1842.58,1326.65 1846.51,1328.36 1850.44,1330.03 1854.36,1331.67 1858.29,1333.27 1862.22,1334.84 1866.14,1336.37 1870.07,1337.87 1873.99,1339.33 1877.92,1340.77 1881.85,1342.17 1885.77,1343.54 1889.7,1344.88 1893.63,1346.19 1897.55,1347.47 1901.48,1348.72 1905.4,1349.94 1909.33,1351.14 1913.26,1352.31 1917.18,1353.45 1921.11,1354.56 1925.03,1355.65 1928.96,1356.71 1932.89,1357.75 1936.81,1358.77 1940.74,1359.76 1944.67,1360.72 1948.59,1361.66 1952.52,1362.58 1956.44,1363.48 1960.37,1364.36 1964.3,1365.21 1968.22,1366.04 1972.15,1366.85 1976.08,1367.65 1980,1368.42 1983.93,1369.17 1987.85,1369.9 1991.78,1370.61 1995.71,1371.3 1999.63,1371.98 2003.56,1372.63 2007.49,1373.27 2011.41,1373.89 2015.34,1374.49 2019.26,1375.08 2023.19,1375.64 2027.12,1376.19 2031.04,1376.73 2034.97,1377.25 2038.89,1377.75 2042.82,1378.23 2046.75,1378.7 2050.67,1379.16 2054.6,1379.6 2058.53,1380.01 2062.45,1380.4 2066.38,1380.77 2070.3,1381.11 2074.23,1381.44 2078.16,1381.75 2082.08,1382.04 2086.01,1382.31 2089.94,1382.57 2093.86,1382.81 2097.79,1383.04 2101.71,1383.26 2105.64,1383.46 2109.57,1383.65 2113.49,1383.83 2117.42,1384 2121.35,1384.16 2125.27,1384.31 2129.2,1384.45 2133.12,1384.58 2137.05,1384.71 2140.98,1384.83 2144.9,1384.94 2148.83,1385.04 2152.75,1385.14 2156.68,1385.24 2160.61,1385.32 2164.53,1385.41 2168.46,1385.48 2172.39,1385.56 2176.31,1385.62 2180.24,1385.69 2184.16,1385.75 2188.09,1385.8 2192.02,1385.86 2195.94,1385.91 2199.87,1385.95 2203.8,1385.99 2207.72,1386.03 2211.65,1386.07 2215.57,1386.11 2219.5,1386.14 2223.43,1386.17 2227.35,1386.2 2231.28,1386.22 2235.21,1386.25 2239.13,1386.27 2243.06,1386.29 2246.98,1386.31 2250.91,1386.32 2254.84,1386.34 2258.76,1386.35 2262.69,1386.36 2266.61,1386.37 2270.54,1386.38 2274.47,1386.38 2278.39,1386.39 2282.32,1386.39 2286.25,1386.4 2290.17,1386.4 2294.1,1386.39 "/>
<path clip-path="url(#clip210)" d="M2023.98 270.476 L2283.67 270.476 L2283.67 166.796 L2023.98 166.796  Z" fill="#ffffff" fill-rule="evenodd" fill-opacity="1"/>
<polyline clip-path="url(#clip210)" style="stroke:#000000; stroke-linecap:round; stroke-linejoin:round; stroke-width:4; stroke-opacity:1; fill:none" points="2023.98,270.476 2283.67,270.476 2283.67,166.796 2023.98,166.796 2023.98,270.476 "/>
<polyline clip-path="url(#clip210)" style="stroke:#009af9; stroke-linecap:round; stroke-linejoin:round; stroke-width:4; stroke-opacity:1; fill:none" points="2047.01,218.636 2185.18,218.636 "/>
<path clip-path="url(#clip210)" d="M2222.05 238.323 Q2220.25 242.953 2218.54 244.365 Q2216.82 245.777 2213.95 245.777 L2210.55 245.777 L2210.55 242.212 L2213.05 242.212 Q2214.81 242.212 2215.78 241.379 Q2216.75 240.545 2217.93 237.443 L2218.7 235.499 L2208.21 209.99 L2212.73 209.99 L2220.83 230.268 L2228.93 209.99 L2233.44 209.99 L2222.05 238.323 Z" fill="#000000" fill-rule="nonzero" fill-opacity="1" /><path clip-path="url(#clip210)" d="M2240.73 231.981 L2248.37 231.981 L2248.37 205.615 L2240.06 207.282 L2240.06 203.022 L2248.33 201.356 L2253 201.356 L2253 231.981 L2260.64 231.981 L2260.64 235.916 L2240.73 235.916 L2240.73 231.981 Z" fill="#000000" fill-rule="nonzero" fill-opacity="1" /></svg>
