<?xml version="1.0" encoding="utf-8"?>
<svg xmlns="http://www.w3.org/2000/svg" xmlns:xlink="http://www.w3.org/1999/xlink" width="600" height="400" viewBox="0 0 2400 1600">
<defs>
  <clipPath id="clip400">
    <rect x="0" y="0" width="2400" height="1600"/>
  </clipPath>
</defs>
<path clip-path="url(#clip400)" d="M0 1600 L2400 1600 L2400 8.88178e-14 L0 8.88178e-14  Z" fill="#ffffff" fill-rule="evenodd" fill-opacity="1"/>
<defs>
  <clipPath id="clip401">
    <rect x="219" y="123" width="2134" height="1301"/>
  </clipPath>
</defs>
<path clip-path="url(#clip400)" d="M256.303 1423.18 L2352.76 1423.18 L2352.76 123.472 L256.303 123.472  Z" fill="#ffffff" fill-rule="evenodd" fill-opacity="1"/>
<defs>
  <clipPath id="clip402">
    <rect x="256" y="123" width="2097" height="1301"/>
  </clipPath>
</defs>
<polyline clip-path="url(#clip402)" style="stroke:#000000; stroke-linecap:round; stroke-linejoin:round; stroke-width:2; stroke-opacity:0.1; fill:none" points="274.433,1423.18 274.433,123.472 "/>
<polyline clip-path="url(#clip402)" style="stroke:#000000; stroke-linecap:round; stroke-linejoin:round; stroke-width:2; stroke-opacity:0.1; fill:none" points="779.18,1423.18 779.18,123.472 "/>
<polyline clip-path="url(#clip402)" style="stroke:#000000; stroke-linecap:round; stroke-linejoin:round; stroke-width:2; stroke-opacity:0.1; fill:none" points="1283.93,1423.18 1283.93,123.472 "/>
<polyline clip-path="url(#clip402)" style="stroke:#000000; stroke-linecap:round; stroke-linejoin:round; stroke-width:2; stroke-opacity:0.1; fill:none" points="1788.67,1423.18 1788.67,123.472 "/>
<polyline clip-path="url(#clip402)" style="stroke:#000000; stroke-linecap:round; stroke-linejoin:round; stroke-width:2; stroke-opacity:0.1; fill:none" points="2293.42,1423.18 2293.42,123.472 "/>
<polyline clip-path="url(#clip402)" style="stroke:#000000; stroke-linecap:round; stroke-linejoin:round; stroke-width:2; stroke-opacity:0.1; fill:none" points="256.303,1386.4 2352.76,1386.4 "/>
<polyline clip-path="url(#clip402)" style="stroke:#000000; stroke-linecap:round; stroke-linejoin:round; stroke-width:2; stroke-opacity:0.1; fill:none" points="256.303,1079.86 2352.76,1079.86 "/>
<polyline clip-path="url(#clip402)" style="stroke:#000000; stroke-linecap:round; stroke-linejoin:round; stroke-width:2; stroke-opacity:0.1; fill:none" points="256.303,773.326 2352.76,773.326 "/>
<polyline clip-path="url(#clip402)" style="stroke:#000000; stroke-linecap:round; stroke-linejoin:round; stroke-width:2; stroke-opacity:0.1; fill:none" points="256.303,466.791 2352.76,466.791 "/>
<polyline clip-path="url(#clip402)" style="stroke:#000000; stroke-linecap:round; stroke-linejoin:round; stroke-width:2; stroke-opacity:0.1; fill:none" points="256.303,160.256 2352.76,160.256 "/>
<polyline clip-path="url(#clip400)" style="stroke:#000000; stroke-linecap:round; stroke-linejoin:round; stroke-width:4; stroke-opacity:1; fill:none" points="256.303,1423.18 2352.76,1423.18 "/>
<polyline clip-path="url(#clip400)" style="stroke:#000000; stroke-linecap:round; stroke-linejoin:round; stroke-width:4; stroke-opacity:1; fill:none" points="274.433,1423.18 274.433,1404.28 "/>
<polyline clip-path="url(#clip400)" style="stroke:#000000; stroke-linecap:round; stroke-linejoin:round; stroke-width:4; stroke-opacity:1; fill:none" points="779.18,1423.18 779.18,1404.28 "/>
<polyline clip-path="url(#clip400)" style="stroke:#000000; stroke-linecap:round; stroke-linejoin:round; stroke-width:4; stroke-opacity:1; fill:none" points="1283.93,1423.18 1283.93,1404.28 "/>
<polyline clip-path="url(#clip400)" style="stroke:#000000; stroke-linecap:round; stroke-linejoin:round; stroke-width:4; stroke-opacity:1; fill:none" points="1788.67,1423.18 1788.67,1404.28 "/>
<polyline clip-path="url(#clip400)" style="stroke:#000000; stroke-linecap:round; stroke-linejoin:round; stroke-width:4; stroke-opacity:1; fill:none" points="2293.42,1423.18 2293.42,1404.28 "/>
<path clip-path="url(#clip400)" d="M251.817 1454.1 Q248.206 1454.1 246.377 1457.66 Q244.572 1461.2 244.572 1468.33 Q244.572 1475.44 246.377 1479.01 Q248.206 1482.55 251.817 1482.55 Q255.451 1482.55 257.257 1479.01 Q259.086 1475.44 259.086 1468.33 Q259.086 1461.2 257.257 1457.66 Q255.451 1454.1 251.817 1454.1 M251.817 1450.39 Q257.627 1450.39 260.683 1455 Q263.762 1459.58 263.762 1468.33 Q263.762 1477.06 260.683 1481.67 Q257.627 1486.25 251.817 1486.25 Q246.007 1486.25 242.928 1481.67 Q239.873 1477.06 239.873 1468.33 Q239.873 1459.58 242.928 1455 Q246.007 1450.39 251.817 1450.39 Z" fill="#000000" fill-rule="nonzero" fill-opacity="1" /><path clip-path="url(#clip400)" d="M271.979 1479.7 L276.863 1479.7 L276.863 1485.58 L271.979 1485.58 L271.979 1479.7 Z" fill="#000000" fill-rule="nonzero" fill-opacity="1" /><path clip-path="url(#clip400)" d="M297.048 1454.1 Q293.437 1454.1 291.609 1457.66 Q289.803 1461.2 289.803 1468.33 Q289.803 1475.44 291.609 1479.01 Q293.437 1482.55 297.048 1482.55 Q300.683 1482.55 302.488 1479.01 Q304.317 1475.44 304.317 1468.33 Q304.317 1461.2 302.488 1457.66 Q300.683 1454.1 297.048 1454.1 M297.048 1450.39 Q302.859 1450.39 305.914 1455 Q308.993 1459.58 308.993 1468.33 Q308.993 1477.06 305.914 1481.67 Q302.859 1486.25 297.048 1486.25 Q291.238 1486.25 288.16 1481.67 Q285.104 1477.06 285.104 1468.33 Q285.104 1459.58 288.16 1455 Q291.238 1450.39 297.048 1450.39 Z" fill="#000000" fill-rule="nonzero" fill-opacity="1" /><path clip-path="url(#clip400)" d="M750.916 1481.64 L767.236 1481.64 L767.236 1485.58 L745.292 1485.58 L745.292 1481.64 Q747.954 1478.89 752.537 1474.26 Q757.143 1469.61 758.324 1468.27 Q760.569 1465.74 761.449 1464.01 Q762.352 1462.25 762.352 1460.56 Q762.352 1457.8 760.407 1456.07 Q758.486 1454.33 755.384 1454.33 Q753.185 1454.33 750.731 1455.09 Q748.301 1455.86 745.523 1457.41 L745.523 1452.69 Q748.347 1451.55 750.801 1450.97 Q753.254 1450.39 755.291 1450.39 Q760.662 1450.39 763.856 1453.08 Q767.051 1455.77 767.051 1460.26 Q767.051 1462.39 766.24 1464.31 Q765.453 1466.2 763.347 1468.8 Q762.768 1469.47 759.666 1472.69 Q756.565 1475.88 750.916 1481.64 Z" fill="#000000" fill-rule="nonzero" fill-opacity="1" /><path clip-path="url(#clip400)" d="M777.051 1479.7 L781.935 1479.7 L781.935 1485.58 L777.051 1485.58 L777.051 1479.7 Z" fill="#000000" fill-rule="nonzero" fill-opacity="1" /><path clip-path="url(#clip400)" d="M792.166 1451.02 L810.523 1451.02 L810.523 1454.96 L796.449 1454.96 L796.449 1463.43 Q797.467 1463.08 798.486 1462.92 Q799.504 1462.73 800.523 1462.73 Q806.31 1462.73 809.689 1465.9 Q813.069 1469.08 813.069 1474.49 Q813.069 1480.07 809.597 1483.17 Q806.125 1486.25 799.805 1486.25 Q797.629 1486.25 795.361 1485.88 Q793.115 1485.51 790.708 1484.77 L790.708 1480.07 Q792.791 1481.2 795.013 1481.76 Q797.236 1482.32 799.713 1482.32 Q803.717 1482.32 806.055 1480.21 Q808.393 1478.1 808.393 1474.49 Q808.393 1470.88 806.055 1468.77 Q803.717 1466.67 799.713 1466.67 Q797.838 1466.67 795.963 1467.08 Q794.111 1467.5 792.166 1468.38 L792.166 1451.02 Z" fill="#000000" fill-rule="nonzero" fill-opacity="1" /><path clip-path="url(#clip400)" d="M1251.09 1451.02 L1269.45 1451.02 L1269.45 1454.96 L1255.37 1454.96 L1255.37 1463.43 Q1256.39 1463.08 1257.41 1462.92 Q1258.43 1462.73 1259.45 1462.73 Q1265.24 1462.73 1268.62 1465.9 Q1271.99 1469.08 1271.99 1474.49 Q1271.99 1480.07 1268.52 1483.17 Q1265.05 1486.25 1258.73 1486.25 Q1256.56 1486.25 1254.29 1485.88 Q1252.04 1485.51 1249.63 1484.77 L1249.63 1480.07 Q1251.72 1481.2 1253.94 1481.76 Q1256.16 1482.32 1258.64 1482.32 Q1262.64 1482.32 1264.98 1480.21 Q1267.32 1478.1 1267.32 1474.49 Q1267.32 1470.88 1264.98 1468.77 Q1262.64 1466.67 1258.64 1466.67 Q1256.76 1466.67 1254.89 1467.08 Q1253.04 1467.5 1251.09 1468.38 L1251.09 1451.02 Z" fill="#000000" fill-rule="nonzero" fill-opacity="1" /><path clip-path="url(#clip400)" d="M1281.21 1479.7 L1286.09 1479.7 L1286.09 1485.58 L1281.21 1485.58 L1281.21 1479.7 Z" fill="#000000" fill-rule="nonzero" fill-opacity="1" /><path clip-path="url(#clip400)" d="M1306.28 1454.1 Q1302.67 1454.1 1300.84 1457.66 Q1299.03 1461.2 1299.03 1468.33 Q1299.03 1475.44 1300.84 1479.01 Q1302.67 1482.55 1306.28 1482.55 Q1309.91 1482.55 1311.72 1479.01 Q1313.55 1475.44 1313.55 1468.33 Q1313.55 1461.2 1311.72 1457.66 Q1309.91 1454.1 1306.28 1454.1 M1306.28 1450.39 Q1312.09 1450.39 1315.14 1455 Q1318.22 1459.58 1318.22 1468.33 Q1318.22 1477.06 1315.14 1481.67 Q1312.09 1486.25 1306.28 1486.25 Q1300.47 1486.25 1297.39 1481.67 Q1294.33 1477.06 1294.33 1468.33 Q1294.33 1459.58 1297.39 1455 Q1300.47 1450.39 1306.28 1450.39 Z" fill="#000000" fill-rule="nonzero" fill-opacity="1" /><path clip-path="url(#clip400)" d="M1754.99 1451.02 L1777.22 1451.02 L1777.22 1453.01 L1764.67 1485.58 L1759.79 1485.58 L1771.59 1454.96 L1754.99 1454.96 L1754.99 1451.02 Z" fill="#000000" fill-rule="nonzero" fill-opacity="1" /><path clip-path="url(#clip400)" d="M1786.34 1479.7 L1791.22 1479.7 L1791.22 1485.58 L1786.34 1485.58 L1786.34 1479.7 Z" fill="#000000" fill-rule="nonzero" fill-opacity="1" /><path clip-path="url(#clip400)" d="M1801.45 1451.02 L1819.81 1451.02 L1819.81 1454.96 L1805.74 1454.96 L1805.74 1463.43 Q1806.75 1463.08 1807.77 1462.92 Q1808.79 1462.73 1809.81 1462.73 Q1815.6 1462.73 1818.98 1465.9 Q1822.36 1469.08 1822.36 1474.49 Q1822.36 1480.07 1818.88 1483.17 Q1815.41 1486.25 1809.09 1486.25 Q1806.92 1486.25 1804.65 1485.88 Q1802.4 1485.51 1799.99 1484.77 L1799.99 1480.07 Q1802.08 1481.2 1804.3 1481.76 Q1806.52 1482.32 1809 1482.32 Q1813 1482.32 1815.34 1480.21 Q1817.68 1478.1 1817.68 1474.49 Q1817.68 1470.88 1815.34 1468.77 Q1813 1466.67 1809 1466.67 Q1807.12 1466.67 1805.25 1467.08 Q1803.4 1467.5 1801.45 1468.38 L1801.45 1451.02 Z" fill="#000000" fill-rule="nonzero" fill-opacity="1" /><path clip-path="url(#clip400)" d="M2245.49 1481.64 L2253.13 1481.64 L2253.13 1455.28 L2244.82 1456.95 L2244.82 1452.69 L2253.09 1451.02 L2257.76 1451.02 L2257.76 1481.64 L2265.4 1481.64 L2265.4 1485.58 L2245.49 1485.58 L2245.49 1481.64 Z" fill="#000000" fill-rule="nonzero" fill-opacity="1" /><path clip-path="url(#clip400)" d="M2284.85 1454.1 Q2281.23 1454.1 2279.41 1457.66 Q2277.6 1461.2 2277.6 1468.33 Q2277.6 1475.44 2279.41 1479.01 Q2281.23 1482.55 2284.85 1482.55 Q2288.48 1482.55 2290.29 1479.01 Q2292.11 1475.44 2292.11 1468.33 Q2292.11 1461.2 2290.29 1457.66 Q2288.48 1454.1 2284.85 1454.1 M2284.85 1450.39 Q2290.66 1450.39 2293.71 1455 Q2296.79 1459.58 2296.79 1468.33 Q2296.79 1477.06 2293.71 1481.67 Q2290.66 1486.25 2284.85 1486.25 Q2279.04 1486.25 2275.96 1481.67 Q2272.9 1477.06 2272.9 1468.33 Q2272.9 1459.58 2275.96 1455 Q2279.04 1450.39 2284.85 1450.39 Z" fill="#000000" fill-rule="nonzero" fill-opacity="1" /><path clip-path="url(#clip400)" d="M2305.01 1479.7 L2309.89 1479.7 L2309.89 1485.58 L2305.01 1485.58 L2305.01 1479.7 Z" fill="#000000" fill-rule="nonzero" fill-opacity="1" /><path clip-path="url(#clip400)" d="M2330.08 1454.1 Q2326.47 1454.1 2324.64 1457.66 Q2322.83 1461.2 2322.83 1468.33 Q2322.83 1475.44 2324.64 1479.01 Q2326.47 1482.55 2330.08 1482.55 Q2333.71 1482.55 2335.52 1479.01 Q2337.35 1475.44 2337.35 1468.33 Q2337.35 1461.2 2335.52 1457.66 Q2333.71 1454.1 2330.08 1454.1 M2330.08 1450.39 Q2335.89 1450.39 2338.94 1455 Q2342.02 1459.58 2342.02 1468.33 Q2342.02 1477.06 2338.94 1481.67 Q2335.89 1486.25 2330.08 1486.25 Q2324.27 1486.25 2321.19 1481.67 Q2318.13 1477.06 2318.13 1468.33 Q2318.13 1459.58 2321.19 1455 Q2324.27 1450.39 2330.08 1450.39 Z" fill="#000000" fill-rule="nonzero" fill-opacity="1" /><path clip-path="url(#clip400)" d="M1316.67 1528.74 Q1316.67 1530.45 1315.54 1531.54 Q1314.45 1532.64 1313.03 1532.64 Q1311.8 1532.64 1311.16 1531.93 Q1310.52 1531.22 1310.52 1530.32 Q1310.52 1529.03 1311.52 1527.97 Q1312.51 1526.9 1313.96 1526.68 Q1312.9 1525.91 1311.19 1525.91 Q1308.39 1525.91 1305.91 1528.06 Q1304.82 1529.06 1303.62 1530.9 Q1302.43 1532.7 1302.21 1533.47 L1300.11 1542.07 Q1299.92 1543.04 1298.73 1547.68 Q1297.57 1552.28 1297.47 1552.47 Q1297.15 1553.38 1296.44 1553.86 Q1295.73 1554.34 1295.03 1554.34 Q1294.22 1554.34 1293.67 1553.86 Q1293.13 1553.38 1293.13 1552.54 Q1293.13 1552.41 1293.22 1551.93 Q1293.32 1551.44 1293.48 1550.77 Q1293.64 1550.09 1293.71 1549.71 L1297.54 1534.47 Q1298.25 1531.7 1298.41 1530.83 Q1298.6 1529.93 1298.6 1528.93 Q1298.6 1527.19 1298.05 1526.55 Q1297.51 1525.91 1296.54 1525.91 Q1294.86 1525.91 1293.77 1527.9 Q1292.67 1529.9 1291.74 1533.76 Q1291.45 1534.83 1291.26 1535.05 Q1291.1 1535.28 1290.61 1535.28 Q1289.81 1535.24 1289.81 1534.6 Q1289.81 1534.44 1290.07 1533.41 Q1290.32 1532.35 1290.81 1530.8 Q1291.32 1529.22 1291.87 1528.22 Q1292.19 1527.55 1292.48 1527.1 Q1292.77 1526.65 1293.35 1525.94 Q1293.93 1525.23 1294.8 1524.84 Q1295.67 1524.46 1296.73 1524.46 Q1299.05 1524.46 1300.69 1525.87 Q1302.37 1527.29 1302.76 1529.51 Q1303.56 1528.35 1304.56 1527.35 Q1305.56 1526.32 1307.39 1525.39 Q1309.23 1524.46 1311.19 1524.46 Q1313.64 1524.46 1315.15 1525.71 Q1316.67 1526.94 1316.67 1528.74 Z" fill="#000000" fill-rule="nonzero" fill-opacity="1" /><polyline clip-path="url(#clip400)" style="stroke:#000000; stroke-linecap:round; stroke-linejoin:round; stroke-width:4; stroke-opacity:1; fill:none" points="256.303,1423.18 256.303,123.472 "/>
<polyline clip-path="url(#clip400)" style="stroke:#000000; stroke-linecap:round; stroke-linejoin:round; stroke-width:4; stroke-opacity:1; fill:none" points="256.303,1386.4 275.201,1386.4 "/>
<polyline clip-path="url(#clip400)" style="stroke:#000000; stroke-linecap:round; stroke-linejoin:round; stroke-width:4; stroke-opacity:1; fill:none" points="256.303,1079.86 275.201,1079.86 "/>
<polyline clip-path="url(#clip400)" style="stroke:#000000; stroke-linecap:round; stroke-linejoin:round; stroke-width:4; stroke-opacity:1; fill:none" points="256.303,773.326 275.201,773.326 "/>
<polyline clip-path="url(#clip400)" style="stroke:#000000; stroke-linecap:round; stroke-linejoin:round; stroke-width:4; stroke-opacity:1; fill:none" points="256.303,466.791 275.201,466.791 "/>
<polyline clip-path="url(#clip400)" style="stroke:#000000; stroke-linecap:round; stroke-linejoin:round; stroke-width:4; stroke-opacity:1; fill:none" points="256.303,160.256 275.201,160.256 "/>
<path clip-path="url(#clip400)" d="M123.776 1399.74 L131.415 1399.74 L131.415 1373.37 L123.105 1375.04 L123.105 1370.78 L131.368 1369.12 L136.044 1369.12 L136.044 1399.74 L143.683 1399.74 L143.683 1403.68 L123.776 1403.68 L123.776 1399.74 Z" fill="#000000" fill-rule="nonzero" fill-opacity="1" /><path clip-path="url(#clip400)" d="M153.128 1397.8 L158.012 1397.8 L158.012 1403.68 L153.128 1403.68 L153.128 1397.8 Z" fill="#000000" fill-rule="nonzero" fill-opacity="1" /><path clip-path="url(#clip400)" d="M178.197 1372.19 Q174.586 1372.19 172.757 1375.76 Q170.952 1379.3 170.952 1386.43 Q170.952 1393.54 172.757 1397.1 Q174.586 1400.64 178.197 1400.64 Q181.831 1400.64 183.637 1397.1 Q185.465 1393.54 185.465 1386.43 Q185.465 1379.3 183.637 1375.76 Q181.831 1372.19 178.197 1372.19 M178.197 1368.49 Q184.007 1368.49 187.063 1373.1 Q190.141 1377.68 190.141 1386.43 Q190.141 1395.16 187.063 1399.76 Q184.007 1404.35 178.197 1404.35 Q172.387 1404.35 169.308 1399.76 Q166.253 1395.16 166.253 1386.43 Q166.253 1377.68 169.308 1373.1 Q172.387 1368.49 178.197 1368.49 Z" fill="#000000" fill-rule="nonzero" fill-opacity="1" /><path clip-path="url(#clip400)" d="M208.359 1372.19 Q204.748 1372.19 202.919 1375.76 Q201.113 1379.3 201.113 1386.43 Q201.113 1393.54 202.919 1397.1 Q204.748 1400.64 208.359 1400.64 Q211.993 1400.64 213.799 1397.1 Q215.627 1393.54 215.627 1386.43 Q215.627 1379.3 213.799 1375.76 Q211.993 1372.19 208.359 1372.19 M208.359 1368.49 Q214.169 1368.49 217.224 1373.1 Q220.303 1377.68 220.303 1386.43 Q220.303 1395.16 217.224 1399.76 Q214.169 1404.35 208.359 1404.35 Q202.549 1404.35 199.47 1399.76 Q196.414 1395.16 196.414 1386.43 Q196.414 1377.68 199.47 1373.1 Q202.549 1368.49 208.359 1368.49 Z" fill="#000000" fill-rule="nonzero" fill-opacity="1" /><path clip-path="url(#clip400)" d="M124.771 1093.21 L132.41 1093.21 L132.41 1066.84 L124.1 1068.51 L124.1 1064.25 L132.364 1062.58 L137.04 1062.58 L137.04 1093.21 L144.679 1093.21 L144.679 1097.14 L124.771 1097.14 L124.771 1093.21 Z" fill="#000000" fill-rule="nonzero" fill-opacity="1" /><path clip-path="url(#clip400)" d="M154.123 1091.26 L159.007 1091.26 L159.007 1097.14 L154.123 1097.14 L154.123 1091.26 Z" fill="#000000" fill-rule="nonzero" fill-opacity="1" /><path clip-path="url(#clip400)" d="M173.22 1093.21 L189.539 1093.21 L189.539 1097.14 L167.595 1097.14 L167.595 1093.21 Q170.257 1090.45 174.84 1085.82 Q179.447 1081.17 180.627 1079.83 Q182.873 1077.3 183.752 1075.57 Q184.655 1073.81 184.655 1072.12 Q184.655 1069.36 182.711 1067.63 Q180.789 1065.89 177.688 1065.89 Q175.489 1065.89 173.035 1066.65 Q170.604 1067.42 167.827 1068.97 L167.827 1064.25 Q170.651 1063.11 173.104 1062.53 Q175.558 1061.96 177.595 1061.96 Q182.965 1061.96 186.16 1064.64 Q189.354 1067.33 189.354 1071.82 Q189.354 1073.95 188.544 1075.87 Q187.757 1077.77 185.651 1080.36 Q185.072 1081.03 181.97 1084.25 Q178.868 1087.44 173.22 1093.21 Z" fill="#000000" fill-rule="nonzero" fill-opacity="1" /><path clip-path="url(#clip400)" d="M199.4 1062.58 L217.757 1062.58 L217.757 1066.52 L203.683 1066.52 L203.683 1074.99 Q204.701 1074.64 205.72 1074.48 Q206.738 1074.29 207.757 1074.29 Q213.544 1074.29 216.924 1077.47 Q220.303 1080.64 220.303 1086.05 Q220.303 1091.63 216.831 1094.73 Q213.359 1097.81 207.039 1097.81 Q204.863 1097.81 202.595 1097.44 Q200.35 1097.07 197.942 1096.33 L197.942 1091.63 Q200.025 1092.77 202.248 1093.32 Q204.47 1093.88 206.947 1093.88 Q210.951 1093.88 213.289 1091.77 Q215.627 1089.66 215.627 1086.05 Q215.627 1082.44 213.289 1080.34 Q210.951 1078.23 206.947 1078.23 Q205.072 1078.23 203.197 1078.65 Q201.345 1079.06 199.4 1079.94 L199.4 1062.58 Z" fill="#000000" fill-rule="nonzero" fill-opacity="1" /><path clip-path="url(#clip400)" d="M123.776 786.671 L131.415 786.671 L131.415 760.305 L123.105 761.972 L123.105 757.713 L131.368 756.046 L136.044 756.046 L136.044 786.671 L143.683 786.671 L143.683 790.606 L123.776 790.606 L123.776 786.671 Z" fill="#000000" fill-rule="nonzero" fill-opacity="1" /><path clip-path="url(#clip400)" d="M153.128 784.726 L158.012 784.726 L158.012 790.606 L153.128 790.606 L153.128 784.726 Z" fill="#000000" fill-rule="nonzero" fill-opacity="1" /><path clip-path="url(#clip400)" d="M168.243 756.046 L186.6 756.046 L186.6 759.981 L172.526 759.981 L172.526 768.453 Q173.544 768.106 174.563 767.944 Q175.581 767.759 176.6 767.759 Q182.387 767.759 185.766 770.93 Q189.146 774.101 189.146 779.518 Q189.146 785.097 185.674 788.199 Q182.201 791.277 175.882 791.277 Q173.706 791.277 171.438 790.907 Q169.192 790.537 166.785 789.796 L166.785 785.097 Q168.868 786.231 171.09 786.787 Q173.313 787.342 175.789 787.342 Q179.794 787.342 182.132 785.236 Q184.47 783.129 184.47 779.518 Q184.47 775.907 182.132 773.801 Q179.794 771.694 175.789 771.694 Q173.915 771.694 172.04 772.111 Q170.188 772.527 168.243 773.407 L168.243 756.046 Z" fill="#000000" fill-rule="nonzero" fill-opacity="1" /><path clip-path="url(#clip400)" d="M208.359 759.125 Q204.748 759.125 202.919 762.689 Q201.113 766.231 201.113 773.361 Q201.113 780.467 202.919 784.032 Q204.748 787.574 208.359 787.574 Q211.993 787.574 213.799 784.032 Q215.627 780.467 215.627 773.361 Q215.627 766.231 213.799 762.689 Q211.993 759.125 208.359 759.125 M208.359 755.421 Q214.169 755.421 217.224 760.027 Q220.303 764.611 220.303 773.361 Q220.303 782.088 217.224 786.694 Q214.169 791.277 208.359 791.277 Q202.549 791.277 199.47 786.694 Q196.414 782.088 196.414 773.361 Q196.414 764.611 199.47 760.027 Q202.549 755.421 208.359 755.421 Z" fill="#000000" fill-rule="nonzero" fill-opacity="1" /><path clip-path="url(#clip400)" d="M124.771 480.136 L132.41 480.136 L132.41 453.77 L124.1 455.437 L124.1 451.178 L132.364 449.511 L137.04 449.511 L137.04 480.136 L144.679 480.136 L144.679 484.071 L124.771 484.071 L124.771 480.136 Z" fill="#000000" fill-rule="nonzero" fill-opacity="1" /><path clip-path="url(#clip400)" d="M154.123 478.192 L159.007 478.192 L159.007 484.071 L154.123 484.071 L154.123 478.192 Z" fill="#000000" fill-rule="nonzero" fill-opacity="1" /><path clip-path="url(#clip400)" d="M168.012 449.511 L190.234 449.511 L190.234 451.502 L177.688 484.071 L172.803 484.071 L184.609 453.446 L168.012 453.446 L168.012 449.511 Z" fill="#000000" fill-rule="nonzero" fill-opacity="1" /><path clip-path="url(#clip400)" d="M199.4 449.511 L217.757 449.511 L217.757 453.446 L203.683 453.446 L203.683 461.918 Q204.701 461.571 205.72 461.409 Q206.738 461.224 207.757 461.224 Q213.544 461.224 216.924 464.395 Q220.303 467.567 220.303 472.983 Q220.303 478.562 216.831 481.664 Q213.359 484.742 207.039 484.742 Q204.863 484.742 202.595 484.372 Q200.35 484.002 197.942 483.261 L197.942 478.562 Q200.025 479.696 202.248 480.252 Q204.47 480.807 206.947 480.807 Q210.951 480.807 213.289 478.701 Q215.627 476.594 215.627 472.983 Q215.627 469.372 213.289 467.266 Q210.951 465.159 206.947 465.159 Q205.072 465.159 203.197 465.576 Q201.345 465.993 199.4 466.872 L199.4 449.511 Z" fill="#000000" fill-rule="nonzero" fill-opacity="1" /><path clip-path="url(#clip400)" d="M126.993 173.601 L143.313 173.601 L143.313 177.536 L121.368 177.536 L121.368 173.601 Q124.031 170.847 128.614 166.217 Q133.22 161.564 134.401 160.222 Q136.646 157.698 137.526 155.962 Q138.429 154.203 138.429 152.513 Q138.429 149.759 136.484 148.023 Q134.563 146.286 131.461 146.286 Q129.262 146.286 126.808 147.05 Q124.378 147.814 121.6 149.365 L121.6 144.643 Q124.424 143.509 126.878 142.93 Q129.331 142.351 131.368 142.351 Q136.739 142.351 139.933 145.036 Q143.128 147.722 143.128 152.212 Q143.128 154.342 142.317 156.263 Q141.53 158.161 139.424 160.754 Q138.845 161.425 135.743 164.643 Q132.642 167.837 126.993 173.601 Z" fill="#000000" fill-rule="nonzero" fill-opacity="1" /><path clip-path="url(#clip400)" d="M153.128 171.657 L158.012 171.657 L158.012 177.536 L153.128 177.536 L153.128 171.657 Z" fill="#000000" fill-rule="nonzero" fill-opacity="1" /><path clip-path="url(#clip400)" d="M178.197 146.055 Q174.586 146.055 172.757 149.62 Q170.952 153.161 170.952 160.291 Q170.952 167.397 172.757 170.962 Q174.586 174.504 178.197 174.504 Q181.831 174.504 183.637 170.962 Q185.465 167.397 185.465 160.291 Q185.465 153.161 183.637 149.62 Q181.831 146.055 178.197 146.055 M178.197 142.351 Q184.007 142.351 187.063 146.958 Q190.141 151.541 190.141 160.291 Q190.141 169.018 187.063 173.624 Q184.007 178.208 178.197 178.208 Q172.387 178.208 169.308 173.624 Q166.253 169.018 166.253 160.291 Q166.253 151.541 169.308 146.958 Q172.387 142.351 178.197 142.351 Z" fill="#000000" fill-rule="nonzero" fill-opacity="1" /><path clip-path="url(#clip400)" d="M208.359 146.055 Q204.748 146.055 202.919 149.62 Q201.113 153.161 201.113 160.291 Q201.113 167.397 202.919 170.962 Q204.748 174.504 208.359 174.504 Q211.993 174.504 213.799 170.962 Q215.627 167.397 215.627 160.291 Q215.627 153.161 213.799 149.62 Q211.993 146.055 208.359 146.055 M208.359 142.351 Q214.169 142.351 217.224 146.958 Q220.303 151.541 220.303 160.291 Q220.303 169.018 217.224 173.624 Q214.169 178.208 208.359 178.208 Q202.549 178.208 199.47 173.624 Q196.414 169.018 196.414 160.291 Q196.414 151.541 199.47 146.958 Q202.549 142.351 208.359 142.351 Z" fill="#000000" fill-rule="nonzero" fill-opacity="1" /><path clip-path="url(#clip400)" d="M43.3257 847.391 Q46.5785 847.391 49.8313 849.065 Q53.0841 850.74 55.5961 853.478 Q58.076 856.215 59.6863 859.951 Q61.2966 863.687 61.4254 867.584 L71.2482 870.096 Q73.6314 870.579 73.8891 870.836 Q74.1467 871.094 74.1467 871.481 Q74.1467 872.286 73.406 872.286 Q73.1805 872.286 67.6089 870.836 L61.4254 869.291 Q61.1033 875.152 57.7217 878.566 Q54.3401 881.98 49.477 881.98 Q46.192 881.98 42.9392 880.305 Q39.6542 878.598 37.1744 875.861 Q34.6945 873.091 33.1164 869.355 Q31.5383 865.619 31.4095 861.787 L16.1762 857.954 Q15.3066 857.761 15.0812 857.6 Q14.8557 857.439 14.8557 856.956 Q14.8557 856.601 15.0167 856.408 Q15.1778 856.215 15.3388 856.215 L15.4998 856.183 L16.4338 856.376 L31.4095 860.08 Q31.635 856.795 32.7944 854.25 Q33.9538 851.706 35.6929 850.257 Q37.3998 848.808 39.3322 848.099 Q41.2645 847.391 43.3257 847.391 M32.8588 862.173 Q33.1808 865.716 34.92 868.711 Q36.6591 871.706 39.2355 873.638 Q41.7798 875.571 44.8394 876.634 Q47.8667 877.696 50.8619 877.696 Q53.2129 877.696 55.0164 876.923 Q56.8199 876.118 57.8505 874.798 Q58.8489 873.477 59.3964 872.028 Q59.9117 870.547 59.9761 868.969 L32.8588 862.173 M41.9408 851.706 Q37.7541 851.706 35.4031 854.122 Q33.052 856.537 32.8588 860.466 L59.9761 867.262 Q59.7507 864.395 58.5591 861.883 Q57.3352 859.339 55.5317 857.503 Q53.696 855.668 51.4416 854.347 Q49.155 853.027 46.7395 852.383 Q44.2919 851.706 41.9408 851.706 Z" fill="#000000" fill-rule="nonzero" fill-opacity="1" /><path clip-path="url(#clip400)" d="M73.6607 826.509 Q74.292 826.509 74.4498 826.803 Q74.5851 827.096 74.5851 827.907 L74.5851 832.236 L88.2017 835.662 Q89.3965 835.933 90.411 835.933 Q91.5382 835.933 92.0342 835.595 Q92.5302 835.234 92.5302 834.49 Q92.5302 833.025 91.2001 831.447 Q89.87 829.846 86.6236 828.493 Q86.1953 828.313 86.1051 828.223 Q85.9924 828.11 85.9924 827.817 Q85.9924 827.253 86.4433 827.253 Q86.6011 827.253 87.3225 827.569 Q88.0439 827.862 89.1035 828.516 Q90.163 829.147 91.155 829.981 Q92.1469 830.793 92.8683 832.033 Q93.5672 833.273 93.5672 834.603 Q93.5672 836.474 92.3724 837.669 Q91.1775 838.841 89.3064 838.841 Q88.6977 838.841 86.7589 838.368 Q84.7975 837.894 74.5851 835.324 L74.5851 839.405 Q74.5851 839.968 74.5625 840.194 Q74.54 840.397 74.4272 840.554 Q74.292 840.69 74.0215 840.69 Q73.5931 840.69 73.4128 840.509 Q73.2099 840.329 73.1873 840.104 Q73.1422 839.856 73.1422 839.292 L73.1422 834.964 L65.8154 833.16 Q65.094 832.98 64.6882 832.529 Q64.2599 832.055 64.2148 831.785 Q64.1471 831.514 64.1471 831.311 Q64.1471 830.703 64.4853 830.342 Q64.8009 829.981 65.3871 829.981 Q65.7027 829.981 73.1422 831.875 L73.1422 827.817 Q73.1422 827.299 73.1648 827.096 Q73.1873 826.87 73.3 826.69 Q73.4128 826.509 73.6607 826.509 Z" fill="#000000" fill-rule="nonzero" fill-opacity="1" /><path clip-path="url(#clip400)" d="M75.6446 805.941 Q76.8395 805.941 77.606 806.73 Q78.3725 807.497 78.3725 808.489 Q78.3725 809.345 77.8765 809.796 Q77.3805 810.247 76.7493 810.247 Q75.8475 810.247 75.1036 809.548 Q74.3596 808.849 74.2018 807.835 Q73.6607 808.579 73.6607 809.774 Q73.6607 811.735 75.1712 813.471 Q75.8701 814.237 77.1551 815.072 Q78.4176 815.906 78.9586 816.064 L84.9779 817.529 Q85.6542 817.664 88.9006 818.498 Q92.1244 819.31 92.2596 819.378 Q92.8909 819.603 93.229 820.099 Q93.5672 820.595 93.5672 821.091 Q93.5672 821.654 93.229 822.038 Q92.8909 822.421 92.3047 822.421 Q92.2145 822.421 91.8764 822.353 Q91.5382 822.286 91.0648 822.173 Q90.5914 822.06 90.3208 822.015 L79.6575 819.332 Q77.7187 818.836 77.11 818.724 Q76.4788 818.588 75.7799 818.588 Q74.5625 818.588 74.1116 818.972 Q73.6607 819.355 73.6607 820.031 Q73.6607 821.204 75.0585 821.97 Q76.4562 822.737 79.1615 823.39 Q79.9055 823.593 80.0633 823.729 Q80.2211 823.841 80.2211 824.179 Q80.1985 824.743 79.7477 824.743 Q79.6349 824.743 78.9135 824.563 Q78.1696 824.382 77.0875 824.044 Q75.9828 823.683 75.2839 823.3 Q74.8105 823.075 74.4949 822.872 Q74.1793 822.669 73.6833 822.263 Q73.1873 821.857 72.9168 821.249 Q72.6463 820.64 72.6463 819.896 Q72.6463 818.273 73.6382 817.123 Q74.6301 815.951 76.1857 815.68 Q75.3741 815.117 74.6752 814.418 Q73.9538 813.719 73.3 812.434 Q72.6463 811.149 72.6463 809.774 Q72.6463 808.06 73.5255 807.001 Q74.3822 805.941 75.6446 805.941 Z" fill="#000000" fill-rule="nonzero" fill-opacity="1" /><path clip-path="url(#clip400)" d="M64.1922 792.926 Q65.1842 792.926 65.9281 793.738 Q66.6495 794.527 66.6495 795.383 Q66.6495 796.172 66.1761 796.668 Q65.6801 797.142 64.9813 797.142 Q64.057 797.142 63.2905 796.353 Q62.524 795.564 62.524 794.639 Q62.524 793.873 62.9974 793.399 Q63.4708 792.926 64.1922 792.926 M86.4433 792.52 Q86.6236 792.52 87.345 792.723 Q88.0439 792.926 89.126 793.422 Q90.1856 793.895 91.1775 794.549 Q92.1695 795.203 92.8683 796.285 Q93.5672 797.345 93.5672 798.562 Q93.5672 800.208 92.4851 801.29 Q91.403 802.349 89.7798 802.349 Q88.9006 802.349 86.0826 801.29 Q77.8765 798.224 77.5383 798.111 Q76.2533 797.593 75.1261 797.593 Q74.6076 797.593 74.292 797.705 Q73.9538 797.818 73.8411 798.043 Q73.7058 798.269 73.6833 798.404 Q73.6607 798.517 73.6607 798.742 Q73.6607 800.072 75.0134 801.312 Q76.366 802.552 79.387 803.409 Q79.9506 803.589 80.0858 803.702 Q80.2211 803.815 80.2211 804.153 Q80.1985 804.717 79.7477 804.717 Q79.6124 804.717 79.0939 804.559 Q78.5528 804.401 77.7412 804.108 Q76.9071 803.815 76.0504 803.296 Q75.1712 802.778 74.4047 802.146 Q73.6382 801.493 73.1422 800.568 Q72.6463 799.644 72.6463 798.607 Q72.6463 796.916 73.7509 795.879 Q74.833 794.82 76.4337 794.82 Q77.3129 794.82 78.8684 795.428 Q80.8974 796.172 81.5512 796.443 L86.3982 798.246 Q88.1566 798.9 88.6977 799.103 Q89.2162 799.283 89.8474 799.441 Q90.4561 799.576 91.0197 799.576 Q91.8088 799.576 92.1695 799.328 Q92.5302 799.058 92.5302 798.472 Q92.5302 796.849 90.9295 795.654 Q89.3064 794.459 86.8265 793.76 Q86.7589 793.738 86.6462 793.715 Q86.0826 793.535 86.0149 793.354 Q85.9924 793.264 85.9924 793.084 Q85.9924 792.52 86.4433 792.52 Z" fill="#000000" fill-rule="nonzero" fill-opacity="1" /><path clip-path="url(#clip400)" d="M86.4433 766.697 Q89.3514 767.306 91.0197 768.095 Q93.5672 769.357 93.5672 771.499 Q93.5672 773.122 92.5753 774.272 Q91.5833 775.422 90.0954 775.692 Q93.5672 778.645 93.5672 781.711 Q93.5672 784.417 91.5157 786.13 Q89.4416 787.843 86.1727 787.843 Q82.8813 787.843 79.7251 786.22 Q76.5689 784.575 74.6076 781.982 Q72.6463 779.389 72.6463 776.729 Q72.6463 773.911 75.5995 772.468 Q74.788 772.356 74.1793 771.837 Q73.5706 771.319 73.5706 770.53 Q73.5706 769.921 73.9087 769.56 Q74.2244 769.2 74.8105 769.2 Q75.1036 769.2 76.3886 769.515 L82.8362 771.183 L87.0069 772.198 Q88.5399 772.581 89.1035 772.694 Q89.6671 772.784 90.411 772.784 Q92.5302 772.784 92.5302 771.409 Q92.5302 770.733 92.1018 770.191 Q91.6735 769.65 90.7717 769.222 Q89.87 768.794 89.0358 768.523 Q88.1792 768.253 86.8265 767.892 Q86.2854 767.779 86.1502 767.689 Q85.9924 767.576 85.9924 767.261 Q85.9924 766.697 86.4433 766.697 M77.7187 773.032 Q77.5158 773.032 76.9522 773.19 Q76.3886 773.348 75.5995 773.708 Q74.8105 774.069 74.2469 774.858 Q73.6607 775.625 73.6607 776.662 Q73.6607 778.059 74.8556 779.525 Q76.0504 780.968 78.0794 782.027 Q79.7026 782.839 83.1067 783.718 Q86.5109 784.575 88.2017 784.575 Q89.2387 784.575 90.163 784.349 Q91.0648 784.101 91.8088 783.402 Q92.5302 782.703 92.5302 781.621 Q92.5302 778.984 89.2613 776.391 Q88.6977 775.895 88.4722 775.782 Q88.2242 775.647 87.5479 775.467 L78.5077 773.167 Q77.8314 773.032 77.7187 773.032 Z" fill="#000000" fill-rule="nonzero" fill-opacity="1" /><path clip-path="url(#clip400)" d="M61.5095 753.972 L88.2017 760.622 Q89.2613 760.893 90.411 760.893 Q92.5302 760.893 92.5302 759.495 Q92.5302 758.841 92.1018 758.3 Q91.6509 757.759 90.7717 757.353 Q89.87 756.925 89.0133 756.654 Q88.1566 756.361 86.8265 756.001 Q86.308 755.888 86.1502 755.775 Q85.9924 755.663 85.9924 755.347 Q85.9924 754.783 86.4433 754.783 Q89.2162 755.347 90.9746 756.181 Q93.5672 757.398 93.5672 759.653 Q93.5672 761.344 92.3949 762.606 Q91.2001 763.846 89.3064 763.846 Q88.5849 763.846 87.7283 763.621 L64.6431 757.804 L63.7413 757.646 Q63.4934 757.646 63.3581 757.737 Q63.2228 757.827 63.0876 758.368 Q62.9523 758.886 62.9523 759.923 Q62.9523 760.352 62.9298 760.555 Q62.9072 760.735 62.7945 760.915 Q62.6818 761.073 62.4338 761.073 Q62.028 761.073 61.8026 760.915 Q61.5771 760.735 61.532 760.6 Q61.4869 760.464 61.4644 760.194 Q61.4418 759.811 61.3291 758.526 Q61.1939 757.241 61.1037 756.136 Q61.0135 755.031 61.0135 754.558 Q61.0135 754.287 61.1488 754.152 Q61.2615 753.994 61.3968 753.972 L61.5095 753.972 Z" fill="#000000" fill-rule="nonzero" fill-opacity="1" /><path clip-path="url(#clip400)" d="M44.1308 743.185 Q32.9876 743.185 24.0022 739.031 Q20.2341 737.259 17.0779 734.78 Q13.9217 732.3 12.5369 730.657 Q11.152 729.015 11.152 728.564 Q11.152 727.92 11.7962 727.888 Q12.1182 727.888 12.9234 728.757 Q23.7445 739.385 44.1308 739.353 Q64.5816 739.353 74.9841 729.015 Q76.1113 727.888 76.4655 727.888 Q77.1096 727.888 77.1096 728.564 Q77.1096 729.015 75.7892 730.593 Q74.4688 732.171 71.4414 734.619 Q68.4141 737.066 64.7104 738.838 Q55.7249 743.185 44.1308 743.185 Z" fill="#000000" fill-rule="nonzero" fill-opacity="1" /><path clip-path="url(#clip400)" d="M35.7573 696.014 Q37.4642 696.014 38.5592 697.141 Q39.6542 698.236 39.6542 699.654 Q39.6542 700.877 38.9457 701.521 Q38.2372 702.166 37.3354 702.166 Q36.0472 702.166 34.9844 701.167 Q33.9216 700.169 33.6961 698.72 Q32.9232 699.782 32.9232 701.489 Q32.9232 704.291 35.081 706.771 Q36.0794 707.866 37.9151 709.058 Q39.7186 710.249 40.4916 710.475 L49.0905 712.568 Q50.0567 712.761 54.6944 713.953 Q59.2998 715.112 59.493 715.209 Q60.3948 715.531 60.8779 716.24 Q61.361 716.948 61.361 717.657 Q61.361 718.462 60.8779 719.009 Q60.3948 719.557 59.5574 719.557 Q59.4286 719.557 58.9455 719.46 Q58.4624 719.364 57.7861 719.202 Q57.1098 719.041 56.7233 718.977 L41.49 715.145 Q38.7203 714.436 37.8507 714.275 Q36.9489 714.082 35.9506 714.082 Q34.2114 714.082 33.5673 714.629 Q32.9232 715.177 32.9232 716.143 Q32.9232 717.818 34.92 718.913 Q36.9167 720.008 40.7814 720.942 Q41.8442 721.231 42.0697 721.425 Q42.2951 721.586 42.2951 722.069 Q42.2629 722.874 41.6188 722.874 Q41.4578 722.874 40.4272 722.616 Q39.3644 722.359 37.8185 721.876 Q36.2404 721.36 35.242 720.813 Q34.5657 720.491 34.1148 720.201 Q33.6639 719.911 32.9554 719.331 Q32.2469 718.752 31.8604 717.882 Q31.4739 717.012 31.4739 715.95 Q31.4739 713.631 32.891 711.988 Q34.3081 710.314 36.5303 709.927 Q35.3708 709.122 34.3725 708.124 Q33.3419 707.125 32.4079 705.29 Q31.4739 703.454 31.4739 701.489 Q31.4739 699.042 32.73 697.528 Q33.9538 696.014 35.7573 696.014 Z" fill="#000000" fill-rule="nonzero" fill-opacity="1" /><path clip-path="url(#clip400)" d="M76.4655 690 Q76.1435 690 75.3383 689.162 Q64.5172 678.534 44.1308 678.534 Q23.6801 678.534 13.342 688.744 Q12.1504 690 11.7962 690 Q11.152 690 11.152 689.356 Q11.152 688.905 12.4725 687.327 Q13.7929 685.716 16.8203 683.301 Q19.8476 680.853 23.5513 679.05 Q32.5367 674.702 44.1308 674.702 Q55.2741 674.702 64.2595 678.856 Q68.0276 680.628 71.1838 683.108 Q74.3399 685.587 75.7248 687.23 Q77.1096 688.872 77.1096 689.356 Q77.1096 690 76.4655 690 Z" fill="#000000" fill-rule="nonzero" fill-opacity="1" /><path clip-path="url(#clip400)" d="M1059.45 12.096 L1094.21 12.096 L1094.21 18.9825 L1067.63 18.9825 L1067.63 36.8065 L1091.61 36.8065 L1091.61 43.6931 L1067.63 43.6931 L1067.63 72.576 L1059.45 72.576 L1059.45 12.096 Z" fill="#000000" fill-rule="nonzero" fill-opacity="1" /><path clip-path="url(#clip400)" d="M1101.54 54.671 L1101.54 27.2059 L1108.99 27.2059 L1108.99 54.3874 Q1108.99 60.8284 1111.5 64.0691 Q1114.02 67.2693 1119.04 67.2693 Q1125.07 67.2693 1128.56 63.421 Q1132.08 59.5726 1132.08 52.9291 L1132.08 27.2059 L1139.54 27.2059 L1139.54 72.576 L1132.08 72.576 L1132.08 65.6084 Q1129.37 69.7404 1125.76 71.7658 Q1122.2 73.7508 1117.46 73.7508 Q1109.64 73.7508 1105.59 68.8897 Q1101.54 64.0286 1101.54 54.671 M1120.29 26.1121 L1120.29 26.1121 Z" fill="#000000" fill-rule="nonzero" fill-opacity="1" /><path clip-path="url(#clip400)" d="M1192.6 45.1919 L1192.6 72.576 L1185.15 72.576 L1185.15 45.4349 Q1185.15 38.994 1182.64 35.7938 Q1180.13 32.5936 1175.1 32.5936 Q1169.07 32.5936 1165.58 36.4419 Q1162.1 40.2903 1162.1 46.9338 L1162.1 72.576 L1154.61 72.576 L1154.61 27.2059 L1162.1 27.2059 L1162.1 34.2544 Q1164.77 30.163 1168.38 28.1376 Q1172.02 26.1121 1176.76 26.1121 Q1184.58 26.1121 1188.59 30.9732 Q1192.6 35.7938 1192.6 45.1919 Z" fill="#000000" fill-rule="nonzero" fill-opacity="1" /><path clip-path="url(#clip400)" d="M1237.33 49.3643 Q1237.33 41.2625 1233.96 36.8065 Q1230.64 32.3505 1224.61 32.3505 Q1218.61 32.3505 1215.25 36.8065 Q1211.93 41.2625 1211.93 49.3643 Q1211.93 57.4256 1215.25 61.8816 Q1218.61 66.3376 1224.61 66.3376 Q1230.64 66.3376 1233.96 61.8816 Q1237.33 57.4256 1237.33 49.3643 M1244.78 66.9452 Q1244.78 78.5308 1239.63 84.1616 Q1234.49 89.8329 1223.88 89.8329 Q1219.95 89.8329 1216.46 89.2252 Q1212.98 88.6581 1209.7 87.4428 L1209.7 80.1917 Q1212.98 81.9741 1216.18 82.8248 Q1219.38 83.6755 1222.7 83.6755 Q1230.03 83.6755 1233.68 79.8271 Q1237.33 76.0193 1237.33 68.282 L1237.33 64.5957 Q1235.02 68.6061 1231.41 70.5911 Q1227.81 72.576 1222.78 72.576 Q1214.44 72.576 1209.33 66.2161 Q1204.23 59.8562 1204.23 49.3643 Q1204.23 38.832 1209.33 32.472 Q1214.44 26.1121 1222.78 26.1121 Q1227.81 26.1121 1231.41 28.0971 Q1235.02 30.082 1237.33 34.0924 L1237.33 27.2059 L1244.78 27.2059 L1244.78 66.9452 Z" fill="#000000" fill-rule="nonzero" fill-opacity="1" /><path clip-path="url(#clip400)" d="M1289.06 28.5427 L1289.06 35.5912 Q1285.9 33.9709 1282.49 33.1607 Q1279.09 32.3505 1275.44 32.3505 Q1269.89 32.3505 1267.1 34.0519 Q1264.34 35.7533 1264.34 39.156 Q1264.34 41.7486 1266.33 43.2475 Q1268.31 44.7058 1274.31 46.0426 L1276.86 46.6097 Q1284.8 48.3111 1288.12 51.4303 Q1291.49 54.509 1291.49 60.0587 Q1291.49 66.3781 1286.46 70.0644 Q1281.48 73.7508 1272.73 73.7508 Q1269.08 73.7508 1265.11 73.0216 Q1261.18 72.3329 1256.81 70.9151 L1256.81 63.2184 Q1260.94 65.3654 1264.95 66.4591 Q1268.96 67.5124 1272.89 67.5124 Q1278.16 67.5124 1280.99 65.73 Q1283.83 63.9071 1283.83 60.6258 Q1283.83 57.5877 1281.76 55.9673 Q1279.74 54.3469 1272.81 52.8481 L1270.22 52.2405 Q1263.29 50.7821 1260.21 47.7845 Q1257.13 44.7463 1257.13 39.4801 Q1257.13 33.0797 1261.67 29.5959 Q1266.21 26.1121 1274.55 26.1121 Q1278.68 26.1121 1282.33 26.7198 Q1285.98 27.3274 1289.06 28.5427 Z" fill="#000000" fill-rule="nonzero" fill-opacity="1" /><path clip-path="url(#clip400)" d="M1303.35 27.2059 L1310.81 27.2059 L1310.81 72.576 L1303.35 72.576 L1303.35 27.2059 M1303.35 9.54393 L1310.81 9.54393 L1310.81 18.9825 L1303.35 18.9825 L1303.35 9.54393 Z" fill="#000000" fill-rule="nonzero" fill-opacity="1" /><path clip-path="url(#clip400)" d="M1398.39 16.7545 L1398.39 25.383 Q1394.26 21.5346 1389.56 19.6307 Q1384.9 17.7268 1379.63 17.7268 Q1369.26 17.7268 1363.75 24.0867 Q1358.24 30.4061 1358.24 42.3968 Q1358.24 54.3469 1363.75 60.7069 Q1369.26 67.0263 1379.63 67.0263 Q1384.9 67.0263 1389.56 65.1223 Q1394.26 63.2184 1398.39 59.3701 L1398.39 67.9175 Q1394.1 70.8341 1389.27 72.2924 Q1384.49 73.7508 1379.15 73.7508 Q1365.41 73.7508 1357.52 65.3654 Q1349.62 56.9395 1349.62 42.3968 Q1349.62 27.8135 1357.52 19.4281 Q1365.41 11.0023 1379.15 11.0023 Q1384.58 11.0023 1389.36 12.4606 Q1394.18 13.8784 1398.39 16.7545 Z" fill="#000000" fill-rule="nonzero" fill-opacity="1" /><path clip-path="url(#clip400)" d="M1428.28 32.4315 Q1422.29 32.4315 1418.81 37.1306 Q1415.32 41.7891 1415.32 49.9314 Q1415.32 58.0738 1418.77 62.7728 Q1422.25 67.4314 1428.28 67.4314 Q1434.24 67.4314 1437.72 62.7323 Q1441.21 58.0333 1441.21 49.9314 Q1441.21 41.8701 1437.72 37.1711 Q1434.24 32.4315 1428.28 32.4315 M1428.28 26.1121 Q1438.01 26.1121 1443.56 32.4315 Q1449.11 38.7509 1449.11 49.9314 Q1449.11 61.0714 1443.56 67.4314 Q1438.01 73.7508 1428.28 73.7508 Q1418.52 73.7508 1412.97 67.4314 Q1407.46 61.0714 1407.46 49.9314 Q1407.46 38.7509 1412.97 32.4315 Q1418.52 26.1121 1428.28 26.1121 Z" fill="#000000" fill-rule="nonzero" fill-opacity="1" /><path clip-path="url(#clip400)" d="M1494.03 49.9314 Q1494.03 41.7081 1490.63 37.0496 Q1487.27 32.3505 1481.35 32.3505 Q1475.44 32.3505 1472.03 37.0496 Q1468.67 41.7081 1468.67 49.9314 Q1468.67 58.1548 1472.03 62.8538 Q1475.44 67.5124 1481.35 67.5124 Q1487.27 67.5124 1490.63 62.8538 Q1494.03 58.1548 1494.03 49.9314 M1468.67 34.0924 Q1471.02 30.0415 1474.59 28.0971 Q1478.19 26.1121 1483.17 26.1121 Q1491.44 26.1121 1496.58 32.6746 Q1501.77 39.2371 1501.77 49.9314 Q1501.77 60.6258 1496.58 67.1883 Q1491.44 73.7508 1483.17 73.7508 Q1478.19 73.7508 1474.59 71.8063 Q1471.02 69.8214 1468.67 65.7705 L1468.67 72.576 L1461.18 72.576 L1461.18 9.54393 L1468.67 9.54393 L1468.67 34.0924 Z" fill="#000000" fill-rule="nonzero" fill-opacity="1" /><path clip-path="url(#clip400)" d="M1534.74 49.7694 Q1525.71 49.7694 1522.23 51.8354 Q1518.74 53.9013 1518.74 58.8839 Q1518.74 62.8538 1521.33 65.2034 Q1523.97 67.5124 1528.46 67.5124 Q1534.66 67.5124 1538.39 63.1374 Q1542.16 58.7219 1542.16 51.4303 L1542.16 49.7694 L1534.74 49.7694 M1549.61 46.6907 L1549.61 72.576 L1542.16 72.576 L1542.16 65.6895 Q1539.6 69.8214 1535.8 71.8063 Q1531.99 73.7508 1526.48 73.7508 Q1519.51 73.7508 1515.38 69.8619 Q1511.29 65.9325 1511.29 59.3701 Q1511.29 51.7138 1516.39 47.825 Q1521.54 43.9361 1531.7 43.9361 L1542.16 43.9361 L1542.16 43.2069 Q1542.16 38.0623 1538.75 35.2672 Q1535.39 32.4315 1529.27 32.4315 Q1525.38 32.4315 1521.7 33.3632 Q1518.01 34.295 1514.61 36.1584 L1514.61 29.2718 Q1518.7 27.692 1522.55 26.9223 Q1526.4 26.1121 1530.04 26.1121 Q1539.89 26.1121 1544.75 31.2163 Q1549.61 36.3204 1549.61 46.6907 Z" fill="#000000" fill-rule="nonzero" fill-opacity="1" /><polyline clip-path="url(#clip402)" style="stroke:#009af9; stroke-linecap:round; stroke-linejoin:round; stroke-width:4; stroke-opacity:1; fill:none" points="315.637,1386.4 356,1386.4 396.363,1386.4 436.726,1386.4 477.089,1386.4 517.452,1386.4 557.815,1386.4 598.178,1386.4 638.54,1386.4 678.903,1386.4 719.266,1386.4 759.629,1386.4 799.992,1386.4 840.355,1386.4 880.718,1386.4 921.081,1386.4 961.444,1386.4 1001.81,1386.4 1042.17,1386.4 1082.53,1386.4 1122.9,1386.4 1163.26,1386.4 1203.62,1386.4 1243.99,1386.4 1284.35,1386.4 1324.71,1386.4 1365.07,1386.4 1405.44,1386.4 1445.8,1386.4 1486.16,1386.4 1526.53,1386.4 1566.89,1386.4 1607.25,1386.4 1647.61,1386.4 1687.98,1386.4 1728.34,1386.4 1768.7,1386.4 1809.07,1386.4 1849.43,1386.4 1889.79,1386.4 1930.16,1386.4 1970.52,1386.4 2010.88,1386.4 2051.24,1386.4 2091.61,1386.4 2131.97,1386.4 2172.33,1386.4 2212.7,1386.4 2253.06,1386.4 2293.42,1386.4 "/>
<path clip-path="url(#clip400)" d="M2020.8 270.476 L2282.87 270.476 L2282.87 166.796 L2020.8 166.796  Z" fill="#ffffff" fill-rule="evenodd" fill-opacity="1"/>
<polyline clip-path="url(#clip400)" style="stroke:#000000; stroke-linecap:round; stroke-linejoin:round; stroke-width:4; stroke-opacity:1; fill:none" points="2020.8,270.476 2282.87,270.476 2282.87,166.796 2020.8,166.796 2020.8,270.476 "/>
<polyline clip-path="url(#clip400)" style="stroke:#009af9; stroke-linecap:round; stroke-linejoin:round; stroke-width:4; stroke-opacity:1; fill:none" points="2044.09,218.636 2183.86,218.636 "/>
<path clip-path="url(#clip400)" d="M2220.99 238.323 Q2219.19 242.953 2217.47 244.365 Q2215.76 245.777 2212.89 245.777 L2209.49 245.777 L2209.49 242.212 L2211.99 242.212 Q2213.75 242.212 2214.72 241.379 Q2215.69 240.545 2216.87 237.443 L2217.64 235.499 L2207.15 209.99 L2211.66 209.99 L2219.77 230.268 L2227.87 209.99 L2232.38 209.99 L2220.99 238.323 Z" fill="#000000" fill-rule="nonzero" fill-opacity="1" /><path clip-path="url(#clip400)" d="M2239.67 231.981 L2247.31 231.981 L2247.31 205.615 L2239 207.282 L2239 203.022 L2247.27 201.356 L2251.94 201.356 L2251.94 231.981 L2259.58 231.981 L2259.58 235.916 L2239.67 235.916 L2239.67 231.981 Z" fill="#000000" fill-rule="nonzero" fill-opacity="1" /></svg>
