<?xml version="1.0" encoding="utf-8"?>
<svg xmlns="http://www.w3.org/2000/svg" xmlns:xlink="http://www.w3.org/1999/xlink" width="600" height="400" viewBox="0 0 2400 1600">
<defs>
  <clipPath id="clip940">
    <rect x="0" y="0" width="2400" height="1600"/>
  </clipPath>
</defs>
<path clip-path="url(#clip940)" d="M0 1600 L2400 1600 L2400 8.88178e-14 L0 8.88178e-14  Z" fill="#ffffff" fill-rule="evenodd" fill-opacity="1"/>
<defs>
  <clipPath id="clip941">
    <rect x="272" y="123" width="2081" height="1301"/>
  </clipPath>
</defs>
<path clip-path="url(#clip940)" d="M280.19 1423.18 L2352.76 1423.18 L2352.76 123.472 L280.19 123.472  Z" fill="#ffffff" fill-rule="evenodd" fill-opacity="1"/>
<defs>
  <clipPath id="clip942">
    <rect x="280" y="123" width="2074" height="1301"/>
  </clipPath>
</defs>
<polyline clip-path="url(#clip942)" style="stroke:#000000; stroke-linecap:round; stroke-linejoin:round; stroke-width:2; stroke-opacity:0.1; fill:none" points="498.513,1423.18 498.513,123.472 "/>
<polyline clip-path="url(#clip942)" style="stroke:#000000; stroke-linecap:round; stroke-linejoin:round; stroke-width:2; stroke-opacity:0.1; fill:none" points="907.493,1423.18 907.493,123.472 "/>
<polyline clip-path="url(#clip942)" style="stroke:#000000; stroke-linecap:round; stroke-linejoin:round; stroke-width:2; stroke-opacity:0.1; fill:none" points="1316.47,1423.18 1316.47,123.472 "/>
<polyline clip-path="url(#clip942)" style="stroke:#000000; stroke-linecap:round; stroke-linejoin:round; stroke-width:2; stroke-opacity:0.1; fill:none" points="1725.45,1423.18 1725.45,123.472 "/>
<polyline clip-path="url(#clip942)" style="stroke:#000000; stroke-linecap:round; stroke-linejoin:round; stroke-width:2; stroke-opacity:0.1; fill:none" points="2134.43,1423.18 2134.43,123.472 "/>
<polyline clip-path="url(#clip942)" style="stroke:#000000; stroke-linecap:round; stroke-linejoin:round; stroke-width:2; stroke-opacity:0.1; fill:none" points="280.19,1386.4 2352.76,1386.4 "/>
<polyline clip-path="url(#clip942)" style="stroke:#000000; stroke-linecap:round; stroke-linejoin:round; stroke-width:2; stroke-opacity:0.1; fill:none" points="280.19,1097.63 2352.76,1097.63 "/>
<polyline clip-path="url(#clip942)" style="stroke:#000000; stroke-linecap:round; stroke-linejoin:round; stroke-width:2; stroke-opacity:0.1; fill:none" points="280.19,808.855 2352.76,808.855 "/>
<polyline clip-path="url(#clip942)" style="stroke:#000000; stroke-linecap:round; stroke-linejoin:round; stroke-width:2; stroke-opacity:0.1; fill:none" points="280.19,520.084 2352.76,520.084 "/>
<polyline clip-path="url(#clip942)" style="stroke:#000000; stroke-linecap:round; stroke-linejoin:round; stroke-width:2; stroke-opacity:0.1; fill:none" points="280.19,231.314 2352.76,231.314 "/>
<polyline clip-path="url(#clip940)" style="stroke:#000000; stroke-linecap:round; stroke-linejoin:round; stroke-width:4; stroke-opacity:1; fill:none" points="280.19,1423.18 2352.76,1423.18 "/>
<polyline clip-path="url(#clip940)" style="stroke:#000000; stroke-linecap:round; stroke-linejoin:round; stroke-width:4; stroke-opacity:1; fill:none" points="498.513,1423.18 498.513,1404.28 "/>
<polyline clip-path="url(#clip940)" style="stroke:#000000; stroke-linecap:round; stroke-linejoin:round; stroke-width:4; stroke-opacity:1; fill:none" points="907.493,1423.18 907.493,1404.28 "/>
<polyline clip-path="url(#clip940)" style="stroke:#000000; stroke-linecap:round; stroke-linejoin:round; stroke-width:4; stroke-opacity:1; fill:none" points="1316.47,1423.18 1316.47,1404.28 "/>
<polyline clip-path="url(#clip940)" style="stroke:#000000; stroke-linecap:round; stroke-linejoin:round; stroke-width:4; stroke-opacity:1; fill:none" points="1725.45,1423.18 1725.45,1404.28 "/>
<polyline clip-path="url(#clip940)" style="stroke:#000000; stroke-linecap:round; stroke-linejoin:round; stroke-width:4; stroke-opacity:1; fill:none" points="2134.43,1423.18 2134.43,1404.28 "/>
<path clip-path="url(#clip940)" d="M445.041 1468.75 L474.717 1468.75 L474.717 1472.69 L445.041 1472.69 L445.041 1468.75 Z" fill="#000000" fill-rule="nonzero" fill-opacity="1" /><path clip-path="url(#clip940)" d="M485.62 1481.64 L493.259 1481.64 L493.259 1455.28 L484.949 1456.95 L484.949 1452.69 L493.212 1451.02 L497.888 1451.02 L497.888 1481.64 L505.527 1481.64 L505.527 1485.58 L485.62 1485.58 L485.62 1481.64 Z" fill="#000000" fill-rule="nonzero" fill-opacity="1" /><path clip-path="url(#clip940)" d="M514.972 1479.7 L519.856 1479.7 L519.856 1485.58 L514.972 1485.58 L514.972 1479.7 Z" fill="#000000" fill-rule="nonzero" fill-opacity="1" /><path clip-path="url(#clip940)" d="M540.041 1454.1 Q536.43 1454.1 534.601 1457.66 Q532.795 1461.2 532.795 1468.33 Q532.795 1475.44 534.601 1479.01 Q536.43 1482.55 540.041 1482.55 Q543.675 1482.55 545.481 1479.01 Q547.309 1475.44 547.309 1468.33 Q547.309 1461.2 545.481 1457.66 Q543.675 1454.1 540.041 1454.1 M540.041 1450.39 Q545.851 1450.39 548.907 1455 Q551.985 1459.58 551.985 1468.33 Q551.985 1477.06 548.907 1481.67 Q545.851 1486.25 540.041 1486.25 Q534.231 1486.25 531.152 1481.67 Q528.096 1477.06 528.096 1468.33 Q528.096 1459.58 531.152 1455 Q534.231 1450.39 540.041 1450.39 Z" fill="#000000" fill-rule="nonzero" fill-opacity="1" /><path clip-path="url(#clip940)" d="M854.519 1468.75 L884.195 1468.75 L884.195 1472.69 L854.519 1472.69 L854.519 1468.75 Z" fill="#000000" fill-rule="nonzero" fill-opacity="1" /><path clip-path="url(#clip940)" d="M904.287 1454.1 Q900.676 1454.1 898.847 1457.66 Q897.042 1461.2 897.042 1468.33 Q897.042 1475.44 898.847 1479.01 Q900.676 1482.55 904.287 1482.55 Q907.921 1482.55 909.727 1479.01 Q911.556 1475.44 911.556 1468.33 Q911.556 1461.2 909.727 1457.66 Q907.921 1454.1 904.287 1454.1 M904.287 1450.39 Q910.097 1450.39 913.153 1455 Q916.231 1459.58 916.231 1468.33 Q916.231 1477.06 913.153 1481.67 Q910.097 1486.25 904.287 1486.25 Q898.477 1486.25 895.398 1481.67 Q892.343 1477.06 892.343 1468.33 Q892.343 1459.58 895.398 1455 Q898.477 1450.39 904.287 1450.39 Z" fill="#000000" fill-rule="nonzero" fill-opacity="1" /><path clip-path="url(#clip940)" d="M924.449 1479.7 L929.333 1479.7 L929.333 1485.58 L924.449 1485.58 L924.449 1479.7 Z" fill="#000000" fill-rule="nonzero" fill-opacity="1" /><path clip-path="url(#clip940)" d="M939.565 1451.02 L957.921 1451.02 L957.921 1454.96 L943.847 1454.96 L943.847 1463.43 Q944.866 1463.08 945.884 1462.92 Q946.903 1462.73 947.921 1462.73 Q953.708 1462.73 957.088 1465.9 Q960.467 1469.08 960.467 1474.49 Q960.467 1480.07 956.995 1483.17 Q953.523 1486.25 947.204 1486.25 Q945.028 1486.25 942.759 1485.88 Q940.514 1485.51 938.106 1484.77 L938.106 1480.07 Q940.19 1481.2 942.412 1481.76 Q944.634 1482.32 947.111 1482.32 Q951.116 1482.32 953.454 1480.21 Q955.791 1478.1 955.791 1474.49 Q955.791 1470.88 953.454 1468.77 Q951.116 1466.67 947.111 1466.67 Q945.236 1466.67 943.361 1467.08 Q941.509 1467.5 939.565 1468.38 L939.565 1451.02 Z" fill="#000000" fill-rule="nonzero" fill-opacity="1" /><path clip-path="url(#clip940)" d="M1293.86 1454.1 Q1290.25 1454.1 1288.42 1457.66 Q1286.61 1461.2 1286.61 1468.33 Q1286.61 1475.44 1288.42 1479.01 Q1290.25 1482.55 1293.86 1482.55 Q1297.49 1482.55 1299.3 1479.01 Q1301.13 1475.44 1301.13 1468.33 Q1301.13 1461.2 1299.3 1457.66 Q1297.49 1454.1 1293.86 1454.1 M1293.86 1450.39 Q1299.67 1450.39 1302.72 1455 Q1305.8 1459.58 1305.8 1468.33 Q1305.8 1477.06 1302.72 1481.67 Q1299.67 1486.25 1293.86 1486.25 Q1288.05 1486.25 1284.97 1481.67 Q1281.91 1477.06 1281.91 1468.33 Q1281.91 1459.58 1284.97 1455 Q1288.05 1450.39 1293.86 1450.39 Z" fill="#000000" fill-rule="nonzero" fill-opacity="1" /><path clip-path="url(#clip940)" d="M1314.02 1479.7 L1318.9 1479.7 L1318.9 1485.58 L1314.02 1485.58 L1314.02 1479.7 Z" fill="#000000" fill-rule="nonzero" fill-opacity="1" /><path clip-path="url(#clip940)" d="M1339.09 1454.1 Q1335.48 1454.1 1333.65 1457.66 Q1331.84 1461.2 1331.84 1468.33 Q1331.84 1475.44 1333.65 1479.01 Q1335.48 1482.55 1339.09 1482.55 Q1342.72 1482.55 1344.53 1479.01 Q1346.36 1475.44 1346.36 1468.33 Q1346.36 1461.2 1344.53 1457.66 Q1342.72 1454.1 1339.09 1454.1 M1339.09 1450.39 Q1344.9 1450.39 1347.95 1455 Q1351.03 1459.58 1351.03 1468.33 Q1351.03 1477.06 1347.95 1481.67 Q1344.9 1486.25 1339.09 1486.25 Q1333.28 1486.25 1330.2 1481.67 Q1327.14 1477.06 1327.14 1468.33 Q1327.14 1459.58 1330.2 1455 Q1333.28 1450.39 1339.09 1450.39 Z" fill="#000000" fill-rule="nonzero" fill-opacity="1" /><path clip-path="url(#clip940)" d="M1703.33 1454.1 Q1699.72 1454.1 1697.9 1457.66 Q1696.09 1461.2 1696.09 1468.33 Q1696.09 1475.44 1697.9 1479.01 Q1699.72 1482.55 1703.33 1482.55 Q1706.97 1482.55 1708.77 1479.01 Q1710.6 1475.44 1710.6 1468.33 Q1710.6 1461.2 1708.77 1457.66 Q1706.97 1454.1 1703.33 1454.1 M1703.33 1450.39 Q1709.15 1450.39 1712.2 1455 Q1715.28 1459.58 1715.28 1468.33 Q1715.28 1477.06 1712.2 1481.67 Q1709.15 1486.25 1703.33 1486.25 Q1697.52 1486.25 1694.45 1481.67 Q1691.39 1477.06 1691.39 1468.33 Q1691.39 1459.58 1694.45 1455 Q1697.52 1450.39 1703.33 1450.39 Z" fill="#000000" fill-rule="nonzero" fill-opacity="1" /><path clip-path="url(#clip940)" d="M1723.5 1479.7 L1728.38 1479.7 L1728.38 1485.58 L1723.5 1485.58 L1723.5 1479.7 Z" fill="#000000" fill-rule="nonzero" fill-opacity="1" /><path clip-path="url(#clip940)" d="M1738.61 1451.02 L1756.97 1451.02 L1756.97 1454.96 L1742.89 1454.96 L1742.89 1463.43 Q1743.91 1463.08 1744.93 1462.92 Q1745.95 1462.73 1746.97 1462.73 Q1752.76 1462.73 1756.14 1465.9 Q1759.52 1469.08 1759.52 1474.49 Q1759.52 1480.07 1756.04 1483.17 Q1752.57 1486.25 1746.25 1486.25 Q1744.08 1486.25 1741.81 1485.88 Q1739.56 1485.51 1737.15 1484.77 L1737.15 1480.07 Q1739.24 1481.2 1741.46 1481.76 Q1743.68 1482.32 1746.16 1482.32 Q1750.16 1482.32 1752.5 1480.21 Q1754.84 1478.1 1754.84 1474.49 Q1754.84 1470.88 1752.5 1468.77 Q1750.16 1466.67 1746.16 1466.67 Q1744.28 1466.67 1742.41 1467.08 Q1740.56 1467.5 1738.61 1468.38 L1738.61 1451.02 Z" fill="#000000" fill-rule="nonzero" fill-opacity="1" /><path clip-path="url(#clip940)" d="M2101.59 1481.64 L2109.22 1481.64 L2109.22 1455.28 L2100.91 1456.95 L2100.91 1452.69 L2109.18 1451.02 L2113.85 1451.02 L2113.85 1481.64 L2121.49 1481.64 L2121.49 1485.58 L2101.59 1485.58 L2101.59 1481.64 Z" fill="#000000" fill-rule="nonzero" fill-opacity="1" /><path clip-path="url(#clip940)" d="M2130.94 1479.7 L2135.82 1479.7 L2135.82 1485.58 L2130.94 1485.58 L2130.94 1479.7 Z" fill="#000000" fill-rule="nonzero" fill-opacity="1" /><path clip-path="url(#clip940)" d="M2156.01 1454.1 Q2152.4 1454.1 2150.57 1457.66 Q2148.76 1461.2 2148.76 1468.33 Q2148.76 1475.44 2150.57 1479.01 Q2152.4 1482.55 2156.01 1482.55 Q2159.64 1482.55 2161.45 1479.01 Q2163.28 1475.44 2163.28 1468.33 Q2163.28 1461.2 2161.45 1457.66 Q2159.64 1454.1 2156.01 1454.1 M2156.01 1450.39 Q2161.82 1450.39 2164.87 1455 Q2167.95 1459.58 2167.95 1468.33 Q2167.95 1477.06 2164.87 1481.67 Q2161.82 1486.25 2156.01 1486.25 Q2150.2 1486.25 2147.12 1481.67 Q2144.06 1477.06 2144.06 1468.33 Q2144.06 1459.58 2147.12 1455 Q2150.2 1450.39 2156.01 1450.39 Z" fill="#000000" fill-rule="nonzero" fill-opacity="1" /><path clip-path="url(#clip940)" d="M1330.91 1520.64 Q1330.91 1521.09 1330.62 1522.15 L1324.31 1547.34 Q1322.92 1552.94 1318.41 1556.87 Q1313.94 1560.8 1308.85 1560.8 Q1305.79 1560.8 1303.83 1559.16 Q1301.86 1557.55 1301.86 1555.07 Q1301.86 1552.88 1303.02 1551.82 Q1304.18 1550.78 1305.56 1550.78 Q1306.02 1550.78 1306.5 1550.91 Q1306.98 1551.04 1307.5 1551.59 Q1308.01 1552.14 1308.01 1553.07 Q1308.01 1554.58 1306.69 1555.78 Q1306.05 1556.32 1305.44 1556.45 Q1304.86 1556.58 1303.86 1556.58 Q1304.24 1557.48 1304.95 1558.1 Q1305.66 1558.71 1306.47 1558.93 Q1307.27 1559.19 1307.79 1559.25 Q1308.33 1559.35 1308.85 1559.35 Q1312.97 1559.35 1316.13 1555.2 Q1317.06 1553.94 1317.74 1552.68 Q1318.45 1551.46 1318.96 1549.95 Q1319.48 1548.47 1319.7 1547.66 Q1319.96 1546.86 1320.41 1545.02 Q1317.42 1548.01 1313.74 1548.01 Q1312.2 1548.01 1310.81 1547.6 Q1309.46 1547.18 1308.27 1546.31 Q1307.08 1545.41 1306.37 1543.83 Q1305.69 1542.25 1305.69 1540.16 Q1305.69 1537.93 1306.56 1534.91 Q1307.43 1531.88 1309.53 1526.31 Q1310.65 1523.18 1310.65 1521.67 Q1310.65 1520.93 1310.49 1520.48 Q1310.33 1520 1310.01 1519.83 Q1309.69 1519.64 1309.49 1519.61 Q1309.33 1519.58 1309.01 1519.58 Q1307.11 1519.58 1305.34 1521.51 Q1303.57 1523.44 1302.34 1527.76 Q1302.09 1528.56 1301.93 1528.76 Q1301.76 1528.95 1301.28 1528.95 Q1300.48 1528.92 1300.48 1528.27 Q1300.48 1528.01 1300.77 1527.02 Q1301.06 1525.99 1301.73 1524.47 Q1302.44 1522.93 1303.41 1521.54 Q1304.37 1520.12 1305.89 1519.13 Q1307.43 1518.13 1309.2 1518.13 Q1311.62 1518.13 1313.1 1519.71 Q1314.61 1521.25 1314.61 1523.54 Q1314.61 1524.47 1314.36 1525.31 Q1314.13 1526.11 1313.29 1528.27 Q1309.91 1536.97 1309.91 1541.22 Q1309.91 1542.25 1310.07 1543.12 Q1310.27 1543.96 1310.69 1544.79 Q1311.1 1545.6 1311.94 1546.08 Q1312.81 1546.53 1314 1546.53 Q1315.52 1546.53 1316.93 1545.82 Q1318.38 1545.08 1319.28 1544.09 Q1320.22 1543.09 1320.77 1542.25 Q1321.35 1541.38 1321.47 1540.93 L1324.44 1529.08 L1325.76 1523.8 Q1326.37 1520.93 1326.66 1520.22 Q1327.05 1519.54 1327.72 1519.19 Q1328.4 1518.84 1328.98 1518.84 Q1329.78 1518.84 1330.33 1519.32 Q1330.91 1519.8 1330.91 1520.64 Z" fill="#000000" fill-rule="nonzero" fill-opacity="1" /><polyline clip-path="url(#clip940)" style="stroke:#000000; stroke-linecap:round; stroke-linejoin:round; stroke-width:4; stroke-opacity:1; fill:none" points="280.19,1423.18 280.19,123.472 "/>
<polyline clip-path="url(#clip940)" style="stroke:#000000; stroke-linecap:round; stroke-linejoin:round; stroke-width:4; stroke-opacity:1; fill:none" points="280.19,1386.4 299.088,1386.4 "/>
<polyline clip-path="url(#clip940)" style="stroke:#000000; stroke-linecap:round; stroke-linejoin:round; stroke-width:4; stroke-opacity:1; fill:none" points="280.19,1097.63 299.088,1097.63 "/>
<polyline clip-path="url(#clip940)" style="stroke:#000000; stroke-linecap:round; stroke-linejoin:round; stroke-width:4; stroke-opacity:1; fill:none" points="280.19,808.855 299.088,808.855 "/>
<polyline clip-path="url(#clip940)" style="stroke:#000000; stroke-linecap:round; stroke-linejoin:round; stroke-width:4; stroke-opacity:1; fill:none" points="280.19,520.084 299.088,520.084 "/>
<polyline clip-path="url(#clip940)" style="stroke:#000000; stroke-linecap:round; stroke-linejoin:round; stroke-width:4; stroke-opacity:1; fill:none" points="280.19,231.314 299.088,231.314 "/>
<path clip-path="url(#clip940)" d="M126.691 1372.19 Q123.08 1372.19 121.251 1375.76 Q119.445 1379.3 119.445 1386.43 Q119.445 1393.54 121.251 1397.1 Q123.08 1400.64 126.691 1400.64 Q130.325 1400.64 132.13 1397.1 Q133.959 1393.54 133.959 1386.43 Q133.959 1379.3 132.13 1375.76 Q130.325 1372.19 126.691 1372.19 M126.691 1368.49 Q132.501 1368.49 135.556 1373.1 Q138.635 1377.68 138.635 1386.43 Q138.635 1395.16 135.556 1399.76 Q132.501 1404.35 126.691 1404.35 Q120.88 1404.35 117.802 1399.76 Q114.746 1395.16 114.746 1386.43 Q114.746 1377.68 117.802 1373.1 Q120.88 1368.49 126.691 1368.49 Z" fill="#000000" fill-rule="nonzero" fill-opacity="1" /><path clip-path="url(#clip940)" d="M146.853 1397.8 L151.737 1397.8 L151.737 1403.68 L146.853 1403.68 L146.853 1397.8 Z" fill="#000000" fill-rule="nonzero" fill-opacity="1" /><path clip-path="url(#clip940)" d="M171.922 1372.19 Q168.311 1372.19 166.482 1375.76 Q164.677 1379.3 164.677 1386.43 Q164.677 1393.54 166.482 1397.1 Q168.311 1400.64 171.922 1400.64 Q175.556 1400.64 177.362 1397.1 Q179.19 1393.54 179.19 1386.43 Q179.19 1379.3 177.362 1375.76 Q175.556 1372.19 171.922 1372.19 M171.922 1368.49 Q177.732 1368.49 180.788 1373.1 Q183.866 1377.68 183.866 1386.43 Q183.866 1395.16 180.788 1399.76 Q177.732 1404.35 171.922 1404.35 Q166.112 1404.35 163.033 1399.76 Q159.978 1395.16 159.978 1386.43 Q159.978 1377.68 163.033 1373.1 Q166.112 1368.49 171.922 1368.49 Z" fill="#000000" fill-rule="nonzero" fill-opacity="1" /><path clip-path="url(#clip940)" d="M202.084 1372.19 Q198.473 1372.19 196.644 1375.76 Q194.838 1379.3 194.838 1386.43 Q194.838 1393.54 196.644 1397.1 Q198.473 1400.64 202.084 1400.64 Q205.718 1400.64 207.524 1397.1 Q209.352 1393.54 209.352 1386.43 Q209.352 1379.3 207.524 1375.76 Q205.718 1372.19 202.084 1372.19 M202.084 1368.49 Q207.894 1368.49 210.949 1373.1 Q214.028 1377.68 214.028 1386.43 Q214.028 1395.16 210.949 1399.76 Q207.894 1404.35 202.084 1404.35 Q196.274 1404.35 193.195 1399.76 Q190.139 1395.16 190.139 1386.43 Q190.139 1377.68 193.195 1373.1 Q196.274 1368.49 202.084 1368.49 Z" fill="#000000" fill-rule="nonzero" fill-opacity="1" /><path clip-path="url(#clip940)" d="M232.246 1372.19 Q228.635 1372.19 226.806 1375.76 Q225 1379.3 225 1386.43 Q225 1393.54 226.806 1397.1 Q228.635 1400.64 232.246 1400.64 Q235.88 1400.64 237.685 1397.1 Q239.514 1393.54 239.514 1386.43 Q239.514 1379.3 237.685 1375.76 Q235.88 1372.19 232.246 1372.19 M232.246 1368.49 Q238.056 1368.49 241.111 1373.1 Q244.19 1377.68 244.19 1386.43 Q244.19 1395.16 241.111 1399.76 Q238.056 1404.35 232.246 1404.35 Q226.435 1404.35 223.357 1399.76 Q220.301 1395.16 220.301 1386.43 Q220.301 1377.68 223.357 1373.1 Q226.435 1368.49 232.246 1368.49 Z" fill="#000000" fill-rule="nonzero" fill-opacity="1" /><path clip-path="url(#clip940)" d="M127.917 1083.42 Q124.306 1083.42 122.478 1086.99 Q120.672 1090.53 120.672 1097.66 Q120.672 1104.77 122.478 1108.33 Q124.306 1111.87 127.917 1111.87 Q131.552 1111.87 133.357 1108.33 Q135.186 1104.77 135.186 1097.66 Q135.186 1090.53 133.357 1086.99 Q131.552 1083.42 127.917 1083.42 M127.917 1079.72 Q133.728 1079.72 136.783 1084.33 Q139.862 1088.91 139.862 1097.66 Q139.862 1106.39 136.783 1110.99 Q133.728 1115.58 127.917 1115.58 Q122.107 1115.58 119.029 1110.99 Q115.973 1106.39 115.973 1097.66 Q115.973 1088.91 119.029 1084.33 Q122.107 1079.72 127.917 1079.72 Z" fill="#000000" fill-rule="nonzero" fill-opacity="1" /><path clip-path="url(#clip940)" d="M148.079 1109.03 L152.964 1109.03 L152.964 1114.91 L148.079 1114.91 L148.079 1109.03 Z" fill="#000000" fill-rule="nonzero" fill-opacity="1" /><path clip-path="url(#clip940)" d="M173.149 1083.42 Q169.538 1083.42 167.709 1086.99 Q165.903 1090.53 165.903 1097.66 Q165.903 1104.77 167.709 1108.33 Q169.538 1111.87 173.149 1111.87 Q176.783 1111.87 178.589 1108.33 Q180.417 1104.77 180.417 1097.66 Q180.417 1090.53 178.589 1086.99 Q176.783 1083.42 173.149 1083.42 M173.149 1079.72 Q178.959 1079.72 182.014 1084.33 Q185.093 1088.91 185.093 1097.66 Q185.093 1106.39 182.014 1110.99 Q178.959 1115.58 173.149 1115.58 Q167.339 1115.58 164.26 1110.99 Q161.204 1106.39 161.204 1097.66 Q161.204 1088.91 164.26 1084.33 Q167.339 1079.72 173.149 1079.72 Z" fill="#000000" fill-rule="nonzero" fill-opacity="1" /><path clip-path="url(#clip940)" d="M203.311 1083.42 Q199.7 1083.42 197.871 1086.99 Q196.065 1090.53 196.065 1097.66 Q196.065 1104.77 197.871 1108.33 Q199.7 1111.87 203.311 1111.87 Q206.945 1111.87 208.75 1108.33 Q210.579 1104.77 210.579 1097.66 Q210.579 1090.53 208.75 1086.99 Q206.945 1083.42 203.311 1083.42 M203.311 1079.72 Q209.121 1079.72 212.176 1084.33 Q215.255 1088.91 215.255 1097.66 Q215.255 1106.39 212.176 1110.99 Q209.121 1115.58 203.311 1115.58 Q197.5 1115.58 194.422 1110.99 Q191.366 1106.39 191.366 1097.66 Q191.366 1088.91 194.422 1084.33 Q197.5 1079.72 203.311 1079.72 Z" fill="#000000" fill-rule="nonzero" fill-opacity="1" /><path clip-path="url(#clip940)" d="M224.283 1110.97 L231.922 1110.97 L231.922 1084.6 L223.611 1086.27 L223.611 1082.01 L231.875 1080.35 L236.551 1080.35 L236.551 1110.97 L244.19 1110.97 L244.19 1114.91 L224.283 1114.91 L224.283 1110.97 Z" fill="#000000" fill-rule="nonzero" fill-opacity="1" /><path clip-path="url(#clip940)" d="M128.288 794.653 Q124.677 794.653 122.848 798.218 Q121.043 801.76 121.043 808.889 Q121.043 815.996 122.848 819.561 Q124.677 823.102 128.288 823.102 Q131.922 823.102 133.728 819.561 Q135.556 815.996 135.556 808.889 Q135.556 801.76 133.728 798.218 Q131.922 794.653 128.288 794.653 M128.288 790.95 Q134.098 790.95 137.154 795.556 Q140.232 800.139 140.232 808.889 Q140.232 817.616 137.154 822.223 Q134.098 826.806 128.288 826.806 Q122.478 826.806 119.399 822.223 Q116.343 817.616 116.343 808.889 Q116.343 800.139 119.399 795.556 Q122.478 790.95 128.288 790.95 Z" fill="#000000" fill-rule="nonzero" fill-opacity="1" /><path clip-path="url(#clip940)" d="M148.45 820.255 L153.334 820.255 L153.334 826.135 L148.45 826.135 L148.45 820.255 Z" fill="#000000" fill-rule="nonzero" fill-opacity="1" /><path clip-path="url(#clip940)" d="M173.519 794.653 Q169.908 794.653 168.079 798.218 Q166.274 801.76 166.274 808.889 Q166.274 815.996 168.079 819.561 Q169.908 823.102 173.519 823.102 Q177.153 823.102 178.959 819.561 Q180.788 815.996 180.788 808.889 Q180.788 801.76 178.959 798.218 Q177.153 794.653 173.519 794.653 M173.519 790.95 Q179.329 790.95 182.385 795.556 Q185.463 800.139 185.463 808.889 Q185.463 817.616 182.385 822.223 Q179.329 826.806 173.519 826.806 Q167.709 826.806 164.63 822.223 Q161.575 817.616 161.575 808.889 Q161.575 800.139 164.63 795.556 Q167.709 790.95 173.519 790.95 Z" fill="#000000" fill-rule="nonzero" fill-opacity="1" /><path clip-path="url(#clip940)" d="M203.681 794.653 Q200.07 794.653 198.241 798.218 Q196.436 801.76 196.436 808.889 Q196.436 815.996 198.241 819.561 Q200.07 823.102 203.681 823.102 Q207.315 823.102 209.121 819.561 Q210.949 815.996 210.949 808.889 Q210.949 801.76 209.121 798.218 Q207.315 794.653 203.681 794.653 M203.681 790.95 Q209.491 790.95 212.547 795.556 Q215.625 800.139 215.625 808.889 Q215.625 817.616 212.547 822.223 Q209.491 826.806 203.681 826.806 Q197.871 826.806 194.792 822.223 Q191.737 817.616 191.737 808.889 Q191.737 800.139 194.792 795.556 Q197.871 790.95 203.681 790.95 Z" fill="#000000" fill-rule="nonzero" fill-opacity="1" /><path clip-path="url(#clip940)" d="M227.871 822.199 L244.19 822.199 L244.19 826.135 L222.246 826.135 L222.246 822.199 Q224.908 819.445 229.491 814.815 Q234.097 810.163 235.278 808.82 Q237.523 806.297 238.403 804.561 Q239.306 802.801 239.306 801.112 Q239.306 798.357 237.361 796.621 Q235.44 794.885 232.338 794.885 Q230.139 794.885 227.685 795.649 Q225.255 796.413 222.477 797.964 L222.477 793.241 Q225.301 792.107 227.755 791.528 Q230.209 790.95 232.246 790.95 Q237.616 790.95 240.81 793.635 Q244.005 796.32 244.005 800.811 Q244.005 802.94 243.195 804.862 Q242.408 806.76 240.301 809.352 Q239.722 810.024 236.621 813.241 Q233.519 816.436 227.871 822.199 Z" fill="#000000" fill-rule="nonzero" fill-opacity="1" /><path clip-path="url(#clip940)" d="M127.339 505.883 Q123.728 505.883 121.899 509.448 Q120.093 512.989 120.093 520.119 Q120.093 527.225 121.899 530.79 Q123.728 534.332 127.339 534.332 Q130.973 534.332 132.779 530.79 Q134.607 527.225 134.607 520.119 Q134.607 512.989 132.779 509.448 Q130.973 505.883 127.339 505.883 M127.339 502.179 Q133.149 502.179 136.204 506.786 Q139.283 511.369 139.283 520.119 Q139.283 528.846 136.204 533.452 Q133.149 538.035 127.339 538.035 Q121.529 538.035 118.45 533.452 Q115.394 528.846 115.394 520.119 Q115.394 511.369 118.45 506.786 Q121.529 502.179 127.339 502.179 Z" fill="#000000" fill-rule="nonzero" fill-opacity="1" /><path clip-path="url(#clip940)" d="M147.501 531.485 L152.385 531.485 L152.385 537.364 L147.501 537.364 L147.501 531.485 Z" fill="#000000" fill-rule="nonzero" fill-opacity="1" /><path clip-path="url(#clip940)" d="M172.57 505.883 Q168.959 505.883 167.13 509.448 Q165.325 512.989 165.325 520.119 Q165.325 527.225 167.13 530.79 Q168.959 534.332 172.57 534.332 Q176.204 534.332 178.01 530.79 Q179.839 527.225 179.839 520.119 Q179.839 512.989 178.01 509.448 Q176.204 505.883 172.57 505.883 M172.57 502.179 Q178.38 502.179 181.436 506.786 Q184.514 511.369 184.514 520.119 Q184.514 528.846 181.436 533.452 Q178.38 538.035 172.57 538.035 Q166.76 538.035 163.681 533.452 Q160.626 528.846 160.626 520.119 Q160.626 511.369 163.681 506.786 Q166.76 502.179 172.57 502.179 Z" fill="#000000" fill-rule="nonzero" fill-opacity="1" /><path clip-path="url(#clip940)" d="M202.732 505.883 Q199.121 505.883 197.292 509.448 Q195.487 512.989 195.487 520.119 Q195.487 527.225 197.292 530.79 Q199.121 534.332 202.732 534.332 Q206.366 534.332 208.172 530.79 Q210 527.225 210 520.119 Q210 512.989 208.172 509.448 Q206.366 505.883 202.732 505.883 M202.732 502.179 Q208.542 502.179 211.598 506.786 Q214.676 511.369 214.676 520.119 Q214.676 528.846 211.598 533.452 Q208.542 538.035 202.732 538.035 Q196.922 538.035 193.843 533.452 Q190.788 528.846 190.788 520.119 Q190.788 511.369 193.843 506.786 Q196.922 502.179 202.732 502.179 Z" fill="#000000" fill-rule="nonzero" fill-opacity="1" /><path clip-path="url(#clip940)" d="M237.06 518.73 Q240.417 519.448 242.292 521.716 Q244.19 523.985 244.19 527.318 Q244.19 532.434 240.672 535.235 Q237.153 538.035 230.672 538.035 Q228.496 538.035 226.181 537.596 Q223.889 537.179 221.436 536.322 L221.436 531.809 Q223.38 532.943 225.695 533.522 Q228.01 534.1 230.533 534.1 Q234.931 534.1 237.222 532.364 Q239.537 530.628 239.537 527.318 Q239.537 524.262 237.384 522.549 Q235.255 520.813 231.435 520.813 L227.408 520.813 L227.408 516.971 L231.621 516.971 Q235.07 516.971 236.898 515.605 Q238.727 514.216 238.727 511.624 Q238.727 508.962 236.829 507.549 Q234.954 506.114 231.435 506.114 Q229.514 506.114 227.315 506.531 Q225.116 506.948 222.477 507.827 L222.477 503.661 Q225.139 502.92 227.454 502.55 Q229.792 502.179 231.852 502.179 Q237.176 502.179 240.278 504.61 Q243.38 507.017 243.38 511.137 Q243.38 514.008 241.736 515.999 Q240.093 517.966 237.06 518.73 Z" fill="#000000" fill-rule="nonzero" fill-opacity="1" /><path clip-path="url(#clip940)" d="M126.205 217.112 Q122.593 217.112 120.765 220.677 Q118.959 224.219 118.959 231.348 Q118.959 238.455 120.765 242.02 Q122.593 245.561 126.205 245.561 Q129.839 245.561 131.644 242.02 Q133.473 238.455 133.473 231.348 Q133.473 224.219 131.644 220.677 Q129.839 217.112 126.205 217.112 M126.205 213.409 Q132.015 213.409 135.07 218.015 Q138.149 222.598 138.149 231.348 Q138.149 240.075 135.07 244.682 Q132.015 249.265 126.205 249.265 Q120.394 249.265 117.316 244.682 Q114.26 240.075 114.26 231.348 Q114.26 222.598 117.316 218.015 Q120.394 213.409 126.205 213.409 Z" fill="#000000" fill-rule="nonzero" fill-opacity="1" /><path clip-path="url(#clip940)" d="M146.366 242.714 L151.251 242.714 L151.251 248.594 L146.366 248.594 L146.366 242.714 Z" fill="#000000" fill-rule="nonzero" fill-opacity="1" /><path clip-path="url(#clip940)" d="M171.436 217.112 Q167.825 217.112 165.996 220.677 Q164.19 224.219 164.19 231.348 Q164.19 238.455 165.996 242.02 Q167.825 245.561 171.436 245.561 Q175.07 245.561 176.876 242.02 Q178.704 238.455 178.704 231.348 Q178.704 224.219 176.876 220.677 Q175.07 217.112 171.436 217.112 M171.436 213.409 Q177.246 213.409 180.301 218.015 Q183.38 222.598 183.38 231.348 Q183.38 240.075 180.301 244.682 Q177.246 249.265 171.436 249.265 Q165.626 249.265 162.547 244.682 Q159.491 240.075 159.491 231.348 Q159.491 222.598 162.547 218.015 Q165.626 213.409 171.436 213.409 Z" fill="#000000" fill-rule="nonzero" fill-opacity="1" /><path clip-path="url(#clip940)" d="M201.598 217.112 Q197.987 217.112 196.158 220.677 Q194.352 224.219 194.352 231.348 Q194.352 238.455 196.158 242.02 Q197.987 245.561 201.598 245.561 Q205.232 245.561 207.037 242.02 Q208.866 238.455 208.866 231.348 Q208.866 224.219 207.037 220.677 Q205.232 217.112 201.598 217.112 M201.598 213.409 Q207.408 213.409 210.463 218.015 Q213.542 222.598 213.542 231.348 Q213.542 240.075 210.463 244.682 Q207.408 249.265 201.598 249.265 Q195.787 249.265 192.709 244.682 Q189.653 240.075 189.653 231.348 Q189.653 222.598 192.709 218.015 Q195.787 213.409 201.598 213.409 Z" fill="#000000" fill-rule="nonzero" fill-opacity="1" /><path clip-path="url(#clip940)" d="M234.607 218.108 L222.801 236.557 L234.607 236.557 L234.607 218.108 M233.38 214.034 L239.259 214.034 L239.259 236.557 L244.19 236.557 L244.19 240.446 L239.259 240.446 L239.259 248.594 L234.607 248.594 L234.607 240.446 L219.005 240.446 L219.005 235.932 L233.38 214.034 Z" fill="#000000" fill-rule="nonzero" fill-opacity="1" /><path clip-path="url(#clip940)" d="M41.5432 799.903 Q43.4756 799.903 46.8572 800.644 Q50.2388 801.353 51.8491 801.932 Q56.1325 803.543 59.7395 806.763 Q61.7363 808.535 63.1856 810.467 Q64.6026 812.367 65.3112 813.784 Q65.9875 815.201 66.3417 816.876 Q66.7282 818.551 66.7604 819.323 Q66.8248 820.096 66.8248 821.191 L76.6476 823.703 Q79.1919 824.219 79.3529 824.476 Q79.4817 824.541 79.5461 824.702 Q79.6106 824.831 79.6106 824.96 L79.6106 825.088 Q79.6106 825.443 79.4495 825.636 Q79.2885 825.829 79.0953 825.861 L78.9342 825.861 Q78.4834 825.861 72.6863 824.348 Q69.7234 823.575 66.6638 822.898 Q66.3417 828.051 64.0551 831.24 Q61.7685 834.396 57.3241 834.396 Q54.5866 834.396 46.1809 831.207 Q42.1551 829.694 40.4804 829.694 Q39.7397 829.694 39.2888 829.855 Q38.8057 830.016 38.6447 830.338 Q38.4515 830.66 38.4193 830.853 Q38.3871 831.014 38.3871 831.336 Q38.3871 833.236 40.2872 835.008 Q42.1873 836.779 46.5673 838.003 Q47.3725 838.261 47.5657 838.422 Q47.759 838.583 47.759 839.066 Q47.7268 839.871 47.0826 839.871 Q46.825 839.871 45.8266 839.581 Q44.796 839.291 43.2823 838.615 Q41.7365 837.906 40.3516 836.94 Q38.9346 835.974 37.9362 834.46 Q36.9378 832.914 36.9378 831.143 Q36.9378 828.728 38.5159 827.246 Q40.0618 825.732 42.3484 825.732 Q42.7993 825.732 43.3146 825.829 Q43.8298 825.926 44.1197 826.022 Q44.4096 826.087 44.957 826.28 Q45.4723 826.441 45.569 826.473 Q49.8201 828.116 52.5898 828.953 Q55.3273 829.79 56.1325 829.919 Q56.9054 830.016 57.8394 830.016 Q64.345 830.016 65.2145 822.512 L21.64 811.562 Q20.7382 811.369 20.545 811.208 Q20.3196 811.047 20.3196 810.563 Q20.3196 809.791 21.0281 809.791 Q21.2535 809.791 22.0265 809.984 L65.3434 820.869 Q65.3434 819.839 65.3112 819.195 Q65.2789 818.551 64.9891 817.198 Q64.667 815.813 64.0873 814.654 Q63.5076 813.462 62.3482 811.787 Q61.1566 810.113 59.4819 808.47 Q57.3885 806.409 53.8781 804.573 Q50.3676 802.737 47.4691 802.737 Q44.2163 802.737 41.8653 805.089 Q41.5432 805.443 41.35 805.636 Q41.1568 805.797 40.8347 805.958 Q40.5126 806.087 40.094 806.087 Q38.999 806.087 37.9684 805.056 Q36.9378 804.026 36.9378 802.802 Q36.9378 801.707 38.0006 800.805 Q39.0634 799.903 41.5432 799.903 Z" fill="#000000" fill-rule="nonzero" fill-opacity="1" /><path clip-path="url(#clip940)" d="M49.5947 789.166 Q38.4515 789.166 29.466 785.012 Q25.6979 783.24 22.5418 780.76 Q19.3856 778.281 18.0007 776.638 Q16.6159 774.996 16.6159 774.545 Q16.6159 773.901 17.26 773.868 Q17.5821 773.868 18.3872 774.738 Q29.2084 785.366 49.5947 785.334 Q70.0454 785.334 80.4479 774.996 Q81.5751 773.868 81.9294 773.868 Q82.5735 773.868 82.5735 774.545 Q82.5735 774.996 81.2531 776.574 Q79.9326 778.152 76.9053 780.599 Q73.8779 783.047 70.1742 784.818 Q61.1888 789.166 49.5947 789.166 Z" fill="#000000" fill-rule="nonzero" fill-opacity="1" /><path clip-path="url(#clip940)" d="M39.4498 738.42 Q39.9007 738.42 40.9635 738.71 L66.1485 745.022 Q71.7523 746.407 75.6814 750.916 Q79.6106 755.393 79.6106 760.481 Q79.6106 763.541 77.9681 765.505 Q76.3578 767.47 73.8779 767.47 Q71.6879 767.47 70.6251 766.31 Q69.5945 765.151 69.5945 763.766 Q69.5945 763.315 69.7234 762.832 Q69.8522 762.349 70.3997 761.834 Q70.9472 761.319 71.8812 761.319 Q73.3948 761.319 74.5864 762.639 Q75.1339 763.283 75.2628 763.895 Q75.3916 764.475 75.3916 765.473 Q76.2934 765.087 76.9053 764.378 Q77.5172 763.67 77.7426 762.864 Q78.0003 762.059 78.0647 761.544 Q78.1613 760.997 78.1613 760.481 Q78.1613 756.359 74.0067 753.203 Q72.7507 752.269 71.4947 751.592 Q70.2709 750.884 68.7572 750.369 Q67.2757 749.853 66.4706 749.628 Q65.6654 749.37 63.8297 748.919 Q66.8248 751.914 66.8248 755.586 Q66.8248 757.132 66.4062 758.517 Q65.9875 759.869 65.1179 761.061 Q64.2162 762.253 62.6381 762.961 Q61.06 763.637 58.9666 763.637 Q56.7444 763.637 53.717 762.768 Q50.6897 761.898 45.1181 759.805 Q41.9941 758.678 40.4804 758.678 Q39.7397 758.678 39.2888 758.839 Q38.8057 759 38.6447 759.322 Q38.4515 759.644 38.4193 759.837 Q38.3871 759.998 38.3871 760.32 Q38.3871 762.22 40.3194 763.992 Q42.2518 765.763 46.5673 766.987 Q47.3725 767.244 47.5657 767.405 Q47.759 767.566 47.759 768.05 Q47.7268 768.855 47.0826 768.855 Q46.825 768.855 45.8266 768.565 Q44.796 768.275 43.2823 767.599 Q41.7365 766.89 40.3516 765.924 Q38.9346 764.958 37.9362 763.444 Q36.9378 761.898 36.9378 760.127 Q36.9378 757.712 38.5159 756.23 Q40.0618 754.716 42.3484 754.716 Q43.2823 754.716 44.1197 754.974 Q44.9248 755.199 47.0826 756.037 Q55.7782 759.418 60.0294 759.418 Q61.06 759.418 61.9295 759.257 Q62.7669 759.064 63.6042 758.645 Q64.4094 758.227 64.8925 757.389 Q65.3434 756.52 65.3434 755.328 Q65.3434 753.815 64.6348 752.398 Q63.8941 750.948 62.8957 750.047 Q61.8973 749.113 61.06 748.565 Q60.1904 747.985 59.7395 747.857 L47.8878 744.894 L42.606 743.573 Q39.7397 742.961 39.0312 742.671 Q38.3548 742.285 38.0006 741.609 Q37.6463 740.932 37.6463 740.353 Q37.6463 739.547 38.1294 739 Q38.6125 738.42 39.4498 738.42 Z" fill="#000000" fill-rule="nonzero" fill-opacity="1" /><path clip-path="url(#clip940)" d="M81.9294 732.109 Q81.6073 732.109 80.8022 731.271 Q69.981 720.643 49.5947 720.643 Q29.144 720.643 18.8059 730.853 Q17.6143 732.109 17.26 732.109 Q16.6159 732.109 16.6159 731.464 Q16.6159 731.014 17.9363 729.435 Q19.2568 727.825 22.2841 725.41 Q25.3115 722.962 29.0151 721.159 Q38.0006 716.811 49.5947 716.811 Q60.7379 716.811 69.7234 720.965 Q73.4914 722.737 76.6476 725.216 Q79.8038 727.696 81.1886 729.339 Q82.5735 730.981 82.5735 731.464 Q82.5735 732.109 81.9294 732.109 Z" fill="#000000" fill-rule="nonzero" fill-opacity="1" /><path clip-path="url(#clip940)" d="M938.139 12.096 L972.896 12.096 L972.896 18.9825 L946.322 18.9825 L946.322 36.8065 L970.303 36.8065 L970.303 43.6931 L946.322 43.6931 L946.322 72.576 L938.139 72.576 L938.139 12.096 Z" fill="#000000" fill-rule="nonzero" fill-opacity="1" /><path clip-path="url(#clip940)" d="M980.228 54.671 L980.228 27.2059 L987.681 27.2059 L987.681 54.3874 Q987.681 60.8284 990.193 64.0691 Q992.704 67.2693 997.728 67.2693 Q1003.76 67.2693 1007.25 63.421 Q1010.77 59.5726 1010.77 52.9291 L1010.77 27.2059 L1018.23 27.2059 L1018.23 72.576 L1010.77 72.576 L1010.77 65.6084 Q1008.06 69.7404 1004.45 71.7658 Q1000.89 73.7508 996.148 73.7508 Q988.329 73.7508 984.279 68.8897 Q980.228 64.0286 980.228 54.671 M998.983 26.1121 L998.983 26.1121 Z" fill="#000000" fill-rule="nonzero" fill-opacity="1" /><path clip-path="url(#clip940)" d="M1071.29 45.1919 L1071.29 72.576 L1063.84 72.576 L1063.84 45.4349 Q1063.84 38.994 1061.33 35.7938 Q1058.82 32.5936 1053.79 32.5936 Q1047.76 32.5936 1044.27 36.4419 Q1040.79 40.2903 1040.79 46.9338 L1040.79 72.576 L1033.29 72.576 L1033.29 27.2059 L1040.79 27.2059 L1040.79 34.2544 Q1043.46 30.163 1047.07 28.1376 Q1050.71 26.1121 1055.45 26.1121 Q1063.27 26.1121 1067.28 30.9732 Q1071.29 35.7938 1071.29 45.1919 Z" fill="#000000" fill-rule="nonzero" fill-opacity="1" /><path clip-path="url(#clip940)" d="M1116.01 49.3643 Q1116.01 41.2625 1112.65 36.8065 Q1109.33 32.3505 1103.29 32.3505 Q1097.3 32.3505 1093.94 36.8065 Q1090.61 41.2625 1090.61 49.3643 Q1090.61 57.4256 1093.94 61.8816 Q1097.3 66.3376 1103.29 66.3376 Q1109.33 66.3376 1112.65 61.8816 Q1116.01 57.4256 1116.01 49.3643 M1123.47 66.9452 Q1123.47 78.5308 1118.32 84.1616 Q1113.18 89.8329 1102.56 89.8329 Q1098.64 89.8329 1095.15 89.2252 Q1091.67 88.6581 1088.39 87.4428 L1088.39 80.1917 Q1091.67 81.9741 1094.87 82.8248 Q1098.07 83.6755 1101.39 83.6755 Q1108.72 83.6755 1112.37 79.8271 Q1116.01 76.0193 1116.01 68.282 L1116.01 64.5957 Q1113.7 68.6061 1110.1 70.5911 Q1106.49 72.576 1101.47 72.576 Q1093.13 72.576 1088.02 66.2161 Q1082.92 59.8562 1082.92 49.3643 Q1082.92 38.832 1088.02 32.472 Q1093.13 26.1121 1101.47 26.1121 Q1106.49 26.1121 1110.1 28.0971 Q1113.7 30.082 1116.01 34.0924 L1116.01 27.2059 L1123.47 27.2059 L1123.47 66.9452 Z" fill="#000000" fill-rule="nonzero" fill-opacity="1" /><path clip-path="url(#clip940)" d="M1167.74 28.5427 L1167.74 35.5912 Q1164.58 33.9709 1161.18 33.1607 Q1157.78 32.3505 1154.13 32.3505 Q1148.58 32.3505 1145.79 34.0519 Q1143.03 35.7533 1143.03 39.156 Q1143.03 41.7486 1145.02 43.2475 Q1147 44.7058 1153 46.0426 L1155.55 46.6097 Q1163.49 48.3111 1166.81 51.4303 Q1170.17 54.509 1170.17 60.0587 Q1170.17 66.3781 1165.15 70.0644 Q1160.17 73.7508 1151.42 73.7508 Q1147.77 73.7508 1143.8 73.0216 Q1139.87 72.3329 1135.5 70.9151 L1135.5 63.2184 Q1139.63 65.3654 1143.64 66.4591 Q1147.65 67.5124 1151.58 67.5124 Q1156.85 67.5124 1159.68 65.73 Q1162.52 63.9071 1162.52 60.6258 Q1162.52 57.5877 1160.45 55.9673 Q1158.43 54.3469 1151.5 52.8481 L1148.91 52.2405 Q1141.98 50.7821 1138.9 47.7845 Q1135.82 44.7463 1135.82 39.4801 Q1135.82 33.0797 1140.36 29.5959 Q1144.9 26.1121 1153.24 26.1121 Q1157.37 26.1121 1161.02 26.7198 Q1164.67 27.3274 1167.74 28.5427 Z" fill="#000000" fill-rule="nonzero" fill-opacity="1" /><path clip-path="url(#clip940)" d="M1182.04 27.2059 L1189.5 27.2059 L1189.5 72.576 L1182.04 72.576 L1182.04 27.2059 M1182.04 9.54393 L1189.5 9.54393 L1189.5 18.9825 L1182.04 18.9825 L1182.04 9.54393 Z" fill="#000000" fill-rule="nonzero" fill-opacity="1" /><path clip-path="url(#clip940)" d="M1273.03 63.9476 L1273.03 47.7034 L1259.66 47.7034 L1259.66 40.9789 L1281.13 40.9789 L1281.13 66.9452 Q1276.39 70.3075 1270.68 72.0494 Q1264.97 73.7508 1258.48 73.7508 Q1244.31 73.7508 1236.29 65.4869 Q1228.31 57.1826 1228.31 42.3968 Q1228.31 27.5705 1236.29 19.3066 Q1244.31 11.0023 1258.48 11.0023 Q1264.4 11.0023 1269.71 12.4606 Q1275.05 13.9189 1279.55 16.7545 L1279.55 25.464 Q1275.01 21.6156 1269.91 19.6712 Q1264.8 17.7268 1259.17 17.7268 Q1248.07 17.7268 1242.48 23.9246 Q1236.93 30.1225 1236.93 42.3968 Q1236.93 54.6305 1242.48 60.8284 Q1248.07 67.0263 1259.17 67.0263 Q1263.51 67.0263 1266.91 66.2971 Q1270.31 65.5274 1273.03 63.9476 Z" fill="#000000" fill-rule="nonzero" fill-opacity="1" /><path clip-path="url(#clip940)" d="M1334.56 48.0275 L1334.56 51.6733 L1300.29 51.6733 Q1300.78 59.3701 1304.91 63.421 Q1309.08 67.4314 1316.49 67.4314 Q1320.79 67.4314 1324.8 66.3781 Q1328.85 65.3249 1332.82 63.2184 L1332.82 70.267 Q1328.81 71.9684 1324.6 72.8596 Q1320.38 73.7508 1316.05 73.7508 Q1305.19 73.7508 1298.83 67.4314 Q1292.51 61.1119 1292.51 50.3365 Q1292.51 39.1965 1298.51 32.6746 Q1304.54 26.1121 1314.75 26.1121 Q1323.91 26.1121 1329.21 32.0264 Q1334.56 37.9003 1334.56 48.0275 M1327.11 45.84 Q1327.03 39.7232 1323.66 36.0774 Q1320.34 32.4315 1314.83 32.4315 Q1308.59 32.4315 1304.83 35.9558 Q1301.1 39.4801 1300.53 45.8805 L1327.11 45.84 Z" fill="#000000" fill-rule="nonzero" fill-opacity="1" /><path clip-path="url(#clip940)" d="M1346.79 9.54393 L1354.25 9.54393 L1354.25 72.576 L1346.79 72.576 L1346.79 9.54393 Z" fill="#000000" fill-rule="nonzero" fill-opacity="1" /><path clip-path="url(#clip940)" d="M1387.42 32.4315 Q1381.43 32.4315 1377.95 37.1306 Q1374.46 41.7891 1374.46 49.9314 Q1374.46 58.0738 1377.9 62.7728 Q1381.39 67.4314 1387.42 67.4314 Q1393.38 67.4314 1396.86 62.7323 Q1400.35 58.0333 1400.35 49.9314 Q1400.35 41.8701 1396.86 37.1711 Q1393.38 32.4315 1387.42 32.4315 M1387.42 26.1121 Q1397.15 26.1121 1402.7 32.4315 Q1408.25 38.7509 1408.25 49.9314 Q1408.25 61.0714 1402.7 67.4314 Q1397.15 73.7508 1387.42 73.7508 Q1377.66 73.7508 1372.11 67.4314 Q1366.6 61.0714 1366.6 49.9314 Q1366.6 38.7509 1372.11 32.4315 Q1377.66 26.1121 1387.42 26.1121 Z" fill="#000000" fill-rule="nonzero" fill-opacity="1" /><path clip-path="url(#clip940)" d="M1455.93 35.9153 Q1458.72 30.8922 1462.61 28.5022 Q1466.5 26.1121 1471.76 26.1121 Q1478.85 26.1121 1482.7 31.0947 Q1486.55 36.0368 1486.55 45.1919 L1486.55 72.576 L1479.06 72.576 L1479.06 45.4349 Q1479.06 38.913 1476.75 35.7533 Q1474.44 32.5936 1469.7 32.5936 Q1463.91 32.5936 1460.54 36.4419 Q1457.18 40.2903 1457.18 46.9338 L1457.18 72.576 L1449.69 72.576 L1449.69 45.4349 Q1449.69 38.8725 1447.38 35.7533 Q1445.07 32.5936 1440.25 32.5936 Q1434.54 32.5936 1431.17 36.4824 Q1427.81 40.3308 1427.81 46.9338 L1427.81 72.576 L1420.32 72.576 L1420.32 27.2059 L1427.81 27.2059 L1427.81 34.2544 Q1430.36 30.082 1433.93 28.0971 Q1437.49 26.1121 1442.4 26.1121 Q1447.34 26.1121 1450.78 28.6237 Q1454.26 31.1352 1455.93 35.9153 Z" fill="#000000" fill-rule="nonzero" fill-opacity="1" /><path clip-path="url(#clip940)" d="M1533.99 49.9314 Q1533.99 41.7081 1530.58 37.0496 Q1527.22 32.3505 1521.31 32.3505 Q1515.39 32.3505 1511.99 37.0496 Q1508.63 41.7081 1508.63 49.9314 Q1508.63 58.1548 1511.99 62.8538 Q1515.39 67.5124 1521.31 67.5124 Q1527.22 67.5124 1530.58 62.8538 Q1533.99 58.1548 1533.99 49.9314 M1508.63 34.0924 Q1510.98 30.0415 1514.54 28.0971 Q1518.15 26.1121 1523.13 26.1121 Q1531.39 26.1121 1536.54 32.6746 Q1541.72 39.2371 1541.72 49.9314 Q1541.72 60.6258 1536.54 67.1883 Q1531.39 73.7508 1523.13 73.7508 Q1518.15 73.7508 1514.54 71.8063 Q1510.98 69.8214 1508.63 65.7705 L1508.63 72.576 L1501.13 72.576 L1501.13 9.54393 L1508.63 9.54393 L1508.63 34.0924 Z" fill="#000000" fill-rule="nonzero" fill-opacity="1" /><path clip-path="url(#clip940)" d="M1574.7 49.7694 Q1565.66 49.7694 1562.18 51.8354 Q1558.7 53.9013 1558.7 58.8839 Q1558.7 62.8538 1561.29 65.2034 Q1563.92 67.5124 1568.42 67.5124 Q1574.62 67.5124 1578.34 63.1374 Q1582.11 58.7219 1582.11 51.4303 L1582.11 49.7694 L1574.7 49.7694 M1589.56 46.6907 L1589.56 72.576 L1582.11 72.576 L1582.11 65.6895 Q1579.56 69.8214 1575.75 71.8063 Q1571.94 73.7508 1566.43 73.7508 Q1559.47 73.7508 1555.33 69.8619 Q1551.24 65.9325 1551.24 59.3701 Q1551.24 51.7138 1556.35 47.825 Q1561.49 43.9361 1571.66 43.9361 L1582.11 43.9361 L1582.11 43.2069 Q1582.11 38.0623 1578.71 35.2672 Q1575.35 32.4315 1569.23 32.4315 Q1565.34 32.4315 1561.65 33.3632 Q1557.97 34.295 1554.56 36.1584 L1554.56 29.2718 Q1558.66 27.692 1562.5 26.9223 Q1566.35 26.1121 1570 26.1121 Q1579.84 26.1121 1584.7 31.2163 Q1589.56 36.3204 1589.56 46.6907 Z" fill="#000000" fill-rule="nonzero" fill-opacity="1" /><path clip-path="url(#clip940)" d="M1642.63 45.1919 L1642.63 72.576 L1635.18 72.576 L1635.18 45.4349 Q1635.18 38.994 1632.67 35.7938 Q1630.15 32.5936 1625.13 32.5936 Q1619.1 32.5936 1615.61 36.4419 Q1612.13 40.2903 1612.13 46.9338 L1612.13 72.576 L1604.63 72.576 L1604.63 27.2059 L1612.13 27.2059 L1612.13 34.2544 Q1614.8 30.163 1618.41 28.1376 Q1622.05 26.1121 1626.79 26.1121 Q1634.61 26.1121 1638.62 30.9732 Q1642.63 35.7938 1642.63 45.1919 Z" fill="#000000" fill-rule="nonzero" fill-opacity="1" /><path clip-path="url(#clip940)" d="M1687.35 49.3643 Q1687.35 41.2625 1683.99 36.8065 Q1680.67 32.3505 1674.63 32.3505 Q1668.64 32.3505 1665.28 36.8065 Q1661.95 41.2625 1661.95 49.3643 Q1661.95 57.4256 1665.28 61.8816 Q1668.64 66.3376 1674.63 66.3376 Q1680.67 66.3376 1683.99 61.8816 Q1687.35 57.4256 1687.35 49.3643 M1694.81 66.9452 Q1694.81 78.5308 1689.66 84.1616 Q1684.52 89.8329 1673.9 89.8329 Q1669.98 89.8329 1666.49 89.2252 Q1663.01 88.6581 1659.73 87.4428 L1659.73 80.1917 Q1663.01 81.9741 1666.21 82.8248 Q1669.41 83.6755 1672.73 83.6755 Q1680.06 83.6755 1683.71 79.8271 Q1687.35 76.0193 1687.35 68.282 L1687.35 64.5957 Q1685.04 68.6061 1681.44 70.5911 Q1677.83 72.576 1672.81 72.576 Q1664.47 72.576 1659.36 66.2161 Q1654.26 59.8562 1654.26 49.3643 Q1654.26 38.832 1659.36 32.472 Q1664.47 26.1121 1672.81 26.1121 Q1677.83 26.1121 1681.44 28.0971 Q1685.04 30.082 1687.35 34.0924 L1687.35 27.2059 L1694.81 27.2059 L1694.81 66.9452 Z" fill="#000000" fill-rule="nonzero" fill-opacity="1" /><polyline clip-path="url(#clip942)" style="stroke:#009af9; stroke-linecap:round; stroke-linejoin:round; stroke-width:4; stroke-opacity:1; fill:none" points="338.848,1386.35 342.774,1386.19 346.7,1385.94 350.626,1385.59 354.552,1385.13 358.479,1384.57 362.405,1383.9 366.331,1383.12 370.257,1382.23 374.183,1381.22 378.11,1380.09 382.036,1378.83 385.962,1377.45 389.888,1375.93 393.814,1374.26 397.741,1372.46 401.667,1370.49 405.593,1368.37 409.519,1366.07 413.445,1363.59 417.372,1360.93 421.298,1358.07 425.224,1354.99 429.15,1351.69 433.076,1348.16 437.003,1344.38 440.929,1340.33 444.855,1336.01 448.781,1331.38 452.708,1326.45 456.634,1321.18 460.56,1315.55 464.486,1309.55 468.412,1303.15 472.339,1296.32 476.265,1289.05 480.191,1281.29 484.117,1273.03 488.043,1264.22 491.97,1254.84 495.896,1244.84 499.822,1234.2 503.748,1223.22 507.674,1211.92 511.601,1200.31 515.527,1188.39 519.453,1176.18 523.379,1163.68 527.305,1150.89 531.232,1137.84 535.158,1124.53 539.084,1110.97 543.01,1097.16 546.936,1083.12 550.863,1068.86 554.789,1054.39 558.715,1039.72 562.641,1024.86 566.568,1009.82 570.494,994.611 574.42,979.242 578.346,963.726 582.272,948.073 586.199,932.296 590.125,916.405 594.051,900.411 597.977,884.327 601.903,868.163 605.83,851.932 609.756,835.644 613.682,819.312 617.608,802.946 621.534,786.56 625.461,770.164 629.387,753.77 633.313,737.39 637.239,721.036 641.165,704.719 645.092,688.452 649.018,672.245 652.944,656.11 656.87,640.059 660.796,624.103 664.723,608.255 668.649,592.524 672.575,576.922 676.501,561.461 680.428,546.152 684.354,531.005 688.28,516.031 692.206,501.241 696.132,486.646 700.059,472.256 703.985,458.081 707.911,444.132 711.837,430.418 715.763,416.949 719.69,403.735 723.616,390.786 727.542,378.11 731.468,365.717 735.394,353.615 739.321,341.814 743.247,330.321 747.173,319.145 751.099,308.293 755.025,297.775 758.952,287.596 762.878,277.765 766.804,268.289 770.73,259.173 774.656,250.425 778.583,242.052 782.509,234.058 786.435,226.45 790.361,219.233 794.287,212.412 798.214,205.993 802.14,199.979 806.066,194.375 809.992,189.186 813.919,184.414 817.845,180.063 821.771,176.137 825.697,172.638 829.623,169.568 833.55,166.931 837.476,164.727 841.402,162.958 845.328,161.626 849.254,160.731 853.181,160.274 857.107,160.256 861.033,160.677 864.959,161.535 868.885,162.831 872.812,164.564 876.738,166.732 880.664,169.334 884.59,172.368 888.516,175.832 892.443,179.723 896.369,184.039 900.295,188.776 904.221,193.931 908.147,199.501 912.074,205.481 916,211.867 919.926,218.655 923.852,225.839 927.779,233.415 931.705,241.377 935.631,249.72 939.557,258.437 943.483,267.522 947.41,276.97 951.336,286.772 955.262,296.922 959.188,307.413 963.114,318.237 967.041,329.386 970.967,340.853 974.893,352.63 978.819,364.707 982.745,377.076 986.672,389.729 990.598,402.656 994.524,415.849 998.45,429.297 1002.38,442.991 1006.3,456.921 1010.23,471.078 1014.16,485.45 1018.08,500.029 1022.01,514.803 1025.93,529.762 1029.86,544.895 1033.79,560.192 1037.71,575.641 1041.64,591.231 1045.56,606.952 1049.49,622.791 1053.42,638.738 1057.34,654.782 1061.27,670.91 1065.2,687.111 1069.12,703.375 1073.05,719.688 1076.97,736.039 1080.9,752.417 1084.83,768.81 1088.75,785.207 1092.68,801.594 1096.61,817.962 1100.53,834.297 1104.46,850.589 1108.38,866.826 1112.31,882.996 1116.24,899.087 1120.16,915.089 1124.09,930.989 1128.02,946.776 1131.94,962.439 1135.87,977.967 1139.79,993.348 1143.72,1008.57 1147.65,1023.63 1151.57,1038.5 1155.5,1053.19 1159.42,1067.68 1163.35,1081.95 1167.28,1096.01 1171.2,1109.83 1175.13,1123.42 1179.06,1136.75 1182.98,1149.83 1186.91,1162.63 1190.83,1175.16 1194.76,1187.39 1198.69,1199.34 1202.61,1210.97 1206.54,1222.3 1210.47,1233.3 1214.39,1243.98 1218.32,1254.31 1222.24,1264.31 1226.17,1273.95 1230.1,1283.24 1234.02,1292.16 1237.95,1300.7 1241.88,1308.87 1245.8,1316.66 1249.73,1324.06 1253.65,1331.07 1257.58,1337.68 1261.51,1343.88 1265.43,1349.67 1269.36,1355.06 1273.28,1360.02 1277.21,1364.57 1281.14,1368.69 1285.06,1372.39 1288.99,1375.66 1292.92,1378.5 1296.84,1380.91 1300.77,1382.88 1304.69,1384.41 1308.62,1385.51 1312.55,1386.17 1316.47,1386.4 1320.4,1386.18 1324.33,1385.52 1328.25,1384.43 1332.18,1382.9 1336.1,1380.94 1340.03,1378.54 1343.96,1375.7 1347.88,1372.44 1351.81,1368.75 1355.74,1364.63 1359.66,1360.09 1363.59,1355.13 1367.51,1349.75 1371.44,1343.96 1375.37,1337.76 1379.29,1331.16 1383.22,1324.16 1387.14,1316.77 1391.07,1308.98 1395,1300.82 1398.92,1292.27 1402.85,1283.36 1406.78,1274.08 1410.7,1264.44 1414.63,1254.45 1418.55,1244.12 1422.48,1233.45 1426.41,1222.45 1430.33,1211.13 1434.26,1199.5 1438.19,1187.56 1442.11,1175.32 1446.04,1162.8 1449.96,1150 1453.89,1136.93 1457.82,1123.6 1461.74,1110.02 1465.67,1096.2 1469.6,1082.14 1473.52,1067.87 1477.45,1053.39 1481.37,1038.7 1485.3,1023.83 1489.23,1008.78 1493.15,993.553 1497.08,978.174 1501,962.648 1504.93,946.987 1508.86,931.201 1512.78,915.303 1516.71,899.303 1520.64,883.212 1524.56,867.044 1528.49,850.808 1532.41,834.516 1536.34,818.181 1540.27,801.814 1544.19,785.427 1548.12,769.03 1552.05,752.637 1555.97,736.259 1559.9,719.907 1563.82,703.593 1567.75,687.329 1571.68,671.127 1575.6,654.998 1579.53,638.953 1583.46,623.004 1587.38,607.163 1591.31,591.441 1595.23,575.849 1599.16,560.398 1603.09,545.099 1607.01,529.964 1610.94,515.003 1614.86,500.226 1618.79,485.645 1622.72,471.269 1626.64,457.109 1630.57,443.176 1634.5,429.479 1638.42,416.027 1642.35,402.832 1646.27,389.901 1650.2,377.244 1654.13,364.871 1658.05,352.79 1661.98,341.009 1665.91,329.538 1669.83,318.384 1673.76,307.556 1677.68,297.06 1681.61,286.906 1685.54,277.099 1689.46,267.647 1693.39,258.557 1697.31,249.834 1701.24,241.487 1705.17,233.52 1709.09,225.938 1713.02,218.749 1716.95,211.955 1720.87,205.564 1724.8,199.578 1728.72,194.003 1732.65,188.842 1736.58,184.1 1740.5,179.778 1744.43,175.881 1748.36,172.412 1752.28,169.372 1756.21,166.764 1760.13,164.59 1764.06,162.852 1767.99,161.55 1771.91,160.685 1775.84,160.259 1779.77,160.271 1783.69,160.722 1787.62,161.611 1791.54,162.937 1795.47,164.7 1799.4,166.898 1803.32,169.53 1807.25,172.594 1811.17,176.087 1815.1,180.008 1819.03,184.353 1822.95,189.119 1826.88,194.303 1830.81,199.901 1834.73,205.909 1838.66,212.323 1842.58,219.139 1846.51,226.35 1850.44,233.953 1854.36,241.942 1858.29,250.311 1862.22,259.053 1866.14,268.164 1870.07,277.636 1873.99,287.462 1877.92,297.636 1881.85,308.15 1885.77,318.997 1889.7,330.169 1893.63,341.657 1897.55,353.455 1901.48,365.552 1905.4,377.942 1909.33,390.614 1913.26,403.56 1917.18,416.77 1921.11,430.235 1925.03,443.946 1928.96,457.892 1932.89,472.064 1936.81,486.451 1940.74,501.044 1944.67,515.831 1948.59,530.803 1952.52,545.947 1956.44,561.255 1960.37,576.714 1964.3,592.314 1968.22,608.043 1972.15,623.89 1976.08,639.844 1980,655.894 1983.93,672.028 1987.85,688.234 1991.78,704.501 1995.71,720.817 1999.63,737.17 2003.56,753.55 2007.49,769.944 2011.41,786.34 2015.34,802.726 2019.26,819.092 2023.19,835.425 2027.12,851.714 2031.04,867.946 2034.97,884.111 2038.89,900.196 2042.82,916.191 2046.75,932.083 2050.67,947.862 2054.6,963.516 2058.53,979.035 2062.45,994.405 2066.38,1009.62 2070.3,1024.66 2074.23,1039.53 2078.16,1054.2 2082.08,1068.67 2086.01,1082.93 2089.94,1096.97 2093.86,1110.78 2097.79,1124.35 2101.71,1137.66 2105.64,1150.72 2109.57,1163.51 2113.49,1176.01 2117.42,1188.23 2121.35,1200.15 2125.27,1211.77 2129.2,1223.07 2133.12,1234.05 2137.05,1244.7 2140.98,1254.7 2144.9,1264.09 2148.83,1272.9 2152.75,1281.17 2156.68,1288.93 2160.61,1296.21 2164.53,1303.04 2168.46,1309.44 2172.39,1315.44 2176.31,1321.07 2180.24,1326.34 2184.16,1331.28 2188.09,1335.91 2192.02,1340.24 2195.94,1344.29 2199.87,1348.07 2203.8,1351.61 2207.72,1354.91 2211.65,1357.98 2215.57,1360.85 2219.5,1363.52 2223.43,1366 2227.35,1368.3 2231.28,1370.42 2235.21,1372.39 2239.13,1374.2 2243.06,1375.87 2246.98,1377.39 2250.91,1378.78 2254.84,1380.04 2258.76,1381.17 2262.69,1382.18 2266.61,1383.08 2270.54,1383.86 2274.47,1384.54 2278.39,1385.11 2282.32,1385.57 2286.25,1385.93 2290.17,1386.18 2294.1,1386.34 "/>
<path clip-path="url(#clip940)" d="M349.276 270.476 L608.962 270.476 L608.962 166.796 L349.276 166.796  Z" fill="#ffffff" fill-rule="evenodd" fill-opacity="1"/>
<polyline clip-path="url(#clip940)" style="stroke:#000000; stroke-linecap:round; stroke-linejoin:round; stroke-width:4; stroke-opacity:1; fill:none" points="349.276,270.476 608.962,270.476 608.962,166.796 349.276,166.796 349.276,270.476 "/>
<polyline clip-path="url(#clip940)" style="stroke:#009af9; stroke-linecap:round; stroke-linejoin:round; stroke-width:4; stroke-opacity:1; fill:none" points="372.304,218.636 510.475,218.636 "/>
<path clip-path="url(#clip940)" d="M547.346 238.323 Q545.541 242.953 543.828 244.365 Q542.115 245.777 539.244 245.777 L535.842 245.777 L535.842 242.212 L538.342 242.212 Q540.101 242.212 541.073 241.379 Q542.045 240.545 543.226 237.443 L543.99 235.499 L533.504 209.99 L538.017 209.99 L546.119 230.268 L554.221 209.99 L558.735 209.99 L547.346 238.323 Z" fill="#000000" fill-rule="nonzero" fill-opacity="1" /><path clip-path="url(#clip940)" d="M566.027 231.981 L573.665 231.981 L573.665 205.615 L565.355 207.282 L565.355 203.022 L573.619 201.356 L578.295 201.356 L578.295 231.981 L585.934 231.981 L585.934 235.916 L566.027 235.916 L566.027 231.981 Z" fill="#000000" fill-rule="nonzero" fill-opacity="1" /></svg>
