<?xml version="1.0" encoding="utf-8"?>
<svg xmlns="http://www.w3.org/2000/svg" xmlns:xlink="http://www.w3.org/1999/xlink" width="600" height="400" viewBox="0 0 2400 1600">
<defs>
  <clipPath id="clip110">
    <rect x="0" y="0" width="2400" height="1600"/>
  </clipPath>
</defs>
<path clip-path="url(#clip110)" d="M0 1600 L2400 1600 L2400 8.88178e-14 L0 8.88178e-14  Z" fill="#ffffff" fill-rule="evenodd" fill-opacity="1"/>
<defs>
  <clipPath id="clip111">
    <rect x="219" y="123" width="1774" height="1301"/>
  </clipPath>
</defs>
<path clip-path="url(#clip110)" d="M249.542 1423.18 L2352.76 1423.18 L2352.76 123.472 L249.542 123.472  Z" fill="#ffffff" fill-rule="evenodd" fill-opacity="1"/>
<defs>
  <clipPath id="clip112">
    <rect x="249" y="123" width="2104" height="1301"/>
  </clipPath>
</defs>
<polyline clip-path="url(#clip112)" style="stroke:#000000; stroke-linecap:round; stroke-linejoin:round; stroke-width:2; stroke-opacity:0.1; fill:none" points="507.483,1423.18 507.483,123.472 "/>
<polyline clip-path="url(#clip112)" style="stroke:#000000; stroke-linecap:round; stroke-linejoin:round; stroke-width:2; stroke-opacity:0.1; fill:none" points="904.316,1423.18 904.316,123.472 "/>
<polyline clip-path="url(#clip112)" style="stroke:#000000; stroke-linecap:round; stroke-linejoin:round; stroke-width:2; stroke-opacity:0.1; fill:none" points="1301.15,1423.18 1301.15,123.472 "/>
<polyline clip-path="url(#clip112)" style="stroke:#000000; stroke-linecap:round; stroke-linejoin:round; stroke-width:2; stroke-opacity:0.1; fill:none" points="1697.98,1423.18 1697.98,123.472 "/>
<polyline clip-path="url(#clip112)" style="stroke:#000000; stroke-linecap:round; stroke-linejoin:round; stroke-width:2; stroke-opacity:0.1; fill:none" points="2094.81,1423.18 2094.81,123.472 "/>
<polyline clip-path="url(#clip112)" style="stroke:#000000; stroke-linecap:round; stroke-linejoin:round; stroke-width:2; stroke-opacity:0.1; fill:none" points="249.542,1386.4 2352.76,1386.4 "/>
<polyline clip-path="url(#clip112)" style="stroke:#000000; stroke-linecap:round; stroke-linejoin:round; stroke-width:2; stroke-opacity:0.1; fill:none" points="249.542,1079.08 2352.76,1079.08 "/>
<polyline clip-path="url(#clip112)" style="stroke:#000000; stroke-linecap:round; stroke-linejoin:round; stroke-width:2; stroke-opacity:0.1; fill:none" points="249.542,771.76 2352.76,771.76 "/>
<polyline clip-path="url(#clip112)" style="stroke:#000000; stroke-linecap:round; stroke-linejoin:round; stroke-width:2; stroke-opacity:0.1; fill:none" points="249.542,464.442 2352.76,464.442 "/>
<polyline clip-path="url(#clip112)" style="stroke:#000000; stroke-linecap:round; stroke-linejoin:round; stroke-width:2; stroke-opacity:0.1; fill:none" points="249.542,157.125 2352.76,157.125 "/>
<polyline clip-path="url(#clip110)" style="stroke:#000000; stroke-linecap:round; stroke-linejoin:round; stroke-width:4; stroke-opacity:1; fill:none" points="249.542,1423.18 2352.76,1423.18 "/>
<polyline clip-path="url(#clip110)" style="stroke:#000000; stroke-linecap:round; stroke-linejoin:round; stroke-width:4; stroke-opacity:1; fill:none" points="507.483,1423.18 507.483,1404.28 "/>
<polyline clip-path="url(#clip110)" style="stroke:#000000; stroke-linecap:round; stroke-linejoin:round; stroke-width:4; stroke-opacity:1; fill:none" points="904.316,1423.18 904.316,1404.28 "/>
<polyline clip-path="url(#clip110)" style="stroke:#000000; stroke-linecap:round; stroke-linejoin:round; stroke-width:4; stroke-opacity:1; fill:none" points="1301.15,1423.18 1301.15,1404.28 "/>
<polyline clip-path="url(#clip110)" style="stroke:#000000; stroke-linecap:round; stroke-linejoin:round; stroke-width:4; stroke-opacity:1; fill:none" points="1697.98,1423.18 1697.98,1404.28 "/>
<polyline clip-path="url(#clip110)" style="stroke:#000000; stroke-linecap:round; stroke-linejoin:round; stroke-width:4; stroke-opacity:1; fill:none" points="2094.81,1423.18 2094.81,1404.28 "/>
<path clip-path="url(#clip110)" d="M476.384 1468.75 L506.06 1468.75 L506.06 1472.69 L476.384 1472.69 L476.384 1468.75 Z" fill="#000000" fill-rule="nonzero" fill-opacity="1" /><path clip-path="url(#clip110)" d="M528.999 1455.09 L517.194 1473.54 L528.999 1473.54 L528.999 1455.09 M527.773 1451.02 L533.652 1451.02 L533.652 1473.54 L538.583 1473.54 L538.583 1477.43 L533.652 1477.43 L533.652 1485.58 L528.999 1485.58 L528.999 1477.43 L513.398 1477.43 L513.398 1472.92 L527.773 1451.02 Z" fill="#000000" fill-rule="nonzero" fill-opacity="1" /><path clip-path="url(#clip110)" d="M874.258 1468.75 L903.934 1468.75 L903.934 1472.69 L874.258 1472.69 L874.258 1468.75 Z" fill="#000000" fill-rule="nonzero" fill-opacity="1" /><path clip-path="url(#clip110)" d="M918.055 1481.64 L934.374 1481.64 L934.374 1485.58 L912.43 1485.58 L912.43 1481.64 Q915.092 1478.89 919.675 1474.26 Q924.281 1469.61 925.462 1468.27 Q927.707 1465.74 928.587 1464.01 Q929.49 1462.25 929.49 1460.56 Q929.49 1457.8 927.545 1456.07 Q925.624 1454.33 922.522 1454.33 Q920.323 1454.33 917.869 1455.09 Q915.439 1455.86 912.661 1457.41 L912.661 1452.69 Q915.485 1451.55 917.939 1450.97 Q920.392 1450.39 922.429 1450.39 Q927.8 1450.39 930.994 1453.08 Q934.189 1455.77 934.189 1460.26 Q934.189 1462.39 933.379 1464.31 Q932.591 1466.2 930.485 1468.8 Q929.906 1469.47 926.804 1472.69 Q923.703 1475.88 918.055 1481.64 Z" fill="#000000" fill-rule="nonzero" fill-opacity="1" /><path clip-path="url(#clip110)" d="M1301.15 1454.1 Q1297.54 1454.1 1295.71 1457.66 Q1293.9 1461.2 1293.9 1468.33 Q1293.9 1475.44 1295.71 1479.01 Q1297.54 1482.55 1301.15 1482.55 Q1304.78 1482.55 1306.59 1479.01 Q1308.42 1475.44 1308.42 1468.33 Q1308.42 1461.2 1306.59 1457.66 Q1304.78 1454.1 1301.15 1454.1 M1301.15 1450.39 Q1306.96 1450.39 1310.01 1455 Q1313.09 1459.58 1313.09 1468.33 Q1313.09 1477.06 1310.01 1481.67 Q1306.96 1486.25 1301.15 1486.25 Q1295.34 1486.25 1292.26 1481.67 Q1289.2 1477.06 1289.2 1468.33 Q1289.2 1459.58 1292.26 1455 Q1295.34 1450.39 1301.15 1450.39 Z" fill="#000000" fill-rule="nonzero" fill-opacity="1" /><path clip-path="url(#clip110)" d="M1692.63 1481.64 L1708.95 1481.64 L1708.95 1485.58 L1687.01 1485.58 L1687.01 1481.64 Q1689.67 1478.89 1694.25 1474.26 Q1698.86 1469.61 1700.04 1468.27 Q1702.29 1465.74 1703.17 1464.01 Q1704.07 1462.25 1704.07 1460.56 Q1704.07 1457.8 1702.13 1456.07 Q1700.2 1454.33 1697.1 1454.33 Q1694.9 1454.33 1692.45 1455.09 Q1690.02 1455.86 1687.24 1457.41 L1687.24 1452.69 Q1690.07 1451.55 1692.52 1450.97 Q1694.97 1450.39 1697.01 1450.39 Q1702.38 1450.39 1705.57 1453.08 Q1708.77 1455.77 1708.77 1460.26 Q1708.77 1462.39 1707.96 1464.31 Q1707.17 1466.2 1705.07 1468.8 Q1704.49 1469.47 1701.38 1472.69 Q1698.28 1475.88 1692.63 1481.64 Z" fill="#000000" fill-rule="nonzero" fill-opacity="1" /><path clip-path="url(#clip110)" d="M2097.82 1455.09 L2086.02 1473.54 L2097.82 1473.54 L2097.82 1455.09 M2096.6 1451.02 L2102.48 1451.02 L2102.48 1473.54 L2107.41 1473.54 L2107.41 1477.43 L2102.48 1477.43 L2102.48 1485.58 L2097.82 1485.58 L2097.82 1477.43 L2082.22 1477.43 L2082.22 1472.92 L2096.6 1451.02 Z" fill="#000000" fill-rule="nonzero" fill-opacity="1" /><path clip-path="url(#clip110)" d="M1315.32 1528.8 Q1315.32 1530.61 1314.2 1531.64 Q1313.07 1532.64 1311.78 1532.64 Q1310.56 1532.64 1309.91 1531.93 Q1309.27 1531.22 1309.27 1530.32 Q1309.27 1529.09 1310.17 1528.03 Q1311.07 1526.97 1312.42 1526.74 Q1311.1 1525.91 1309.14 1525.91 Q1307.85 1525.91 1306.72 1526.58 Q1305.63 1527.26 1304.95 1528.13 Q1304.31 1529 1303.73 1530.25 Q1303.18 1531.48 1302.96 1532.22 Q1302.76 1532.93 1302.6 1533.7 L1300.35 1542.72 Q1299.25 1547 1299.25 1548.51 Q1299.25 1550.38 1300.15 1551.64 Q1301.06 1552.86 1302.86 1552.86 Q1303.57 1552.86 1304.37 1552.67 Q1305.18 1552.44 1306.21 1551.86 Q1307.27 1551.25 1308.2 1550.35 Q1309.17 1549.42 1310.11 1547.84 Q1311.04 1546.26 1311.65 1544.23 Q1311.84 1543.52 1312.49 1543.52 Q1313.29 1543.52 1313.29 1544.17 Q1313.29 1544.71 1312.84 1545.87 Q1312.42 1547 1311.49 1548.48 Q1310.59 1549.93 1309.4 1551.25 Q1308.2 1552.54 1306.43 1553.44 Q1304.66 1554.34 1302.73 1554.34 Q1299.96 1554.34 1298.12 1552.86 Q1296.29 1551.38 1295.61 1549.32 Q1295.45 1549.61 1295.23 1550 Q1295 1550.38 1294.32 1551.25 Q1293.68 1552.09 1292.94 1552.73 Q1292.2 1553.34 1291.04 1553.83 Q1289.91 1554.34 1288.69 1554.34 Q1287.14 1554.34 1285.76 1553.89 Q1284.4 1553.44 1283.44 1552.41 Q1282.47 1551.38 1282.47 1549.96 Q1282.47 1548.38 1283.54 1547.29 Q1284.63 1546.16 1286.11 1546.16 Q1287.05 1546.16 1287.79 1546.71 Q1288.56 1547.26 1288.56 1548.45 Q1288.56 1549.77 1287.66 1550.77 Q1286.76 1551.77 1285.47 1552.02 Q1286.79 1552.86 1288.75 1552.86 Q1290.88 1552.86 1292.55 1550.99 Q1294.23 1549.13 1295.03 1546 Q1297.03 1538.5 1297.8 1535.15 Q1298.58 1531.77 1298.58 1530.32 Q1298.58 1528.96 1298.22 1528.03 Q1297.87 1527.1 1297.25 1526.68 Q1296.68 1526.23 1296.13 1526.07 Q1295.61 1525.91 1295.03 1525.91 Q1294.07 1525.91 1292.97 1526.29 Q1291.91 1526.68 1290.62 1527.58 Q1289.36 1528.45 1288.17 1530.25 Q1286.98 1532.06 1286.18 1534.54 Q1286.02 1535.28 1285.31 1535.28 Q1284.53 1535.24 1284.53 1534.6 Q1284.53 1534.05 1284.95 1532.93 Q1285.4 1531.77 1286.3 1530.32 Q1287.24 1528.87 1288.43 1527.58 Q1289.65 1526.26 1291.43 1525.36 Q1293.23 1524.46 1295.16 1524.46 Q1296.03 1524.46 1296.87 1524.65 Q1297.74 1524.81 1298.77 1525.29 Q1299.83 1525.78 1300.77 1526.84 Q1301.7 1527.9 1302.28 1529.45 Q1302.67 1528.71 1303.18 1528 Q1303.73 1527.29 1304.57 1526.42 Q1305.44 1525.52 1306.63 1525 Q1307.85 1524.46 1309.2 1524.46 Q1310.52 1524.46 1311.81 1524.81 Q1313.1 1525.13 1314.2 1526.19 Q1315.32 1527.23 1315.32 1528.8 Z" fill="#000000" fill-rule="nonzero" fill-opacity="1" /><polyline clip-path="url(#clip110)" style="stroke:#000000; stroke-linecap:round; stroke-linejoin:round; stroke-width:4; stroke-opacity:1; fill:none" points="249.542,1423.18 249.542,123.472 "/>
<polyline clip-path="url(#clip110)" style="stroke:#000000; stroke-linecap:round; stroke-linejoin:round; stroke-width:4; stroke-opacity:1; fill:none" points="249.542,1386.4 268.44,1386.4 "/>
<polyline clip-path="url(#clip110)" style="stroke:#000000; stroke-linecap:round; stroke-linejoin:round; stroke-width:4; stroke-opacity:1; fill:none" points="249.542,1079.08 268.44,1079.08 "/>
<polyline clip-path="url(#clip110)" style="stroke:#000000; stroke-linecap:round; stroke-linejoin:round; stroke-width:4; stroke-opacity:1; fill:none" points="249.542,771.76 268.44,771.76 "/>
<polyline clip-path="url(#clip110)" style="stroke:#000000; stroke-linecap:round; stroke-linejoin:round; stroke-width:4; stroke-opacity:1; fill:none" points="249.542,464.442 268.44,464.442 "/>
<polyline clip-path="url(#clip110)" style="stroke:#000000; stroke-linecap:round; stroke-linejoin:round; stroke-width:4; stroke-opacity:1; fill:none" points="249.542,157.125 268.44,157.125 "/>
<path clip-path="url(#clip110)" d="M126.205 1372.19 Q122.593 1372.19 120.765 1375.76 Q118.959 1379.3 118.959 1386.43 Q118.959 1393.54 120.765 1397.1 Q122.593 1400.64 126.205 1400.64 Q129.839 1400.64 131.644 1397.1 Q133.473 1393.54 133.473 1386.43 Q133.473 1379.3 131.644 1375.76 Q129.839 1372.19 126.205 1372.19 M126.205 1368.49 Q132.015 1368.49 135.07 1373.1 Q138.149 1377.68 138.149 1386.43 Q138.149 1395.16 135.07 1399.76 Q132.015 1404.35 126.205 1404.35 Q120.394 1404.35 117.316 1399.76 Q114.26 1395.16 114.26 1386.43 Q114.26 1377.68 117.316 1373.1 Q120.394 1368.49 126.205 1368.49 Z" fill="#000000" fill-rule="nonzero" fill-opacity="1" /><path clip-path="url(#clip110)" d="M146.366 1397.8 L151.251 1397.8 L151.251 1403.68 L146.366 1403.68 L146.366 1397.8 Z" fill="#000000" fill-rule="nonzero" fill-opacity="1" /><path clip-path="url(#clip110)" d="M171.436 1372.19 Q167.825 1372.19 165.996 1375.76 Q164.19 1379.3 164.19 1386.43 Q164.19 1393.54 165.996 1397.1 Q167.825 1400.64 171.436 1400.64 Q175.07 1400.64 176.876 1397.1 Q178.704 1393.54 178.704 1386.43 Q178.704 1379.3 176.876 1375.76 Q175.07 1372.19 171.436 1372.19 M171.436 1368.49 Q177.246 1368.49 180.301 1373.1 Q183.38 1377.68 183.38 1386.43 Q183.38 1395.16 180.301 1399.76 Q177.246 1404.35 171.436 1404.35 Q165.626 1404.35 162.547 1399.76 Q159.491 1395.16 159.491 1386.43 Q159.491 1377.68 162.547 1373.1 Q165.626 1368.49 171.436 1368.49 Z" fill="#000000" fill-rule="nonzero" fill-opacity="1" /><path clip-path="url(#clip110)" d="M201.598 1372.19 Q197.987 1372.19 196.158 1375.76 Q194.352 1379.3 194.352 1386.43 Q194.352 1393.54 196.158 1397.1 Q197.987 1400.64 201.598 1400.64 Q205.232 1400.64 207.037 1397.1 Q208.866 1393.54 208.866 1386.43 Q208.866 1379.3 207.037 1375.76 Q205.232 1372.19 201.598 1372.19 M201.598 1368.49 Q207.408 1368.49 210.463 1373.1 Q213.542 1377.68 213.542 1386.43 Q213.542 1395.16 210.463 1399.76 Q207.408 1404.35 201.598 1404.35 Q195.787 1404.35 192.709 1399.76 Q189.653 1395.16 189.653 1386.43 Q189.653 1377.68 192.709 1373.1 Q195.787 1368.49 201.598 1368.49 Z" fill="#000000" fill-rule="nonzero" fill-opacity="1" /><path clip-path="url(#clip110)" d="M127.2 1064.88 Q123.589 1064.88 121.76 1068.44 Q119.955 1071.98 119.955 1079.11 Q119.955 1086.22 121.76 1089.78 Q123.589 1093.33 127.2 1093.33 Q130.834 1093.33 132.64 1089.78 Q134.468 1086.22 134.468 1079.11 Q134.468 1071.98 132.64 1068.44 Q130.834 1064.88 127.2 1064.88 M127.2 1061.17 Q133.01 1061.17 136.066 1065.78 Q139.144 1070.36 139.144 1079.11 Q139.144 1087.84 136.066 1092.45 Q133.01 1097.03 127.2 1097.03 Q121.39 1097.03 118.311 1092.45 Q115.256 1087.84 115.256 1079.11 Q115.256 1070.36 118.311 1065.78 Q121.39 1061.17 127.2 1061.17 Z" fill="#000000" fill-rule="nonzero" fill-opacity="1" /><path clip-path="url(#clip110)" d="M147.362 1090.48 L152.246 1090.48 L152.246 1096.36 L147.362 1096.36 L147.362 1090.48 Z" fill="#000000" fill-rule="nonzero" fill-opacity="1" /><path clip-path="url(#clip110)" d="M166.459 1092.42 L182.778 1092.42 L182.778 1096.36 L160.834 1096.36 L160.834 1092.42 Q163.496 1089.67 168.079 1085.04 Q172.686 1080.39 173.866 1079.04 Q176.112 1076.52 176.991 1074.78 Q177.894 1073.02 177.894 1071.33 Q177.894 1068.58 175.95 1066.84 Q174.028 1065.11 170.927 1065.11 Q168.727 1065.11 166.274 1065.87 Q163.843 1066.64 161.065 1068.19 L161.065 1063.46 Q163.89 1062.33 166.343 1061.75 Q168.797 1061.17 170.834 1061.17 Q176.204 1061.17 179.399 1063.86 Q182.593 1066.54 182.593 1071.03 Q182.593 1073.16 181.783 1075.08 Q180.996 1076.98 178.889 1079.58 Q178.311 1080.25 175.209 1083.46 Q172.107 1086.66 166.459 1092.42 Z" fill="#000000" fill-rule="nonzero" fill-opacity="1" /><path clip-path="url(#clip110)" d="M192.639 1061.8 L210.996 1061.8 L210.996 1065.73 L196.922 1065.73 L196.922 1074.21 Q197.94 1073.86 198.959 1073.7 Q199.977 1073.51 200.996 1073.51 Q206.783 1073.51 210.162 1076.68 Q213.542 1079.85 213.542 1085.27 Q213.542 1090.85 210.07 1093.95 Q206.598 1097.03 200.278 1097.03 Q198.102 1097.03 195.834 1096.66 Q193.588 1096.29 191.181 1095.55 L191.181 1090.85 Q193.264 1091.98 195.487 1092.54 Q197.709 1093.09 200.186 1093.09 Q204.19 1093.09 206.528 1090.99 Q208.866 1088.88 208.866 1085.27 Q208.866 1081.66 206.528 1079.55 Q204.19 1077.45 200.186 1077.45 Q198.311 1077.45 196.436 1077.86 Q194.584 1078.28 192.639 1079.16 L192.639 1061.8 Z" fill="#000000" fill-rule="nonzero" fill-opacity="1" /><path clip-path="url(#clip110)" d="M126.205 757.559 Q122.593 757.559 120.765 761.124 Q118.959 764.665 118.959 771.795 Q118.959 778.901 120.765 782.466 Q122.593 786.008 126.205 786.008 Q129.839 786.008 131.644 782.466 Q133.473 778.901 133.473 771.795 Q133.473 764.665 131.644 761.124 Q129.839 757.559 126.205 757.559 M126.205 753.855 Q132.015 753.855 135.07 758.462 Q138.149 763.045 138.149 771.795 Q138.149 780.522 135.07 785.128 Q132.015 789.711 126.205 789.711 Q120.394 789.711 117.316 785.128 Q114.26 780.522 114.26 771.795 Q114.26 763.045 117.316 758.462 Q120.394 753.855 126.205 753.855 Z" fill="#000000" fill-rule="nonzero" fill-opacity="1" /><path clip-path="url(#clip110)" d="M146.366 783.161 L151.251 783.161 L151.251 789.04 L146.366 789.04 L146.366 783.161 Z" fill="#000000" fill-rule="nonzero" fill-opacity="1" /><path clip-path="url(#clip110)" d="M161.482 754.48 L179.839 754.48 L179.839 758.415 L165.765 758.415 L165.765 766.888 Q166.783 766.54 167.802 766.378 Q168.82 766.193 169.839 766.193 Q175.626 766.193 179.005 769.364 Q182.385 772.536 182.385 777.952 Q182.385 783.531 178.913 786.633 Q175.44 789.711 169.121 789.711 Q166.945 789.711 164.677 789.341 Q162.431 788.971 160.024 788.23 L160.024 783.531 Q162.107 784.665 164.329 785.221 Q166.552 785.776 169.028 785.776 Q173.033 785.776 175.371 783.67 Q177.709 781.563 177.709 777.952 Q177.709 774.341 175.371 772.235 Q173.033 770.128 169.028 770.128 Q167.153 770.128 165.278 770.545 Q163.427 770.962 161.482 771.841 L161.482 754.48 Z" fill="#000000" fill-rule="nonzero" fill-opacity="1" /><path clip-path="url(#clip110)" d="M201.598 757.559 Q197.987 757.559 196.158 761.124 Q194.352 764.665 194.352 771.795 Q194.352 778.901 196.158 782.466 Q197.987 786.008 201.598 786.008 Q205.232 786.008 207.037 782.466 Q208.866 778.901 208.866 771.795 Q208.866 764.665 207.037 761.124 Q205.232 757.559 201.598 757.559 M201.598 753.855 Q207.408 753.855 210.463 758.462 Q213.542 763.045 213.542 771.795 Q213.542 780.522 210.463 785.128 Q207.408 789.711 201.598 789.711 Q195.787 789.711 192.709 785.128 Q189.653 780.522 189.653 771.795 Q189.653 763.045 192.709 758.462 Q195.787 753.855 201.598 753.855 Z" fill="#000000" fill-rule="nonzero" fill-opacity="1" /><path clip-path="url(#clip110)" d="M127.2 450.241 Q123.589 450.241 121.76 453.806 Q119.955 457.348 119.955 464.477 Q119.955 471.584 121.76 475.148 Q123.589 478.69 127.2 478.69 Q130.834 478.69 132.64 475.148 Q134.468 471.584 134.468 464.477 Q134.468 457.348 132.64 453.806 Q130.834 450.241 127.2 450.241 M127.2 446.537 Q133.01 446.537 136.066 451.144 Q139.144 455.727 139.144 464.477 Q139.144 473.204 136.066 477.81 Q133.01 482.394 127.2 482.394 Q121.39 482.394 118.311 477.81 Q115.256 473.204 115.256 464.477 Q115.256 455.727 118.311 451.144 Q121.39 446.537 127.2 446.537 Z" fill="#000000" fill-rule="nonzero" fill-opacity="1" /><path clip-path="url(#clip110)" d="M147.362 475.843 L152.246 475.843 L152.246 481.722 L147.362 481.722 L147.362 475.843 Z" fill="#000000" fill-rule="nonzero" fill-opacity="1" /><path clip-path="url(#clip110)" d="M161.251 447.162 L183.473 447.162 L183.473 449.153 L170.927 481.722 L166.042 481.722 L177.848 451.098 L161.251 451.098 L161.251 447.162 Z" fill="#000000" fill-rule="nonzero" fill-opacity="1" /><path clip-path="url(#clip110)" d="M192.639 447.162 L210.996 447.162 L210.996 451.098 L196.922 451.098 L196.922 459.57 Q197.94 459.223 198.959 459.061 Q199.977 458.875 200.996 458.875 Q206.783 458.875 210.162 462.047 Q213.542 465.218 213.542 470.635 Q213.542 476.213 210.07 479.315 Q206.598 482.394 200.278 482.394 Q198.102 482.394 195.834 482.023 Q193.588 481.653 191.181 480.912 L191.181 476.213 Q193.264 477.347 195.487 477.903 Q197.709 478.459 200.186 478.459 Q204.19 478.459 206.528 476.352 Q208.866 474.246 208.866 470.635 Q208.866 467.023 206.528 464.917 Q204.19 462.811 200.186 462.811 Q198.311 462.811 196.436 463.227 Q194.584 463.644 192.639 464.523 L192.639 447.162 Z" fill="#000000" fill-rule="nonzero" fill-opacity="1" /><path clip-path="url(#clip110)" d="M117.015 170.47 L124.654 170.47 L124.654 144.104 L116.343 145.771 L116.343 141.511 L124.607 139.845 L129.283 139.845 L129.283 170.47 L136.922 170.47 L136.922 174.405 L117.015 174.405 L117.015 170.47 Z" fill="#000000" fill-rule="nonzero" fill-opacity="1" /><path clip-path="url(#clip110)" d="M146.366 168.525 L151.251 168.525 L151.251 174.405 L146.366 174.405 L146.366 168.525 Z" fill="#000000" fill-rule="nonzero" fill-opacity="1" /><path clip-path="url(#clip110)" d="M171.436 142.923 Q167.825 142.923 165.996 146.488 Q164.19 150.03 164.19 157.159 Q164.19 164.266 165.996 167.831 Q167.825 171.372 171.436 171.372 Q175.07 171.372 176.876 167.831 Q178.704 164.266 178.704 157.159 Q178.704 150.03 176.876 146.488 Q175.07 142.923 171.436 142.923 M171.436 139.22 Q177.246 139.22 180.301 143.826 Q183.38 148.409 183.38 157.159 Q183.38 165.886 180.301 170.493 Q177.246 175.076 171.436 175.076 Q165.626 175.076 162.547 170.493 Q159.491 165.886 159.491 157.159 Q159.491 148.409 162.547 143.826 Q165.626 139.22 171.436 139.22 Z" fill="#000000" fill-rule="nonzero" fill-opacity="1" /><path clip-path="url(#clip110)" d="M201.598 142.923 Q197.987 142.923 196.158 146.488 Q194.352 150.03 194.352 157.159 Q194.352 164.266 196.158 167.831 Q197.987 171.372 201.598 171.372 Q205.232 171.372 207.037 167.831 Q208.866 164.266 208.866 157.159 Q208.866 150.03 207.037 146.488 Q205.232 142.923 201.598 142.923 M201.598 139.22 Q207.408 139.22 210.463 143.826 Q213.542 148.409 213.542 157.159 Q213.542 165.886 210.463 170.493 Q207.408 175.076 201.598 175.076 Q195.787 175.076 192.709 170.493 Q189.653 165.886 189.653 157.159 Q189.653 148.409 192.709 143.826 Q195.787 139.22 201.598 139.22 Z" fill="#000000" fill-rule="nonzero" fill-opacity="1" /><path clip-path="url(#clip110)" d="M22.1553 822.882 Q22.7672 822.882 23.2825 823.01 L34.7478 824.814 Q35.6174 824.91 35.9394 825.104 Q36.2615 825.265 36.2615 825.78 Q36.2615 826.585 35.4241 826.585 Q34.941 826.585 34.1681 826.392 Q30.5288 825.844 28.8863 825.844 Q27.7913 825.844 26.9862 826.07 Q26.1488 826.263 25.5691 826.585 Q24.9894 826.875 24.6029 827.551 Q24.2165 828.228 23.991 828.872 Q23.7656 829.516 23.669 830.675 Q23.5402 831.835 23.5079 832.833 Q23.4757 833.832 23.4757 835.474 Q23.4757 839.049 23.6046 839.629 Q23.7656 840.24 24.2487 840.563 Q24.6996 840.852 26.0522 841.174 L61.06 849.934 L62.4448 850.192 Q63.2178 850.192 63.4754 849.709 Q63.7331 849.226 63.8941 847.744 Q64.0551 845.619 64.0551 843.525 Q64.0551 843.461 64.0551 843.332 Q64.0551 842.624 64.0873 842.334 Q64.0873 842.044 64.1517 841.754 Q64.2162 841.464 64.3772 841.4 Q64.506 841.303 64.7637 841.303 Q65.3756 841.303 65.6976 841.561 Q65.9875 841.819 66.0519 842.076 Q66.0841 842.302 66.0841 842.753 Q66.0841 843.654 66.0197 845.587 Q65.9553 847.519 65.9553 848.485 L65.8909 853.96 L65.9553 859.564 Q65.9553 860.434 66.0197 862.269 Q66.0841 864.105 66.0841 864.975 Q66.0841 866.102 65.2789 866.102 Q64.3772 866.102 64.2162 865.683 Q64.0551 865.232 64.0551 863.332 Q64.0551 860.659 63.9263 859.21 Q63.7975 857.76 63.3466 856.988 Q62.8957 856.182 62.4448 855.957 Q61.9617 855.732 60.8667 855.474 L25.6657 846.617 Q24.8928 846.36 24.2809 846.36 Q23.9588 846.36 23.83 846.456 Q23.7012 846.521 23.6046 846.939 Q23.4757 847.358 23.4757 848.228 L23.4757 850.804 Q23.4757 853.445 23.6046 855.087 Q23.7012 856.698 24.1843 858.244 Q24.6674 859.757 25.3437 860.659 Q26.02 861.529 27.4049 862.495 Q28.7897 863.461 30.4644 864.169 Q32.1391 864.846 34.8766 865.812 Q35.7784 866.134 36.036 866.327 Q36.2615 866.488 36.2615 866.939 Q36.2615 867.261 36.0682 867.519 Q35.8428 867.744 35.5529 867.744 Q34.4901 867.422 34.3613 867.358 L22.735 863.397 Q21.801 863.074 21.64 862.785 Q21.4468 862.463 21.4468 861.271 L21.4468 824.685 Q21.4468 824.105 21.4468 823.912 Q21.4468 823.719 21.5112 823.397 Q21.5756 823.075 21.7366 822.978 Q21.8977 822.882 22.1553 822.882 Z" fill="#000000" fill-rule="nonzero" fill-opacity="1" /><path clip-path="url(#clip110)" d="M49.5947 815.866 Q38.4515 815.866 29.466 811.711 Q25.6979 809.94 22.5418 807.46 Q19.3856 804.98 18.0007 803.338 Q16.6159 801.695 16.6159 801.244 Q16.6159 800.6 17.26 800.568 Q17.5821 800.568 18.3872 801.437 Q29.2084 812.065 49.5947 812.033 Q70.0454 812.033 80.4479 801.695 Q81.5751 800.568 81.9294 800.568 Q82.5735 800.568 82.5735 801.244 Q82.5735 801.695 81.2531 803.273 Q79.9326 804.851 76.9053 807.299 Q73.8779 809.747 70.1742 811.518 Q61.1888 815.866 49.5947 815.866 Z" fill="#000000" fill-rule="nonzero" fill-opacity="1" /><path clip-path="url(#clip110)" d="M41.2856 762.704 Q43.0891 762.704 44.1197 763.832 Q45.1181 764.959 45.1181 766.247 Q45.1181 767.471 44.4096 768.115 Q43.701 768.759 42.7993 768.759 Q41.5754 768.759 40.5126 767.857 Q39.4498 766.955 39.2244 765.603 Q38.3871 766.923 38.3871 768.888 Q38.3871 770.176 39.0634 771.303 Q39.7397 772.398 40.6093 773.075 Q41.4788 773.719 42.7348 774.298 Q43.9587 774.846 44.6994 775.071 Q45.4079 775.265 46.1809 775.426 L55.1985 777.68 Q59.4819 778.775 60.9956 778.775 Q62.8635 778.775 64.1195 777.873 Q65.3434 776.971 65.3434 775.168 Q65.3434 774.459 65.1501 773.654 Q64.9247 772.849 64.345 771.819 Q63.7331 770.756 62.8313 769.822 Q61.8973 768.856 60.3192 767.922 Q58.7412 766.988 56.7122 766.376 Q56.0037 766.183 56.0037 765.538 Q56.0037 764.733 56.6478 764.733 Q57.1953 764.733 58.3547 765.184 Q59.4819 765.603 60.9634 766.537 Q62.4126 767.439 63.7331 768.63 Q65.0213 769.822 65.9231 771.593 Q66.8248 773.364 66.8248 775.297 Q66.8248 778.066 65.3434 779.902 Q63.8619 781.738 61.8007 782.414 Q62.0906 782.575 62.477 782.801 Q62.8635 783.026 63.7331 783.703 Q64.5704 784.347 65.2145 785.087 Q65.8264 785.828 66.3095 786.988 Q66.8248 788.115 66.8248 789.339 Q66.8248 790.884 66.3739 792.269 Q65.9231 793.622 64.8925 794.588 Q63.8619 795.554 62.4448 795.554 Q60.8667 795.554 59.7717 794.491 Q58.6445 793.396 58.6445 791.915 Q58.6445 790.981 59.192 790.24 Q59.7395 789.467 60.9312 789.467 Q62.2516 789.467 63.25 790.369 Q64.2484 791.271 64.506 792.559 Q65.3434 791.239 65.3434 789.274 Q65.3434 787.149 63.4754 785.474 Q61.6075 783.799 58.4835 782.994 Q50.9795 780.997 47.6301 780.224 Q44.2485 779.451 42.7993 779.451 Q41.4466 779.451 40.5126 779.806 Q39.5787 780.16 39.16 780.772 Q38.7091 781.351 38.5481 781.899 Q38.3871 782.414 38.3871 782.994 Q38.3871 783.96 38.7735 785.055 Q39.16 786.118 40.0618 787.406 Q40.9313 788.662 42.7348 789.854 Q44.5384 791.045 47.0182 791.851 Q47.759 792.012 47.759 792.72 Q47.7268 793.493 47.0826 793.493 Q46.5351 793.493 45.4079 793.074 Q44.2485 792.624 42.7993 791.722 Q41.35 790.788 40.0618 789.596 Q38.7413 788.372 37.8396 786.601 Q36.9378 784.798 36.9378 782.865 Q36.9378 781.996 37.131 781.158 Q37.2921 780.289 37.7751 779.258 Q38.2582 778.195 39.321 777.261 Q40.3838 776.327 41.9297 775.748 Q41.189 775.361 40.4804 774.846 Q39.7719 774.298 38.9023 773.461 Q38.0006 772.591 37.4853 771.4 Q36.9378 770.176 36.9378 768.823 Q36.9378 767.503 37.2921 766.215 Q37.6141 764.927 38.6769 763.832 Q39.7075 762.704 41.2856 762.704 Z" fill="#000000" fill-rule="nonzero" fill-opacity="1" /><path clip-path="url(#clip110)" d="M65.0213 757.267 Q63.9585 758.201 62.5737 758.201 Q61.1888 758.201 60.1582 757.299 Q59.0954 756.365 59.0954 754.691 Q59.0954 752.726 60.9956 751.599 Q62.8635 750.472 66.0197 750.472 Q69.4335 750.472 72.5897 751.857 Q75.7781 753.241 77.2917 754.594 Q78.8054 755.947 78.8054 756.494 Q78.8054 757.138 78.0969 757.138 Q77.8392 757.138 77.3561 756.687 Q72.2676 751.953 66.0197 751.921 Q65.0213 751.921 65.0213 752.05 L65.1501 752.211 Q66.0841 753.338 66.0841 754.691 Q66.0841 756.333 65.0213 757.267 Z" fill="#000000" fill-rule="nonzero" fill-opacity="1" /><path clip-path="url(#clip110)" d="M38.3871 709.399 Q39.2888 709.399 39.5143 709.817 Q39.7075 710.236 39.7075 711.395 L39.7075 717.579 L59.1598 722.474 Q60.8667 722.861 62.316 722.861 Q63.9263 722.861 64.6348 722.378 Q65.3434 721.862 65.3434 720.799 Q65.3434 718.706 63.4432 716.452 Q61.5431 714.165 56.9054 712.233 Q56.2935 711.975 56.1647 711.846 Q56.0037 711.685 56.0037 711.267 Q56.0037 710.461 56.6478 710.461 Q56.8732 710.461 57.9038 710.912 Q58.9344 711.331 60.4481 712.265 Q61.9617 713.167 63.3788 714.358 Q64.7959 715.518 65.8264 717.289 Q66.8248 719.06 66.8248 720.96 Q66.8248 723.634 65.1179 725.34 Q63.411 727.015 60.7379 727.015 Q59.8684 727.015 57.0987 726.339 Q54.2967 725.663 39.7075 721.991 L39.7075 727.82 Q39.7075 728.625 39.6753 728.948 Q39.6431 729.237 39.4821 729.463 Q39.2888 729.656 38.9023 729.656 Q38.2904 729.656 38.0328 729.398 Q37.7429 729.141 37.7107 728.819 Q37.6463 728.464 37.6463 727.659 L37.6463 721.476 L27.1794 718.899 Q26.1488 718.642 25.5691 717.998 Q24.9572 717.321 24.8928 716.935 Q24.7962 716.548 24.7962 716.258 Q24.7962 715.389 25.2793 714.874 Q25.7302 714.358 26.5675 714.358 Q27.0184 714.358 37.6463 717.064 L37.6463 711.267 Q37.6463 710.526 37.6785 710.236 Q37.7107 709.914 37.8718 709.656 Q38.0328 709.399 38.3871 709.399 Z" fill="#000000" fill-rule="nonzero" fill-opacity="1" /><path clip-path="url(#clip110)" d="M81.9294 704.235 Q81.6073 704.235 80.8022 703.398 Q69.981 692.77 49.5947 692.77 Q29.144 692.77 18.8059 702.979 Q17.6143 704.235 17.26 704.235 Q16.6159 704.235 16.6159 703.591 Q16.6159 703.14 17.9363 701.562 Q19.2568 699.952 22.2841 697.536 Q25.3115 695.089 29.0151 693.285 Q38.0006 688.937 49.5947 688.937 Q60.7379 688.937 69.7234 693.092 Q73.4914 694.863 76.6476 697.343 Q79.8038 699.823 81.1886 701.465 Q82.5735 703.108 82.5735 703.591 Q82.5735 704.235 81.9294 704.235 Z" fill="#000000" fill-rule="nonzero" fill-opacity="1" /><path clip-path="url(#clip110)" d="M1236.21 18.8205 L1236.21 41.5461 L1246.5 41.5461 Q1252.21 41.5461 1255.33 38.5889 Q1258.45 35.6318 1258.45 30.163 Q1258.45 24.7348 1255.33 21.7777 Q1252.21 18.8205 1246.5 18.8205 L1236.21 18.8205 M1228.03 12.096 L1246.5 12.096 Q1256.67 12.096 1261.86 16.714 Q1267.08 21.2916 1267.08 30.163 Q1267.08 39.1155 1261.86 43.6931 Q1256.67 48.2706 1246.5 48.2706 L1236.21 48.2706 L1236.21 72.576 L1228.03 72.576 L1228.03 12.096 Z" fill="#000000" fill-rule="nonzero" fill-opacity="1" /><path clip-path="url(#clip110)" d="M1277.73 9.54393 L1285.19 9.54393 L1285.19 72.576 L1277.73 72.576 L1277.73 9.54393 Z" fill="#000000" fill-rule="nonzero" fill-opacity="1" /><path clip-path="url(#clip110)" d="M1318.37 32.4315 Q1312.37 32.4315 1308.89 37.1306 Q1305.4 41.7891 1305.4 49.9314 Q1305.4 58.0738 1308.85 62.7728 Q1312.33 67.4314 1318.37 67.4314 Q1324.32 67.4314 1327.8 62.7323 Q1331.29 58.0333 1331.29 49.9314 Q1331.29 41.8701 1327.8 37.1711 Q1324.32 32.4315 1318.37 32.4315 M1318.37 26.1121 Q1328.09 26.1121 1333.64 32.4315 Q1339.19 38.7509 1339.19 49.9314 Q1339.19 61.0714 1333.64 67.4314 Q1328.09 73.7508 1318.37 73.7508 Q1308.6 73.7508 1303.05 67.4314 Q1297.54 61.0714 1297.54 49.9314 Q1297.54 38.7509 1303.05 32.4315 Q1308.6 26.1121 1318.37 26.1121 Z" fill="#000000" fill-rule="nonzero" fill-opacity="1" /><path clip-path="url(#clip110)" d="M1358.91 14.324 L1358.91 27.2059 L1374.27 27.2059 L1374.27 32.9987 L1358.91 32.9987 L1358.91 57.6282 Q1358.91 63.1779 1360.41 64.7578 Q1361.95 66.3376 1366.61 66.3376 L1374.27 66.3376 L1374.27 72.576 L1366.61 72.576 Q1357.98 72.576 1354.7 69.3758 Q1351.42 66.1351 1351.42 57.6282 L1351.42 32.9987 L1345.95 32.9987 L1345.95 27.2059 L1351.42 27.2059 L1351.42 14.324 L1358.91 14.324 Z" fill="#000000" fill-rule="nonzero" fill-opacity="1" /><polyline clip-path="url(#clip112)" style="stroke:#009af9; stroke-linecap:round; stroke-linejoin:round; stroke-width:4; stroke-opacity:1; fill:none" points="309.067,1386.4 329.109,1381.37 349.151,1376.35 369.193,1371.35 389.235,1366.35 409.277,1361.38 429.319,1356.43 449.361,1351.51 469.403,1346.63 489.446,1341.79 509.488,1336.99 529.53,1332.24 549.572,1327.54 569.614,1322.91 589.656,1318.33 609.698,1313.83 629.74,1309.4 649.782,1305.04 669.824,1300.77 689.866,1296.58 709.908,1292.49 729.95,1288.48 749.992,1284.58 770.034,1280.77 790.076,1277.08 810.118,1273.49 830.161,1270.02 850.203,1266.66 870.245,1263.42 890.287,1260.31 910.329,1257.33 930.371,1254.47 950.413,1251.75 970.455,1249.16 990.497,1246.71 1010.54,1244.4 1030.58,1242.24 1050.62,1240.22 1070.67,1238.34 1090.71,1236.62 1110.75,1235.05 1130.79,1233.63 1150.83,1232.36 1170.88,1231.25 1190.92,1230.29 1210.96,1229.5 1231,1228.86 1251.04,1228.38 1271.09,1228.06 1291.13,1227.9 1311.17,1227.9 1331.21,1228.06 1351.25,1228.38 1371.3,1228.86 1391.34,1229.5 1411.38,1230.29 1431.42,1231.25 1451.46,1232.36 1471.51,1233.63 1491.55,1235.05 1511.59,1236.62 1531.63,1238.34 1551.67,1240.22 1571.72,1242.24 1591.76,1244.4 1611.8,1246.71 1631.84,1249.16 1651.89,1251.75 1671.93,1254.47 1691.97,1257.33 1712.01,1260.31 1732.05,1263.42 1752.1,1266.66 1772.14,1270.02 1792.18,1273.49 1812.22,1277.08 1832.26,1280.77 1852.31,1284.58 1872.35,1288.48 1892.39,1292.49 1912.43,1296.58 1932.47,1300.77 1952.52,1305.04 1972.56,1309.4 1992.6,1313.83 2012.64,1318.33 2032.68,1322.91 2052.73,1327.54 2072.77,1332.24 2092.81,1336.99 2112.85,1341.79 2132.89,1346.63 2152.94,1351.51 2172.98,1356.43 2193.02,1361.38 2213.06,1366.35 2233.1,1371.35 2253.15,1376.35 2273.19,1381.37 2293.23,1386.4 "/>
<polyline clip-path="url(#clip112)" style="stroke:#e26f46; stroke-linecap:round; stroke-linejoin:round; stroke-width:4; stroke-opacity:1; fill:none" points="309.067,1386.4 329.109,1385.26 349.151,1384.09 369.193,1382.85 389.235,1381.48 409.277,1379.95 429.319,1378.22 449.361,1376.24 469.403,1373.97 489.446,1371.34 509.488,1368.3 529.53,1364.81 549.572,1360.8 569.614,1356.2 589.656,1350.96 609.698,1345 629.74,1338.28 649.782,1330.71 669.824,1322.25 689.866,1312.83 709.908,1302.4 729.95,1290.93 749.992,1278.37 770.034,1264.7 790.076,1249.91 810.118,1234 830.161,1216.99 850.203,1198.91 870.245,1179.82 890.287,1159.8 910.329,1138.94 930.371,1117.35 950.413,1095.17 970.455,1072.56 990.497,1049.68 1010.54,1026.73 1030.58,1003.9 1050.62,981.419 1070.67,959.5 1090.71,938.373 1110.75,918.266 1130.79,899.404 1150.83,882.004 1170.88,866.273 1190.92,852.401 1210.96,840.561 1231,830.902 1251.04,823.546 1271.09,818.588 1291.13,816.093 1311.17,816.093 1331.21,818.588 1351.25,823.546 1371.3,830.902 1391.34,840.561 1411.38,852.401 1431.42,866.273 1451.46,882.004 1471.51,899.404 1491.55,918.266 1511.59,938.373 1531.63,959.5 1551.67,981.419 1571.72,1003.9 1591.76,1026.73 1611.8,1049.68 1631.84,1072.56 1651.89,1095.17 1671.93,1117.35 1691.97,1138.94 1712.01,1159.8 1732.05,1179.82 1752.1,1198.91 1772.14,1216.99 1792.18,1234 1812.22,1249.91 1832.26,1264.7 1852.31,1278.37 1872.35,1290.93 1892.39,1302.4 1912.43,1312.83 1932.47,1322.25 1952.52,1330.71 1972.56,1338.28 1992.6,1345 2012.64,1350.96 2032.68,1356.2 2052.73,1360.8 2072.77,1364.81 2092.81,1368.3 2112.85,1371.34 2132.89,1373.97 2152.94,1376.24 2172.98,1378.22 2193.02,1379.95 2213.06,1381.48 2233.1,1382.85 2253.15,1384.09 2273.19,1385.26 2293.23,1386.4 "/>
<polyline clip-path="url(#clip112)" style="stroke:#3da44d; stroke-linecap:round; stroke-linejoin:round; stroke-width:4; stroke-opacity:1; fill:none" points="309.067,1386.4 329.109,1386.4 349.151,1386.4 369.193,1386.4 389.235,1386.4 409.277,1386.4 429.319,1386.4 449.361,1386.4 469.403,1386.4 489.446,1386.4 509.488,1386.4 529.53,1386.4 549.572,1386.39 569.614,1386.39 589.656,1386.39 609.698,1386.39 629.74,1386.38 649.782,1386.37 669.824,1386.35 689.866,1386.3 709.908,1386.22 729.95,1386.09 749.992,1385.85 770.034,1385.45 790.076,1384.78 810.118,1383.7 830.161,1382 850.203,1379.37 870.245,1375.4 890.287,1369.51 910.329,1361 930.371,1348.98 950.413,1332.37 970.455,1309.96 990.497,1280.45 1010.54,1242.51 1030.58,1194.94 1050.62,1136.77 1070.67,1067.51 1090.71,987.264 1110.75,896.911 1130.79,798.231 1150.83,693.932 1170.88,587.606 1190.92,483.565 1210.96,386.586 1231,301.554 1251.04,233.067 1271.09,185.023 1291.13,160.256 1311.17,160.256 1331.21,185.023 1351.25,233.067 1371.3,301.554 1391.34,386.586 1411.38,483.565 1431.42,587.606 1451.46,693.932 1471.51,798.231 1491.55,896.911 1511.59,987.264 1531.63,1067.51 1551.67,1136.77 1571.72,1194.94 1591.76,1242.51 1611.8,1280.45 1631.84,1309.96 1651.89,1332.37 1671.93,1348.98 1691.97,1361 1712.01,1369.51 1732.05,1375.4 1752.1,1379.37 1772.14,1382 1792.18,1383.7 1812.22,1384.78 1832.26,1385.45 1852.31,1385.85 1872.35,1386.09 1892.39,1386.22 1912.43,1386.3 1932.47,1386.35 1952.52,1386.37 1972.56,1386.38 1992.6,1386.39 2012.64,1386.39 2032.68,1386.39 2052.73,1386.39 2072.77,1386.4 2092.81,1386.4 2112.85,1386.4 2132.89,1386.4 2152.94,1386.4 2172.98,1386.4 2193.02,1386.4 2213.06,1386.4 2233.1,1386.4 2253.15,1386.4 2273.19,1386.4 2293.23,1386.4 "/>
<path clip-path="url(#clip110)" d="M2019.32 374.156 L2282.65 374.156 L2282.65 166.796 L2019.32 166.796  Z" fill="#ffffff" fill-rule="evenodd" fill-opacity="1"/>
<polyline clip-path="url(#clip110)" style="stroke:#000000; stroke-linecap:round; stroke-linejoin:round; stroke-width:4; stroke-opacity:1; fill:none" points="2019.32,374.156 2282.65,374.156 2282.65,166.796 2019.32,166.796 2019.32,374.156 "/>
<polyline clip-path="url(#clip110)" style="stroke:#009af9; stroke-linecap:round; stroke-linejoin:round; stroke-width:4; stroke-opacity:1; fill:none" points="2042.69,218.636 2182.9,218.636 "/>
<path clip-path="url(#clip110)" d="M2220.11 238.323 Q2218.31 242.953 2216.59 244.365 Q2214.88 245.777 2212.01 245.777 L2208.61 245.777 L2208.61 242.212 L2211.11 242.212 Q2212.87 242.212 2213.84 241.379 Q2214.81 240.545 2215.99 237.443 L2216.76 235.499 L2206.27 209.99 L2210.78 209.99 L2218.89 230.268 L2226.99 209.99 L2231.5 209.99 L2220.11 238.323 Z" fill="#000000" fill-rule="nonzero" fill-opacity="1" /><path clip-path="url(#clip110)" d="M2238.79 231.981 L2246.43 231.981 L2246.43 205.615 L2238.12 207.282 L2238.12 203.022 L2246.39 201.356 L2251.06 201.356 L2251.06 231.981 L2258.7 231.981 L2258.7 235.916 L2238.79 235.916 L2238.79 231.981 Z" fill="#000000" fill-rule="nonzero" fill-opacity="1" /><polyline clip-path="url(#clip110)" style="stroke:#e26f46; stroke-linecap:round; stroke-linejoin:round; stroke-width:4; stroke-opacity:1; fill:none" points="2042.69,270.476 2182.9,270.476 "/>
<path clip-path="url(#clip110)" d="M2220.11 290.163 Q2218.31 294.793 2216.59 296.205 Q2214.88 297.617 2212.01 297.617 L2208.61 297.617 L2208.61 294.052 L2211.11 294.052 Q2212.87 294.052 2213.84 293.219 Q2214.81 292.385 2215.99 289.283 L2216.76 287.339 L2206.27 261.83 L2210.78 261.83 L2218.89 282.108 L2226.99 261.83 L2231.5 261.83 L2220.11 290.163 Z" fill="#000000" fill-rule="nonzero" fill-opacity="1" /><path clip-path="url(#clip110)" d="M2242.01 283.821 L2258.33 283.821 L2258.33 287.756 L2236.39 287.756 L2236.39 283.821 Q2239.05 281.066 2243.63 276.436 Q2248.24 271.784 2249.42 270.441 Q2251.66 267.918 2252.54 266.182 Q2253.45 264.423 2253.45 262.733 Q2253.45 259.978 2251.5 258.242 Q2249.58 256.506 2246.48 256.506 Q2244.28 256.506 2241.83 257.27 Q2239.4 258.034 2236.62 259.585 L2236.62 254.862 Q2239.44 253.728 2241.9 253.149 Q2244.35 252.571 2246.39 252.571 Q2251.76 252.571 2254.95 255.256 Q2258.15 257.941 2258.15 262.432 Q2258.15 264.561 2257.34 266.483 Q2256.55 268.381 2254.44 270.973 Q2253.86 271.645 2250.76 274.862 Q2247.66 278.057 2242.01 283.821 Z" fill="#000000" fill-rule="nonzero" fill-opacity="1" /><polyline clip-path="url(#clip110)" style="stroke:#3da44d; stroke-linecap:round; stroke-linejoin:round; stroke-width:4; stroke-opacity:1; fill:none" points="2042.69,322.316 2182.9,322.316 "/>
<path clip-path="url(#clip110)" d="M2220.11 342.003 Q2218.31 346.633 2216.59 348.045 Q2214.88 349.457 2212.01 349.457 L2208.61 349.457 L2208.61 345.892 L2211.11 345.892 Q2212.87 345.892 2213.84 345.059 Q2214.81 344.225 2215.99 341.123 L2216.76 339.179 L2206.27 313.67 L2210.78 313.67 L2218.89 333.948 L2226.99 313.67 L2231.5 313.67 L2220.11 342.003 Z" fill="#000000" fill-rule="nonzero" fill-opacity="1" /><path clip-path="url(#clip110)" d="M2252.15 320.962 Q2255.51 321.679 2257.38 323.948 Q2259.28 326.216 2259.28 329.549 Q2259.28 334.665 2255.76 337.466 Q2252.24 340.267 2245.76 340.267 Q2243.59 340.267 2241.27 339.827 Q2238.98 339.411 2236.53 338.554 L2236.53 334.04 Q2238.47 335.174 2240.78 335.753 Q2243.1 336.332 2245.62 336.332 Q2250.02 336.332 2252.31 334.596 Q2254.63 332.86 2254.63 329.549 Q2254.63 326.494 2252.47 324.781 Q2250.34 323.045 2246.53 323.045 L2242.5 323.045 L2242.5 319.202 L2246.71 319.202 Q2250.16 319.202 2251.99 317.837 Q2253.82 316.448 2253.82 313.855 Q2253.82 311.193 2251.92 309.781 Q2250.04 308.346 2246.53 308.346 Q2244.6 308.346 2242.4 308.763 Q2240.21 309.179 2237.57 310.059 L2237.57 305.892 Q2240.23 305.151 2242.54 304.781 Q2244.88 304.411 2246.94 304.411 Q2252.27 304.411 2255.37 306.841 Q2258.47 309.249 2258.47 313.369 Q2258.47 316.239 2256.83 318.23 Q2255.18 320.198 2252.15 320.962 Z" fill="#000000" fill-rule="nonzero" fill-opacity="1" /></svg>
