<?xml version="1.0" encoding="utf-8"?>
<svg xmlns="http://www.w3.org/2000/svg" xmlns:xlink="http://www.w3.org/1999/xlink" width="600" height="400" viewBox="0 0 2400 1600">
<defs>
  <clipPath id="clip760">
    <rect x="0" y="0" width="2400" height="1600"/>
  </clipPath>
</defs>
<path clip-path="url(#clip760)" d="M0 1600 L2400 1600 L2400 8.88178e-14 L0 8.88178e-14  Z" fill="#ffffff" fill-rule="evenodd" fill-opacity="1"/>
<defs>
  <clipPath id="clip761">
    <rect x="250" y="123" width="2104" height="1301"/>
  </clipPath>
</defs>
<path clip-path="url(#clip760)" d="M205.121 1423.18 L2352.76 1423.18 L2352.76 123.472 L205.121 123.472  Z" fill="#ffffff" fill-rule="evenodd" fill-opacity="1"/>
<defs>
  <clipPath id="clip762">
    <rect x="205" y="123" width="2149" height="1301"/>
  </clipPath>
</defs>
<polyline clip-path="url(#clip762)" style="stroke:#000000; stroke-linecap:round; stroke-linejoin:round; stroke-width:2; stroke-opacity:0.1; fill:none" points="431.352,1423.18 431.352,123.472 "/>
<polyline clip-path="url(#clip762)" style="stroke:#000000; stroke-linecap:round; stroke-linejoin:round; stroke-width:2; stroke-opacity:0.1; fill:none" points="855.145,1423.18 855.145,123.472 "/>
<polyline clip-path="url(#clip762)" style="stroke:#000000; stroke-linecap:round; stroke-linejoin:round; stroke-width:2; stroke-opacity:0.1; fill:none" points="1278.94,1423.18 1278.94,123.472 "/>
<polyline clip-path="url(#clip762)" style="stroke:#000000; stroke-linecap:round; stroke-linejoin:round; stroke-width:2; stroke-opacity:0.1; fill:none" points="1702.73,1423.18 1702.73,123.472 "/>
<polyline clip-path="url(#clip762)" style="stroke:#000000; stroke-linecap:round; stroke-linejoin:round; stroke-width:2; stroke-opacity:0.1; fill:none" points="2126.52,1423.18 2126.52,123.472 "/>
<polyline clip-path="url(#clip762)" style="stroke:#000000; stroke-linecap:round; stroke-linejoin:round; stroke-width:2; stroke-opacity:0.1; fill:none" points="205.121,1386.4 2352.76,1386.4 "/>
<polyline clip-path="url(#clip762)" style="stroke:#000000; stroke-linecap:round; stroke-linejoin:round; stroke-width:2; stroke-opacity:0.1; fill:none" points="205.121,1141.17 2352.76,1141.17 "/>
<polyline clip-path="url(#clip762)" style="stroke:#000000; stroke-linecap:round; stroke-linejoin:round; stroke-width:2; stroke-opacity:0.1; fill:none" points="205.121,895.94 2352.76,895.94 "/>
<polyline clip-path="url(#clip762)" style="stroke:#000000; stroke-linecap:round; stroke-linejoin:round; stroke-width:2; stroke-opacity:0.1; fill:none" points="205.121,650.712 2352.76,650.712 "/>
<polyline clip-path="url(#clip762)" style="stroke:#000000; stroke-linecap:round; stroke-linejoin:round; stroke-width:2; stroke-opacity:0.1; fill:none" points="205.121,405.484 2352.76,405.484 "/>
<polyline clip-path="url(#clip762)" style="stroke:#000000; stroke-linecap:round; stroke-linejoin:round; stroke-width:2; stroke-opacity:0.1; fill:none" points="205.121,160.256 2352.76,160.256 "/>
<polyline clip-path="url(#clip760)" style="stroke:#000000; stroke-linecap:round; stroke-linejoin:round; stroke-width:4; stroke-opacity:1; fill:none" points="205.121,1423.18 2352.76,1423.18 "/>
<polyline clip-path="url(#clip760)" style="stroke:#000000; stroke-linecap:round; stroke-linejoin:round; stroke-width:4; stroke-opacity:1; fill:none" points="431.352,1423.18 431.352,1404.28 "/>
<polyline clip-path="url(#clip760)" style="stroke:#000000; stroke-linecap:round; stroke-linejoin:round; stroke-width:4; stroke-opacity:1; fill:none" points="855.145,1423.18 855.145,1404.28 "/>
<polyline clip-path="url(#clip760)" style="stroke:#000000; stroke-linecap:round; stroke-linejoin:round; stroke-width:4; stroke-opacity:1; fill:none" points="1278.94,1423.18 1278.94,1404.28 "/>
<polyline clip-path="url(#clip760)" style="stroke:#000000; stroke-linecap:round; stroke-linejoin:round; stroke-width:4; stroke-opacity:1; fill:none" points="1702.73,1423.18 1702.73,1404.28 "/>
<polyline clip-path="url(#clip760)" style="stroke:#000000; stroke-linecap:round; stroke-linejoin:round; stroke-width:4; stroke-opacity:1; fill:none" points="2126.52,1423.18 2126.52,1404.28 "/>
<path clip-path="url(#clip760)" d="M377.88 1468.75 L407.556 1468.75 L407.556 1472.69 L377.88 1472.69 L377.88 1468.75 Z" fill="#000000" fill-rule="nonzero" fill-opacity="1" /><path clip-path="url(#clip760)" d="M418.459 1481.64 L426.097 1481.64 L426.097 1455.28 L417.787 1456.95 L417.787 1452.69 L426.051 1451.02 L430.727 1451.02 L430.727 1481.64 L438.366 1481.64 L438.366 1485.58 L418.459 1485.58 L418.459 1481.64 Z" fill="#000000" fill-rule="nonzero" fill-opacity="1" /><path clip-path="url(#clip760)" d="M447.81 1479.7 L452.694 1479.7 L452.694 1485.58 L447.81 1485.58 L447.81 1479.7 Z" fill="#000000" fill-rule="nonzero" fill-opacity="1" /><path clip-path="url(#clip760)" d="M472.88 1454.1 Q469.268 1454.1 467.44 1457.66 Q465.634 1461.2 465.634 1468.33 Q465.634 1475.44 467.44 1479.01 Q469.268 1482.55 472.88 1482.55 Q476.514 1482.55 478.319 1479.01 Q480.148 1475.44 480.148 1468.33 Q480.148 1461.2 478.319 1457.66 Q476.514 1454.1 472.88 1454.1 M472.88 1450.39 Q478.69 1450.39 481.745 1455 Q484.824 1459.58 484.824 1468.33 Q484.824 1477.06 481.745 1481.67 Q478.69 1486.25 472.88 1486.25 Q467.069 1486.25 463.991 1481.67 Q460.935 1477.06 460.935 1468.33 Q460.935 1459.58 463.991 1455 Q467.069 1450.39 472.88 1450.39 Z" fill="#000000" fill-rule="nonzero" fill-opacity="1" /><path clip-path="url(#clip760)" d="M802.171 1468.75 L831.847 1468.75 L831.847 1472.69 L802.171 1472.69 L802.171 1468.75 Z" fill="#000000" fill-rule="nonzero" fill-opacity="1" /><path clip-path="url(#clip760)" d="M851.939 1454.1 Q848.328 1454.1 846.499 1457.66 Q844.694 1461.2 844.694 1468.33 Q844.694 1475.44 846.499 1479.01 Q848.328 1482.55 851.939 1482.55 Q855.573 1482.55 857.379 1479.01 Q859.208 1475.44 859.208 1468.33 Q859.208 1461.2 857.379 1457.66 Q855.573 1454.1 851.939 1454.1 M851.939 1450.39 Q857.749 1450.39 860.805 1455 Q863.884 1459.58 863.884 1468.33 Q863.884 1477.06 860.805 1481.67 Q857.749 1486.25 851.939 1486.25 Q846.129 1486.25 843.05 1481.67 Q839.995 1477.06 839.995 1468.33 Q839.995 1459.58 843.05 1455 Q846.129 1450.39 851.939 1450.39 Z" fill="#000000" fill-rule="nonzero" fill-opacity="1" /><path clip-path="url(#clip760)" d="M872.101 1479.7 L876.985 1479.7 L876.985 1485.58 L872.101 1485.58 L872.101 1479.7 Z" fill="#000000" fill-rule="nonzero" fill-opacity="1" /><path clip-path="url(#clip760)" d="M887.217 1451.02 L905.573 1451.02 L905.573 1454.96 L891.499 1454.96 L891.499 1463.43 Q892.518 1463.08 893.536 1462.92 Q894.555 1462.73 895.573 1462.73 Q901.36 1462.73 904.74 1465.9 Q908.119 1469.08 908.119 1474.49 Q908.119 1480.07 904.647 1483.17 Q901.175 1486.25 894.856 1486.25 Q892.68 1486.25 890.411 1485.88 Q888.166 1485.51 885.758 1484.77 L885.758 1480.07 Q887.842 1481.2 890.064 1481.76 Q892.286 1482.32 894.763 1482.32 Q898.768 1482.32 901.106 1480.21 Q903.444 1478.1 903.444 1474.49 Q903.444 1470.88 901.106 1468.77 Q898.768 1466.67 894.763 1466.67 Q892.888 1466.67 891.013 1467.08 Q889.161 1467.5 887.217 1468.38 L887.217 1451.02 Z" fill="#000000" fill-rule="nonzero" fill-opacity="1" /><path clip-path="url(#clip760)" d="M1256.32 1454.1 Q1252.71 1454.1 1250.88 1457.66 Q1249.08 1461.2 1249.08 1468.33 Q1249.08 1475.44 1250.88 1479.01 Q1252.71 1482.55 1256.32 1482.55 Q1259.96 1482.55 1261.76 1479.01 Q1263.59 1475.44 1263.59 1468.33 Q1263.59 1461.2 1261.76 1457.66 Q1259.96 1454.1 1256.32 1454.1 M1256.32 1450.39 Q1262.13 1450.39 1265.19 1455 Q1268.27 1459.58 1268.27 1468.33 Q1268.27 1477.06 1265.19 1481.67 Q1262.13 1486.25 1256.32 1486.25 Q1250.51 1486.25 1247.43 1481.67 Q1244.38 1477.06 1244.38 1468.33 Q1244.38 1459.58 1247.43 1455 Q1250.51 1450.39 1256.32 1450.39 Z" fill="#000000" fill-rule="nonzero" fill-opacity="1" /><path clip-path="url(#clip760)" d="M1276.48 1479.7 L1281.37 1479.7 L1281.37 1485.58 L1276.48 1485.58 L1276.48 1479.7 Z" fill="#000000" fill-rule="nonzero" fill-opacity="1" /><path clip-path="url(#clip760)" d="M1301.55 1454.1 Q1297.94 1454.1 1296.11 1457.66 Q1294.31 1461.2 1294.31 1468.33 Q1294.31 1475.44 1296.11 1479.01 Q1297.94 1482.55 1301.55 1482.55 Q1305.19 1482.55 1306.99 1479.01 Q1308.82 1475.44 1308.82 1468.33 Q1308.82 1461.2 1306.99 1457.66 Q1305.19 1454.1 1301.55 1454.1 M1301.55 1450.39 Q1307.36 1450.39 1310.42 1455 Q1313.5 1459.58 1313.5 1468.33 Q1313.5 1477.06 1310.42 1481.67 Q1307.36 1486.25 1301.55 1486.25 Q1295.74 1486.25 1292.67 1481.67 Q1289.61 1477.06 1289.61 1468.33 Q1289.61 1459.58 1292.67 1455 Q1295.74 1450.39 1301.55 1450.39 Z" fill="#000000" fill-rule="nonzero" fill-opacity="1" /><path clip-path="url(#clip760)" d="M1680.61 1454.1 Q1677 1454.1 1675.17 1457.66 Q1673.37 1461.2 1673.37 1468.33 Q1673.37 1475.44 1675.17 1479.01 Q1677 1482.55 1680.61 1482.55 Q1684.25 1482.55 1686.05 1479.01 Q1687.88 1475.44 1687.88 1468.33 Q1687.88 1461.2 1686.05 1457.66 Q1684.25 1454.1 1680.61 1454.1 M1680.61 1450.39 Q1686.42 1450.39 1689.48 1455 Q1692.56 1459.58 1692.56 1468.33 Q1692.56 1477.06 1689.48 1481.67 Q1686.42 1486.25 1680.61 1486.25 Q1674.8 1486.25 1671.72 1481.67 Q1668.67 1477.06 1668.67 1468.33 Q1668.67 1459.58 1671.72 1455 Q1674.8 1450.39 1680.61 1450.39 Z" fill="#000000" fill-rule="nonzero" fill-opacity="1" /><path clip-path="url(#clip760)" d="M1700.78 1479.7 L1705.66 1479.7 L1705.66 1485.58 L1700.78 1485.58 L1700.78 1479.7 Z" fill="#000000" fill-rule="nonzero" fill-opacity="1" /><path clip-path="url(#clip760)" d="M1715.89 1451.02 L1734.25 1451.02 L1734.25 1454.96 L1720.17 1454.96 L1720.17 1463.43 Q1721.19 1463.08 1722.21 1462.92 Q1723.23 1462.73 1724.25 1462.73 Q1730.03 1462.73 1733.41 1465.9 Q1736.79 1469.08 1736.79 1474.49 Q1736.79 1480.07 1733.32 1483.17 Q1729.85 1486.25 1723.53 1486.25 Q1721.35 1486.25 1719.09 1485.88 Q1716.84 1485.51 1714.43 1484.77 L1714.43 1480.07 Q1716.52 1481.2 1718.74 1481.76 Q1720.96 1482.32 1723.44 1482.32 Q1727.44 1482.32 1729.78 1480.21 Q1732.12 1478.1 1732.12 1474.49 Q1732.12 1470.88 1729.78 1468.77 Q1727.44 1466.67 1723.44 1466.67 Q1721.56 1466.67 1719.69 1467.08 Q1717.84 1467.5 1715.89 1468.38 L1715.89 1451.02 Z" fill="#000000" fill-rule="nonzero" fill-opacity="1" /><path clip-path="url(#clip760)" d="M2093.68 1481.64 L2101.32 1481.64 L2101.32 1455.28 L2093.01 1456.95 L2093.01 1452.69 L2101.27 1451.02 L2105.95 1451.02 L2105.95 1481.64 L2113.59 1481.64 L2113.59 1485.58 L2093.68 1485.58 L2093.68 1481.64 Z" fill="#000000" fill-rule="nonzero" fill-opacity="1" /><path clip-path="url(#clip760)" d="M2123.03 1479.7 L2127.91 1479.7 L2127.91 1485.58 L2123.03 1485.58 L2123.03 1479.7 Z" fill="#000000" fill-rule="nonzero" fill-opacity="1" /><path clip-path="url(#clip760)" d="M2148.1 1454.1 Q2144.49 1454.1 2142.66 1457.66 Q2140.85 1461.2 2140.85 1468.33 Q2140.85 1475.44 2142.66 1479.01 Q2144.49 1482.55 2148.1 1482.55 Q2151.73 1482.55 2153.54 1479.01 Q2155.37 1475.44 2155.37 1468.33 Q2155.37 1461.2 2153.54 1457.66 Q2151.73 1454.1 2148.1 1454.1 M2148.1 1450.39 Q2153.91 1450.39 2156.96 1455 Q2160.04 1459.58 2160.04 1468.33 Q2160.04 1477.06 2156.96 1481.67 Q2153.91 1486.25 2148.1 1486.25 Q2142.29 1486.25 2139.21 1481.67 Q2136.15 1477.06 2136.15 1468.33 Q2136.15 1459.58 2139.21 1455 Q2142.29 1450.39 2148.1 1450.39 Z" fill="#000000" fill-rule="nonzero" fill-opacity="1" /><path clip-path="url(#clip760)" d="M1291.08 1528.74 Q1291.08 1530.45 1289.95 1531.54 Q1288.85 1532.64 1287.44 1532.64 Q1286.21 1532.64 1285.57 1531.93 Q1284.93 1531.22 1284.93 1530.32 Q1284.93 1529.03 1285.92 1527.97 Q1286.92 1526.9 1288.37 1526.68 Q1287.31 1525.91 1285.6 1525.91 Q1282.8 1525.91 1280.32 1528.06 Q1279.23 1529.06 1278.03 1530.9 Q1276.84 1532.7 1276.62 1533.47 L1274.52 1542.07 Q1274.33 1543.04 1273.14 1547.68 Q1271.98 1552.28 1271.88 1552.47 Q1271.56 1553.38 1270.85 1553.86 Q1270.14 1554.34 1269.43 1554.34 Q1268.63 1554.34 1268.08 1553.86 Q1267.53 1553.38 1267.53 1552.54 Q1267.53 1552.41 1267.63 1551.93 Q1267.73 1551.44 1267.89 1550.77 Q1268.05 1550.09 1268.11 1549.71 L1271.95 1534.47 Q1272.66 1531.7 1272.82 1530.83 Q1273.01 1529.93 1273.01 1528.93 Q1273.01 1527.19 1272.46 1526.55 Q1271.91 1525.91 1270.95 1525.91 Q1269.27 1525.91 1268.18 1527.9 Q1267.08 1529.9 1266.15 1533.76 Q1265.86 1534.83 1265.67 1535.05 Q1265.51 1535.28 1265.02 1535.28 Q1264.22 1535.24 1264.22 1534.6 Q1264.22 1534.44 1264.47 1533.41 Q1264.73 1532.35 1265.22 1530.8 Q1265.73 1529.22 1266.28 1528.22 Q1266.6 1527.55 1266.89 1527.1 Q1267.18 1526.65 1267.76 1525.94 Q1268.34 1525.23 1269.21 1524.84 Q1270.08 1524.46 1271.14 1524.46 Q1273.46 1524.46 1275.1 1525.87 Q1276.78 1527.29 1277.16 1529.51 Q1277.97 1528.35 1278.97 1527.35 Q1279.97 1526.32 1281.8 1525.39 Q1283.64 1524.46 1285.6 1524.46 Q1288.05 1524.46 1289.56 1525.71 Q1291.08 1526.94 1291.08 1528.74 Z" fill="#000000" fill-rule="nonzero" fill-opacity="1" /><polyline clip-path="url(#clip760)" style="stroke:#000000; stroke-linecap:round; stroke-linejoin:round; stroke-width:4; stroke-opacity:1; fill:none" points="205.121,1423.18 205.121,123.472 "/>
<polyline clip-path="url(#clip760)" style="stroke:#000000; stroke-linecap:round; stroke-linejoin:round; stroke-width:4; stroke-opacity:1; fill:none" points="205.121,1386.4 224.019,1386.4 "/>
<polyline clip-path="url(#clip760)" style="stroke:#000000; stroke-linecap:round; stroke-linejoin:round; stroke-width:4; stroke-opacity:1; fill:none" points="205.121,1141.17 224.019,1141.17 "/>
<polyline clip-path="url(#clip760)" style="stroke:#000000; stroke-linecap:round; stroke-linejoin:round; stroke-width:4; stroke-opacity:1; fill:none" points="205.121,895.94 224.019,895.94 "/>
<polyline clip-path="url(#clip760)" style="stroke:#000000; stroke-linecap:round; stroke-linejoin:round; stroke-width:4; stroke-opacity:1; fill:none" points="205.121,650.712 224.019,650.712 "/>
<polyline clip-path="url(#clip760)" style="stroke:#000000; stroke-linecap:round; stroke-linejoin:round; stroke-width:4; stroke-opacity:1; fill:none" points="205.121,405.484 224.019,405.484 "/>
<polyline clip-path="url(#clip760)" style="stroke:#000000; stroke-linecap:round; stroke-linejoin:round; stroke-width:4; stroke-opacity:1; fill:none" points="205.121,160.256 224.019,160.256 "/>
<path clip-path="url(#clip760)" d="M157.177 1372.19 Q153.566 1372.19 151.737 1375.76 Q149.931 1379.3 149.931 1386.43 Q149.931 1393.54 151.737 1397.1 Q153.566 1400.64 157.177 1400.64 Q160.811 1400.64 162.616 1397.1 Q164.445 1393.54 164.445 1386.43 Q164.445 1379.3 162.616 1375.76 Q160.811 1372.19 157.177 1372.19 M157.177 1368.49 Q162.987 1368.49 166.042 1373.1 Q169.121 1377.68 169.121 1386.43 Q169.121 1395.16 166.042 1399.76 Q162.987 1404.35 157.177 1404.35 Q151.366 1404.35 148.288 1399.76 Q145.232 1395.16 145.232 1386.43 Q145.232 1377.68 148.288 1373.1 Q151.366 1368.49 157.177 1368.49 Z" fill="#000000" fill-rule="nonzero" fill-opacity="1" /><path clip-path="url(#clip760)" d="M117.825 1154.51 L125.464 1154.51 L125.464 1128.15 L117.154 1129.81 L117.154 1125.55 L125.418 1123.89 L130.093 1123.89 L130.093 1154.51 L137.732 1154.51 L137.732 1158.45 L117.825 1158.45 L117.825 1154.51 Z" fill="#000000" fill-rule="nonzero" fill-opacity="1" /><path clip-path="url(#clip760)" d="M157.177 1126.97 Q153.566 1126.97 151.737 1130.53 Q149.931 1134.07 149.931 1141.2 Q149.931 1148.31 151.737 1151.87 Q153.566 1155.42 157.177 1155.42 Q160.811 1155.42 162.616 1151.87 Q164.445 1148.31 164.445 1141.2 Q164.445 1134.07 162.616 1130.53 Q160.811 1126.97 157.177 1126.97 M157.177 1123.26 Q162.987 1123.26 166.042 1127.87 Q169.121 1132.45 169.121 1141.2 Q169.121 1149.93 166.042 1154.54 Q162.987 1159.12 157.177 1159.12 Q151.366 1159.12 148.288 1154.54 Q145.232 1149.93 145.232 1141.2 Q145.232 1132.45 148.288 1127.87 Q151.366 1123.26 157.177 1123.26 Z" fill="#000000" fill-rule="nonzero" fill-opacity="1" /><path clip-path="url(#clip760)" d="M121.043 909.285 L137.362 909.285 L137.362 913.22 L115.418 913.22 L115.418 909.285 Q118.08 906.53 122.663 901.901 Q127.269 897.248 128.45 895.905 Q130.695 893.382 131.575 891.646 Q132.478 889.887 132.478 888.197 Q132.478 885.442 130.533 883.706 Q128.612 881.97 125.51 881.97 Q123.311 881.97 120.857 882.734 Q118.427 883.498 115.649 885.049 L115.649 880.327 Q118.473 879.192 120.927 878.614 Q123.38 878.035 125.418 878.035 Q130.788 878.035 133.982 880.72 Q137.177 883.405 137.177 887.896 Q137.177 890.026 136.367 891.947 Q135.579 893.845 133.473 896.438 Q132.894 897.109 129.792 900.326 Q126.691 903.521 121.043 909.285 Z" fill="#000000" fill-rule="nonzero" fill-opacity="1" /><path clip-path="url(#clip760)" d="M157.177 881.739 Q153.566 881.739 151.737 885.303 Q149.931 888.845 149.931 895.975 Q149.931 903.081 151.737 906.646 Q153.566 910.188 157.177 910.188 Q160.811 910.188 162.616 906.646 Q164.445 903.081 164.445 895.975 Q164.445 888.845 162.616 885.303 Q160.811 881.739 157.177 881.739 M157.177 878.035 Q162.987 878.035 166.042 882.641 Q169.121 887.225 169.121 895.975 Q169.121 904.701 166.042 909.308 Q162.987 913.891 157.177 913.891 Q151.366 913.891 148.288 909.308 Q145.232 904.701 145.232 895.975 Q145.232 887.225 148.288 882.641 Q151.366 878.035 157.177 878.035 Z" fill="#000000" fill-rule="nonzero" fill-opacity="1" /><path clip-path="url(#clip760)" d="M131.181 649.358 Q134.538 650.075 136.413 652.344 Q138.311 654.612 138.311 657.946 Q138.311 663.062 134.792 665.862 Q131.274 668.663 124.793 668.663 Q122.617 668.663 120.302 668.224 Q118.01 667.807 115.556 666.95 L115.556 662.437 Q117.501 663.571 119.816 664.149 Q122.13 664.728 124.654 664.728 Q129.052 664.728 131.343 662.992 Q133.658 661.256 133.658 657.946 Q133.658 654.89 131.505 653.177 Q129.376 651.441 125.556 651.441 L121.529 651.441 L121.529 647.599 L125.742 647.599 Q129.191 647.599 131.019 646.233 Q132.848 644.844 132.848 642.251 Q132.848 639.589 130.95 638.177 Q129.075 636.742 125.556 636.742 Q123.635 636.742 121.436 637.159 Q119.237 637.576 116.598 638.455 L116.598 634.289 Q119.26 633.548 121.575 633.177 Q123.913 632.807 125.973 632.807 Q131.297 632.807 134.399 635.238 Q137.501 637.645 137.501 641.765 Q137.501 644.636 135.857 646.626 Q134.214 648.594 131.181 649.358 Z" fill="#000000" fill-rule="nonzero" fill-opacity="1" /><path clip-path="url(#clip760)" d="M157.177 636.511 Q153.566 636.511 151.737 640.076 Q149.931 643.617 149.931 650.747 Q149.931 657.853 151.737 661.418 Q153.566 664.96 157.177 664.96 Q160.811 664.96 162.616 661.418 Q164.445 657.853 164.445 650.747 Q164.445 643.617 162.616 640.076 Q160.811 636.511 157.177 636.511 M157.177 632.807 Q162.987 632.807 166.042 637.414 Q169.121 641.997 169.121 650.747 Q169.121 659.474 166.042 664.08 Q162.987 668.663 157.177 668.663 Q151.366 668.663 148.288 664.08 Q145.232 659.474 145.232 650.747 Q145.232 641.997 148.288 637.414 Q151.366 632.807 157.177 632.807 Z" fill="#000000" fill-rule="nonzero" fill-opacity="1" /><path clip-path="url(#clip760)" d="M129.862 392.278 L118.056 410.727 L129.862 410.727 L129.862 392.278 M128.635 388.204 L134.515 388.204 L134.515 410.727 L139.445 410.727 L139.445 414.616 L134.515 414.616 L134.515 422.764 L129.862 422.764 L129.862 414.616 L114.26 414.616 L114.26 410.102 L128.635 388.204 Z" fill="#000000" fill-rule="nonzero" fill-opacity="1" /><path clip-path="url(#clip760)" d="M157.177 391.283 Q153.566 391.283 151.737 394.848 Q149.931 398.389 149.931 405.519 Q149.931 412.625 151.737 416.19 Q153.566 419.732 157.177 419.732 Q160.811 419.732 162.616 416.19 Q164.445 412.625 164.445 405.519 Q164.445 398.389 162.616 394.848 Q160.811 391.283 157.177 391.283 M157.177 387.579 Q162.987 387.579 166.042 392.186 Q169.121 396.769 169.121 405.519 Q169.121 414.246 166.042 418.852 Q162.987 423.435 157.177 423.435 Q151.366 423.435 148.288 418.852 Q145.232 414.246 145.232 405.519 Q145.232 396.769 148.288 392.186 Q151.366 387.579 157.177 387.579 Z" fill="#000000" fill-rule="nonzero" fill-opacity="1" /><path clip-path="url(#clip760)" d="M117.061 142.976 L135.417 142.976 L135.417 146.911 L121.343 146.911 L121.343 155.384 Q122.362 155.036 123.38 154.874 Q124.399 154.689 125.418 154.689 Q131.205 154.689 134.584 157.86 Q137.964 161.032 137.964 166.448 Q137.964 172.027 134.492 175.129 Q131.019 178.208 124.7 178.208 Q122.524 178.208 120.255 177.837 Q118.01 177.467 115.603 176.726 L115.603 172.027 Q117.686 173.161 119.908 173.717 Q122.13 174.272 124.607 174.272 Q128.612 174.272 130.95 172.166 Q133.288 170.059 133.288 166.448 Q133.288 162.837 130.95 160.731 Q128.612 158.624 124.607 158.624 Q122.732 158.624 120.857 159.041 Q119.006 159.458 117.061 160.337 L117.061 142.976 Z" fill="#000000" fill-rule="nonzero" fill-opacity="1" /><path clip-path="url(#clip760)" d="M157.177 146.055 Q153.566 146.055 151.737 149.62 Q149.931 153.161 149.931 160.291 Q149.931 167.397 151.737 170.962 Q153.566 174.504 157.177 174.504 Q160.811 174.504 162.616 170.962 Q164.445 167.397 164.445 160.291 Q164.445 153.161 162.616 149.62 Q160.811 146.055 157.177 146.055 M157.177 142.351 Q162.987 142.351 166.042 146.958 Q169.121 151.541 169.121 160.291 Q169.121 169.018 166.042 173.624 Q162.987 178.208 157.177 178.208 Q151.366 178.208 148.288 173.624 Q145.232 169.018 145.232 160.291 Q145.232 151.541 148.288 146.958 Q151.366 142.351 157.177 142.351 Z" fill="#000000" fill-rule="nonzero" fill-opacity="1" /><path clip-path="url(#clip760)" d="M29.4086 755.611 Q29.6662 755.611 31.9206 756.867 Q36.0752 758.96 42.4197 761.633 Q48.7643 764.306 53.4664 765.82 Q54.5936 766.142 56.0428 766.368 Q60.4872 766.947 67.3793 768.815 Q69.5371 769.459 70.4388 769.878 Q71.3406 770.297 71.3406 770.909 Q71.3406 771.778 70.149 771.778 Q68.9574 771.778 64.513 770.683 Q60.0686 769.556 55.9784 768.332 Q53.724 767.559 49.505 767.559 Q48.1524 767.559 46.9286 767.624 Q45.7047 767.688 43.9334 767.946 Q42.1621 768.203 40.7128 768.622 Q39.2636 769.041 37.7499 769.846 Q36.204 770.651 35.1734 771.746 Q34.1106 772.841 33.4343 774.516 Q32.758 776.158 32.758 778.219 Q32.758 778.735 32.8224 779.379 Q32.8546 779.991 33.2733 781.472 Q33.692 782.921 34.4327 784.145 Q35.1412 785.369 36.7193 786.69 Q38.2974 788.01 40.423 788.719 L40.745 788.976 Q40.745 789.395 40.745 789.62 Q40.7128 789.814 40.5518 790.039 Q40.3908 790.232 40.1009 790.232 Q39.4246 790.232 38.072 789.717 Q36.7193 789.169 34.9802 788.074 Q33.2411 786.947 31.6952 785.498 Q30.1493 784.016 29.0865 781.859 Q28.0237 779.701 28.0237 777.382 Q28.0237 771.424 35.27 768.59 Q41.4214 766.11 48.7321 765.885 Q35.7531 760.732 29.2153 757.189 Q28.7323 756.996 28.7323 756.416 Q28.7645 755.611 29.4086 755.611 Z" fill="#000000" fill-rule="nonzero" fill-opacity="1" /><path clip-path="url(#clip760)" d="M1108.01 18.8205 L1108.01 41.5461 L1118.3 41.5461 Q1124.01 41.5461 1127.13 38.5889 Q1130.25 35.6318 1130.25 30.163 Q1130.25 24.7348 1127.13 21.7777 Q1124.01 18.8205 1118.3 18.8205 L1108.01 18.8205 M1099.83 12.096 L1118.3 12.096 Q1128.47 12.096 1133.65 16.714 Q1138.88 21.2916 1138.88 30.163 Q1138.88 39.1155 1133.65 43.6931 Q1128.47 48.2706 1118.3 48.2706 L1108.01 48.2706 L1108.01 72.576 L1099.83 72.576 L1099.83 12.096 Z" fill="#000000" fill-rule="nonzero" fill-opacity="1" /><path clip-path="url(#clip760)" d="M1164.16 32.4315 Q1158.16 32.4315 1154.68 37.1306 Q1151.19 41.7891 1151.19 49.9314 Q1151.19 58.0738 1154.64 62.7728 Q1158.12 67.4314 1164.16 67.4314 Q1170.11 67.4314 1173.59 62.7323 Q1177.08 58.0333 1177.08 49.9314 Q1177.08 41.8701 1173.59 37.1711 Q1170.11 32.4315 1164.16 32.4315 M1164.16 26.1121 Q1173.88 26.1121 1179.43 32.4315 Q1184.98 38.7509 1184.98 49.9314 Q1184.98 61.0714 1179.43 67.4314 Q1173.88 73.7508 1164.16 73.7508 Q1154.39 73.7508 1148.84 67.4314 Q1143.33 61.0714 1143.33 49.9314 Q1143.33 38.7509 1148.84 32.4315 Q1154.39 26.1121 1164.16 26.1121 Z" fill="#000000" fill-rule="nonzero" fill-opacity="1" /><path clip-path="url(#clip760)" d="M1204.71 14.324 L1204.71 27.2059 L1220.06 27.2059 L1220.06 32.9987 L1204.71 32.9987 L1204.71 57.6282 Q1204.71 63.1779 1206.2 64.7578 Q1207.74 66.3376 1212.4 66.3376 L1220.06 66.3376 L1220.06 72.576 L1212.4 72.576 Q1203.77 72.576 1200.49 69.3758 Q1197.21 66.1351 1197.21 57.6282 L1197.21 32.9987 L1191.74 32.9987 L1191.74 27.2059 L1197.21 27.2059 L1197.21 14.324 L1204.71 14.324 Z" fill="#000000" fill-rule="nonzero" fill-opacity="1" /><path clip-path="url(#clip760)" d="M1268.67 48.0275 L1268.67 51.6733 L1234.4 51.6733 Q1234.88 59.3701 1239.02 63.421 Q1243.19 67.4314 1250.6 67.4314 Q1254.9 67.4314 1258.91 66.3781 Q1262.96 65.3249 1266.93 63.2184 L1266.93 70.267 Q1262.92 71.9684 1258.7 72.8596 Q1254.49 73.7508 1250.16 73.7508 Q1239.3 73.7508 1232.94 67.4314 Q1226.62 61.1119 1226.62 50.3365 Q1226.62 39.1965 1232.62 32.6746 Q1238.65 26.1121 1248.86 26.1121 Q1258.02 26.1121 1263.32 32.0264 Q1268.67 37.9003 1268.67 48.0275 M1261.22 45.84 Q1261.13 39.7232 1257.77 36.0774 Q1254.45 32.4315 1248.94 32.4315 Q1242.7 32.4315 1238.94 35.9558 Q1235.21 39.4801 1234.64 45.8805 L1261.22 45.84 Z" fill="#000000" fill-rule="nonzero" fill-opacity="1" /><path clip-path="url(#clip760)" d="M1318.62 45.1919 L1318.62 72.576 L1311.16 72.576 L1311.16 45.4349 Q1311.16 38.994 1308.65 35.7938 Q1306.14 32.5936 1301.12 32.5936 Q1295.08 32.5936 1291.6 36.4419 Q1288.11 40.2903 1288.11 46.9338 L1288.11 72.576 L1280.62 72.576 L1280.62 27.2059 L1288.11 27.2059 L1288.11 34.2544 Q1290.79 30.163 1294.39 28.1376 Q1298.04 26.1121 1302.78 26.1121 Q1310.6 26.1121 1314.61 30.9732 Q1318.62 35.7938 1318.62 45.1919 Z" fill="#000000" fill-rule="nonzero" fill-opacity="1" /><path clip-path="url(#clip760)" d="M1362.41 28.5427 L1362.41 35.5912 Q1359.25 33.9709 1355.84 33.1607 Q1352.44 32.3505 1348.8 32.3505 Q1343.25 32.3505 1340.45 34.0519 Q1337.7 35.7533 1337.7 39.156 Q1337.7 41.7486 1339.68 43.2475 Q1341.67 44.7058 1347.66 46.0426 L1350.21 46.6097 Q1358.15 48.3111 1361.48 51.4303 Q1364.84 54.509 1364.84 60.0587 Q1364.84 66.3781 1359.81 70.0644 Q1354.83 73.7508 1346.08 73.7508 Q1342.44 73.7508 1338.47 73.0216 Q1334.54 72.3329 1330.16 70.9151 L1330.16 63.2184 Q1334.29 65.3654 1338.3 66.4591 Q1342.31 67.5124 1346.24 67.5124 Q1351.51 67.5124 1354.35 65.73 Q1357.18 63.9071 1357.18 60.6258 Q1357.18 57.5877 1355.12 55.9673 Q1353.09 54.3469 1346.16 52.8481 L1343.57 52.2405 Q1336.64 50.7821 1333.56 47.7845 Q1330.49 44.7463 1330.49 39.4801 Q1330.49 33.0797 1335.02 29.5959 Q1339.56 26.1121 1347.91 26.1121 Q1352.04 26.1121 1355.68 26.7198 Q1359.33 27.3274 1362.41 28.5427 Z" fill="#000000" fill-rule="nonzero" fill-opacity="1" /><path clip-path="url(#clip760)" d="M1376.71 27.2059 L1384.16 27.2059 L1384.16 72.576 L1376.71 72.576 L1376.71 27.2059 M1376.71 9.54393 L1384.16 9.54393 L1384.16 18.9825 L1376.71 18.9825 L1376.71 9.54393 Z" fill="#000000" fill-rule="nonzero" fill-opacity="1" /><path clip-path="url(#clip760)" d="M1420.38 49.7694 Q1411.34 49.7694 1407.86 51.8354 Q1404.37 53.9013 1404.37 58.8839 Q1404.37 62.8538 1406.97 65.2034 Q1409.6 67.5124 1414.1 67.5124 Q1420.29 67.5124 1424.02 63.1374 Q1427.79 58.7219 1427.79 51.4303 L1427.79 49.7694 L1420.38 49.7694 M1435.24 46.6907 L1435.24 72.576 L1427.79 72.576 L1427.79 65.6895 Q1425.24 69.8214 1421.43 71.8063 Q1417.62 73.7508 1412.11 73.7508 Q1405.14 73.7508 1401.01 69.8619 Q1396.92 65.9325 1396.92 59.3701 Q1396.92 51.7138 1402.03 47.825 Q1407.17 43.9361 1417.34 43.9361 L1427.79 43.9361 L1427.79 43.2069 Q1427.79 38.0623 1424.39 35.2672 Q1421.02 32.4315 1414.91 32.4315 Q1411.02 32.4315 1407.33 33.3632 Q1403.65 34.295 1400.24 36.1584 L1400.24 29.2718 Q1404.33 27.692 1408.18 26.9223 Q1412.03 26.1121 1415.68 26.1121 Q1425.52 26.1121 1430.38 31.2163 Q1435.24 36.3204 1435.24 46.6907 Z" fill="#000000" fill-rule="nonzero" fill-opacity="1" /><path clip-path="url(#clip760)" d="M1450.6 9.54393 L1458.05 9.54393 L1458.05 72.576 L1450.6 72.576 L1450.6 9.54393 Z" fill="#000000" fill-rule="nonzero" fill-opacity="1" /><polyline clip-path="url(#clip762)" style="stroke:#009af9; stroke-linecap:round; stroke-linejoin:round; stroke-width:4; stroke-opacity:1; fill:none" points="265.903,160.256 269.972,160.256 274.04,160.256 278.108,160.256 282.177,160.256 286.245,160.256 290.314,160.256 294.382,160.256 298.45,160.256 302.519,160.256 306.587,160.256 310.656,160.256 314.724,160.256 318.792,160.256 322.861,160.256 326.929,160.256 330.998,160.256 335.066,160.256 339.135,160.256 343.203,160.256 347.271,160.256 351.34,160.256 355.408,160.256 359.477,160.256 363.545,160.256 367.613,160.256 371.682,160.256 375.75,160.256 379.819,160.256 383.887,160.256 387.956,160.256 392.024,160.256 396.092,160.256 400.161,160.256 404.229,160.256 408.298,160.256 412.366,160.256 416.434,160.256 420.503,160.256 424.571,160.256 428.64,160.256 432.708,1386.4 436.777,1386.4 440.845,1386.4 444.913,1386.4 448.982,1386.4 453.05,1386.4 457.119,1386.4 461.187,1386.4 465.255,1386.4 469.324,1386.4 473.392,1386.4 477.461,1386.4 481.529,1386.4 485.598,1386.4 489.666,1386.4 493.734,1386.4 497.803,1386.4 501.871,1386.4 505.94,1386.4 510.008,1386.4 514.076,1386.4 518.145,1386.4 522.213,1386.4 526.282,1386.4 530.35,1386.4 534.418,1386.4 538.487,1386.4 542.555,1386.4 546.624,1386.4 550.692,1386.4 554.761,1386.4 558.829,1386.4 562.897,1386.4 566.966,1386.4 571.034,1386.4 575.103,1386.4 579.171,1386.4 583.239,1386.4 587.308,1386.4 591.376,1386.4 595.445,1386.4 599.513,1386.4 603.582,1386.4 607.65,1386.4 611.718,1386.4 615.787,1386.4 619.855,1386.4 623.924,1386.4 627.992,1386.4 632.06,1386.4 636.129,1386.4 640.197,1386.4 644.266,1386.4 648.334,1386.4 652.403,1386.4 656.471,1386.4 660.539,1386.4 664.608,1386.4 668.676,1386.4 672.745,1386.4 676.813,1386.4 680.881,1386.4 684.95,1386.4 689.018,1386.4 693.087,1386.4 697.155,1386.4 701.224,1386.4 705.292,1386.4 709.36,1386.4 713.429,1386.4 717.497,1386.4 721.566,1386.4 725.634,1386.4 729.702,1386.4 733.771,1386.4 737.839,1386.4 741.908,1386.4 745.976,1386.4 750.044,1386.4 754.113,1386.4 758.181,1386.4 762.25,1386.4 766.318,1386.4 770.387,1386.4 774.455,1386.4 778.523,1386.4 782.592,1386.4 786.66,1386.4 790.729,1386.4 794.797,1386.4 798.865,1386.4 802.934,1386.4 807.002,1386.4 811.071,1386.4 815.139,1386.4 819.208,1386.4 823.276,1386.4 827.344,1386.4 831.413,1386.4 835.481,1386.4 839.55,1386.4 843.618,1386.4 847.686,1386.4 851.755,1386.4 855.823,1386.4 859.892,1386.4 863.96,1386.4 868.029,1386.4 872.097,1386.4 876.165,1386.4 880.234,1386.4 884.302,1386.4 888.371,1386.4 892.439,1386.4 896.507,1386.4 900.576,1386.4 904.644,1386.4 908.713,1386.4 912.781,1386.4 916.85,1386.4 920.918,1386.4 924.986,1386.4 929.055,1386.4 933.123,1386.4 937.192,1386.4 941.26,1386.4 945.328,1386.4 949.397,1386.4 953.465,1386.4 957.534,1386.4 961.602,1386.4 965.67,1386.4 969.739,1386.4 973.807,1386.4 977.876,1386.4 981.944,1386.4 986.013,1386.4 990.081,1386.4 994.149,1386.4 998.218,1386.4 1002.29,1386.4 1006.35,1386.4 1010.42,1386.4 1014.49,1386.4 1018.56,1386.4 1022.63,1386.4 1026.7,1386.4 1030.77,1386.4 1034.83,1386.4 1038.9,1386.4 1042.97,1386.4 1047.04,1386.4 1051.11,1386.4 1055.18,1386.4 1059.24,1386.4 1063.31,1386.4 1067.38,1386.4 1071.45,1386.4 1075.52,1386.4 1079.59,1386.4 1083.65,1386.4 1087.72,1386.4 1091.79,1386.4 1095.86,1386.4 1099.93,1386.4 1104,1386.4 1108.07,1386.4 1112.13,1386.4 1116.2,1386.4 1120.27,1386.4 1124.34,1386.4 1128.41,1386.4 1132.48,1386.4 1136.54,1386.4 1140.61,1386.4 1144.68,1386.4 1148.75,1386.4 1152.82,1386.4 1156.89,1386.4 1160.95,1386.4 1165.02,1386.4 1169.09,1386.4 1173.16,1386.4 1177.23,1386.4 1181.3,1386.4 1185.36,1386.4 1189.43,1386.4 1193.5,1386.4 1197.57,1386.4 1201.64,1386.4 1205.71,1386.4 1209.78,1386.4 1213.84,1386.4 1217.91,1386.4 1221.98,1386.4 1226.05,1386.4 1230.12,1386.4 1234.19,1386.4 1238.25,1386.4 1242.32,1386.4 1246.39,1386.4 1250.46,1386.4 1254.53,1386.4 1258.6,1386.4 1262.66,1386.4 1266.73,1386.4 1270.8,1386.4 1274.87,1386.4 1278.94,1386.4 1283.01,1386.4 1287.08,1386.4 1291.14,1386.4 1295.21,1386.4 1299.28,1386.4 1303.35,1386.4 1307.42,1386.4 1311.49,1386.4 1315.55,1386.4 1319.62,1386.4 1323.69,1386.4 1327.76,1386.4 1331.83,1386.4 1335.9,1386.4 1339.96,1386.4 1344.03,1386.4 1348.1,1386.4 1352.17,1386.4 1356.24,1386.4 1360.31,1386.4 1364.38,1386.4 1368.44,1386.4 1372.51,1386.4 1376.58,1386.4 1380.65,1386.4 1384.72,1386.4 1388.79,1386.4 1392.85,1386.4 1396.92,1386.4 1400.99,1386.4 1405.06,1386.4 1409.13,1386.4 1413.2,1386.4 1417.26,1386.4 1421.33,1386.4 1425.4,1386.4 1429.47,1386.4 1433.54,1386.4 1437.61,1386.4 1441.68,1386.4 1445.74,1386.4 1449.81,1386.4 1453.88,1386.4 1457.95,1386.4 1462.02,1386.4 1466.09,1386.4 1470.15,1386.4 1474.22,1386.4 1478.29,1386.4 1482.36,1386.4 1486.43,1386.4 1490.5,1386.4 1494.56,1386.4 1498.63,1386.4 1502.7,1386.4 1506.77,1386.4 1510.84,1386.4 1514.91,1386.4 1518.97,1386.4 1523.04,1386.4 1527.11,1386.4 1531.18,1386.4 1535.25,1386.4 1539.32,1386.4 1543.39,1386.4 1547.45,1386.4 1551.52,1386.4 1555.59,1386.4 1559.66,1386.4 1563.73,1386.4 1567.8,1386.4 1571.86,1386.4 1575.93,1386.4 1580,1386.4 1584.07,1386.4 1588.14,1386.4 1592.21,1386.4 1596.27,1386.4 1600.34,1386.4 1604.41,1386.4 1608.48,1386.4 1612.55,1386.4 1616.62,1386.4 1620.69,1386.4 1624.75,1386.4 1628.82,1386.4 1632.89,1386.4 1636.96,1386.4 1641.03,1386.4 1645.1,1386.4 1649.16,1386.4 1653.23,1386.4 1657.3,1386.4 1661.37,1386.4 1665.44,1386.4 1669.51,1386.4 1673.57,1386.4 1677.64,1386.4 1681.71,1386.4 1685.78,1386.4 1689.85,1386.4 1693.92,1386.4 1697.99,1386.4 1702.05,1386.4 1706.12,1386.4 1710.19,1386.4 1714.26,1386.4 1718.33,1386.4 1722.4,1386.4 1726.46,1386.4 1730.53,1386.4 1734.6,1386.4 1738.67,1386.4 1742.74,1386.4 1746.81,1386.4 1750.87,1386.4 1754.94,1386.4 1759.01,1386.4 1763.08,1386.4 1767.15,1386.4 1771.22,1386.4 1775.29,1386.4 1779.35,1386.4 1783.42,1386.4 1787.49,1386.4 1791.56,1386.4 1795.63,1386.4 1799.7,1386.4 1803.76,1386.4 1807.83,1386.4 1811.9,1386.4 1815.97,1386.4 1820.04,1386.4 1824.11,1386.4 1828.17,1386.4 1832.24,1386.4 1836.31,1386.4 1840.38,1386.4 1844.45,1386.4 1848.52,1386.4 1852.58,1386.4 1856.65,1386.4 1860.72,1386.4 1864.79,1386.4 1868.86,1386.4 1872.93,1386.4 1877,1386.4 1881.06,1386.4 1885.13,1386.4 1889.2,1386.4 1893.27,1386.4 1897.34,1386.4 1901.41,1386.4 1905.47,1386.4 1909.54,1386.4 1913.61,1386.4 1917.68,1386.4 1921.75,1386.4 1925.82,1386.4 1929.88,1386.4 1933.95,1386.4 1938.02,1386.4 1942.09,1386.4 1946.16,1386.4 1950.23,1386.4 1954.3,1386.4 1958.36,1386.4 1962.43,1386.4 1966.5,1386.4 1970.57,1386.4 1974.64,1386.4 1978.71,1386.4 1982.77,1386.4 1986.84,1386.4 1990.91,1386.4 1994.98,1386.4 1999.05,1386.4 2003.12,1386.4 2007.18,1386.4 2011.25,1386.4 2015.32,1386.4 2019.39,1386.4 2023.46,1386.4 2027.53,1386.4 2031.6,1386.4 2035.66,1386.4 2039.73,1386.4 2043.8,1386.4 2047.87,1386.4 2051.94,1386.4 2056.01,1386.4 2060.07,1386.4 2064.14,1386.4 2068.21,1386.4 2072.28,1386.4 2076.35,1386.4 2080.42,1386.4 2084.48,1386.4 2088.55,1386.4 2092.62,1386.4 2096.69,1386.4 2100.76,1386.4 2104.83,1386.4 2108.9,1386.4 2112.96,1386.4 2117.03,1386.4 2121.1,1386.4 2125.17,1386.4 2129.24,160.256 2133.31,160.256 2137.37,160.256 2141.44,160.256 2145.51,160.256 2149.58,160.256 2153.65,160.256 2157.72,160.256 2161.78,160.256 2165.85,160.256 2169.92,160.256 2173.99,160.256 2178.06,160.256 2182.13,160.256 2186.19,160.256 2190.26,160.256 2194.33,160.256 2198.4,160.256 2202.47,160.256 2206.54,160.256 2210.61,160.256 2214.67,160.256 2218.74,160.256 2222.81,160.256 2226.88,160.256 2230.95,160.256 2235.02,160.256 2239.08,160.256 2243.15,160.256 2247.22,160.256 2251.29,160.256 2255.36,160.256 2259.43,160.256 2263.49,160.256 2267.56,160.256 2271.63,160.256 2275.7,160.256 2279.77,160.256 2283.84,160.256 2287.91,160.256 2291.97,160.256 "/>
<path clip-path="url(#clip760)" d="M2013.97 1379.86 L2281.17 1379.86 L2281.17 1276.18 L2013.97 1276.18  Z" fill="#ffffff" fill-rule="evenodd" fill-opacity="1"/>
<polyline clip-path="url(#clip760)" style="stroke:#000000; stroke-linecap:round; stroke-linejoin:round; stroke-width:4; stroke-opacity:1; fill:none" points="2013.97,1379.86 2281.17,1379.86 2281.17,1276.18 2013.97,1276.18 2013.97,1379.86 "/>
<polyline clip-path="url(#clip760)" style="stroke:#009af9; stroke-linecap:round; stroke-linejoin:round; stroke-width:4; stroke-opacity:1; fill:none" points="2037.84,1328.02 2181.01,1328.02 "/>
<path clip-path="url(#clip760)" d="M2218.72 1347.7 Q2216.91 1352.33 2215.2 1353.75 Q2213.49 1355.16 2210.62 1355.16 L2207.21 1355.16 L2207.21 1351.59 L2209.71 1351.59 Q2211.47 1351.59 2212.44 1350.76 Q2213.42 1349.93 2214.6 1346.82 L2215.36 1344.88 L2204.88 1319.37 L2209.39 1319.37 L2217.49 1339.65 L2225.59 1319.37 L2230.11 1319.37 L2218.72 1347.7 Z" fill="#000000" fill-rule="nonzero" fill-opacity="1" /><path clip-path="url(#clip760)" d="M2237.4 1341.36 L2245.04 1341.36 L2245.04 1315 L2236.73 1316.66 L2236.73 1312.4 L2244.99 1310.74 L2249.67 1310.74 L2249.67 1341.36 L2257.31 1341.36 L2257.31 1345.3 L2237.4 1345.3 L2237.4 1341.36 Z" fill="#000000" fill-rule="nonzero" fill-opacity="1" /></svg>
