<?xml version="1.0" encoding="utf-8"?>
<svg xmlns="http://www.w3.org/2000/svg" xmlns:xlink="http://www.w3.org/1999/xlink" width="600" height="400" viewBox="0 0 2400 1600">
<defs>
  <clipPath id="clip220">
    <rect x="0" y="0" width="2400" height="1600"/>
  </clipPath>
</defs>
<path clip-path="url(#clip220)" d="M0 1600 L2400 1600 L2400 8.88178e-14 L0 8.88178e-14  Z" fill="#ffffff" fill-rule="evenodd" fill-opacity="1"/>
<defs>
  <clipPath id="clip221">
    <rect x="219" y="123" width="2134" height="1301"/>
  </clipPath>
</defs>
<path clip-path="url(#clip220)" d="M219.866 1423.18 L2352.76 1423.18 L2352.76 123.472 L219.866 123.472  Z" fill="#ffffff" fill-rule="evenodd" fill-opacity="1"/>
<polyline clip-path="url(#clip221)" style="stroke:#000000; stroke-linecap:round; stroke-linejoin:round; stroke-width:2; stroke-opacity:0.1; fill:none" points="238.311,1423.18 238.311,123.472 "/>
<polyline clip-path="url(#clip221)" style="stroke:#000000; stroke-linecap:round; stroke-linejoin:round; stroke-width:2; stroke-opacity:0.1; fill:none" points="751.831,1423.18 751.831,123.472 "/>
<polyline clip-path="url(#clip221)" style="stroke:#000000; stroke-linecap:round; stroke-linejoin:round; stroke-width:2; stroke-opacity:0.1; fill:none" points="1265.35,1423.18 1265.35,123.472 "/>
<polyline clip-path="url(#clip221)" style="stroke:#000000; stroke-linecap:round; stroke-linejoin:round; stroke-width:2; stroke-opacity:0.1; fill:none" points="1778.87,1423.18 1778.87,123.472 "/>
<polyline clip-path="url(#clip221)" style="stroke:#000000; stroke-linecap:round; stroke-linejoin:round; stroke-width:2; stroke-opacity:0.1; fill:none" points="2292.39,1423.18 2292.39,123.472 "/>
<polyline clip-path="url(#clip221)" style="stroke:#000000; stroke-linecap:round; stroke-linejoin:round; stroke-width:2; stroke-opacity:0.1; fill:none" points="219.866,1359.68 2352.76,1359.68 "/>
<polyline clip-path="url(#clip221)" style="stroke:#000000; stroke-linecap:round; stroke-linejoin:round; stroke-width:2; stroke-opacity:0.1; fill:none" points="219.866,1057.45 2352.76,1057.45 "/>
<polyline clip-path="url(#clip221)" style="stroke:#000000; stroke-linecap:round; stroke-linejoin:round; stroke-width:2; stroke-opacity:0.1; fill:none" points="219.866,755.227 2352.76,755.227 "/>
<polyline clip-path="url(#clip221)" style="stroke:#000000; stroke-linecap:round; stroke-linejoin:round; stroke-width:2; stroke-opacity:0.1; fill:none" points="219.866,453.001 2352.76,453.001 "/>
<polyline clip-path="url(#clip221)" style="stroke:#000000; stroke-linecap:round; stroke-linejoin:round; stroke-width:2; stroke-opacity:0.1; fill:none" points="219.866,150.774 2352.76,150.774 "/>
<polyline clip-path="url(#clip220)" style="stroke:#000000; stroke-linecap:round; stroke-linejoin:round; stroke-width:4; stroke-opacity:1; fill:none" points="219.866,1423.18 2352.76,1423.18 "/>
<polyline clip-path="url(#clip220)" style="stroke:#000000; stroke-linecap:round; stroke-linejoin:round; stroke-width:4; stroke-opacity:1; fill:none" points="238.311,1423.18 238.311,1404.28 "/>
<polyline clip-path="url(#clip220)" style="stroke:#000000; stroke-linecap:round; stroke-linejoin:round; stroke-width:4; stroke-opacity:1; fill:none" points="751.831,1423.18 751.831,1404.28 "/>
<polyline clip-path="url(#clip220)" style="stroke:#000000; stroke-linecap:round; stroke-linejoin:round; stroke-width:4; stroke-opacity:1; fill:none" points="1265.35,1423.18 1265.35,1404.28 "/>
<polyline clip-path="url(#clip220)" style="stroke:#000000; stroke-linecap:round; stroke-linejoin:round; stroke-width:4; stroke-opacity:1; fill:none" points="1778.87,1423.18 1778.87,1404.28 "/>
<polyline clip-path="url(#clip220)" style="stroke:#000000; stroke-linecap:round; stroke-linejoin:round; stroke-width:4; stroke-opacity:1; fill:none" points="2292.39,1423.18 2292.39,1404.28 "/>
<path clip-path="url(#clip220)" d="M215.695 1454.1 Q212.084 1454.1 210.256 1457.66 Q208.45 1461.2 208.45 1468.33 Q208.45 1475.44 210.256 1479.01 Q212.084 1482.55 215.695 1482.55 Q219.33 1482.55 221.135 1479.01 Q222.964 1475.44 222.964 1468.33 Q222.964 1461.2 221.135 1457.66 Q219.33 1454.1 215.695 1454.1 M215.695 1450.39 Q221.506 1450.39 224.561 1455 Q227.64 1459.58 227.64 1468.33 Q227.64 1477.06 224.561 1481.67 Q221.506 1486.25 215.695 1486.25 Q209.885 1486.25 206.807 1481.67 Q203.751 1477.06 203.751 1468.33 Q203.751 1459.58 206.807 1455 Q209.885 1450.39 215.695 1450.39 Z" fill="#000000" fill-rule="nonzero" fill-opacity="1" /><path clip-path="url(#clip220)" d="M235.857 1479.7 L240.742 1479.7 L240.742 1485.58 L235.857 1485.58 L235.857 1479.7 Z" fill="#000000" fill-rule="nonzero" fill-opacity="1" /><path clip-path="url(#clip220)" d="M260.927 1454.1 Q257.316 1454.1 255.487 1457.66 Q253.681 1461.2 253.681 1468.33 Q253.681 1475.44 255.487 1479.01 Q257.316 1482.55 260.927 1482.55 Q264.561 1482.55 266.366 1479.01 Q268.195 1475.44 268.195 1468.33 Q268.195 1461.2 266.366 1457.66 Q264.561 1454.1 260.927 1454.1 M260.927 1450.39 Q266.737 1450.39 269.792 1455 Q272.871 1459.58 272.871 1468.33 Q272.871 1477.06 269.792 1481.67 Q266.737 1486.25 260.927 1486.25 Q255.117 1486.25 252.038 1481.67 Q248.982 1477.06 248.982 1468.33 Q248.982 1459.58 252.038 1455 Q255.117 1450.39 260.927 1450.39 Z" fill="#000000" fill-rule="nonzero" fill-opacity="1" /><path clip-path="url(#clip220)" d="M723.567 1481.64 L739.887 1481.64 L739.887 1485.58 L717.942 1485.58 L717.942 1481.64 Q720.604 1478.89 725.188 1474.26 Q729.794 1469.61 730.975 1468.27 Q733.22 1465.74 734.1 1464.01 Q735.002 1462.25 735.002 1460.56 Q735.002 1457.8 733.058 1456.07 Q731.137 1454.33 728.035 1454.33 Q725.836 1454.33 723.382 1455.09 Q720.952 1455.86 718.174 1457.41 L718.174 1452.69 Q720.998 1451.55 723.452 1450.97 Q725.905 1450.39 727.942 1450.39 Q733.313 1450.39 736.507 1453.08 Q739.702 1455.77 739.702 1460.26 Q739.702 1462.39 738.891 1464.31 Q738.104 1466.2 735.998 1468.8 Q735.419 1469.47 732.317 1472.69 Q729.215 1475.88 723.567 1481.64 Z" fill="#000000" fill-rule="nonzero" fill-opacity="1" /><path clip-path="url(#clip220)" d="M749.701 1479.7 L754.586 1479.7 L754.586 1485.58 L749.701 1485.58 L749.701 1479.7 Z" fill="#000000" fill-rule="nonzero" fill-opacity="1" /><path clip-path="url(#clip220)" d="M764.817 1451.02 L783.174 1451.02 L783.174 1454.96 L769.1 1454.96 L769.1 1463.43 Q770.118 1463.08 771.137 1462.92 Q772.155 1462.73 773.174 1462.73 Q778.961 1462.73 782.34 1465.9 Q785.72 1469.08 785.72 1474.49 Q785.72 1480.07 782.248 1483.17 Q778.775 1486.25 772.456 1486.25 Q770.28 1486.25 768.012 1485.88 Q765.766 1485.51 763.359 1484.77 L763.359 1480.07 Q765.442 1481.2 767.664 1481.76 Q769.887 1482.32 772.363 1482.32 Q776.368 1482.32 778.706 1480.21 Q781.044 1478.1 781.044 1474.49 Q781.044 1470.88 778.706 1468.77 Q776.368 1466.67 772.363 1466.67 Q770.488 1466.67 768.613 1467.08 Q766.762 1467.5 764.817 1468.38 L764.817 1451.02 Z" fill="#000000" fill-rule="nonzero" fill-opacity="1" /><path clip-path="url(#clip220)" d="M1232.52 1451.02 L1250.87 1451.02 L1250.87 1454.96 L1236.8 1454.96 L1236.8 1463.43 Q1237.82 1463.08 1238.84 1462.92 Q1239.85 1462.73 1240.87 1462.73 Q1246.66 1462.73 1250.04 1465.9 Q1253.42 1469.08 1253.42 1474.49 Q1253.42 1480.07 1249.95 1483.17 Q1246.47 1486.25 1240.15 1486.25 Q1237.98 1486.25 1235.71 1485.88 Q1233.46 1485.51 1231.06 1484.77 L1231.06 1480.07 Q1233.14 1481.2 1235.36 1481.76 Q1237.59 1482.32 1240.06 1482.32 Q1244.07 1482.32 1246.4 1480.21 Q1248.74 1478.1 1248.74 1474.49 Q1248.74 1470.88 1246.4 1468.77 Q1244.07 1466.67 1240.06 1466.67 Q1238.19 1466.67 1236.31 1467.08 Q1234.46 1467.5 1232.52 1468.38 L1232.52 1451.02 Z" fill="#000000" fill-rule="nonzero" fill-opacity="1" /><path clip-path="url(#clip220)" d="M1262.63 1479.7 L1267.52 1479.7 L1267.52 1485.58 L1262.63 1485.58 L1262.63 1479.7 Z" fill="#000000" fill-rule="nonzero" fill-opacity="1" /><path clip-path="url(#clip220)" d="M1287.7 1454.1 Q1284.09 1454.1 1282.26 1457.66 Q1280.46 1461.2 1280.46 1468.33 Q1280.46 1475.44 1282.26 1479.01 Q1284.09 1482.55 1287.7 1482.55 Q1291.33 1482.55 1293.14 1479.01 Q1294.97 1475.44 1294.97 1468.33 Q1294.97 1461.2 1293.14 1457.66 Q1291.33 1454.1 1287.7 1454.1 M1287.7 1450.39 Q1293.51 1450.39 1296.57 1455 Q1299.64 1459.58 1299.64 1468.33 Q1299.64 1477.06 1296.57 1481.67 Q1293.51 1486.25 1287.7 1486.25 Q1281.89 1486.25 1278.81 1481.67 Q1275.76 1477.06 1275.76 1468.33 Q1275.76 1459.58 1278.81 1455 Q1281.89 1450.39 1287.7 1450.39 Z" fill="#000000" fill-rule="nonzero" fill-opacity="1" /><path clip-path="url(#clip220)" d="M1745.19 1451.02 L1767.41 1451.02 L1767.41 1453.01 L1754.87 1485.58 L1749.98 1485.58 L1761.79 1454.96 L1745.19 1454.96 L1745.19 1451.02 Z" fill="#000000" fill-rule="nonzero" fill-opacity="1" /><path clip-path="url(#clip220)" d="M1776.53 1479.7 L1781.42 1479.7 L1781.42 1485.58 L1776.53 1485.58 L1776.53 1479.7 Z" fill="#000000" fill-rule="nonzero" fill-opacity="1" /><path clip-path="url(#clip220)" d="M1791.65 1451.02 L1810.01 1451.02 L1810.01 1454.96 L1795.93 1454.96 L1795.93 1463.43 Q1796.95 1463.08 1797.97 1462.92 Q1798.99 1462.73 1800.01 1462.73 Q1805.79 1462.73 1809.17 1465.9 Q1812.55 1469.08 1812.55 1474.49 Q1812.55 1480.07 1809.08 1483.17 Q1805.61 1486.25 1799.29 1486.25 Q1797.11 1486.25 1794.84 1485.88 Q1792.6 1485.51 1790.19 1484.77 L1790.19 1480.07 Q1792.27 1481.2 1794.5 1481.76 Q1796.72 1482.32 1799.2 1482.32 Q1803.2 1482.32 1805.54 1480.21 Q1807.88 1478.1 1807.88 1474.49 Q1807.88 1470.88 1805.54 1468.77 Q1803.2 1466.67 1799.2 1466.67 Q1797.32 1466.67 1795.45 1467.08 Q1793.59 1467.5 1791.65 1468.38 L1791.65 1451.02 Z" fill="#000000" fill-rule="nonzero" fill-opacity="1" /><path clip-path="url(#clip220)" d="M2244.46 1481.64 L2252.1 1481.64 L2252.1 1455.28 L2243.79 1456.95 L2243.79 1452.69 L2252.06 1451.02 L2256.73 1451.02 L2256.73 1481.64 L2264.37 1481.64 L2264.37 1485.58 L2244.46 1485.58 L2244.46 1481.64 Z" fill="#000000" fill-rule="nonzero" fill-opacity="1" /><path clip-path="url(#clip220)" d="M2283.81 1454.1 Q2280.2 1454.1 2278.37 1457.66 Q2276.57 1461.2 2276.57 1468.33 Q2276.57 1475.44 2278.37 1479.01 Q2280.2 1482.55 2283.81 1482.55 Q2287.45 1482.55 2289.25 1479.01 Q2291.08 1475.44 2291.08 1468.33 Q2291.08 1461.2 2289.25 1457.66 Q2287.45 1454.1 2283.81 1454.1 M2283.81 1450.39 Q2289.62 1450.39 2292.68 1455 Q2295.76 1459.58 2295.76 1468.33 Q2295.76 1477.06 2292.68 1481.67 Q2289.62 1486.25 2283.81 1486.25 Q2278 1486.25 2274.93 1481.67 Q2271.87 1477.06 2271.87 1468.33 Q2271.87 1459.58 2274.93 1455 Q2278 1450.39 2283.81 1450.39 Z" fill="#000000" fill-rule="nonzero" fill-opacity="1" /><path clip-path="url(#clip220)" d="M2303.98 1479.7 L2308.86 1479.7 L2308.86 1485.58 L2303.98 1485.58 L2303.98 1479.7 Z" fill="#000000" fill-rule="nonzero" fill-opacity="1" /><path clip-path="url(#clip220)" d="M2329.05 1454.1 Q2325.43 1454.1 2323.61 1457.66 Q2321.8 1461.2 2321.8 1468.33 Q2321.8 1475.44 2323.61 1479.01 Q2325.43 1482.55 2329.05 1482.55 Q2332.68 1482.55 2334.49 1479.01 Q2336.31 1475.44 2336.31 1468.33 Q2336.31 1461.2 2334.49 1457.66 Q2332.68 1454.1 2329.05 1454.1 M2329.05 1450.39 Q2334.86 1450.39 2337.91 1455 Q2340.99 1459.58 2340.99 1468.33 Q2340.99 1477.06 2337.91 1481.67 Q2334.86 1486.25 2329.05 1486.25 Q2323.24 1486.25 2320.16 1481.67 Q2317.1 1477.06 2317.1 1468.33 Q2317.1 1459.58 2320.16 1455 Q2323.24 1450.39 2329.05 1450.39 Z" fill="#000000" fill-rule="nonzero" fill-opacity="1" /><path clip-path="url(#clip220)" d="M1298.45 1528.74 Q1298.45 1530.45 1297.32 1531.54 Q1296.23 1532.64 1294.81 1532.64 Q1293.59 1532.64 1292.94 1531.93 Q1292.3 1531.22 1292.3 1530.32 Q1292.3 1529.03 1293.3 1527.97 Q1294.3 1526.9 1295.74 1526.68 Q1294.68 1525.91 1292.97 1525.91 Q1290.17 1525.91 1287.69 1528.06 Q1286.6 1529.06 1285.41 1530.9 Q1284.21 1532.7 1283.99 1533.47 L1281.9 1542.07 Q1281.7 1543.04 1280.51 1547.68 Q1279.35 1552.28 1279.25 1552.47 Q1278.93 1553.38 1278.22 1553.86 Q1277.52 1554.34 1276.81 1554.34 Q1276 1554.34 1275.45 1553.86 Q1274.91 1553.38 1274.91 1552.54 Q1274.91 1552.41 1275 1551.93 Q1275.1 1551.44 1275.26 1550.77 Q1275.42 1550.09 1275.49 1549.71 L1279.32 1534.47 Q1280.03 1531.7 1280.19 1530.83 Q1280.38 1529.93 1280.38 1528.93 Q1280.38 1527.19 1279.83 1526.55 Q1279.29 1525.91 1278.32 1525.91 Q1276.65 1525.91 1275.55 1527.9 Q1274.46 1529.9 1273.52 1533.76 Q1273.23 1534.83 1273.04 1535.05 Q1272.88 1535.28 1272.4 1535.28 Q1271.59 1535.24 1271.59 1534.6 Q1271.59 1534.44 1271.85 1533.41 Q1272.11 1532.35 1272.59 1530.8 Q1273.1 1529.22 1273.65 1528.22 Q1273.97 1527.55 1274.26 1527.1 Q1274.55 1526.65 1275.13 1525.94 Q1275.71 1525.23 1276.58 1524.84 Q1277.45 1524.46 1278.51 1524.46 Q1280.83 1524.46 1282.48 1525.87 Q1284.15 1527.29 1284.54 1529.51 Q1285.34 1528.35 1286.34 1527.35 Q1287.34 1526.32 1289.17 1525.39 Q1291.01 1524.46 1292.97 1524.46 Q1295.42 1524.46 1296.94 1525.71 Q1298.45 1526.94 1298.45 1528.74 Z" fill="#000000" fill-rule="nonzero" fill-opacity="1" /><polyline clip-path="url(#clip220)" style="stroke:#000000; stroke-linecap:round; stroke-linejoin:round; stroke-width:4; stroke-opacity:1; fill:none" points="219.866,1423.18 219.866,123.472 "/>
<polyline clip-path="url(#clip220)" style="stroke:#000000; stroke-linecap:round; stroke-linejoin:round; stroke-width:4; stroke-opacity:1; fill:none" points="219.866,1359.68 238.764,1359.68 "/>
<polyline clip-path="url(#clip220)" style="stroke:#000000; stroke-linecap:round; stroke-linejoin:round; stroke-width:4; stroke-opacity:1; fill:none" points="219.866,1057.45 238.764,1057.45 "/>
<polyline clip-path="url(#clip220)" style="stroke:#000000; stroke-linecap:round; stroke-linejoin:round; stroke-width:4; stroke-opacity:1; fill:none" points="219.866,755.227 238.764,755.227 "/>
<polyline clip-path="url(#clip220)" style="stroke:#000000; stroke-linecap:round; stroke-linejoin:round; stroke-width:4; stroke-opacity:1; fill:none" points="219.866,453.001 238.764,453.001 "/>
<polyline clip-path="url(#clip220)" style="stroke:#000000; stroke-linecap:round; stroke-linejoin:round; stroke-width:4; stroke-opacity:1; fill:none" points="219.866,150.774 238.764,150.774 "/>
<path clip-path="url(#clip220)" d="M128.288 1345.48 Q124.677 1345.48 122.848 1349.04 Q121.043 1352.58 121.043 1359.71 Q121.043 1366.82 122.848 1370.39 Q124.677 1373.93 128.288 1373.93 Q131.922 1373.93 133.728 1370.39 Q135.556 1366.82 135.556 1359.71 Q135.556 1352.58 133.728 1349.04 Q131.922 1345.48 128.288 1345.48 M128.288 1341.77 Q134.098 1341.77 137.154 1346.38 Q140.232 1350.96 140.232 1359.71 Q140.232 1368.44 137.154 1373.05 Q134.098 1377.63 128.288 1377.63 Q122.478 1377.63 119.399 1373.05 Q116.343 1368.44 116.343 1359.71 Q116.343 1350.96 119.399 1346.38 Q122.478 1341.77 128.288 1341.77 Z" fill="#000000" fill-rule="nonzero" fill-opacity="1" /><path clip-path="url(#clip220)" d="M148.45 1371.08 L153.334 1371.08 L153.334 1376.96 L148.45 1376.96 L148.45 1371.08 Z" fill="#000000" fill-rule="nonzero" fill-opacity="1" /><path clip-path="url(#clip220)" d="M167.547 1373.02 L183.866 1373.02 L183.866 1376.96 L161.922 1376.96 L161.922 1373.02 Q164.584 1370.27 169.167 1365.64 Q173.774 1360.99 174.954 1359.64 Q177.2 1357.12 178.079 1355.39 Q178.982 1353.63 178.982 1351.94 Q178.982 1349.18 177.038 1347.45 Q175.116 1345.71 172.014 1345.71 Q169.815 1345.71 167.362 1346.47 Q164.931 1347.24 162.153 1348.79 L162.153 1344.07 Q164.977 1342.93 167.431 1342.35 Q169.885 1341.77 171.922 1341.77 Q177.292 1341.77 180.487 1344.46 Q183.681 1347.15 183.681 1351.64 Q183.681 1353.77 182.871 1355.69 Q182.084 1357.58 179.977 1360.18 Q179.399 1360.85 176.297 1364.07 Q173.195 1367.26 167.547 1373.02 Z" fill="#000000" fill-rule="nonzero" fill-opacity="1" /><path clip-path="url(#clip220)" d="M126.205 1043.25 Q122.593 1043.25 120.765 1046.82 Q118.959 1050.36 118.959 1057.49 Q118.959 1064.59 120.765 1068.16 Q122.593 1071.7 126.205 1071.7 Q129.839 1071.7 131.644 1068.16 Q133.473 1064.59 133.473 1057.49 Q133.473 1050.36 131.644 1046.82 Q129.839 1043.25 126.205 1043.25 M126.205 1039.55 Q132.015 1039.55 135.07 1044.15 Q138.149 1048.74 138.149 1057.49 Q138.149 1066.21 135.07 1070.82 Q132.015 1075.4 126.205 1075.4 Q120.394 1075.4 117.316 1070.82 Q114.26 1066.21 114.26 1057.49 Q114.26 1048.74 117.316 1044.15 Q120.394 1039.55 126.205 1039.55 Z" fill="#000000" fill-rule="nonzero" fill-opacity="1" /><path clip-path="url(#clip220)" d="M146.366 1068.85 L151.251 1068.85 L151.251 1074.73 L146.366 1074.73 L146.366 1068.85 Z" fill="#000000" fill-rule="nonzero" fill-opacity="1" /><path clip-path="url(#clip220)" d="M174.283 1044.25 L162.477 1062.7 L174.283 1062.7 L174.283 1044.25 M173.056 1040.17 L178.936 1040.17 L178.936 1062.7 L183.866 1062.7 L183.866 1066.59 L178.936 1066.59 L178.936 1074.73 L174.283 1074.73 L174.283 1066.59 L158.681 1066.59 L158.681 1062.07 L173.056 1040.17 Z" fill="#000000" fill-rule="nonzero" fill-opacity="1" /><path clip-path="url(#clip220)" d="M126.529 741.026 Q122.918 741.026 121.089 744.591 Q119.283 748.132 119.283 755.262 Q119.283 762.368 121.089 765.933 Q122.918 769.475 126.529 769.475 Q130.163 769.475 131.968 765.933 Q133.797 762.368 133.797 755.262 Q133.797 748.132 131.968 744.591 Q130.163 741.026 126.529 741.026 M126.529 737.322 Q132.339 737.322 135.394 741.929 Q138.473 746.512 138.473 755.262 Q138.473 763.989 135.394 768.595 Q132.339 773.178 126.529 773.178 Q120.718 773.178 117.64 768.595 Q114.584 763.989 114.584 755.262 Q114.584 746.512 117.64 741.929 Q120.718 737.322 126.529 737.322 Z" fill="#000000" fill-rule="nonzero" fill-opacity="1" /><path clip-path="url(#clip220)" d="M146.691 766.627 L151.575 766.627 L151.575 772.507 L146.691 772.507 L146.691 766.627 Z" fill="#000000" fill-rule="nonzero" fill-opacity="1" /><path clip-path="url(#clip220)" d="M172.339 753.364 Q169.19 753.364 167.339 755.516 Q165.51 757.669 165.51 761.419 Q165.51 765.146 167.339 767.322 Q169.19 769.475 172.339 769.475 Q175.487 769.475 177.315 767.322 Q179.167 765.146 179.167 761.419 Q179.167 757.669 177.315 755.516 Q175.487 753.364 172.339 753.364 M181.621 738.711 L181.621 742.97 Q179.862 742.137 178.056 741.697 Q176.274 741.257 174.514 741.257 Q169.885 741.257 167.431 744.382 Q165.001 747.507 164.653 753.827 Q166.019 751.813 168.079 750.748 Q170.139 749.66 172.616 749.66 Q177.825 749.66 180.834 752.831 Q183.866 755.979 183.866 761.419 Q183.866 766.743 180.718 769.961 Q177.57 773.178 172.339 773.178 Q166.343 773.178 163.172 768.595 Q160.001 763.989 160.001 755.262 Q160.001 747.067 163.89 742.206 Q167.778 737.322 174.329 737.322 Q176.089 737.322 177.871 737.669 Q179.676 738.016 181.621 738.711 Z" fill="#000000" fill-rule="nonzero" fill-opacity="1" /><path clip-path="url(#clip220)" d="M126.783 438.799 Q123.172 438.799 121.343 442.364 Q119.538 445.906 119.538 453.035 Q119.538 460.142 121.343 463.707 Q123.172 467.248 126.783 467.248 Q130.417 467.248 132.223 463.707 Q134.052 460.142 134.052 453.035 Q134.052 445.906 132.223 442.364 Q130.417 438.799 126.783 438.799 M126.783 435.096 Q132.593 435.096 135.649 439.702 Q138.728 444.286 138.728 453.035 Q138.728 461.762 135.649 466.369 Q132.593 470.952 126.783 470.952 Q120.973 470.952 117.894 466.369 Q114.839 461.762 114.839 453.035 Q114.839 444.286 117.894 439.702 Q120.973 435.096 126.783 435.096 Z" fill="#000000" fill-rule="nonzero" fill-opacity="1" /><path clip-path="url(#clip220)" d="M146.945 464.401 L151.829 464.401 L151.829 470.281 L146.945 470.281 L146.945 464.401 Z" fill="#000000" fill-rule="nonzero" fill-opacity="1" /><path clip-path="url(#clip220)" d="M172.014 453.869 Q168.681 453.869 166.76 455.651 Q164.862 457.434 164.862 460.559 Q164.862 463.684 166.76 465.466 Q168.681 467.248 172.014 467.248 Q175.348 467.248 177.269 465.466 Q179.19 463.66 179.19 460.559 Q179.19 457.434 177.269 455.651 Q175.371 453.869 172.014 453.869 M167.339 451.878 Q164.329 451.137 162.64 449.077 Q160.973 447.017 160.973 444.054 Q160.973 439.911 163.913 437.503 Q166.876 435.096 172.014 435.096 Q177.176 435.096 180.116 437.503 Q183.056 439.911 183.056 444.054 Q183.056 447.017 181.366 449.077 Q179.7 451.137 176.714 451.878 Q180.093 452.665 181.968 454.957 Q183.866 457.248 183.866 460.559 Q183.866 465.582 180.788 468.267 Q177.732 470.952 172.014 470.952 Q166.297 470.952 163.218 468.267 Q160.163 465.582 160.163 460.559 Q160.163 457.248 162.061 454.957 Q163.959 452.665 167.339 451.878 M165.626 444.494 Q165.626 447.179 167.292 448.684 Q168.982 450.188 172.014 450.188 Q175.024 450.188 176.714 448.684 Q178.426 447.179 178.426 444.494 Q178.426 441.809 176.714 440.304 Q175.024 438.799 172.014 438.799 Q168.982 438.799 167.292 440.304 Q165.626 441.809 165.626 444.494 Z" fill="#000000" fill-rule="nonzero" fill-opacity="1" /><path clip-path="url(#clip220)" d="M117.501 164.119 L125.14 164.119 L125.14 137.754 L116.83 139.42 L116.83 135.161 L125.093 133.494 L129.769 133.494 L129.769 164.119 L137.408 164.119 L137.408 168.054 L117.501 168.054 L117.501 164.119 Z" fill="#000000" fill-rule="nonzero" fill-opacity="1" /><path clip-path="url(#clip220)" d="M146.853 162.175 L151.737 162.175 L151.737 168.054 L146.853 168.054 L146.853 162.175 Z" fill="#000000" fill-rule="nonzero" fill-opacity="1" /><path clip-path="url(#clip220)" d="M171.922 136.573 Q168.311 136.573 166.482 140.138 Q164.677 143.68 164.677 150.809 Q164.677 157.916 166.482 161.48 Q168.311 165.022 171.922 165.022 Q175.556 165.022 177.362 161.48 Q179.19 157.916 179.19 150.809 Q179.19 143.68 177.362 140.138 Q175.556 136.573 171.922 136.573 M171.922 132.869 Q177.732 132.869 180.788 137.476 Q183.866 142.059 183.866 150.809 Q183.866 159.536 180.788 164.142 Q177.732 168.726 171.922 168.726 Q166.112 168.726 163.033 164.142 Q159.978 159.536 159.978 150.809 Q159.978 142.059 163.033 137.476 Q166.112 132.869 171.922 132.869 Z" fill="#000000" fill-rule="nonzero" fill-opacity="1" /><path clip-path="url(#clip220)" d="M21.8332 793.433 Q23.0249 793.498 23.0893 794.303 Q23.1537 795.527 23.3147 796.268 Q23.4435 797.008 23.9266 798.168 Q24.4097 799.327 25.5691 800.454 Q26.7285 801.582 28.5643 802.741 L66.3417 826.477 Q67.0503 826.895 67.2757 827.25 Q67.5334 827.572 67.5334 828.312 Q67.5334 828.989 67.2435 829.246 Q66.9859 829.504 66.0197 829.633 L25.3115 834.85 Q24.5707 834.947 24.2487 835.043 Q23.9266 835.14 23.6046 835.527 Q23.2825 835.881 23.1859 836.654 Q23.0893 837.427 23.0893 838.811 Q23.0893 839.456 23.0571 839.745 Q23.0249 840.003 22.8638 840.229 Q22.6706 840.454 22.2841 840.454 Q21.7044 840.454 21.4146 840.229 Q21.0925 839.971 21.0603 839.778 Q21.0281 839.552 21.0281 839.198 Q21.0281 838.65 21.0925 837.459 Q21.1569 836.267 21.1569 835.655 Q21.1569 835.076 21.1891 833.852 Q21.2213 832.628 21.2213 832.016 Q21.2213 830.663 21.1247 827.926 Q21.0281 825.156 21.0281 823.836 Q21.0281 822.934 21.7688 822.934 Q22.6706 822.934 22.896 823.32 Q23.0893 823.707 23.0893 824.577 Q23.0893 826.767 23.6368 827.958 Q24.1843 829.118 25.0538 829.118 L59.965 824.641 L27.7591 804.383 Q26.2454 803.385 25.2471 803.385 Q23.3147 803.385 23.0893 806.445 Q23.0893 807.475 22.2841 807.475 Q21.7044 807.475 21.4146 807.218 Q21.0925 806.96 21.0603 806.767 Q21.0281 806.541 21.0281 806.219 Q21.0281 805.156 21.1247 802.999 Q21.2213 800.809 21.2213 799.714 Q21.2213 798.812 21.1247 796.976 Q21.0281 795.14 21.0281 794.303 Q21.0281 793.433 21.8332 793.433 Z" fill="#000000" fill-rule="nonzero" fill-opacity="1" /><path clip-path="url(#clip220)" d="M49.5947 784.711 Q38.4515 784.711 29.466 780.557 Q25.6979 778.785 22.5418 776.305 Q19.3856 773.826 18.0007 772.183 Q16.6159 770.541 16.6159 770.09 Q16.6159 769.446 17.26 769.413 Q17.5821 769.413 18.3872 770.283 Q29.2084 780.911 49.5947 780.879 Q70.0454 780.879 80.4479 770.541 Q81.5751 769.413 81.9294 769.413 Q82.5735 769.413 82.5735 770.09 Q82.5735 770.541 81.2531 772.119 Q79.9326 773.697 76.9053 776.144 Q73.8779 778.592 70.1742 780.363 Q61.1888 784.711 49.5947 784.711 Z" fill="#000000" fill-rule="nonzero" fill-opacity="1" /><path clip-path="url(#clip220)" d="M41.2212 737.54 Q42.9281 737.54 44.0231 738.667 Q45.1181 739.762 45.1181 741.179 Q45.1181 742.403 44.4096 743.047 Q43.701 743.691 42.7993 743.691 Q41.511 743.691 40.4482 742.693 Q39.3854 741.695 39.16 740.245 Q38.3871 741.308 38.3871 743.015 Q38.3871 745.817 40.5448 748.297 Q41.5432 749.392 43.379 750.583 Q45.1825 751.775 45.9554 752 L54.5544 754.094 Q55.5206 754.287 60.1582 755.479 Q64.7637 756.638 64.9569 756.735 Q65.8587 757.057 66.3417 757.765 Q66.8248 758.474 66.8248 759.182 Q66.8248 759.987 66.3417 760.535 Q65.8587 761.082 65.0213 761.082 Q64.8925 761.082 64.4094 760.986 Q63.9263 760.889 63.25 760.728 Q62.5737 760.567 62.1872 760.503 L46.9538 756.67 Q44.1841 755.962 43.3146 755.801 Q42.4128 755.607 41.4144 755.607 Q39.6753 755.607 39.0312 756.155 Q38.3871 756.702 38.3871 757.669 Q38.3871 759.343 40.3838 760.438 Q42.3806 761.533 46.2453 762.467 Q47.3081 762.757 47.5335 762.95 Q47.759 763.111 47.759 763.595 Q47.7268 764.4 47.0826 764.4 Q46.9216 764.4 45.891 764.142 Q44.8282 763.884 43.2823 763.401 Q41.7043 762.886 40.7059 762.339 Q40.0296 762.016 39.5787 761.727 Q39.1278 761.437 38.4193 760.857 Q37.7107 760.277 37.3243 759.408 Q36.9378 758.538 36.9378 757.475 Q36.9378 755.157 38.3548 753.514 Q39.7719 751.839 41.9941 751.453 Q40.8347 750.648 39.8363 749.649 Q38.8057 748.651 37.8718 746.815 Q36.9378 744.98 36.9378 743.015 Q36.9378 740.567 38.1938 739.054 Q39.4176 737.54 41.2212 737.54 Z" fill="#000000" fill-rule="nonzero" fill-opacity="1" /><path clip-path="url(#clip220)" d="M81.9294 731.525 Q81.6073 731.525 80.8022 730.688 Q69.981 720.06 49.5947 720.06 Q29.144 720.06 18.8059 730.269 Q17.6143 731.525 17.26 731.525 Q16.6159 731.525 16.6159 730.881 Q16.6159 730.43 17.9363 728.852 Q19.2568 727.242 22.2841 724.827 Q25.3115 722.379 29.0151 720.575 Q38.0006 716.228 49.5947 716.228 Q60.7379 716.228 69.7234 720.382 Q73.4914 722.153 76.6476 724.633 Q79.8038 727.113 81.1886 728.756 Q82.5735 730.398 82.5735 730.881 Q82.5735 731.525 81.9294 731.525 Z" fill="#000000" fill-rule="nonzero" fill-opacity="1" /><path clip-path="url(#clip220)" d="M616.98 18.8205 L616.98 41.5461 L627.269 41.5461 Q632.981 41.5461 636.1 38.5889 Q639.22 35.6318 639.22 30.163 Q639.22 24.7348 636.1 21.7777 Q632.981 18.8205 627.269 18.8205 L616.98 18.8205 M608.797 12.096 L627.269 12.096 Q637.437 12.096 642.622 16.714 Q647.848 21.2916 647.848 30.163 Q647.848 39.1155 642.622 43.6931 Q637.437 48.2706 627.269 48.2706 L616.98 48.2706 L616.98 72.576 L608.797 72.576 L608.797 12.096 Z" fill="#000000" fill-rule="nonzero" fill-opacity="1" /><path clip-path="url(#clip220)" d="M694.352 48.0275 L694.352 51.6733 L660.082 51.6733 Q660.568 59.3701 664.7 63.421 Q668.872 67.4314 676.285 67.4314 Q680.579 67.4314 684.59 66.3781 Q688.641 65.3249 692.611 63.2184 L692.611 70.267 Q688.6 71.9684 684.387 72.8596 Q680.174 73.7508 675.84 73.7508 Q664.983 73.7508 658.623 67.4314 Q652.304 61.1119 652.304 50.3365 Q652.304 39.1965 658.299 32.6746 Q664.335 26.1121 674.544 26.1121 Q683.699 26.1121 689.005 32.0264 Q694.352 37.9003 694.352 48.0275 M686.899 45.84 Q686.818 39.7232 683.456 36.0774 Q680.134 32.4315 674.625 32.4315 Q668.386 32.4315 664.619 35.9558 Q660.892 39.4801 660.325 45.8805 L686.899 45.84 Z" fill="#000000" fill-rule="nonzero" fill-opacity="1" /><path clip-path="url(#clip220)" d="M744.3 45.1919 L744.3 72.576 L736.846 72.576 L736.846 45.4349 Q736.846 38.994 734.335 35.7938 Q731.823 32.5936 726.8 32.5936 Q720.764 32.5936 717.281 36.4419 Q713.797 40.2903 713.797 46.9338 L713.797 72.576 L706.303 72.576 L706.303 27.2059 L713.797 27.2059 L713.797 34.2544 Q716.47 30.163 720.076 28.1376 Q723.722 26.1121 728.461 26.1121 Q736.279 26.1121 740.29 30.9732 Q744.3 35.7938 744.3 45.1919 Z" fill="#000000" fill-rule="nonzero" fill-opacity="1" /><path clip-path="url(#clip220)" d="M778.044 76.7889 Q774.884 84.8907 771.887 87.3618 Q768.889 89.8329 763.866 89.8329 L757.911 89.8329 L757.911 83.5945 L762.286 83.5945 Q765.365 83.5945 767.066 82.1361 Q768.768 80.6778 770.834 75.2496 L772.17 71.8468 L753.82 27.2059 L761.719 27.2059 L775.897 62.6918 L790.075 27.2059 L797.975 27.2059 L778.044 76.7889 Z" fill="#000000" fill-rule="nonzero" fill-opacity="1" /><path clip-path="url(#clip220)" d="M847.072 48.0275 L847.072 51.6733 L812.801 51.6733 Q813.287 59.3701 817.419 63.421 Q821.591 67.4314 829.005 67.4314 Q833.298 67.4314 837.309 66.3781 Q841.36 65.3249 845.33 63.2184 L845.33 70.267 Q841.319 71.9684 837.106 72.8596 Q832.893 73.7508 828.559 73.7508 Q817.702 73.7508 811.343 67.4314 Q805.023 61.1119 805.023 50.3365 Q805.023 39.1965 811.018 32.6746 Q817.054 26.1121 827.263 26.1121 Q836.418 26.1121 841.724 32.0264 Q847.072 37.9003 847.072 48.0275 M839.618 45.84 Q839.537 39.7232 836.175 36.0774 Q832.853 32.4315 827.344 32.4315 Q821.105 32.4315 817.338 35.9558 Q813.611 39.4801 813.044 45.8805 L839.618 45.84 Z" fill="#000000" fill-rule="nonzero" fill-opacity="1" /><path clip-path="url(#clip220)" d="M859.305 9.54393 L866.759 9.54393 L866.759 72.576 L859.305 72.576 L859.305 9.54393 Z" fill="#000000" fill-rule="nonzero" fill-opacity="1" /><path clip-path="url(#clip220)" d="M921.163 48.0275 L921.163 51.6733 L886.892 51.6733 Q887.378 59.3701 891.51 63.421 Q895.682 67.4314 903.096 67.4314 Q907.39 67.4314 911.4 66.3781 Q915.451 65.3249 919.421 63.2184 L919.421 70.267 Q915.41 71.9684 911.197 72.8596 Q906.984 73.7508 902.65 73.7508 Q891.794 73.7508 885.434 67.4314 Q879.114 61.1119 879.114 50.3365 Q879.114 39.1965 885.11 32.6746 Q891.145 26.1121 901.354 26.1121 Q910.509 26.1121 915.815 32.0264 Q921.163 37.9003 921.163 48.0275 M913.709 45.84 Q913.628 39.7232 910.266 36.0774 Q906.944 32.4315 901.435 32.4315 Q895.196 32.4315 891.429 35.9558 Q887.702 39.4801 887.135 45.8805 L913.709 45.84 Z" fill="#000000" fill-rule="nonzero" fill-opacity="1" /><path clip-path="url(#clip220)" d="M962.32 28.5427 L962.32 35.5912 Q959.16 33.9709 955.757 33.1607 Q952.355 32.3505 948.709 32.3505 Q943.159 32.3505 940.364 34.0519 Q937.609 35.7533 937.609 39.156 Q937.609 41.7486 939.594 43.2475 Q941.579 44.7058 947.574 46.0426 L950.127 46.6097 Q958.066 48.3111 961.388 51.4303 Q964.75 54.509 964.75 60.0587 Q964.75 66.3781 959.727 70.0644 Q954.745 73.7508 945.995 73.7508 Q942.349 73.7508 938.379 73.0216 Q934.45 72.3329 930.075 70.9151 L930.075 63.2184 Q934.206 65.3654 938.217 66.4591 Q942.227 67.5124 946.157 67.5124 Q951.423 67.5124 954.258 65.73 Q957.094 63.9071 957.094 60.6258 Q957.094 57.5877 955.028 55.9673 Q953.003 54.3469 946.076 52.8481 L943.483 52.2405 Q936.556 50.7821 933.477 47.7845 Q930.399 44.7463 930.399 39.4801 Q930.399 33.0797 934.936 29.5959 Q939.473 26.1121 947.818 26.1121 Q951.949 26.1121 955.595 26.7198 Q959.241 27.3274 962.32 28.5427 Z" fill="#000000" fill-rule="nonzero" fill-opacity="1" /><path clip-path="url(#clip220)" d="M997.239 49.7694 Q988.205 49.7694 984.721 51.8354 Q981.237 53.9013 981.237 58.8839 Q981.237 62.8538 983.83 65.2034 Q986.463 67.5124 990.96 67.5124 Q997.158 67.5124 1000.88 63.1374 Q1004.65 58.7219 1004.65 51.4303 L1004.65 49.7694 L997.239 49.7694 M1012.11 46.6907 L1012.11 72.576 L1004.65 72.576 L1004.65 65.6895 Q1002.1 69.8214 998.292 71.8063 Q994.484 73.7508 988.975 73.7508 Q982.007 73.7508 977.875 69.8619 Q973.784 65.9325 973.784 59.3701 Q973.784 51.7138 978.888 47.825 Q984.033 43.9361 994.2 43.9361 L1004.65 43.9361 L1004.65 43.2069 Q1004.65 38.0623 1001.25 35.2672 Q997.887 32.4315 991.77 32.4315 Q987.881 32.4315 984.195 33.3632 Q980.508 34.295 977.106 36.1584 L977.106 29.2718 Q981.197 27.692 985.045 26.9223 Q988.894 26.1121 992.54 26.1121 Q1002.38 26.1121 1007.24 31.2163 Q1012.11 36.3204 1012.11 46.6907 Z" fill="#000000" fill-rule="nonzero" fill-opacity="1" /><path clip-path="url(#clip220)" d="M1027.46 27.2059 L1034.91 27.2059 L1034.91 72.576 L1027.46 72.576 L1027.46 27.2059 M1027.46 9.54393 L1034.91 9.54393 L1034.91 18.9825 L1027.46 18.9825 L1027.46 9.54393 Z" fill="#000000" fill-rule="nonzero" fill-opacity="1" /><path clip-path="url(#clip220)" d="M1071.13 49.7694 Q1062.09 49.7694 1058.61 51.8354 Q1055.13 53.9013 1055.13 58.8839 Q1055.13 62.8538 1057.72 65.2034 Q1060.35 67.5124 1064.85 67.5124 Q1071.05 67.5124 1074.77 63.1374 Q1078.54 58.7219 1078.54 51.4303 L1078.54 49.7694 L1071.13 49.7694 M1085.99 46.6907 L1085.99 72.576 L1078.54 72.576 L1078.54 65.6895 Q1075.99 69.8214 1072.18 71.8063 Q1068.37 73.7508 1062.86 73.7508 Q1055.9 73.7508 1051.76 69.8619 Q1047.67 65.9325 1047.67 59.3701 Q1047.67 51.7138 1052.78 47.825 Q1057.92 43.9361 1068.09 43.9361 L1078.54 43.9361 L1078.54 43.2069 Q1078.54 38.0623 1075.14 35.2672 Q1071.78 32.4315 1065.66 32.4315 Q1061.77 32.4315 1058.08 33.3632 Q1054.4 34.295 1050.99 36.1584 L1050.99 29.2718 Q1055.09 27.692 1058.93 26.9223 Q1062.78 26.1121 1066.43 26.1121 Q1076.27 26.1121 1081.13 31.2163 Q1085.99 36.3204 1085.99 46.6907 Z" fill="#000000" fill-rule="nonzero" fill-opacity="1" /><path clip-path="url(#clip220)" d="M1139.06 45.1919 L1139.06 72.576 L1131.61 72.576 L1131.61 45.4349 Q1131.61 38.994 1129.1 35.7938 Q1126.58 32.5936 1121.56 32.5936 Q1115.52 32.5936 1112.04 36.4419 Q1108.56 40.2903 1108.56 46.9338 L1108.56 72.576 L1101.06 72.576 L1101.06 27.2059 L1108.56 27.2059 L1108.56 34.2544 Q1111.23 30.163 1114.84 28.1376 Q1118.48 26.1121 1123.22 26.1121 Q1131.04 26.1121 1135.05 30.9732 Q1139.06 35.7938 1139.06 45.1919 Z" fill="#000000" fill-rule="nonzero" fill-opacity="1" /><path clip-path="url(#clip220)" d="M1188.81 18.8205 L1188.81 41.5461 L1199.1 41.5461 Q1204.81 41.5461 1207.93 38.5889 Q1211.05 35.6318 1211.05 30.163 Q1211.05 24.7348 1207.93 21.7777 Q1204.81 18.8205 1199.1 18.8205 L1188.81 18.8205 M1180.62 12.096 L1199.1 12.096 Q1209.26 12.096 1214.45 16.714 Q1219.67 21.2916 1219.67 30.163 Q1219.67 39.1155 1214.45 43.6931 Q1209.26 48.2706 1199.1 48.2706 L1188.81 48.2706 L1188.81 72.576 L1180.62 72.576 L1180.62 12.096 Z" fill="#000000" fill-rule="nonzero" fill-opacity="1" /><path clip-path="url(#clip220)" d="M1266.18 48.0275 L1266.18 51.6733 L1231.91 51.6733 Q1232.39 59.3701 1236.53 63.421 Q1240.7 67.4314 1248.11 67.4314 Q1252.41 67.4314 1256.42 66.3781 Q1260.47 65.3249 1264.44 63.2184 L1264.44 70.267 Q1260.43 71.9684 1256.21 72.8596 Q1252 73.7508 1247.67 73.7508 Q1236.81 73.7508 1230.45 67.4314 Q1224.13 61.1119 1224.13 50.3365 Q1224.13 39.1965 1230.13 32.6746 Q1236.16 26.1121 1246.37 26.1121 Q1255.52 26.1121 1260.83 32.0264 Q1266.18 37.9003 1266.18 48.0275 M1258.72 45.84 Q1258.64 39.7232 1255.28 36.0774 Q1251.96 32.4315 1246.45 32.4315 Q1240.21 32.4315 1236.44 35.9558 Q1232.72 39.4801 1232.15 45.8805 L1258.72 45.84 Z" fill="#000000" fill-rule="nonzero" fill-opacity="1" /><path clip-path="url(#clip220)" d="M1304.7 34.1734 Q1303.45 33.4443 1301.95 33.1202 Q1300.49 32.7556 1298.71 32.7556 Q1292.39 32.7556 1288.98 36.8875 Q1285.62 40.9789 1285.62 48.6757 L1285.62 72.576 L1278.13 72.576 L1278.13 27.2059 L1285.62 27.2059 L1285.62 34.2544 Q1287.97 30.1225 1291.74 28.1376 Q1295.51 26.1121 1300.89 26.1121 Q1301.66 26.1121 1302.6 26.2337 Q1303.53 26.3147 1304.66 26.5172 L1304.7 34.1734 Z" fill="#000000" fill-rule="nonzero" fill-opacity="1" /><path clip-path="url(#clip220)" d="M1341.44 28.5427 L1341.44 35.5912 Q1338.28 33.9709 1334.88 33.1607 Q1331.48 32.3505 1327.83 32.3505 Q1322.28 32.3505 1319.49 34.0519 Q1316.73 35.7533 1316.73 39.156 Q1316.73 41.7486 1318.72 43.2475 Q1320.7 44.7058 1326.7 46.0426 L1329.25 46.6097 Q1337.19 48.3111 1340.51 51.4303 Q1343.87 54.509 1343.87 60.0587 Q1343.87 66.3781 1338.85 70.0644 Q1333.87 73.7508 1325.12 73.7508 Q1321.47 73.7508 1317.5 73.0216 Q1313.57 72.3329 1309.2 70.9151 L1309.2 63.2184 Q1313.33 65.3654 1317.34 66.4591 Q1321.35 67.5124 1325.28 67.5124 Q1330.55 67.5124 1333.38 65.73 Q1336.22 63.9071 1336.22 60.6258 Q1336.22 57.5877 1334.15 55.9673 Q1332.13 54.3469 1325.2 52.8481 L1322.61 52.2405 Q1315.68 50.7821 1312.6 47.7845 Q1309.52 44.7463 1309.52 39.4801 Q1309.52 33.0797 1314.06 29.5959 Q1318.6 26.1121 1326.94 26.1121 Q1331.07 26.1121 1334.72 26.7198 Q1338.37 27.3274 1341.44 28.5427 Z" fill="#000000" fill-rule="nonzero" fill-opacity="1" /><path clip-path="url(#clip220)" d="M1376.36 49.7694 Q1367.33 49.7694 1363.85 51.8354 Q1360.36 53.9013 1360.36 58.8839 Q1360.36 62.8538 1362.95 65.2034 Q1365.59 67.5124 1370.08 67.5124 Q1376.28 67.5124 1380.01 63.1374 Q1383.78 58.7219 1383.78 51.4303 L1383.78 49.7694 L1376.36 49.7694 M1391.23 46.6907 L1391.23 72.576 L1383.78 72.576 L1383.78 65.6895 Q1381.22 69.8214 1377.42 71.8063 Q1373.61 73.7508 1368.1 73.7508 Q1361.13 73.7508 1357 69.8619 Q1352.91 65.9325 1352.91 59.3701 Q1352.91 51.7138 1358.01 47.825 Q1363.16 43.9361 1373.32 43.9361 L1383.78 43.9361 L1383.78 43.2069 Q1383.78 38.0623 1380.37 35.2672 Q1377.01 32.4315 1370.89 32.4315 Q1367.01 32.4315 1363.32 33.3632 Q1359.63 34.295 1356.23 36.1584 L1356.23 29.2718 Q1360.32 27.692 1364.17 26.9223 Q1368.02 26.1121 1371.66 26.1121 Q1381.51 26.1121 1386.37 31.2163 Q1391.23 36.3204 1391.23 46.6907 Z" fill="#000000" fill-rule="nonzero" fill-opacity="1" /><path clip-path="url(#clip220)" d="M1441.91 35.9153 Q1444.7 30.8922 1448.59 28.5022 Q1452.48 26.1121 1457.75 26.1121 Q1464.83 26.1121 1468.68 31.0947 Q1472.53 36.0368 1472.53 45.1919 L1472.53 72.576 L1465.04 72.576 L1465.04 45.4349 Q1465.04 38.913 1462.73 35.7533 Q1460.42 32.5936 1455.68 32.5936 Q1449.89 32.5936 1446.52 36.4419 Q1443.16 40.2903 1443.16 46.9338 L1443.16 72.576 L1435.67 72.576 L1435.67 45.4349 Q1435.67 38.8725 1433.36 35.7533 Q1431.05 32.5936 1426.23 32.5936 Q1420.52 32.5936 1417.16 36.4824 Q1413.79 40.3308 1413.79 46.9338 L1413.79 72.576 L1406.3 72.576 L1406.3 27.2059 L1413.79 27.2059 L1413.79 34.2544 Q1416.35 30.082 1419.91 28.0971 Q1423.47 26.1121 1428.38 26.1121 Q1433.32 26.1121 1436.76 28.6237 Q1440.25 31.1352 1441.91 35.9153 Z" fill="#000000" fill-rule="nonzero" fill-opacity="1" /><path clip-path="url(#clip220)" d="M1508.02 49.7694 Q1498.98 49.7694 1495.5 51.8354 Q1492.02 53.9013 1492.02 58.8839 Q1492.02 62.8538 1494.61 65.2034 Q1497.24 67.5124 1501.74 67.5124 Q1507.94 67.5124 1511.66 63.1374 Q1515.43 58.7219 1515.43 51.4303 L1515.43 49.7694 L1508.02 49.7694 M1522.88 46.6907 L1522.88 72.576 L1515.43 72.576 L1515.43 65.6895 Q1512.88 69.8214 1509.07 71.8063 Q1505.26 73.7508 1499.75 73.7508 Q1492.79 73.7508 1488.65 69.8619 Q1484.56 65.9325 1484.56 59.3701 Q1484.56 51.7138 1489.67 47.825 Q1494.81 43.9361 1504.98 43.9361 L1515.43 43.9361 L1515.43 43.2069 Q1515.43 38.0623 1512.03 35.2672 Q1508.67 32.4315 1502.55 32.4315 Q1498.66 32.4315 1494.97 33.3632 Q1491.29 34.295 1487.88 36.1584 L1487.88 29.2718 Q1491.98 27.692 1495.82 26.9223 Q1499.67 26.1121 1503.32 26.1121 Q1513.16 26.1121 1518.02 31.2163 Q1522.88 36.3204 1522.88 46.6907 Z" fill="#000000" fill-rule="nonzero" fill-opacity="1" /><path clip-path="url(#clip220)" d="M1558.86 49.7694 Q1549.82 49.7694 1546.34 51.8354 Q1542.85 53.9013 1542.85 58.8839 Q1542.85 62.8538 1545.45 65.2034 Q1548.08 67.5124 1552.58 67.5124 Q1558.77 67.5124 1562.5 63.1374 Q1566.27 58.7219 1566.27 51.4303 L1566.27 49.7694 L1558.86 49.7694 M1573.72 46.6907 L1573.72 72.576 L1566.27 72.576 L1566.27 65.6895 Q1563.72 69.8214 1559.91 71.8063 Q1556.1 73.7508 1550.59 73.7508 Q1543.62 73.7508 1539.49 69.8619 Q1535.4 65.9325 1535.4 59.3701 Q1535.4 51.7138 1540.51 47.825 Q1545.65 43.9361 1555.82 43.9361 L1566.27 43.9361 L1566.27 43.2069 Q1566.27 38.0623 1562.87 35.2672 Q1559.5 32.4315 1553.39 32.4315 Q1549.5 32.4315 1545.81 33.3632 Q1542.13 34.295 1538.72 36.1584 L1538.72 29.2718 Q1542.81 27.692 1546.66 26.9223 Q1550.51 26.1121 1554.16 26.1121 Q1564 26.1121 1568.86 31.2163 Q1573.72 36.3204 1573.72 46.6907 Z" fill="#000000" fill-rule="nonzero" fill-opacity="1" /><path clip-path="url(#clip220)" d="M1626.79 45.1919 L1626.79 72.576 L1619.34 72.576 L1619.34 45.4349 Q1619.34 38.994 1616.82 35.7938 Q1614.31 32.5936 1609.29 32.5936 Q1603.25 32.5936 1599.77 36.4419 Q1596.29 40.2903 1596.29 46.9338 L1596.29 72.576 L1588.79 72.576 L1588.79 27.2059 L1596.29 27.2059 L1596.29 34.2544 Q1598.96 30.163 1602.57 28.1376 Q1606.21 26.1121 1610.95 26.1121 Q1618.77 26.1121 1622.78 30.9732 Q1626.79 35.7938 1626.79 45.1919 Z" fill="#000000" fill-rule="nonzero" fill-opacity="1" /><path clip-path="url(#clip220)" d="M1676.53 18.8205 L1676.53 41.5461 L1686.82 41.5461 Q1692.54 41.5461 1695.65 38.5889 Q1698.77 35.6318 1698.77 30.163 Q1698.77 24.7348 1695.65 21.7777 Q1692.54 18.8205 1686.82 18.8205 L1676.53 18.8205 M1668.35 12.096 L1686.82 12.096 Q1696.99 12.096 1702.18 16.714 Q1707.4 21.2916 1707.4 30.163 Q1707.4 39.1155 1702.18 43.6931 Q1696.99 48.2706 1686.82 48.2706 L1676.53 48.2706 L1676.53 72.576 L1668.35 72.576 L1668.35 12.096 Z" fill="#000000" fill-rule="nonzero" fill-opacity="1" /><path clip-path="url(#clip220)" d="M1732.68 32.4315 Q1726.68 32.4315 1723.2 37.1306 Q1719.72 41.7891 1719.72 49.9314 Q1719.72 58.0738 1723.16 62.7728 Q1726.64 67.4314 1732.68 67.4314 Q1738.64 67.4314 1742.12 62.7323 Q1745.6 58.0333 1745.6 49.9314 Q1745.6 41.8701 1742.12 37.1711 Q1738.64 32.4315 1732.68 32.4315 M1732.68 26.1121 Q1742.4 26.1121 1747.95 32.4315 Q1753.5 38.7509 1753.5 49.9314 Q1753.5 61.0714 1747.95 67.4314 Q1742.4 73.7508 1732.68 73.7508 Q1722.92 73.7508 1717.37 67.4314 Q1711.86 61.0714 1711.86 49.9314 Q1711.86 38.7509 1717.37 32.4315 Q1722.92 26.1121 1732.68 26.1121 Z" fill="#000000" fill-rule="nonzero" fill-opacity="1" /><path clip-path="url(#clip220)" d="M1765.86 27.2059 L1773.31 27.2059 L1773.31 72.576 L1765.86 72.576 L1765.86 27.2059 M1765.86 9.54393 L1773.31 9.54393 L1773.31 18.9825 L1765.86 18.9825 L1765.86 9.54393 Z" fill="#000000" fill-rule="nonzero" fill-opacity="1" /><path clip-path="url(#clip220)" d="M1817.83 28.5427 L1817.83 35.5912 Q1814.67 33.9709 1811.27 33.1607 Q1807.87 32.3505 1804.22 32.3505 Q1798.67 32.3505 1795.87 34.0519 Q1793.12 35.7533 1793.12 39.156 Q1793.12 41.7486 1795.1 43.2475 Q1797.09 44.7058 1803.08 46.0426 L1805.64 46.6097 Q1813.58 48.3111 1816.9 51.4303 Q1820.26 54.509 1820.26 60.0587 Q1820.26 66.3781 1815.24 70.0644 Q1810.26 73.7508 1801.51 73.7508 Q1797.86 73.7508 1793.89 73.0216 Q1789.96 72.3329 1785.59 70.9151 L1785.59 63.2184 Q1789.72 65.3654 1793.73 66.4591 Q1797.74 67.5124 1801.67 67.5124 Q1806.93 67.5124 1809.77 65.73 Q1812.6 63.9071 1812.6 60.6258 Q1812.6 57.5877 1810.54 55.9673 Q1808.51 54.3469 1801.59 52.8481 L1798.99 52.2405 Q1792.07 50.7821 1788.99 47.7845 Q1785.91 44.7463 1785.91 39.4801 Q1785.91 33.0797 1790.45 29.5959 Q1794.98 26.1121 1803.33 26.1121 Q1807.46 26.1121 1811.11 26.7198 Q1814.75 27.3274 1817.83 28.5427 Z" fill="#000000" fill-rule="nonzero" fill-opacity="1" /><path clip-path="url(#clip220)" d="M1861.05 28.5427 L1861.05 35.5912 Q1857.89 33.9709 1854.49 33.1607 Q1851.09 32.3505 1847.44 32.3505 Q1841.89 32.3505 1839.1 34.0519 Q1836.34 35.7533 1836.34 39.156 Q1836.34 41.7486 1838.33 43.2475 Q1840.31 44.7058 1846.31 46.0426 L1848.86 46.6097 Q1856.8 48.3111 1860.12 51.4303 Q1863.48 54.509 1863.48 60.0587 Q1863.48 66.3781 1858.46 70.0644 Q1853.48 73.7508 1844.73 73.7508 Q1841.08 73.7508 1837.11 73.0216 Q1833.18 72.3329 1828.81 70.9151 L1828.81 63.2184 Q1832.94 65.3654 1836.95 66.4591 Q1840.96 67.5124 1844.89 67.5124 Q1850.16 67.5124 1852.99 65.73 Q1855.83 63.9071 1855.83 60.6258 Q1855.83 57.5877 1853.76 55.9673 Q1851.74 54.3469 1844.81 52.8481 L1842.22 52.2405 Q1835.29 50.7821 1832.21 47.7845 Q1829.13 44.7463 1829.13 39.4801 Q1829.13 33.0797 1833.67 29.5959 Q1838.21 26.1121 1846.55 26.1121 Q1850.68 26.1121 1854.33 26.7198 Q1857.97 27.3274 1861.05 28.5427 Z" fill="#000000" fill-rule="nonzero" fill-opacity="1" /><path clip-path="url(#clip220)" d="M1892.93 32.4315 Q1886.94 32.4315 1883.45 37.1306 Q1879.97 41.7891 1879.97 49.9314 Q1879.97 58.0738 1883.41 62.7728 Q1886.9 67.4314 1892.93 67.4314 Q1898.89 67.4314 1902.37 62.7323 Q1905.86 58.0333 1905.86 49.9314 Q1905.86 41.8701 1902.37 37.1711 Q1898.89 32.4315 1892.93 32.4315 M1892.93 26.1121 Q1902.66 26.1121 1908.21 32.4315 Q1913.76 38.7509 1913.76 49.9314 Q1913.76 61.0714 1908.21 67.4314 Q1902.66 73.7508 1892.93 73.7508 Q1883.17 73.7508 1877.62 67.4314 Q1872.11 61.0714 1872.11 49.9314 Q1872.11 38.7509 1877.62 32.4315 Q1883.17 26.1121 1892.93 26.1121 Z" fill="#000000" fill-rule="nonzero" fill-opacity="1" /><path clip-path="url(#clip220)" d="M1963.82 45.1919 L1963.82 72.576 L1956.37 72.576 L1956.37 45.4349 Q1956.37 38.994 1953.86 35.7938 Q1951.35 32.5936 1946.32 32.5936 Q1940.29 32.5936 1936.81 36.4419 Q1933.32 40.2903 1933.32 46.9338 L1933.32 72.576 L1925.83 72.576 L1925.83 27.2059 L1933.32 27.2059 L1933.32 34.2544 Q1936 30.163 1939.6 28.1376 Q1943.25 26.1121 1947.99 26.1121 Q1955.8 26.1121 1959.81 30.9732 Q1963.82 35.7938 1963.82 45.1919 Z" fill="#000000" fill-rule="nonzero" fill-opacity="1" /><polyline clip-path="url(#clip221)" style="stroke:#009af9; stroke-linecap:round; stroke-linejoin:round; stroke-width:4; stroke-opacity:1; fill:none" points="280.231,509.508 321.296,526.835 362.36,562.224 403.425,605.656 444.489,652.854 485.554,701.186 526.618,748.933 567.683,794.994 608.747,838.705 649.811,879.716 690.876,917.891 731.94,953.242 773.005,985.871 814.069,1015.93 855.134,1043.62 896.198,1069.12 937.263,1092.63 978.327,1114.34 1019.39,1134.42 1060.46,1153.04 1101.52,1170.33 1142.59,1186.44 1183.65,1201.47 1224.71,1215.53 1265.78,1228.71 1306.84,1241.09 1347.91,1252.75 1388.97,1263.75 1430.04,1274.14 1471.1,1283.98 1512.17,1293.32 1553.23,1302.19 1594.29,1310.62 1635.36,1318.66 1676.42,1326.33 1717.49,1333.66 1758.55,1340.66 1799.62,1347.37 1840.68,1353.8 1881.75,1359.96 1922.81,1365.88 1963.88,1371.57 2004.94,1377.05 2046,1381.88 2087.07,1385.24 2128.13,1386.4 2169.2,1385.06 2210.26,1381.54 2251.33,1376.54 2292.39,1370.96 "/>
<polyline clip-path="url(#clip221)" style="stroke:#e26f46; stroke-linecap:round; stroke-linejoin:round; stroke-width:4; stroke-opacity:1; fill:none" points="280.231,160.256 321.296,184.5 362.36,219.31 403.425,261.419 444.489,308.296 485.554,357.998 526.618,409.05 567.683,460.344 608.747,511.06 649.811,560.607 690.876,608.57 731.94,654.67 773.005,698.734 814.069,740.669 855.134,780.441 896.198,818.062 937.263,853.576 978.327,887.05 1019.39,918.566 1060.46,948.216 1101.52,976.097 1142.59,1002.31 1183.65,1026.96 1224.71,1050.13 1265.78,1071.93 1306.84,1092.44 1347.91,1111.76 1388.97,1129.96 1430.04,1147.12 1471.1,1163.32 1512.17,1178.62 1553.23,1193.08 1594.29,1206.76 1635.36,1219.72 1676.42,1232 1717.49,1243.66 1758.55,1254.72 1799.62,1265.25 1840.68,1275.26 1881.75,1284.8 1922.81,1293.89 1963.88,1302.56 2004.94,1310.85 2046,1318.77 2087.07,1326.34 2128.13,1333.6 2169.2,1340.55 2210.26,1347.22 2251.33,1353.62 2292.39,1359.76 "/>
<path clip-path="url(#clip220)" d="M1872.19 322.316 L2281.66 322.316 L2281.66 166.796 L1872.19 166.796  Z" fill="#ffffff" fill-rule="evenodd" fill-opacity="1"/>
<polyline clip-path="url(#clip220)" style="stroke:#000000; stroke-linecap:round; stroke-linejoin:round; stroke-width:4; stroke-opacity:1; fill:none" points="1872.19,322.316 2281.66,322.316 2281.66,166.796 1872.19,166.796 1872.19,322.316 "/>
<polyline clip-path="url(#clip220)" style="stroke:#009af9; stroke-linecap:round; stroke-linejoin:round; stroke-width:4; stroke-opacity:1; fill:none" points="1895.89,218.636 2038.08,218.636 "/>
<path clip-path="url(#clip220)" d="M2061.78 201.356 L2068.08 201.356 L2083.4 230.268 L2083.4 201.356 L2087.94 201.356 L2087.94 235.916 L2081.64 235.916 L2066.32 207.004 L2066.32 235.916 L2061.78 235.916 L2061.78 201.356 Z" fill="#000000" fill-rule="nonzero" fill-opacity="1" /><path clip-path="url(#clip220)" d="M2096.62 225.684 L2096.62 209.99 L2100.88 209.99 L2100.88 225.522 Q2100.88 229.203 2102.31 231.055 Q2103.75 232.883 2106.62 232.883 Q2110.07 232.883 2112.06 230.684 Q2114.07 228.485 2114.07 224.689 L2114.07 209.99 L2118.33 209.99 L2118.33 235.916 L2114.07 235.916 L2114.07 231.934 Q2112.52 234.295 2110.46 235.453 Q2108.42 236.587 2105.72 236.587 Q2101.25 236.587 2098.93 233.809 Q2096.62 231.031 2096.62 225.684 M2107.34 209.365 L2107.34 209.365 Z" fill="#000000" fill-rule="nonzero" fill-opacity="1" /><path clip-path="url(#clip220)" d="M2147.29 214.967 Q2148.89 212.096 2151.11 210.731 Q2153.33 209.365 2156.34 209.365 Q2160.39 209.365 2162.59 212.212 Q2164.79 215.036 2164.79 220.268 L2164.79 235.916 L2160.51 235.916 L2160.51 220.407 Q2160.51 216.68 2159.19 214.874 Q2157.87 213.069 2155.16 213.069 Q2151.85 213.069 2149.93 215.268 Q2148.01 217.467 2148.01 221.263 L2148.01 235.916 L2143.73 235.916 L2143.73 220.407 Q2143.73 216.657 2142.41 214.874 Q2141.09 213.069 2138.33 213.069 Q2135.07 213.069 2133.15 215.291 Q2131.23 217.49 2131.23 221.263 L2131.23 235.916 L2126.94 235.916 L2126.94 209.99 L2131.23 209.99 L2131.23 214.018 Q2132.68 211.633 2134.72 210.499 Q2136.76 209.365 2139.56 209.365 Q2142.38 209.365 2144.35 210.8 Q2146.34 212.235 2147.29 214.967 Z" fill="#000000" fill-rule="nonzero" fill-opacity="1" /><path clip-path="url(#clip220)" d="M2195.46 221.888 L2195.46 223.971 L2175.88 223.971 Q2176.16 228.369 2178.52 230.684 Q2180.9 232.976 2185.14 232.976 Q2187.59 232.976 2189.88 232.374 Q2192.2 231.772 2194.47 230.569 L2194.47 234.596 Q2192.17 235.568 2189.77 236.078 Q2187.36 236.587 2184.88 236.587 Q2178.68 236.587 2175.04 232.976 Q2171.43 229.365 2171.43 223.207 Q2171.43 216.842 2174.86 213.115 Q2178.31 209.365 2184.14 209.365 Q2189.37 209.365 2192.41 212.745 Q2195.46 216.101 2195.46 221.888 M2191.2 220.638 Q2191.16 217.143 2189.23 215.059 Q2187.34 212.976 2184.19 212.976 Q2180.62 212.976 2178.47 214.99 Q2176.34 217.004 2176.02 220.661 L2191.2 220.638 Z" fill="#000000" fill-rule="nonzero" fill-opacity="1" /><path clip-path="url(#clip220)" d="M2217.47 213.971 Q2216.76 213.555 2215.9 213.37 Q2215.07 213.161 2214.05 213.161 Q2210.44 213.161 2208.49 215.522 Q2206.57 217.86 2206.57 222.258 L2206.57 235.916 L2202.29 235.916 L2202.29 209.99 L2206.57 209.99 L2206.57 214.018 Q2207.91 211.657 2210.07 210.522 Q2212.22 209.365 2215.3 209.365 Q2215.74 209.365 2216.27 209.434 Q2216.8 209.481 2217.45 209.596 L2217.47 213.971 Z" fill="#000000" fill-rule="nonzero" fill-opacity="1" /><path clip-path="url(#clip220)" d="M2221.94 209.99 L2226.2 209.99 L2226.2 235.916 L2221.94 235.916 L2221.94 209.99 M2221.94 199.897 L2226.2 199.897 L2226.2 205.291 L2221.94 205.291 L2221.94 199.897 Z" fill="#000000" fill-rule="nonzero" fill-opacity="1" /><path clip-path="url(#clip220)" d="M2234.95 199.897 L2239.23 199.897 L2239.23 221.17 L2251.94 209.99 L2257.38 209.99 L2243.63 222.119 L2257.96 235.916 L2252.41 235.916 L2239.23 223.254 L2239.23 235.916 L2234.95 235.916 L2234.95 199.897 Z" fill="#000000" fill-rule="nonzero" fill-opacity="1" /><polyline clip-path="url(#clip220)" style="stroke:#e26f46; stroke-linecap:round; stroke-linejoin:round; stroke-width:4; stroke-opacity:1; fill:none" points="1895.89,270.476 2038.08,270.476 "/>
<path clip-path="url(#clip220)" d="M2077.61 257.802 L2071.27 275.001 L2083.98 275.001 L2077.61 257.802 M2074.98 253.196 L2080.28 253.196 L2093.45 287.756 L2088.59 287.756 L2085.44 278.89 L2069.86 278.89 L2066.71 287.756 L2061.78 287.756 L2074.98 253.196 Z" fill="#000000" fill-rule="nonzero" fill-opacity="1" /><path clip-path="url(#clip220)" d="M2119.86 272.108 L2119.86 287.756 L2115.6 287.756 L2115.6 272.247 Q2115.6 268.566 2114.17 266.737 Q2112.73 264.909 2109.86 264.909 Q2106.41 264.909 2104.42 267.108 Q2102.43 269.307 2102.43 273.103 L2102.43 287.756 L2098.15 287.756 L2098.15 261.83 L2102.43 261.83 L2102.43 265.858 Q2103.96 263.52 2106.02 262.362 Q2108.1 261.205 2110.81 261.205 Q2115.28 261.205 2117.57 263.983 Q2119.86 266.737 2119.86 272.108 Z" fill="#000000" fill-rule="nonzero" fill-opacity="1" /><path clip-path="url(#clip220)" d="M2140.14 274.723 Q2134.98 274.723 2132.98 275.904 Q2130.99 277.084 2130.99 279.932 Q2130.99 282.2 2132.48 283.543 Q2133.98 284.862 2136.55 284.862 Q2140.09 284.862 2142.22 282.362 Q2144.37 279.839 2144.37 275.672 L2144.37 274.723 L2140.14 274.723 M2148.63 272.964 L2148.63 287.756 L2144.37 287.756 L2144.37 283.821 Q2142.92 286.182 2140.74 287.316 Q2138.56 288.427 2135.42 288.427 Q2131.43 288.427 2129.07 286.205 Q2126.73 283.959 2126.73 280.209 Q2126.73 275.834 2129.65 273.612 Q2132.59 271.39 2138.4 271.39 L2144.37 271.39 L2144.37 270.973 Q2144.37 268.034 2142.43 266.436 Q2140.51 264.816 2137.01 264.816 Q2134.79 264.816 2132.68 265.348 Q2130.58 265.881 2128.63 266.946 L2128.63 263.01 Q2130.97 262.108 2133.17 261.668 Q2135.37 261.205 2137.45 261.205 Q2143.08 261.205 2145.85 264.122 Q2148.63 267.038 2148.63 272.964 Z" fill="#000000" fill-rule="nonzero" fill-opacity="1" /><path clip-path="url(#clip220)" d="M2157.41 251.737 L2161.67 251.737 L2161.67 287.756 L2157.41 287.756 L2157.41 251.737 Z" fill="#000000" fill-rule="nonzero" fill-opacity="1" /><path clip-path="url(#clip220)" d="M2170.58 261.83 L2174.84 261.83 L2174.84 287.756 L2170.58 287.756 L2170.58 261.83 M2170.58 251.737 L2174.84 251.737 L2174.84 257.131 L2170.58 257.131 L2170.58 251.737 Z" fill="#000000" fill-rule="nonzero" fill-opacity="1" /><path clip-path="url(#clip220)" d="M2187.96 254.469 L2187.96 261.83 L2196.73 261.83 L2196.73 265.14 L2187.96 265.14 L2187.96 279.214 Q2187.96 282.385 2188.82 283.288 Q2189.7 284.191 2192.36 284.191 L2196.73 284.191 L2196.73 287.756 L2192.36 287.756 Q2187.43 287.756 2185.55 285.927 Q2183.68 284.075 2183.68 279.214 L2183.68 265.14 L2180.55 265.14 L2180.55 261.83 L2183.68 261.83 L2183.68 254.469 L2187.96 254.469 Z" fill="#000000" fill-rule="nonzero" fill-opacity="1" /><path clip-path="url(#clip220)" d="M2202.34 261.83 L2206.6 261.83 L2206.6 287.756 L2202.34 287.756 L2202.34 261.83 M2202.34 251.737 L2206.6 251.737 L2206.6 257.131 L2202.34 257.131 L2202.34 251.737 Z" fill="#000000" fill-rule="nonzero" fill-opacity="1" /><path clip-path="url(#clip220)" d="M2215.35 251.737 L2219.63 251.737 L2219.63 273.01 L2232.34 261.83 L2237.78 261.83 L2224.03 273.959 L2238.35 287.756 L2232.8 287.756 L2219.63 275.094 L2219.63 287.756 L2215.35 287.756 L2215.35 251.737 Z" fill="#000000" fill-rule="nonzero" fill-opacity="1" /></svg>
